M48
;Layer_Color=9474304
;FILE_FORMAT=2:5
INCH,LZ
;TYPE=PLATED
T1F00S00C0.02800
T2F00S00C0.03150
T3F00S00C0.03543
T4F00S00C0.03937
T5F00S00C0.04331
T6F00S00C0.05118
T7F00S00C0.12500
%
T01
X04865Y00155
X0492Y00555
X052025Y003635
X05365Y0015
X05495Y0015
X0528Y00705
X0522681Y0058112
X0513Y0062307
X04766Y00637
X0468Y0075
X03455Y0158153
X01678Y02755
X01628Y0331
X00986Y0353
X00731Y03649
X02125Y0234
X03338Y023996
X03455Y0243903
Y0329653
X0335Y03375
X0318Y03305
X0426Y03135
X0534673Y03335
X0555Y0363
X03455Y0415403
Y0501153
X03085Y05132
X0257Y0478
X02385
X0215055Y05055
X0196945Y0509701
X0201Y0478
X01845
X0151Y0478488
X00955Y0478
Y0498
X01495Y03955
X0054Y0528
X004Y0529
X00265Y0545
X00715Y05275
X0077Y05765
X02175Y0554
X02532Y0557
X02635Y0559
T02
X0284327Y05265
X0291413
X02985
T03
X01395Y0323
X01495
Y0333
Y0343
X01395
Y0353
Y0363
X01495
Y0353
X01395Y0333
X0149Y05275
X0169
T04
X0571Y0053
Y0068
X0024Y02755
Y02905
Y03055
Y03205
Y03355
Y03505
Y03655
X0571Y03605
Y03455
Y03305
Y03155
Y03005
Y02855
Y02705
Y02555
Y02405
Y03755
X0024Y03805
Y03955
Y04105
X02895Y05675
X03045
X03195
X03345
X03495
X03645
X03795
X03945
X04095
X04245
X04395
X04545
T05
X0465224Y01755
X0505776
X0507276Y0268
X0466724
X0467224Y0359
X0507776
X0505276Y04445
X0464724
X0463224Y0524
X0503776
X0067842Y0472
X0048157
T06
X0392815Y01325
X04125
X04625
X0502657
X0197Y01185
Y0078343
X01215Y0077843
Y0118
Y0168
Y0187685
X0197Y0188185
Y01685
X0051Y017
Y0189685
Y012
Y0079843
X0392815Y0219625
X04125
X04625
X0502657
Y030675
X04625
X04125
X0392815
Y0393875
X04125
X04625
X0502657
Y0481
X04625
X04125
X0392815
T07
X0019685Y0019685
X0570866
X0019685Y0570866
X0570866
M30
