G04*
G04 #@! TF.GenerationSoftware,Altium Limited,Altium Designer,22.3.1 (43)*
G04*
G04 Layer_Color=16711935*
%FSLAX25Y25*%
%MOIN*%
G70*
G04*
G04 #@! TF.SameCoordinates,EF3FA71F-0FF1-4D3B-8963-7E32679EFE31*
G04*
G04*
G04 #@! TF.FilePolarity,Positive*
G04*
G01*
G75*
%ADD14C,0.00787*%
%ADD18C,0.00394*%
D14*
X234315Y46922D02*
Y217000D01*
X192976D02*
X234315D01*
X192976Y46922D02*
Y217000D01*
Y46922D02*
X234315D01*
X177315D02*
Y217000D01*
X135976D02*
X177315D01*
X135976Y46922D02*
Y217000D01*
Y46922D02*
X177315D01*
X211815Y256921D02*
Y427000D01*
X170476D02*
X211815D01*
X170476Y256921D02*
Y427000D01*
Y256921D02*
X211815D01*
X120315Y46922D02*
Y217000D01*
X78976D02*
X120315D01*
X78976Y46922D02*
Y217000D01*
Y46922D02*
X120315D01*
X21976D02*
X63315D01*
X21976D02*
Y217000D01*
X63315D01*
Y46922D02*
Y217000D01*
X152815Y258422D02*
Y428500D01*
X111476D02*
X152815D01*
X111476Y258422D02*
Y428500D01*
Y258422D02*
X152815D01*
D18*
X247969Y52500D02*
X247705Y53484D01*
X246984Y54205D01*
X246000Y54469D01*
X245016Y54205D01*
X244295Y53484D01*
X244032Y52500D01*
X244295Y51516D01*
X245016Y50795D01*
X246000Y50532D01*
X246984Y50795D01*
X247705Y51516D01*
X247969Y52500D01*
X192811Y522346D02*
X219189D01*
X192811Y536913D02*
X219189D01*
X192811Y522346D02*
Y536913D01*
X219189Y522346D02*
Y536913D01*
X262843Y49413D02*
Y63587D01*
X243157Y49413D02*
Y63587D01*
X262843D01*
X243157Y49413D02*
X262843D01*
X218456Y235354D02*
Y247165D01*
X213338Y235354D02*
Y247165D01*
Y235354D02*
X218456D01*
X213338Y247165D02*
X218456D01*
X153372D02*
X158491D01*
X153372Y235354D02*
X158491D01*
X153372D02*
Y247165D01*
X158491Y235354D02*
Y247165D01*
X93407D02*
X98525D01*
X93407Y235354D02*
X98525D01*
X93407D02*
Y247165D01*
X98525Y235354D02*
Y247165D01*
X33441D02*
X38559D01*
X33441Y235354D02*
X38559D01*
X33441D02*
Y247165D01*
X38559Y235354D02*
Y247165D01*
M02*
