G04*
G04 #@! TF.GenerationSoftware,Altium Limited,Altium Designer,22.3.1 (43)*
G04*
G04 Layer_Color=8388736*
%FSLAX25Y25*%
%MOIN*%
G70*
G04*
G04 #@! TF.SameCoordinates,EF3FA71F-0FF1-4D3B-8963-7E32679EFE31*
G04*
G04*
G04 #@! TF.FilePolarity,Negative*
G04*
G01*
G75*
%ADD33R,0.05800X0.05800*%
%ADD34R,0.04737X0.11430*%
%ADD35R,0.13792X0.11430*%
%ADD36R,0.08674X0.08674*%
%ADD37R,0.04934X0.13398*%
%ADD38R,0.41942X0.40170*%
%ADD39R,0.10249X0.13792*%
%ADD40O,0.03162X0.09068*%
%ADD41R,0.03162X0.09068*%
%ADD42R,0.09623X0.08861*%
%ADD43R,0.06312X0.03162*%
G04:AMPARAMS|DCode=44|XSize=63mil|YSize=58mil|CornerRadius=0mil|HoleSize=0mil|Usage=FLASHONLY|Rotation=270.000|XOffset=0mil|YOffset=0mil|HoleType=Round|Shape=Octagon|*
%AMOCTAGOND44*
4,1,8,-0.01450,-0.03150,0.01450,-0.03150,0.02900,-0.01700,0.02900,0.01700,0.01450,0.03150,-0.01450,0.03150,-0.02900,0.01700,-0.02900,-0.01700,-0.01450,-0.03150,0.0*
%
%ADD44OCTAGOND44*%

%ADD45R,0.05800X0.06300*%
%ADD46C,0.08280*%
%ADD47R,0.08280X0.08280*%
%ADD48C,0.08477*%
%ADD49O,0.09461X0.12611*%
%ADD50R,0.28359X0.28359*%
%ADD51R,0.08674X0.05524*%
%ADD52O,0.08674X0.05524*%
%ADD53C,0.07099*%
%ADD54R,0.07099X0.07099*%
%ADD55C,0.20800*%
%ADD56C,0.07887*%
%ADD57R,0.07887X0.07887*%
%ADD58O,0.12611X0.09461*%
%ADD59O,0.05524X0.08674*%
%ADD60R,0.05524X0.08674*%
%ADD61C,0.08674*%
%ADD62C,0.05800*%
D33*
X267000Y541500D02*
D03*
Y532500D02*
D03*
X228500Y544000D02*
D03*
Y535000D02*
D03*
X258000Y129500D02*
D03*
Y138500D02*
D03*
X137750Y449000D02*
D03*
Y458000D02*
D03*
X174000D02*
D03*
Y449000D02*
D03*
X155875Y458000D02*
D03*
Y449000D02*
D03*
X101500Y458000D02*
D03*
Y449000D02*
D03*
X184500Y483500D02*
D03*
Y492500D02*
D03*
X119625Y449000D02*
D03*
Y458000D02*
D03*
X258500Y171500D02*
D03*
Y162500D02*
D03*
Y201500D02*
D03*
Y192500D02*
D03*
Y231500D02*
D03*
Y222500D02*
D03*
X242000Y492500D02*
D03*
Y483500D02*
D03*
X223500Y492500D02*
D03*
Y483500D02*
D03*
X201000Y492500D02*
D03*
Y483500D02*
D03*
X95500D02*
D03*
Y492500D02*
D03*
D34*
X196945Y518016D02*
D03*
X215055D02*
D03*
X206000D02*
D03*
D35*
Y541244D02*
D03*
D36*
X126000Y527801D02*
D03*
X96000D02*
D03*
X67842Y472000D02*
D03*
D37*
X49614Y514500D02*
D03*
X76386D02*
D03*
X63000D02*
D03*
X69693D02*
D03*
X56307D02*
D03*
D38*
X63000Y555500D02*
D03*
D39*
X123638Y487984D02*
D03*
X151000D02*
D03*
D40*
X255500Y67327D02*
D03*
X250500D02*
D03*
X245500D02*
D03*
X260500Y45673D02*
D03*
X255500D02*
D03*
X250500D02*
D03*
X260500Y67327D02*
D03*
D41*
X245500Y45673D02*
D03*
D42*
X94500Y295702D02*
D03*
Y275298D02*
D03*
X228000Y300702D02*
D03*
Y280298D02*
D03*
D43*
X211000Y241260D02*
D03*
X220897Y245000D02*
D03*
Y237520D02*
D03*
X160931D02*
D03*
Y245000D02*
D03*
X151034Y241260D02*
D03*
X100966Y237520D02*
D03*
Y245000D02*
D03*
X91069Y241260D02*
D03*
X41000Y237520D02*
D03*
Y245000D02*
D03*
X31103Y241260D02*
D03*
D44*
X257500Y93250D02*
D03*
D45*
Y106750D02*
D03*
D46*
X149000Y527500D02*
D03*
D47*
X169000D02*
D03*
D48*
X204000Y117000D02*
D03*
Y167000D02*
D03*
Y186685D02*
D03*
Y76843D02*
D03*
X181500Y377000D02*
D03*
X122500Y378500D02*
D03*
X147000Y167000D02*
D03*
Y76843D02*
D03*
Y117000D02*
D03*
Y186685D02*
D03*
X181500Y327000D02*
D03*
Y396685D02*
D03*
Y286842D02*
D03*
X90000Y117000D02*
D03*
Y167000D02*
D03*
Y76843D02*
D03*
Y186685D02*
D03*
X33000D02*
D03*
Y117000D02*
D03*
Y76843D02*
D03*
Y167000D02*
D03*
X122500Y328500D02*
D03*
Y398185D02*
D03*
Y288343D02*
D03*
D49*
X167500Y18000D02*
D03*
X137500D02*
D03*
X107500D02*
D03*
X97000Y567500D02*
D03*
X182500Y18000D02*
D03*
X152500D02*
D03*
X77500D02*
D03*
X47500D02*
D03*
X62500D02*
D03*
X92500D02*
D03*
X122500D02*
D03*
X245500Y18500D02*
D03*
X260500D02*
D03*
X127000Y567500D02*
D03*
X157000D02*
D03*
X202000D02*
D03*
X232000D02*
D03*
X262000D02*
D03*
X247000D02*
D03*
X217000D02*
D03*
X187000D02*
D03*
X172000D02*
D03*
X142000D02*
D03*
X112000D02*
D03*
D50*
X327000Y408000D02*
D03*
Y558500D02*
D03*
X476500Y408000D02*
D03*
Y558500D02*
D03*
X327000Y226250D02*
D03*
Y376750D02*
D03*
X476500Y226250D02*
D03*
Y376750D02*
D03*
X327000Y44500D02*
D03*
Y195000D02*
D03*
X476500Y44500D02*
D03*
Y195000D02*
D03*
D51*
X231000Y448500D02*
D03*
X209500D02*
D03*
X252500D02*
D03*
X230000Y360913D02*
D03*
X56500Y416000D02*
D03*
D52*
X231000Y455587D02*
D03*
Y462673D02*
D03*
X209500Y455587D02*
D03*
Y462673D02*
D03*
X252500Y455587D02*
D03*
Y462673D02*
D03*
X230000Y375087D02*
D03*
Y368000D02*
D03*
X56500Y430173D02*
D03*
Y423087D02*
D03*
D53*
X81500Y347500D02*
D03*
X71500D02*
D03*
Y367500D02*
D03*
X81500D02*
D03*
X71500Y357500D02*
D03*
X81500Y337500D02*
D03*
Y377500D02*
D03*
X71500Y337500D02*
D03*
X81500Y357500D02*
D03*
D54*
X71500Y377500D02*
D03*
D55*
X576772Y13779D02*
D03*
Y576772D02*
D03*
X13779D02*
D03*
Y13779D02*
D03*
D56*
X221000Y16000D02*
D03*
X211000D02*
D03*
D57*
X201000D02*
D03*
D58*
X24000Y335500D02*
D03*
Y290500D02*
D03*
Y395500D02*
D03*
Y410500D02*
D03*
Y275500D02*
D03*
Y305500D02*
D03*
Y350500D02*
D03*
Y380500D02*
D03*
Y365500D02*
D03*
Y320500D02*
D03*
D59*
X248913Y531000D02*
D03*
X241827D02*
D03*
D60*
X256000D02*
D03*
D61*
X48157Y472000D02*
D03*
D62*
X227000Y553500D02*
D03*
X37000Y554000D02*
D03*
X227801Y264100D02*
D03*
X246500Y100000D02*
D03*
X87271Y239302D02*
D03*
X258000Y36000D02*
D03*
X267500Y67000D02*
D03*
X265500Y151000D02*
D03*
X266000Y181000D02*
D03*
X262500Y213000D02*
D03*
X251000Y215000D02*
D03*
X70000Y503000D02*
D03*
X83500Y528000D02*
D03*
X58500Y529000D02*
D03*
X180900Y317600D02*
D03*
X196500Y241260D02*
D03*
X25340D02*
D03*
X145300D02*
D03*
X65458Y489300D02*
D03*
X105800Y436247D02*
D03*
X125400D02*
D03*
X145000Y470753D02*
D03*
X106000Y248600D02*
D03*
X160931Y257800D02*
D03*
X159000Y465200D02*
D03*
X232350Y436450D02*
D03*
X296700Y571000D02*
D03*
X272400Y531900D02*
D03*
X171800Y491700D02*
D03*
X159600Y426247D02*
D03*
X243000Y475747D02*
D03*
X271300Y166800D02*
D03*
X56500Y189100D02*
D03*
X140278Y241260D02*
D03*
X94500Y307600D02*
D03*
X220598Y300700D02*
D03*
X184400Y436247D02*
D03*
X193800Y470747D02*
D03*
X184000D02*
D03*
X96000D02*
D03*
X151000Y478488D02*
D03*
X233200Y470747D02*
D03*
X203800Y502447D02*
D03*
M02*
