G04*
G04 #@! TF.GenerationSoftware,Altium Limited,Altium Designer,22.3.1 (43)*
G04*
G04 Layer_Color=8421504*
%FSLAX25Y25*%
%MOIN*%
G70*
G04*
G04 #@! TF.SameCoordinates,EF3FA71F-0FF1-4D3B-8963-7E32679EFE31*
G04*
G04*
G04 #@! TF.FilePolarity,Positive*
G04*
G01*
G75*
%ADD20R,0.05000X0.05000*%
%ADD21R,0.03937X0.10630*%
%ADD22R,0.12992X0.10630*%
%ADD23R,0.07874X0.07874*%
%ADD24R,0.04134X0.12598*%
%ADD25R,0.41142X0.39370*%
%ADD26R,0.09449X0.12992*%
%ADD27O,0.02362X0.08268*%
%ADD28R,0.02362X0.08268*%
%ADD29R,0.08823X0.08061*%
%ADD30R,0.05512X0.02362*%
G04:AMPARAMS|DCode=31|XSize=55mil|YSize=50mil|CornerRadius=0mil|HoleSize=0mil|Usage=FLASHONLY|Rotation=270.000|XOffset=0mil|YOffset=0mil|HoleType=Round|Shape=Octagon|*
%AMOCTAGOND31*
4,1,8,-0.01250,-0.02750,0.01250,-0.02750,0.02500,-0.01500,0.02500,0.01500,0.01250,0.02750,-0.01250,0.02750,-0.02500,0.01500,-0.02500,-0.01500,-0.01250,-0.02750,0.0*
%
%ADD31OCTAGOND31*%

%ADD32R,0.05000X0.05500*%
D20*
X267000Y541500D02*
D03*
Y532500D02*
D03*
X228500Y544000D02*
D03*
Y535000D02*
D03*
X258000Y129500D02*
D03*
Y138500D02*
D03*
X137750Y449000D02*
D03*
Y458000D02*
D03*
X174000D02*
D03*
Y449000D02*
D03*
X155875Y458000D02*
D03*
Y449000D02*
D03*
X101500Y458000D02*
D03*
Y449000D02*
D03*
X184500Y483500D02*
D03*
Y492500D02*
D03*
X119625Y449000D02*
D03*
Y458000D02*
D03*
X258500Y171500D02*
D03*
Y162500D02*
D03*
Y201500D02*
D03*
Y192500D02*
D03*
Y231500D02*
D03*
Y222500D02*
D03*
X242000Y492500D02*
D03*
Y483500D02*
D03*
X223500Y492500D02*
D03*
Y483500D02*
D03*
X201000Y492500D02*
D03*
Y483500D02*
D03*
X95500D02*
D03*
Y492500D02*
D03*
D21*
X196945Y518016D02*
D03*
X215055D02*
D03*
X206000D02*
D03*
D22*
Y541244D02*
D03*
D23*
X126000Y527801D02*
D03*
X96000D02*
D03*
D24*
X49614Y514500D02*
D03*
X76386D02*
D03*
X63000D02*
D03*
X69693D02*
D03*
X56307D02*
D03*
D25*
X63000Y555500D02*
D03*
D26*
X123638Y487984D02*
D03*
X151000D02*
D03*
D27*
X255500Y67327D02*
D03*
X250500D02*
D03*
X245500D02*
D03*
X260500Y45673D02*
D03*
X255500D02*
D03*
X250500D02*
D03*
X260500Y67327D02*
D03*
D28*
X245500Y45673D02*
D03*
D29*
X94500Y295702D02*
D03*
Y275298D02*
D03*
X228000Y300702D02*
D03*
Y280298D02*
D03*
D30*
X211000Y241260D02*
D03*
X220897Y245000D02*
D03*
Y237520D02*
D03*
X160931D02*
D03*
Y245000D02*
D03*
X151034Y241260D02*
D03*
X100966Y237520D02*
D03*
Y245000D02*
D03*
X91069Y241260D02*
D03*
X41000Y237520D02*
D03*
Y245000D02*
D03*
X31103Y241260D02*
D03*
D31*
X257500Y93250D02*
D03*
D32*
Y106750D02*
D03*
M02*
