G04*
G04 #@! TF.GenerationSoftware,Altium Limited,Altium Designer,22.3.1 (43)*
G04*
G04 Layer_Color=32768*
%FSLAX25Y25*%
%MOIN*%
G70*
G04*
G04 #@! TF.SameCoordinates,5406EE39-799D-43BB-BE37-E4F8AF43DF71*
G04*
G04*
G04 #@! TF.FilePolarity,Positive*
G04*
G01*
G75*
%ADD18C,0.00394*%
%ADD92C,0.00197*%
D18*
X358563Y284703D02*
X536515D01*
X358563D02*
Y341002D01*
X536515D01*
Y284703D02*
Y341002D01*
X510000Y82000D02*
X531000D01*
X510000Y50000D02*
X531000D01*
Y82000D01*
X510000Y50000D02*
Y82000D01*
X204032Y529630D02*
X207969D01*
X206000Y527661D02*
Y531598D01*
X221157Y510732D02*
Y548527D01*
X190843Y510732D02*
Y548527D01*
X221157D01*
X190843Y510732D02*
X221157D01*
X351799Y482000D02*
Y499000D01*
X339200Y482000D02*
Y499000D01*
X351799D01*
X339200Y482000D02*
X351799D01*
Y396250D02*
Y413250D01*
X339200Y396250D02*
Y413250D01*
X351799D01*
X339200Y396250D02*
X351799D01*
X351799Y310500D02*
Y327500D01*
X339200Y310500D02*
Y327500D01*
X351799D01*
X339200Y310500D02*
X351799D01*
X351799Y224750D02*
Y241750D01*
X339200Y224750D02*
Y241750D01*
X351799D01*
X339200Y224750D02*
X351799D01*
Y139000D02*
Y156000D01*
X339200Y139000D02*
Y156000D01*
X351799D01*
X339200Y139000D02*
X351799D01*
X203500Y244559D02*
X220500D01*
X203500Y231960D02*
X220500D01*
X203500D02*
Y244559D01*
X220500Y231960D02*
Y244559D01*
X131500Y244559D02*
X148500D01*
X131500Y231961D02*
X148500D01*
X131500D02*
Y244559D01*
X148500Y231961D02*
Y244559D01*
X59500Y244559D02*
X76500D01*
X59500Y231960D02*
X76500D01*
X59500D02*
Y244559D01*
X76500Y231960D02*
Y244559D01*
X358563Y458953D02*
X536515D01*
X358563D02*
Y515252D01*
X536515D01*
Y458953D02*
Y515252D01*
X358563Y371828D02*
X536515D01*
X358563D02*
Y428127D01*
X536515D01*
Y371828D02*
Y428127D01*
X358563Y197578D02*
X536515D01*
X358563D02*
Y253877D01*
X536515D01*
Y197578D02*
Y253877D01*
X358563Y110453D02*
X536515D01*
X358563D02*
Y166752D01*
X536515D01*
Y110453D02*
Y166752D01*
X174953Y44484D02*
Y222437D01*
X231252D01*
Y44484D02*
Y222437D01*
X174953Y44484D02*
X231252D01*
X99453Y43985D02*
Y221937D01*
X155752D01*
Y43985D02*
Y221937D01*
X99453Y43985D02*
X155752D01*
X28953Y45984D02*
Y223937D01*
X85252D01*
Y45984D02*
Y223937D01*
X28953Y45984D02*
X85252D01*
D92*
X25378Y343000D02*
X25056Y343886D01*
X24239Y344357D01*
X23311Y344193D01*
X22705Y343471D01*
Y342529D01*
X23311Y341807D01*
X24239Y341643D01*
X25056Y342114D01*
X25378Y343000D01*
X521878Y66000D02*
X521556Y66886D01*
X520739Y67357D01*
X519811Y67193D01*
X519205Y66471D01*
Y65529D01*
X519811Y64807D01*
X520739Y64643D01*
X521556Y65114D01*
X521878Y66000D01*
X469378Y65000D02*
X469056Y65886D01*
X468239Y66357D01*
X467311Y66193D01*
X466705Y65471D01*
Y64529D01*
X467311Y63807D01*
X468239Y63643D01*
X469056Y64114D01*
X469378Y65000D01*
X487878Y65500D02*
X487556Y66386D01*
X486739Y66857D01*
X485811Y66693D01*
X485205Y65971D01*
Y65029D01*
X485811Y64307D01*
X486739Y64143D01*
X487556Y64614D01*
X487878Y65500D01*
X572378Y60500D02*
X572056Y61386D01*
X571239Y61857D01*
X570311Y61693D01*
X569705Y60971D01*
Y60029D01*
X570311Y59307D01*
X571239Y59143D01*
X572056Y59614D01*
X572378Y60500D01*
X572378Y308000D02*
X572056Y308886D01*
X571239Y309357D01*
X570311Y309193D01*
X569705Y308471D01*
Y307529D01*
X570311Y306807D01*
X571239Y306643D01*
X572056Y307114D01*
X572378Y308000D01*
X262378Y527000D02*
X262056Y527886D01*
X261239Y528357D01*
X260311Y528193D01*
X259705Y527471D01*
Y526529D01*
X260311Y525807D01*
X261239Y525643D01*
X262056Y526114D01*
X262378Y527000D01*
X314878Y525500D02*
X314556Y526386D01*
X313739Y526857D01*
X312811Y526693D01*
X312205Y525971D01*
Y525029D01*
X312811Y524307D01*
X313739Y524143D01*
X314556Y524614D01*
X314878Y525500D01*
X346878Y490500D02*
X346555Y491386D01*
X345739Y491857D01*
X344811Y491693D01*
X344205Y490971D01*
Y490029D01*
X344811Y489307D01*
X345739Y489143D01*
X346555Y489614D01*
X346878Y490500D01*
Y404750D02*
X346555Y405636D01*
X345739Y406107D01*
X344811Y405943D01*
X344205Y405221D01*
Y404279D01*
X344811Y403557D01*
X345739Y403393D01*
X346555Y403864D01*
X346878Y404750D01*
Y319000D02*
X346555Y319886D01*
X345739Y320357D01*
X344811Y320193D01*
X344205Y319471D01*
Y318529D01*
X344811Y317807D01*
X345739Y317643D01*
X346555Y318114D01*
X346878Y319000D01*
Y233250D02*
X346555Y234136D01*
X345739Y234607D01*
X344811Y234443D01*
X344205Y233721D01*
Y232779D01*
X344811Y232057D01*
X345739Y231893D01*
X346555Y232364D01*
X346878Y233250D01*
Y147500D02*
X346555Y148386D01*
X345739Y148857D01*
X344811Y148693D01*
X344205Y147971D01*
Y147029D01*
X344811Y146307D01*
X345739Y146143D01*
X346555Y146614D01*
X346878Y147500D01*
X213378Y238260D02*
X213056Y239145D01*
X212239Y239617D01*
X211311Y239453D01*
X210705Y238731D01*
Y237788D01*
X211311Y237066D01*
X212239Y236903D01*
X213056Y237374D01*
X213378Y238260D01*
X141378Y238260D02*
X141056Y239145D01*
X140239Y239617D01*
X139311Y239453D01*
X138705Y238731D01*
Y237789D01*
X139311Y237066D01*
X140239Y236903D01*
X141056Y237374D01*
X141378Y238260D01*
X69378Y238260D02*
X69056Y239145D01*
X68239Y239617D01*
X67311Y239453D01*
X66705Y238731D01*
Y237788D01*
X67311Y237066D01*
X68239Y236903D01*
X69056Y237374D01*
X69378Y238260D01*
X373378Y567500D02*
X373056Y568386D01*
X372239Y568857D01*
X371311Y568693D01*
X370705Y567971D01*
Y567029D01*
X371311Y566307D01*
X372239Y566143D01*
X373056Y566614D01*
X373378Y567500D01*
X484878Y524000D02*
X484556Y524886D01*
X483739Y525357D01*
X482811Y525193D01*
X482205Y524471D01*
Y523529D01*
X482811Y522807D01*
X483739Y522643D01*
X484556Y523114D01*
X484878Y524000D01*
X486378Y444500D02*
X486056Y445386D01*
X485239Y445857D01*
X484311Y445693D01*
X483705Y444971D01*
Y444029D01*
X484311Y443307D01*
X485239Y443143D01*
X486056Y443614D01*
X486378Y444500D01*
X488878Y359000D02*
X488556Y359886D01*
X487739Y360357D01*
X486811Y360193D01*
X486205Y359471D01*
Y358529D01*
X486811Y357807D01*
X487739Y357643D01*
X488556Y358114D01*
X488878Y359000D01*
X488378Y268000D02*
X488056Y268886D01*
X487239Y269357D01*
X486311Y269193D01*
X485705Y268471D01*
Y267529D01*
X486311Y266807D01*
X487239Y266643D01*
X488056Y267114D01*
X488378Y268000D01*
X486878Y175500D02*
X486556Y176386D01*
X485739Y176857D01*
X484811Y176693D01*
X484205Y175971D01*
Y175029D01*
X484811Y174307D01*
X485739Y174143D01*
X486556Y174614D01*
X486878Y175500D01*
X514878Y25500D02*
X514556Y26386D01*
X513739Y26857D01*
X512811Y26693D01*
X512205Y25971D01*
Y25029D01*
X512811Y24307D01*
X513739Y24143D01*
X514556Y24614D01*
X514878Y25500D01*
X487878D02*
X487556Y26386D01*
X486739Y26857D01*
X485811Y26693D01*
X485205Y25971D01*
Y25029D01*
X485811Y24307D01*
X486739Y24143D01*
X487556Y24614D01*
X487878Y25500D01*
X537878Y25000D02*
X537556Y25886D01*
X536739Y26357D01*
X535811Y26193D01*
X535205Y25471D01*
Y24529D01*
X535811Y23807D01*
X536739Y23643D01*
X537556Y24114D01*
X537878Y25000D01*
X550878D02*
X550556Y25886D01*
X549739Y26357D01*
X548811Y26193D01*
X548205Y25471D01*
Y24529D01*
X548811Y23807D01*
X549739Y23643D01*
X550556Y24114D01*
X550878Y25000D01*
X258378Y488000D02*
X258056Y488886D01*
X257239Y489357D01*
X256311Y489193D01*
X255705Y488471D01*
Y487529D01*
X256311Y486807D01*
X257239Y486643D01*
X258056Y487114D01*
X258378Y488000D01*
X239878D02*
X239556Y488886D01*
X238739Y489357D01*
X237811Y489193D01*
X237205Y488471D01*
Y487529D01*
X237811Y486807D01*
X238739Y486643D01*
X239556Y487114D01*
X239878Y488000D01*
X202378D02*
X202056Y488886D01*
X201239Y489357D01*
X200311Y489193D01*
X199705Y488471D01*
Y487529D01*
X200311Y486807D01*
X201239Y486643D01*
X202056Y487114D01*
X202378Y488000D01*
X185878D02*
X185556Y488886D01*
X184739Y489357D01*
X183811Y489193D01*
X183205Y488471D01*
Y487529D01*
X183811Y486807D01*
X184739Y486643D01*
X185556Y487114D01*
X185878Y488000D01*
X160378Y527500D02*
X160056Y528386D01*
X159239Y528857D01*
X158311Y528693D01*
X157705Y527971D01*
Y527029D01*
X158311Y526307D01*
X159239Y526143D01*
X160056Y526614D01*
X160378Y527500D01*
X59378Y472000D02*
X59056Y472886D01*
X58239Y473357D01*
X57311Y473193D01*
X56705Y472471D01*
Y471529D01*
X57311Y470807D01*
X58239Y470643D01*
X59056Y471114D01*
X59378Y472000D01*
X96878Y488000D02*
X96556Y488886D01*
X95739Y489357D01*
X94811Y489193D01*
X94205Y488471D01*
Y487529D01*
X94811Y486807D01*
X95739Y486643D01*
X96556Y487114D01*
X96878Y488000D01*
X24000Y341032D02*
Y344969D01*
X22032Y343000D02*
X25969D01*
X520500Y64031D02*
Y67968D01*
X518531Y66000D02*
X522468D01*
X468000Y63031D02*
Y66968D01*
X466031Y65000D02*
X469968D01*
X486500Y63531D02*
Y67468D01*
X484531Y65500D02*
X488468D01*
X571000Y58532D02*
Y62469D01*
X569032Y60500D02*
X572969D01*
X569032Y308000D02*
X572969D01*
X571000Y306032D02*
Y309969D01*
X259031Y527000D02*
X262968D01*
X261000Y525032D02*
Y528969D01*
X311531Y525500D02*
X315468D01*
X313500Y523532D02*
Y527469D01*
X345500Y488532D02*
Y492469D01*
X343531Y490500D02*
X347468D01*
X345500Y402782D02*
Y406719D01*
X343531Y404750D02*
X347468D01*
X345499Y317031D02*
Y320968D01*
X343531Y319000D02*
X347468D01*
X345500Y231282D02*
Y235219D01*
X343531Y233250D02*
X347468D01*
X345500Y145531D02*
Y149468D01*
X343531Y147500D02*
X347468D01*
X210032Y238260D02*
X213969D01*
X212000Y236291D02*
Y240228D01*
X138031Y238260D02*
X141968D01*
X140000Y236291D02*
Y240228D01*
X66032Y238260D02*
X69969D01*
X68000Y236291D02*
Y240228D01*
X372000Y565532D02*
Y569469D01*
X370032Y567500D02*
X373969D01*
X483500Y522032D02*
Y525969D01*
X481531Y524000D02*
X485468D01*
X485000Y442532D02*
Y446469D01*
X483031Y444500D02*
X486968D01*
X487500Y357032D02*
Y360969D01*
X485531Y359000D02*
X489468D01*
X487000Y266032D02*
Y269969D01*
X485031Y268000D02*
X488968D01*
X485500Y173532D02*
Y177469D01*
X483531Y175500D02*
X487468D01*
X511531Y25500D02*
X515468D01*
X513500Y23532D02*
Y27469D01*
X484532Y25500D02*
X488469D01*
X486500Y23532D02*
Y27469D01*
X534532Y25000D02*
X538469D01*
X536500Y23032D02*
Y26969D01*
X547532Y25000D02*
X551469D01*
X549500Y23031D02*
Y26969D01*
X255032Y488000D02*
X258969D01*
X257000Y486032D02*
Y489969D01*
X236532Y488000D02*
X240469D01*
X238500Y486032D02*
Y489969D01*
X199032Y488000D02*
X202969D01*
X201000Y486032D02*
Y489969D01*
X182532Y488000D02*
X186469D01*
X184500Y486032D02*
Y489969D01*
X159000Y525532D02*
Y529469D01*
X157031Y527500D02*
X160968D01*
X56031Y472000D02*
X59968D01*
X58000Y470032D02*
Y473969D01*
X93532Y488000D02*
X97469D01*
X95500Y486032D02*
Y489969D01*
M02*
