G04*
G04 #@! TF.GenerationSoftware,Altium Limited,Altium Designer,22.3.1 (43)*
G04*
G04 Layer_Color=255*
%FSLAX25Y25*%
%MOIN*%
G70*
G04*
G04 #@! TF.SameCoordinates,858DE3B6-85AC-4B40-B280-C04C9E7F73BC*
G04*
G04*
G04 #@! TF.FilePolarity,Positive*
G04*
G01*
G75*
%ADD20O,0.08268X0.02362*%
%ADD21R,0.08268X0.02362*%
%ADD22R,0.05000X0.05000*%
%ADD23R,0.08661X0.06890*%
%ADD24R,0.05000X0.05000*%
%ADD25R,0.03937X0.10630*%
%ADD26R,0.12992X0.10630*%
%ADD27R,0.07874X0.07874*%
%ADD28R,0.04134X0.12598*%
%ADD29R,0.41142X0.39370*%
%ADD30R,0.08823X0.08061*%
G04:AMPARAMS|DCode=31|XSize=55mil|YSize=50mil|CornerRadius=0mil|HoleSize=0mil|Usage=FLASHONLY|Rotation=270.000|XOffset=0mil|YOffset=0mil|HoleType=Round|Shape=Octagon|*
%AMOCTAGOND31*
4,1,8,-0.01250,-0.02750,0.01250,-0.02750,0.02500,-0.01500,0.02500,0.01500,0.01250,0.02750,-0.01250,0.02750,-0.02500,0.01500,-0.02500,-0.01500,-0.01250,-0.02750,0.0*
%
%ADD31OCTAGOND31*%

%ADD32R,0.05000X0.05500*%
%ADD68R,0.27559X0.27559*%
%ADD69R,0.07087X0.07087*%
%ADD70C,0.07087*%
%ADD71C,0.06299*%
%ADD72R,0.06299X0.06299*%
%ADD73O,0.04724X0.07874*%
%ADD74R,0.04724X0.07874*%
%ADD75O,0.11811X0.08661*%
%ADD76C,0.07480*%
%ADD77R,0.07480X0.07480*%
%ADD78C,0.07677*%
%ADD79R,0.07874X0.04724*%
%ADD80O,0.07874X0.04724*%
%ADD81C,0.20000*%
%ADD82C,0.07874*%
D20*
X69327Y204500D02*
D03*
X47673Y214500D02*
D03*
Y209500D02*
D03*
Y204500D02*
D03*
X69327Y219500D02*
D03*
Y214500D02*
D03*
Y209500D02*
D03*
D21*
X47673Y219500D02*
D03*
D22*
X107500Y449000D02*
D03*
Y458000D02*
D03*
X191500Y486500D02*
D03*
Y495500D02*
D03*
X254000Y561500D02*
D03*
Y552500D02*
D03*
X236500Y562000D02*
D03*
Y553000D02*
D03*
X53000Y38500D02*
D03*
Y47500D02*
D03*
X143750Y449000D02*
D03*
Y458000D02*
D03*
X180000D02*
D03*
Y449000D02*
D03*
X161875Y458000D02*
D03*
Y449000D02*
D03*
X169000Y486000D02*
D03*
Y495000D02*
D03*
X125625Y449000D02*
D03*
Y458000D02*
D03*
X53000Y77333D02*
D03*
Y68333D02*
D03*
Y107167D02*
D03*
Y98167D02*
D03*
Y137000D02*
D03*
Y128000D02*
D03*
X232000Y494000D02*
D03*
Y485000D02*
D03*
X208500Y494000D02*
D03*
Y485000D02*
D03*
X149500Y486000D02*
D03*
Y495000D02*
D03*
D23*
X111890Y502000D02*
D03*
X130000D02*
D03*
D24*
X89500Y235500D02*
D03*
X98500D02*
D03*
X142500D02*
D03*
X151500D02*
D03*
X248500D02*
D03*
X257500D02*
D03*
X195500D02*
D03*
X204500D02*
D03*
D25*
X196945Y535886D02*
D03*
X215055D02*
D03*
X206000D02*
D03*
D26*
Y559114D02*
D03*
D27*
X133000Y549000D02*
D03*
X103000D02*
D03*
X80500Y473500D02*
D03*
D28*
X57807Y515000D02*
D03*
X84579D02*
D03*
X71193D02*
D03*
X77886D02*
D03*
X64500D02*
D03*
D29*
X71193Y556000D02*
D03*
D30*
X139000Y318500D02*
D03*
Y298096D02*
D03*
X265000Y321702D02*
D03*
Y301298D02*
D03*
D31*
X70000Y120250D02*
D03*
D32*
Y133750D02*
D03*
D68*
X476500Y558500D02*
D03*
Y408000D02*
D03*
X327000Y558500D02*
D03*
Y408000D02*
D03*
X476500Y376750D02*
D03*
Y226250D02*
D03*
X327000Y376750D02*
D03*
Y226250D02*
D03*
Y44500D02*
D03*
Y195000D02*
D03*
X476500Y44500D02*
D03*
Y195000D02*
D03*
D69*
X59500Y167500D02*
D03*
D70*
Y177500D02*
D03*
Y187500D02*
D03*
D71*
X88000Y371000D02*
D03*
X78000Y351000D02*
D03*
X88000Y391000D02*
D03*
Y351000D02*
D03*
X78000Y371000D02*
D03*
X88000Y381000D02*
D03*
X78000D02*
D03*
Y361000D02*
D03*
X88000D02*
D03*
D72*
X78000Y391000D02*
D03*
D73*
X248913Y217000D02*
D03*
X256000D02*
D03*
X195942D02*
D03*
X203029D02*
D03*
X142971D02*
D03*
X150058D02*
D03*
X90000D02*
D03*
X97087D02*
D03*
X249587Y523000D02*
D03*
X242500D02*
D03*
D74*
X263087Y217000D02*
D03*
X210115D02*
D03*
X157144D02*
D03*
X104173D02*
D03*
X256673Y523000D02*
D03*
D75*
X19685Y102500D02*
D03*
Y132500D02*
D03*
Y162500D02*
D03*
Y177500D02*
D03*
Y147500D02*
D03*
Y72500D02*
D03*
Y42500D02*
D03*
Y117500D02*
D03*
Y87500D02*
D03*
Y57500D02*
D03*
Y201161D02*
D03*
Y216161D02*
D03*
Y280650D02*
D03*
Y325650D02*
D03*
Y340650D02*
D03*
Y310650D02*
D03*
Y265650D02*
D03*
Y235650D02*
D03*
Y370650D02*
D03*
Y355650D02*
D03*
Y250650D02*
D03*
Y295650D02*
D03*
Y404941D02*
D03*
Y434941D02*
D03*
Y464941D02*
D03*
Y479941D02*
D03*
Y509941D02*
D03*
Y539941D02*
D03*
Y554941D02*
D03*
Y524941D02*
D03*
Y494941D02*
D03*
Y449941D02*
D03*
Y419941D02*
D03*
Y389941D02*
D03*
D76*
X153000Y544500D02*
D03*
D77*
X173000D02*
D03*
D78*
X245000Y92500D02*
D03*
Y142500D02*
D03*
Y162185D02*
D03*
Y52342D02*
D03*
X220500Y380658D02*
D03*
X170000Y378500D02*
D03*
X194167Y142500D02*
D03*
Y52343D02*
D03*
Y92500D02*
D03*
Y162185D02*
D03*
X220500Y330658D02*
D03*
Y400343D02*
D03*
Y290500D02*
D03*
X143333Y92500D02*
D03*
Y142500D02*
D03*
Y52343D02*
D03*
Y162185D02*
D03*
X92500D02*
D03*
Y92500D02*
D03*
Y52343D02*
D03*
Y142500D02*
D03*
X170000Y328500D02*
D03*
Y398185D02*
D03*
Y288342D02*
D03*
D79*
X231000Y448500D02*
D03*
X209500D02*
D03*
X252500D02*
D03*
X267000Y417413D02*
D03*
X139500Y399500D02*
D03*
D80*
X231000Y455587D02*
D03*
Y462673D02*
D03*
X209500Y455587D02*
D03*
Y462673D02*
D03*
X252500Y455587D02*
D03*
Y462673D02*
D03*
X267000Y431587D02*
D03*
Y424500D02*
D03*
X139500Y413673D02*
D03*
Y406587D02*
D03*
D81*
X576772Y13779D02*
D03*
Y576772D02*
D03*
X13779D02*
D03*
Y13779D02*
D03*
D82*
X60815Y473500D02*
D03*
M02*
