M48
;Layer_Color=9474304
;FILE_FORMAT=2:5
INCH,LZ
;TYPE=PLATED
T1F00S00C0.02756
T2F00S00C0.02800
T3F00S00C0.03150
T4F00S00C0.03543
T5F00S00C0.03937
T6F00S00C0.04331
T7F00S00C0.05118
T8F00S00C0.12500
T9F00S00C0.15748
%
T01
X0201Y0016
X0211
X0221
T02
X0258Y0036
X02675Y0067
X02465Y01
X02655Y0151
X02713Y01668
X0266Y0181
X00565Y01891
X002534Y024126
X0087271Y0239302
X0106Y02486
X0140278Y024126
X01453
X0160931Y02578
X01965Y024126
X01809Y03176
X00945Y03076
X0220598Y03007
X0227801Y02641
X0251Y0215
X02625Y0213
X023235Y043645
X02332Y0470747
X0243Y0475747
X01938Y0470747
X0184
X0159Y04652
X0145Y0470753
X0151Y0478488
X01718Y04917
X02038Y0502447
X01844Y0436247
X01596Y0426247
X01254Y0436247
X01058
X0096Y0470747
X0065458Y04893
X007Y0503
X0037Y0554
X00585Y0529
X00835Y0528
X0227Y05535
X02724Y05319
X02967Y0571
T03
X023Y0360913
Y0368
Y0375087
X0231Y04485
Y0455587
Y0462673
X02525
Y0455587
Y04485
X02095
Y0455587
Y0462673
X00565Y0430173
Y0423087
Y0416
X0241827Y0531
X0248913
X0256
T04
X00715Y03375
Y03475
X00815
Y03375
Y03575
Y03675
X00715
Y03575
Y03775
X00815
X0149Y05275
X0169
T05
X00475Y0018
X00625
X00775
X00925
X01075
X01225
X01375
X01525
X01675
X01825
X02455Y00185
X02605
X0024Y02755
Y02905
Y03055
Y03205
Y03355
Y03505
Y03655
Y03805
Y03955
Y04105
X0097Y05675
X0112
X0127
X0142
X0157
X0172
X0187
X0202
X0217
X0232
X0247
X0262
T06
X0067842Y0472
X0048157
T07
X009Y0076843
Y0117
Y0167
Y0186685
X0147
Y0167
Y0117
Y0076843
X0204Y0076843
Y0117
Y0167
Y0186685
X0033
Y0167
Y0117
Y0076843
X01225Y0288343
Y03285
X01815Y0327
Y0286842
Y0377
Y0396685
X01225Y0398185
Y03785
T08
X0013779Y0013779
X0576772
X0013779Y0576772
X0576772
T09
X0327Y00445
X04765
Y0195
X0327
Y022625
X04765
Y037675
Y0408
X0327
Y037675
Y05585
X04765
M30
