G04*
G04 #@! TF.GenerationSoftware,Altium Limited,Altium Designer,22.3.1 (43)*
G04*
G04 Layer_Physical_Order=2*
G04 Layer_Color=32768*
%FSLAX25Y25*%
%MOIN*%
G70*
G04*
G04 #@! TF.SameCoordinates,5406EE39-799D-43BB-BE37-E4F8AF43DF71*
G04*
G04*
G04 #@! TF.FilePolarity,Negative*
G04*
G01*
G75*
%ADD77C,0.04000*%
%ADD78C,0.07543*%
%ADD79C,0.07937*%
%ADD80C,0.16500*%
%ADD81C,0.09118*%
G04:AMPARAMS|DCode=82|XSize=111.181mil|YSize=111.181mil|CornerRadius=0mil|HoleSize=0mil|Usage=FLASHONLY|Rotation=0.000|XOffset=0mil|YOffset=0mil|HoleType=Round|Shape=Relief|Width=10mil|Gap=10mil|Entries=4|*
%AMTHD82*
7,0,0,0.11118,0.09118,0.01000,45*
%
%ADD82THD82*%
%ADD83C,0.07150*%
G04:AMPARAMS|DCode=84|XSize=91.496mil|YSize=91.496mil|CornerRadius=0mil|HoleSize=0mil|Usage=FLASHONLY|Rotation=0.000|XOffset=0mil|YOffset=0mil|HoleType=Round|Shape=Relief|Width=10mil|Gap=10mil|Entries=4|*
%AMTHD84*
7,0,0,0.09150,0.07150,0.01000,45*
%
%ADD84THD84*%
G04:AMPARAMS|DCode=85|XSize=99.37mil|YSize=99.37mil|CornerRadius=0mil|HoleSize=0mil|Usage=FLASHONLY|Rotation=0.000|XOffset=0mil|YOffset=0mil|HoleType=Round|Shape=Relief|Width=10mil|Gap=10mil|Entries=4|*
%AMTHD85*
7,0,0,0.09937,0.07937,0.01000,45*
%
%ADD85THD85*%
%ADD86C,0.08331*%
G04:AMPARAMS|DCode=87|XSize=95.433mil|YSize=95.433mil|CornerRadius=0mil|HoleSize=0mil|Usage=FLASHONLY|Rotation=0.000|XOffset=0mil|YOffset=0mil|HoleType=Round|Shape=Relief|Width=10mil|Gap=10mil|Entries=4|*
%AMTHD87*
7,0,0,0.09543,0.07543,0.01000,45*
%
%ADD87THD87*%
G04:AMPARAMS|DCode=88|XSize=103.307mil|YSize=103.307mil|CornerRadius=0mil|HoleSize=0mil|Usage=FLASHONLY|Rotation=0.000|XOffset=0mil|YOffset=0mil|HoleType=Round|Shape=Relief|Width=10mil|Gap=10mil|Entries=4|*
%AMTHD88*
7,0,0,0.10331,0.08331,0.01000,45*
%
%ADD88THD88*%
%ADD89C,0.06800*%
G04:AMPARAMS|DCode=90|XSize=88mil|YSize=88mil|CornerRadius=0mil|HoleSize=0mil|Usage=FLASHONLY|Rotation=0.000|XOffset=0mil|YOffset=0mil|HoleType=Round|Shape=Relief|Width=10mil|Gap=10mil|Entries=4|*
%AMTHD90*
7,0,0,0.08800,0.06800,0.01000,45*
%
%ADD90THD90*%
D77*
X0Y0D02*
X590551D01*
Y590551D01*
X0D02*
X590551D01*
X0Y0D02*
Y590551D01*
D78*
X149500Y343000D02*
D03*
X139500Y323000D02*
D03*
X149500Y363000D02*
D03*
X139500D02*
D03*
X149500Y323000D02*
D03*
X139500Y343000D02*
D03*
X149500Y353000D02*
D03*
X139500D02*
D03*
Y333000D02*
D03*
X149500D02*
D03*
X149000Y527500D02*
D03*
D79*
X24000Y335500D02*
D03*
Y290500D02*
D03*
Y395500D02*
D03*
Y410500D02*
D03*
Y275500D02*
D03*
Y305500D02*
D03*
Y350500D02*
D03*
Y380500D02*
D03*
Y365500D02*
D03*
Y320500D02*
D03*
X571000Y53000D02*
D03*
Y68000D02*
D03*
Y360500D02*
D03*
Y330500D02*
D03*
Y315500D02*
D03*
Y285500D02*
D03*
Y255500D02*
D03*
Y240500D02*
D03*
Y270500D02*
D03*
Y300500D02*
D03*
Y345500D02*
D03*
Y375500D02*
D03*
X289500Y567500D02*
D03*
X319500D02*
D03*
X349500D02*
D03*
X394500D02*
D03*
X424500D02*
D03*
X454500D02*
D03*
X439500D02*
D03*
X409500D02*
D03*
X379500D02*
D03*
D80*
X570866Y570866D02*
D03*
X19685D02*
D03*
X570866Y19685D02*
D03*
X19685D02*
D03*
D81*
X462500Y306750D02*
D03*
X412500D02*
D03*
X502657D02*
D03*
X462500Y481000D02*
D03*
X412500D02*
D03*
X502657D02*
D03*
X462500Y393875D02*
D03*
X412500D02*
D03*
X502657D02*
D03*
X462500Y219625D02*
D03*
X412500D02*
D03*
X502657D02*
D03*
X462500Y132500D02*
D03*
X412500D02*
D03*
X502657D02*
D03*
X197000Y168500D02*
D03*
Y78343D02*
D03*
Y118500D02*
D03*
X121500Y118000D02*
D03*
Y168000D02*
D03*
Y77843D02*
D03*
X51000Y170000D02*
D03*
Y79843D02*
D03*
Y120000D02*
D03*
D82*
X392815Y306750D02*
D03*
Y481000D02*
D03*
Y393875D02*
D03*
Y219625D02*
D03*
Y132500D02*
D03*
X197000Y188185D02*
D03*
X121500Y187685D02*
D03*
X51000Y189685D02*
D03*
D83*
X291413Y526500D02*
D03*
X284327D02*
D03*
D84*
X298500D02*
D03*
D85*
X364500Y567500D02*
D03*
X334500D02*
D03*
X304500D02*
D03*
D86*
X463224Y524000D02*
D03*
X503776D02*
D03*
X464724Y444500D02*
D03*
X505276D02*
D03*
X467224Y359000D02*
D03*
X507776D02*
D03*
X466724Y268000D02*
D03*
X507276D02*
D03*
X465224Y175500D02*
D03*
X505776D02*
D03*
X48157Y472000D02*
D03*
D87*
X169000Y527500D02*
D03*
D88*
X67842Y472000D02*
D03*
D89*
X212500Y234000D02*
D03*
X40000Y529000D02*
D03*
X26500Y545000D02*
D03*
X318000Y330500D02*
D03*
X335000Y337500D02*
D03*
X73100Y364900D02*
D03*
X555000Y363000D02*
D03*
X534673Y333500D02*
D03*
X520250Y36350D02*
D03*
X426000Y313500D02*
D03*
X528000Y70500D02*
D03*
X522681Y58112D02*
D03*
X253200Y557000D02*
D03*
X149500Y395500D02*
D03*
X333800Y239960D02*
D03*
X476600Y63700D02*
D03*
X492000Y55500D02*
D03*
X345500Y158153D02*
D03*
X345500Y243903D02*
D03*
Y329653D02*
D03*
X95500Y498000D02*
D03*
X345500Y415403D02*
D03*
Y501153D02*
D03*
X217500Y554000D02*
D03*
X215055Y505500D02*
D03*
X98600Y353000D02*
D03*
X162800Y331000D02*
D03*
X308500Y513200D02*
D03*
X167800Y275500D02*
D03*
X263500Y559000D02*
D03*
D90*
X77000Y576500D02*
D03*
X54000Y528000D02*
D03*
X71500Y527500D02*
D03*
X468000Y75000D02*
D03*
X486500Y15500D02*
D03*
X95500Y478000D02*
D03*
X151000Y478488D02*
D03*
X513000Y62307D02*
D03*
X184500Y478000D02*
D03*
X201000D02*
D03*
X536500Y15000D02*
D03*
X238500Y478000D02*
D03*
X257000D02*
D03*
X549500Y15000D02*
D03*
X196945Y509701D02*
D03*
M02*
