G04*
G04 #@! TF.GenerationSoftware,Altium Limited,Altium Designer,22.3.1 (43)*
G04*
G04 Layer_Color=8421504*
%FSLAX25Y25*%
%MOIN*%
G70*
G04*
G04 #@! TF.SameCoordinates,858DE3B6-85AC-4B40-B280-C04C9E7F73BC*
G04*
G04*
G04 #@! TF.FilePolarity,Positive*
G04*
G01*
G75*
%ADD20O,0.08268X0.02362*%
%ADD21R,0.08268X0.02362*%
%ADD22R,0.05000X0.05000*%
%ADD23R,0.08661X0.06890*%
%ADD24R,0.05000X0.05000*%
%ADD25R,0.03937X0.10630*%
%ADD26R,0.12992X0.10630*%
%ADD27R,0.07874X0.07874*%
%ADD28R,0.04134X0.12598*%
%ADD29R,0.41142X0.39370*%
%ADD30R,0.08823X0.08061*%
G04:AMPARAMS|DCode=31|XSize=55mil|YSize=50mil|CornerRadius=0mil|HoleSize=0mil|Usage=FLASHONLY|Rotation=270.000|XOffset=0mil|YOffset=0mil|HoleType=Round|Shape=Octagon|*
%AMOCTAGOND31*
4,1,8,-0.01250,-0.02750,0.01250,-0.02750,0.02500,-0.01500,0.02500,0.01500,0.01250,0.02750,-0.01250,0.02750,-0.02500,0.01500,-0.02500,-0.01500,-0.01250,-0.02750,0.0*
%
%ADD31OCTAGOND31*%

%ADD32R,0.05000X0.05500*%
D20*
X69327Y204500D02*
D03*
X47673Y214500D02*
D03*
Y209500D02*
D03*
Y204500D02*
D03*
X69327Y219500D02*
D03*
Y214500D02*
D03*
Y209500D02*
D03*
D21*
X47673Y219500D02*
D03*
D22*
X107500Y449000D02*
D03*
Y458000D02*
D03*
X191500Y486500D02*
D03*
Y495500D02*
D03*
X254000Y561500D02*
D03*
Y552500D02*
D03*
X236500Y562000D02*
D03*
Y553000D02*
D03*
X53000Y38500D02*
D03*
Y47500D02*
D03*
X143750Y449000D02*
D03*
Y458000D02*
D03*
X180000D02*
D03*
Y449000D02*
D03*
X161875Y458000D02*
D03*
Y449000D02*
D03*
X169000Y486000D02*
D03*
Y495000D02*
D03*
X125625Y449000D02*
D03*
Y458000D02*
D03*
X53000Y77333D02*
D03*
Y68333D02*
D03*
Y107167D02*
D03*
Y98167D02*
D03*
Y137000D02*
D03*
Y128000D02*
D03*
X232000Y494000D02*
D03*
Y485000D02*
D03*
X208500Y494000D02*
D03*
Y485000D02*
D03*
X149500Y486000D02*
D03*
Y495000D02*
D03*
D23*
X111890Y502000D02*
D03*
X130000D02*
D03*
D24*
X89500Y235500D02*
D03*
X98500D02*
D03*
X142500D02*
D03*
X151500D02*
D03*
X248500D02*
D03*
X257500D02*
D03*
X195500D02*
D03*
X204500D02*
D03*
D25*
X196945Y535886D02*
D03*
X215055D02*
D03*
X206000D02*
D03*
D26*
Y559114D02*
D03*
D27*
X133000Y549000D02*
D03*
X103000D02*
D03*
D28*
X57807Y515000D02*
D03*
X84579D02*
D03*
X71193D02*
D03*
X77886D02*
D03*
X64500D02*
D03*
D29*
X71193Y556000D02*
D03*
D30*
X139000Y318500D02*
D03*
Y298096D02*
D03*
X265000Y321702D02*
D03*
Y301298D02*
D03*
D31*
X70000Y120250D02*
D03*
D32*
Y133750D02*
D03*
M02*
