G04*
G04 #@! TF.GenerationSoftware,Altium Limited,Altium Designer,22.3.1 (43)*
G04*
G04 Layer_Color=255*
%FSLAX25Y25*%
%MOIN*%
G70*
G04*
G04 #@! TF.SameCoordinates,858DE3B6-85AC-4B40-B280-C04C9E7F73BC*
G04*
G04*
G04 #@! TF.FilePolarity,Positive*
G04*
G01*
G75*
%ADD27R,0.07874X0.07874*%
%ADD68R,0.27559X0.27559*%
%ADD69R,0.07087X0.07087*%
%ADD70C,0.07087*%
%ADD71C,0.06299*%
%ADD72R,0.06299X0.06299*%
%ADD73O,0.04724X0.07874*%
%ADD74R,0.04724X0.07874*%
%ADD75O,0.11811X0.08661*%
%ADD76C,0.07480*%
%ADD77R,0.07480X0.07480*%
%ADD78C,0.07677*%
%ADD79R,0.07874X0.04724*%
%ADD80O,0.07874X0.04724*%
%ADD81C,0.20000*%
%ADD82C,0.07874*%
D27*
X80500Y473500D02*
D03*
D68*
X476500Y558500D02*
D03*
Y408000D02*
D03*
X327000Y558500D02*
D03*
Y408000D02*
D03*
X476500Y376750D02*
D03*
Y226250D02*
D03*
X327000Y376750D02*
D03*
Y226250D02*
D03*
Y44500D02*
D03*
Y195000D02*
D03*
X476500Y44500D02*
D03*
Y195000D02*
D03*
D69*
X59500Y167500D02*
D03*
D70*
Y177500D02*
D03*
Y187500D02*
D03*
D71*
X88000Y371000D02*
D03*
X78000Y351000D02*
D03*
X88000Y391000D02*
D03*
Y351000D02*
D03*
X78000Y371000D02*
D03*
X88000Y381000D02*
D03*
X78000D02*
D03*
Y361000D02*
D03*
X88000D02*
D03*
D72*
X78000Y391000D02*
D03*
D73*
X248913Y217000D02*
D03*
X256000D02*
D03*
X195942D02*
D03*
X203029D02*
D03*
X142971D02*
D03*
X150058D02*
D03*
X90000D02*
D03*
X97087D02*
D03*
X249587Y523000D02*
D03*
X242500D02*
D03*
D74*
X263087Y217000D02*
D03*
X210115D02*
D03*
X157144D02*
D03*
X104173D02*
D03*
X256673Y523000D02*
D03*
D75*
X19685Y102500D02*
D03*
Y132500D02*
D03*
Y162500D02*
D03*
Y177500D02*
D03*
Y147500D02*
D03*
Y72500D02*
D03*
Y42500D02*
D03*
Y117500D02*
D03*
Y87500D02*
D03*
Y57500D02*
D03*
Y201161D02*
D03*
Y216161D02*
D03*
Y280650D02*
D03*
Y325650D02*
D03*
Y340650D02*
D03*
Y310650D02*
D03*
Y265650D02*
D03*
Y235650D02*
D03*
Y370650D02*
D03*
Y355650D02*
D03*
Y250650D02*
D03*
Y295650D02*
D03*
Y404941D02*
D03*
Y434941D02*
D03*
Y464941D02*
D03*
Y479941D02*
D03*
Y509941D02*
D03*
Y539941D02*
D03*
Y554941D02*
D03*
Y524941D02*
D03*
Y494941D02*
D03*
Y449941D02*
D03*
Y419941D02*
D03*
Y389941D02*
D03*
D76*
X153000Y544500D02*
D03*
D77*
X173000D02*
D03*
D78*
X245000Y92500D02*
D03*
Y142500D02*
D03*
Y162185D02*
D03*
Y52342D02*
D03*
X220500Y380658D02*
D03*
X170000Y378500D02*
D03*
X194167Y142500D02*
D03*
Y52343D02*
D03*
Y92500D02*
D03*
Y162185D02*
D03*
X220500Y330658D02*
D03*
Y400343D02*
D03*
Y290500D02*
D03*
X143333Y92500D02*
D03*
Y142500D02*
D03*
Y52343D02*
D03*
Y162185D02*
D03*
X92500D02*
D03*
Y92500D02*
D03*
Y52343D02*
D03*
Y142500D02*
D03*
X170000Y328500D02*
D03*
Y398185D02*
D03*
Y288342D02*
D03*
D79*
X231000Y448500D02*
D03*
X209500D02*
D03*
X252500D02*
D03*
X267000Y417413D02*
D03*
X139500Y399500D02*
D03*
D80*
X231000Y455587D02*
D03*
Y462673D02*
D03*
X209500Y455587D02*
D03*
Y462673D02*
D03*
X252500Y455587D02*
D03*
Y462673D02*
D03*
X267000Y431587D02*
D03*
Y424500D02*
D03*
X139500Y413673D02*
D03*
Y406587D02*
D03*
D81*
X576772Y13779D02*
D03*
Y576772D02*
D03*
X13779D02*
D03*
Y13779D02*
D03*
D82*
X60815Y473500D02*
D03*
M02*
