G04*
G04 #@! TF.GenerationSoftware,Altium Limited,Altium Designer,22.3.1 (43)*
G04*
G04 Layer_Color=8388736*
%FSLAX25Y25*%
%MOIN*%
G70*
G04*
G04 #@! TF.SameCoordinates,ABD3340E-3DDB-4FBE-A437-06F7E2321E34*
G04*
G04*
G04 #@! TF.FilePolarity,Negative*
G04*
G01*
G75*
%ADD32R,0.05800X0.05800*%
%ADD33R,0.04934X0.13398*%
%ADD34R,0.41942X0.40170*%
%ADD35O,0.03162X0.09068*%
%ADD36R,0.03162X0.09068*%
%ADD37R,0.13792X0.11430*%
%ADD38R,0.04737X0.11430*%
%ADD39R,0.06312X0.03162*%
%ADD40R,0.08674X0.08674*%
G04:AMPARAMS|DCode=41|XSize=63mil|YSize=58mil|CornerRadius=0mil|HoleSize=0mil|Usage=FLASHONLY|Rotation=180.000|XOffset=0mil|YOffset=0mil|HoleType=Round|Shape=Octagon|*
%AMOCTAGOND41*
4,1,8,-0.03150,0.01450,-0.03150,-0.01450,-0.01700,-0.02900,0.01700,-0.02900,0.03150,-0.01450,0.03150,0.01450,0.01700,0.02900,-0.01700,0.02900,-0.03150,0.01450,0.0*
%
%ADD41OCTAGOND41*%

%ADD42R,0.06300X0.05800*%
%ADD43R,0.10249X0.13792*%
%ADD44R,0.08280X0.08280*%
%ADD45C,0.08280*%
%ADD46O,0.08674X0.05524*%
%ADD47R,0.08674X0.05524*%
%ADD48C,0.07887*%
%ADD49R,0.07887X0.07887*%
%ADD50C,0.08477*%
%ADD51C,0.07099*%
%ADD52R,0.07099X0.07099*%
%ADD53O,0.12611X0.09461*%
%ADD54C,0.20800*%
%ADD55O,0.05524X0.08674*%
%ADD56R,0.05524X0.08674*%
%ADD57O,0.09461X0.12611*%
%ADD58R,0.08674X0.08674*%
%ADD59C,0.08674*%
%ADD60C,0.05800*%
D32*
X184500Y483500D02*
D03*
Y492500D02*
D03*
X290032Y149875D02*
D03*
Y158875D02*
D03*
Y468375D02*
D03*
Y477375D02*
D03*
Y309125D02*
D03*
Y318125D02*
D03*
Y388750D02*
D03*
Y397750D02*
D03*
Y229500D02*
D03*
Y238500D02*
D03*
X486500Y70000D02*
D03*
Y61000D02*
D03*
X261000Y522500D02*
D03*
Y531500D02*
D03*
X313500Y521000D02*
D03*
Y530000D02*
D03*
X486500Y30000D02*
D03*
Y21000D02*
D03*
X536500Y29500D02*
D03*
Y20500D02*
D03*
X549500Y29500D02*
D03*
Y20500D02*
D03*
X257000Y492500D02*
D03*
Y483500D02*
D03*
X238500Y492500D02*
D03*
Y483500D02*
D03*
X201000Y492500D02*
D03*
Y483500D02*
D03*
X95500D02*
D03*
Y492500D02*
D03*
D33*
X46807Y519500D02*
D03*
X60193D02*
D03*
X53500D02*
D03*
X66886D02*
D03*
X40114D02*
D03*
D34*
X53500Y560500D02*
D03*
D35*
X513000Y55173D02*
D03*
X523000Y76827D02*
D03*
X518000D02*
D03*
X513000D02*
D03*
X528000Y55173D02*
D03*
X523000D02*
D03*
X518000D02*
D03*
D36*
X528000Y76827D02*
D03*
D37*
X206000Y541244D02*
D03*
D38*
Y518016D02*
D03*
X215055D02*
D03*
X196945D02*
D03*
D39*
X217000Y234520D02*
D03*
Y242000D02*
D03*
X207103Y238260D02*
D03*
X145000Y234520D02*
D03*
Y242000D02*
D03*
X135103Y238260D02*
D03*
X73000Y234520D02*
D03*
Y242000D02*
D03*
X63103Y238260D02*
D03*
D40*
X96000Y527801D02*
D03*
X126000D02*
D03*
X67842Y472000D02*
D03*
D41*
X506750Y25500D02*
D03*
D42*
X520250D02*
D03*
D43*
X123638Y487984D02*
D03*
X151000D02*
D03*
D44*
X169000Y527500D02*
D03*
D45*
X149000D02*
D03*
D46*
X345500Y492587D02*
D03*
Y485500D02*
D03*
Y406837D02*
D03*
Y399750D02*
D03*
Y321087D02*
D03*
Y314000D02*
D03*
Y235337D02*
D03*
Y228250D02*
D03*
Y149587D02*
D03*
Y142500D02*
D03*
D47*
Y478413D02*
D03*
Y392663D02*
D03*
Y306913D02*
D03*
Y221163D02*
D03*
Y135413D02*
D03*
D48*
X468000Y55000D02*
D03*
Y65000D02*
D03*
D49*
Y75000D02*
D03*
D50*
X462500Y481000D02*
D03*
X412500D02*
D03*
X392815D02*
D03*
X502657D02*
D03*
X462500Y393875D02*
D03*
X412500D02*
D03*
X392815D02*
D03*
X502657D02*
D03*
X462500Y306750D02*
D03*
X412500D02*
D03*
X392815D02*
D03*
X502657D02*
D03*
X462500Y219625D02*
D03*
X412500D02*
D03*
X392815D02*
D03*
X502657D02*
D03*
X462500Y132500D02*
D03*
X412500D02*
D03*
X392815D02*
D03*
X502657D02*
D03*
X197000Y168000D02*
D03*
Y77843D02*
D03*
Y118000D02*
D03*
Y187685D02*
D03*
X124000Y118000D02*
D03*
Y168000D02*
D03*
Y77843D02*
D03*
Y187685D02*
D03*
X51000Y168000D02*
D03*
Y77843D02*
D03*
Y118000D02*
D03*
Y187685D02*
D03*
D51*
X149500Y343000D02*
D03*
X139500Y323000D02*
D03*
X149500Y363000D02*
D03*
Y323000D02*
D03*
X139500Y343000D02*
D03*
X149500Y353000D02*
D03*
X139500D02*
D03*
Y333000D02*
D03*
X149500D02*
D03*
D52*
X139500Y363000D02*
D03*
D53*
X24000Y335500D02*
D03*
Y290500D02*
D03*
Y395500D02*
D03*
Y410500D02*
D03*
Y275500D02*
D03*
Y305500D02*
D03*
Y350500D02*
D03*
Y380500D02*
D03*
Y365500D02*
D03*
Y320500D02*
D03*
X571000Y53000D02*
D03*
Y68000D02*
D03*
Y360500D02*
D03*
Y330500D02*
D03*
Y315500D02*
D03*
Y285500D02*
D03*
Y255500D02*
D03*
Y240500D02*
D03*
Y270500D02*
D03*
Y300500D02*
D03*
Y345500D02*
D03*
Y375500D02*
D03*
D54*
X570866Y570866D02*
D03*
X19685D02*
D03*
X570866Y19685D02*
D03*
X19685D02*
D03*
D55*
X291413Y526500D02*
D03*
X284327D02*
D03*
D56*
X298500D02*
D03*
D57*
X289500Y567500D02*
D03*
X319500D02*
D03*
X349500D02*
D03*
X394500D02*
D03*
X424500D02*
D03*
X454500D02*
D03*
X439500D02*
D03*
X409500D02*
D03*
X379500D02*
D03*
X364500D02*
D03*
X334500D02*
D03*
X304500D02*
D03*
D58*
X463224Y524000D02*
D03*
X464724Y444500D02*
D03*
X467224Y359000D02*
D03*
X466724Y268000D02*
D03*
X465224Y175500D02*
D03*
D59*
X503776Y524000D02*
D03*
X505276Y444500D02*
D03*
X507776Y359000D02*
D03*
X507276Y268000D02*
D03*
X505776Y175500D02*
D03*
X48157Y472000D02*
D03*
D60*
X323000Y541000D02*
D03*
X334500Y542500D02*
D03*
X29929Y560500D02*
D03*
X34500Y274000D02*
D03*
X40871Y282200D02*
D03*
X192000Y484500D02*
D03*
X184500Y478000D02*
D03*
X476000Y17000D02*
D03*
X227300Y353000D02*
D03*
X25700Y460000D02*
D03*
X275300Y315800D02*
D03*
X454500Y188001D02*
D03*
X372200Y162000D02*
D03*
X404000Y236000D02*
D03*
X277500Y513000D02*
D03*
X24000Y439200D02*
D03*
X508000Y62307D02*
D03*
X95500Y498000D02*
D03*
X40114Y528799D02*
D03*
X290032Y144375D02*
D03*
Y224000D02*
D03*
Y303625D02*
D03*
Y383250D02*
D03*
X95500Y478000D02*
D03*
X151000Y478488D02*
D03*
X53500Y528799D02*
D03*
X66886D02*
D03*
X201000Y478000D02*
D03*
X536500Y15000D02*
D03*
X238500Y478000D02*
D03*
X257000D02*
D03*
X549500Y15000D02*
D03*
X290032Y462875D02*
D03*
X196945Y509701D02*
D03*
M02*
