G04*
G04 #@! TF.GenerationSoftware,Altium Limited,Altium Designer,22.3.1 (43)*
G04*
G04 Layer_Color=2752767*
%FSLAX25Y25*%
%MOIN*%
G70*
G04*
G04 #@! TF.SameCoordinates,42F2F30E-D50D-475D-B1A6-53A476FFABF4*
G04*
G04*
G04 #@! TF.FilePolarity,Positive*
G04*
G01*
G75*
%ADD113C,0.00200*%
%ADD114C,0.00267*%
D113*
X477700Y529200D02*
Y530800D01*
X479300D01*
Y529200D01*
X477700D01*
Y378700D02*
Y380300D01*
X479300D01*
Y378700D01*
X477700D01*
X328200Y529200D02*
Y530800D01*
X329800D01*
Y529200D01*
X328200D01*
Y378700D02*
Y380300D01*
X329800D01*
Y378700D01*
X328200D01*
X565500Y331200D02*
X564700Y332800D01*
X566300D01*
X565500Y331200D01*
Y301200D02*
X564700Y302800D01*
X566300D01*
X565500Y301200D01*
Y271200D02*
X564700Y272800D01*
X566300D01*
X565500Y271200D01*
Y256200D02*
X564700Y257800D01*
X566300D01*
X565500Y256200D01*
Y226200D02*
X564700Y227800D01*
X566300D01*
X565500Y226200D01*
Y196200D02*
X564700Y197800D01*
X566300D01*
X565500Y196200D01*
Y181200D02*
X564700Y182800D01*
X566300D01*
X565500Y181200D01*
Y211200D02*
X564700Y212800D01*
X566300D01*
X565500Y211200D01*
Y241200D02*
X564700Y242800D01*
X566300D01*
X565500Y241200D01*
Y286200D02*
X564700Y287800D01*
X566300D01*
X565500Y286200D01*
Y316200D02*
X564700Y317800D01*
X566300D01*
X565500Y316200D01*
Y346200D02*
X564700Y347800D01*
X566300D01*
X565500Y346200D01*
X149500Y332200D02*
X149900Y332600D01*
X150300D01*
X149900Y333000D01*
X150300Y333400D01*
X149900D01*
X149500Y333800D01*
X149100Y333400D01*
X148700D01*
X149100Y333000D01*
X148700Y332600D01*
X149100D01*
X149500Y332200D01*
X139500D02*
X139900Y332600D01*
X140300D01*
X139900Y333000D01*
X140300Y333400D01*
X139900D01*
X139500Y333800D01*
X139100Y333400D01*
X138700D01*
X139100Y333000D01*
X138700Y332600D01*
X139100D01*
X139500Y332200D01*
Y352200D02*
X139900Y352600D01*
X140300D01*
X139900Y353000D01*
X140300Y353400D01*
X139900D01*
X139500Y353800D01*
X139100Y353400D01*
X138700D01*
X139100Y353000D01*
X138700Y352600D01*
X139100D01*
X139500Y352200D01*
X149500D02*
X149900Y352600D01*
X150300D01*
X149900Y353000D01*
X150300Y353400D01*
X149900D01*
X149500Y353800D01*
X149100Y353400D01*
X148700D01*
X149100Y353000D01*
X148700Y352600D01*
X149100D01*
X149500Y352200D01*
X139500Y342200D02*
X139900Y342600D01*
X140300D01*
X139900Y343000D01*
X140300Y343400D01*
X139900D01*
X139500Y343800D01*
X139100Y343400D01*
X138700D01*
X139100Y343000D01*
X138700Y342600D01*
X139100D01*
X139500Y342200D01*
X149500Y322200D02*
X149900Y322600D01*
X150300D01*
X149900Y323000D01*
X150300Y323400D01*
X149900D01*
X149500Y323800D01*
X149100Y323400D01*
X148700D01*
X149100Y323000D01*
X148700Y322600D01*
X149100D01*
X149500Y322200D01*
X139500Y362200D02*
X139900Y362600D01*
X140300D01*
X139900Y363000D01*
X140300Y363400D01*
X139900D01*
X139500Y363800D01*
X139100Y363400D01*
X138700D01*
X139100Y363000D01*
X138700Y362600D01*
X139100D01*
X139500Y362200D01*
X149500D02*
X149900Y362600D01*
X150300D01*
X149900Y363000D01*
X150300Y363400D01*
X149900D01*
X149500Y363800D01*
X149100Y363400D01*
X148700D01*
X149100Y363000D01*
X148700Y362600D01*
X149100D01*
X149500Y362200D01*
X139500Y322200D02*
X139900Y322600D01*
X140300D01*
X139900Y323000D01*
X140300Y323400D01*
X139900D01*
X139500Y323800D01*
X139100Y323400D01*
X138700D01*
X139100Y323000D01*
X138700Y322600D01*
X139100D01*
X139500Y322200D01*
X149500Y342200D02*
X149900Y342600D01*
X150300D01*
X149900Y343000D01*
X150300Y343400D01*
X149900D01*
X149500Y343800D01*
X149100Y343400D01*
X148700D01*
X149100Y343000D01*
X148700Y342600D01*
X149100D01*
X149500Y342200D01*
X570066Y18885D02*
X570466Y19685D01*
X570066Y20485D01*
X570866Y20085D01*
X571666Y20485D01*
X571266Y19685D01*
X571666Y18885D01*
X570866Y19285D01*
X570066Y18885D01*
X169000Y526700D02*
X169400Y527100D01*
X169800D01*
X169400Y527500D01*
X169800Y527900D01*
X169400D01*
X169000Y528300D01*
X168600Y527900D01*
X168200D01*
X168600Y527500D01*
X168200Y527100D01*
X168600D01*
X169000Y526700D01*
X149000D02*
X149400Y527100D01*
X149800D01*
X149400Y527500D01*
X149800Y527900D01*
X149400D01*
X149000Y528300D01*
X148600Y527900D01*
X148200D01*
X148600Y527500D01*
X148200Y527100D01*
X148600D01*
X149000Y526700D01*
X324600Y350687D02*
Y350287D01*
X325400D01*
Y350687D01*
X325800D01*
Y351487D01*
X325400D01*
Y351887D01*
X324600D01*
Y351487D01*
X324200D01*
Y350687D01*
X324600D01*
Y343600D02*
Y343200D01*
X325400D01*
Y343600D01*
X325800D01*
Y344400D01*
X325400D01*
Y344800D01*
X324600D01*
Y344400D01*
X324200D01*
Y343600D01*
X324600D01*
Y336513D02*
Y336113D01*
X325400D01*
Y336513D01*
X325800D01*
Y337313D01*
X325400D01*
Y337713D01*
X324600D01*
Y337313D01*
X324200D01*
Y336513D01*
X324600D01*
X323600Y322687D02*
Y322287D01*
X324400D01*
Y322687D01*
X324800D01*
Y323487D01*
X324400D01*
Y323887D01*
X323600D01*
Y323487D01*
X323200D01*
Y322687D01*
X323600D01*
Y315600D02*
Y315200D01*
X324400D01*
Y315600D01*
X324800D01*
Y316400D01*
X324400D01*
Y316800D01*
X323600D01*
Y316400D01*
X323200D01*
Y315600D01*
X323600D01*
Y308513D02*
Y308113D01*
X324400D01*
Y308513D01*
X324800D01*
Y309313D01*
X324400D01*
Y309713D01*
X323600D01*
Y309313D01*
X323200D01*
Y308513D01*
X323600D01*
X327100Y266687D02*
Y266287D01*
X327900D01*
Y266687D01*
X328300D01*
Y267487D01*
X327900D01*
Y267887D01*
X327100D01*
Y267487D01*
X326700D01*
Y266687D01*
X327100D01*
Y259600D02*
Y259200D01*
X327900D01*
Y259600D01*
X328300D01*
Y260400D01*
X327900D01*
Y260800D01*
X327100D01*
Y260400D01*
X326700D01*
Y259600D01*
X327100D01*
Y252513D02*
Y252113D01*
X327900D01*
Y252513D01*
X328300D01*
Y253313D01*
X327900D01*
Y253713D01*
X327100D01*
Y253313D01*
X326700D01*
Y252513D01*
X327100D01*
X330600Y197187D02*
Y196787D01*
X331400D01*
Y197187D01*
X331800D01*
Y197987D01*
X331400D01*
Y198387D01*
X330600D01*
Y197987D01*
X330200D01*
Y197187D01*
X330600D01*
Y190100D02*
Y189700D01*
X331400D01*
Y190100D01*
X331800D01*
Y190900D01*
X331400D01*
Y191300D01*
X330600D01*
Y190900D01*
X330200D01*
Y190100D01*
X330600D01*
Y183013D02*
Y182613D01*
X331400D01*
Y183013D01*
X331800D01*
Y183813D01*
X331400D01*
Y184213D01*
X330600D01*
Y183813D01*
X330200D01*
Y183013D01*
X330600D01*
X334100Y127187D02*
Y126787D01*
X334900D01*
Y127187D01*
X335300D01*
Y127987D01*
X334900D01*
Y128387D01*
X334100D01*
Y127987D01*
X333700D01*
Y127187D01*
X334100D01*
Y120100D02*
Y119700D01*
X334900D01*
Y120100D01*
X335300D01*
Y120900D01*
X334900D01*
Y121300D01*
X334100D01*
Y120900D01*
X333700D01*
Y120100D01*
X334100D01*
Y113013D02*
Y112613D01*
X334900D01*
Y113013D01*
X335300D01*
Y113813D01*
X334900D01*
Y114213D01*
X334100D01*
Y113813D01*
X333700D01*
Y113013D01*
X334100D01*
X467200Y54200D02*
X467600D01*
X468000Y54600D01*
X468400Y54200D01*
X468800D01*
Y54600D01*
X468400Y55000D01*
X468800Y55400D01*
Y55800D01*
X468400D01*
X468000Y55400D01*
X467600Y55800D01*
X467200D01*
Y55400D01*
X467600Y55000D01*
X467200Y54600D01*
Y54200D01*
Y64200D02*
X467600D01*
X468000Y64600D01*
X468400Y64200D01*
X468800D01*
Y64600D01*
X468400Y65000D01*
X468800Y65400D01*
Y65800D01*
X468400D01*
X468000Y65400D01*
X467600Y65800D01*
X467200D01*
Y65400D01*
X467600Y65000D01*
X467200Y64600D01*
Y64200D01*
Y74200D02*
X467600D01*
X468000Y74600D01*
X468400Y74200D01*
X468800D01*
Y74600D01*
X468400Y75000D01*
X468800Y75400D01*
Y75800D01*
X468400D01*
X468000Y75400D01*
X467600Y75800D01*
X467200D01*
Y75400D01*
X467600Y75000D01*
X467200Y74600D01*
Y74200D01*
X24000Y334700D02*
X23200Y336300D01*
X24800D01*
X24000Y334700D01*
Y289700D02*
X23200Y291300D01*
X24800D01*
X24000Y289700D01*
Y394700D02*
X23200Y396300D01*
X24800D01*
X24000Y394700D01*
Y409700D02*
X23200Y411300D01*
X24800D01*
X24000Y409700D01*
Y274700D02*
X23200Y276300D01*
X24800D01*
X24000Y274700D01*
Y304700D02*
X23200Y306300D01*
X24800D01*
X24000Y304700D01*
Y349700D02*
X23200Y351300D01*
X24800D01*
X24000Y349700D01*
Y379700D02*
X23200Y381300D01*
X24800D01*
X24000Y379700D01*
Y364700D02*
X23200Y366300D01*
X24800D01*
X24000Y364700D01*
Y319700D02*
X23200Y321300D01*
X24800D01*
X24000Y319700D01*
X570066Y570066D02*
X570466Y570866D01*
X570066Y571666D01*
X570866Y571266D01*
X571666Y571666D01*
X571266Y570866D01*
X571666Y570066D01*
X570866Y570466D01*
X570066Y570066D01*
X18885D02*
X19285Y570866D01*
X18885Y571666D01*
X19685Y571266D01*
X20485Y571666D01*
X20085Y570866D01*
X20485Y570066D01*
X19685Y570466D01*
X18885Y570066D01*
Y18885D02*
X19285Y19685D01*
X18885Y20485D01*
X19685Y20085D01*
X20485Y20485D01*
X20085Y19685D01*
X20485Y18885D01*
X19685Y19285D01*
X18885Y18885D01*
X571000Y52200D02*
X570200Y53800D01*
X571800D01*
X571000Y52200D01*
Y67200D02*
X570200Y68800D01*
X571800D01*
X571000Y67200D01*
X248513Y530600D02*
Y530200D01*
X249313D01*
Y530600D01*
X249713D01*
Y531400D01*
X249313D01*
Y531800D01*
X248513D01*
Y531400D01*
X248113D01*
Y530600D01*
X248513D01*
X241427D02*
Y530200D01*
X242227D01*
Y530600D01*
X242627D01*
Y531400D01*
X242227D01*
Y531800D01*
X241427D01*
Y531400D01*
X241027D01*
Y530600D01*
X241427D01*
X255600D02*
Y530200D01*
X256400D01*
Y530600D01*
X256800D01*
Y531400D01*
X256400D01*
Y531800D01*
X255600D01*
Y531400D01*
X255200D01*
Y530600D01*
X255600D01*
X289500Y566700D02*
X288700Y568300D01*
X290300D01*
X289500Y566700D01*
X319500D02*
X318700Y568300D01*
X320300D01*
X319500Y566700D01*
X349500D02*
X348700Y568300D01*
X350300D01*
X349500Y566700D01*
X394500D02*
X393700Y568300D01*
X395300D01*
X394500Y566700D01*
X424500D02*
X423700Y568300D01*
X425300D01*
X424500Y566700D01*
X454500D02*
X453700Y568300D01*
X455300D01*
X454500Y566700D01*
X439500D02*
X438700Y568300D01*
X440300D01*
X439500Y566700D01*
X409500D02*
X408700Y568300D01*
X410300D01*
X409500Y566700D01*
X379500D02*
X378700Y568300D01*
X380300D01*
X379500Y566700D01*
X364500D02*
X363700Y568300D01*
X365300D01*
X364500Y566700D01*
X334500D02*
X333700Y568300D01*
X335300D01*
X334500Y566700D01*
X304500D02*
X303700Y568300D01*
X305300D01*
X304500Y566700D01*
X67042Y472000D02*
X67842Y472800D01*
X68642Y472000D01*
X67842Y471200D01*
X67042Y472000D01*
X47357D02*
X48157Y472800D01*
X48957Y472000D01*
X48157Y471200D01*
X47357Y472000D01*
X54700Y500200D02*
Y501800D01*
X56300D01*
Y500200D01*
X54700D01*
X55100Y500600D02*
Y501400D01*
X55900D01*
Y500600D01*
X55100D01*
X69700Y501200D02*
Y502800D01*
X71300D01*
Y501200D01*
X69700D01*
X70100Y501600D02*
Y502400D01*
X70900D01*
Y501600D01*
X70100D01*
X94700Y496950D02*
Y498550D01*
X96300D01*
Y496950D01*
X94700D01*
X95100Y497350D02*
Y498150D01*
X95900D01*
Y497350D01*
X95100D01*
X84700Y513200D02*
Y514800D01*
X86300D01*
Y513200D01*
X84700D01*
X85100Y513600D02*
Y514400D01*
X85900D01*
Y513600D01*
X85100D01*
X504200Y59200D02*
Y60800D01*
X505800D01*
Y59200D01*
X504200D01*
X504600Y59600D02*
Y60400D01*
X505400D01*
Y59600D01*
X504600D01*
X306700Y295700D02*
Y297300D01*
X308300D01*
Y295700D01*
X306700D01*
X307100Y296100D02*
Y296900D01*
X307900D01*
Y296100D01*
X307100D01*
X496195Y52695D02*
Y54295D01*
X497795D01*
Y52695D01*
X496195D01*
X496595Y53095D02*
Y53895D01*
X497395D01*
Y53095D01*
X496595D01*
X345629Y166021D02*
Y167621D01*
X347229D01*
Y166021D01*
X345629D01*
X346029Y166420D02*
Y167220D01*
X346829D01*
Y166420D01*
X346029D01*
X353700Y76200D02*
Y77800D01*
X355300D01*
Y76200D01*
X353700D01*
X354100Y76600D02*
Y77400D01*
X354900D01*
Y76600D01*
X354100D01*
X324200Y173200D02*
Y174800D01*
X325800D01*
Y173200D01*
X324200D01*
X324600Y173600D02*
Y174400D01*
X325400D01*
Y173600D01*
X324600D01*
X329700Y71200D02*
Y72800D01*
X331300D01*
Y71200D01*
X329700D01*
X330100Y71600D02*
Y72400D01*
X330900D01*
Y71600D01*
X330100D01*
X512950Y43200D02*
Y44800D01*
X514550D01*
Y43200D01*
X512950D01*
X513350Y43600D02*
Y44400D01*
X514150D01*
Y43600D01*
X513350D01*
X350000Y242400D02*
Y244000D01*
X351600D01*
Y242400D01*
X350000D01*
X350400Y242800D02*
Y243600D01*
X351200D01*
Y242800D01*
X350400D01*
X335900Y280302D02*
Y281902D01*
X337500D01*
Y280302D01*
X335900D01*
X336300Y280702D02*
Y281502D01*
X337100D01*
Y280702D01*
X336300D01*
X286700Y118900D02*
Y120500D01*
X288300D01*
Y118900D01*
X286700D01*
X287100Y119300D02*
Y120100D01*
X287900D01*
Y119300D01*
X287100D01*
X301909Y259200D02*
Y260800D01*
X303509D01*
Y259200D01*
X301909D01*
X302309Y259600D02*
Y260400D01*
X303109D01*
Y259600D01*
X302309D01*
X286700Y188200D02*
Y189800D01*
X288300D01*
Y188200D01*
X286700D01*
X287100Y188600D02*
Y189400D01*
X287900D01*
Y188600D01*
X287100D01*
X249613Y540700D02*
Y542300D01*
X251213D01*
Y540700D01*
X249613D01*
X250013Y541100D02*
Y541900D01*
X250813D01*
Y541100D01*
X250013D01*
X243900Y242100D02*
Y243700D01*
X245500D01*
Y242100D01*
X243900D01*
X244300Y242500D02*
Y243300D01*
X245100D01*
Y242500D01*
X244300D01*
X175000Y240500D02*
Y242100D01*
X176600D01*
Y240500D01*
X175000D01*
X175400Y240900D02*
Y241700D01*
X176200D01*
Y240900D01*
X175400D01*
X317600Y223200D02*
Y224800D01*
X319200D01*
Y223200D01*
X317600D01*
X318000Y223600D02*
Y224400D01*
X318800D01*
Y223600D01*
X318000D01*
X127600Y235100D02*
Y236700D01*
X129200D01*
Y235100D01*
X127600D01*
X128000Y235500D02*
Y236300D01*
X128800D01*
Y235500D01*
X128000D01*
X435400Y239900D02*
Y241500D01*
X437000D01*
Y239900D01*
X435400D01*
X435800Y240300D02*
Y241100D01*
X436600D01*
Y240300D01*
X435800D01*
X227700Y556700D02*
Y558300D01*
X229300D01*
Y556700D01*
X227700D01*
X228100Y557100D02*
Y557900D01*
X228900D01*
Y557100D01*
X228100D01*
X251000Y516500D02*
Y518100D01*
X252600D01*
Y516500D01*
X251000D01*
X251400Y516900D02*
Y517700D01*
X252200D01*
Y516900D01*
X251400D01*
X235200Y477200D02*
Y478800D01*
X236800D01*
Y477200D01*
X235200D01*
X235600Y477600D02*
Y478400D01*
X236400D01*
Y477600D01*
X235600D01*
X48814Y522999D02*
Y524599D01*
X50414D01*
Y522999D01*
X48814D01*
X49214Y523399D02*
Y524199D01*
X50014D01*
Y523399D01*
X49214D01*
X286700Y92075D02*
Y93675D01*
X288300D01*
Y92075D01*
X286700D01*
X287100Y92475D02*
Y93275D01*
X287900D01*
Y92475D01*
X287100D01*
X286700Y160783D02*
Y162383D01*
X288300D01*
Y160783D01*
X286700D01*
X287100Y161183D02*
Y161983D01*
X287900D01*
Y161183D01*
X287100D01*
X286700Y229492D02*
Y231092D01*
X288300D01*
Y229492D01*
X286700D01*
X287100Y229892D02*
Y230692D01*
X287900D01*
Y229892D01*
X287100D01*
X286700Y298200D02*
Y299800D01*
X288300D01*
Y298200D01*
X286700D01*
X287100Y298600D02*
Y299400D01*
X287900D01*
Y298600D01*
X287100D01*
X286700Y332200D02*
Y333800D01*
X288300D01*
Y332200D01*
X286700D01*
X287100Y332600D02*
Y333400D01*
X287900D01*
Y332600D01*
X287100D01*
X479200Y11700D02*
Y13300D01*
X480800D01*
Y11700D01*
X479200D01*
X479600Y12100D02*
Y12900D01*
X480400D01*
Y12100D01*
X479600D01*
X94700Y477200D02*
Y478800D01*
X96300D01*
Y477200D01*
X94700D01*
X95100Y477600D02*
Y478400D01*
X95900D01*
Y477600D01*
X95100D01*
X150200Y477688D02*
Y479288D01*
X151800D01*
Y477688D01*
X150200D01*
X150600Y478088D02*
Y478888D01*
X151400D01*
Y478088D01*
X150600D01*
X183700Y477200D02*
Y478800D01*
X185300D01*
Y477200D01*
X183700D01*
X184100Y477600D02*
Y478400D01*
X184900D01*
Y477600D01*
X184100D01*
X62200Y522999D02*
Y524599D01*
X63800D01*
Y522999D01*
X62200D01*
X62600Y523399D02*
Y524199D01*
X63400D01*
Y523399D01*
X62600D01*
X75586Y522999D02*
Y524599D01*
X77186D01*
Y522999D01*
X75586D01*
X75986Y523399D02*
Y524199D01*
X76786D01*
Y523399D01*
X75986D01*
X200200Y477200D02*
Y478800D01*
X201800D01*
Y477200D01*
X200200D01*
X200600Y477600D02*
Y478400D01*
X201400D01*
Y477600D01*
X200600D01*
X529200Y11200D02*
Y12800D01*
X530800D01*
Y11200D01*
X529200D01*
X529600Y11600D02*
Y12400D01*
X530400D01*
Y11600D01*
X529600D01*
X222700Y477200D02*
Y478800D01*
X224300D01*
Y477200D01*
X222700D01*
X223100Y477600D02*
Y478400D01*
X223900D01*
Y477600D01*
X223100D01*
X542200Y11200D02*
Y12800D01*
X543800D01*
Y11200D01*
X542200D01*
X542600Y11600D02*
Y12400D01*
X543400D01*
Y11600D01*
X542600D01*
X196145Y508901D02*
Y510501D01*
X197745D01*
Y508901D01*
X196145D01*
X196545Y509301D02*
Y510101D01*
X197345D01*
Y509301D01*
X196545D01*
X38629Y554700D02*
Y556300D01*
X40229D01*
Y554700D01*
X38629D01*
X39029Y555100D02*
Y555900D01*
X39829D01*
Y555100D01*
X39029D01*
D114*
X178800Y167500D02*
X178247Y168261D01*
X177353Y167971D01*
Y167030D01*
X178247Y166739D01*
X178800Y167500D01*
Y77343D02*
X178247Y78104D01*
X177353Y77813D01*
Y76873D01*
X178247Y76582D01*
X178800Y77343D01*
Y117500D02*
X178247Y118261D01*
X177353Y117971D01*
Y117030D01*
X178247Y116739D01*
X178800Y117500D01*
Y187185D02*
X178247Y187946D01*
X177353Y187656D01*
Y186715D01*
X178247Y186425D01*
X178800Y187185D01*
X454642Y173000D02*
X454090Y173761D01*
X453195Y173470D01*
Y172530D01*
X454090Y172239D01*
X454642Y173000D01*
X404642D02*
X404090Y173761D01*
X403195Y173470D01*
Y172530D01*
X404090Y172239D01*
X404642Y173000D01*
X384957D02*
X384405Y173761D01*
X383510Y173470D01*
Y172530D01*
X384405Y172239D01*
X384957Y173000D01*
X494800D02*
X494247Y173761D01*
X493353Y173470D01*
Y172530D01*
X494247Y172239D01*
X494800Y173000D01*
X110300Y117500D02*
X109747Y118261D01*
X108853Y117971D01*
Y117030D01*
X109747Y116739D01*
X110300Y117500D01*
Y167500D02*
X109747Y168261D01*
X108853Y167971D01*
Y167030D01*
X109747Y166739D01*
X110300Y167500D01*
Y77343D02*
X109747Y78104D01*
X108853Y77813D01*
Y76873D01*
X109747Y76582D01*
X110300Y77343D01*
Y187185D02*
X109747Y187946D01*
X108853Y187656D01*
Y186715D01*
X109747Y186425D01*
X110300Y187185D01*
X493457Y294000D02*
X492905Y294761D01*
X492010Y294470D01*
Y293530D01*
X492905Y293239D01*
X493457Y294000D01*
X383615D02*
X383062Y294761D01*
X382168Y294470D01*
Y293530D01*
X383062Y293239D01*
X383615Y294000D01*
X403300D02*
X402747Y294761D01*
X401853Y294470D01*
Y293530D01*
X402747Y293239D01*
X403300Y294000D01*
X453300D02*
X452747Y294761D01*
X451853Y294470D01*
Y293530D01*
X452747Y293239D01*
X453300Y294000D01*
X247300Y77343D02*
X246747Y78104D01*
X245853Y77813D01*
Y76872D01*
X246747Y76582D01*
X247300Y77343D01*
Y187185D02*
X246747Y187946D01*
X245853Y187656D01*
Y186715D01*
X246747Y186425D01*
X247300Y187185D01*
Y167500D02*
X246747Y168261D01*
X245853Y167971D01*
Y167030D01*
X246747Y166739D01*
X247300Y167500D01*
Y117500D02*
X246747Y118261D01*
X245853Y117971D01*
Y117030D01*
X246747Y116739D01*
X247300Y117500D01*
X41800Y187185D02*
X41247Y187946D01*
X40353Y187656D01*
Y186715D01*
X41247Y186425D01*
X41800Y187185D01*
Y117500D02*
X41247Y118261D01*
X40353Y117971D01*
Y117030D01*
X41247Y116739D01*
X41800Y117500D01*
Y77343D02*
X41247Y78104D01*
X40353Y77813D01*
Y76873D01*
X41247Y76582D01*
X41800Y77343D01*
Y167500D02*
X41247Y168261D01*
X40353Y167971D01*
Y167030D01*
X41247Y166739D01*
X41800Y167500D01*
X495457Y233500D02*
X494905Y234261D01*
X494010Y233970D01*
Y233030D01*
X494905Y232739D01*
X495457Y233500D01*
X385615D02*
X385062Y234261D01*
X384168Y233970D01*
Y233030D01*
X385062Y232739D01*
X385615Y233500D01*
X405300D02*
X404747Y234261D01*
X403853Y233970D01*
Y233030D01*
X404747Y232739D01*
X405300Y233500D01*
X455300D02*
X454747Y234261D01*
X453853Y233970D01*
Y233030D01*
X454747Y232739D01*
X455300Y233500D01*
X452300Y110500D02*
X451747Y111261D01*
X450852Y110970D01*
Y110029D01*
X451747Y109739D01*
X452300Y110500D01*
X402300D02*
X401747Y111261D01*
X400852Y110970D01*
Y110029D01*
X401747Y109739D01*
X402300Y110500D01*
X382615D02*
X382062Y111261D01*
X381167Y110970D01*
Y110029D01*
X382062Y109739D01*
X382615Y110500D01*
X492457D02*
X491904Y111261D01*
X491010Y110970D01*
Y110029D01*
X491904Y109739D01*
X492457Y110500D01*
M02*
