G04*
G04 #@! TF.GenerationSoftware,Altium Limited,Altium Designer,22.3.1 (43)*
G04*
G04 Layer_Color=32768*
%FSLAX25Y25*%
%MOIN*%
G70*
G04*
G04 #@! TF.SameCoordinates,858DE3B6-85AC-4B40-B280-C04C9E7F73BC*
G04*
G04*
G04 #@! TF.FilePolarity,Positive*
G04*
G01*
G75*
%ADD19C,0.00394*%
%ADD114C,0.00197*%
D19*
X42500Y201500D02*
Y222500D01*
X74500Y201500D02*
Y222500D01*
X42500D02*
X74500D01*
X42500Y201500D02*
X74500D01*
X190843Y528602D02*
X221157D01*
X190843Y566398D02*
X221157D01*
X190843Y528602D02*
Y566398D01*
X221157Y528602D02*
Y566398D01*
X206000Y545532D02*
Y549469D01*
X204032Y547500D02*
X207969D01*
X222953Y18484D02*
Y196437D01*
X279252D01*
Y18484D02*
Y196437D01*
X222953Y18484D02*
X279252D01*
X172119D02*
Y196437D01*
X228419D01*
Y18484D02*
Y196437D01*
X172119Y18484D02*
X228419D01*
X198453Y256642D02*
Y434595D01*
X254752D01*
Y256642D02*
Y434595D01*
X198453Y256642D02*
X254752D01*
X121286Y18484D02*
Y196437D01*
X177585D01*
Y18484D02*
Y196437D01*
X121286Y18484D02*
X177585D01*
X70453D02*
X126752D01*
Y196437D01*
X70453D02*
X126752D01*
X70453Y18484D02*
Y196437D01*
X147953Y254484D02*
Y432437D01*
X204252D01*
Y254484D02*
Y432437D01*
X147953Y254484D02*
X204252D01*
D114*
X59878Y212000D02*
X59556Y212886D01*
X58739Y213357D01*
X57811Y213193D01*
X57205Y212471D01*
Y211529D01*
X57811Y210807D01*
X58739Y210643D01*
X59556Y211114D01*
X59878Y212000D01*
X108878Y453500D02*
X108556Y454386D01*
X107739Y454857D01*
X106811Y454693D01*
X106205Y453971D01*
Y453029D01*
X106811Y452307D01*
X107739Y452143D01*
X108556Y452614D01*
X108878Y453500D01*
X122323Y502000D02*
X122001Y502886D01*
X121184Y503357D01*
X120256Y503193D01*
X119650Y502471D01*
Y501529D01*
X120256Y500807D01*
X121184Y500643D01*
X122001Y501114D01*
X122323Y502000D01*
X192878Y491000D02*
X192556Y491886D01*
X191739Y492357D01*
X190811Y492193D01*
X190205Y491471D01*
Y490529D01*
X190811Y489807D01*
X191739Y489643D01*
X192556Y490114D01*
X192878Y491000D01*
X95378Y235500D02*
X95056Y236386D01*
X94239Y236857D01*
X93311Y236693D01*
X92705Y235971D01*
Y235029D01*
X93311Y234307D01*
X94239Y234143D01*
X95056Y234614D01*
X95378Y235500D01*
X148378D02*
X148056Y236386D01*
X147239Y236857D01*
X146311Y236693D01*
X145705Y235971D01*
Y235029D01*
X146311Y234307D01*
X147239Y234143D01*
X148056Y234614D01*
X148378Y235500D01*
X254378D02*
X254056Y236386D01*
X253239Y236857D01*
X252311Y236693D01*
X251705Y235971D01*
Y235029D01*
X252311Y234307D01*
X253239Y234143D01*
X254056Y234614D01*
X254378Y235500D01*
X201378D02*
X201056Y236386D01*
X200239Y236857D01*
X199311Y236693D01*
X198705Y235971D01*
Y235029D01*
X199311Y234307D01*
X200239Y234143D01*
X201056Y234614D01*
X201378Y235500D01*
X21063Y110000D02*
X20741Y110886D01*
X19924Y111357D01*
X18996Y111193D01*
X18390Y110471D01*
Y109529D01*
X18996Y108807D01*
X19924Y108643D01*
X20741Y109114D01*
X21063Y110000D01*
Y208661D02*
X20741Y209547D01*
X19924Y210018D01*
X18996Y209855D01*
X18390Y209133D01*
Y208190D01*
X18996Y207468D01*
X19924Y207304D01*
X20741Y207776D01*
X21063Y208661D01*
X21063Y303150D02*
X20741Y304035D01*
X19924Y304507D01*
X18996Y304343D01*
X18390Y303621D01*
Y302678D01*
X18996Y301956D01*
X19924Y301793D01*
X20741Y302264D01*
X21063Y303150D01*
X21063Y472441D02*
X20741Y473327D01*
X19924Y473798D01*
X18996Y473634D01*
X18390Y472912D01*
Y471970D01*
X18996Y471248D01*
X19924Y471084D01*
X20741Y471555D01*
X21063Y472441D01*
X255378Y557000D02*
X255056Y557886D01*
X254239Y558357D01*
X253311Y558193D01*
X252705Y557471D01*
Y556529D01*
X253311Y555807D01*
X254239Y555643D01*
X255056Y556114D01*
X255378Y557000D01*
X237878Y557500D02*
X237556Y558386D01*
X236739Y558857D01*
X235811Y558693D01*
X235205Y557971D01*
Y557029D01*
X235811Y556307D01*
X236739Y556143D01*
X237556Y556614D01*
X237878Y557500D01*
X164378Y544500D02*
X164056Y545386D01*
X163239Y545857D01*
X162311Y545693D01*
X161705Y544971D01*
Y544029D01*
X162311Y543307D01*
X163239Y543143D01*
X164056Y543614D01*
X164378Y544500D01*
X54378Y43000D02*
X54056Y43886D01*
X53239Y44357D01*
X52311Y44193D01*
X51705Y43471D01*
Y42529D01*
X52311Y41807D01*
X53239Y41643D01*
X54056Y42114D01*
X54378Y43000D01*
X145128Y453500D02*
X144806Y454386D01*
X143990Y454857D01*
X143061Y454693D01*
X142455Y453971D01*
Y453029D01*
X143061Y452307D01*
X143990Y452143D01*
X144806Y452614D01*
X145128Y453500D01*
X181378Y453500D02*
X181056Y454386D01*
X180239Y454857D01*
X179311Y454693D01*
X178705Y453971D01*
Y453029D01*
X179311Y452307D01*
X180239Y452143D01*
X181056Y452614D01*
X181378Y453500D01*
X163253Y453500D02*
X162931Y454386D01*
X162114Y454857D01*
X161186Y454693D01*
X160580Y453971D01*
Y453029D01*
X161186Y452307D01*
X162114Y452143D01*
X162931Y452614D01*
X163253Y453500D01*
X170378Y490500D02*
X170056Y491386D01*
X169239Y491857D01*
X168311Y491693D01*
X167705Y490971D01*
Y490029D01*
X168311Y489307D01*
X169239Y489143D01*
X170056Y489614D01*
X170378Y490500D01*
X127003Y453500D02*
X126681Y454386D01*
X125864Y454857D01*
X124936Y454693D01*
X124330Y453971D01*
Y453029D01*
X124936Y452307D01*
X125864Y452143D01*
X126681Y452614D01*
X127003Y453500D01*
X71378Y127000D02*
X71056Y127886D01*
X70239Y128357D01*
X69311Y128193D01*
X68705Y127471D01*
Y126529D01*
X69311Y125807D01*
X70239Y125643D01*
X71056Y126114D01*
X71378Y127000D01*
X54378Y72833D02*
X54056Y73719D01*
X53239Y74190D01*
X52311Y74027D01*
X51705Y73305D01*
Y72362D01*
X52311Y71640D01*
X53239Y71476D01*
X54056Y71948D01*
X54378Y72833D01*
Y102667D02*
X54056Y103552D01*
X53239Y104024D01*
X52311Y103860D01*
X51705Y103138D01*
Y102195D01*
X52311Y101473D01*
X53239Y101310D01*
X54056Y101781D01*
X54378Y102667D01*
Y132500D02*
X54056Y133386D01*
X53239Y133857D01*
X52311Y133693D01*
X51705Y132971D01*
Y132029D01*
X52311Y131307D01*
X53239Y131143D01*
X54056Y131614D01*
X54378Y132500D01*
X233378Y489500D02*
X233056Y490386D01*
X232239Y490857D01*
X231311Y490693D01*
X230705Y489971D01*
Y489029D01*
X231311Y488307D01*
X232239Y488143D01*
X233056Y488614D01*
X233378Y489500D01*
X209878Y489500D02*
X209556Y490386D01*
X208739Y490857D01*
X207811Y490693D01*
X207205Y489971D01*
Y489029D01*
X207811Y488307D01*
X208739Y488143D01*
X209556Y488614D01*
X209878Y489500D01*
X72036Y473500D02*
X71713Y474386D01*
X70897Y474857D01*
X69969Y474693D01*
X69363Y473971D01*
Y473029D01*
X69969Y472307D01*
X70897Y472143D01*
X71713Y472614D01*
X72036Y473500D01*
X150878Y490500D02*
X150556Y491386D01*
X149739Y491857D01*
X148811Y491693D01*
X148205Y490971D01*
Y490029D01*
X148811Y489307D01*
X149739Y489143D01*
X150556Y489614D01*
X150878Y490500D01*
X56532Y212000D02*
X60469D01*
X58500Y210031D02*
Y213968D01*
X48476Y157264D02*
Y197028D01*
X71311D01*
Y157264D02*
Y197028D01*
X48476Y157264D02*
X71311D01*
X107500Y451532D02*
Y455469D01*
X105532Y453500D02*
X109469D01*
X118976Y502000D02*
X122913D01*
X120945Y500032D02*
Y503969D01*
X191500Y489032D02*
Y492969D01*
X189532Y491000D02*
X193469D01*
X92032Y235500D02*
X95969D01*
X94000Y233532D02*
Y237469D01*
X145032Y235500D02*
X148969D01*
X147000Y233532D02*
Y237469D01*
X251032Y235500D02*
X254969D01*
X253000Y233532D02*
Y237469D01*
X198032Y235500D02*
X201969D01*
X200000Y233532D02*
Y237469D01*
X17717Y110000D02*
X21654D01*
X19685Y108031D02*
Y111968D01*
X17717Y208661D02*
X21654D01*
X19685Y206693D02*
Y210630D01*
X17717Y303150D02*
X21654D01*
X19685Y301181D02*
Y305118D01*
Y470473D02*
Y474410D01*
X17717Y472441D02*
X21654D01*
X254000Y555032D02*
Y558969D01*
X252031Y557000D02*
X255968D01*
X236500Y555532D02*
Y559469D01*
X234531Y557500D02*
X238468D01*
X163000Y542532D02*
Y546469D01*
X161031Y544500D02*
X164968D01*
X51031Y43000D02*
X54968D01*
X53000Y41031D02*
Y44968D01*
X141782Y453500D02*
X145719D01*
X143750Y451531D02*
Y455468D01*
X178032Y453500D02*
X181969D01*
X180000Y451532D02*
Y455469D01*
X159907Y453500D02*
X163844D01*
X161875Y451532D02*
Y455469D01*
X169000Y488532D02*
Y492469D01*
X167032Y490500D02*
X170969D01*
X125625Y451532D02*
Y455469D01*
X123657Y453500D02*
X127594D01*
X70000Y125031D02*
Y128968D01*
X68031Y127000D02*
X71968D01*
X51032Y72833D02*
X54969D01*
X53000Y70865D02*
Y74802D01*
X51032Y102667D02*
X54969D01*
X53000Y100698D02*
Y104635D01*
X51032Y132500D02*
X54969D01*
X53000Y130532D02*
Y134469D01*
X230032Y489500D02*
X233969D01*
X232000Y487532D02*
Y491469D01*
X206532Y489500D02*
X210469D01*
X208500Y487532D02*
Y491469D01*
X68689Y473500D02*
X72626D01*
X70658Y471532D02*
Y475469D01*
X147532Y490500D02*
X151469D01*
X149500Y488532D02*
Y492469D01*
M02*
