G04*
G04 #@! TF.GenerationSoftware,Altium Limited,Altium Designer,22.3.1 (43)*
G04*
G04 Layer_Color=32896*
%FSLAX25Y25*%
%MOIN*%
G70*
G04*
G04 #@! TF.SameCoordinates,5406EE39-799D-43BB-BE37-E4F8AF43DF71*
G04*
G04*
G04 #@! TF.FilePolarity,Positive*
G04*
G01*
G75*
%ADD91C,0.02362*%
G36*
X339500Y431605D02*
Y418892D01*
Y418500D01*
X231009D01*
X231016Y418507D01*
X231031Y418522D01*
X231053Y418552D01*
X231083Y418589D01*
X231127Y418633D01*
X231171Y418685D01*
X231231Y418744D01*
X231297Y418811D01*
X231453Y418944D01*
X231630Y419092D01*
X231830Y419233D01*
X232059Y419366D01*
X232052D01*
X232045Y419373D01*
X232000Y419388D01*
X231934Y419425D01*
X231837Y419469D01*
X231719Y419529D01*
X231586Y419603D01*
X231430Y419699D01*
X231253Y419802D01*
X231068Y419921D01*
X230861Y420061D01*
X230646Y420217D01*
X230424Y420394D01*
X230195Y420579D01*
X229958Y420794D01*
X229714Y421023D01*
X229469Y421268D01*
X229218Y421534D01*
X228974Y421823D01*
X228737Y422133D01*
X228500Y422459D01*
X228271Y422814D01*
X228049Y423184D01*
X227834Y423584D01*
X227634Y423998D01*
X227449Y424442D01*
X227279Y424908D01*
X227131Y425397D01*
X226998Y425915D01*
X226887Y426455D01*
X226798Y427017D01*
X226739Y427609D01*
X226702Y428231D01*
X229588Y428150D01*
X229714D01*
X229773Y428142D01*
X229854D01*
X229936Y428135D01*
X230032Y428127D01*
X230135Y428120D01*
X230246Y428113D01*
X230483Y428083D01*
X230735Y428046D01*
X230994Y427994D01*
X231053Y429015D01*
X231038D01*
X231009Y429008D01*
X230949Y428993D01*
X230883Y428986D01*
X230801Y428971D01*
X230713Y428956D01*
X230535Y428949D01*
X230461D01*
X230417Y428941D01*
X229965D01*
X229876Y428949D01*
X229780D01*
X226672Y429015D01*
Y429023D01*
Y429045D01*
Y429089D01*
Y429141D01*
Y429208D01*
Y429289D01*
Y429385D01*
Y429482D01*
X226680Y429593D01*
Y429718D01*
Y429844D01*
Y429985D01*
X226687Y430273D01*
X226694Y430577D01*
X226702Y430895D01*
X226709Y431206D01*
X226717Y431524D01*
X226731Y431820D01*
X226739Y432101D01*
X226746Y432234D01*
X226754Y432353D01*
X226761Y432471D01*
X226768Y432575D01*
X226783Y432671D01*
X226791Y432752D01*
X225562Y432575D01*
X225555D01*
X225525Y432567D01*
X225488Y432560D01*
X225451Y432545D01*
X225407Y432530D01*
X225377Y432508D01*
X225348Y432479D01*
X225340Y432442D01*
Y432427D01*
X225348Y432412D01*
X225355Y432382D01*
X225377Y432345D01*
X225422Y432301D01*
X225473Y432249D01*
X225547Y432183D01*
X225555Y432175D01*
X225570Y432146D01*
X225599Y432094D01*
X225629Y432020D01*
X225644Y431968D01*
X225658Y431909D01*
X225673Y431850D01*
X225688Y431776D01*
X225695Y431694D01*
X225703Y431598D01*
X225710Y431502D01*
X225718Y431391D01*
Y431376D01*
Y431339D01*
Y431280D01*
Y431198D01*
Y431095D01*
Y430976D01*
X225725Y430836D01*
Y430680D01*
Y430510D01*
X225732Y430333D01*
X225740Y430133D01*
Y429933D01*
X225747Y429718D01*
X225755Y429496D01*
X225777Y429030D01*
X221566Y429149D01*
X221440D01*
X221374Y429156D01*
X221204D01*
X221107Y429163D01*
X221004Y429171D01*
X220893Y429178D01*
X220656Y429200D01*
X220412Y429230D01*
X220160Y429267D01*
Y429245D01*
X220168Y429223D01*
Y429200D01*
X220175Y429163D01*
X220182Y429112D01*
Y429052D01*
X220190Y428986D01*
X220197Y428904D01*
X220212Y428808D01*
X220219Y428697D01*
X220227Y428564D01*
X220242Y428423D01*
X220249Y428261D01*
X220264Y428083D01*
X220279Y427876D01*
X220293Y427654D01*
X220308Y427410D01*
X220323Y427143D01*
X220345Y426855D01*
X220360Y426536D01*
X220382Y426196D01*
X220397Y425826D01*
X220419Y425426D01*
X220434Y425219D01*
X220441Y425005D01*
X220456Y424783D01*
X220464Y424546D01*
X220478Y424309D01*
X220493Y424065D01*
X220501Y423806D01*
X220515Y423547D01*
X220530Y423273D01*
X220545Y422992D01*
X220552Y422703D01*
X220567Y422407D01*
X220582Y422104D01*
X220597Y421786D01*
Y421778D01*
Y421763D01*
Y421741D01*
Y421704D01*
X220604Y421660D01*
Y421608D01*
Y421549D01*
X220612Y421482D01*
X220619Y421327D01*
X220634Y421157D01*
X220656Y420972D01*
X220686Y420779D01*
X220715Y420579D01*
X220760Y420380D01*
X220804Y420180D01*
X220863Y420002D01*
X220930Y419832D01*
X221004Y419684D01*
X221048Y419625D01*
X221093Y419566D01*
X221144Y419521D01*
X221196Y419477D01*
X221204Y419469D01*
X221218Y419455D01*
X221248Y419432D01*
X221300Y419395D01*
X221366Y419358D01*
X221455Y419314D01*
X221566Y419262D01*
X221699Y419218D01*
X221862Y419159D01*
X221958Y419136D01*
X222055Y419107D01*
X222166Y419085D01*
X222284Y419055D01*
X222402Y419033D01*
X222536Y419011D01*
X222684Y418988D01*
X222832Y418966D01*
X222994Y418944D01*
X223165Y418922D01*
X223342Y418907D01*
X223535Y418892D01*
X223734Y418877D01*
X223949Y418863D01*
Y418870D01*
Y418892D01*
X223956Y418922D01*
Y418966D01*
X223964Y419018D01*
X223971Y419085D01*
X223986Y419159D01*
X224001Y419240D01*
X224023Y419329D01*
X224045Y419432D01*
X224112Y419647D01*
X224201Y419884D01*
X224260Y420010D01*
X224319Y420135D01*
X224312D01*
X224282Y420128D01*
X224245Y420121D01*
X224186Y420113D01*
X224119Y420098D01*
X224045Y420091D01*
X223956Y420076D01*
X223860Y420061D01*
X223660Y420032D01*
X223438Y420010D01*
X223216Y419995D01*
X223009Y419987D01*
X222950D01*
X222876Y419995D01*
X222787Y420002D01*
X222676Y420017D01*
X222558Y420039D01*
X222432Y420069D01*
X222299Y420106D01*
X222166Y420158D01*
X222032Y420224D01*
X221914Y420306D01*
X221810Y420394D01*
X221714Y420505D01*
X221648Y420639D01*
X221596Y420787D01*
X221588Y420868D01*
X221581Y420957D01*
Y420972D01*
X221574Y421009D01*
Y421075D01*
X221566Y421164D01*
X221559Y421275D01*
X221551Y421408D01*
X221537Y421556D01*
X221529Y421734D01*
X221514Y421919D01*
X221500Y422126D01*
X221485Y422348D01*
X221470Y422585D01*
X221455Y422829D01*
X221440Y423088D01*
X221426Y423362D01*
X221403Y423643D01*
X221389Y423932D01*
X221374Y424228D01*
X221337Y424827D01*
X221307Y425449D01*
X221278Y426070D01*
X221248Y426684D01*
X221226Y427284D01*
X221218Y427580D01*
X221211Y427861D01*
X221204Y428135D01*
X221196Y428401D01*
X225792Y428275D01*
Y428268D01*
Y428253D01*
Y428231D01*
Y428201D01*
X225799Y428164D01*
Y428113D01*
X225806Y428053D01*
X225814Y427987D01*
X225821Y427920D01*
X225829Y427839D01*
X225843Y427654D01*
X225873Y427447D01*
X225903Y427210D01*
X225947Y426951D01*
X225999Y426670D01*
X226058Y426366D01*
X226132Y426048D01*
X226213Y425708D01*
X226302Y425352D01*
X226413Y424990D01*
X226532Y424612D01*
X226665Y424228D01*
X226820Y423835D01*
X226983Y423436D01*
X227168Y423029D01*
X227368Y422622D01*
X227590Y422215D01*
X227834Y421808D01*
X228093Y421408D01*
X228374Y421009D01*
X228678Y420616D01*
X229003Y420232D01*
X229351Y419862D01*
X229728Y419499D01*
X230128Y419151D01*
X230557Y418818D01*
X231009Y418500D01*
X127682D01*
Y418818D01*
Y431761D01*
X127690Y431731D01*
X127697Y431687D01*
Y431635D01*
X127705Y431576D01*
X127712Y431509D01*
X127719Y431428D01*
X127727Y431339D01*
X127734Y431243D01*
X127742Y431139D01*
X127749Y431028D01*
X127764Y430784D01*
X127771Y430525D01*
Y420957D01*
Y420942D01*
Y420905D01*
Y420846D01*
Y420772D01*
X127779Y420676D01*
X127786Y420572D01*
X127801Y420461D01*
X127823Y420335D01*
X127853Y420209D01*
X127890Y420084D01*
X127934Y419958D01*
X127993Y419832D01*
X128060Y419721D01*
X128141Y419617D01*
X128230Y419521D01*
X128341Y419447D01*
X128348Y419440D01*
X128371Y419432D01*
X128408Y419410D01*
X128459Y419381D01*
X128533Y419344D01*
X128630Y419307D01*
X128741Y419262D01*
X128881Y419210D01*
X129044Y419166D01*
X129236Y419114D01*
X129451Y419062D01*
X129569Y419033D01*
X129695Y419011D01*
X129836Y418981D01*
X129976Y418959D01*
X130124Y418929D01*
X130287Y418907D01*
X130450Y418885D01*
X130628Y418863D01*
X130813Y418840D01*
X131005Y418818D01*
Y418826D01*
Y418848D01*
Y418885D01*
X131012Y418937D01*
X131020Y418996D01*
X131027Y419062D01*
X131042Y419144D01*
X131057Y419233D01*
X131101Y419425D01*
X131168Y419632D01*
X131264Y419847D01*
X131316Y419958D01*
X131382Y420061D01*
X131353D01*
X131308Y420054D01*
X131264D01*
X131197Y420047D01*
X131131Y420039D01*
X131049Y420032D01*
X130961D01*
X130768Y420017D01*
X130568Y420002D01*
X130369Y419995D01*
X130065D01*
X130006Y420002D01*
X129939D01*
X129791Y420010D01*
X129629Y420024D01*
X129466Y420047D01*
X129310Y420076D01*
X129244Y420098D01*
X129185Y420121D01*
X129177D01*
X129162Y420128D01*
X129133Y420143D01*
X129096Y420158D01*
X129059Y420180D01*
X129007Y420217D01*
X128963Y420254D01*
X128911Y420298D01*
X128859Y420357D01*
X128815Y420417D01*
X128770Y420498D01*
X128726Y420579D01*
X128696Y420676D01*
X128674Y420787D01*
X128659Y420905D01*
Y421038D01*
Y430932D01*
X137739D01*
X137820Y430925D01*
X137902D01*
X137991Y430917D01*
X138190Y430910D01*
X138398Y430895D01*
X138605Y430865D01*
X138790Y430836D01*
Y431783D01*
X138775D01*
X138745Y431776D01*
X138716Y431768D01*
X138671Y431761D01*
X138620Y431753D01*
X138560Y431746D01*
X138486Y431739D01*
X138405Y431731D01*
X138316Y431724D01*
X138213Y431716D01*
X138102Y431709D01*
X137983Y431702D01*
X137843D01*
X137702Y431694D01*
X128763D01*
X128689Y431702D01*
X128607D01*
X128511Y431709D01*
X128311Y431716D01*
X128097Y431731D01*
X127882Y431753D01*
X127682Y431783D01*
Y432952D01*
X180592D01*
X179334Y432708D01*
X179327D01*
X179305Y432701D01*
X179275Y432693D01*
X179238Y432686D01*
X179201Y432671D01*
X179164Y432649D01*
X179142Y432634D01*
X179127Y432604D01*
Y432590D01*
X179135Y432575D01*
X179149Y432553D01*
X179172Y432523D01*
X179201Y432493D01*
X179238Y432456D01*
X179297Y432412D01*
X179312Y432405D01*
X179349Y432375D01*
X179401Y432338D01*
X179460Y432271D01*
X179527Y432197D01*
X179593Y432094D01*
X179653Y431983D01*
X179697Y431842D01*
Y431835D01*
X179704Y431813D01*
X179712Y431783D01*
X179727Y431746D01*
X179734Y431687D01*
X179756Y431628D01*
X179771Y431561D01*
X179793Y431487D01*
X179838Y431317D01*
X179897Y431139D01*
X179949Y430947D01*
X180008Y430762D01*
X174066D01*
X173999Y430769D01*
X173925D01*
X173844Y430777D01*
X173747D01*
X173644Y430784D01*
X173533Y430791D01*
X173422Y430799D01*
X173163Y430821D01*
X172882Y430851D01*
Y429896D01*
X172889D01*
X172911Y429903D01*
X172956D01*
X173007Y429911D01*
X173074Y429918D01*
X173148Y429933D01*
X173229Y429940D01*
X173326Y429948D01*
X173533Y429970D01*
X173762Y429985D01*
X173992Y429992D01*
X180259D01*
X180267Y429985D01*
X180274Y429948D01*
X180304Y429896D01*
X180333Y429829D01*
X180370Y429748D01*
X180422Y429644D01*
X180474Y429533D01*
X180533Y429408D01*
X180607Y429267D01*
X180681Y429126D01*
X180763Y428971D01*
X180851Y428808D01*
X181044Y428475D01*
X181251Y428135D01*
X176352D01*
X176249Y428142D01*
X176130Y428150D01*
X176004D01*
X175871Y428157D01*
X175731Y428172D01*
X175435Y428194D01*
X175124Y428231D01*
Y428224D01*
X175131Y428187D01*
Y428142D01*
X175139Y428076D01*
X175146Y427994D01*
X175153Y427898D01*
X175161Y427794D01*
X175168Y427676D01*
X175183Y427558D01*
X175190Y427424D01*
X175205Y427158D01*
X175213Y426892D01*
X175220Y426633D01*
Y420180D01*
Y420172D01*
Y420143D01*
Y420098D01*
Y420032D01*
X175227Y419965D01*
X175235Y419884D01*
X175257Y419699D01*
X175301Y419506D01*
X175331Y419410D01*
X175368Y419321D01*
X175412Y419240D01*
X175472Y419166D01*
X175531Y419099D01*
X175605Y419048D01*
X175612D01*
X175620Y419033D01*
X175642Y419018D01*
X175679Y419003D01*
X175731Y418981D01*
X175790Y418951D01*
X175871Y418922D01*
X175967Y418885D01*
X176086Y418855D01*
X176226Y418818D01*
X176382Y418781D01*
X176567Y418744D01*
X176774Y418707D01*
X177011Y418670D01*
X177270Y418633D01*
X177418Y418618D01*
X177566Y418604D01*
Y418611D01*
Y418633D01*
X177573Y418670D01*
X177581Y418722D01*
X177588Y418781D01*
X177603Y418848D01*
X177618Y418929D01*
X177640Y419018D01*
X177692Y419210D01*
X177758Y419425D01*
X177847Y419647D01*
X177965Y419876D01*
X177936D01*
X177899Y419869D01*
X177847Y419862D01*
X177788Y419854D01*
X177721Y419847D01*
X177647Y419839D01*
X177566Y419832D01*
X177388Y419817D01*
X177203Y419802D01*
X177018Y419795D01*
X176855Y419788D01*
X176752D01*
X176693Y419795D01*
X176552Y419810D01*
X176485Y419817D01*
X176426Y419832D01*
X176419D01*
X176411Y419839D01*
X176374Y419854D01*
X176323Y419884D01*
X176256Y419943D01*
X176197Y420017D01*
X176175Y420069D01*
X176145Y420121D01*
X176130Y420187D01*
X176115Y420261D01*
X176108Y420343D01*
Y420431D01*
Y422355D01*
X181554D01*
Y420135D01*
Y420128D01*
Y420113D01*
Y420076D01*
Y420032D01*
Y419980D01*
X181547Y419913D01*
Y419839D01*
X181540Y419751D01*
Y419654D01*
X181532Y419543D01*
X181525Y419425D01*
X181510Y419299D01*
X181503Y419166D01*
X181488Y419018D01*
X181473Y418870D01*
X181458Y418707D01*
X182539D01*
Y418715D01*
X182531Y418744D01*
Y418789D01*
X182524Y418848D01*
X182516Y418922D01*
X182509Y419011D01*
X182502Y419107D01*
X182487Y419210D01*
X182472Y419432D01*
X182457Y419669D01*
X182450Y419913D01*
X182442Y420135D01*
Y426544D01*
X182457Y426529D01*
X182494Y426485D01*
X182561Y426418D01*
X182650Y426329D01*
X182761Y426218D01*
X182901Y426085D01*
X183057Y425937D01*
X183242Y425774D01*
X183441Y425597D01*
X183663Y425404D01*
X183900Y425197D01*
X184159Y424990D01*
X184433Y424775D01*
X184729Y424553D01*
X185032Y424324D01*
X185358Y424102D01*
X185365Y424109D01*
X185373Y424124D01*
X185395Y424146D01*
X185425Y424183D01*
X185462Y424220D01*
X185506Y424272D01*
X185558Y424331D01*
X185624Y424390D01*
X185765Y424531D01*
X185935Y424679D01*
X186135Y424842D01*
X186357Y425005D01*
X186350Y425012D01*
X186320Y425027D01*
X186268Y425049D01*
X186202Y425079D01*
X186120Y425123D01*
X186017Y425175D01*
X185906Y425234D01*
X185772Y425308D01*
X185639Y425389D01*
X185484Y425478D01*
X185321Y425582D01*
X185151Y425693D01*
X184966Y425811D01*
X184781Y425937D01*
X184588Y426078D01*
X184389Y426226D01*
X184181Y426388D01*
X183974Y426559D01*
X183767Y426736D01*
X183552Y426929D01*
X183345Y427121D01*
X183131Y427336D01*
X182923Y427550D01*
X182716Y427787D01*
X182516Y428024D01*
X182317Y428275D01*
X182124Y428534D01*
X181939Y428808D01*
X181769Y429089D01*
X181599Y429378D01*
X181443Y429681D01*
X181295Y429992D01*
X184966D01*
X185018Y429985D01*
X185084D01*
X185158Y429977D01*
X185240D01*
X185328Y429970D01*
X185425Y429963D01*
X185536Y429955D01*
X185654Y429940D01*
X185780Y429926D01*
X185913Y429911D01*
X186054Y429896D01*
Y430851D01*
X186024D01*
X185987Y430843D01*
X185935Y430836D01*
X185876Y430828D01*
X185802Y430821D01*
X185721Y430814D01*
X185632Y430806D01*
X185447Y430791D01*
X185240Y430777D01*
X185040Y430769D01*
X184840Y430762D01*
X181036D01*
X181029Y430777D01*
X181022Y430806D01*
X180999Y430865D01*
X180977Y430939D01*
X180948Y431028D01*
X180918Y431147D01*
X180881Y431272D01*
X180844Y431413D01*
X180807Y431568D01*
X180763Y431739D01*
X180726Y431916D01*
X180696Y432109D01*
X180659Y432308D01*
X180629Y432516D01*
X180592Y432952D01*
X339500D01*
Y431605D01*
D02*
G37*
G36*
X181554Y425634D02*
X176108D01*
Y427365D01*
X181554D01*
Y425634D01*
D02*
G37*
G36*
Y423118D02*
X176108D01*
Y424871D01*
X181554D01*
Y423118D01*
D02*
G37*
G36*
X256184Y396619D02*
X256170D01*
X256151Y396615D01*
X256133Y396611D01*
X256114Y396604D01*
X256096Y396597D01*
X256084Y396585D01*
X256077Y396574D01*
Y396567D01*
Y396560D01*
X256081Y396549D01*
X256088Y396534D01*
X256103Y396515D01*
X256118Y396493D01*
X256144Y396463D01*
X256151Y396456D01*
X256166Y396438D01*
X256184Y396408D01*
X256210Y396360D01*
X256236Y396301D01*
X256247Y396267D01*
X256255Y396227D01*
X256266Y396182D01*
X256269Y396138D01*
X256277Y396086D01*
Y396030D01*
Y395424D01*
X254390D01*
X254349Y395427D01*
X254301D01*
X254253Y395431D01*
X254197Y395435D01*
X254134Y395439D01*
X254068Y395446D01*
X253998Y395450D01*
X253920Y395461D01*
X253838Y395468D01*
Y395464D01*
Y395450D01*
X253842Y395427D01*
X253846Y395398D01*
X253850Y395361D01*
X253853Y395320D01*
X253857Y395272D01*
X253861Y395224D01*
X253868Y395113D01*
X253875Y394998D01*
X253879Y394887D01*
X253883Y394835D01*
Y394787D01*
Y392301D01*
Y392297D01*
Y392286D01*
Y392271D01*
Y392249D01*
Y392219D01*
X253879Y392182D01*
Y392145D01*
X253875Y392097D01*
Y392049D01*
X253872Y391994D01*
X253868Y391935D01*
X253864Y391872D01*
X253861Y391801D01*
X253853Y391731D01*
X253838Y391579D01*
X253842D01*
X253857Y391583D01*
X253875D01*
X253901Y391587D01*
X253935Y391590D01*
X253975Y391594D01*
X254020Y391598D01*
X254068Y391605D01*
X254175Y391613D01*
X254294Y391620D01*
X254412Y391624D01*
X254534Y391628D01*
X256277D01*
Y390603D01*
Y390595D01*
Y390580D01*
X256280Y390554D01*
Y390525D01*
Y390521D01*
Y390506D01*
X256277Y390480D01*
X256269Y390451D01*
X256258Y390418D01*
X256240Y390377D01*
X256218Y390336D01*
X256188Y390292D01*
X256147Y390251D01*
X256099Y390210D01*
X256036Y390173D01*
X255966Y390140D01*
X255881Y390114D01*
X255833Y390103D01*
X255781Y390096D01*
X255726Y390092D01*
X255666Y390088D01*
X255600Y390085D01*
X255533Y390088D01*
X254234D01*
X254194Y390092D01*
X254142D01*
X254086Y390099D01*
X254027Y390103D01*
X253964Y390114D01*
X253831Y390136D01*
X253765Y390155D01*
X253702Y390177D01*
X253642Y390199D01*
X253587Y390229D01*
X253539Y390262D01*
X253502Y390303D01*
X253498Y390307D01*
X253494Y390314D01*
X253483Y390325D01*
X253468Y390344D01*
X253454Y390366D01*
X253432Y390399D01*
X253413Y390436D01*
X253391Y390484D01*
X253369Y390540D01*
X253346Y390603D01*
X253324Y390677D01*
X253302Y390758D01*
X253284Y390850D01*
X253265Y390954D01*
X253250Y391069D01*
X253239Y391195D01*
X253235Y391191D01*
X253228Y391183D01*
X253217Y391172D01*
X253198Y391158D01*
X253176Y391139D01*
X253150Y391121D01*
X253117Y391098D01*
X253084Y391073D01*
X253006Y391017D01*
X252917Y390965D01*
X252821Y390910D01*
X252717Y390865D01*
Y390862D01*
X252721Y390858D01*
X252725Y390847D01*
X252729Y390832D01*
X252740Y390795D01*
X252758Y390743D01*
X252780Y390684D01*
X252806Y390617D01*
X252836Y390543D01*
X252873Y390466D01*
X252951Y390303D01*
X252991Y390222D01*
X253036Y390147D01*
X253084Y390073D01*
X253135Y390011D01*
X253187Y389955D01*
X253239Y389911D01*
X253243Y389907D01*
X253250Y389900D01*
X253269Y389892D01*
X253291Y389877D01*
X253321Y389859D01*
X253358Y389840D01*
X253402Y389822D01*
X253457Y389803D01*
X253517Y389781D01*
X253587Y389763D01*
X253668Y389744D01*
X253757Y389729D01*
X253857Y389718D01*
X253964Y389707D01*
X254083Y389703D01*
X255707D01*
X255737Y389707D01*
X255770D01*
X255811Y389711D01*
X255892Y389718D01*
X255988Y389733D01*
X256088Y389755D01*
X256192Y389785D01*
X256295Y389822D01*
X256392Y389870D01*
X256484Y389933D01*
X256562Y390007D01*
X256599Y390048D01*
X256628Y390096D01*
X256654Y390144D01*
X256676Y390199D01*
X256691Y390259D01*
X256702Y390318D01*
X256710Y390388D01*
X256706Y390458D01*
Y391628D01*
X258345D01*
X258382Y391624D01*
X258426D01*
X258471Y391620D01*
X258526D01*
X258582Y391616D01*
X258645Y391613D01*
X258708Y391609D01*
X258848Y391594D01*
X259000Y391579D01*
Y389703D01*
Y389500D01*
X235461D01*
Y389504D01*
Y389518D01*
X235457Y389541D01*
X235453Y389574D01*
Y389611D01*
X235450Y389652D01*
X235446Y389700D01*
X235442Y389752D01*
X235435Y389866D01*
X235427Y389985D01*
X235420Y390107D01*
X235416Y390218D01*
Y394173D01*
X235420Y394166D01*
X235431Y394147D01*
X235450Y394118D01*
X235475Y394077D01*
X235509Y394029D01*
X235546Y393970D01*
X235586Y393903D01*
X235634Y393829D01*
X235686Y393748D01*
X235746Y393663D01*
X235805Y393574D01*
X235868Y393478D01*
X236001Y393281D01*
X236141Y393082D01*
X236145Y393085D01*
X236153Y393089D01*
X236164Y393096D01*
X236182Y393111D01*
X236201Y393126D01*
X236230Y393141D01*
X236260Y393163D01*
X236297Y393181D01*
X236337Y393207D01*
X236382Y393233D01*
X236434Y393259D01*
X236486Y393285D01*
X236545Y393315D01*
X236608Y393344D01*
X236674Y393374D01*
X236748Y393404D01*
X236744Y393407D01*
X236733Y393415D01*
X236719Y393429D01*
X236693Y393448D01*
X236667Y393474D01*
X236630Y393507D01*
X236589Y393544D01*
X236545Y393588D01*
X236497Y393640D01*
X236441Y393696D01*
X236386Y393759D01*
X236323Y393825D01*
X236260Y393903D01*
X236190Y393984D01*
X236119Y394073D01*
X236045Y394166D01*
X235971Y394269D01*
X235894Y394377D01*
X235816Y394491D01*
X235738Y394617D01*
X235657Y394743D01*
X235575Y394880D01*
X235494Y395024D01*
X235413Y395176D01*
X235331Y395335D01*
X235250Y395498D01*
X235172Y395672D01*
X235094Y395853D01*
X235017Y396038D01*
X234943Y396234D01*
X234872Y396438D01*
X234802Y396648D01*
X234225Y396389D01*
X234221D01*
X234214Y396386D01*
X234195Y396371D01*
X234177Y396352D01*
X234173Y396341D01*
Y396330D01*
X234177Y396326D01*
X234184Y396312D01*
X234195Y396301D01*
X234210Y396289D01*
X234228Y396275D01*
X234254Y396260D01*
X234258D01*
X234262Y396252D01*
X234273Y396245D01*
X234284Y396238D01*
X234302Y396223D01*
X234321Y396204D01*
X234343Y396182D01*
X234365Y396156D01*
X234391Y396127D01*
X234417Y396090D01*
X234447Y396053D01*
X234476Y396008D01*
X234506Y395960D01*
X234536Y395905D01*
X234565Y395846D01*
X234595Y395783D01*
X234598Y395775D01*
X234606Y395760D01*
X234617Y395731D01*
X234632Y395694D01*
X234654Y395649D01*
X234676Y395598D01*
X234702Y395542D01*
X234728Y395483D01*
X234791Y395350D01*
X234854Y395216D01*
X234887Y395154D01*
X234920Y395091D01*
X234954Y395031D01*
X234983Y394980D01*
Y390218D01*
Y390214D01*
Y390207D01*
Y390192D01*
X234980Y390173D01*
Y390147D01*
Y390118D01*
X234976Y390081D01*
Y390040D01*
X234972Y389992D01*
X234968Y389940D01*
X234965Y389881D01*
X234961Y389814D01*
X234957Y389744D01*
X234950Y389670D01*
X234946Y389589D01*
X234939Y389500D01*
X233873D01*
Y389504D01*
X233870Y389518D01*
Y389537D01*
X233866Y389563D01*
X233862Y389596D01*
X233858Y389637D01*
X233855Y389678D01*
X233851Y389726D01*
X233844Y389829D01*
X233836Y389940D01*
X233829Y390051D01*
X233825Y390159D01*
Y391335D01*
Y391339D01*
Y391346D01*
Y391357D01*
Y391376D01*
X233829Y391398D01*
Y391428D01*
X233833Y391461D01*
Y391502D01*
X233836Y391546D01*
X233840Y391594D01*
X233844Y391650D01*
X233847Y391709D01*
X233855Y391775D01*
X233858Y391849D01*
X233866Y391927D01*
X233873Y392009D01*
X233847D01*
X233822Y392005D01*
X233785Y392001D01*
X233740Y391998D01*
X233688Y391994D01*
X233633Y391990D01*
X233574Y391986D01*
X233448Y391979D01*
X233326Y391972D01*
X233266Y391968D01*
X233215D01*
X233167Y391964D01*
X230895D01*
X230865Y391968D01*
X230828D01*
X230784Y391972D01*
X230732D01*
X230677Y391975D01*
X230614Y391979D01*
X230543Y391983D01*
X230466Y391986D01*
X230381Y391994D01*
X230292Y392001D01*
X230192Y392009D01*
Y392005D01*
Y391994D01*
X230195Y391975D01*
X230199Y391949D01*
Y391916D01*
X230203Y391879D01*
X230207Y391835D01*
X230210Y391790D01*
X230214Y391739D01*
X230218Y391683D01*
X230225Y391568D01*
X230233Y391450D01*
X230236Y391328D01*
Y390203D01*
Y390196D01*
Y390184D01*
Y390170D01*
Y390151D01*
X230233Y390125D01*
Y390096D01*
X230229Y390062D01*
Y390018D01*
X230225Y389974D01*
X230221Y389918D01*
X230218Y389859D01*
X230214Y389792D01*
X230207Y389718D01*
X230199Y389641D01*
X230192Y389552D01*
X230710D01*
Y389556D01*
X230706Y389567D01*
Y389581D01*
X230702Y389604D01*
X230699Y389630D01*
X230695Y389659D01*
X230688Y389729D01*
X230680Y389811D01*
X230673Y389892D01*
X230665Y389970D01*
Y390040D01*
X233396D01*
Y390033D01*
Y390022D01*
Y390011D01*
Y389992D01*
X233392Y389970D01*
Y389944D01*
Y389914D01*
X233389Y389877D01*
Y389837D01*
X233385Y389796D01*
X233381Y389744D01*
X233378Y389692D01*
X233370Y389633D01*
X233366Y389570D01*
X233359Y389500D01*
X214104D01*
Y389559D01*
Y396641D01*
Y396696D01*
X232445D01*
X232438Y396693D01*
X232419Y396674D01*
X232386Y396652D01*
X232342Y396619D01*
X232290Y396578D01*
X232227Y396530D01*
X232156Y396475D01*
X232079Y396412D01*
X231994Y396349D01*
X231901Y396278D01*
X231809Y396204D01*
X231709Y396127D01*
X231505Y395968D01*
X231302Y395805D01*
X231653Y395416D01*
X230129D01*
X230099Y395420D01*
X230066D01*
X230029Y395424D01*
X229985D01*
X229933Y395427D01*
X229877Y395431D01*
X229818Y395435D01*
X229751Y395439D01*
X229681Y395446D01*
X229604Y395453D01*
X229522Y395461D01*
Y394987D01*
X229541D01*
X229567Y394991D01*
X229596Y394994D01*
X229633D01*
X229678Y394998D01*
X229726Y395002D01*
X229777Y395006D01*
X229885Y395013D01*
X229996Y395020D01*
X230103Y395028D01*
X230147Y395031D01*
X233932D01*
X233958Y395028D01*
X234025D01*
X234066Y395024D01*
X234110Y395020D01*
X234158Y395017D01*
X234210Y395013D01*
X234265Y395009D01*
X234325Y395002D01*
X234391Y394994D01*
X234458Y394987D01*
Y395461D01*
X234443D01*
X234425Y395457D01*
X234399Y395453D01*
X234369D01*
X234336Y395450D01*
X234295Y395446D01*
X234254Y395442D01*
X234162Y395435D01*
X234066Y395427D01*
X233966Y395420D01*
X233873Y395416D01*
X231713D01*
X231720Y395420D01*
X231735Y395439D01*
X231764Y395461D01*
X231801Y395494D01*
X231849Y395535D01*
X231905Y395583D01*
X231972Y395638D01*
X232042Y395697D01*
X232123Y395764D01*
X232208Y395834D01*
X232297Y395908D01*
X232390Y395986D01*
X232489Y396068D01*
X232593Y396153D01*
X232804Y396319D01*
X232445Y396696D01*
X256750D01*
X256184Y396619D01*
D02*
G37*
G36*
X258523Y393725D02*
X256706D01*
Y395039D01*
X258523D01*
Y393725D01*
D02*
G37*
G36*
X256277D02*
X254312D01*
Y395039D01*
X256277D01*
Y393725D01*
D02*
G37*
G36*
X258523Y392009D02*
X256706D01*
Y393344D01*
X258523D01*
Y392009D01*
D02*
G37*
G36*
X256277D02*
X254312D01*
Y393344D01*
X256277D01*
Y392009D01*
D02*
G37*
G36*
X259000Y391583D02*
X258996Y391598D01*
Y391624D01*
X258993Y391653D01*
X258989Y391694D01*
X258985Y391739D01*
X258981Y391787D01*
X258974Y391842D01*
X258967Y391957D01*
X258959Y392079D01*
X258956Y392197D01*
X258952Y392256D01*
Y392308D01*
Y394702D01*
Y394706D01*
Y394717D01*
Y394739D01*
Y394765D01*
Y394795D01*
X258956Y394835D01*
Y394880D01*
X258959Y394932D01*
Y394983D01*
X258963Y395043D01*
X258967Y395106D01*
X258970Y395172D01*
X258985Y395316D01*
X259000Y395468D01*
X258978D01*
X258956Y395464D01*
X258922Y395461D01*
X258885Y395457D01*
X258841Y395453D01*
X258789Y395450D01*
X258737Y395446D01*
X258623Y395439D01*
X258504Y395431D01*
X258389Y395427D01*
X258334Y395424D01*
X256706D01*
Y395982D01*
Y395986D01*
Y395997D01*
Y396012D01*
Y396034D01*
Y396060D01*
X256710Y396097D01*
Y396134D01*
Y396179D01*
X256713Y396227D01*
X256717Y396282D01*
X256721Y396341D01*
X256725Y396404D01*
X256728Y396471D01*
X256736Y396541D01*
X256743Y396619D01*
X256750Y396696D01*
X259000D01*
Y391583D01*
D02*
G37*
G36*
X233396Y390410D02*
X230665D01*
Y391579D01*
X233396D01*
Y390410D01*
D02*
G37*
%LPC*%
G36*
X200091Y432234D02*
X200084D01*
X200062Y432227D01*
X200032D01*
X199995Y432220D01*
X199943Y432212D01*
X199884Y432197D01*
X199744Y432183D01*
X199581Y432160D01*
X199411Y432146D01*
X199226Y432138D01*
X196377D01*
X196310Y432146D01*
X196147Y432153D01*
X195962Y432175D01*
X195762Y432197D01*
X195555Y432234D01*
Y432227D01*
X195563Y432212D01*
Y432183D01*
X195570Y432138D01*
X195577Y432086D01*
X195592Y432035D01*
X195600Y431968D01*
X195607Y431894D01*
X195629Y431724D01*
X195644Y431546D01*
X195651Y431354D01*
Y431154D01*
Y429474D01*
Y429467D01*
Y429452D01*
Y429430D01*
Y429393D01*
Y429348D01*
Y429297D01*
Y429237D01*
X195644Y429171D01*
X195637Y429008D01*
X195614Y428830D01*
X195592Y428623D01*
X195555Y428401D01*
X195563D01*
X195585Y428409D01*
X195614D01*
X195666Y428416D01*
X195718Y428423D01*
X195785Y428431D01*
X195851Y428446D01*
X195933Y428453D01*
X196103Y428468D01*
X196288Y428483D01*
X196473Y428490D01*
X199270D01*
X199337Y428483D01*
X199492Y428475D01*
X199670Y428460D01*
X199869Y428438D01*
X200091Y428401D01*
Y428409D01*
X200084Y428423D01*
Y428446D01*
X200069Y428483D01*
X200062Y428520D01*
X200054Y428571D01*
X200032Y428690D01*
X200017Y428838D01*
X199995Y428993D01*
X199988Y429171D01*
Y429348D01*
Y431287D01*
Y431295D01*
Y431302D01*
Y431324D01*
Y431354D01*
Y431398D01*
Y431443D01*
X199995Y431554D01*
X200010Y431694D01*
X200025Y431850D01*
X200054Y432035D01*
X200091Y432234D01*
D02*
G37*
G36*
X194031D02*
X194023D01*
X194001Y432227D01*
X193972D01*
X193927Y432220D01*
X193875Y432212D01*
X193816Y432197D01*
X193676Y432183D01*
X193520Y432160D01*
X193350Y432146D01*
X193187Y432138D01*
X190257D01*
X190198Y432146D01*
X190057Y432153D01*
X189887Y432175D01*
X189694Y432197D01*
X189480Y432234D01*
Y432227D01*
X189487Y432212D01*
Y432183D01*
X189495Y432146D01*
X189502Y432094D01*
X189517Y432035D01*
X189524Y431968D01*
X189532Y431901D01*
X189554Y431739D01*
X189569Y431554D01*
X189576Y431369D01*
Y431169D01*
Y429393D01*
Y429385D01*
Y429371D01*
Y429348D01*
Y429319D01*
Y429274D01*
Y429230D01*
Y429171D01*
X189569Y429112D01*
X189561Y428964D01*
X189539Y428793D01*
X189517Y428608D01*
X189480Y428401D01*
X189487D01*
X189502Y428409D01*
X189539D01*
X189576Y428416D01*
X189628Y428423D01*
X189687Y428431D01*
X189754Y428446D01*
X189828Y428453D01*
X189990Y428468D01*
X190168Y428483D01*
X190353Y428490D01*
X193246D01*
X193313Y428483D01*
X193461Y428475D01*
X193631Y428460D01*
X193824Y428438D01*
X194031Y428401D01*
Y428409D01*
X194023Y428423D01*
Y428446D01*
X194016Y428483D01*
X194009Y428520D01*
X193994Y428571D01*
X193979Y428690D01*
X193957Y428830D01*
X193942Y428986D01*
X193935Y429149D01*
Y429319D01*
Y431250D01*
Y431258D01*
Y431272D01*
Y431295D01*
Y431332D01*
Y431376D01*
Y431420D01*
X193942Y431546D01*
X193949Y431694D01*
X193972Y431857D01*
X193994Y432042D01*
X194031Y432234D01*
D02*
G37*
G36*
X317648Y432049D02*
X317640D01*
X317618Y432042D01*
X317589D01*
X317552Y432035D01*
X317500Y432027D01*
X317441Y432020D01*
X317374Y432012D01*
X317300Y431998D01*
X317137Y431983D01*
X316960Y431968D01*
X316775Y431961D01*
X312357D01*
X312290Y431968D01*
X312127Y431975D01*
X311942Y431990D01*
X311757Y432012D01*
X311558Y432049D01*
Y432042D01*
X311565Y432027D01*
Y431998D01*
X311572Y431961D01*
X311580Y431916D01*
X311595Y431864D01*
X311609Y431731D01*
X311632Y431583D01*
X311646Y431413D01*
X311654Y431235D01*
Y431050D01*
Y427661D01*
Y427654D01*
Y427639D01*
Y427609D01*
Y427572D01*
Y427521D01*
Y427461D01*
Y427402D01*
X311646Y427328D01*
X311639Y427165D01*
X311617Y426980D01*
X311595Y426788D01*
X311558Y426588D01*
X311565D01*
X311587Y426596D01*
X311617D01*
X311661Y426603D01*
X311713Y426610D01*
X311772Y426618D01*
X311846Y426633D01*
X311920Y426640D01*
X312083Y426655D01*
X312261Y426670D01*
X312438Y426677D01*
X315975D01*
X315428Y426374D01*
X315420Y426366D01*
X315398Y426359D01*
X315369Y426337D01*
X315339Y426322D01*
X315302Y426292D01*
X315280Y426270D01*
X315258Y426240D01*
Y426218D01*
Y426203D01*
X315265Y426189D01*
X315280Y426174D01*
X315309Y426152D01*
X315339Y426129D01*
X315391Y426100D01*
X315457Y426078D01*
X315465D01*
X315487Y426063D01*
X315524Y426048D01*
X315568Y426026D01*
X315665Y425974D01*
X315709Y425937D01*
X315746Y425900D01*
X315753Y425885D01*
X315776Y425856D01*
X315813Y425796D01*
X315857Y425730D01*
X315924Y425641D01*
X315990Y425545D01*
X316064Y425441D01*
X316153Y425330D01*
X311654D01*
X311572Y425338D01*
X311491D01*
X311402Y425345D01*
X311195Y425360D01*
X310973Y425382D01*
X310721Y425419D01*
Y425404D01*
X310729Y425382D01*
X310736Y425352D01*
X310744Y425278D01*
X310758Y425175D01*
X310773Y425056D01*
X310788Y424916D01*
X310803Y424768D01*
X310810Y424612D01*
X310980Y421068D01*
Y421060D01*
Y421053D01*
Y421031D01*
Y421001D01*
X310988Y420920D01*
Y420816D01*
X311003Y420690D01*
X311010Y420550D01*
X311025Y420394D01*
X311047Y420239D01*
X311099Y419913D01*
X311136Y419751D01*
X311180Y419603D01*
X311232Y419469D01*
X311284Y419351D01*
X311350Y419255D01*
X311387Y419218D01*
X311424Y419188D01*
Y419181D01*
X311439Y419173D01*
X311461Y419151D01*
X311498Y419129D01*
X311543Y419092D01*
X311609Y419055D01*
X311683Y419018D01*
X311787Y418974D01*
X311905Y418929D01*
X312053Y418877D01*
X312224Y418833D01*
X312416Y418789D01*
X312527Y418759D01*
X312638Y418737D01*
X312764Y418715D01*
X312897Y418700D01*
X313038Y418678D01*
X313186Y418655D01*
X313341Y418633D01*
X313504Y418618D01*
Y418626D01*
X313511Y418641D01*
Y418670D01*
X313519Y418715D01*
X313533Y418766D01*
X313548Y418826D01*
X313570Y418892D01*
X313593Y418966D01*
X313659Y419144D01*
X313748Y419336D01*
X313807Y419432D01*
X313866Y419543D01*
X313933Y419647D01*
X314014Y419758D01*
X314007D01*
X313985Y419751D01*
X313948D01*
X313896Y419743D01*
X313837Y419728D01*
X313763Y419721D01*
X313689Y419714D01*
X313600Y419699D01*
X313415Y419677D01*
X313215Y419662D01*
X313015Y419647D01*
X312830Y419640D01*
X312771D01*
X312712Y419647D01*
X312638D01*
X312549Y419654D01*
X312468Y419669D01*
X312386Y419684D01*
X312312Y419706D01*
X312305D01*
X312290Y419714D01*
X312268Y419721D01*
X312246Y419736D01*
X312172Y419788D01*
X312127Y419817D01*
X312090Y419862D01*
X312046Y419906D01*
X312002Y419965D01*
X311965Y420032D01*
X311928Y420106D01*
X311898Y420195D01*
X311876Y420291D01*
X311861Y420402D01*
X311854Y420520D01*
X311639Y424568D01*
X312682D01*
Y424553D01*
X312690Y424524D01*
X312705Y424472D01*
X312719Y424398D01*
X312742Y424302D01*
X312779Y424191D01*
X312816Y424065D01*
X312860Y423917D01*
X312912Y423761D01*
X312971Y423584D01*
X313038Y423406D01*
X313119Y423206D01*
X313208Y422999D01*
X313304Y422785D01*
X313408Y422563D01*
X313526Y422333D01*
X313659Y422096D01*
X313800Y421852D01*
X313955Y421608D01*
X314118Y421364D01*
X314303Y421112D01*
X314495Y420861D01*
X314703Y420609D01*
X314917Y420365D01*
X315154Y420121D01*
X315406Y419876D01*
X315672Y419640D01*
X315953Y419403D01*
X316257Y419181D01*
X316575Y418966D01*
X316908Y418759D01*
X317256Y418559D01*
Y418567D01*
X317270Y418581D01*
X317293Y418604D01*
X317315Y418641D01*
X317352Y418685D01*
X317396Y418729D01*
X317441Y418781D01*
X317500Y418840D01*
X317566Y418900D01*
X317648Y418959D01*
X317729Y419018D01*
X317818Y419077D01*
X317922Y419129D01*
X318033Y419188D01*
X318151Y419233D01*
X318277Y419277D01*
X318269Y419284D01*
X318232Y419292D01*
X318181Y419307D01*
X318114Y419336D01*
X318025Y419373D01*
X317929Y419410D01*
X317811Y419462D01*
X317677Y419529D01*
X317537Y419595D01*
X317381Y419677D01*
X317219Y419765D01*
X317041Y419869D01*
X316863Y419980D01*
X316671Y420106D01*
X316479Y420239D01*
X316286Y420380D01*
X316086Y420542D01*
X315879Y420713D01*
X315679Y420890D01*
X315472Y421090D01*
X315272Y421297D01*
X315073Y421519D01*
X314880Y421756D01*
X314695Y422008D01*
X314510Y422274D01*
X314333Y422555D01*
X314170Y422851D01*
X314007Y423162D01*
X313866Y423488D01*
X313733Y423835D01*
X313607Y424191D01*
X313504Y424568D01*
X314599D01*
Y424561D01*
X314606Y424546D01*
X314621Y424524D01*
X314636Y424487D01*
X314658Y424442D01*
X314688Y424390D01*
X314717Y424331D01*
X314754Y424257D01*
X314799Y424183D01*
X314851Y424094D01*
X314962Y423902D01*
X315095Y423687D01*
X315250Y423443D01*
X315428Y423184D01*
X315628Y422903D01*
X315857Y422607D01*
X316109Y422296D01*
X316382Y421978D01*
X316678Y421652D01*
X317004Y421319D01*
X317359Y420986D01*
X317367Y420994D01*
X317374Y421009D01*
X317396Y421031D01*
X317426Y421068D01*
X317470Y421105D01*
X317515Y421149D01*
X317574Y421201D01*
X317633Y421253D01*
X317707Y421312D01*
X317781Y421364D01*
X317959Y421475D01*
X318166Y421578D01*
X318284Y421615D01*
X318403Y421652D01*
X318395D01*
X318380Y421660D01*
X318358Y421675D01*
X318321Y421689D01*
X318277Y421712D01*
X318225Y421741D01*
X318166Y421771D01*
X318099Y421808D01*
X317944Y421897D01*
X317766Y422008D01*
X317566Y422148D01*
X317352Y422311D01*
X317122Y422496D01*
X316886Y422703D01*
X316634Y422947D01*
X316390Y423214D01*
X316138Y423502D01*
X316020Y423665D01*
X315901Y423828D01*
X315783Y424006D01*
X315665Y424183D01*
X315554Y424368D01*
X315443Y424568D01*
X316738D01*
Y424561D01*
X316752Y424553D01*
X316767Y424531D01*
X316789Y424501D01*
X316819Y424464D01*
X316856Y424413D01*
X316952Y424309D01*
X317071Y424168D01*
X317211Y424013D01*
X317374Y423835D01*
X317559Y423643D01*
X317566Y423650D01*
X317574Y423658D01*
X317596Y423680D01*
X317626Y423702D01*
X317663Y423732D01*
X317714Y423769D01*
X317766Y423806D01*
X317825Y423850D01*
X317899Y423895D01*
X317973Y423939D01*
X318062Y423983D01*
X318158Y424028D01*
X318255Y424072D01*
X318366Y424117D01*
X318602Y424191D01*
X318595D01*
X318588Y424198D01*
X318565Y424213D01*
X318536Y424228D01*
X318462Y424279D01*
X318366Y424353D01*
X318247Y424442D01*
X318107Y424546D01*
X317951Y424679D01*
X317781Y424827D01*
X317603Y424990D01*
X317418Y425175D01*
X317233Y425382D01*
X317041Y425604D01*
X316856Y425841D01*
X316671Y426100D01*
X316493Y426381D01*
X316331Y426677D01*
X316641D01*
X316730Y426670D01*
X316826D01*
X316930Y426662D01*
X317152Y426647D01*
X317396Y426625D01*
X317648Y426588D01*
Y426596D01*
X317640Y426610D01*
Y426640D01*
X317633Y426677D01*
X317626Y426721D01*
X317618Y426781D01*
X317596Y426906D01*
X317581Y427054D01*
X317566Y427225D01*
X317559Y427395D01*
Y427565D01*
Y431036D01*
Y431043D01*
Y431058D01*
Y431087D01*
Y431117D01*
Y431169D01*
Y431221D01*
Y431280D01*
X317566Y431346D01*
X317574Y431494D01*
X317589Y431672D01*
X317611Y431857D01*
X317648Y432049D01*
D02*
G37*
G36*
X170491Y431857D02*
X170454D01*
X170410Y431850D01*
X170358Y431842D01*
X170284Y431835D01*
X170210Y431827D01*
X170114Y431820D01*
X170018Y431813D01*
X169803Y431798D01*
X169566Y431783D01*
X169330Y431776D01*
X169100Y431768D01*
X166806D01*
X166732Y431776D01*
X166651D01*
X166555Y431783D01*
X166458D01*
X166347Y431790D01*
X166125Y431805D01*
X165881Y431827D01*
X165630Y431857D01*
Y431850D01*
X165644Y431827D01*
X165659Y431790D01*
X165689Y431739D01*
X165718Y431672D01*
X165755Y431591D01*
X165800Y431502D01*
X165852Y431398D01*
X165903Y431287D01*
X165963Y431169D01*
X166029Y431036D01*
X166096Y430895D01*
X166170Y430747D01*
X166244Y430592D01*
X166407Y430266D01*
X166577Y429918D01*
X166754Y429556D01*
X166939Y429186D01*
X167124Y428808D01*
X167317Y428431D01*
X167502Y428068D01*
X167679Y427713D01*
X167857Y427380D01*
X167850Y427373D01*
X167835Y427365D01*
X167813Y427343D01*
X167783Y427321D01*
X167739Y427284D01*
X167694Y427239D01*
X167576Y427143D01*
X167443Y427010D01*
X167295Y426855D01*
X167124Y426677D01*
X166954Y426485D01*
X166784Y426263D01*
X166621Y426026D01*
X166458Y425767D01*
X166318Y425493D01*
X166185Y425204D01*
X166088Y424908D01*
X166044Y424753D01*
X166007Y424598D01*
X165985Y424435D01*
X165970Y424272D01*
Y424265D01*
Y424257D01*
Y424235D01*
X165963Y424205D01*
Y424131D01*
Y424028D01*
Y424020D01*
Y424006D01*
Y423983D01*
X165970Y423946D01*
Y423902D01*
X165977Y423850D01*
X165992Y423791D01*
X166007Y423724D01*
X166044Y423569D01*
X166103Y423399D01*
X166185Y423214D01*
X166236Y423118D01*
X166288Y423021D01*
X166355Y422918D01*
X166429Y422822D01*
X166510Y422718D01*
X166606Y422622D01*
X166703Y422526D01*
X166814Y422429D01*
X166939Y422333D01*
X167073Y422244D01*
X167213Y422163D01*
X167369Y422082D01*
X167539Y422000D01*
X167724Y421934D01*
X167916Y421867D01*
X168123Y421815D01*
X168353Y421763D01*
X168590Y421726D01*
Y421734D01*
X168597Y421756D01*
X168604Y421786D01*
X168612Y421830D01*
X168634Y421882D01*
X168649Y421948D01*
X168671Y422015D01*
X168701Y422096D01*
X168767Y422281D01*
X168849Y422489D01*
X168945Y422711D01*
X169063Y422940D01*
X169041D01*
X169019Y422933D01*
X168989D01*
X168915Y422925D01*
X168812Y422910D01*
X168701Y422903D01*
X168582Y422888D01*
X168464Y422881D01*
X168286D01*
X168212Y422888D01*
X168123Y422896D01*
X168012Y422918D01*
X167887Y422940D01*
X167761Y422977D01*
X167620Y423021D01*
X167487Y423081D01*
X167354Y423155D01*
X167228Y423243D01*
X167117Y423354D01*
X167013Y423480D01*
X166939Y423628D01*
X166888Y423798D01*
X166865Y423895D01*
X166858Y423998D01*
Y424006D01*
Y424020D01*
Y424043D01*
X166865Y424080D01*
X166873Y424124D01*
X166880Y424183D01*
X166888Y424242D01*
X166902Y424316D01*
X166917Y424390D01*
X166932Y424479D01*
X166984Y424664D01*
X167050Y424879D01*
X167139Y425116D01*
X167243Y425360D01*
X167383Y425619D01*
X167457Y425752D01*
X167546Y425893D01*
X167642Y426026D01*
X167739Y426166D01*
X167850Y426307D01*
X167968Y426440D01*
X168101Y426581D01*
X168234Y426714D01*
X168382Y426855D01*
X168538Y426988D01*
X168708Y427121D01*
X168886Y427247D01*
Y427254D01*
X168871Y427269D01*
X168856Y427291D01*
X168841Y427328D01*
X168812Y427365D01*
X168782Y427417D01*
X168752Y427476D01*
X168715Y427550D01*
X168671Y427624D01*
X168619Y427706D01*
X168575Y427802D01*
X168516Y427898D01*
X168405Y428120D01*
X168271Y428364D01*
X168138Y428631D01*
X167990Y428919D01*
X167842Y429230D01*
X167687Y429556D01*
X167531Y429903D01*
X167376Y430259D01*
X167221Y430629D01*
X167073Y431006D01*
X169544D01*
Y419995D01*
Y419987D01*
Y419965D01*
Y419928D01*
Y419884D01*
Y419825D01*
X169537Y419751D01*
Y419669D01*
X169529Y419573D01*
Y419477D01*
X169522Y419366D01*
X169515Y419247D01*
X169507Y419122D01*
X169485Y418855D01*
X169455Y418574D01*
X170491D01*
Y418581D01*
X170484Y418604D01*
Y418641D01*
X170477Y418692D01*
X170469Y418759D01*
X170462Y418833D01*
X170454Y418914D01*
X170447Y419011D01*
X170440Y419114D01*
X170432Y419225D01*
X170417Y419462D01*
X170403Y419721D01*
Y419995D01*
Y430451D01*
Y430458D01*
Y430481D01*
Y430518D01*
Y430562D01*
Y430621D01*
X170410Y430688D01*
Y430769D01*
Y430865D01*
X170417Y430962D01*
X170425Y431073D01*
X170432Y431184D01*
X170440Y431309D01*
X170462Y431576D01*
X170491Y431857D01*
D02*
G37*
G36*
X165215Y431739D02*
X165186D01*
X165141Y431731D01*
X165089Y431724D01*
X165023Y431716D01*
X164949Y431709D01*
X164867Y431702D01*
X164771Y431694D01*
X164564Y431679D01*
X164335Y431665D01*
X164090Y431657D01*
X163854Y431650D01*
X159932D01*
X159865Y431657D01*
X159791D01*
X159710Y431665D01*
X159517Y431672D01*
X159317Y431687D01*
X159095Y431709D01*
X158881Y431739D01*
Y431731D01*
X158888Y431709D01*
Y431672D01*
X158896Y431628D01*
X158903Y431568D01*
X158910Y431502D01*
X158918Y431420D01*
X158925Y431339D01*
X158947Y431147D01*
X158962Y430939D01*
X158970Y430725D01*
X158977Y430510D01*
Y426470D01*
Y426462D01*
Y426448D01*
Y426418D01*
Y426381D01*
Y426329D01*
X158970Y426270D01*
Y426203D01*
X158962Y426129D01*
X158955Y425959D01*
X158933Y425759D01*
X158910Y425545D01*
X158881Y425315D01*
X158888D01*
X158910Y425323D01*
X158940D01*
X158984Y425330D01*
X159044Y425338D01*
X159110Y425345D01*
X159184Y425352D01*
X159266Y425360D01*
X159451Y425375D01*
X159658Y425389D01*
X159872Y425404D01*
X161856D01*
Y425389D01*
X161841Y425352D01*
X161833Y425286D01*
X161811Y425204D01*
X161782Y425101D01*
X161752Y424975D01*
X161708Y424834D01*
X161663Y424679D01*
X161611Y424509D01*
X161552Y424331D01*
X161478Y424146D01*
X161404Y423946D01*
X161315Y423747D01*
X161227Y423547D01*
X161123Y423340D01*
X161012Y423132D01*
X161005D01*
X160997Y423147D01*
X160975Y423162D01*
X160945Y423177D01*
X160908Y423206D01*
X160864Y423236D01*
X160753Y423310D01*
X160627Y423406D01*
X160479Y423517D01*
X160309Y423650D01*
X160131Y423791D01*
X159946Y423946D01*
X159747Y424109D01*
X159554Y424287D01*
X159354Y424472D01*
X159162Y424657D01*
X158977Y424857D01*
X158799Y425056D01*
X158637Y425256D01*
X157882Y424361D01*
X157874Y424353D01*
X157867Y424339D01*
X157830Y424294D01*
X157793Y424242D01*
X157786Y424213D01*
X157778Y424191D01*
Y424183D01*
X157793Y424161D01*
X157800Y424154D01*
X157808Y424146D01*
X157830Y424139D01*
X157860Y424124D01*
X157911Y424109D01*
X157971Y424102D01*
X158052Y424087D01*
X158067D01*
X158111Y424080D01*
X158170Y424057D01*
X158259Y424028D01*
X158363Y423991D01*
X158474Y423932D01*
X158600Y423858D01*
X158725Y423761D01*
X158740Y423754D01*
X158777Y423724D01*
X158829Y423680D01*
X158910Y423628D01*
X159007Y423562D01*
X159118Y423480D01*
X159243Y423391D01*
X159377Y423288D01*
X159517Y423184D01*
X159673Y423081D01*
X159983Y422851D01*
X160302Y422629D01*
X160450Y422518D01*
X160598Y422415D01*
Y422407D01*
X160583Y422392D01*
X160568Y422363D01*
X160546Y422326D01*
X160516Y422281D01*
X160479Y422230D01*
X160435Y422163D01*
X160390Y422096D01*
X160272Y421934D01*
X160124Y421749D01*
X159961Y421541D01*
X159761Y421327D01*
X159547Y421097D01*
X159303Y420868D01*
X159029Y420631D01*
X158733Y420402D01*
X158415Y420180D01*
X158067Y419973D01*
X157697Y419780D01*
X157305Y419610D01*
X157312Y419603D01*
X157334Y419595D01*
X157364Y419573D01*
X157408Y419543D01*
X157460Y419506D01*
X157527Y419469D01*
X157593Y419418D01*
X157675Y419358D01*
X157837Y419225D01*
X158015Y419070D01*
X158193Y418892D01*
X158363Y418692D01*
X158370Y418700D01*
X158400Y418722D01*
X158452Y418759D01*
X158511Y418811D01*
X158592Y418877D01*
X158688Y418966D01*
X158799Y419055D01*
X158918Y419166D01*
X159051Y419292D01*
X159192Y419425D01*
X159347Y419580D01*
X159510Y419743D01*
X159673Y419913D01*
X159850Y420106D01*
X160028Y420306D01*
X160205Y420520D01*
X160390Y420742D01*
X160583Y420979D01*
X160768Y421231D01*
X160953Y421490D01*
X161138Y421756D01*
X161315Y422045D01*
X161493Y422333D01*
X161671Y422637D01*
X161833Y422947D01*
X161996Y423273D01*
X162144Y423606D01*
X162285Y423946D01*
X162418Y424294D01*
X162536Y424657D01*
X162640Y425027D01*
X162736Y425404D01*
X164261D01*
Y420121D01*
X164246Y420128D01*
X164209Y420150D01*
X164150Y420180D01*
X164068Y420232D01*
X163972Y420291D01*
X163846Y420357D01*
X163706Y420446D01*
X163550Y420542D01*
X163380Y420646D01*
X163202Y420764D01*
X163003Y420898D01*
X162795Y421038D01*
X162573Y421194D01*
X162344Y421356D01*
X162115Y421527D01*
X161870Y421712D01*
Y421704D01*
Y421689D01*
Y421660D01*
Y421623D01*
X161863Y421571D01*
Y421512D01*
Y421453D01*
X161856Y421379D01*
X161841Y421208D01*
X161819Y421023D01*
X161789Y420824D01*
X161752Y420609D01*
X161759D01*
X161774Y420594D01*
X161796Y420579D01*
X161833Y420565D01*
X161878Y420535D01*
X161930Y420505D01*
X161989Y420476D01*
X162055Y420431D01*
X162218Y420343D01*
X162403Y420232D01*
X162610Y420106D01*
X162832Y419965D01*
X163069Y419817D01*
X163321Y419654D01*
X163587Y419484D01*
X163846Y419307D01*
X164379Y418929D01*
X164638Y418737D01*
X164890Y418544D01*
X165585Y419447D01*
X165578D01*
X165563Y419462D01*
X165541Y419477D01*
X165504Y419499D01*
X165467Y419529D01*
X165430Y419566D01*
X165385Y419610D01*
X165341Y419669D01*
X165297Y419743D01*
X165252Y419825D01*
X165215Y419913D01*
X165178Y420024D01*
X165149Y420143D01*
X165134Y420276D01*
X165126Y420431D01*
Y420594D01*
Y430362D01*
Y430370D01*
Y430392D01*
Y430421D01*
Y430466D01*
Y430525D01*
X165134Y430592D01*
Y430666D01*
Y430754D01*
X165141Y430851D01*
X165149Y430954D01*
X165156Y431065D01*
X165163Y431191D01*
X165186Y431450D01*
X165215Y431739D01*
D02*
G37*
G36*
X337976Y431605D02*
X337968D01*
X337953Y431598D01*
X337931D01*
X337894Y431591D01*
X337850Y431583D01*
X337798Y431568D01*
X337680Y431554D01*
X337539Y431531D01*
X337384Y431517D01*
X337213Y431509D01*
X328230D01*
X328111Y431517D01*
X327971Y431524D01*
X327808Y431546D01*
X327630Y431568D01*
X327438Y431605D01*
Y430621D01*
X327445D01*
X327460Y430629D01*
X327482D01*
X327519Y430636D01*
X327564Y430643D01*
X327608Y430658D01*
X327734Y430673D01*
X327875Y430695D01*
X328030Y430710D01*
X328193Y430717D01*
X332796D01*
Y430710D01*
Y430695D01*
Y430666D01*
Y430629D01*
Y430577D01*
X332803Y430525D01*
Y430458D01*
Y430377D01*
X332810Y430296D01*
Y430207D01*
X332818Y430000D01*
X332833Y429778D01*
X332847Y429526D01*
X332862Y429260D01*
X332877Y428978D01*
X332899Y428690D01*
X332921Y428394D01*
X332981Y427794D01*
X333018Y427498D01*
X333055Y427217D01*
X327046D01*
X326935Y427225D01*
X326794Y427232D01*
X326631Y427247D01*
X326446Y427269D01*
X326254Y427306D01*
Y426322D01*
X326261D01*
X326276Y426329D01*
X326306D01*
X326350Y426337D01*
X326395Y426344D01*
X326454Y426359D01*
X326580Y426374D01*
X326735Y426396D01*
X326898Y426411D01*
X327061Y426418D01*
X331538D01*
Y420986D01*
Y420979D01*
Y420964D01*
Y420935D01*
Y420890D01*
X331530Y420846D01*
Y420794D01*
X331508Y420683D01*
X331471Y420565D01*
X331419Y420454D01*
X331382Y420402D01*
X331338Y420365D01*
X331286Y420328D01*
X331227Y420306D01*
X331212Y420298D01*
X331190Y420291D01*
X331168Y420283D01*
X331123Y420276D01*
X331071Y420261D01*
X331005Y420246D01*
X330923Y420239D01*
X330820Y420224D01*
X330709Y420217D01*
X330568Y420202D01*
X330413Y420195D01*
X330235Y420187D01*
X330035Y420180D01*
X329207D01*
X329073Y420187D01*
X328933Y420195D01*
X328785Y420209D01*
X328474Y420239D01*
X328319Y420261D01*
X328178Y420291D01*
X328045Y420328D01*
X327934Y420372D01*
X327838Y420417D01*
X327764Y420476D01*
X327756D01*
X327749Y420491D01*
X327727Y420505D01*
X327697Y420535D01*
X327667Y420579D01*
X327630Y420631D01*
X327586Y420698D01*
X327542Y420779D01*
X327497Y420883D01*
X327445Y421001D01*
X327394Y421142D01*
X327342Y421297D01*
X327290Y421482D01*
X327238Y421689D01*
X327194Y421926D01*
X327149Y422185D01*
X327142Y422178D01*
X327127Y422163D01*
X327105Y422133D01*
X327068Y422096D01*
X327031Y422045D01*
X326979Y422000D01*
X326920Y421941D01*
X326861Y421889D01*
X326713Y421771D01*
X326543Y421667D01*
X326446Y421623D01*
X326350Y421586D01*
X326254Y421556D01*
X326150Y421541D01*
Y421534D01*
X326158Y421527D01*
X326165Y421504D01*
X326173Y421475D01*
X326195Y421393D01*
X326232Y421290D01*
X326276Y421171D01*
X326328Y421031D01*
X326395Y420883D01*
X326461Y420720D01*
X326617Y420394D01*
X326705Y420239D01*
X326802Y420091D01*
X326905Y419950D01*
X327001Y419832D01*
X327112Y419736D01*
X327223Y419662D01*
X327238Y419654D01*
X327283Y419625D01*
X327349Y419588D01*
X327453Y419543D01*
X327571Y419499D01*
X327719Y419447D01*
X327889Y419403D01*
X328082Y419366D01*
X328104D01*
X328134Y419358D01*
X328178Y419351D01*
X328230D01*
X328296Y419344D01*
X328370Y419336D01*
X328467Y419329D01*
X328570Y419321D01*
X328681Y419314D01*
X328814Y419307D01*
X328955D01*
X329110Y419299D01*
X329273Y419292D01*
X329947D01*
X330087Y419299D01*
X330250D01*
X330435Y419307D01*
X330620Y419314D01*
X331012Y419344D01*
X331205Y419358D01*
X331390Y419381D01*
X331560Y419410D01*
X331715Y419440D01*
X331841Y419477D01*
X331900Y419499D01*
X331945Y419521D01*
X331952D01*
X331967Y419529D01*
X331989Y419543D01*
X332026Y419566D01*
X332063Y419588D01*
X332107Y419625D01*
X332152Y419662D01*
X332204Y419714D01*
X332248Y419773D01*
X332292Y419847D01*
X332337Y419928D01*
X332366Y420024D01*
X332396Y420128D01*
X332418Y420246D01*
X332426Y420372D01*
Y420520D01*
Y426418D01*
X333195D01*
Y426403D01*
X333203Y426366D01*
X333217Y426300D01*
X333240Y426211D01*
X333262Y426107D01*
X333299Y425974D01*
X333343Y425819D01*
X333395Y425648D01*
X333454Y425463D01*
X333521Y425256D01*
X333602Y425042D01*
X333691Y424805D01*
X333795Y424553D01*
X333906Y424294D01*
X334031Y424028D01*
X334172Y423747D01*
X334320Y423458D01*
X334490Y423162D01*
X334668Y422859D01*
X334868Y422555D01*
X335082Y422237D01*
X335304Y421926D01*
X335548Y421608D01*
X335815Y421297D01*
X336096Y420979D01*
X336392Y420668D01*
X336710Y420357D01*
X337051Y420054D01*
X337406Y419751D01*
X337783Y419455D01*
X338183Y419173D01*
X338605Y418892D01*
Y418900D01*
X338619Y418922D01*
X338634Y418951D01*
X338664Y418996D01*
X338693Y419055D01*
X338730Y419114D01*
X338834Y419255D01*
X338960Y419410D01*
X339115Y419573D01*
X339293Y419728D01*
X339396Y419795D01*
X339500Y419862D01*
X339485Y419869D01*
X339456Y419876D01*
X339404Y419899D01*
X339330Y419936D01*
X339234Y419973D01*
X339123Y420024D01*
X338997Y420091D01*
X338856Y420158D01*
X338701Y420246D01*
X338538Y420343D01*
X338360Y420454D01*
X338168Y420579D01*
X337976Y420713D01*
X337768Y420861D01*
X337554Y421023D01*
X337339Y421208D01*
X337117Y421401D01*
X336895Y421608D01*
X336673Y421837D01*
X336444Y422074D01*
X336222Y422333D01*
X336000Y422614D01*
X335778Y422903D01*
X335563Y423221D01*
X335349Y423547D01*
X335149Y423895D01*
X334949Y424265D01*
X334764Y424657D01*
X334586Y425064D01*
X334416Y425493D01*
X334268Y425944D01*
X334128Y426418D01*
X338479D01*
X338538Y426411D01*
X338686Y426403D01*
X338856Y426381D01*
X339041Y426359D01*
X339248Y426322D01*
Y427306D01*
X339241D01*
X339226Y427299D01*
X339197D01*
X339167Y427291D01*
X339123Y427284D01*
X339071Y427276D01*
X338952Y427254D01*
X338812Y427239D01*
X338656Y427225D01*
X338494Y427217D01*
X333994D01*
Y427225D01*
Y427232D01*
X333987Y427254D01*
Y427284D01*
X333980Y427313D01*
X333972Y427358D01*
X333965Y427410D01*
X333957Y427469D01*
X333943Y427602D01*
X333920Y427772D01*
X333898Y427957D01*
X333876Y428179D01*
X333846Y428416D01*
X333824Y428682D01*
X333802Y428971D01*
X333772Y429282D01*
X333750Y429615D01*
X333735Y429963D01*
X333713Y430333D01*
X333698Y430717D01*
X337176D01*
X337287Y430710D01*
X337428Y430703D01*
X337583Y430680D01*
X337768Y430658D01*
X337976Y430621D01*
Y431605D01*
D02*
G37*
G36*
X290564Y432782D02*
X290556Y432775D01*
X290534Y432760D01*
X290505Y432730D01*
X290453Y432693D01*
X290394Y432641D01*
X290320Y432582D01*
X290238Y432508D01*
X290135Y432419D01*
X290024Y432323D01*
X289898Y432212D01*
X289765Y432094D01*
X289617Y431961D01*
X289454Y431813D01*
X289284Y431657D01*
X289099Y431487D01*
X288899Y431302D01*
X289513Y430651D01*
X287693D01*
X287663Y430658D01*
X287619D01*
X287567Y430666D01*
X287500D01*
X287426Y430673D01*
X287352Y430680D01*
X287256Y430688D01*
X287160Y430695D01*
X287049Y430703D01*
X286930Y430710D01*
X286805Y430725D01*
X286671Y430732D01*
X286523Y430747D01*
Y429792D01*
X286560D01*
X286597Y429800D01*
X286657Y429807D01*
X286723D01*
X286797Y429815D01*
X286886Y429822D01*
X286975Y429829D01*
X287167Y429844D01*
X287374Y429859D01*
X287567Y429874D01*
X287656Y429881D01*
X292044D01*
X292088Y429874D01*
X292214D01*
X292295Y429866D01*
X292392Y429859D01*
X292495Y429852D01*
X292614Y429844D01*
X292747Y429837D01*
X292895Y429822D01*
X293050Y429807D01*
X293228Y429792D01*
Y430747D01*
X293220D01*
X293191Y430740D01*
X293139D01*
X293080Y430732D01*
X293006Y430725D01*
X292917Y430717D01*
X292821Y430710D01*
X292725Y430703D01*
X292510Y430680D01*
X292295Y430666D01*
X292199Y430658D01*
X292103D01*
X292014Y430651D01*
X289661D01*
X289668Y430658D01*
X289691Y430680D01*
X289720Y430717D01*
X289765Y430769D01*
X289824Y430836D01*
X289898Y430917D01*
X289979Y431006D01*
X290075Y431102D01*
X290179Y431213D01*
X290297Y431324D01*
X290423Y431450D01*
X290556Y431583D01*
X290704Y431724D01*
X290867Y431864D01*
X291030Y432012D01*
X291208Y432168D01*
X290564Y432782D01*
D02*
G37*
G36*
X242175Y432908D02*
X241043Y432752D01*
X241013D01*
X240976Y432745D01*
X240939Y432738D01*
X240902Y432723D01*
X240865Y432708D01*
X240843Y432686D01*
X240828Y432664D01*
Y432649D01*
Y432634D01*
X240836Y432612D01*
X240851Y432582D01*
X240880Y432545D01*
X240910Y432501D01*
X240962Y432442D01*
X240976Y432427D01*
X241006Y432390D01*
X241043Y432331D01*
X241095Y432234D01*
X241147Y432116D01*
X241169Y432049D01*
X241184Y431968D01*
X241206Y431879D01*
X241213Y431790D01*
X241228Y431687D01*
Y431576D01*
Y430362D01*
X237454D01*
X237373Y430370D01*
X237276D01*
X237180Y430377D01*
X237069Y430384D01*
X236943Y430392D01*
X236810Y430407D01*
X236670Y430414D01*
X236514Y430436D01*
X236351Y430451D01*
Y430444D01*
Y430414D01*
X236359Y430370D01*
X236366Y430310D01*
X236374Y430236D01*
X236381Y430155D01*
X236388Y430059D01*
X236396Y429963D01*
X236411Y429741D01*
X236425Y429511D01*
X236433Y429289D01*
X236440Y429186D01*
Y429089D01*
Y424117D01*
Y424109D01*
Y424087D01*
Y424057D01*
Y424013D01*
Y423954D01*
X236433Y423880D01*
Y423806D01*
X236425Y423710D01*
Y423613D01*
X236418Y423502D01*
X236411Y423384D01*
X236403Y423258D01*
X236396Y423118D01*
X236381Y422977D01*
X236351Y422674D01*
X236359D01*
X236388Y422681D01*
X236425D01*
X236477Y422688D01*
X236544Y422696D01*
X236625Y422703D01*
X236714Y422711D01*
X236810Y422725D01*
X237025Y422740D01*
X237262Y422755D01*
X237498Y422762D01*
X237743Y422770D01*
X241228D01*
Y420720D01*
Y420705D01*
Y420676D01*
X241235Y420624D01*
Y420565D01*
Y420557D01*
Y420528D01*
X241228Y420476D01*
X241213Y420417D01*
X241191Y420350D01*
X241154Y420269D01*
X241110Y420187D01*
X241050Y420098D01*
X240969Y420017D01*
X240873Y419936D01*
X240747Y419862D01*
X240606Y419795D01*
X240436Y419743D01*
X240340Y419721D01*
X240236Y419706D01*
X240125Y419699D01*
X240007Y419691D01*
X239874Y419684D01*
X239741Y419691D01*
X237143D01*
X237062Y419699D01*
X236958D01*
X236847Y419714D01*
X236729Y419721D01*
X236603Y419743D01*
X236337Y419788D01*
X236203Y419825D01*
X236078Y419869D01*
X235959Y419913D01*
X235848Y419973D01*
X235752Y420039D01*
X235678Y420121D01*
X235671Y420128D01*
X235663Y420143D01*
X235641Y420165D01*
X235611Y420202D01*
X235582Y420246D01*
X235537Y420313D01*
X235500Y420387D01*
X235456Y420483D01*
X235412Y420594D01*
X235367Y420720D01*
X235323Y420868D01*
X235278Y421031D01*
X235241Y421216D01*
X235204Y421423D01*
X235175Y421652D01*
X235153Y421904D01*
X235145Y421897D01*
X235130Y421882D01*
X235108Y421860D01*
X235071Y421830D01*
X235027Y421793D01*
X234975Y421756D01*
X234908Y421712D01*
X234842Y421660D01*
X234686Y421549D01*
X234509Y421445D01*
X234316Y421334D01*
X234109Y421245D01*
Y421238D01*
X234117Y421231D01*
X234124Y421208D01*
X234131Y421179D01*
X234154Y421105D01*
X234191Y421001D01*
X234235Y420883D01*
X234287Y420750D01*
X234346Y420602D01*
X234420Y420446D01*
X234575Y420121D01*
X234657Y419958D01*
X234746Y419810D01*
X234842Y419662D01*
X234945Y419536D01*
X235049Y419425D01*
X235153Y419336D01*
X235160Y419329D01*
X235175Y419314D01*
X235212Y419299D01*
X235256Y419270D01*
X235315Y419233D01*
X235389Y419196D01*
X235478Y419159D01*
X235589Y419122D01*
X235708Y419077D01*
X235848Y419040D01*
X236011Y419003D01*
X236189Y418974D01*
X236388Y418951D01*
X236603Y418929D01*
X236840Y418922D01*
X240088D01*
X240148Y418929D01*
X240214D01*
X240296Y418937D01*
X240458Y418951D01*
X240651Y418981D01*
X240851Y419025D01*
X241058Y419085D01*
X241265Y419159D01*
X241457Y419255D01*
X241642Y419381D01*
X241798Y419529D01*
X241872Y419610D01*
X241931Y419706D01*
X241983Y419802D01*
X242027Y419913D01*
X242057Y420032D01*
X242079Y420150D01*
X242094Y420291D01*
X242086Y420431D01*
Y422770D01*
X245365D01*
X245439Y422762D01*
X245527D01*
X245616Y422755D01*
X245727D01*
X245838Y422748D01*
X245964Y422740D01*
X246090Y422733D01*
X246371Y422703D01*
X246674Y422674D01*
Y422681D01*
X246667Y422711D01*
Y422762D01*
X246660Y422822D01*
X246652Y422903D01*
X246645Y422992D01*
X246637Y423088D01*
X246623Y423199D01*
X246608Y423428D01*
X246593Y423673D01*
X246586Y423909D01*
X246578Y424028D01*
Y424131D01*
Y428919D01*
Y428927D01*
Y428949D01*
Y428993D01*
Y429045D01*
Y429104D01*
X246586Y429186D01*
Y429274D01*
X246593Y429378D01*
Y429482D01*
X246600Y429600D01*
X246608Y429726D01*
X246615Y429859D01*
X246645Y430148D01*
X246674Y430451D01*
X246630D01*
X246586Y430444D01*
X246519Y430436D01*
X246445Y430429D01*
X246356Y430421D01*
X246253Y430414D01*
X246149Y430407D01*
X245920Y430392D01*
X245683Y430377D01*
X245453Y430370D01*
X245342Y430362D01*
X242086D01*
Y431480D01*
Y431487D01*
Y431509D01*
Y431539D01*
Y431583D01*
Y431635D01*
X242094Y431709D01*
Y431783D01*
Y431872D01*
X242101Y431968D01*
X242109Y432079D01*
X242116Y432197D01*
X242123Y432323D01*
X242131Y432456D01*
X242146Y432597D01*
X242160Y432752D01*
X242175Y432908D01*
D02*
G37*
G36*
X211495D02*
X210363Y432752D01*
X210333D01*
X210296Y432745D01*
X210259Y432738D01*
X210222Y432723D01*
X210185Y432708D01*
X210163Y432686D01*
X210148Y432664D01*
Y432649D01*
Y432634D01*
X210155Y432612D01*
X210170Y432582D01*
X210200Y432545D01*
X210229Y432501D01*
X210281Y432442D01*
X210296Y432427D01*
X210326Y432390D01*
X210363Y432331D01*
X210414Y432234D01*
X210466Y432116D01*
X210488Y432049D01*
X210503Y431968D01*
X210525Y431879D01*
X210533Y431790D01*
X210548Y431687D01*
Y431576D01*
Y430362D01*
X206774D01*
X206692Y430370D01*
X206596D01*
X206500Y430377D01*
X206389Y430384D01*
X206263Y430392D01*
X206130Y430407D01*
X205989Y430414D01*
X205834Y430436D01*
X205671Y430451D01*
Y430444D01*
Y430414D01*
X205678Y430370D01*
X205686Y430310D01*
X205693Y430236D01*
X205701Y430155D01*
X205708Y430059D01*
X205715Y429963D01*
X205730Y429741D01*
X205745Y429511D01*
X205752Y429289D01*
X205760Y429186D01*
Y429089D01*
Y424117D01*
Y424109D01*
Y424087D01*
Y424057D01*
Y424013D01*
Y423954D01*
X205752Y423880D01*
Y423806D01*
X205745Y423710D01*
Y423613D01*
X205738Y423502D01*
X205730Y423384D01*
X205723Y423258D01*
X205715Y423118D01*
X205701Y422977D01*
X205671Y422674D01*
X205678D01*
X205708Y422681D01*
X205745D01*
X205797Y422688D01*
X205863Y422696D01*
X205945Y422703D01*
X206034Y422711D01*
X206130Y422725D01*
X206344Y422740D01*
X206581Y422755D01*
X206818Y422762D01*
X207062Y422770D01*
X210548D01*
Y420720D01*
Y420705D01*
Y420676D01*
X210555Y420624D01*
Y420565D01*
Y420557D01*
Y420528D01*
X210548Y420476D01*
X210533Y420417D01*
X210511Y420350D01*
X210474Y420269D01*
X210429Y420187D01*
X210370Y420098D01*
X210289Y420017D01*
X210192Y419936D01*
X210067Y419862D01*
X209926Y419795D01*
X209756Y419743D01*
X209660Y419721D01*
X209556Y419706D01*
X209445Y419699D01*
X209327Y419691D01*
X209193Y419684D01*
X209060Y419691D01*
X206463D01*
X206381Y419699D01*
X206278D01*
X206167Y419714D01*
X206048Y419721D01*
X205923Y419743D01*
X205656Y419788D01*
X205523Y419825D01*
X205397Y419869D01*
X205279Y419913D01*
X205168Y419973D01*
X205072Y420039D01*
X204998Y420121D01*
X204990Y420128D01*
X204983Y420143D01*
X204961Y420165D01*
X204931Y420202D01*
X204901Y420246D01*
X204857Y420313D01*
X204820Y420387D01*
X204776Y420483D01*
X204731Y420594D01*
X204687Y420720D01*
X204642Y420868D01*
X204598Y421031D01*
X204561Y421216D01*
X204524Y421423D01*
X204494Y421652D01*
X204472Y421904D01*
X204465Y421897D01*
X204450Y421882D01*
X204428Y421860D01*
X204391Y421830D01*
X204346Y421793D01*
X204295Y421756D01*
X204228Y421712D01*
X204161Y421660D01*
X204006Y421549D01*
X203828Y421445D01*
X203636Y421334D01*
X203429Y421245D01*
Y421238D01*
X203436Y421231D01*
X203444Y421208D01*
X203451Y421179D01*
X203473Y421105D01*
X203510Y421001D01*
X203555Y420883D01*
X203606Y420750D01*
X203666Y420602D01*
X203740Y420446D01*
X203895Y420121D01*
X203976Y419958D01*
X204065Y419810D01*
X204161Y419662D01*
X204265Y419536D01*
X204369Y419425D01*
X204472Y419336D01*
X204480Y419329D01*
X204494Y419314D01*
X204531Y419299D01*
X204576Y419270D01*
X204635Y419233D01*
X204709Y419196D01*
X204798Y419159D01*
X204909Y419122D01*
X205027Y419077D01*
X205168Y419040D01*
X205331Y419003D01*
X205508Y418974D01*
X205708Y418951D01*
X205923Y418929D01*
X206159Y418922D01*
X209408D01*
X209467Y418929D01*
X209534D01*
X209615Y418937D01*
X209778Y418951D01*
X209970Y418981D01*
X210170Y419025D01*
X210377Y419085D01*
X210585Y419159D01*
X210777Y419255D01*
X210962Y419381D01*
X211117Y419529D01*
X211191Y419610D01*
X211251Y419706D01*
X211302Y419802D01*
X211347Y419913D01*
X211376Y420032D01*
X211399Y420150D01*
X211413Y420291D01*
X211406Y420431D01*
Y422770D01*
X214684D01*
X214758Y422762D01*
X214847D01*
X214936Y422755D01*
X215047D01*
X215158Y422748D01*
X215284Y422740D01*
X215409Y422733D01*
X215691Y422703D01*
X215994Y422674D01*
Y422681D01*
X215987Y422711D01*
Y422762D01*
X215979Y422822D01*
X215972Y422903D01*
X215964Y422992D01*
X215957Y423088D01*
X215942Y423199D01*
X215927Y423428D01*
X215913Y423673D01*
X215905Y423909D01*
X215898Y424028D01*
Y424131D01*
Y428919D01*
Y428927D01*
Y428949D01*
Y428993D01*
Y429045D01*
Y429104D01*
X215905Y429186D01*
Y429274D01*
X215913Y429378D01*
Y429482D01*
X215920Y429600D01*
X215927Y429726D01*
X215935Y429859D01*
X215964Y430148D01*
X215994Y430451D01*
X215950D01*
X215905Y430444D01*
X215839Y430436D01*
X215765Y430429D01*
X215676Y430421D01*
X215572Y430414D01*
X215469Y430407D01*
X215239Y430392D01*
X215002Y430377D01*
X214773Y430370D01*
X214662Y430362D01*
X211406D01*
Y431480D01*
Y431487D01*
Y431509D01*
Y431539D01*
Y431583D01*
Y431635D01*
X211413Y431709D01*
Y431783D01*
Y431872D01*
X211421Y431968D01*
X211428Y432079D01*
X211436Y432197D01*
X211443Y432323D01*
X211450Y432456D01*
X211465Y432597D01*
X211480Y432752D01*
X211495Y432908D01*
D02*
G37*
G36*
X321570Y432708D02*
X320630Y432234D01*
X320623Y432227D01*
X320600Y432220D01*
X320571Y432197D01*
X320534Y432183D01*
X320504Y432153D01*
X320475Y432131D01*
X320452Y432101D01*
X320445Y432079D01*
Y432064D01*
X320452Y432049D01*
X320475Y432035D01*
X320497Y432012D01*
X320534Y431983D01*
X320586Y431961D01*
X320660Y431931D01*
X320667D01*
X320674Y431924D01*
X320719Y431901D01*
X320785Y431857D01*
X320867Y431798D01*
X320956Y431716D01*
X321052Y431613D01*
X321141Y431487D01*
X321229Y431332D01*
Y431324D01*
X321237Y431309D01*
X321252Y431280D01*
X321266Y431250D01*
X321289Y431198D01*
X321318Y431147D01*
X321348Y431080D01*
X321385Y431013D01*
X321466Y430851D01*
X321570Y430658D01*
X321681Y430451D01*
X321807Y430222D01*
X319268D01*
X319224Y430229D01*
X319113Y430236D01*
X318980Y430244D01*
X318817Y430266D01*
X318639Y430288D01*
X318447Y430318D01*
Y429363D01*
X318454D01*
X318477Y429371D01*
X318506D01*
X318543Y429378D01*
X318595Y429385D01*
X318654Y429400D01*
X318787Y429415D01*
X318935Y429437D01*
X319091Y429452D01*
X319239Y429459D01*
X322228D01*
X322236Y429445D01*
X322258Y429415D01*
X322302Y429356D01*
X322354Y429289D01*
X322421Y429193D01*
X322495Y429089D01*
X322584Y428971D01*
X322680Y428845D01*
X322791Y428705D01*
X322902Y428557D01*
X323146Y428246D01*
X323398Y427920D01*
X323664Y427602D01*
X323671Y427609D01*
X323686Y427624D01*
X323708Y427646D01*
X323738Y427676D01*
X323782Y427706D01*
X323834Y427750D01*
X323945Y427839D01*
X324086Y427935D01*
X324241Y428031D01*
X324411Y428120D01*
X324582Y428179D01*
X324574Y428187D01*
X324559Y428194D01*
X324537Y428216D01*
X324508Y428238D01*
X324463Y428275D01*
X324419Y428320D01*
X324360Y428372D01*
X324293Y428431D01*
X324226Y428505D01*
X324145Y428579D01*
X324064Y428668D01*
X323975Y428764D01*
X323879Y428867D01*
X323782Y428978D01*
X323679Y429104D01*
X323568Y429237D01*
X323457Y429378D01*
X323338Y429526D01*
X323220Y429689D01*
X323102Y429859D01*
X322976Y430044D01*
X322850Y430229D01*
X322724Y430429D01*
X322598Y430643D01*
X322465Y430865D01*
X322339Y431095D01*
X322206Y431339D01*
X322080Y431591D01*
X321947Y431850D01*
X321821Y432123D01*
X321696Y432412D01*
X321570Y432708D01*
D02*
G37*
G36*
X303077Y432782D02*
X303070Y432775D01*
X303055Y432760D01*
X303018Y432738D01*
X302981Y432708D01*
X302922Y432664D01*
X302855Y432612D01*
X302781Y432553D01*
X302692Y432486D01*
X302596Y432405D01*
X302485Y432323D01*
X302359Y432227D01*
X302234Y432123D01*
X302086Y432012D01*
X301938Y431894D01*
X301775Y431768D01*
X301605Y431635D01*
X301597Y431628D01*
X301582Y431613D01*
X301553Y431591D01*
X301516Y431561D01*
X301471Y431531D01*
X301420Y431487D01*
X301294Y431391D01*
X301168Y431287D01*
X301035Y431184D01*
X300916Y431087D01*
X300857Y431043D01*
X300813Y431006D01*
X301486Y430222D01*
X301501Y430236D01*
X301531Y430266D01*
X301590Y430325D01*
X301664Y430399D01*
X301760Y430495D01*
X301871Y430599D01*
X301997Y430725D01*
X302137Y430851D01*
X302300Y430999D01*
X302470Y431147D01*
X302655Y431295D01*
X302848Y431457D01*
X303048Y431613D01*
X303262Y431776D01*
X303706Y432079D01*
X303077Y432782D01*
D02*
G37*
G36*
X309123Y430207D02*
X309086D01*
X309042Y430199D01*
X308982Y430192D01*
X308908D01*
X308820Y430185D01*
X308731Y430177D01*
X308627Y430170D01*
X308398Y430155D01*
X308161Y430140D01*
X307932Y430125D01*
X307710Y430118D01*
X296676D01*
X296617Y430125D01*
X296543D01*
X296454Y430133D01*
X296365D01*
X296254Y430140D01*
X296136Y430148D01*
X296003Y430155D01*
X295862Y430162D01*
X295707Y430177D01*
X295544Y430192D01*
X295366Y430207D01*
Y429252D01*
X295374D01*
X295403Y429260D01*
X295448D01*
X295500Y429267D01*
X295574Y429274D01*
X295655Y429282D01*
X295751Y429289D01*
X295847Y429297D01*
X295958Y429304D01*
X296077Y429311D01*
X296321Y429326D01*
X296573Y429341D01*
X296817Y429348D01*
X301775D01*
Y427232D01*
X298704D01*
X298645Y427239D01*
X298563D01*
X298474Y427247D01*
X298371D01*
X298260Y427254D01*
X298127Y427262D01*
X297986Y427269D01*
X297831Y427276D01*
X297660Y427291D01*
X297483Y427306D01*
X297283Y427321D01*
Y427313D01*
Y427284D01*
X297290Y427232D01*
X297298Y427173D01*
Y427099D01*
X297305Y427010D01*
X297313Y426906D01*
X297320Y426803D01*
X297335Y426573D01*
X297350Y426337D01*
X297364Y426100D01*
X297372Y425989D01*
Y425885D01*
Y421697D01*
Y421689D01*
Y421660D01*
Y421615D01*
Y421564D01*
X297379Y421497D01*
X297387Y421423D01*
X297416Y421253D01*
X297461Y421075D01*
X297498Y420986D01*
X297542Y420898D01*
X297594Y420824D01*
X297653Y420750D01*
X297720Y420690D01*
X297801Y420639D01*
X297808D01*
X297823Y420624D01*
X297845Y420616D01*
X297890Y420594D01*
X297942Y420572D01*
X298008Y420550D01*
X298090Y420520D01*
X298193Y420491D01*
X298312Y420461D01*
X298452Y420424D01*
X298608Y420394D01*
X298793Y420365D01*
X298992Y420335D01*
X299222Y420306D01*
X299473Y420283D01*
X299747Y420261D01*
Y420269D01*
Y420291D01*
X299755Y420320D01*
Y420357D01*
X299762Y420409D01*
X299777Y420476D01*
X299792Y420542D01*
X299814Y420624D01*
X299866Y420794D01*
X299903Y420890D01*
X299947Y420986D01*
X300006Y421090D01*
X300065Y421194D01*
X300132Y421297D01*
X300213Y421401D01*
X300206D01*
X300184Y421393D01*
X300154D01*
X300117Y421386D01*
X300065Y421379D01*
X300006Y421371D01*
X299866Y421349D01*
X299703Y421327D01*
X299533Y421312D01*
X299362Y421305D01*
X299200Y421297D01*
X298948D01*
X298859Y421290D01*
X298659Y421282D01*
X298467Y421268D01*
X298378Y421260D01*
X298297Y421245D01*
X298238Y421231D01*
X298193Y421216D01*
X298186Y421194D01*
X298178Y421179D01*
X298171Y421164D01*
X298164Y421171D01*
Y421194D01*
X298193Y421216D01*
X298201Y421245D01*
Y421290D01*
X298208Y421349D01*
X298215Y421416D01*
Y421504D01*
X298223Y421608D01*
Y421734D01*
Y421874D01*
Y421882D01*
Y421911D01*
X298230Y421956D01*
X298238Y422015D01*
Y426470D01*
X301775D01*
Y420039D01*
Y420032D01*
Y420017D01*
Y419980D01*
X301767Y419936D01*
Y419884D01*
Y419817D01*
X301760Y419736D01*
Y419647D01*
X301753Y419543D01*
X301745Y419432D01*
X301738Y419307D01*
X301730Y419173D01*
X301716Y419025D01*
X301708Y418870D01*
X301693Y418707D01*
X301679Y418530D01*
X302729D01*
Y418537D01*
X302722Y418574D01*
Y418618D01*
X302715Y418685D01*
X302707Y418759D01*
X302700Y418848D01*
X302692Y418951D01*
X302685Y419062D01*
X302670Y419299D01*
X302655Y419551D01*
X302641Y419802D01*
X302633Y419928D01*
Y420039D01*
Y426470D01*
X306052D01*
Y421541D01*
Y421534D01*
Y421519D01*
Y421490D01*
X306045Y421453D01*
Y421401D01*
Y421349D01*
X306037Y421275D01*
Y421201D01*
X306030Y421120D01*
X306022Y421023D01*
X306008Y420824D01*
X305985Y420587D01*
X305963Y420335D01*
X307007D01*
Y420343D01*
Y420365D01*
X306999Y420402D01*
X306992Y420454D01*
Y420513D01*
X306984Y420579D01*
X306977Y420661D01*
X306970Y420742D01*
X306955Y420935D01*
X306940Y421134D01*
X306925Y421342D01*
X306918Y421541D01*
Y425915D01*
Y425922D01*
Y425937D01*
Y425959D01*
Y425996D01*
Y426041D01*
X306925Y426100D01*
Y426166D01*
Y426240D01*
X306933Y426337D01*
X306940Y426440D01*
X306947Y426551D01*
X306955Y426677D01*
X306962Y426818D01*
X306977Y426973D01*
X306992Y427143D01*
X307007Y427321D01*
X306970D01*
X306925Y427313D01*
X306866Y427306D01*
X306792D01*
X306711Y427299D01*
X306614Y427291D01*
X306511Y427284D01*
X306289Y427269D01*
X306045Y427254D01*
X305808Y427239D01*
X305586Y427232D01*
X302633D01*
Y429348D01*
X307858D01*
X307917Y429341D01*
X307991D01*
X308080Y429334D01*
X308176D01*
X308279Y429326D01*
X308398Y429319D01*
X308524Y429311D01*
X308657Y429297D01*
X308805Y429282D01*
X308960Y429267D01*
X309123Y429252D01*
Y430207D01*
D02*
G37*
G36*
X139752Y429001D02*
X139744D01*
X139737Y428993D01*
X139715D01*
X139685Y428986D01*
X139641Y428978D01*
X139596Y428971D01*
X139537Y428964D01*
X139471Y428956D01*
X139389Y428941D01*
X139300Y428934D01*
X139197Y428927D01*
X139086Y428919D01*
X138960Y428912D01*
X138827D01*
X138679Y428904D01*
X131449D01*
X131368Y428912D01*
X131279D01*
X131183Y428919D01*
X130975Y428927D01*
X130761Y428949D01*
X130554Y428971D01*
X130465Y428986D01*
X130376Y429001D01*
Y428046D01*
X130383D01*
X130398Y428053D01*
X130428D01*
X130465Y428061D01*
X130517Y428068D01*
X130576Y428076D01*
X130650Y428083D01*
X130731Y428090D01*
X130820Y428098D01*
X130916Y428105D01*
X131020Y428113D01*
X131131Y428120D01*
X131257Y428127D01*
X131382Y428135D01*
X138723D01*
X138797Y428127D01*
X138975D01*
X139175Y428113D01*
X139382Y428098D01*
X139574Y428076D01*
X139670Y428061D01*
X139752Y428046D01*
Y429001D01*
D02*
G37*
G36*
X252950Y432094D02*
X252942Y432086D01*
X252913Y432049D01*
X252861Y431998D01*
X252794Y431924D01*
X252713Y431827D01*
X252609Y431716D01*
X252491Y431583D01*
X252358Y431428D01*
X252217Y431258D01*
X252054Y431065D01*
X251884Y430858D01*
X251692Y430636D01*
X251499Y430399D01*
X251285Y430140D01*
X251070Y429866D01*
X250841Y429578D01*
X251618Y428890D01*
Y428897D01*
X251632Y428912D01*
X251647Y428934D01*
X251669Y428964D01*
X251699Y429001D01*
X251729Y429045D01*
X251817Y429163D01*
X251921Y429297D01*
X252039Y429459D01*
X252173Y429630D01*
X252321Y429822D01*
X252483Y430022D01*
X252646Y430236D01*
X253009Y430658D01*
X253194Y430873D01*
X253379Y431073D01*
X253556Y431272D01*
X253741Y431450D01*
X252950Y432094D01*
D02*
G37*
G36*
X323435Y427676D02*
X323427D01*
X323412Y427669D01*
X323383D01*
X323346Y427661D01*
X323301Y427654D01*
X323242Y427639D01*
X323116Y427624D01*
X322976Y427602D01*
X322813Y427587D01*
X322658Y427580D01*
X319994D01*
X319883Y427587D01*
X319742Y427595D01*
X319587Y427617D01*
X319402Y427639D01*
X319202Y427676D01*
Y426721D01*
X319209D01*
X319231Y426729D01*
X319261D01*
X319305Y426736D01*
X319357Y426744D01*
X319409Y426758D01*
X319550Y426773D01*
X319698Y426795D01*
X319853Y426810D01*
X320001Y426818D01*
X321000D01*
Y424627D01*
X319431D01*
X319320Y424635D01*
X319187Y424642D01*
X319039Y424657D01*
X318869Y424679D01*
X318684Y424716D01*
Y423761D01*
X318691D01*
X318706Y423769D01*
X318736D01*
X318773Y423776D01*
X318824Y423784D01*
X318876Y423791D01*
X319002Y423813D01*
X319150Y423828D01*
X319298Y423843D01*
X319453Y423850D01*
X321000D01*
Y420261D01*
X320993D01*
X320985Y420276D01*
X320963Y420283D01*
X320933Y420306D01*
X320859Y420357D01*
X320756Y420424D01*
X320637Y420505D01*
X320497Y420602D01*
X320341Y420713D01*
X320179Y420824D01*
X319846Y421068D01*
X319675Y421186D01*
X319513Y421312D01*
X319357Y421438D01*
X319217Y421549D01*
X319091Y421660D01*
X318987Y421756D01*
X318684Y420794D01*
X318691D01*
X318699Y420787D01*
X318721Y420772D01*
X318743Y420757D01*
X318817Y420705D01*
X318921Y420646D01*
X319046Y420565D01*
X319194Y420461D01*
X319365Y420350D01*
X319557Y420224D01*
X319764Y420084D01*
X319994Y419928D01*
X320230Y419758D01*
X320482Y419580D01*
X320748Y419388D01*
X321015Y419181D01*
X321296Y418974D01*
X321585Y418752D01*
X322273Y419721D01*
X322265D01*
X322251Y419736D01*
X322228Y419751D01*
X322199Y419765D01*
X322125Y419817D01*
X322036Y419891D01*
X321955Y419980D01*
X321881Y420076D01*
X321851Y420128D01*
X321829Y420187D01*
X321821Y420246D01*
Y420306D01*
Y423850D01*
X323316D01*
X323368Y423843D01*
X323486D01*
X323627Y423828D01*
X323797Y423813D01*
X323982Y423791D01*
X324189Y423761D01*
Y424716D01*
X324182D01*
X324167Y424709D01*
X324138D01*
X324101Y424701D01*
X324056Y424694D01*
X324004Y424686D01*
X323879Y424664D01*
X323738Y424649D01*
X323575Y424635D01*
X323412Y424627D01*
X321821D01*
Y426818D01*
X322643D01*
X322709Y426810D01*
X322850Y426803D01*
X323020Y426781D01*
X323220Y426758D01*
X323435Y426721D01*
Y427676D01*
D02*
G37*
G36*
X281284Y432590D02*
X280485Y431753D01*
X280478Y431746D01*
X280463Y431731D01*
X280426Y431687D01*
X280411Y431657D01*
X280396Y431628D01*
X280389Y431598D01*
X280396Y431568D01*
X280404Y431561D01*
X280411Y431554D01*
X280433Y431539D01*
X280463Y431531D01*
X280492Y431524D01*
X280618D01*
X280663Y431531D01*
X280899D01*
X280944Y431524D01*
X280988D01*
X281107Y431509D01*
X281240Y431494D01*
X281388Y431465D01*
X281551Y431428D01*
X281713Y431376D01*
X281721D01*
X281750Y431361D01*
X281802Y431346D01*
X281876Y431324D01*
X281965Y431295D01*
X282083Y431258D01*
X282224Y431213D01*
X282394Y431169D01*
X282587Y431110D01*
X282801Y431043D01*
X283053Y430969D01*
X283327Y430895D01*
X283475Y430851D01*
X283630Y430806D01*
X283793Y430762D01*
X283970Y430710D01*
X284148Y430658D01*
X284333Y430606D01*
X284525Y430555D01*
X284733Y430495D01*
Y427461D01*
X280885D01*
X280825Y427469D01*
X280766D01*
X280692Y427476D01*
X280611D01*
X280522Y427484D01*
X280418Y427491D01*
X280307Y427498D01*
X280189Y427506D01*
X280063Y427521D01*
X279923Y427535D01*
X279775Y427550D01*
Y426603D01*
X279812D01*
X279849Y426610D01*
X279900Y426618D01*
X279967D01*
X280041Y426625D01*
X280122Y426633D01*
X280219Y426640D01*
X280411Y426655D01*
X280618Y426670D01*
X280818Y426684D01*
X281003Y426692D01*
X281773D01*
Y420150D01*
Y420143D01*
Y420121D01*
Y420091D01*
X281765Y420039D01*
Y419980D01*
X281758Y419913D01*
Y419832D01*
X281750Y419743D01*
X281743Y419647D01*
X281736Y419543D01*
X281721Y419314D01*
X281706Y419055D01*
X281684Y418789D01*
X282720D01*
Y418796D01*
X282712Y418833D01*
Y418877D01*
X282705Y418944D01*
X282698Y419018D01*
X282690Y419107D01*
X282683Y419203D01*
X282675Y419307D01*
X282661Y419529D01*
X282646Y419758D01*
X282638Y419869D01*
X282631Y419965D01*
Y420061D01*
Y420150D01*
Y426692D01*
X284718D01*
Y426684D01*
Y426655D01*
Y426603D01*
Y426544D01*
Y426462D01*
Y426366D01*
Y426255D01*
Y426137D01*
Y426004D01*
Y425856D01*
X284725Y425700D01*
Y425537D01*
X284733Y425367D01*
Y425190D01*
X284747Y424820D01*
X284762Y424427D01*
X284784Y424035D01*
X284807Y423643D01*
X284844Y423258D01*
X284881Y422896D01*
X284903Y422718D01*
X284932Y422555D01*
X284955Y422392D01*
X284984Y422252D01*
X285014Y422111D01*
X285051Y421985D01*
Y421978D01*
X285058Y421971D01*
Y421948D01*
X285066Y421919D01*
X285080Y421882D01*
X285095Y421837D01*
X285125Y421734D01*
X285177Y421593D01*
X285236Y421430D01*
X285310Y421245D01*
X285399Y421038D01*
X285502Y420809D01*
X285628Y420557D01*
X285769Y420291D01*
X285931Y420002D01*
X286109Y419706D01*
X286309Y419395D01*
X286531Y419070D01*
X286775Y418737D01*
Y418744D01*
X286790Y418752D01*
X286805Y418774D01*
X286834Y418803D01*
X286871Y418833D01*
X286908Y418877D01*
X287012Y418966D01*
X287145Y419070D01*
X287308Y419181D01*
X287500Y419292D01*
X287722Y419395D01*
X287715D01*
X287707Y419410D01*
X287663Y419447D01*
X287596Y419514D01*
X287508Y419595D01*
X287404Y419706D01*
X287286Y419832D01*
X287152Y419980D01*
X287012Y420150D01*
X286871Y420328D01*
X286723Y420528D01*
X286583Y420742D01*
X286442Y420972D01*
X286309Y421208D01*
X286190Y421460D01*
X286087Y421719D01*
X286005Y421985D01*
Y421993D01*
X285998Y422000D01*
Y422022D01*
X285983Y422052D01*
X285976Y422089D01*
X285968Y422133D01*
X285954Y422193D01*
X285939Y422259D01*
X285924Y422333D01*
X285909Y422415D01*
X285887Y422503D01*
X285872Y422607D01*
X285850Y422718D01*
X285835Y422836D01*
X285813Y422962D01*
X285791Y423103D01*
X285776Y423251D01*
X285754Y423406D01*
X285732Y423576D01*
X285717Y423754D01*
X285695Y423946D01*
X285680Y424146D01*
X285665Y424353D01*
X285650Y424575D01*
X285635Y424805D01*
X285621Y425042D01*
X285613Y425301D01*
X285606Y425560D01*
X285598Y425833D01*
X285591Y426122D01*
Y426418D01*
Y426721D01*
Y429866D01*
Y429874D01*
Y429889D01*
Y429911D01*
Y429940D01*
X285598Y429992D01*
Y430059D01*
X285606Y430148D01*
Y430155D01*
Y430177D01*
X285613Y430207D01*
Y430251D01*
X285621Y430303D01*
X285628Y430362D01*
X285635Y430436D01*
Y430510D01*
X285650Y430680D01*
X285665Y430865D01*
X285680Y431058D01*
X285695Y431250D01*
X285672D01*
X285643Y431243D01*
X285613D01*
X285524Y431235D01*
X285428Y431228D01*
X285347D01*
X285310Y431235D01*
X285258D01*
X285191Y431243D01*
X285125Y431250D01*
X285051Y431265D01*
X284962Y431272D01*
X284777Y431309D01*
X284562Y431354D01*
X284318Y431420D01*
X284311D01*
X284296Y431428D01*
X284266Y431435D01*
X284229Y431443D01*
X284178Y431457D01*
X284118Y431472D01*
X284052Y431494D01*
X283978Y431517D01*
X283896Y431539D01*
X283808Y431568D01*
X283608Y431628D01*
X283393Y431694D01*
X283156Y431776D01*
X282912Y431857D01*
X282661Y431953D01*
X282409Y432049D01*
X282157Y432146D01*
X281913Y432257D01*
X281684Y432360D01*
X281477Y432479D01*
X281284Y432590D01*
D02*
G37*
G36*
X255813Y432575D02*
X254666Y432397D01*
X254659D01*
X254629Y432390D01*
X254592Y432382D01*
X254548Y432375D01*
X254511Y432368D01*
X254474Y432353D01*
X254444Y432338D01*
X254437Y432323D01*
Y432316D01*
X254430Y432301D01*
X254437Y432279D01*
X254452Y432249D01*
X254474Y432212D01*
X254504Y432168D01*
X254555Y432109D01*
X254570Y432094D01*
X254607Y432049D01*
X254659Y431983D01*
X254711Y431879D01*
X254770Y431753D01*
X254814Y431598D01*
X254844Y431420D01*
X254851Y431317D01*
Y431213D01*
Y431206D01*
Y431184D01*
Y431154D01*
Y431110D01*
X254844Y431050D01*
Y430984D01*
Y430910D01*
Y430821D01*
X254837Y430725D01*
Y430621D01*
X254829Y430510D01*
X254822Y430392D01*
X254814Y430133D01*
X254800Y429852D01*
X254785Y429556D01*
X254770Y429252D01*
X254748Y428934D01*
X254718Y428616D01*
X254689Y428298D01*
X254659Y427987D01*
X254622Y427683D01*
X254585Y427402D01*
X254578D01*
X254548Y427410D01*
X254504Y427417D01*
X254444Y427424D01*
X254363Y427439D01*
X254274Y427447D01*
X254163Y427469D01*
X254045Y427484D01*
X253919Y427506D01*
X253771Y427528D01*
X253623Y427558D01*
X253460Y427580D01*
X253290Y427609D01*
X253112Y427646D01*
X252735Y427713D01*
X252335Y427787D01*
X251921Y427868D01*
X251085Y428046D01*
X250670Y428142D01*
X250278Y428246D01*
X249901Y428349D01*
X249723Y428409D01*
X249553Y428460D01*
X249361Y427447D01*
X249375D01*
X249398Y427439D01*
X249435D01*
X249472Y427432D01*
X249523Y427424D01*
X249583Y427417D01*
X249657Y427410D01*
X249731Y427395D01*
X249819Y427387D01*
X249923Y427373D01*
X250027Y427358D01*
X250152Y427336D01*
X250278Y427321D01*
X250419Y427299D01*
X250567Y427276D01*
X250730Y427254D01*
X250907Y427225D01*
X251085Y427195D01*
X251285Y427165D01*
X251484Y427136D01*
X251706Y427099D01*
X251928Y427062D01*
X252173Y427025D01*
X252424Y426988D01*
X252683Y426943D01*
X252957Y426899D01*
X253246Y426847D01*
X253542Y426795D01*
X253852Y426744D01*
X254178Y426692D01*
X254511Y426633D01*
Y426618D01*
X254504Y426581D01*
X254496Y426514D01*
X254489Y426425D01*
X254467Y426314D01*
X254452Y426181D01*
X254422Y426033D01*
X254393Y425863D01*
X254363Y425678D01*
X254319Y425478D01*
X254274Y425264D01*
X254222Y425034D01*
X254163Y424797D01*
X254097Y424553D01*
X254023Y424302D01*
X253941Y424043D01*
X253852Y423776D01*
X253756Y423510D01*
X253653Y423243D01*
X253534Y422970D01*
X253408Y422703D01*
X253283Y422437D01*
X253135Y422170D01*
X252987Y421919D01*
X252824Y421667D01*
X252646Y421423D01*
X252461Y421194D01*
X252269Y420972D01*
X252062Y420757D01*
X251840Y420565D01*
X251610Y420387D01*
X251366Y420224D01*
X251359D01*
X251351Y420217D01*
X251307Y420187D01*
X251240Y420150D01*
X251159Y420106D01*
X251063Y420061D01*
X250966Y420024D01*
X250863Y419995D01*
X250759Y419987D01*
X250744D01*
X250700Y419995D01*
X250633Y420017D01*
X250552Y420054D01*
X250508Y420084D01*
X250463Y420121D01*
X250419Y420158D01*
X250374Y420209D01*
X250337Y420276D01*
X250293Y420343D01*
X250256Y420424D01*
X250226Y420520D01*
X250219Y420535D01*
Y420550D01*
X250212Y420572D01*
X250204Y420609D01*
X250189Y420646D01*
X250182Y420698D01*
X250167Y420750D01*
X250152Y420824D01*
X250138Y420898D01*
X250123Y420986D01*
X250108Y421083D01*
X250093Y421194D01*
X250071Y421319D01*
X250056Y421453D01*
X250034Y421601D01*
Y421593D01*
X250019Y421578D01*
X250004Y421556D01*
X249975Y421527D01*
X249945Y421482D01*
X249901Y421445D01*
X249849Y421393D01*
X249790Y421349D01*
X249723Y421297D01*
X249642Y421245D01*
X249553Y421201D01*
X249457Y421157D01*
X249346Y421120D01*
X249227Y421083D01*
X249094Y421060D01*
X248954Y421038D01*
Y421031D01*
X248968Y421001D01*
X248983Y420957D01*
X248998Y420898D01*
X249028Y420824D01*
X249057Y420735D01*
X249087Y420646D01*
X249124Y420542D01*
X249198Y420328D01*
X249279Y420106D01*
X249368Y419899D01*
X249405Y419795D01*
X249449Y419706D01*
Y419699D01*
X249464Y419669D01*
X249479Y419625D01*
X249509Y419566D01*
X249546Y419499D01*
X249583Y419425D01*
X249634Y419351D01*
X249694Y419270D01*
X249753Y419181D01*
X249827Y419107D01*
X249908Y419033D01*
X250004Y418966D01*
X250101Y418907D01*
X250204Y418863D01*
X250323Y418833D01*
X250448Y418826D01*
X250500D01*
X250537Y418833D01*
X250589Y418840D01*
X250648Y418855D01*
X250715Y418870D01*
X250789Y418885D01*
X250878Y418914D01*
X250974Y418944D01*
X251077Y418988D01*
X251188Y419033D01*
X251299Y419092D01*
X251425Y419159D01*
X251558Y419233D01*
X251692Y419321D01*
X251699Y419329D01*
X251729Y419344D01*
X251766Y419366D01*
X251825Y419410D01*
X251891Y419455D01*
X251980Y419521D01*
X252076Y419595D01*
X252180Y419677D01*
X252298Y419780D01*
X252417Y419891D01*
X252550Y420017D01*
X252691Y420158D01*
X252839Y420313D01*
X252987Y420483D01*
X253142Y420676D01*
X253297Y420875D01*
X253460Y421090D01*
X253616Y421327D01*
X253778Y421571D01*
X253941Y421845D01*
X254097Y422126D01*
X254245Y422429D01*
X254400Y422748D01*
X254541Y423088D01*
X254681Y423443D01*
X254814Y423821D01*
X254933Y424213D01*
X255051Y424635D01*
X255155Y425071D01*
X255244Y425523D01*
X255325Y426004D01*
X255392Y426499D01*
X257737Y426063D01*
X257760Y426055D01*
X257782D01*
X257811Y426048D01*
X257848Y426041D01*
X257900Y426026D01*
X257959Y426011D01*
X258041Y425996D01*
X258137Y425967D01*
X258255Y425944D01*
X258389Y425907D01*
X258544Y425870D01*
X258722Y425826D01*
X258929Y425774D01*
X259129Y426773D01*
X259025D01*
X258958Y426781D01*
X258870D01*
X258773Y426788D01*
X258670D01*
X258559Y426795D01*
X258322Y426810D01*
X258093Y426832D01*
X257989Y426840D01*
X257893Y426855D01*
X257804Y426862D01*
X257737Y426877D01*
X255466Y427262D01*
Y427269D01*
Y427291D01*
X255473Y427328D01*
Y427373D01*
X255480Y427432D01*
X255488Y427506D01*
X255495Y427587D01*
X255503Y427683D01*
X255517Y427787D01*
X255525Y427898D01*
X255540Y428016D01*
X255547Y428142D01*
X255569Y428416D01*
X255599Y428719D01*
X255621Y429030D01*
X255643Y429356D01*
X255688Y430022D01*
X255710Y430355D01*
X255725Y430673D01*
X255732Y430976D01*
X255739Y431265D01*
Y431272D01*
Y431280D01*
Y431302D01*
Y431332D01*
Y431369D01*
Y431413D01*
X255747Y431472D01*
Y431531D01*
Y431605D01*
X255754Y431687D01*
X255762Y431776D01*
Y431879D01*
X255769Y431990D01*
X255776Y432109D01*
X255791Y432242D01*
X255799Y432382D01*
Y432390D01*
Y432405D01*
X255806Y432427D01*
Y432456D01*
X255813Y432516D01*
Y432575D01*
D02*
G37*
G36*
X288270Y429748D02*
X287278Y429193D01*
X287271D01*
X287249Y429178D01*
X287226Y429163D01*
X287197Y429141D01*
X287167Y429119D01*
X287138Y429097D01*
X287123Y429067D01*
Y429045D01*
Y429038D01*
X287130Y429023D01*
X287145Y429008D01*
X287167Y428986D01*
X287197Y428964D01*
X287234Y428941D01*
X287293Y428919D01*
X287300Y428912D01*
X287330Y428904D01*
X287367Y428882D01*
X287411Y428860D01*
X287471Y428823D01*
X287530Y428786D01*
X287663Y428690D01*
X287670Y428682D01*
X287685Y428668D01*
X287700Y428645D01*
X287722Y428608D01*
X287752Y428571D01*
X287789Y428512D01*
X287841Y428446D01*
X287892Y428357D01*
X287959Y428261D01*
X288033Y428142D01*
X288122Y428002D01*
X288218Y427846D01*
X288329Y427661D01*
X288455Y427461D01*
X288595Y427232D01*
X287404D01*
X287367Y427239D01*
X287271D01*
X287212Y427247D01*
X287138D01*
X287056Y427254D01*
X286967Y427262D01*
X286871Y427269D01*
X286760Y427276D01*
X286649Y427284D01*
X286523Y427299D01*
X286390Y427306D01*
X286250Y427321D01*
Y426374D01*
X286257D01*
X286279Y426381D01*
X286324D01*
X286368Y426388D01*
X286435Y426396D01*
X286509Y426403D01*
X286590Y426411D01*
X286679Y426418D01*
X286871Y426433D01*
X287071Y426448D01*
X287271Y426462D01*
X287463Y426470D01*
X289195D01*
Y424834D01*
X287626D01*
X287582Y424842D01*
X287537D01*
X287478Y424849D01*
X287404D01*
X287330Y424857D01*
X287249Y424864D01*
X287152Y424871D01*
X286953Y424886D01*
X286723Y424908D01*
X286479Y424931D01*
Y423983D01*
X286516D01*
X286553Y423991D01*
X286605Y423998D01*
X286671D01*
X286753Y424006D01*
X286834Y424013D01*
X286923Y424020D01*
X287123Y424035D01*
X287330Y424050D01*
X287530Y424065D01*
X287619Y424072D01*
X289195D01*
Y420491D01*
Y420483D01*
Y420446D01*
Y420402D01*
Y420335D01*
X289202Y420261D01*
Y420180D01*
X289210Y420084D01*
X289224Y419987D01*
X289261Y419788D01*
X289291Y419691D01*
X289321Y419595D01*
X289365Y419506D01*
X289409Y419432D01*
X289461Y419373D01*
X289528Y419321D01*
X289543Y419307D01*
X289565Y419299D01*
X289594Y419277D01*
X289639Y419255D01*
X289698Y419233D01*
X289765Y419203D01*
X289853Y419173D01*
X289957Y419144D01*
X290075Y419114D01*
X290216Y419077D01*
X290371Y419048D01*
X290556Y419018D01*
X290756Y418996D01*
X290986Y418974D01*
X291237Y418951D01*
Y418959D01*
Y418981D01*
X291245Y419011D01*
X291252Y419055D01*
X291259Y419107D01*
X291267Y419166D01*
X291282Y419233D01*
X291304Y419314D01*
X291348Y419477D01*
X291415Y419654D01*
X291511Y419839D01*
X291622Y420024D01*
X291600D01*
X291578Y420017D01*
X291541D01*
X291496Y420010D01*
X291452Y420002D01*
X291341Y419995D01*
X291208Y419980D01*
X291074Y419965D01*
X290941Y419958D01*
X290764D01*
X290704Y419965D01*
X290638D01*
X290482Y419987D01*
X290408Y420002D01*
X290349Y420024D01*
X290334Y420032D01*
X290297Y420047D01*
X290253Y420084D01*
X290194Y420143D01*
X290142Y420224D01*
X290112Y420276D01*
X290090Y420335D01*
X290075Y420402D01*
X290061Y420476D01*
X290053Y420565D01*
Y420653D01*
Y424072D01*
X292029D01*
X292081Y424065D01*
X292147D01*
X292221Y424057D01*
X292303D01*
X292392Y424050D01*
X292495Y424043D01*
X292710Y424028D01*
X292947Y424006D01*
X293198Y423983D01*
Y424931D01*
X293191D01*
X293161Y424923D01*
X293117D01*
X293065Y424916D01*
X292991Y424908D01*
X292910Y424901D01*
X292821Y424894D01*
X292725Y424886D01*
X292525Y424864D01*
X292310Y424849D01*
X292110Y424842D01*
X292014Y424834D01*
X290053D01*
Y426470D01*
X292406D01*
X292451Y426462D01*
X292510D01*
X292577Y426455D01*
X292651D01*
X292732Y426448D01*
X292821Y426440D01*
X292924Y426433D01*
X293035Y426425D01*
X293154Y426411D01*
X293280Y426403D01*
X293413Y426388D01*
X293553Y426374D01*
Y427321D01*
X293524D01*
X293479Y427313D01*
X293428Y427306D01*
X293368D01*
X293294Y427299D01*
X293206Y427291D01*
X293117Y427284D01*
X292924Y427269D01*
X292717Y427254D01*
X292517Y427239D01*
X292325Y427232D01*
X290860D01*
X290867Y427239D01*
X290889Y427276D01*
X290926Y427321D01*
X290978Y427387D01*
X291045Y427469D01*
X291119Y427558D01*
X291208Y427669D01*
X291304Y427780D01*
X291415Y427905D01*
X291526Y428039D01*
X291777Y428312D01*
X292044Y428594D01*
X292325Y428875D01*
X291652Y429422D01*
X291644Y429415D01*
X291622Y429393D01*
X291585Y429348D01*
X291533Y429297D01*
X291467Y429230D01*
X291393Y429156D01*
X291304Y429060D01*
X291208Y428956D01*
X291097Y428845D01*
X290986Y428719D01*
X290860Y428586D01*
X290734Y428446D01*
X290593Y428298D01*
X290453Y428142D01*
X290157Y427817D01*
X290756Y427232D01*
X289469D01*
Y427239D01*
X289461Y427247D01*
X289446Y427269D01*
X289432Y427299D01*
X289387Y427373D01*
X289328Y427469D01*
X289254Y427595D01*
X289173Y427743D01*
X289084Y427905D01*
X288988Y428083D01*
X288884Y428268D01*
X288788Y428468D01*
X288684Y428682D01*
X288588Y428890D01*
X288499Y429112D01*
X288410Y429326D01*
X288336Y429541D01*
X288270Y429748D01*
D02*
G37*
G36*
X195392Y428490D02*
X194282Y428216D01*
X194275D01*
X194260Y428209D01*
X194223Y428194D01*
X194179Y428157D01*
X194171Y428142D01*
X194164Y428120D01*
Y428113D01*
X194179Y428083D01*
X194194Y428068D01*
X194216Y428039D01*
X194245Y428016D01*
X194282Y427979D01*
X194290Y427972D01*
X194305Y427957D01*
X194327Y427935D01*
X194349Y427898D01*
X194386Y427854D01*
X194416Y427809D01*
X194467Y427691D01*
Y427676D01*
X194482Y427639D01*
X194497Y427580D01*
X194519Y427491D01*
X194549Y427373D01*
X194586Y427232D01*
X194638Y427062D01*
X194689Y426862D01*
X191411D01*
X191419Y426869D01*
X191456Y426892D01*
X191507Y426929D01*
X191574Y426973D01*
X191648Y427025D01*
X191744Y427084D01*
X191848Y427151D01*
X191959Y427217D01*
X192196Y427358D01*
X192447Y427498D01*
X192566Y427558D01*
X192684Y427609D01*
X192788Y427654D01*
X192891Y427691D01*
X192395Y428431D01*
X192388D01*
X192366Y428416D01*
X192329Y428394D01*
X192277Y428372D01*
X192218Y428335D01*
X192144Y428290D01*
X192048Y428246D01*
X191951Y428187D01*
X191833Y428120D01*
X191707Y428046D01*
X191567Y427965D01*
X191419Y427876D01*
X191256Y427780D01*
X191086Y427676D01*
X190901Y427565D01*
X190708Y427447D01*
X191145Y426862D01*
X189835D01*
X189739Y426869D01*
X189635D01*
X189517Y426877D01*
X189391D01*
X189258Y426884D01*
X188991Y426899D01*
X188718Y426921D01*
X188459Y426951D01*
Y426018D01*
X188466D01*
X188488Y426026D01*
X188525D01*
X188577Y426033D01*
X188644Y426048D01*
X188725Y426055D01*
X188821Y426063D01*
X188917Y426078D01*
X189036Y426085D01*
X189162Y426092D01*
X189295Y426107D01*
X189435Y426115D01*
X189591Y426122D01*
X189754D01*
X190094Y426129D01*
X193683D01*
X193676Y426122D01*
X193646Y426115D01*
X193602Y426092D01*
X193535Y426063D01*
X193454Y426026D01*
X193365Y425981D01*
X193254Y425930D01*
X193128Y425878D01*
X192987Y425819D01*
X192839Y425752D01*
X192669Y425685D01*
X192499Y425619D01*
X192314Y425545D01*
X192114Y425471D01*
X191907Y425397D01*
X191692Y425323D01*
X191470Y425249D01*
X191241Y425175D01*
X190753Y425034D01*
X190249Y424901D01*
X189731Y424790D01*
X189199Y424694D01*
X188932Y424657D01*
X188658Y424627D01*
X188392Y424598D01*
X188126Y424583D01*
X187593D01*
X187600Y424575D01*
X187615Y424553D01*
X187645Y424524D01*
X187674Y424479D01*
X187711Y424427D01*
X187756Y424368D01*
X187807Y424294D01*
X187852Y424213D01*
X187955Y424043D01*
X188037Y423850D01*
X188066Y423747D01*
X188096Y423650D01*
X188111Y423547D01*
X188118Y423443D01*
X188126D01*
X188155Y423451D01*
X188200Y423458D01*
X188266Y423465D01*
X188340Y423480D01*
X188429Y423495D01*
X188525Y423517D01*
X188636Y423532D01*
X188873Y423576D01*
X189117Y423628D01*
X189369Y423687D01*
X189613Y423747D01*
Y420476D01*
Y420468D01*
Y420446D01*
Y420417D01*
Y420365D01*
Y420313D01*
Y420239D01*
X189606Y420165D01*
Y420076D01*
X189598Y419980D01*
X189591Y419884D01*
X189576Y419662D01*
X189546Y419425D01*
X189509Y419173D01*
X190531D01*
Y419181D01*
X190523Y419188D01*
Y419210D01*
X190516Y419240D01*
X190494Y419321D01*
X190479Y419425D01*
X190457Y419543D01*
X190442Y419684D01*
X190434Y419839D01*
Y419995D01*
X193365D01*
Y419987D01*
Y419973D01*
Y419950D01*
Y419913D01*
Y419869D01*
Y419817D01*
X193357Y419699D01*
X193350Y419558D01*
X193335Y419403D01*
X193306Y419240D01*
X193269Y419077D01*
X194282D01*
Y419085D01*
X194275Y419107D01*
Y419144D01*
X194268Y419196D01*
X194260Y419255D01*
X194253Y419329D01*
X194238Y419403D01*
X194231Y419492D01*
X194216Y419677D01*
X194201Y419876D01*
X194194Y420076D01*
Y420261D01*
Y422940D01*
Y422947D01*
Y422962D01*
Y422984D01*
Y423021D01*
Y423058D01*
Y423110D01*
Y423169D01*
X194201Y423236D01*
X194208Y423384D01*
X194223Y423554D01*
X194245Y423747D01*
X194282Y423954D01*
X194275D01*
X194260Y423946D01*
X194231D01*
X194194Y423939D01*
X194149Y423924D01*
X194090Y423917D01*
X193964Y423895D01*
X193809Y423880D01*
X193646Y423858D01*
X193468Y423850D01*
X190027D01*
X190050Y423858D01*
X190087Y423872D01*
X190138Y423880D01*
X190205Y423902D01*
X190286Y423924D01*
X190375Y423954D01*
X190479Y423983D01*
X190590Y424020D01*
X190716Y424057D01*
X190849Y424102D01*
X190989Y424146D01*
X191145Y424198D01*
X191308Y424257D01*
X191470Y424316D01*
X191648Y424376D01*
X192018Y424516D01*
X192410Y424672D01*
X192817Y424849D01*
X193239Y425034D01*
X193668Y425241D01*
X194105Y425463D01*
X194534Y425708D01*
X194956Y425959D01*
Y425952D01*
X194971Y425944D01*
X194985Y425922D01*
X195008Y425893D01*
X195045Y425856D01*
X195082Y425819D01*
X195133Y425767D01*
X195185Y425715D01*
X195252Y425656D01*
X195326Y425589D01*
X195407Y425523D01*
X195496Y425449D01*
X195600Y425375D01*
X195703Y425293D01*
X195822Y425212D01*
X195955Y425130D01*
X196095Y425042D01*
X196243Y424960D01*
X196399Y424871D01*
X196569Y424783D01*
X196754Y424694D01*
X196946Y424612D01*
X197146Y424524D01*
X197361Y424442D01*
X197590Y424361D01*
X197827Y424279D01*
X198079Y424205D01*
X198345Y424131D01*
X198619Y424065D01*
X198907Y423998D01*
X199203Y423939D01*
X199522Y423887D01*
X196488D01*
X196421Y423895D01*
X196347D01*
X196258Y423902D01*
X196169Y423909D01*
X196073Y423917D01*
X195859Y423946D01*
X195622Y423983D01*
Y423976D01*
X195629Y423961D01*
Y423932D01*
X195637Y423895D01*
X195644Y423850D01*
X195651Y423798D01*
X195659Y423739D01*
X195674Y423673D01*
X195688Y423517D01*
X195703Y423347D01*
X195711Y423162D01*
Y422970D01*
Y420320D01*
Y420313D01*
Y420298D01*
Y420269D01*
Y420224D01*
Y420180D01*
Y420121D01*
Y420047D01*
X195703Y419973D01*
Y419884D01*
X195696Y419795D01*
X195681Y419595D01*
X195659Y419373D01*
X195622Y419129D01*
X196636D01*
Y419136D01*
X196628Y419151D01*
Y419173D01*
X196621Y419203D01*
X196613Y419240D01*
X196599Y419292D01*
X196584Y419403D01*
X196562Y419536D01*
X196547Y419677D01*
X196539Y419832D01*
Y419995D01*
X199285D01*
Y419987D01*
Y419973D01*
Y419943D01*
Y419913D01*
Y419869D01*
Y419817D01*
X199277Y419691D01*
X199270Y419543D01*
X199255Y419373D01*
X199233Y419196D01*
X199196Y419011D01*
X200210D01*
Y419018D01*
X200202Y419040D01*
Y419070D01*
X200195Y419114D01*
X200188Y419166D01*
X200180Y419225D01*
X200165Y419299D01*
X200158Y419381D01*
X200151Y419469D01*
X200143Y419566D01*
X200128Y419780D01*
X200121Y420010D01*
Y420261D01*
Y423806D01*
X200128D01*
X200151Y423798D01*
X200180D01*
X200225Y423791D01*
X200284Y423784D01*
X200350Y423769D01*
X200432Y423761D01*
X200521Y423747D01*
X200617Y423739D01*
X200720Y423724D01*
X200950Y423702D01*
X201201Y423680D01*
X201468Y423658D01*
Y423665D01*
X201475Y423673D01*
Y423695D01*
X201490Y423724D01*
X201497Y423769D01*
X201512Y423813D01*
X201534Y423865D01*
X201557Y423924D01*
X201616Y424072D01*
X201697Y424242D01*
X201801Y424435D01*
X201927Y424657D01*
X201860D01*
X201779Y424649D01*
X201586D01*
X201483Y424642D01*
X201142D01*
X201061Y424649D01*
X200965D01*
X200846Y424657D01*
X200720Y424664D01*
X200580Y424679D01*
X200432Y424686D01*
X200262Y424701D01*
X200091Y424723D01*
X199906Y424746D01*
X199714Y424768D01*
X199314Y424827D01*
X198893Y424908D01*
X198449Y425005D01*
X198005Y425123D01*
X197561Y425271D01*
X197117Y425441D01*
X196909Y425537D01*
X196695Y425641D01*
X196495Y425752D01*
X196303Y425870D01*
X196110Y425996D01*
X195933Y426129D01*
X200158D01*
X200254Y426122D01*
X200358D01*
X200476Y426115D01*
X200728Y426100D01*
X200994Y426085D01*
X201253Y426055D01*
X201379Y426041D01*
X201497Y426018D01*
Y426951D01*
X201468D01*
X201438Y426943D01*
X201386Y426936D01*
X201327Y426929D01*
X201253Y426921D01*
X201172Y426914D01*
X201076Y426906D01*
X200965Y426899D01*
X200846Y426892D01*
X200720Y426884D01*
X200580Y426877D01*
X200424Y426869D01*
X200262D01*
X200091Y426862D01*
X195511D01*
Y426869D01*
X195503Y426892D01*
X195496Y426929D01*
X195489Y426973D01*
X195474Y427032D01*
X195459Y427099D01*
X195444Y427173D01*
X195429Y427262D01*
X195407Y427439D01*
X195378Y427639D01*
X195363Y427839D01*
X195355Y428031D01*
Y428046D01*
Y428076D01*
Y428120D01*
X195363Y428179D01*
Y428253D01*
X195370Y428327D01*
X195392Y428490D01*
D02*
G37*
G36*
X278272Y426388D02*
X278265D01*
X278235Y426381D01*
X278191D01*
X278124Y426374D01*
X278050Y426366D01*
X277962Y426359D01*
X277865Y426351D01*
X277762Y426344D01*
X277643Y426329D01*
X277518Y426322D01*
X277266Y426307D01*
X277000Y426300D01*
X276741Y426292D01*
X266144D01*
X266062Y426300D01*
X265974D01*
X265877Y426307D01*
X265774D01*
X265655Y426314D01*
X265411Y426337D01*
X265145Y426359D01*
X264864Y426388D01*
Y425315D01*
X264871D01*
X264893Y425323D01*
X264938D01*
X264989Y425330D01*
X265056Y425338D01*
X265137Y425345D01*
X265226Y425352D01*
X265330Y425360D01*
X265433Y425367D01*
X265552Y425375D01*
X265803Y425389D01*
X266077Y425404D01*
X277170D01*
X277288Y425397D01*
X277540Y425389D01*
X277799Y425375D01*
X278043Y425352D01*
X278161Y425330D01*
X278272Y425315D01*
Y426388D01*
D02*
G37*
G36*
X138065Y426218D02*
X138042D01*
X138020Y426211D01*
X137983Y426203D01*
X137946Y426196D01*
X137894Y426189D01*
X137828Y426181D01*
X137761Y426174D01*
X137680Y426166D01*
X137598Y426159D01*
X137502Y426152D01*
X137399Y426144D01*
X137288Y426137D01*
X137169D01*
X136918Y426129D01*
X132633D01*
X132559Y426137D01*
X132470D01*
X132381Y426144D01*
X132189Y426152D01*
X131982Y426166D01*
X131782Y426189D01*
X131590Y426218D01*
Y426211D01*
Y426196D01*
X131597Y426166D01*
X131604Y426129D01*
X131612Y426078D01*
X131619Y426018D01*
X131627Y425952D01*
X131634Y425878D01*
X131641Y425796D01*
X131649Y425700D01*
X131664Y425500D01*
X131671Y425271D01*
X131678Y425019D01*
Y423044D01*
Y423036D01*
Y423007D01*
Y422970D01*
Y422918D01*
Y422851D01*
X131671Y422777D01*
Y422703D01*
X131664Y422614D01*
X131656Y422429D01*
X131641Y422237D01*
X131619Y422059D01*
X131604Y421978D01*
X131590Y421904D01*
X131597D01*
X131612Y421911D01*
X131641D01*
X131686Y421919D01*
X131730Y421926D01*
X131789Y421934D01*
X131863Y421941D01*
X131937Y421956D01*
X132026Y421963D01*
X132122Y421971D01*
X132330Y421985D01*
X132566Y421993D01*
X132818Y422000D01*
X137095D01*
X137169Y421993D01*
X137243D01*
X137332Y421985D01*
X137510Y421978D01*
X137702Y421963D01*
X137894Y421934D01*
X138065Y421904D01*
Y421911D01*
X138057Y421926D01*
Y421956D01*
X138050Y421993D01*
X138042Y422045D01*
X138035Y422096D01*
X138028Y422163D01*
X138013Y422237D01*
X137998Y422407D01*
X137983Y422600D01*
X137976Y422814D01*
X137968Y423044D01*
Y425019D01*
Y425027D01*
Y425049D01*
Y425086D01*
Y425130D01*
Y425190D01*
X137976Y425264D01*
Y425338D01*
X137983Y425419D01*
X137991Y425611D01*
X138005Y425811D01*
X138035Y426018D01*
X138065Y426218D01*
D02*
G37*
G36*
X259084Y432767D02*
X257996Y432205D01*
X257989D01*
X257967Y432190D01*
X257945Y432175D01*
X257915Y432160D01*
X257885Y432138D01*
X257856Y432116D01*
X257841Y432094D01*
Y432079D01*
Y432072D01*
X257848Y432057D01*
X257863Y432042D01*
X257885Y432020D01*
X257922Y431998D01*
X257967Y431975D01*
X258026Y431946D01*
X258041Y431938D01*
X258070Y431916D01*
X258122Y431879D01*
X258196Y431813D01*
X258233Y431776D01*
X258278Y431724D01*
X258322Y431665D01*
X258374Y431605D01*
X258426Y431531D01*
X258485Y431443D01*
X258537Y431354D01*
X258596Y431250D01*
Y431243D01*
X258603Y431228D01*
X258618Y431206D01*
X258633Y431176D01*
X258655Y431132D01*
X258685Y431080D01*
X258714Y431013D01*
X258751Y430947D01*
X258796Y430865D01*
X258840Y430777D01*
X258892Y430680D01*
X258951Y430569D01*
X259010Y430458D01*
X259077Y430333D01*
X259151Y430199D01*
X259225Y430059D01*
Y430051D01*
X259240Y430037D01*
X259247Y430007D01*
X259269Y429970D01*
X259291Y429926D01*
X259314Y429874D01*
X259373Y429763D01*
X259439Y429630D01*
X259506Y429504D01*
X259565Y429385D01*
X259624Y429282D01*
Y420039D01*
Y420032D01*
Y420017D01*
Y419995D01*
Y419958D01*
Y419906D01*
X259617Y419854D01*
Y419780D01*
X259610Y419699D01*
Y419603D01*
X259602Y419499D01*
X259595Y419381D01*
X259580Y419255D01*
X259573Y419107D01*
X259558Y418951D01*
X259543Y418789D01*
X259528Y418604D01*
X260542D01*
Y418611D01*
X260535Y418641D01*
Y418692D01*
X260527Y418759D01*
X260520Y418833D01*
X260512Y418922D01*
X260505Y419018D01*
X260498Y419129D01*
X260483Y419358D01*
X260468Y419595D01*
X260453Y419832D01*
X260446Y419936D01*
Y420039D01*
Y427957D01*
X260453Y427950D01*
X260468Y427928D01*
X260483Y427905D01*
X260535Y427831D01*
X260601Y427728D01*
X260683Y427602D01*
X260779Y427461D01*
X260890Y427299D01*
X261016Y427121D01*
X261149Y426929D01*
X261297Y426721D01*
X261452Y426507D01*
X261615Y426285D01*
X261963Y425833D01*
X262333Y425375D01*
X262340Y425382D01*
X262355Y425389D01*
X262385Y425412D01*
X262422Y425434D01*
X262473Y425463D01*
X262525Y425500D01*
X262592Y425545D01*
X262666Y425589D01*
X262821Y425678D01*
X263006Y425782D01*
X263199Y425878D01*
X263398Y425974D01*
X263391Y425981D01*
X263369Y426004D01*
X263324Y426041D01*
X263273Y426092D01*
X263206Y426152D01*
X263125Y426233D01*
X263028Y426329D01*
X262925Y426433D01*
X262806Y426551D01*
X262688Y426684D01*
X262555Y426832D01*
X262407Y426995D01*
X262259Y427165D01*
X262103Y427350D01*
X261941Y427550D01*
X261778Y427765D01*
X261608Y427987D01*
X261430Y428224D01*
X261252Y428468D01*
X261075Y428734D01*
X260897Y429008D01*
X260720Y429289D01*
X260542Y429585D01*
X260357Y429896D01*
X260187Y430214D01*
X260009Y430547D01*
X259846Y430888D01*
X259676Y431243D01*
X259521Y431605D01*
X259365Y431983D01*
X259225Y432368D01*
X259084Y432767D01*
D02*
G37*
G36*
X146945Y432279D02*
Y432264D01*
X146930Y432227D01*
X146915Y432160D01*
X146893Y432079D01*
X146863Y431968D01*
X146819Y431835D01*
X146774Y431687D01*
X146715Y431517D01*
X146649Y431332D01*
X146575Y431132D01*
X146486Y430917D01*
X146390Y430688D01*
X146286Y430444D01*
X146168Y430185D01*
X146034Y429926D01*
X145894Y429652D01*
X145738Y429371D01*
X145568Y429082D01*
X145391Y428793D01*
X145191Y428497D01*
X144984Y428194D01*
X144762Y427898D01*
X144525Y427595D01*
X144273Y427291D01*
X144007Y426995D01*
X143718Y426699D01*
X143415Y426411D01*
X143097Y426122D01*
X142764Y425848D01*
X142416Y425574D01*
X142046Y425315D01*
X141654Y425064D01*
X141661D01*
X141676Y425049D01*
X141698Y425034D01*
X141735Y425005D01*
X141779Y424975D01*
X141831Y424938D01*
X141890Y424894D01*
X141964Y424842D01*
X142038Y424783D01*
X142127Y424723D01*
X142312Y424583D01*
X142527Y424420D01*
X142756Y424242D01*
X142771Y424250D01*
X142801Y424279D01*
X142852Y424324D01*
X142934Y424390D01*
X143023Y424472D01*
X143134Y424575D01*
X143259Y424694D01*
X143400Y424827D01*
X143555Y424975D01*
X143718Y425138D01*
X143896Y425323D01*
X144088Y425515D01*
X144281Y425730D01*
X144480Y425952D01*
X144695Y426196D01*
X144902Y426448D01*
X145124Y426714D01*
X145339Y426995D01*
X145561Y427284D01*
X145775Y427587D01*
X145997Y427905D01*
X146212Y428238D01*
X146419Y428571D01*
X146626Y428927D01*
X146819Y429289D01*
X147011Y429659D01*
X147196Y430037D01*
X147366Y430429D01*
X147522Y430828D01*
X147670Y431235D01*
X147796Y431657D01*
X147914Y432079D01*
X147899D01*
X147884Y432086D01*
X147862Y432094D01*
X147847D01*
X147810Y432109D01*
X147744Y432116D01*
X147699Y432131D01*
X147648Y432138D01*
X147588Y432153D01*
X147522Y432168D01*
X147448Y432183D01*
X147366Y432197D01*
X147270Y432212D01*
X147174Y432234D01*
X147063Y432257D01*
X146945Y432279D01*
D02*
G37*
G36*
X151200Y431768D02*
X150001Y431302D01*
X149993D01*
X149979Y431287D01*
X149919Y431258D01*
X149868Y431213D01*
X149853Y431184D01*
X149845Y431154D01*
X149853Y431139D01*
X149875Y431110D01*
X149890Y431095D01*
X149927Y431073D01*
X149964Y431050D01*
X150016Y431036D01*
X150023D01*
X150030Y431028D01*
X150075Y430999D01*
X150149Y430954D01*
X150238Y430880D01*
X150334Y430784D01*
X150386Y430725D01*
X150445Y430658D01*
X150497Y430584D01*
X150556Y430503D01*
X150608Y430414D01*
X150659Y430318D01*
Y430310D01*
X150674Y430281D01*
X150689Y430236D01*
X150719Y430177D01*
X150748Y430096D01*
X150793Y430007D01*
X150844Y429896D01*
X150896Y429770D01*
X150963Y429637D01*
X151037Y429489D01*
X151118Y429326D01*
X151207Y429149D01*
X151303Y428971D01*
X151407Y428771D01*
X151518Y428571D01*
X151644Y428357D01*
X151769Y428135D01*
X151910Y427905D01*
X152058Y427669D01*
X152213Y427424D01*
X152376Y427173D01*
X152554Y426921D01*
X152731Y426662D01*
X152924Y426396D01*
X153124Y426129D01*
X153338Y425863D01*
X153553Y425589D01*
X153782Y425315D01*
X154019Y425042D01*
X154263Y424775D01*
X154522Y424501D01*
X154789Y424228D01*
X154796Y424235D01*
X154811Y424242D01*
X154833Y424257D01*
X154863Y424287D01*
X154907Y424316D01*
X154959Y424353D01*
X155018Y424398D01*
X155085Y424442D01*
X155166Y424494D01*
X155247Y424553D01*
X155336Y424612D01*
X155440Y424672D01*
X155654Y424812D01*
X155906Y424960D01*
X155899Y424968D01*
X155869Y424982D01*
X155832Y425012D01*
X155773Y425049D01*
X155706Y425093D01*
X155617Y425160D01*
X155521Y425234D01*
X155410Y425315D01*
X155292Y425419D01*
X155159Y425530D01*
X155018Y425656D01*
X154870Y425789D01*
X154715Y425944D01*
X154544Y426107D01*
X154374Y426292D01*
X154197Y426485D01*
X154012Y426692D01*
X153827Y426914D01*
X153634Y427158D01*
X153442Y427410D01*
X153249Y427683D01*
X153050Y427965D01*
X152857Y428268D01*
X152657Y428586D01*
X152465Y428927D01*
X152273Y429274D01*
X152080Y429644D01*
X151895Y430037D01*
X151710Y430444D01*
X151533Y430865D01*
X151362Y431309D01*
X151200Y431768D01*
D02*
G37*
G36*
X287892Y423414D02*
X287885Y423406D01*
X287863Y423377D01*
X287833Y423325D01*
X287789Y423258D01*
X287737Y423177D01*
X287670Y423081D01*
X287596Y422970D01*
X287522Y422844D01*
X287434Y422703D01*
X287345Y422555D01*
X287241Y422392D01*
X287145Y422230D01*
X287041Y422052D01*
X286930Y421867D01*
X286716Y421482D01*
X287552Y420972D01*
X287559Y420986D01*
X287574Y421023D01*
X287604Y421083D01*
X287641Y421164D01*
X287685Y421260D01*
X287744Y421379D01*
X287804Y421504D01*
X287878Y421645D01*
X287952Y421793D01*
X288040Y421948D01*
X288233Y422274D01*
X288440Y422600D01*
X288551Y422762D01*
X288662Y422918D01*
X287892Y423414D01*
D02*
G37*
G36*
X149261Y427476D02*
X148055Y427114D01*
X148047D01*
X148025Y427099D01*
X147995Y427084D01*
X147958Y427069D01*
X147921Y427047D01*
X147892Y427017D01*
X147870Y426988D01*
X147862Y426951D01*
Y426943D01*
X147870Y426936D01*
X147877Y426914D01*
X147899Y426892D01*
X147929Y426862D01*
X147966Y426832D01*
X148018Y426788D01*
X148084Y426751D01*
X148092Y426744D01*
X148129Y426729D01*
X148173Y426684D01*
X148240Y426625D01*
X148277Y426581D01*
X148314Y426536D01*
X148358Y426477D01*
X148402Y426411D01*
X148447Y426337D01*
X148491Y426248D01*
X148536Y426152D01*
X148587Y426048D01*
Y426041D01*
X148602Y426018D01*
X148617Y425981D01*
X148639Y425937D01*
X148669Y425870D01*
X148706Y425796D01*
X148750Y425708D01*
X148802Y425604D01*
X148861Y425493D01*
X148920Y425375D01*
X148987Y425234D01*
X149061Y425093D01*
X149142Y424938D01*
X149231Y424775D01*
X149327Y424598D01*
X149424Y424413D01*
X149527Y424220D01*
X149638Y424020D01*
X149757Y423813D01*
X149882Y423599D01*
X150141Y423147D01*
X150423Y422674D01*
X150733Y422178D01*
X151059Y421660D01*
X151407Y421127D01*
X151777Y420579D01*
X151725D01*
X151666Y420587D01*
X151577Y420594D01*
X151459Y420602D01*
X151311Y420609D01*
X151140Y420624D01*
X151044Y420631D01*
X150933Y420639D01*
X150822Y420646D01*
X150704Y420653D01*
X150578Y420661D01*
X150445Y420676D01*
X150297Y420683D01*
X150149Y420698D01*
X149986Y420705D01*
X149823Y420720D01*
X149646Y420735D01*
X149461Y420750D01*
X149276Y420764D01*
X149076Y420779D01*
X148861Y420794D01*
X148647Y420816D01*
X148425Y420831D01*
X148188Y420853D01*
X148151D01*
X148121Y420861D01*
X148084D01*
X148040Y420868D01*
X147929Y420875D01*
X147803Y420883D01*
X147655Y420898D01*
X147492Y420905D01*
X147315Y420920D01*
X147122Y420935D01*
X146930Y420949D01*
X146545Y420979D01*
X146353Y420994D01*
X146168Y421009D01*
X145997Y421023D01*
X145842Y421038D01*
Y421046D01*
X145857Y421053D01*
X145864Y421075D01*
X145886Y421105D01*
X145909Y421149D01*
X145938Y421194D01*
X146012Y421297D01*
X146101Y421430D01*
X146205Y421586D01*
X146316Y421756D01*
X146434Y421934D01*
X146567Y422126D01*
X146700Y422326D01*
X146982Y422725D01*
X147122Y422918D01*
X147255Y423103D01*
X147389Y423280D01*
X147514Y423443D01*
X146700Y423998D01*
X146693Y423991D01*
X146678Y423969D01*
X146656Y423939D01*
X146626Y423887D01*
X146589Y423828D01*
X146538Y423761D01*
X146486Y423680D01*
X146419Y423584D01*
X146353Y423488D01*
X146279Y423377D01*
X146197Y423251D01*
X146116Y423125D01*
X146027Y422992D01*
X145931Y422844D01*
X145731Y422540D01*
X145516Y422215D01*
X145294Y421874D01*
X145065Y421519D01*
X144828Y421157D01*
X144369Y420424D01*
X144147Y420069D01*
X143940Y419721D01*
X144836Y419144D01*
Y419151D01*
X144843Y419166D01*
X144858Y419196D01*
X144873Y419240D01*
X144895Y419284D01*
X144924Y419344D01*
X144954Y419418D01*
X144991Y419492D01*
X145035Y419573D01*
X145087Y419662D01*
X145191Y419862D01*
X145324Y420084D01*
X145479Y420320D01*
X145524D01*
X145576Y420313D01*
X145650Y420306D01*
X145738Y420298D01*
X145849Y420291D01*
X145968Y420276D01*
X146108Y420269D01*
X146264Y420254D01*
X146434Y420239D01*
X146612Y420217D01*
X146804Y420202D01*
X147011Y420187D01*
X147226Y420165D01*
X147448Y420143D01*
X147677Y420121D01*
X148158Y420076D01*
X148654Y420024D01*
X149165Y419980D01*
X149683Y419921D01*
X150201Y419869D01*
X150704Y419817D01*
X151185Y419758D01*
X151422Y419736D01*
X151644Y419706D01*
X151658D01*
X151666Y419699D01*
X151688D01*
X151718Y419691D01*
X151762Y419684D01*
X151814Y419669D01*
X151880Y419654D01*
X151962Y419640D01*
X152065Y419610D01*
X152184Y419588D01*
X152317Y419551D01*
X152480Y419514D01*
X152665Y419469D01*
X152872Y419418D01*
X152879Y419425D01*
X152887Y419447D01*
X152909Y419484D01*
X152931Y419536D01*
X152961Y419595D01*
X152998Y419662D01*
X153079Y419825D01*
X153161Y419987D01*
X153249Y420158D01*
X153323Y420320D01*
X153353Y420387D01*
X153383Y420446D01*
X153375D01*
X153360Y420461D01*
X153331Y420476D01*
X153294Y420491D01*
X153242Y420520D01*
X153190Y420550D01*
X153072Y420616D01*
X152939Y420698D01*
X152798Y420787D01*
X152672Y420890D01*
X152561Y420986D01*
X152554Y420994D01*
X152539Y421023D01*
X152509Y421068D01*
X152465Y421127D01*
X152413Y421208D01*
X152354Y421297D01*
X152280Y421408D01*
X152199Y421534D01*
X152117Y421667D01*
X152021Y421815D01*
X151917Y421985D01*
X151806Y422156D01*
X151695Y422348D01*
X151577Y422548D01*
X151451Y422755D01*
X151325Y422977D01*
X151200Y423206D01*
X151066Y423451D01*
X150926Y423695D01*
X150793Y423954D01*
X150652Y424220D01*
X150519Y424487D01*
X150245Y425049D01*
X149979Y425634D01*
X149720Y426240D01*
X149483Y426855D01*
X149261Y427476D01*
D02*
G37*
G36*
X291851Y423473D02*
X290889Y422903D01*
X290882D01*
X290867Y422888D01*
X290815Y422859D01*
X290793Y422836D01*
X290771Y422814D01*
X290756Y422792D01*
Y422770D01*
X290764Y422762D01*
X290778Y422755D01*
X290793Y422740D01*
X290830Y422725D01*
X290867Y422711D01*
X290926Y422696D01*
X290993Y422674D01*
X291000D01*
X291030Y422659D01*
X291082Y422637D01*
X291141Y422600D01*
X291208Y422540D01*
X291252Y422503D01*
X291289Y422459D01*
X291333Y422400D01*
X291378Y422341D01*
X291422Y422267D01*
X291467Y422185D01*
X291474Y422170D01*
X291496Y422133D01*
X291526Y422082D01*
X291570Y422000D01*
X291629Y421904D01*
X291696Y421786D01*
X291770Y421652D01*
X291851Y421504D01*
X291948Y421349D01*
X292051Y421179D01*
X292162Y421001D01*
X292273Y420816D01*
X292525Y420424D01*
X292791Y420024D01*
X292799D01*
X292806Y420039D01*
X292828Y420054D01*
X292858Y420069D01*
X292895Y420098D01*
X292939Y420121D01*
X293043Y420187D01*
X293176Y420261D01*
X293339Y420343D01*
X293516Y420417D01*
X293724Y420491D01*
X293716Y420498D01*
X293709Y420505D01*
X293687Y420528D01*
X293664Y420550D01*
X293598Y420624D01*
X293502Y420727D01*
X293391Y420853D01*
X293265Y421009D01*
X293132Y421179D01*
X292984Y421371D01*
X292828Y421586D01*
X292673Y421815D01*
X292517Y422059D01*
X292362Y422318D01*
X292214Y422592D01*
X292081Y422881D01*
X291955Y423169D01*
X291851Y423473D01*
D02*
G37*
%LPD*%
G36*
X199166Y429223D02*
X196480D01*
Y431406D01*
X199166D01*
Y429223D01*
D02*
G37*
G36*
X193106D02*
X190405D01*
Y431406D01*
X193106D01*
Y429223D01*
D02*
G37*
G36*
X316738Y429704D02*
X312512D01*
Y431184D01*
X316738D01*
Y429704D01*
D02*
G37*
G36*
Y427447D02*
X312512D01*
Y428964D01*
X316738D01*
Y427447D01*
D02*
G37*
G36*
X164261Y428860D02*
X159798D01*
Y430880D01*
X164261D01*
Y428860D01*
D02*
G37*
G36*
Y426174D02*
X159798D01*
Y428090D01*
X164261D01*
Y426174D01*
D02*
G37*
G36*
X245720Y426966D02*
X242086D01*
Y429593D01*
X245720D01*
Y426966D01*
D02*
G37*
G36*
X241228D02*
X237299D01*
Y429593D01*
X241228D01*
Y426966D01*
D02*
G37*
G36*
X245720Y423532D02*
X242086D01*
Y426203D01*
X245720D01*
Y423532D01*
D02*
G37*
G36*
X241228D02*
X237299D01*
Y426203D01*
X241228D01*
Y423532D01*
D02*
G37*
G36*
X215039Y426966D02*
X211406D01*
Y429593D01*
X215039D01*
Y426966D01*
D02*
G37*
G36*
X210548D02*
X206618D01*
Y429593D01*
X210548D01*
Y426966D01*
D02*
G37*
G36*
X215039Y423532D02*
X211406D01*
Y426203D01*
X215039D01*
Y423532D01*
D02*
G37*
G36*
X210548D02*
X206618D01*
Y426203D01*
X210548D01*
Y423532D01*
D02*
G37*
G36*
X199285Y420705D02*
X196539D01*
Y423147D01*
X199285D01*
Y420705D01*
D02*
G37*
G36*
X193365D02*
X190434D01*
Y423118D01*
X193365D01*
Y420705D01*
D02*
G37*
G36*
X137080Y422740D02*
X132574D01*
Y425389D01*
X137080D01*
Y422740D01*
D02*
G37*
%LPC*%
G36*
X227409Y396282D02*
X227391D01*
X227372Y396278D01*
X227343Y396275D01*
X227309D01*
X227269Y396271D01*
X227224Y396267D01*
X227176Y396264D01*
X227073Y396256D01*
X226958Y396249D01*
X226843Y396241D01*
X226736Y396238D01*
X223883D01*
X223861Y396241D01*
X223798D01*
X223758Y396245D01*
X223717D01*
X223669Y396249D01*
X223617Y396252D01*
X223502Y396260D01*
X223380Y396271D01*
X223251Y396282D01*
Y396278D01*
Y396267D01*
X223254Y396245D01*
X223258Y396219D01*
Y396190D01*
X223262Y396153D01*
X223265Y396108D01*
X223269Y396064D01*
X223276Y395964D01*
X223284Y395853D01*
X223291Y395742D01*
X223295Y395631D01*
Y394758D01*
Y394754D01*
Y394747D01*
Y394728D01*
X223291Y394706D01*
Y394680D01*
Y394647D01*
X223288Y394610D01*
Y394569D01*
X223284Y394525D01*
X223280Y394473D01*
X223273Y394362D01*
X223262Y394240D01*
X223251Y394107D01*
X223265D01*
X223284Y394110D01*
X223310Y394114D01*
X223343D01*
X223380Y394118D01*
X223421Y394121D01*
X223469Y394125D01*
X223572Y394132D01*
X223684Y394140D01*
X223798Y394147D01*
X223917Y394151D01*
X226766D01*
X226795Y394147D01*
X226829D01*
X226869Y394144D01*
X226914D01*
X226962Y394140D01*
X227013Y394136D01*
X227073Y394132D01*
X227132Y394129D01*
X227265Y394118D01*
X227409Y394107D01*
Y394110D01*
X227406Y394121D01*
Y394140D01*
X227402Y394162D01*
X227398Y394192D01*
X227395Y394225D01*
X227391Y394266D01*
X227387Y394306D01*
X227380Y394354D01*
X227376Y394406D01*
X227369Y394514D01*
X227361Y394632D01*
X227358Y394750D01*
Y395623D01*
Y395627D01*
Y395638D01*
Y395653D01*
Y395675D01*
X227361Y395701D01*
Y395735D01*
X227365Y395772D01*
Y395816D01*
X227369Y395864D01*
X227372Y395912D01*
X227383Y396023D01*
X227395Y396149D01*
X227409Y396282D01*
D02*
G37*
G36*
X249543Y396182D02*
X249539D01*
X249524Y396179D01*
X249498D01*
X249465Y396175D01*
X249428Y396171D01*
X249384Y396167D01*
X249332Y396164D01*
X249276Y396160D01*
X249154Y396149D01*
X249025Y396142D01*
X248895Y396138D01*
X248773Y396134D01*
X245525D01*
X245488Y396138D01*
X245443D01*
X245399Y396142D01*
X245347D01*
X245295Y396145D01*
X245177Y396156D01*
X245055Y396167D01*
X244933Y396182D01*
Y395690D01*
X244936D01*
X244947Y395694D01*
X244966D01*
X244992Y395697D01*
X245021Y395701D01*
X245058Y395705D01*
X245099Y395709D01*
X245147Y395716D01*
X245199Y395720D01*
X245251Y395723D01*
X245366Y395731D01*
X245491Y395735D01*
X245617Y395738D01*
X246927D01*
X246583Y395553D01*
X246579D01*
X246572Y395550D01*
X246553Y395535D01*
X246542Y395524D01*
X246535Y395516D01*
X246531Y395505D01*
X246535Y395498D01*
X246538Y395494D01*
X246546Y395490D01*
X246553Y395483D01*
X246568Y395476D01*
X246586Y395468D01*
X246612Y395461D01*
X246642Y395453D01*
X246649D01*
X246668Y395446D01*
X246697Y395431D01*
X246734Y395413D01*
X246779Y395387D01*
X246820Y395350D01*
X246864Y395305D01*
X246905Y395246D01*
X246908Y395239D01*
X246919Y395224D01*
X246938Y395194D01*
X246964Y395150D01*
X247001Y395094D01*
X247045Y395028D01*
X247101Y394943D01*
X247164Y394847D01*
X247167Y394843D01*
X247175Y394835D01*
X247186Y394821D01*
X247193Y394810D01*
X246061D01*
X246020Y394813D01*
X245976D01*
X245928Y394817D01*
X245876D01*
X245817Y394821D01*
X245691Y394828D01*
X245554Y394839D01*
X245414Y394854D01*
Y394850D01*
X245417Y394835D01*
Y394817D01*
X245421Y394787D01*
X245425Y394754D01*
X245428Y394713D01*
X245432Y394669D01*
X245436Y394617D01*
X245443Y394565D01*
X245447Y394506D01*
X245454Y394384D01*
X245458Y394258D01*
X245462Y394129D01*
Y392797D01*
Y392793D01*
Y392782D01*
Y392763D01*
Y392741D01*
Y392712D01*
X245458Y392678D01*
Y392638D01*
X245454Y392589D01*
Y392541D01*
X245451Y392486D01*
X245447Y392430D01*
X245440Y392368D01*
X245428Y392234D01*
X245414Y392094D01*
X245417D01*
X245428Y392097D01*
X245447D01*
X245473Y392101D01*
X245506Y392105D01*
X245543Y392108D01*
X245587Y392112D01*
X245636Y392116D01*
X245687Y392120D01*
X245747Y392123D01*
X245869Y392131D01*
X246002Y392138D01*
X246783D01*
Y390210D01*
Y390207D01*
Y390196D01*
Y390173D01*
Y390147D01*
X246786Y390118D01*
X246790Y390085D01*
X246801Y390007D01*
X246823Y389922D01*
X246838Y389881D01*
X246860Y389840D01*
X246883Y389800D01*
X246908Y389766D01*
X246942Y389737D01*
X246979Y389711D01*
X246982D01*
X246990Y389703D01*
X247001Y389700D01*
X247023Y389689D01*
X247049Y389678D01*
X247082Y389667D01*
X247119Y389652D01*
X247167Y389637D01*
X247223Y389622D01*
X247289Y389604D01*
X247363Y389589D01*
X247445Y389574D01*
X247537Y389559D01*
X247641Y389544D01*
X247752Y389533D01*
X247878Y389522D01*
Y389526D01*
X247882Y389537D01*
Y389552D01*
X247889Y389574D01*
X247893Y389600D01*
X247904Y389633D01*
X247911Y389670D01*
X247922Y389711D01*
X247955Y389803D01*
X247996Y389907D01*
X248048Y390018D01*
X248115Y390136D01*
X248111D01*
X248100Y390133D01*
X248081Y390129D01*
X248059Y390122D01*
X248029Y390114D01*
X247996Y390107D01*
X247959Y390099D01*
X247919Y390092D01*
X247830Y390073D01*
X247737Y390059D01*
X247648Y390048D01*
X247563Y390044D01*
X247549D01*
X247530Y390048D01*
X247508D01*
X247478Y390051D01*
X247449Y390059D01*
X247382Y390077D01*
X247352Y390092D01*
X247319Y390110D01*
X247293Y390133D01*
X247267Y390159D01*
X247245Y390192D01*
X247234Y390229D01*
X247227Y390270D01*
Y390318D01*
Y392138D01*
X247907D01*
X247944Y392134D01*
X248033D01*
X248085Y392131D01*
X248141Y392127D01*
X248200Y392123D01*
X248266Y392120D01*
X248333Y392116D01*
X248407Y392108D01*
X248559Y392094D01*
Y392097D01*
X248555Y392108D01*
Y392131D01*
X248551Y392157D01*
X248548Y392186D01*
X248544Y392227D01*
X248540Y392268D01*
X248536Y392316D01*
X248533Y392368D01*
X248529Y392423D01*
X248522Y392541D01*
X248514Y392667D01*
Y392797D01*
Y394136D01*
Y394140D01*
Y394151D01*
Y394166D01*
Y394192D01*
Y394221D01*
X248518Y394254D01*
Y394295D01*
Y394340D01*
X248522Y394391D01*
X248525Y394447D01*
X248529Y394506D01*
X248533Y394569D01*
X248544Y394706D01*
X248559Y394854D01*
X248540D01*
X248518Y394850D01*
X248488Y394847D01*
X248451Y394843D01*
X248407Y394839D01*
X248359Y394835D01*
X248307Y394832D01*
X248252Y394828D01*
X248192Y394824D01*
X248066Y394817D01*
X247941Y394813D01*
X247815Y394810D01*
X247656D01*
X247652Y394813D01*
X247645Y394832D01*
X247630Y394858D01*
X247615Y394891D01*
X247593Y394932D01*
X247567Y394983D01*
X247537Y395039D01*
X247508Y395102D01*
X247475Y395168D01*
X247441Y395242D01*
X247408Y395320D01*
X247371Y395402D01*
X247301Y395568D01*
X247234Y395738D01*
X249051D01*
Y394266D01*
Y394262D01*
Y394243D01*
Y394217D01*
Y394184D01*
Y394140D01*
Y394088D01*
Y394029D01*
X249054Y393958D01*
Y393884D01*
X249058Y393807D01*
Y393718D01*
X249062Y393625D01*
X249065Y393529D01*
X249069Y393429D01*
X249073Y393322D01*
X249077Y393215D01*
X249091Y392989D01*
X249106Y392760D01*
X249125Y392523D01*
X249151Y392290D01*
X249177Y392057D01*
X249210Y391835D01*
X249228Y391731D01*
X249247Y391628D01*
X249269Y391528D01*
X249291Y391435D01*
Y391431D01*
X249295Y391424D01*
X249299Y391409D01*
X249302Y391391D01*
X249310Y391369D01*
X249317Y391339D01*
X249324Y391306D01*
X249336Y391269D01*
X249347Y391228D01*
X249361Y391183D01*
X249380Y391132D01*
X249395Y391080D01*
X249435Y390965D01*
X249484Y390836D01*
X249539Y390699D01*
X249602Y390554D01*
X249672Y390399D01*
X249754Y390240D01*
X249843Y390077D01*
X249939Y389914D01*
X250046Y389748D01*
X250164Y389581D01*
X250168Y389585D01*
X250175Y389589D01*
X250190Y389600D01*
X250213Y389611D01*
X250235Y389626D01*
X250264Y389644D01*
X250301Y389667D01*
X250338Y389685D01*
X250423Y389733D01*
X250523Y389781D01*
X250627Y389826D01*
X250742Y389866D01*
X250738Y389870D01*
X250734Y389874D01*
X250723Y389885D01*
X250708Y389896D01*
X250671Y389933D01*
X250623Y389981D01*
X250564Y390044D01*
X250497Y390118D01*
X250423Y390207D01*
X250346Y390303D01*
X250264Y390414D01*
X250183Y390532D01*
X250101Y390662D01*
X250020Y390799D01*
X249946Y390947D01*
X249876Y391102D01*
X249813Y391265D01*
X249761Y391435D01*
Y391439D01*
X249757Y391446D01*
X249754Y391461D01*
X249750Y391479D01*
X249743Y391502D01*
X249735Y391531D01*
X249728Y391568D01*
X249720Y391605D01*
X249709Y391653D01*
X249698Y391705D01*
X249687Y391761D01*
X249676Y391820D01*
X249665Y391890D01*
X249650Y391961D01*
X249639Y392038D01*
X249628Y392123D01*
X249613Y392212D01*
X249602Y392305D01*
X249591Y392405D01*
X249580Y392512D01*
X249565Y392623D01*
X249558Y392738D01*
X249547Y392860D01*
X249535Y392985D01*
X249528Y393119D01*
X249521Y393255D01*
X249513Y393400D01*
X249506Y393548D01*
X249502Y393700D01*
X249498Y393859D01*
Y394025D01*
Y394195D01*
Y395439D01*
Y395442D01*
Y395453D01*
Y395472D01*
Y395498D01*
Y395527D01*
X249502Y395568D01*
Y395609D01*
Y395657D01*
X249506Y395712D01*
X249510Y395768D01*
X249513Y395831D01*
X249517Y395894D01*
X249528Y396034D01*
X249543Y396182D01*
D02*
G37*
G36*
X251086Y396360D02*
X251082D01*
X251078Y396356D01*
X251067Y396349D01*
X251052Y396341D01*
X251015Y396315D01*
X250967Y396282D01*
X250904Y396241D01*
X250830Y396193D01*
X250745Y396138D01*
X250653Y396075D01*
X250557Y396008D01*
X250449Y395934D01*
X250338Y395857D01*
X250224Y395775D01*
X249987Y395601D01*
X249746Y395416D01*
X250061Y395054D01*
X250064D01*
X250068Y395061D01*
X250079Y395069D01*
X250090Y395080D01*
X250127Y395109D01*
X250179Y395146D01*
X250242Y395194D01*
X250316Y395250D01*
X250397Y395313D01*
X250486Y395383D01*
X250586Y395453D01*
X250690Y395531D01*
X250801Y395609D01*
X250916Y395686D01*
X251152Y395842D01*
X251274Y395919D01*
X251393Y395990D01*
X251086Y396360D01*
D02*
G37*
G36*
X220024Y396641D02*
X219447Y396567D01*
X219436D01*
X219410Y396560D01*
X219384Y396549D01*
X219377Y396537D01*
X219373Y396526D01*
Y396523D01*
X219380Y396504D01*
X219391Y396493D01*
X219403Y396478D01*
X219421Y396460D01*
X219447Y396441D01*
X219451Y396438D01*
X219465Y396419D01*
X219473Y396404D01*
X219484Y396386D01*
X219491Y396363D01*
X219502Y396338D01*
X219514Y396308D01*
X219525Y396271D01*
X219536Y396230D01*
X219547Y396186D01*
X219554Y396138D01*
X219562Y396082D01*
X219565Y396019D01*
X219569Y395953D01*
Y394902D01*
X218914D01*
X218885Y394906D01*
X218851D01*
X218811Y394909D01*
X218766D01*
X218722Y394913D01*
X218670Y394917D01*
X218615Y394920D01*
X218496Y394932D01*
X218363Y394946D01*
Y394473D01*
X218367D01*
X218381Y394477D01*
X218404D01*
X218429Y394480D01*
X218463Y394484D01*
X218503Y394488D01*
X218548Y394495D01*
X218592Y394499D01*
X218692Y394506D01*
X218796Y394514D01*
X218896Y394517D01*
X219569D01*
Y394088D01*
X219565D01*
X219562Y394081D01*
X219539Y394062D01*
X219506Y394033D01*
X219458Y393992D01*
X219399Y393940D01*
X219332Y393881D01*
X219255Y393811D01*
X219173Y393733D01*
X219081Y393648D01*
X218988Y393555D01*
X218888Y393459D01*
X218785Y393355D01*
X218677Y393248D01*
X218574Y393133D01*
X218363Y392900D01*
X218744Y392497D01*
X218748Y392504D01*
X218759Y392523D01*
X218781Y392552D01*
X218807Y392593D01*
X218840Y392645D01*
X218881Y392704D01*
X218929Y392771D01*
X218981Y392845D01*
X219040Y392926D01*
X219103Y393011D01*
X219169Y393104D01*
X219244Y393196D01*
X219318Y393296D01*
X219399Y393396D01*
X219569Y393596D01*
Y390262D01*
Y390259D01*
Y390251D01*
Y390236D01*
Y390214D01*
Y390188D01*
X219565Y390155D01*
Y390122D01*
X219562Y390077D01*
Y390033D01*
X219558Y389981D01*
X219554Y389926D01*
X219547Y389866D01*
X219543Y389803D01*
X219536Y389733D01*
X219521Y389589D01*
X220024D01*
Y389593D01*
X220021Y389607D01*
Y389630D01*
X220017Y389659D01*
X220013Y389696D01*
X220009Y389737D01*
X220006Y389781D01*
X220002Y389833D01*
X219995Y389940D01*
X219987Y390051D01*
X219980Y390162D01*
Y390214D01*
Y390262D01*
Y393466D01*
X219984Y393459D01*
X219987Y393444D01*
X219995Y393426D01*
X220002Y393404D01*
X220013Y393374D01*
X220024Y393341D01*
X220039Y393304D01*
X220054Y393263D01*
X220072Y393215D01*
X220109Y393115D01*
X220157Y393000D01*
X220209Y392871D01*
X220265Y392738D01*
X220328Y392593D01*
X220398Y392442D01*
X220472Y392286D01*
X220550Y392127D01*
X220635Y391968D01*
X220724Y391809D01*
X220816Y391650D01*
X220820Y391653D01*
X220827Y391657D01*
X220838Y391665D01*
X220857Y391679D01*
X220879Y391690D01*
X220905Y391709D01*
X220934Y391727D01*
X220968Y391746D01*
X221045Y391783D01*
X221138Y391824D01*
X221241Y391857D01*
X221356Y391886D01*
X221353Y391890D01*
X221345Y391898D01*
X221334Y391909D01*
X221319Y391927D01*
X221301Y391949D01*
X221279Y391979D01*
X221249Y392012D01*
X221219Y392049D01*
X221186Y392094D01*
X221149Y392142D01*
X221112Y392194D01*
X221071Y392253D01*
X221027Y392316D01*
X220983Y392386D01*
X220934Y392460D01*
X220883Y392541D01*
X220834Y392627D01*
X220783Y392715D01*
X220727Y392808D01*
X220675Y392908D01*
X220620Y393015D01*
X220564Y393126D01*
X220509Y393241D01*
X220457Y393363D01*
X220402Y393489D01*
X220346Y393618D01*
X220294Y393755D01*
X220239Y393899D01*
X220187Y394044D01*
X220139Y394195D01*
X220091Y394354D01*
X220043Y394517D01*
X220564D01*
X220590Y394514D01*
X220661D01*
X220701Y394510D01*
X220746Y394506D01*
X220797Y394502D01*
X220853Y394499D01*
X220912Y394495D01*
X220975Y394488D01*
X221042Y394480D01*
X221116Y394473D01*
Y394946D01*
X221097D01*
X221079Y394943D01*
X221053Y394939D01*
X221020Y394935D01*
X220983Y394932D01*
X220942Y394928D01*
X220897Y394924D01*
X220797Y394917D01*
X220694Y394909D01*
X220594Y394906D01*
X220501Y394902D01*
X219980D01*
Y396060D01*
Y396064D01*
Y396071D01*
Y396082D01*
Y396101D01*
Y396123D01*
X219984Y396149D01*
Y396182D01*
Y396216D01*
X219987Y396256D01*
X219991Y396301D01*
X219995Y396349D01*
X219998Y396400D01*
X220002Y396456D01*
X220009Y396512D01*
X220024Y396641D01*
D02*
G37*
G36*
X233810Y394280D02*
X233807D01*
X233792Y394277D01*
X233773D01*
X233744Y394273D01*
X233711Y394269D01*
X233670Y394266D01*
X233629Y394262D01*
X233581Y394258D01*
X233477Y394247D01*
X233370Y394240D01*
X233263Y394236D01*
X233167Y394232D01*
X230762D01*
X230747Y394236D01*
X230695D01*
X230665Y394240D01*
X230628D01*
X230584Y394243D01*
X230540Y394247D01*
X230484Y394251D01*
X230429Y394254D01*
X230366Y394262D01*
X230295Y394266D01*
X230221Y394273D01*
X230144Y394280D01*
Y393822D01*
X230162D01*
X230181Y393825D01*
X230207Y393829D01*
X230240D01*
X230281Y393833D01*
X230321Y393836D01*
X230369Y393840D01*
X230469Y393847D01*
X230577Y393855D01*
X230684Y393862D01*
X230784Y393866D01*
X233211D01*
X233237Y393862D01*
X233266D01*
X233303Y393859D01*
X233341D01*
X233385Y393855D01*
X233433Y393851D01*
X233488Y393847D01*
X233544Y393844D01*
X233607Y393840D01*
X233670Y393833D01*
X233810Y393822D01*
Y394280D01*
D02*
G37*
G36*
X214974Y396530D02*
X214674Y396012D01*
Y396008D01*
X214670Y396001D01*
X214659Y395979D01*
X214648Y395949D01*
X214644Y395919D01*
Y395916D01*
Y395912D01*
X214652Y395894D01*
X214655Y395890D01*
X214663Y395886D01*
X214674Y395879D01*
X214692Y395875D01*
X214696D01*
X214715Y395879D01*
X214741Y395886D01*
X214781Y395901D01*
X214785D01*
X214792Y395905D01*
X214804Y395908D01*
X214822Y395912D01*
X214844Y395916D01*
X214870Y395919D01*
X214900Y395923D01*
X214977D01*
X215014Y395919D01*
X215055Y395916D01*
X215103Y395908D01*
X215159Y395897D01*
X215218Y395886D01*
X215222D01*
X215229Y395883D01*
X215240D01*
X215259Y395879D01*
X215281Y395871D01*
X215307Y395868D01*
X215336Y395860D01*
X215373Y395853D01*
X215414Y395842D01*
X215458Y395834D01*
X215510Y395823D01*
X215566Y395812D01*
X215621Y395801D01*
X215688Y395790D01*
X215754Y395779D01*
X215825Y395764D01*
X215902Y395753D01*
X215980Y395738D01*
X216065Y395727D01*
X216154Y395712D01*
X216247Y395697D01*
X216343Y395686D01*
X216443Y395672D01*
X216546Y395657D01*
X216653Y395642D01*
X216764Y395631D01*
X216879Y395616D01*
X217001Y395601D01*
X217249Y395575D01*
X217512Y395553D01*
Y395550D01*
Y395538D01*
Y395524D01*
Y395501D01*
X217508Y395472D01*
Y395435D01*
Y395394D01*
Y395346D01*
X217505Y395290D01*
Y395231D01*
Y395165D01*
X217501Y395094D01*
Y395013D01*
Y394928D01*
X217497Y394839D01*
Y394743D01*
Y394739D01*
Y394724D01*
Y394706D01*
X217493Y394676D01*
Y394643D01*
X217490Y394606D01*
Y394562D01*
X217486Y394517D01*
Y394421D01*
X217482Y394325D01*
X217479Y394232D01*
Y394188D01*
Y394151D01*
X215281D01*
X215244Y394155D01*
X215199D01*
X215151Y394158D01*
X215100Y394162D01*
X215044Y394166D01*
X214985Y394173D01*
X214922Y394177D01*
X214852Y394188D01*
X214781Y394195D01*
Y394192D01*
X214785Y394177D01*
X214789Y394151D01*
X214796Y394118D01*
X214807Y394073D01*
X214818Y394025D01*
X214829Y393966D01*
X214844Y393899D01*
X214859Y393829D01*
X214878Y393751D01*
X214900Y393666D01*
X214922Y393577D01*
X214948Y393485D01*
X214974Y393385D01*
X215000Y393285D01*
X215033Y393178D01*
X215096Y392959D01*
X215170Y392734D01*
X215251Y392501D01*
X215340Y392271D01*
X215440Y392042D01*
X215544Y391824D01*
X215595Y391716D01*
X215654Y391613D01*
X215714Y391516D01*
X215773Y391420D01*
X215769Y391417D01*
X215766Y391413D01*
X215754Y391402D01*
X215740Y391383D01*
X215721Y391365D01*
X215703Y391343D01*
X215647Y391287D01*
X215581Y391220D01*
X215499Y391146D01*
X215403Y391061D01*
X215299Y390969D01*
X215181Y390873D01*
X215051Y390773D01*
X214914Y390673D01*
X214770Y390573D01*
X214615Y390477D01*
X214452Y390384D01*
X214282Y390296D01*
X214104Y390218D01*
X214108Y390214D01*
X214115Y390207D01*
X214130Y390196D01*
X214149Y390181D01*
X214171Y390159D01*
X214200Y390133D01*
X214226Y390103D01*
X214260Y390070D01*
X214293Y390033D01*
X214326Y389992D01*
X214393Y389900D01*
X214459Y389792D01*
X214515Y389674D01*
X214519Y389678D01*
X214526Y389681D01*
X214537Y389689D01*
X214552Y389700D01*
X214574Y389718D01*
X214600Y389733D01*
X214626Y389755D01*
X214659Y389781D01*
X214733Y389837D01*
X214822Y389903D01*
X214922Y389981D01*
X215029Y390066D01*
X215144Y390159D01*
X215266Y390262D01*
X215395Y390370D01*
X215525Y390484D01*
X215658Y390603D01*
X215795Y390725D01*
X215928Y390854D01*
X216058Y390984D01*
Y390980D01*
X216065Y390976D01*
X216076Y390965D01*
X216087Y390950D01*
X216106Y390932D01*
X216124Y390910D01*
X216176Y390854D01*
X216239Y390788D01*
X216317Y390706D01*
X216409Y390617D01*
X216517Y390517D01*
X216631Y390414D01*
X216761Y390299D01*
X216905Y390181D01*
X217057Y390059D01*
X217223Y389937D01*
X217401Y389811D01*
X217586Y389685D01*
X217786Y389559D01*
Y389563D01*
X217793Y389570D01*
X217804Y389585D01*
X217815Y389607D01*
X217834Y389630D01*
X217856Y389659D01*
X217882Y389689D01*
X217915Y389722D01*
X217949Y389759D01*
X217989Y389796D01*
X218034Y389833D01*
X218082Y389874D01*
X218137Y389911D01*
X218193Y389948D01*
X218259Y389985D01*
X218326Y390018D01*
X218322D01*
X218311Y390022D01*
X218296Y390029D01*
X218270Y390037D01*
X218245Y390048D01*
X218208Y390062D01*
X218170Y390077D01*
X218126Y390096D01*
X218074Y390114D01*
X218022Y390136D01*
X217963Y390162D01*
X217904Y390192D01*
X217771Y390259D01*
X217627Y390333D01*
X217475Y390418D01*
X217316Y390517D01*
X217153Y390629D01*
X216990Y390747D01*
X216827Y390884D01*
X216668Y391028D01*
X216517Y391187D01*
X216372Y391357D01*
Y391361D01*
X216380Y391369D01*
X216387Y391380D01*
X216398Y391398D01*
X216413Y391424D01*
X216431Y391450D01*
X216454Y391487D01*
X216476Y391524D01*
X216502Y391568D01*
X216528Y391616D01*
X216557Y391668D01*
X216591Y391724D01*
X216624Y391787D01*
X216657Y391853D01*
X216694Y391927D01*
X216731Y392001D01*
X216768Y392083D01*
X216809Y392164D01*
X216850Y392253D01*
X216890Y392349D01*
X216931Y392445D01*
X216972Y392545D01*
X217016Y392649D01*
X217057Y392760D01*
X217097Y392871D01*
X217138Y392989D01*
X217179Y393108D01*
X217220Y393233D01*
X217294Y393492D01*
X217368Y393766D01*
X217479D01*
Y393759D01*
Y393740D01*
Y393707D01*
X217482Y393663D01*
Y393603D01*
X217486Y393537D01*
X217493Y393459D01*
X217497Y393370D01*
X217508Y393274D01*
X217519Y393167D01*
X217530Y393052D01*
X217549Y392934D01*
X217567Y392804D01*
X217590Y392671D01*
X217616Y392530D01*
X217645Y392382D01*
X217678Y392234D01*
X217715Y392079D01*
X217760Y391920D01*
X217804Y391761D01*
X217860Y391598D01*
X217915Y391435D01*
X217978Y391269D01*
X218048Y391102D01*
X218122Y390939D01*
X218204Y390773D01*
X218289Y390610D01*
X218385Y390447D01*
X218485Y390288D01*
X218592Y390133D01*
X218711Y389977D01*
X218833Y389829D01*
X218836Y389833D01*
X218844Y389837D01*
X218859Y389848D01*
X218881Y389863D01*
X218907Y389877D01*
X218936Y389896D01*
X218970Y389918D01*
X219007Y389940D01*
X219095Y389985D01*
X219192Y390029D01*
X219299Y390070D01*
X219414Y390103D01*
X219410Y390107D01*
X219399Y390118D01*
X219380Y390136D01*
X219355Y390159D01*
X219321Y390192D01*
X219284Y390229D01*
X219240Y390273D01*
X219192Y390325D01*
X219140Y390384D01*
X219084Y390447D01*
X219025Y390521D01*
X218966Y390599D01*
X218899Y390684D01*
X218836Y390776D01*
X218770Y390876D01*
X218700Y390980D01*
X218633Y391095D01*
X218566Y391213D01*
X218500Y391335D01*
X218433Y391468D01*
X218370Y391605D01*
X218311Y391750D01*
X218252Y391901D01*
X218196Y392060D01*
X218148Y392223D01*
X218100Y392393D01*
X218059Y392567D01*
X218022Y392752D01*
X217993Y392941D01*
X217967Y393137D01*
X217952Y393337D01*
X217941Y393544D01*
Y393548D01*
Y393563D01*
Y393588D01*
X217937Y393622D01*
Y393659D01*
Y393707D01*
X217934Y393759D01*
Y393818D01*
Y393881D01*
X217930Y393947D01*
Y394088D01*
X217926Y394236D01*
Y394384D01*
Y394388D01*
Y394395D01*
Y394406D01*
Y394425D01*
Y394443D01*
Y394469D01*
Y394502D01*
Y394536D01*
Y394576D01*
Y394621D01*
X217930Y394669D01*
Y394721D01*
Y394776D01*
Y394839D01*
X217934Y394902D01*
Y394972D01*
Y394976D01*
Y394980D01*
Y394991D01*
Y395002D01*
X217937Y395039D01*
Y395087D01*
X217941Y395146D01*
X217945Y395216D01*
X217949Y395290D01*
X217952Y395372D01*
X217956Y395453D01*
X217963Y395542D01*
X217974Y395716D01*
X217982Y395801D01*
X217993Y395879D01*
X218000Y395956D01*
X218011Y396023D01*
X217974D01*
X217934Y396019D01*
X217882D01*
X217819Y396016D01*
X217752D01*
X217608Y396012D01*
X217545D01*
X217512Y396016D01*
X217427D01*
X217371Y396019D01*
X217316Y396023D01*
X217249Y396027D01*
X217179Y396034D01*
X217105Y396038D01*
X217027Y396045D01*
X216942Y396056D01*
X216853Y396064D01*
X216761Y396079D01*
X216565Y396105D01*
X216357Y396138D01*
X216139Y396182D01*
X215914Y396230D01*
X215684Y396289D01*
X215447Y396360D01*
X215211Y396438D01*
X214974Y396530D01*
D02*
G37*
G36*
X228756Y393529D02*
X228741D01*
X228719Y393526D01*
X228693Y393522D01*
X228664D01*
X228627Y393518D01*
X228582Y393514D01*
X228538Y393511D01*
X228434Y393503D01*
X228320Y393496D01*
X228201Y393489D01*
X228083Y393485D01*
X222592D01*
X222566Y393489D01*
X222503D01*
X222466Y393492D01*
X222422D01*
X222374Y393496D01*
X222326Y393500D01*
X222215Y393507D01*
X222096Y393518D01*
X221970Y393529D01*
Y393052D01*
X221985D01*
X222004Y393056D01*
X222030Y393059D01*
X222059D01*
X222093Y393063D01*
X222133Y393067D01*
X222178Y393071D01*
X222277Y393078D01*
X222389Y393085D01*
X222503Y393093D01*
X222622Y393096D01*
X226077D01*
Y393093D01*
X226085Y393082D01*
X226092Y393063D01*
X226107Y393037D01*
X226122Y393004D01*
X226140Y392963D01*
X226159Y392919D01*
X226181Y392867D01*
X226207Y392811D01*
X226233Y392749D01*
X226262Y392678D01*
X226296Y392608D01*
X226325Y392530D01*
X226359Y392449D01*
X226392Y392360D01*
X226429Y392271D01*
X223558D01*
X223535Y392275D01*
X223473D01*
X223432Y392279D01*
X223391D01*
X223343Y392282D01*
X223291Y392286D01*
X223180Y392294D01*
X223058Y392305D01*
X222929Y392316D01*
Y392312D01*
X222932Y392305D01*
Y392286D01*
X222936Y392268D01*
X222940Y392242D01*
X222947Y392208D01*
X222951Y392175D01*
X222958Y392134D01*
X222966Y392090D01*
X222969Y392046D01*
X222984Y391942D01*
X222999Y391831D01*
X223010Y391713D01*
Y391709D01*
Y391698D01*
X223014Y391679D01*
Y391657D01*
X223018Y391624D01*
X223021Y391590D01*
X223029Y391550D01*
X223032Y391502D01*
X223040Y391454D01*
X223047Y391398D01*
X223066Y391280D01*
X223088Y391154D01*
X223114Y391021D01*
X223147Y390884D01*
X223184Y390747D01*
X223225Y390614D01*
X223273Y390484D01*
X223328Y390370D01*
X223358Y390318D01*
X223388Y390270D01*
X223421Y390225D01*
X223458Y390184D01*
X223495Y390151D01*
X223532Y390122D01*
X223535Y390118D01*
X223554Y390107D01*
X223584Y390085D01*
X223606Y390073D01*
X223628Y390062D01*
X223658Y390048D01*
X223687Y390033D01*
X223724Y390014D01*
X223769Y390000D01*
X223813Y389981D01*
X223865Y389963D01*
X223920Y389944D01*
X223983Y389926D01*
X224050Y389907D01*
X224124Y389885D01*
X224201Y389866D01*
X224287Y389848D01*
X224379Y389829D01*
X224475Y389811D01*
X224583Y389796D01*
X224694Y389777D01*
X224812Y389763D01*
X224938Y389748D01*
X225071Y389733D01*
X225212Y389722D01*
X225360Y389711D01*
X225519Y389703D01*
X225681Y389696D01*
X225855Y389689D01*
Y389692D01*
Y389703D01*
X225859Y389718D01*
X225863Y389740D01*
X225867Y389770D01*
X225870Y389803D01*
X225878Y389840D01*
X225885Y389881D01*
X225907Y389970D01*
X225933Y390070D01*
X225970Y390177D01*
X226018Y390281D01*
X226014D01*
X226000Y390277D01*
X225977Y390273D01*
X225944Y390270D01*
X225907Y390262D01*
X225863Y390259D01*
X225811Y390251D01*
X225752Y390244D01*
X225689Y390236D01*
X225622Y390229D01*
X225552Y390225D01*
X225478Y390218D01*
X225319Y390210D01*
X225156Y390207D01*
X225060D01*
X225008Y390210D01*
X224953D01*
X224890Y390214D01*
X224819Y390218D01*
X224812D01*
X224790Y390222D01*
X224760Y390225D01*
X224716Y390229D01*
X224664Y390236D01*
X224601Y390244D01*
X224535Y390255D01*
X224464Y390266D01*
X224312Y390292D01*
X224157Y390329D01*
X224083Y390351D01*
X224013Y390373D01*
X223946Y390399D01*
X223887Y390425D01*
X223883Y390429D01*
X223868Y390440D01*
X223850Y390455D01*
X223824Y390484D01*
X223791Y390521D01*
X223758Y390569D01*
X223721Y390629D01*
X223680Y390703D01*
X223661Y390743D01*
X223643Y390791D01*
X223624Y390839D01*
X223606Y390891D01*
X223587Y390950D01*
X223569Y391013D01*
X223554Y391076D01*
X223535Y391146D01*
X223524Y391224D01*
X223510Y391302D01*
X223499Y391387D01*
X223487Y391476D01*
X223480Y391572D01*
X223473Y391672D01*
X223469Y391775D01*
X223465Y391886D01*
X226510D01*
X226540Y391883D01*
X226573D01*
X226610Y391879D01*
X226655D01*
X226703Y391875D01*
X226754Y391872D01*
X226814Y391868D01*
X226877Y391864D01*
X226943Y391857D01*
X227013Y391853D01*
X227091Y391846D01*
X227169Y391838D01*
Y391842D01*
X227165Y391846D01*
X227154Y391868D01*
X227136Y391901D01*
X227113Y391949D01*
X227084Y392009D01*
X227050Y392075D01*
X227013Y392153D01*
X226973Y392242D01*
X226928Y392334D01*
X226884Y392430D01*
X226840Y392538D01*
X226795Y392645D01*
X226706Y392867D01*
X226625Y393096D01*
X228135D01*
X228164Y393093D01*
X228198D01*
X228235Y393089D01*
X228279D01*
X228327Y393085D01*
X228379Y393082D01*
X228434Y393078D01*
X228493Y393074D01*
X228619Y393063D01*
X228756Y393052D01*
Y393529D01*
D02*
G37*
G36*
X251611Y394473D02*
X251607D01*
X251604Y394469D01*
X251593Y394462D01*
X251582Y394451D01*
X251541Y394428D01*
X251493Y394395D01*
X251430Y394354D01*
X251356Y394303D01*
X251274Y394247D01*
X251182Y394184D01*
X251086Y394118D01*
X250978Y394044D01*
X250871Y393966D01*
X250756Y393884D01*
X250520Y393714D01*
X250279Y393537D01*
X250553Y393156D01*
X250560Y393163D01*
X250579Y393178D01*
X250612Y393204D01*
X250660Y393241D01*
X250716Y393285D01*
X250782Y393337D01*
X250860Y393396D01*
X250945Y393463D01*
X251038Y393533D01*
X251141Y393611D01*
X251249Y393688D01*
X251363Y393770D01*
X251482Y393851D01*
X251607Y393936D01*
X251737Y394021D01*
X251866Y394107D01*
X251611Y394473D01*
D02*
G37*
G36*
X233810Y393156D02*
X233792D01*
X233773Y393152D01*
X233744Y393148D01*
X233711Y393144D01*
X233674Y393141D01*
X233629Y393137D01*
X233581Y393133D01*
X233481Y393122D01*
X233374Y393115D01*
X233266Y393108D01*
X233167Y393104D01*
X230758D01*
X230739Y393108D01*
X230688D01*
X230654Y393111D01*
X230617Y393115D01*
X230573D01*
X230525Y393119D01*
X230473Y393122D01*
X230414Y393130D01*
X230355Y393133D01*
X230288Y393141D01*
X230218Y393148D01*
X230144Y393156D01*
Y392693D01*
X230162D01*
X230184Y392697D01*
X230210Y392701D01*
X230244D01*
X230284Y392704D01*
X230329Y392708D01*
X230377Y392712D01*
X230480Y392719D01*
X230584Y392726D01*
X230688Y392734D01*
X230739Y392738D01*
X233207D01*
X233229Y392734D01*
X233255D01*
X233289Y392730D01*
X233326D01*
X233370Y392726D01*
X233418Y392723D01*
X233470Y392719D01*
X233529Y392715D01*
X233592Y392712D01*
X233659Y392704D01*
X233733Y392701D01*
X233810Y392693D01*
Y393156D01*
D02*
G37*
G36*
X238783Y394525D02*
X238779Y394521D01*
X238772Y394506D01*
X238761Y394484D01*
X238746Y394451D01*
X238724Y394410D01*
X238702Y394362D01*
X238672Y394306D01*
X238643Y394243D01*
X238606Y394173D01*
X238569Y394099D01*
X238528Y394014D01*
X238484Y393925D01*
X238439Y393829D01*
X238391Y393729D01*
X238339Y393622D01*
X238287Y393511D01*
X238232Y393392D01*
X238176Y393274D01*
X238121Y393148D01*
X238062Y393019D01*
X237943Y392752D01*
X237825Y392475D01*
X237703Y392190D01*
X237584Y391894D01*
X237466Y391598D01*
X237355Y391298D01*
X237832Y391058D01*
Y391061D01*
X237840Y391076D01*
X237847Y391102D01*
X237858Y391135D01*
X237869Y391180D01*
X237888Y391228D01*
X237906Y391287D01*
X237929Y391354D01*
X237954Y391428D01*
X237984Y391509D01*
X238014Y391594D01*
X238047Y391690D01*
X238084Y391787D01*
X238125Y391894D01*
X238165Y392001D01*
X238210Y392116D01*
X238258Y392234D01*
X238306Y392356D01*
X238413Y392615D01*
X238532Y392882D01*
X238657Y393156D01*
X238794Y393441D01*
X238939Y393722D01*
X239094Y394007D01*
X239257Y394288D01*
X238783Y394525D01*
D02*
G37*
G36*
X242883Y394632D02*
X242217Y394417D01*
X242213D01*
X242206Y394414D01*
X242183Y394403D01*
X242165Y394388D01*
X242158Y394380D01*
Y394373D01*
Y394366D01*
X242165Y394351D01*
X242176Y394340D01*
X242187Y394325D01*
X242206Y394310D01*
X242232Y394295D01*
X242235D01*
X242243Y394288D01*
X242254Y394280D01*
X242269Y394269D01*
X242287Y394251D01*
X242309Y394229D01*
X242332Y394203D01*
X242357Y394173D01*
X242383Y394136D01*
X242409Y394095D01*
X242435Y394047D01*
X242461Y393995D01*
X242487Y393933D01*
X242513Y393866D01*
X242535Y393792D01*
X242553Y393711D01*
Y393707D01*
X242557Y393692D01*
X242565Y393670D01*
X242572Y393637D01*
X242583Y393600D01*
X242594Y393551D01*
X242609Y393500D01*
X242624Y393437D01*
X242646Y393370D01*
X242665Y393296D01*
X242687Y393218D01*
X242713Y393133D01*
X242742Y393045D01*
X242768Y392952D01*
X242801Y392856D01*
X242835Y392752D01*
X242909Y392541D01*
X242986Y392319D01*
X243075Y392090D01*
X243171Y391853D01*
X243275Y391620D01*
X243386Y391387D01*
X243501Y391161D01*
X243626Y390943D01*
X243630D01*
X243641Y390950D01*
X243656Y390954D01*
X243678Y390965D01*
X243704Y390976D01*
X243738Y390987D01*
X243775Y391002D01*
X243815Y391021D01*
X243908Y391054D01*
X244008Y391087D01*
X244119Y391121D01*
X244233Y391150D01*
X244230Y391154D01*
X244222Y391161D01*
X244211Y391172D01*
X244193Y391191D01*
X244170Y391213D01*
X244145Y391243D01*
X244115Y391276D01*
X244082Y391317D01*
X244045Y391361D01*
X244008Y391417D01*
X243963Y391476D01*
X243919Y391542D01*
X243871Y391616D01*
X243823Y391698D01*
X243771Y391787D01*
X243719Y391883D01*
X243664Y391986D01*
X243612Y392097D01*
X243556Y392219D01*
X243497Y392349D01*
X243442Y392486D01*
X243386Y392634D01*
X243331Y392789D01*
X243275Y392952D01*
X243219Y393126D01*
X243168Y393311D01*
X243116Y393507D01*
X243064Y393711D01*
X243016Y393925D01*
X242968Y394151D01*
X242923Y394384D01*
X242883Y394632D01*
D02*
G37*
G36*
X246057Y391672D02*
X246054D01*
X246050Y391665D01*
X246031Y391642D01*
X245998Y391609D01*
X245954Y391561D01*
X245898Y391502D01*
X245835Y391431D01*
X245761Y391350D01*
X245680Y391261D01*
X245595Y391165D01*
X245502Y391061D01*
X245406Y390950D01*
X245306Y390836D01*
X245203Y390717D01*
X245099Y390592D01*
X244888Y390340D01*
X245284Y390011D01*
Y390014D01*
X245291Y390018D01*
X245299Y390029D01*
X245310Y390044D01*
X245325Y390062D01*
X245343Y390085D01*
X245384Y390140D01*
X245436Y390207D01*
X245499Y390288D01*
X245569Y390373D01*
X245647Y390469D01*
X245728Y390573D01*
X245821Y390684D01*
X245913Y390795D01*
X246013Y390910D01*
X246217Y391146D01*
X246320Y391261D01*
X246424Y391372D01*
X246057Y391672D01*
D02*
G37*
G36*
X248244Y391779D02*
X247778Y391539D01*
X247771Y391535D01*
X247756Y391528D01*
X247737Y391520D01*
X247711Y391505D01*
X247689Y391491D01*
X247667Y391476D01*
X247652Y391461D01*
X247648Y391450D01*
Y391446D01*
X247652Y391439D01*
X247656Y391431D01*
X247667Y391420D01*
X247685Y391409D01*
X247711Y391394D01*
X247748Y391380D01*
X247752D01*
X247756Y391376D01*
X247767Y391372D01*
X247778Y391369D01*
X247815Y391350D01*
X247837Y391335D01*
X247863Y391317D01*
X247889Y391295D01*
X247919Y391269D01*
X247948Y391239D01*
X247978Y391202D01*
X248011Y391161D01*
X248044Y391117D01*
X248081Y391065D01*
X248115Y391006D01*
X248118Y390999D01*
X248129Y390980D01*
X248148Y390950D01*
X248174Y390910D01*
X248203Y390862D01*
X248240Y390802D01*
X248285Y390736D01*
X248337Y390662D01*
X248392Y390580D01*
X248451Y390492D01*
X248518Y390403D01*
X248588Y390307D01*
X248662Y390207D01*
X248744Y390107D01*
X248825Y390007D01*
X248914Y389903D01*
X248918Y389907D01*
X248921Y389911D01*
X248936Y389918D01*
X248951Y389929D01*
X248969Y389944D01*
X248995Y389959D01*
X249021Y389977D01*
X249054Y389996D01*
X249125Y390040D01*
X249214Y390092D01*
X249310Y390144D01*
X249417Y390196D01*
X249413D01*
X249410Y390199D01*
X249398Y390207D01*
X249387Y390218D01*
X249350Y390244D01*
X249302Y390284D01*
X249239Y390333D01*
X249173Y390395D01*
X249095Y390473D01*
X249010Y390562D01*
X248918Y390662D01*
X248825Y390776D01*
X248729Y390906D01*
X248677Y390976D01*
X248629Y391050D01*
X248581Y391128D01*
X248529Y391209D01*
X248481Y391295D01*
X248433Y391383D01*
X248385Y391476D01*
X248337Y391572D01*
X248288Y391676D01*
X248244Y391779D01*
D02*
G37*
G36*
X250623Y392760D02*
Y392756D01*
X250616Y392749D01*
X250608Y392734D01*
X250601Y392719D01*
X250586Y392693D01*
X250571Y392667D01*
X250531Y392604D01*
X250483Y392530D01*
X250423Y392445D01*
X250357Y392356D01*
X250279Y392264D01*
X250283Y392260D01*
X250287Y392245D01*
X250298Y392223D01*
X250309Y392194D01*
X250327Y392157D01*
X250349Y392112D01*
X250372Y392060D01*
X250397Y392005D01*
X250427Y391938D01*
X250457Y391872D01*
X250494Y391794D01*
X250527Y391716D01*
X250568Y391631D01*
X250608Y391542D01*
X250649Y391450D01*
X250693Y391354D01*
X250782Y391150D01*
X250879Y390939D01*
X250975Y390721D01*
X251075Y390503D01*
X251171Y390281D01*
X251267Y390062D01*
X251363Y389848D01*
X251452Y389644D01*
X251944Y389966D01*
X251940Y389970D01*
X251937Y389981D01*
X251926Y389996D01*
X251911Y390018D01*
X251892Y390048D01*
X251874Y390081D01*
X251848Y390122D01*
X251818Y390166D01*
X251789Y390218D01*
X251755Y390277D01*
X251718Y390340D01*
X251681Y390406D01*
X251641Y390480D01*
X251596Y390562D01*
X251552Y390647D01*
X251504Y390736D01*
X251452Y390828D01*
X251404Y390928D01*
X251352Y391032D01*
X251297Y391139D01*
X251245Y391254D01*
X251189Y391369D01*
X251134Y391491D01*
X251075Y391616D01*
X251019Y391746D01*
X250964Y391879D01*
X250904Y392016D01*
X250849Y392160D01*
X250734Y392453D01*
X250623Y392760D01*
D02*
G37*
G36*
X240922Y396530D02*
X240322Y396441D01*
X240319D01*
X240311Y396438D01*
X240297Y396434D01*
X240282Y396430D01*
X240252Y396419D01*
X240245Y396412D01*
X240237Y396404D01*
Y396400D01*
X240241Y396386D01*
X240248Y396375D01*
X240256Y396363D01*
X240271Y396345D01*
X240293Y396326D01*
X240300Y396323D01*
X240315Y396304D01*
X240326Y396289D01*
X240337Y396275D01*
X240348Y396252D01*
X240359Y396227D01*
X240374Y396197D01*
X240385Y396164D01*
X240396Y396123D01*
X240407Y396079D01*
X240419Y396027D01*
X240422Y395971D01*
X240430Y395908D01*
Y395842D01*
Y390218D01*
Y390214D01*
Y390203D01*
Y390184D01*
Y390162D01*
X240433Y390133D01*
X240437Y390099D01*
X240448Y390029D01*
X240474Y389948D01*
X240489Y389911D01*
X240511Y389870D01*
X240537Y389837D01*
X240563Y389803D01*
X240596Y389774D01*
X240637Y389748D01*
X240641D01*
X240648Y389740D01*
X240659Y389737D01*
X240681Y389726D01*
X240707Y389715D01*
X240740Y389703D01*
X240785Y389689D01*
X240833Y389670D01*
X240896Y389655D01*
X240966Y389637D01*
X241044Y389618D01*
X241136Y389600D01*
X241240Y389578D01*
X241355Y389559D01*
X241480Y389541D01*
X241621Y389522D01*
Y389526D01*
X241625Y389541D01*
X241629Y389563D01*
X241636Y389589D01*
X241643Y389622D01*
X241654Y389663D01*
X241669Y389707D01*
X241684Y389752D01*
X241717Y389855D01*
X241762Y389963D01*
X241813Y390066D01*
X241843Y390114D01*
X241873Y390159D01*
X241869D01*
X241858Y390155D01*
X241836D01*
X241810Y390151D01*
X241780Y390144D01*
X241743Y390140D01*
X241706Y390136D01*
X241662Y390129D01*
X241569Y390118D01*
X241473Y390110D01*
X241377Y390103D01*
X241333Y390099D01*
X241240D01*
X241207Y390103D01*
X241133Y390110D01*
X241099Y390118D01*
X241066Y390129D01*
X241062D01*
X241059Y390133D01*
X241037Y390144D01*
X241003Y390162D01*
X240966Y390192D01*
X240948Y390214D01*
X240933Y390240D01*
X240914Y390270D01*
X240900Y390303D01*
X240889Y390340D01*
X240881Y390384D01*
X240874Y390432D01*
Y390488D01*
Y395812D01*
Y395816D01*
Y395823D01*
Y395842D01*
Y395860D01*
X240877Y395890D01*
Y395923D01*
X240881Y395960D01*
Y396005D01*
X240885Y396053D01*
X240889Y396105D01*
X240892Y396164D01*
X240896Y396230D01*
X240903Y396297D01*
X240907Y396371D01*
X240914Y396449D01*
X240922Y396530D01*
D02*
G37*
%LPD*%
G36*
X226947Y394532D02*
X223706D01*
Y395849D01*
X226947D01*
Y394532D01*
D02*
G37*
G36*
X248070Y393666D02*
X245906D01*
Y394410D01*
X248070D01*
Y393666D01*
D02*
G37*
G36*
Y392541D02*
X245906D01*
Y393267D01*
X248070D01*
Y392541D01*
D02*
G37*
G36*
X216861Y393762D02*
X216857Y393751D01*
X216853Y393737D01*
X216850Y393714D01*
X216842Y393685D01*
X216831Y393651D01*
X216824Y393614D01*
X216813Y393570D01*
X216798Y393522D01*
X216783Y393470D01*
X216768Y393411D01*
X216750Y393352D01*
X216709Y393218D01*
X216665Y393078D01*
X216613Y392926D01*
X216554Y392767D01*
X216487Y392601D01*
X216417Y392438D01*
X216339Y392271D01*
X216258Y392105D01*
X216169Y391946D01*
X216073Y391794D01*
Y391798D01*
X216065Y391805D01*
X216061Y391816D01*
X216050Y391831D01*
X216039Y391849D01*
X216024Y391875D01*
X216006Y391905D01*
X215987Y391935D01*
X215969Y391972D01*
X215947Y392012D01*
X215925Y392057D01*
X215899Y392108D01*
X215873Y392160D01*
X215847Y392216D01*
X215791Y392338D01*
X215732Y392475D01*
X215669Y392623D01*
X215610Y392786D01*
X215551Y392959D01*
X215495Y393144D01*
X215440Y393344D01*
X215392Y393548D01*
X215347Y393766D01*
X216861D01*
Y393762D01*
D02*
G37*
D91*
X144500Y319693D02*
Y367100D01*
X135500Y328000D02*
X152700D01*
X135500Y338000D02*
X152700D01*
X135500Y348000D02*
X152700D01*
X135500Y358000D02*
X152700D01*
M02*
