G04*
G04 #@! TF.GenerationSoftware,Altium Limited,Altium Designer,22.3.1 (43)*
G04*
G04 Layer_Color=16711935*
%FSLAX25Y25*%
%MOIN*%
G70*
G04*
G04 #@! TF.SameCoordinates,858DE3B6-85AC-4B40-B280-C04C9E7F73BC*
G04*
G04*
G04 #@! TF.FilePolarity,Positive*
G04*
G01*
G75*
%ADD12C,0.00787*%
%ADD19C,0.00394*%
D12*
X275315Y22421D02*
Y192500D01*
X233976D02*
X275315D01*
X233976Y22421D02*
Y192500D01*
Y22421D02*
X275315D01*
X224482D02*
Y192500D01*
X183143D02*
X224482D01*
X183143Y22421D02*
Y192500D01*
Y22421D02*
X224482D01*
X250815Y260579D02*
Y430658D01*
X209476D02*
X250815D01*
X209476Y260579D02*
Y430658D01*
Y260579D02*
X250815D01*
X173648Y22421D02*
Y192500D01*
X132310D02*
X173648D01*
X132310Y22421D02*
Y192500D01*
Y22421D02*
X173648D01*
X81476D02*
X122815D01*
X81476D02*
Y192500D01*
X122815D01*
Y22421D02*
Y192500D01*
X200315Y258421D02*
Y428500D01*
X158976D02*
X200315D01*
X158976Y258421D02*
Y428500D01*
Y258421D02*
X200315D01*
D19*
X56468Y219000D02*
X56205Y219984D01*
X55484Y220705D01*
X54500Y220969D01*
X53516Y220705D01*
X52795Y219984D01*
X52531Y219000D01*
X52795Y218016D01*
X53516Y217295D01*
X54500Y217032D01*
X55484Y217295D01*
X56205Y218016D01*
X56468Y219000D01*
X51413Y202157D02*
Y221843D01*
X65587Y202157D02*
Y221843D01*
X51413D02*
X65587D01*
X51413Y202157D02*
X65587D01*
X192811Y540217D02*
X219189D01*
X192811Y554784D02*
X219189D01*
X192811Y540217D02*
Y554784D01*
X219189Y540217D02*
Y554784D01*
M02*
