G04*
G04 #@! TF.GenerationSoftware,Altium Limited,Altium Designer,22.3.1 (43)*
G04*
G04 Layer_Color=2752767*
%FSLAX25Y25*%
%MOIN*%
G70*
G04*
G04 #@! TF.SameCoordinates,858DE3B6-85AC-4B40-B280-C04C9E7F73BC*
G04*
G04*
G04 #@! TF.FilePolarity,Positive*
G04*
G01*
G75*
%ADD115C,0.00200*%
%ADD116C,0.00267*%
%ADD117C,0.00133*%
D115*
X475700Y557700D02*
Y559300D01*
X477300D01*
Y557700D01*
X475700D01*
Y407200D02*
Y408800D01*
X477300D01*
Y407200D01*
X475700D01*
X326200Y557700D02*
Y559300D01*
X327800D01*
Y557700D01*
X326200D01*
Y407200D02*
Y408800D01*
X327800D01*
Y407200D01*
X326200D01*
X475700Y375950D02*
Y377550D01*
X477300D01*
Y375950D01*
X475700D01*
Y225450D02*
Y227050D01*
X477300D01*
Y225450D01*
X475700D01*
X326200Y375950D02*
Y377550D01*
X327800D01*
Y375950D01*
X326200D01*
Y225450D02*
Y227050D01*
X327800D01*
Y225450D01*
X326200D01*
X88000Y370200D02*
X87200Y371800D01*
X88800D01*
X88000Y370200D01*
X78000Y350200D02*
X77200Y351800D01*
X78800D01*
X78000Y350200D01*
X88000Y390200D02*
X87200Y391800D01*
X88800D01*
X88000Y390200D01*
X78000D02*
X77200Y391800D01*
X78800D01*
X78000Y390200D01*
X88000Y350200D02*
X87200Y351800D01*
X88800D01*
X88000Y350200D01*
X78000Y370200D02*
X77200Y371800D01*
X78800D01*
X78000Y370200D01*
X88000Y380200D02*
X87200Y381800D01*
X88800D01*
X88000Y380200D01*
X78000D02*
X77200Y381800D01*
X78800D01*
X78000Y380200D01*
Y360200D02*
X77200Y361800D01*
X78800D01*
X78000Y360200D01*
X88000D02*
X87200Y361800D01*
X88800D01*
X88000Y360200D01*
X248913Y216200D02*
X249313Y216600D01*
X249713D01*
X249313Y217000D01*
X249713Y217400D01*
X249313D01*
X248913Y217800D01*
X248513Y217400D01*
X248113D01*
X248513Y217000D01*
X248113Y216600D01*
X248513D01*
X248913Y216200D01*
X256000D02*
X256400Y216600D01*
X256800D01*
X256400Y217000D01*
X256800Y217400D01*
X256400D01*
X256000Y217800D01*
X255600Y217400D01*
X255200D01*
X255600Y217000D01*
X255200Y216600D01*
X255600D01*
X256000Y216200D01*
X263087D02*
X263487Y216600D01*
X263887D01*
X263487Y217000D01*
X263887Y217400D01*
X263487D01*
X263087Y217800D01*
X262687Y217400D01*
X262287D01*
X262687Y217000D01*
X262287Y216600D01*
X262687D01*
X263087Y216200D01*
X195942D02*
X196342Y216600D01*
X196742D01*
X196342Y217000D01*
X196742Y217400D01*
X196342D01*
X195942Y217800D01*
X195542Y217400D01*
X195142D01*
X195542Y217000D01*
X195142Y216600D01*
X195542D01*
X195942Y216200D01*
X203029D02*
X203429Y216600D01*
X203829D01*
X203429Y217000D01*
X203829Y217400D01*
X203429D01*
X203029Y217800D01*
X202629Y217400D01*
X202229D01*
X202629Y217000D01*
X202229Y216600D01*
X202629D01*
X203029Y216200D01*
X210115D02*
X210515Y216600D01*
X210915D01*
X210515Y217000D01*
X210915Y217400D01*
X210515D01*
X210115Y217800D01*
X209715Y217400D01*
X209315D01*
X209715Y217000D01*
X209315Y216600D01*
X209715D01*
X210115Y216200D01*
X142971D02*
X143371Y216600D01*
X143771D01*
X143371Y217000D01*
X143771Y217400D01*
X143371D01*
X142971Y217800D01*
X142571Y217400D01*
X142171D01*
X142571Y217000D01*
X142171Y216600D01*
X142571D01*
X142971Y216200D01*
X150058D02*
X150458Y216600D01*
X150858D01*
X150458Y217000D01*
X150858Y217400D01*
X150458D01*
X150058Y217800D01*
X149658Y217400D01*
X149258D01*
X149658Y217000D01*
X149258Y216600D01*
X149658D01*
X150058Y216200D01*
X157144D02*
X157544Y216600D01*
X157944D01*
X157544Y217000D01*
X157944Y217400D01*
X157544D01*
X157144Y217800D01*
X156744Y217400D01*
X156344D01*
X156744Y217000D01*
X156344Y216600D01*
X156744D01*
X157144Y216200D01*
X90000D02*
X90400Y216600D01*
X90800D01*
X90400Y217000D01*
X90800Y217400D01*
X90400D01*
X90000Y217800D01*
X89600Y217400D01*
X89200D01*
X89600Y217000D01*
X89200Y216600D01*
X89600D01*
X90000Y216200D01*
X97087D02*
X97487Y216600D01*
X97887D01*
X97487Y217000D01*
X97887Y217400D01*
X97487D01*
X97087Y217800D01*
X96687Y217400D01*
X96287D01*
X96687Y217000D01*
X96287Y216600D01*
X96687D01*
X97087Y216200D01*
X104173D02*
X104573Y216600D01*
X104973D01*
X104573Y217000D01*
X104973Y217400D01*
X104573D01*
X104173Y217800D01*
X103773Y217400D01*
X103373D01*
X103773Y217000D01*
X103373Y216600D01*
X103773D01*
X104173Y216200D01*
X18885Y101700D02*
X19285Y102500D01*
X18885Y103300D01*
X19685Y102900D01*
X20485Y103300D01*
X20085Y102500D01*
X20485Y101700D01*
X19685Y102100D01*
X18885Y101700D01*
Y131700D02*
X19285Y132500D01*
X18885Y133300D01*
X19685Y132900D01*
X20485Y133300D01*
X20085Y132500D01*
X20485Y131700D01*
X19685Y132100D01*
X18885Y131700D01*
Y161700D02*
X19285Y162500D01*
X18885Y163300D01*
X19685Y162900D01*
X20485Y163300D01*
X20085Y162500D01*
X20485Y161700D01*
X19685Y162100D01*
X18885Y161700D01*
Y176700D02*
X19285Y177500D01*
X18885Y178300D01*
X19685Y177900D01*
X20485Y178300D01*
X20085Y177500D01*
X20485Y176700D01*
X19685Y177100D01*
X18885Y176700D01*
Y146700D02*
X19285Y147500D01*
X18885Y148300D01*
X19685Y147900D01*
X20485Y148300D01*
X20085Y147500D01*
X20485Y146700D01*
X19685Y147100D01*
X18885Y146700D01*
Y71700D02*
X19285Y72500D01*
X18885Y73300D01*
X19685Y72900D01*
X20485Y73300D01*
X20085Y72500D01*
X20485Y71700D01*
X19685Y72100D01*
X18885Y71700D01*
Y41700D02*
X19285Y42500D01*
X18885Y43300D01*
X19685Y42900D01*
X20485Y43300D01*
X20085Y42500D01*
X20485Y41700D01*
X19685Y42100D01*
X18885Y41700D01*
Y116700D02*
X19285Y117500D01*
X18885Y118300D01*
X19685Y117900D01*
X20485Y118300D01*
X20085Y117500D01*
X20485Y116700D01*
X19685Y117100D01*
X18885Y116700D01*
Y86700D02*
X19285Y87500D01*
X18885Y88300D01*
X19685Y87900D01*
X20485Y88300D01*
X20085Y87500D01*
X20485Y86700D01*
X19685Y87100D01*
X18885Y86700D01*
Y56700D02*
X19285Y57500D01*
X18885Y58300D01*
X19685Y57900D01*
X20485Y58300D01*
X20085Y57500D01*
X20485Y56700D01*
X19685Y57100D01*
X18885Y56700D01*
Y200361D02*
X19285Y201161D01*
X18885Y201961D01*
X19685Y201561D01*
X20485Y201961D01*
X20085Y201161D01*
X20485Y200361D01*
X19685Y200761D01*
X18885Y200361D01*
Y215361D02*
X19285Y216161D01*
X18885Y216961D01*
X19685Y216561D01*
X20485Y216961D01*
X20085Y216161D01*
X20485Y215361D01*
X19685Y215761D01*
X18885Y215361D01*
Y279850D02*
X19285Y280650D01*
X18885Y281450D01*
X19685Y281050D01*
X20485Y281450D01*
X20085Y280650D01*
X20485Y279850D01*
X19685Y280250D01*
X18885Y279850D01*
Y324850D02*
X19285Y325650D01*
X18885Y326450D01*
X19685Y326050D01*
X20485Y326450D01*
X20085Y325650D01*
X20485Y324850D01*
X19685Y325250D01*
X18885Y324850D01*
Y339850D02*
X19285Y340650D01*
X18885Y341450D01*
X19685Y341050D01*
X20485Y341450D01*
X20085Y340650D01*
X20485Y339850D01*
X19685Y340250D01*
X18885Y339850D01*
Y309850D02*
X19285Y310650D01*
X18885Y311450D01*
X19685Y311050D01*
X20485Y311450D01*
X20085Y310650D01*
X20485Y309850D01*
X19685Y310250D01*
X18885Y309850D01*
Y264850D02*
X19285Y265650D01*
X18885Y266450D01*
X19685Y266050D01*
X20485Y266450D01*
X20085Y265650D01*
X20485Y264850D01*
X19685Y265250D01*
X18885Y264850D01*
Y234850D02*
X19285Y235650D01*
X18885Y236450D01*
X19685Y236050D01*
X20485Y236450D01*
X20085Y235650D01*
X20485Y234850D01*
X19685Y235250D01*
X18885Y234850D01*
Y369850D02*
X19285Y370650D01*
X18885Y371450D01*
X19685Y371050D01*
X20485Y371450D01*
X20085Y370650D01*
X20485Y369850D01*
X19685Y370250D01*
X18885Y369850D01*
Y354850D02*
X19285Y355650D01*
X18885Y356450D01*
X19685Y356050D01*
X20485Y356450D01*
X20085Y355650D01*
X20485Y354850D01*
X19685Y355250D01*
X18885Y354850D01*
Y249850D02*
X19285Y250650D01*
X18885Y251450D01*
X19685Y251050D01*
X20485Y251450D01*
X20085Y250650D01*
X20485Y249850D01*
X19685Y250250D01*
X18885Y249850D01*
Y294850D02*
X19285Y295650D01*
X18885Y296450D01*
X19685Y296050D01*
X20485Y296450D01*
X20085Y295650D01*
X20485Y294850D01*
X19685Y295250D01*
X18885Y294850D01*
Y404141D02*
X19285Y404941D01*
X18885Y405741D01*
X19685Y405341D01*
X20485Y405741D01*
X20085Y404941D01*
X20485Y404141D01*
X19685Y404541D01*
X18885Y404141D01*
Y434141D02*
X19285Y434941D01*
X18885Y435741D01*
X19685Y435341D01*
X20485Y435741D01*
X20085Y434941D01*
X20485Y434141D01*
X19685Y434541D01*
X18885Y434141D01*
Y464141D02*
X19285Y464941D01*
X18885Y465741D01*
X19685Y465341D01*
X20485Y465741D01*
X20085Y464941D01*
X20485Y464141D01*
X19685Y464541D01*
X18885Y464141D01*
Y479141D02*
X19285Y479941D01*
X18885Y480741D01*
X19685Y480341D01*
X20485Y480741D01*
X20085Y479941D01*
X20485Y479141D01*
X19685Y479541D01*
X18885Y479141D01*
Y509141D02*
X19285Y509941D01*
X18885Y510741D01*
X19685Y510341D01*
X20485Y510741D01*
X20085Y509941D01*
X20485Y509141D01*
X19685Y509541D01*
X18885Y509141D01*
Y539141D02*
X19285Y539941D01*
X18885Y540741D01*
X19685Y540341D01*
X20485Y540741D01*
X20085Y539941D01*
X20485Y539141D01*
X19685Y539541D01*
X18885Y539141D01*
Y554141D02*
X19285Y554941D01*
X18885Y555741D01*
X19685Y555341D01*
X20485Y555741D01*
X20085Y554941D01*
X20485Y554141D01*
X19685Y554541D01*
X18885Y554141D01*
Y524141D02*
X19285Y524941D01*
X18885Y525741D01*
X19685Y525341D01*
X20485Y525741D01*
X20085Y524941D01*
X20485Y524141D01*
X19685Y524541D01*
X18885Y524141D01*
Y494141D02*
X19285Y494941D01*
X18885Y495741D01*
X19685Y495341D01*
X20485Y495741D01*
X20085Y494941D01*
X20485Y494141D01*
X19685Y494541D01*
X18885Y494141D01*
Y449141D02*
X19285Y449941D01*
X18885Y450741D01*
X19685Y450341D01*
X20485Y450741D01*
X20085Y449941D01*
X20485Y449141D01*
X19685Y449541D01*
X18885Y449141D01*
Y419141D02*
X19285Y419941D01*
X18885Y420741D01*
X19685Y420341D01*
X20485Y420741D01*
X20085Y419941D01*
X20485Y419141D01*
X19685Y419541D01*
X18885Y419141D01*
Y389141D02*
X19285Y389941D01*
X18885Y390741D01*
X19685Y390341D01*
X20485Y390741D01*
X20085Y389941D01*
X20485Y389141D01*
X19685Y389541D01*
X18885Y389141D01*
X153000Y543700D02*
X152200Y545300D01*
X153800D01*
X153000Y543700D01*
X173000D02*
X172200Y545300D01*
X173800D01*
X173000Y543700D01*
X244600Y92100D02*
Y91700D01*
X245400D01*
Y92100D01*
X245800D01*
Y92900D01*
X245400D01*
Y93300D01*
X244600D01*
Y92900D01*
X244200D01*
Y92100D01*
X244600D01*
Y142100D02*
Y141700D01*
X245400D01*
Y142100D01*
X245800D01*
Y142900D01*
X245400D01*
Y143300D01*
X244600D01*
Y142900D01*
X244200D01*
Y142100D01*
X244600D01*
Y161785D02*
Y161385D01*
X245400D01*
Y161785D01*
X245800D01*
Y162585D01*
X245400D01*
Y162985D01*
X244600D01*
Y162585D01*
X244200D01*
Y161785D01*
X244600D01*
Y51942D02*
Y51542D01*
X245400D01*
Y51942D01*
X245800D01*
Y52742D01*
X245400D01*
Y53142D01*
X244600D01*
Y52742D01*
X244200D01*
Y51942D01*
X244600D01*
X220100Y380258D02*
Y379858D01*
X220900D01*
Y380258D01*
X221300D01*
Y381058D01*
X220900D01*
Y381458D01*
X220100D01*
Y381058D01*
X219700D01*
Y380258D01*
X220100D01*
X169600Y378100D02*
Y377700D01*
X170400D01*
Y378100D01*
X170800D01*
Y378900D01*
X170400D01*
Y379300D01*
X169600D01*
Y378900D01*
X169200D01*
Y378100D01*
X169600D01*
X231000Y447700D02*
X231400Y448100D01*
X231800D01*
X231400Y448500D01*
X231800Y448900D01*
X231400D01*
X231000Y449300D01*
X230600Y448900D01*
X230200D01*
X230600Y448500D01*
X230200Y448100D01*
X230600D01*
X231000Y447700D01*
Y454787D02*
X231400Y455187D01*
X231800D01*
X231400Y455587D01*
X231800Y455987D01*
X231400D01*
X231000Y456387D01*
X230600Y455987D01*
X230200D01*
X230600Y455587D01*
X230200Y455187D01*
X230600D01*
X231000Y454787D01*
Y461873D02*
X231400Y462273D01*
X231800D01*
X231400Y462673D01*
X231800Y463073D01*
X231400D01*
X231000Y463473D01*
X230600Y463073D01*
X230200D01*
X230600Y462673D01*
X230200Y462273D01*
X230600D01*
X231000Y461873D01*
X209500Y447700D02*
X209900Y448100D01*
X210300D01*
X209900Y448500D01*
X210300Y448900D01*
X209900D01*
X209500Y449300D01*
X209100Y448900D01*
X208700D01*
X209100Y448500D01*
X208700Y448100D01*
X209100D01*
X209500Y447700D01*
Y454787D02*
X209900Y455187D01*
X210300D01*
X209900Y455587D01*
X210300Y455987D01*
X209900D01*
X209500Y456387D01*
X209100Y455987D01*
X208700D01*
X209100Y455587D01*
X208700Y455187D01*
X209100D01*
X209500Y454787D01*
Y461873D02*
X209900Y462273D01*
X210300D01*
X209900Y462673D01*
X210300Y463073D01*
X209900D01*
X209500Y463473D01*
X209100Y463073D01*
X208700D01*
X209100Y462673D01*
X208700Y462273D01*
X209100D01*
X209500Y461873D01*
X252500Y447700D02*
X252900Y448100D01*
X253300D01*
X252900Y448500D01*
X253300Y448900D01*
X252900D01*
X252500Y449300D01*
X252100Y448900D01*
X251700D01*
X252100Y448500D01*
X251700Y448100D01*
X252100D01*
X252500Y447700D01*
Y454787D02*
X252900Y455187D01*
X253300D01*
X252900Y455587D01*
X253300Y455987D01*
X252900D01*
X252500Y456387D01*
X252100Y455987D01*
X251700D01*
X252100Y455587D01*
X251700Y455187D01*
X252100D01*
X252500Y454787D01*
Y461873D02*
X252900Y462273D01*
X253300D01*
X252900Y462673D01*
X253300Y463073D01*
X252900D01*
X252500Y463473D01*
X252100Y463073D01*
X251700D01*
X252100Y462673D01*
X251700Y462273D01*
X252100D01*
X252500Y461873D01*
X326200Y43700D02*
Y45300D01*
X327800D01*
Y43700D01*
X326200D01*
Y194200D02*
Y195800D01*
X327800D01*
Y194200D01*
X326200D01*
X475700Y43700D02*
Y45300D01*
X477300D01*
Y43700D01*
X475700D01*
Y194200D02*
Y195800D01*
X477300D01*
Y194200D01*
X475700D01*
X193767Y142100D02*
Y141700D01*
X194567D01*
Y142100D01*
X194967D01*
Y142900D01*
X194567D01*
Y143300D01*
X193767D01*
Y142900D01*
X193367D01*
Y142100D01*
X193767D01*
Y51943D02*
Y51543D01*
X194567D01*
Y51943D01*
X194967D01*
Y52743D01*
X194567D01*
Y53143D01*
X193767D01*
Y52743D01*
X193367D01*
Y51943D01*
X193767D01*
Y92100D02*
Y91700D01*
X194567D01*
Y92100D01*
X194967D01*
Y92900D01*
X194567D01*
Y93300D01*
X193767D01*
Y92900D01*
X193367D01*
Y92100D01*
X193767D01*
Y161785D02*
Y161385D01*
X194567D01*
Y161785D01*
X194967D01*
Y162585D01*
X194567D01*
Y162985D01*
X193767D01*
Y162585D01*
X193367D01*
Y161785D01*
X193767D01*
X220100Y330258D02*
Y329858D01*
X220900D01*
Y330258D01*
X221300D01*
Y331058D01*
X220900D01*
Y331458D01*
X220100D01*
Y331058D01*
X219700D01*
Y330258D01*
X220100D01*
Y399943D02*
Y399543D01*
X220900D01*
Y399943D01*
X221300D01*
Y400743D01*
X220900D01*
Y401143D01*
X220100D01*
Y400743D01*
X219700D01*
Y399943D01*
X220100D01*
Y290100D02*
Y289700D01*
X220900D01*
Y290100D01*
X221300D01*
Y290900D01*
X220900D01*
Y291300D01*
X220100D01*
Y290900D01*
X219700D01*
Y290100D01*
X220100D01*
X142933Y92100D02*
Y91700D01*
X143733D01*
Y92100D01*
X144133D01*
Y92900D01*
X143733D01*
Y93300D01*
X142933D01*
Y92900D01*
X142533D01*
Y92100D01*
X142933D01*
Y142100D02*
Y141700D01*
X143733D01*
Y142100D01*
X144133D01*
Y142900D01*
X143733D01*
Y143300D01*
X142933D01*
Y142900D01*
X142533D01*
Y142100D01*
X142933D01*
Y51943D02*
Y51543D01*
X143733D01*
Y51943D01*
X144133D01*
Y52743D01*
X143733D01*
Y53143D01*
X142933D01*
Y52743D01*
X142533D01*
Y51943D01*
X142933D01*
Y161785D02*
Y161385D01*
X143733D01*
Y161785D01*
X144133D01*
Y162585D01*
X143733D01*
Y162985D01*
X142933D01*
Y162585D01*
X142533D01*
Y161785D01*
X142933D01*
X575972Y12979D02*
X576372D01*
X576772Y13379D01*
X577172Y12979D01*
X577572D01*
Y13379D01*
X577172Y13779D01*
X577572Y14179D01*
Y14579D01*
X577172D01*
X576772Y14179D01*
X576372Y14579D01*
X575972D01*
Y14179D01*
X576372Y13779D01*
X575972Y13379D01*
Y12979D01*
X92100Y161785D02*
Y161385D01*
X92900D01*
Y161785D01*
X93300D01*
Y162585D01*
X92900D01*
Y162985D01*
X92100D01*
Y162585D01*
X91700D01*
Y161785D01*
X92100D01*
Y92100D02*
Y91700D01*
X92900D01*
Y92100D01*
X93300D01*
Y92900D01*
X92900D01*
Y93300D01*
X92100D01*
Y92900D01*
X91700D01*
Y92100D01*
X92100D01*
Y51943D02*
Y51543D01*
X92900D01*
Y51943D01*
X93300D01*
Y52743D01*
X92900D01*
Y53143D01*
X92100D01*
Y52743D01*
X91700D01*
Y51943D01*
X92100D01*
Y142100D02*
Y141700D01*
X92900D01*
Y142100D01*
X93300D01*
Y142900D01*
X92900D01*
Y143300D01*
X92100D01*
Y142900D01*
X91700D01*
Y142100D01*
X92100D01*
X267000Y430787D02*
X267400Y431187D01*
X267800D01*
X267400Y431587D01*
X267800Y431987D01*
X267400D01*
X267000Y432387D01*
X266600Y431987D01*
X266200D01*
X266600Y431587D01*
X266200Y431187D01*
X266600D01*
X267000Y430787D01*
Y423700D02*
X267400Y424100D01*
X267800D01*
X267400Y424500D01*
X267800Y424900D01*
X267400D01*
X267000Y425300D01*
X266600Y424900D01*
X266200D01*
X266600Y424500D01*
X266200Y424100D01*
X266600D01*
X267000Y423700D01*
Y416613D02*
X267400Y417013D01*
X267800D01*
X267400Y417413D01*
X267800Y417813D01*
X267400D01*
X267000Y418213D01*
X266600Y417813D01*
X266200D01*
X266600Y417413D01*
X266200Y417013D01*
X266600D01*
X267000Y416613D01*
X139500Y412873D02*
X139900Y413273D01*
X140300D01*
X139900Y413673D01*
X140300Y414073D01*
X139900D01*
X139500Y414473D01*
X139100Y414073D01*
X138700D01*
X139100Y413673D01*
X138700Y413273D01*
X139100D01*
X139500Y412873D01*
Y405787D02*
X139900Y406187D01*
X140300D01*
X139900Y406587D01*
X140300Y406987D01*
X139900D01*
X139500Y407387D01*
X139100Y406987D01*
X138700D01*
X139100Y406587D01*
X138700Y406187D01*
X139100D01*
X139500Y405787D01*
Y398700D02*
X139900Y399100D01*
X140300D01*
X139900Y399500D01*
X140300Y399900D01*
X139900D01*
X139500Y400300D01*
X139100Y399900D01*
X138700D01*
X139100Y399500D01*
X138700Y399100D01*
X139100D01*
X139500Y398700D01*
X169600Y328100D02*
Y327700D01*
X170400D01*
Y328100D01*
X170800D01*
Y328900D01*
X170400D01*
Y329300D01*
X169600D01*
Y328900D01*
X169200D01*
Y328100D01*
X169600D01*
Y397785D02*
Y397385D01*
X170400D01*
Y397785D01*
X170800D01*
Y398585D01*
X170400D01*
Y398985D01*
X169600D01*
Y398585D01*
X169200D01*
Y397785D01*
X169600D01*
Y287942D02*
Y287542D01*
X170400D01*
Y287942D01*
X170800D01*
Y288742D01*
X170400D01*
Y289142D01*
X169600D01*
Y288742D01*
X169200D01*
Y287942D01*
X169600D01*
X575972Y575972D02*
X576372D01*
X576772Y576372D01*
X577172Y575972D01*
X577572D01*
Y576372D01*
X577172Y576772D01*
X577572Y577172D01*
Y577572D01*
X577172D01*
X576772Y577172D01*
X576372Y577572D01*
X575972D01*
Y577172D01*
X576372Y576772D01*
X575972Y576372D01*
Y575972D01*
X12979D02*
X13379D01*
X13779Y576372D01*
X14179Y575972D01*
X14579D01*
Y576372D01*
X14179Y576772D01*
X14579Y577172D01*
Y577572D01*
X14179D01*
X13779Y577172D01*
X13379Y577572D01*
X12979D01*
Y577172D01*
X13379Y576772D01*
X12979Y576372D01*
Y575972D01*
Y12979D02*
X13379D01*
X13779Y13379D01*
X14179Y12979D01*
X14579D01*
Y13379D01*
X14179Y13779D01*
X14579Y14179D01*
Y14579D01*
X14179D01*
X13779Y14179D01*
X13379Y14579D01*
X12979D01*
Y14179D01*
X13379Y13779D01*
X12979Y13379D01*
Y12979D01*
X249587Y522200D02*
X249987Y522600D01*
X250387D01*
X249987Y523000D01*
X250387Y523400D01*
X249987D01*
X249587Y523800D01*
X249187Y523400D01*
X248787D01*
X249187Y523000D01*
X248787Y522600D01*
X249187D01*
X249587Y522200D01*
X242500D02*
X242900Y522600D01*
X243300D01*
X242900Y523000D01*
X243300Y523400D01*
X242900D01*
X242500Y523800D01*
X242100Y523400D01*
X241700D01*
X242100Y523000D01*
X241700Y522600D01*
X242100D01*
X242500Y522200D01*
X256673D02*
X257073Y522600D01*
X257473D01*
X257073Y523000D01*
X257473Y523400D01*
X257073D01*
X256673Y523800D01*
X256273Y523400D01*
X255873D01*
X256273Y523000D01*
X255873Y522600D01*
X256273D01*
X256673Y522200D01*
X79700Y473500D02*
X80500Y474300D01*
X81300Y473500D01*
X80500Y472700D01*
X79700Y473500D01*
X60015D02*
X60815Y474300D01*
X61615Y473500D01*
X60815Y472700D01*
X60015Y473500D01*
X227700Y569200D02*
Y570800D01*
X229300D01*
Y569200D01*
X227700D01*
X228100Y569600D02*
Y570400D01*
X228900D01*
Y569600D01*
X228100D01*
X150700Y445700D02*
Y447300D01*
X152300D01*
Y445700D01*
X150700D01*
X151100Y446100D02*
Y446900D01*
X151900D01*
Y446100D01*
X151100D01*
X64200Y110700D02*
Y112300D01*
X65800D01*
Y110700D01*
X64200D01*
X64600Y111100D02*
Y111900D01*
X65400D01*
Y111100D01*
X64600D01*
X223200Y499700D02*
Y501300D01*
X224800D01*
Y499700D01*
X223200D01*
X223600Y500100D02*
Y500900D01*
X224400D01*
Y500100D01*
X223600D01*
X55200Y90200D02*
Y91800D01*
X56800D01*
Y90200D01*
X55200D01*
X55600Y90600D02*
Y91400D01*
X56400D01*
Y90600D01*
X55600D01*
X112200Y440700D02*
Y442300D01*
X113800D01*
Y440700D01*
X112200D01*
X112600Y441100D02*
Y441900D01*
X113400D01*
Y441100D01*
X112600D01*
X63700Y224700D02*
Y226300D01*
X65300D01*
Y224700D01*
X63700D01*
X64100Y225100D02*
Y225900D01*
X64900D01*
Y225100D01*
X64100D01*
X97700Y229131D02*
Y230731D01*
X99300D01*
Y229131D01*
X97700D01*
X98100Y229531D02*
Y230331D01*
X98900D01*
Y229531D01*
X98100D01*
X69950Y194700D02*
Y196300D01*
X71550D01*
Y194700D01*
X69950D01*
X70350Y195100D02*
Y195900D01*
X71150D01*
Y195100D01*
X70350D01*
X7200Y125200D02*
Y126800D01*
X8800D01*
Y125200D01*
X7200D01*
X7600Y125600D02*
Y126400D01*
X8400D01*
Y125600D01*
X7600D01*
X7700Y109700D02*
Y111300D01*
X9300D01*
Y109700D01*
X7700D01*
X8100Y110100D02*
Y110900D01*
X8900D01*
Y110100D01*
X8100D01*
X256700Y229201D02*
Y230801D01*
X258300D01*
Y229201D01*
X256700D01*
X257100Y229601D02*
Y230401D01*
X257900D01*
Y229601D01*
X257100D01*
X50410Y145730D02*
Y147330D01*
X52010D01*
Y145730D01*
X50410D01*
X50810Y146130D02*
Y146930D01*
X51610D01*
Y146130D01*
X50810D01*
X150700Y229131D02*
Y230731D01*
X152300D01*
Y229131D01*
X150700D01*
X151100Y229531D02*
Y230331D01*
X151900D01*
Y229531D01*
X151100D01*
X83700Y197516D02*
Y199116D01*
X85300D01*
Y197516D01*
X83700D01*
X84100Y197916D02*
Y198716D01*
X84900D01*
Y197916D01*
X84100D01*
X32700Y522700D02*
Y524300D01*
X34300D01*
Y522700D01*
X32700D01*
X33100Y523100D02*
Y523900D01*
X33900D01*
Y523100D01*
X33100D01*
X46822Y555200D02*
Y556800D01*
X48422D01*
Y555200D01*
X46822D01*
X47222Y555600D02*
Y556400D01*
X48022D01*
Y555600D01*
X47222D01*
X47500Y521200D02*
X46700Y522800D01*
X48300D01*
X47500Y521200D01*
Y521600D02*
X47100Y522400D01*
X47900D01*
X47500Y521600D01*
X254200Y506700D02*
Y508300D01*
X255800D01*
Y506700D01*
X254200D01*
X254600Y507100D02*
Y507900D01*
X255400D01*
Y507100D01*
X254600D01*
X97000Y523200D02*
X96200Y524800D01*
X97800D01*
X97000Y523200D01*
Y523600D02*
X96600Y524400D01*
X97400D01*
X97000Y523600D01*
X185200Y494700D02*
Y496300D01*
X186800D01*
Y494700D01*
X185200D01*
X185600Y495100D02*
Y495900D01*
X186400D01*
Y495100D01*
X185600D01*
X47200Y355900D02*
Y357500D01*
X48800D01*
Y355900D01*
X47200D01*
X47600Y356300D02*
Y357100D01*
X48400D01*
Y356300D01*
X47600D01*
X61251Y339850D02*
Y341450D01*
X62851D01*
Y339850D01*
X61251D01*
X61651Y340250D02*
Y341050D01*
X62451D01*
Y340250D01*
X61651D01*
X168600Y470200D02*
Y471800D01*
X170200D01*
Y470200D01*
X168600D01*
X169000Y470600D02*
Y471400D01*
X169800D01*
Y470600D01*
X169000D01*
X182100Y360200D02*
Y361800D01*
X183700D01*
Y360200D01*
X182100D01*
X182500Y360600D02*
Y361400D01*
X183300D01*
Y360600D01*
X182500D01*
X73800Y257900D02*
Y259500D01*
X75400D01*
Y257900D01*
X73800D01*
X74200Y258300D02*
Y259100D01*
X75000D01*
Y258300D01*
X74200D01*
X67900Y92233D02*
Y93833D01*
X69500D01*
Y92233D01*
X67900D01*
X68300Y92633D02*
Y93433D01*
X69100D01*
Y92633D01*
X68300D01*
Y449800D02*
Y451400D01*
X69900D01*
Y449800D01*
X68300D01*
X68700Y450200D02*
Y451000D01*
X69500D01*
Y450200D01*
X68700D01*
X260200Y126100D02*
Y127700D01*
X261800D01*
Y126100D01*
X260200D01*
X260600Y126500D02*
Y127300D01*
X261400D01*
Y126500D01*
X260600D01*
X103800Y396800D02*
Y398400D01*
X105400D01*
Y396800D01*
X103800D01*
X104200Y397200D02*
Y398000D01*
X105000D01*
Y397200D01*
X104200D01*
X165200Y222400D02*
Y224000D01*
X166800D01*
Y222400D01*
X165200D01*
X165600Y222800D02*
Y223600D01*
X166400D01*
Y222800D01*
X165600D01*
X208500Y113300D02*
Y114900D01*
X210100D01*
Y113300D01*
X208500D01*
X208900Y113700D02*
Y114500D01*
X209700D01*
Y113700D01*
X208900D01*
X221000Y167300D02*
Y168900D01*
X222600D01*
Y167300D01*
X221000D01*
X221400Y167700D02*
Y168500D01*
X222200D01*
Y167700D01*
X221400D01*
X205700Y42900D02*
Y44500D01*
X207300D01*
Y42900D01*
X205700D01*
X206100Y43300D02*
Y44100D01*
X206900D01*
Y43300D01*
X206100D01*
X253200Y543600D02*
Y545200D01*
X254800D01*
Y543600D01*
X253200D01*
X253600Y544000D02*
Y544800D01*
X254400D01*
Y544000D01*
X253600D01*
X50600Y62033D02*
Y63633D01*
X52200D01*
Y62033D01*
X50600D01*
X51000Y62433D02*
Y63233D01*
X51800D01*
Y62433D01*
X51000D01*
X132300Y449725D02*
Y451325D01*
X133900D01*
Y449725D01*
X132300D01*
X132700Y450125D02*
Y450925D01*
X133500D01*
Y450125D01*
X132700D01*
X203700Y229201D02*
Y230801D01*
X205300D01*
Y229201D01*
X203700D01*
X204100Y229601D02*
Y230401D01*
X204900D01*
Y229601D01*
X204100D01*
X92600Y314300D02*
Y315900D01*
X94200D01*
Y314300D01*
X92600D01*
X93000Y314700D02*
Y315500D01*
X93800D01*
Y314700D01*
X93000D01*
X146200Y343300D02*
Y344900D01*
X147800D01*
Y343300D01*
X146200D01*
X146600Y343700D02*
Y344500D01*
X147400D01*
Y343700D01*
X146600D01*
X124825Y439500D02*
Y441100D01*
X126425D01*
Y439500D01*
X124825D01*
X125225Y439900D02*
Y440700D01*
X126025D01*
Y439900D01*
X125225D01*
X206100Y478700D02*
Y480300D01*
X207700D01*
Y478700D01*
X206100D01*
X206500Y479100D02*
Y479900D01*
X207300D01*
Y479100D01*
X206500D01*
X52200Y121700D02*
Y123300D01*
X53800D01*
Y121700D01*
X52200D01*
X52600Y122100D02*
Y122900D01*
X53400D01*
Y122100D01*
X52600D01*
X161075Y442700D02*
Y444300D01*
X162675D01*
Y442700D01*
X161075D01*
X161475Y443100D02*
Y443900D01*
X162275D01*
Y443100D01*
X161475D01*
X142950Y462700D02*
Y464300D01*
X144550D01*
Y462700D01*
X142950D01*
X143350Y463100D02*
Y463900D01*
X144150D01*
Y463100D01*
X143350D01*
X179200Y442700D02*
Y444300D01*
X180800D01*
Y442700D01*
X179200D01*
X179600Y443100D02*
Y443900D01*
X180400D01*
Y443100D01*
X179600D01*
X148700Y479700D02*
Y481300D01*
X150300D01*
Y479700D01*
X148700D01*
X149100Y480100D02*
Y480900D01*
X149900D01*
Y480100D01*
X149100D01*
X168200Y479700D02*
Y481300D01*
X169800D01*
Y479700D01*
X168200D01*
X168600Y480100D02*
Y480900D01*
X169400D01*
Y480100D01*
X168600D01*
X136531Y501200D02*
Y502800D01*
X138131D01*
Y501200D01*
X136531D01*
X136931Y501600D02*
Y502400D01*
X137731D01*
Y501600D01*
X136931D01*
X70393Y523499D02*
Y525099D01*
X71993D01*
Y523499D01*
X70393D01*
X70793Y523899D02*
Y524699D01*
X71593D01*
Y523899D01*
X70793D01*
X190700Y480200D02*
Y481800D01*
X192300D01*
Y480200D01*
X190700D01*
X191100Y480600D02*
Y481400D01*
X191900D01*
Y480600D01*
X191100D01*
X231200Y478700D02*
Y480300D01*
X232800D01*
Y478700D01*
X231200D01*
X231600Y479100D02*
Y479900D01*
X232400D01*
Y479100D01*
X231600D01*
X196145Y526771D02*
Y528371D01*
X197745D01*
Y526771D01*
X196145D01*
X196545Y527171D02*
Y527971D01*
X197345D01*
Y527171D01*
X196545D01*
X148700Y499700D02*
Y501300D01*
X150300D01*
Y499700D01*
X148700D01*
X149100Y500100D02*
Y500900D01*
X149900D01*
Y500100D01*
X149100D01*
D116*
X60300Y167500D02*
X59747Y168261D01*
X58853Y167970D01*
Y167030D01*
X59747Y166739D01*
X60300Y167500D01*
Y177500D02*
X59747Y178261D01*
X58853Y177970D01*
Y177030D01*
X59747Y176739D01*
X60300Y177500D01*
Y187500D02*
X59747Y188261D01*
X58853Y187970D01*
Y187030D01*
X59747Y186739D01*
X60300Y187500D01*
X29654Y223739D02*
X29101Y224500D01*
X28207Y224209D01*
Y223269D01*
X29101Y222978D01*
X29654Y223739D01*
D117*
X29254D02*
X28654Y224085D01*
Y223393D01*
X29254Y223739D01*
M02*
