G04*
G04 #@! TF.GenerationSoftware,Altium Limited,Altium Designer,22.3.1 (43)*
G04*
G04 Layer_Color=16711935*
%FSLAX25Y25*%
%MOIN*%
G70*
G04*
G04 #@! TF.SameCoordinates,ABD3340E-3DDB-4FBE-A437-06F7E2321E34*
G04*
G04*
G04 #@! TF.FilePolarity,Negative*
G04*
G01*
G75*
%ADD40R,0.08674X0.08674*%
%ADD44R,0.08280X0.08280*%
%ADD45C,0.08280*%
%ADD46O,0.08674X0.05524*%
%ADD47R,0.08674X0.05524*%
%ADD48C,0.07887*%
%ADD49R,0.07887X0.07887*%
%ADD50C,0.08477*%
%ADD51C,0.07099*%
%ADD52R,0.07099X0.07099*%
%ADD53O,0.12611X0.09461*%
%ADD54C,0.20800*%
%ADD55O,0.05524X0.08674*%
%ADD56R,0.05524X0.08674*%
%ADD57O,0.09461X0.12611*%
%ADD58R,0.08674X0.08674*%
%ADD59C,0.08674*%
%ADD60C,0.05800*%
D40*
X67842Y472000D02*
D03*
D44*
X169000Y527500D02*
D03*
D45*
X149000D02*
D03*
D46*
X345500Y492587D02*
D03*
Y485500D02*
D03*
Y406837D02*
D03*
Y399750D02*
D03*
Y321087D02*
D03*
Y314000D02*
D03*
Y235337D02*
D03*
Y228250D02*
D03*
Y149587D02*
D03*
Y142500D02*
D03*
D47*
Y478413D02*
D03*
Y392663D02*
D03*
Y306913D02*
D03*
Y221163D02*
D03*
Y135413D02*
D03*
D48*
X468000Y55000D02*
D03*
Y65000D02*
D03*
D49*
Y75000D02*
D03*
D50*
X462500Y481000D02*
D03*
X412500D02*
D03*
X392815D02*
D03*
X502657D02*
D03*
X462500Y393875D02*
D03*
X412500D02*
D03*
X392815D02*
D03*
X502657D02*
D03*
X462500Y306750D02*
D03*
X412500D02*
D03*
X392815D02*
D03*
X502657D02*
D03*
X462500Y219625D02*
D03*
X412500D02*
D03*
X392815D02*
D03*
X502657D02*
D03*
X462500Y132500D02*
D03*
X412500D02*
D03*
X392815D02*
D03*
X502657D02*
D03*
X197000Y168000D02*
D03*
Y77843D02*
D03*
Y118000D02*
D03*
Y187685D02*
D03*
X124000Y118000D02*
D03*
Y168000D02*
D03*
Y77843D02*
D03*
Y187685D02*
D03*
X51000Y168000D02*
D03*
Y77843D02*
D03*
Y118000D02*
D03*
Y187685D02*
D03*
D51*
X149500Y343000D02*
D03*
X139500Y323000D02*
D03*
X149500Y363000D02*
D03*
Y323000D02*
D03*
X139500Y343000D02*
D03*
X149500Y353000D02*
D03*
X139500D02*
D03*
Y333000D02*
D03*
X149500D02*
D03*
D52*
X139500Y363000D02*
D03*
D53*
X24000Y335500D02*
D03*
Y290500D02*
D03*
Y395500D02*
D03*
Y410500D02*
D03*
Y275500D02*
D03*
Y305500D02*
D03*
Y350500D02*
D03*
Y380500D02*
D03*
Y365500D02*
D03*
Y320500D02*
D03*
X571000Y53000D02*
D03*
Y68000D02*
D03*
Y360500D02*
D03*
Y330500D02*
D03*
Y315500D02*
D03*
Y285500D02*
D03*
Y255500D02*
D03*
Y240500D02*
D03*
Y270500D02*
D03*
Y300500D02*
D03*
Y345500D02*
D03*
Y375500D02*
D03*
D54*
X570866Y570866D02*
D03*
X19685D02*
D03*
X570866Y19685D02*
D03*
X19685D02*
D03*
D55*
X291413Y526500D02*
D03*
X284327D02*
D03*
D56*
X298500D02*
D03*
D57*
X289500Y567500D02*
D03*
X319500D02*
D03*
X349500D02*
D03*
X394500D02*
D03*
X424500D02*
D03*
X454500D02*
D03*
X439500D02*
D03*
X409500D02*
D03*
X379500D02*
D03*
X364500D02*
D03*
X334500D02*
D03*
X304500D02*
D03*
D58*
X463224Y524000D02*
D03*
X464724Y444500D02*
D03*
X467224Y359000D02*
D03*
X466724Y268000D02*
D03*
X465224Y175500D02*
D03*
D59*
X503776Y524000D02*
D03*
X505276Y444500D02*
D03*
X507776Y359000D02*
D03*
X507276Y268000D02*
D03*
X505776Y175500D02*
D03*
X48157Y472000D02*
D03*
D60*
X323000Y541000D02*
D03*
X334500Y542500D02*
D03*
X29929Y560500D02*
D03*
X34500Y274000D02*
D03*
X40871Y282200D02*
D03*
X192000Y484500D02*
D03*
X184500Y478000D02*
D03*
X476000Y17000D02*
D03*
X227300Y353000D02*
D03*
X25700Y460000D02*
D03*
X275300Y315800D02*
D03*
X454500Y188001D02*
D03*
X372200Y162000D02*
D03*
X404000Y236000D02*
D03*
X277500Y513000D02*
D03*
X24000Y439200D02*
D03*
X508000Y62307D02*
D03*
X95500Y498000D02*
D03*
X40114Y528799D02*
D03*
X290032Y144375D02*
D03*
Y224000D02*
D03*
Y303625D02*
D03*
Y383250D02*
D03*
X95500Y478000D02*
D03*
X151000Y478488D02*
D03*
X53500Y528799D02*
D03*
X66886D02*
D03*
X201000Y478000D02*
D03*
X536500Y15000D02*
D03*
X238500Y478000D02*
D03*
X257000D02*
D03*
X549500Y15000D02*
D03*
X290032Y462875D02*
D03*
X196945Y509701D02*
D03*
M02*
