G04*
G04 #@! TF.GenerationSoftware,Altium Limited,Altium Designer,22.3.1 (43)*
G04*
G04 Layer_Color=2752767*
%FSLAX25Y25*%
%MOIN*%
G70*
G04*
G04 #@! TF.SameCoordinates,5406EE39-799D-43BB-BE37-E4F8AF43DF71*
G04*
G04*
G04 #@! TF.FilePolarity,Positive*
G04*
G01*
G75*
%ADD93C,0.00500*%
%ADD94C,0.00667*%
D93*
X147500Y341000D02*
Y345000D01*
X151500D01*
Y341000D01*
X147500D01*
X137500Y321000D02*
Y325000D01*
X141500D01*
Y321000D01*
X137500D01*
X147500Y361000D02*
Y365000D01*
X151500D01*
Y361000D01*
X147500D01*
X137500D02*
Y365000D01*
X141500D01*
Y361000D01*
X137500D01*
X147500Y321000D02*
Y325000D01*
X151500D01*
Y321000D01*
X147500D01*
X137500Y341000D02*
Y345000D01*
X141500D01*
Y341000D01*
X137500D01*
X147500Y351000D02*
Y355000D01*
X151500D01*
Y351000D01*
X147500D01*
X137500D02*
Y355000D01*
X141500D01*
Y351000D01*
X137500D01*
Y331000D02*
Y335000D01*
X141500D01*
Y331000D01*
X137500D01*
X147500D02*
Y335000D01*
X151500D01*
Y331000D01*
X147500D01*
X570866Y568866D02*
X568866Y572866D01*
X572866D01*
X570866Y568866D01*
X19685D02*
X17685Y572866D01*
X21685D01*
X19685Y568866D01*
X570866Y17685D02*
X568866Y21685D01*
X572866D01*
X570866Y17685D01*
X19685D02*
X17685Y21685D01*
X21685D01*
X19685Y17685D01*
X462500Y304750D02*
X463500Y305750D01*
X464500D01*
X463500Y306750D01*
X464500Y307750D01*
X463500D01*
X462500Y308750D01*
X461500Y307750D01*
X460500D01*
X461500Y306750D01*
X460500Y305750D01*
X461500D01*
X462500Y304750D01*
X412500D02*
X413500Y305750D01*
X414500D01*
X413500Y306750D01*
X414500Y307750D01*
X413500D01*
X412500Y308750D01*
X411500Y307750D01*
X410500D01*
X411500Y306750D01*
X410500Y305750D01*
X411500D01*
X412500Y304750D01*
X502657D02*
X503657Y305750D01*
X504657D01*
X503657Y306750D01*
X504657Y307750D01*
X503657D01*
X502657Y308750D01*
X501657Y307750D01*
X500657D01*
X501657Y306750D01*
X500657Y305750D01*
X501657D01*
X502657Y304750D01*
X392815D02*
X393815Y305750D01*
X394815D01*
X393815Y306750D01*
X394815Y307750D01*
X393815D01*
X392815Y308750D01*
X391815Y307750D01*
X390815D01*
X391815Y306750D01*
X390815Y305750D01*
X391815D01*
X392815Y304750D01*
X289413Y524500D02*
X290413Y526500D01*
X289413Y528500D01*
X291413Y527500D01*
X293413Y528500D01*
X292413Y526500D01*
X293413Y524500D01*
X291413Y525500D01*
X289413Y524500D01*
X282327D02*
X283327Y526500D01*
X282327Y528500D01*
X284327Y527500D01*
X286327Y528500D01*
X285327Y526500D01*
X286327Y524500D01*
X284327Y525500D01*
X282327Y524500D01*
X296500D02*
X297500Y526500D01*
X296500Y528500D01*
X298500Y527500D01*
X300500Y528500D01*
X299500Y526500D01*
X300500Y524500D01*
X298500Y525500D01*
X296500Y524500D01*
X462500Y479000D02*
X463500Y480000D01*
X464500D01*
X463500Y481000D01*
X464500Y482000D01*
X463500D01*
X462500Y483000D01*
X461500Y482000D01*
X460500D01*
X461500Y481000D01*
X460500Y480000D01*
X461500D01*
X462500Y479000D01*
X412500D02*
X413500Y480000D01*
X414500D01*
X413500Y481000D01*
X414500Y482000D01*
X413500D01*
X412500Y483000D01*
X411500Y482000D01*
X410500D01*
X411500Y481000D01*
X410500Y480000D01*
X411500D01*
X412500Y479000D01*
X502657D02*
X503657Y480000D01*
X504657D01*
X503657Y481000D01*
X504657Y482000D01*
X503657D01*
X502657Y483000D01*
X501657Y482000D01*
X500657D01*
X501657Y481000D01*
X500657Y480000D01*
X501657D01*
X502657Y479000D01*
X392815D02*
X393815Y480000D01*
X394815D01*
X393815Y481000D01*
X394815Y482000D01*
X393815D01*
X392815Y483000D01*
X391815Y482000D01*
X390815D01*
X391815Y481000D01*
X390815Y480000D01*
X391815D01*
X392815Y479000D01*
X462500Y391875D02*
X463500Y392875D01*
X464500D01*
X463500Y393875D01*
X464500Y394875D01*
X463500D01*
X462500Y395875D01*
X461500Y394875D01*
X460500D01*
X461500Y393875D01*
X460500Y392875D01*
X461500D01*
X462500Y391875D01*
X412500D02*
X413500Y392875D01*
X414500D01*
X413500Y393875D01*
X414500Y394875D01*
X413500D01*
X412500Y395875D01*
X411500Y394875D01*
X410500D01*
X411500Y393875D01*
X410500Y392875D01*
X411500D01*
X412500Y391875D01*
X502657D02*
X503657Y392875D01*
X504657D01*
X503657Y393875D01*
X504657Y394875D01*
X503657D01*
X502657Y395875D01*
X501657Y394875D01*
X500657D01*
X501657Y393875D01*
X500657Y392875D01*
X501657D01*
X502657Y391875D01*
X392815D02*
X393815Y392875D01*
X394815D01*
X393815Y393875D01*
X394815Y394875D01*
X393815D01*
X392815Y395875D01*
X391815Y394875D01*
X390815D01*
X391815Y393875D01*
X390815Y392875D01*
X391815D01*
X392815Y391875D01*
X462500Y217625D02*
X463500Y218625D01*
X464500D01*
X463500Y219625D01*
X464500Y220625D01*
X463500D01*
X462500Y221625D01*
X461500Y220625D01*
X460500D01*
X461500Y219625D01*
X460500Y218625D01*
X461500D01*
X462500Y217625D01*
X412500D02*
X413500Y218625D01*
X414500D01*
X413500Y219625D01*
X414500Y220625D01*
X413500D01*
X412500Y221625D01*
X411500Y220625D01*
X410500D01*
X411500Y219625D01*
X410500Y218625D01*
X411500D01*
X412500Y217625D01*
X502657D02*
X503657Y218625D01*
X504657D01*
X503657Y219625D01*
X504657Y220625D01*
X503657D01*
X502657Y221625D01*
X501657Y220625D01*
X500657D01*
X501657Y219625D01*
X500657Y218625D01*
X501657D01*
X502657Y217625D01*
X392815D02*
X393815Y218625D01*
X394815D01*
X393815Y219625D01*
X394815Y220625D01*
X393815D01*
X392815Y221625D01*
X391815Y220625D01*
X390815D01*
X391815Y219625D01*
X390815Y218625D01*
X391815D01*
X392815Y217625D01*
X462500Y130500D02*
X463500Y131500D01*
X464500D01*
X463500Y132500D01*
X464500Y133500D01*
X463500D01*
X462500Y134500D01*
X461500Y133500D01*
X460500D01*
X461500Y132500D01*
X460500Y131500D01*
X461500D01*
X462500Y130500D01*
X412500D02*
X413500Y131500D01*
X414500D01*
X413500Y132500D01*
X414500Y133500D01*
X413500D01*
X412500Y134500D01*
X411500Y133500D01*
X410500D01*
X411500Y132500D01*
X410500Y131500D01*
X411500D01*
X412500Y130500D01*
X392815D02*
X393815Y131500D01*
X394815D01*
X393815Y132500D01*
X394815Y133500D01*
X393815D01*
X392815Y134500D01*
X391815Y133500D01*
X390815D01*
X391815Y132500D01*
X390815Y131500D01*
X391815D01*
X392815Y130500D01*
X502657D02*
X503657Y131500D01*
X504657D01*
X503657Y132500D01*
X504657Y133500D01*
X503657D01*
X502657Y134500D01*
X501657Y133500D01*
X500657D01*
X501657Y132500D01*
X500657Y131500D01*
X501657D01*
X502657Y130500D01*
X197000Y166500D02*
X198000Y167500D01*
X199000D01*
X198000Y168500D01*
X199000Y169500D01*
X198000D01*
X197000Y170500D01*
X196000Y169500D01*
X195000D01*
X196000Y168500D01*
X195000Y167500D01*
X196000D01*
X197000Y166500D01*
Y76343D02*
X198000Y77343D01*
X199000D01*
X198000Y78343D01*
X199000Y79343D01*
X198000D01*
X197000Y80343D01*
X196000Y79343D01*
X195000D01*
X196000Y78343D01*
X195000Y77343D01*
X196000D01*
X197000Y76343D01*
Y116500D02*
X198000Y117500D01*
X199000D01*
X198000Y118500D01*
X199000Y119500D01*
X198000D01*
X197000Y120500D01*
X196000Y119500D01*
X195000D01*
X196000Y118500D01*
X195000Y117500D01*
X196000D01*
X197000Y116500D01*
Y186185D02*
X198000Y187185D01*
X199000D01*
X198000Y188185D01*
X199000Y189185D01*
X198000D01*
X197000Y190185D01*
X196000Y189185D01*
X195000D01*
X196000Y188185D01*
X195000Y187185D01*
X196000D01*
X197000Y186185D01*
X121500Y116000D02*
X122500Y117000D01*
X123500D01*
X122500Y118000D01*
X123500Y119000D01*
X122500D01*
X121500Y120000D01*
X120500Y119000D01*
X119500D01*
X120500Y118000D01*
X119500Y117000D01*
X120500D01*
X121500Y116000D01*
Y166000D02*
X122500Y167000D01*
X123500D01*
X122500Y168000D01*
X123500Y169000D01*
X122500D01*
X121500Y170000D01*
X120500Y169000D01*
X119500D01*
X120500Y168000D01*
X119500Y167000D01*
X120500D01*
X121500Y166000D01*
Y75843D02*
X122500Y76843D01*
X123500D01*
X122500Y77843D01*
X123500Y78843D01*
X122500D01*
X121500Y79843D01*
X120500Y78843D01*
X119500D01*
X120500Y77843D01*
X119500Y76843D01*
X120500D01*
X121500Y75843D01*
Y185685D02*
X122500Y186685D01*
X123500D01*
X122500Y187685D01*
X123500Y188685D01*
X122500D01*
X121500Y189685D01*
X120500Y188685D01*
X119500D01*
X120500Y187685D01*
X119500Y186685D01*
X120500D01*
X121500Y185685D01*
X51000Y168000D02*
X52000Y169000D01*
X53000D01*
X52000Y170000D01*
X53000Y171000D01*
X52000D01*
X51000Y172000D01*
X50000Y171000D01*
X49000D01*
X50000Y170000D01*
X49000Y169000D01*
X50000D01*
X51000Y168000D01*
Y77843D02*
X52000Y78843D01*
X53000D01*
X52000Y79843D01*
X53000Y80843D01*
X52000D01*
X51000Y81843D01*
X50000Y80843D01*
X49000D01*
X50000Y79843D01*
X49000Y78843D01*
X50000D01*
X51000Y77843D01*
Y118000D02*
X52000Y119000D01*
X53000D01*
X52000Y120000D01*
X53000Y121000D01*
X52000D01*
X51000Y122000D01*
X50000Y121000D01*
X49000D01*
X50000Y120000D01*
X49000Y119000D01*
X50000D01*
X51000Y118000D01*
Y187685D02*
X52000Y188685D01*
X53000D01*
X52000Y189685D01*
X53000Y190685D01*
X52000D01*
X51000Y191685D01*
X50000Y190685D01*
X49000D01*
X50000Y189685D01*
X49000Y188685D01*
X50000D01*
X51000Y187685D01*
X462224Y523000D02*
Y522000D01*
X464224D01*
Y523000D01*
X465224D01*
Y525000D01*
X464224D01*
Y526000D01*
X462224D01*
Y525000D01*
X461224D01*
Y523000D01*
X462224D01*
X502776D02*
Y522000D01*
X504776D01*
Y523000D01*
X505776D01*
Y525000D01*
X504776D01*
Y526000D01*
X502776D01*
Y525000D01*
X501776D01*
Y523000D01*
X502776D01*
X463724Y443500D02*
Y442500D01*
X465724D01*
Y443500D01*
X466724D01*
Y445500D01*
X465724D01*
Y446500D01*
X463724D01*
Y445500D01*
X462724D01*
Y443500D01*
X463724D01*
X504276D02*
Y442500D01*
X506276D01*
Y443500D01*
X507276D01*
Y445500D01*
X506276D01*
Y446500D01*
X504276D01*
Y445500D01*
X503276D01*
Y443500D01*
X504276D01*
X466224Y358000D02*
Y357000D01*
X468224D01*
Y358000D01*
X469224D01*
Y360000D01*
X468224D01*
Y361000D01*
X466224D01*
Y360000D01*
X465224D01*
Y358000D01*
X466224D01*
X506776D02*
Y357000D01*
X508776D01*
Y358000D01*
X509776D01*
Y360000D01*
X508776D01*
Y361000D01*
X506776D01*
Y360000D01*
X505776D01*
Y358000D01*
X506776D01*
X465724Y267000D02*
Y266000D01*
X467724D01*
Y267000D01*
X468724D01*
Y269000D01*
X467724D01*
Y270000D01*
X465724D01*
Y269000D01*
X464724D01*
Y267000D01*
X465724D01*
X506276D02*
Y266000D01*
X508276D01*
Y267000D01*
X509276D01*
Y269000D01*
X508276D01*
Y270000D01*
X506276D01*
Y269000D01*
X505276D01*
Y267000D01*
X506276D01*
X464224Y174500D02*
Y173500D01*
X466224D01*
Y174500D01*
X467224D01*
Y176500D01*
X466224D01*
Y177500D01*
X464224D01*
Y176500D01*
X463224D01*
Y174500D01*
X464224D01*
X504776D02*
Y173500D01*
X506776D01*
Y174500D01*
X507776D01*
Y176500D01*
X506776D01*
Y177500D01*
X504776D01*
Y176500D01*
X503776D01*
Y174500D01*
X504776D01*
X147000Y525500D02*
Y529500D01*
X151000D01*
Y525500D01*
X147000D01*
X167000D02*
Y529500D01*
X171000D01*
Y525500D01*
X167000D01*
X66842Y471000D02*
Y470000D01*
X68842D01*
Y471000D01*
X69842D01*
Y473000D01*
X68842D01*
Y474000D01*
X66842D01*
Y473000D01*
X65842D01*
Y471000D01*
X66842D01*
X47157D02*
Y470000D01*
X49157D01*
Y471000D01*
X50157D01*
Y473000D01*
X49157D01*
Y474000D01*
X47157D01*
Y473000D01*
X46157D01*
Y471000D01*
X47157D01*
X210500Y232000D02*
X211500D01*
X212500Y233000D01*
X213500Y232000D01*
X214500D01*
Y233000D01*
X213500Y234000D01*
X214500Y235000D01*
Y236000D01*
X213500D01*
X212500Y235000D01*
X211500Y236000D01*
X210500D01*
Y235000D01*
X211500Y234000D01*
X210500Y233000D01*
Y232000D01*
X75000Y574500D02*
X76000D01*
X77000Y575500D01*
X78000Y574500D01*
X79000D01*
Y575500D01*
X78000Y576500D01*
X79000Y577500D01*
Y578500D01*
X78000D01*
X77000Y577500D01*
X76000Y578500D01*
X75000D01*
Y577500D01*
X76000Y576500D01*
X75000Y575500D01*
Y574500D01*
X38000Y527000D02*
X39000D01*
X40000Y528000D01*
X41000Y527000D01*
X42000D01*
Y528000D01*
X41000Y529000D01*
X42000Y530000D01*
Y531000D01*
X41000D01*
X40000Y530000D01*
X39000Y531000D01*
X38000D01*
Y530000D01*
X39000Y529000D01*
X38000Y528000D01*
Y527000D01*
X52000Y526000D02*
X53000D01*
X54000Y527000D01*
X55000Y526000D01*
X56000D01*
Y527000D01*
X55000Y528000D01*
X56000Y529000D01*
Y530000D01*
X55000D01*
X54000Y529000D01*
X53000Y530000D01*
X52000D01*
Y529000D01*
X53000Y528000D01*
X52000Y527000D01*
Y526000D01*
X69500Y525500D02*
X70500D01*
X71500Y526500D01*
X72500Y525500D01*
X73500D01*
Y526500D01*
X72500Y527500D01*
X73500Y528500D01*
Y529500D01*
X72500D01*
X71500Y528500D01*
X70500Y529500D01*
X69500D01*
Y528500D01*
X70500Y527500D01*
X69500Y526500D01*
Y525500D01*
X24500Y543000D02*
X25500D01*
X26500Y544000D01*
X27500Y543000D01*
X28500D01*
Y544000D01*
X27500Y545000D01*
X28500Y546000D01*
Y547000D01*
X27500D01*
X26500Y546000D01*
X25500Y547000D01*
X24500D01*
Y546000D01*
X25500Y545000D01*
X24500Y544000D01*
Y543000D01*
X316000Y328500D02*
X317000D01*
X318000Y329500D01*
X319000Y328500D01*
X320000D01*
Y329500D01*
X319000Y330500D01*
X320000Y331500D01*
Y332500D01*
X319000D01*
X318000Y331500D01*
X317000Y332500D01*
X316000D01*
Y331500D01*
X317000Y330500D01*
X316000Y329500D01*
Y328500D01*
X333000Y335500D02*
X334000D01*
X335000Y336500D01*
X336000Y335500D01*
X337000D01*
Y336500D01*
X336000Y337500D01*
X337000Y338500D01*
Y339500D01*
X336000D01*
X335000Y338500D01*
X334000Y339500D01*
X333000D01*
Y338500D01*
X334000Y337500D01*
X333000Y336500D01*
Y335500D01*
X71100Y362900D02*
X72100D01*
X73100Y363900D01*
X74100Y362900D01*
X75100D01*
Y363900D01*
X74100Y364900D01*
X75100Y365900D01*
Y366900D01*
X74100D01*
X73100Y365900D01*
X72100Y366900D01*
X71100D01*
Y365900D01*
X72100Y364900D01*
X71100Y363900D01*
Y362900D01*
X553000Y361000D02*
X554000D01*
X555000Y362000D01*
X556000Y361000D01*
X557000D01*
Y362000D01*
X556000Y363000D01*
X557000Y364000D01*
Y365000D01*
X556000D01*
X555000Y364000D01*
X554000Y365000D01*
X553000D01*
Y364000D01*
X554000Y363000D01*
X553000Y362000D01*
Y361000D01*
X532673Y331500D02*
X533673D01*
X534673Y332500D01*
X535673Y331500D01*
X536673D01*
Y332500D01*
X535673Y333500D01*
X536673Y334500D01*
Y335500D01*
X535673D01*
X534673Y334500D01*
X533673Y335500D01*
X532673D01*
Y334500D01*
X533673Y333500D01*
X532673Y332500D01*
Y331500D01*
X518250Y34350D02*
X519250D01*
X520250Y35350D01*
X521250Y34350D01*
X522250D01*
Y35350D01*
X521250Y36350D01*
X522250Y37350D01*
Y38350D01*
X521250D01*
X520250Y37350D01*
X519250Y38350D01*
X518250D01*
Y37350D01*
X519250Y36350D01*
X518250Y35350D01*
Y34350D01*
X424000Y311500D02*
X425000D01*
X426000Y312500D01*
X427000Y311500D01*
X428000D01*
Y312500D01*
X427000Y313500D01*
X428000Y314500D01*
Y315500D01*
X427000D01*
X426000Y314500D01*
X425000Y315500D01*
X424000D01*
Y314500D01*
X425000Y313500D01*
X424000Y312500D01*
Y311500D01*
X526000Y68500D02*
X527000D01*
X528000Y69500D01*
X529000Y68500D01*
X530000D01*
Y69500D01*
X529000Y70500D01*
X530000Y71500D01*
Y72500D01*
X529000D01*
X528000Y71500D01*
X527000Y72500D01*
X526000D01*
Y71500D01*
X527000Y70500D01*
X526000Y69500D01*
Y68500D01*
X520681Y56112D02*
X521681D01*
X522681Y57112D01*
X523681Y56112D01*
X524681D01*
Y57112D01*
X523681Y58112D01*
X524681Y59112D01*
Y60112D01*
X523681D01*
X522681Y59112D01*
X521681Y60112D01*
X520681D01*
Y59112D01*
X521681Y58112D01*
X520681Y57112D01*
Y56112D01*
X251200Y555000D02*
X252200D01*
X253200Y556000D01*
X254200Y555000D01*
X255200D01*
Y556000D01*
X254200Y557000D01*
X255200Y558000D01*
Y559000D01*
X254200D01*
X253200Y558000D01*
X252200Y559000D01*
X251200D01*
Y558000D01*
X252200Y557000D01*
X251200Y556000D01*
Y555000D01*
X147500Y393500D02*
X148500D01*
X149500Y394500D01*
X150500Y393500D01*
X151500D01*
Y394500D01*
X150500Y395500D01*
X151500Y396500D01*
Y397500D01*
X150500D01*
X149500Y396500D01*
X148500Y397500D01*
X147500D01*
Y396500D01*
X148500Y395500D01*
X147500Y394500D01*
Y393500D01*
X331800Y237960D02*
X332800D01*
X333800Y238960D01*
X334800Y237960D01*
X335800D01*
Y238960D01*
X334800Y239960D01*
X335800Y240960D01*
Y241960D01*
X334800D01*
X333800Y240960D01*
X332800Y241960D01*
X331800D01*
Y240960D01*
X332800Y239960D01*
X331800Y238960D01*
Y237960D01*
X474600Y61700D02*
X475600D01*
X476600Y62700D01*
X477600Y61700D01*
X478600D01*
Y62700D01*
X477600Y63700D01*
X478600Y64700D01*
Y65700D01*
X477600D01*
X476600Y64700D01*
X475600Y65700D01*
X474600D01*
Y64700D01*
X475600Y63700D01*
X474600Y62700D01*
Y61700D01*
X490000Y53500D02*
X491000D01*
X492000Y54500D01*
X493000Y53500D01*
X494000D01*
Y54500D01*
X493000Y55500D01*
X494000Y56500D01*
Y57500D01*
X493000D01*
X492000Y56500D01*
X491000Y57500D01*
X490000D01*
Y56500D01*
X491000Y55500D01*
X490000Y54500D01*
Y53500D01*
X343500Y156153D02*
X344500D01*
X345500Y157153D01*
X346500Y156153D01*
X347500D01*
Y157153D01*
X346500Y158153D01*
X347500Y159153D01*
Y160153D01*
X346500D01*
X345500Y159153D01*
X344500Y160153D01*
X343500D01*
Y159153D01*
X344500Y158153D01*
X343500Y157153D01*
Y156153D01*
X343500Y241903D02*
X344500D01*
X345500Y242903D01*
X346500Y241903D01*
X347500D01*
Y242903D01*
X346500Y243903D01*
X347500Y244903D01*
Y245903D01*
X346500D01*
X345500Y244903D01*
X344500Y245903D01*
X343500D01*
Y244903D01*
X344500Y243903D01*
X343500Y242903D01*
Y241903D01*
Y327653D02*
X344500D01*
X345500Y328653D01*
X346500Y327653D01*
X347500D01*
Y328653D01*
X346500Y329653D01*
X347500Y330653D01*
Y331653D01*
X346500D01*
X345500Y330653D01*
X344500Y331653D01*
X343500D01*
Y330653D01*
X344500Y329653D01*
X343500Y328653D01*
Y327653D01*
X93500Y496000D02*
X94500D01*
X95500Y497000D01*
X96500Y496000D01*
X97500D01*
Y497000D01*
X96500Y498000D01*
X97500Y499000D01*
Y500000D01*
X96500D01*
X95500Y499000D01*
X94500Y500000D01*
X93500D01*
Y499000D01*
X94500Y498000D01*
X93500Y497000D01*
Y496000D01*
X343500Y413403D02*
X344500D01*
X345500Y414403D01*
X346500Y413403D01*
X347500D01*
Y414403D01*
X346500Y415403D01*
X347500Y416403D01*
Y417403D01*
X346500D01*
X345500Y416403D01*
X344500Y417403D01*
X343500D01*
Y416403D01*
X344500Y415403D01*
X343500Y414403D01*
Y413403D01*
Y499153D02*
X344500D01*
X345500Y500153D01*
X346500Y499153D01*
X347500D01*
Y500153D01*
X346500Y501153D01*
X347500Y502153D01*
Y503153D01*
X346500D01*
X345500Y502153D01*
X344500Y503153D01*
X343500D01*
Y502153D01*
X344500Y501153D01*
X343500Y500153D01*
Y499153D01*
X466000Y73000D02*
X467000D01*
X468000Y74000D01*
X469000Y73000D01*
X470000D01*
Y74000D01*
X469000Y75000D01*
X470000Y76000D01*
Y77000D01*
X469000D01*
X468000Y76000D01*
X467000Y77000D01*
X466000D01*
Y76000D01*
X467000Y75000D01*
X466000Y74000D01*
Y73000D01*
X484500Y13500D02*
X485500D01*
X486500Y14500D01*
X487500Y13500D01*
X488500D01*
Y14500D01*
X487500Y15500D01*
X488500Y16500D01*
Y17500D01*
X487500D01*
X486500Y16500D01*
X485500Y17500D01*
X484500D01*
Y16500D01*
X485500Y15500D01*
X484500Y14500D01*
Y13500D01*
X93500Y476000D02*
X94500D01*
X95500Y477000D01*
X96500Y476000D01*
X97500D01*
Y477000D01*
X96500Y478000D01*
X97500Y479000D01*
Y480000D01*
X96500D01*
X95500Y479000D01*
X94500Y480000D01*
X93500D01*
Y479000D01*
X94500Y478000D01*
X93500Y477000D01*
Y476000D01*
X149000Y476488D02*
X150000D01*
X151000Y477488D01*
X152000Y476488D01*
X153000D01*
Y477488D01*
X152000Y478488D01*
X153000Y479488D01*
Y480488D01*
X152000D01*
X151000Y479488D01*
X150000Y480488D01*
X149000D01*
Y479488D01*
X150000Y478488D01*
X149000Y477488D01*
Y476488D01*
X511000Y60307D02*
X512000D01*
X513000Y61307D01*
X514000Y60307D01*
X515000D01*
Y61307D01*
X514000Y62307D01*
X515000Y63307D01*
Y64307D01*
X514000D01*
X513000Y63307D01*
X512000Y64307D01*
X511000D01*
Y63307D01*
X512000Y62307D01*
X511000Y61307D01*
Y60307D01*
X182500Y476000D02*
X183500D01*
X184500Y477000D01*
X185500Y476000D01*
X186500D01*
Y477000D01*
X185500Y478000D01*
X186500Y479000D01*
Y480000D01*
X185500D01*
X184500Y479000D01*
X183500Y480000D01*
X182500D01*
Y479000D01*
X183500Y478000D01*
X182500Y477000D01*
Y476000D01*
X199000D02*
X200000D01*
X201000Y477000D01*
X202000Y476000D01*
X203000D01*
Y477000D01*
X202000Y478000D01*
X203000Y479000D01*
Y480000D01*
X202000D01*
X201000Y479000D01*
X200000Y480000D01*
X199000D01*
Y479000D01*
X200000Y478000D01*
X199000Y477000D01*
Y476000D01*
X534500Y13000D02*
X535500D01*
X536500Y14000D01*
X537500Y13000D01*
X538500D01*
Y14000D01*
X537500Y15000D01*
X538500Y16000D01*
Y17000D01*
X537500D01*
X536500Y16000D01*
X535500Y17000D01*
X534500D01*
Y16000D01*
X535500Y15000D01*
X534500Y14000D01*
Y13000D01*
X236500Y476000D02*
X237500D01*
X238500Y477000D01*
X239500Y476000D01*
X240500D01*
Y477000D01*
X239500Y478000D01*
X240500Y479000D01*
Y480000D01*
X239500D01*
X238500Y479000D01*
X237500Y480000D01*
X236500D01*
Y479000D01*
X237500Y478000D01*
X236500Y477000D01*
Y476000D01*
X255000D02*
X256000D01*
X257000Y477000D01*
X258000Y476000D01*
X259000D01*
Y477000D01*
X258000Y478000D01*
X259000Y479000D01*
Y480000D01*
X258000D01*
X257000Y479000D01*
X256000Y480000D01*
X255000D01*
Y479000D01*
X256000Y478000D01*
X255000Y477000D01*
Y476000D01*
X547500Y13000D02*
X548500D01*
X549500Y14000D01*
X550500Y13000D01*
X551500D01*
Y14000D01*
X550500Y15000D01*
X551500Y16000D01*
Y17000D01*
X550500D01*
X549500Y16000D01*
X548500Y17000D01*
X547500D01*
Y16000D01*
X548500Y15000D01*
X547500Y14000D01*
Y13000D01*
X194945Y507701D02*
X195945D01*
X196945Y508701D01*
X197945Y507701D01*
X198945D01*
Y508701D01*
X197945Y509701D01*
X198945Y510701D01*
Y511701D01*
X197945D01*
X196945Y510701D01*
X195945Y511701D01*
X194945D01*
Y510701D01*
X195945Y509701D01*
X194945Y508701D01*
Y507701D01*
X215500Y552000D02*
X216500D01*
X217500Y553000D01*
X218500Y552000D01*
X219500D01*
Y553000D01*
X218500Y554000D01*
X219500Y555000D01*
Y556000D01*
X218500D01*
X217500Y555000D01*
X216500Y556000D01*
X215500D01*
Y555000D01*
X216500Y554000D01*
X215500Y553000D01*
Y552000D01*
X213055Y503500D02*
X214055D01*
X215055Y504500D01*
X216055Y503500D01*
X217055D01*
Y504500D01*
X216055Y505500D01*
X217055Y506500D01*
Y507500D01*
X216055D01*
X215055Y506500D01*
X214055Y507500D01*
X213055D01*
Y506500D01*
X214055Y505500D01*
X213055Y504500D01*
Y503500D01*
X96600Y351000D02*
X97600D01*
X98600Y352000D01*
X99600Y351000D01*
X100600D01*
Y352000D01*
X99600Y353000D01*
X100600Y354000D01*
Y355000D01*
X99600D01*
X98600Y354000D01*
X97600Y355000D01*
X96600D01*
Y354000D01*
X97600Y353000D01*
X96600Y352000D01*
Y351000D01*
X160800Y329000D02*
X161800D01*
X162800Y330000D01*
X163800Y329000D01*
X164800D01*
Y330000D01*
X163800Y331000D01*
X164800Y332000D01*
Y333000D01*
X163800D01*
X162800Y332000D01*
X161800Y333000D01*
X160800D01*
Y332000D01*
X161800Y331000D01*
X160800Y330000D01*
Y329000D01*
X306500Y511200D02*
X307500D01*
X308500Y512200D01*
X309500Y511200D01*
X310500D01*
Y512200D01*
X309500Y513200D01*
X310500Y514200D01*
Y515200D01*
X309500D01*
X308500Y514200D01*
X307500Y515200D01*
X306500D01*
Y514200D01*
X307500Y513200D01*
X306500Y512200D01*
Y511200D01*
X165800Y273500D02*
X166800D01*
X167800Y274500D01*
X168800Y273500D01*
X169800D01*
Y274500D01*
X168800Y275500D01*
X169800Y276500D01*
Y277500D01*
X168800D01*
X167800Y276500D01*
X166800Y277500D01*
X165800D01*
Y276500D01*
X166800Y275500D01*
X165800Y274500D01*
Y273500D01*
X261500Y557000D02*
X262500D01*
X263500Y558000D01*
X264500Y557000D01*
X265500D01*
Y558000D01*
X264500Y559000D01*
X265500Y560000D01*
Y561000D01*
X264500D01*
X263500Y560000D01*
X262500Y561000D01*
X261500D01*
Y560000D01*
X262500Y559000D01*
X261500Y558000D01*
Y557000D01*
D94*
X26000Y335500D02*
X25771Y336429D01*
X25136Y337146D01*
X24241Y337485D01*
X23291Y337370D01*
X22503Y336826D01*
X22058Y335979D01*
Y335021D01*
X22503Y334174D01*
X23291Y333630D01*
X24241Y333515D01*
X25136Y333854D01*
X25771Y334571D01*
X26000Y335500D01*
Y290500D02*
X25771Y291429D01*
X25136Y292146D01*
X24241Y292485D01*
X23291Y292370D01*
X22503Y291826D01*
X22058Y290979D01*
Y290021D01*
X22503Y289174D01*
X23291Y288630D01*
X24241Y288515D01*
X25136Y288854D01*
X25771Y289570D01*
X26000Y290500D01*
Y395500D02*
X25771Y396429D01*
X25136Y397146D01*
X24241Y397485D01*
X23291Y397370D01*
X22503Y396826D01*
X22058Y395979D01*
Y395021D01*
X22503Y394174D01*
X23291Y393630D01*
X24241Y393515D01*
X25136Y393854D01*
X25771Y394570D01*
X26000Y395500D01*
Y410500D02*
X25771Y411429D01*
X25136Y412146D01*
X24241Y412485D01*
X23291Y412370D01*
X22503Y411826D01*
X22058Y410979D01*
Y410021D01*
X22503Y409174D01*
X23291Y408630D01*
X24241Y408515D01*
X25136Y408854D01*
X25771Y409571D01*
X26000Y410500D01*
Y275500D02*
X25771Y276429D01*
X25136Y277146D01*
X24241Y277485D01*
X23291Y277370D01*
X22503Y276826D01*
X22058Y275979D01*
Y275021D01*
X22503Y274174D01*
X23291Y273630D01*
X24241Y273515D01*
X25136Y273854D01*
X25771Y274570D01*
X26000Y275500D01*
Y305500D02*
X25771Y306429D01*
X25136Y307146D01*
X24241Y307485D01*
X23291Y307370D01*
X22503Y306826D01*
X22058Y305979D01*
Y305021D01*
X22503Y304174D01*
X23291Y303630D01*
X24241Y303515D01*
X25136Y303854D01*
X25771Y304571D01*
X26000Y305500D01*
Y350500D02*
X25771Y351429D01*
X25136Y352146D01*
X24241Y352485D01*
X23291Y352370D01*
X22503Y351826D01*
X22058Y350979D01*
Y350021D01*
X22503Y349174D01*
X23291Y348630D01*
X24241Y348515D01*
X25136Y348854D01*
X25771Y349570D01*
X26000Y350500D01*
Y380500D02*
X25771Y381429D01*
X25136Y382146D01*
X24241Y382485D01*
X23291Y382370D01*
X22503Y381826D01*
X22058Y380979D01*
Y380021D01*
X22503Y379174D01*
X23291Y378630D01*
X24241Y378515D01*
X25136Y378854D01*
X25771Y379571D01*
X26000Y380500D01*
Y365500D02*
X25771Y366429D01*
X25136Y367146D01*
X24241Y367485D01*
X23291Y367370D01*
X22503Y366826D01*
X22058Y365979D01*
Y365021D01*
X22503Y364174D01*
X23291Y363630D01*
X24241Y363515D01*
X25136Y363854D01*
X25771Y364570D01*
X26000Y365500D01*
Y320500D02*
X25771Y321429D01*
X25136Y322146D01*
X24241Y322485D01*
X23291Y322370D01*
X22503Y321826D01*
X22058Y320979D01*
Y320021D01*
X22503Y319174D01*
X23291Y318630D01*
X24241Y318515D01*
X25136Y318854D01*
X25771Y319570D01*
X26000Y320500D01*
X573000Y53000D02*
X572771Y53929D01*
X572136Y54646D01*
X571241Y54985D01*
X570291Y54870D01*
X569503Y54326D01*
X569058Y53479D01*
Y52521D01*
X569503Y51674D01*
X570291Y51130D01*
X571241Y51015D01*
X572136Y51354D01*
X572771Y52070D01*
X573000Y53000D01*
Y68000D02*
X572771Y68929D01*
X572136Y69646D01*
X571241Y69985D01*
X570291Y69870D01*
X569503Y69326D01*
X569058Y68479D01*
Y67521D01*
X569503Y66674D01*
X570291Y66130D01*
X571241Y66014D01*
X572136Y66354D01*
X572771Y67071D01*
X573000Y68000D01*
Y360500D02*
X572771Y361429D01*
X572136Y362146D01*
X571241Y362485D01*
X570291Y362370D01*
X569503Y361826D01*
X569058Y360979D01*
Y360021D01*
X569503Y359174D01*
X570291Y358630D01*
X571241Y358515D01*
X572136Y358854D01*
X572771Y359571D01*
X573000Y360500D01*
Y330500D02*
X572771Y331429D01*
X572136Y332146D01*
X571241Y332485D01*
X570291Y332370D01*
X569503Y331826D01*
X569058Y330979D01*
Y330021D01*
X569503Y329174D01*
X570291Y328630D01*
X571241Y328515D01*
X572136Y328854D01*
X572771Y329571D01*
X573000Y330500D01*
Y315500D02*
X572771Y316429D01*
X572136Y317146D01*
X571241Y317485D01*
X570291Y317370D01*
X569503Y316826D01*
X569058Y315979D01*
Y315021D01*
X569503Y314174D01*
X570291Y313630D01*
X571241Y313515D01*
X572136Y313854D01*
X572771Y314570D01*
X573000Y315500D01*
Y285500D02*
X572771Y286429D01*
X572136Y287146D01*
X571241Y287485D01*
X570291Y287370D01*
X569503Y286826D01*
X569058Y285979D01*
Y285021D01*
X569503Y284174D01*
X570291Y283630D01*
X571241Y283515D01*
X572136Y283854D01*
X572771Y284571D01*
X573000Y285500D01*
Y255500D02*
X572771Y256429D01*
X572136Y257146D01*
X571241Y257485D01*
X570291Y257370D01*
X569503Y256826D01*
X569058Y255979D01*
Y255021D01*
X569503Y254174D01*
X570291Y253630D01*
X571241Y253515D01*
X572136Y253854D01*
X572771Y254571D01*
X573000Y255500D01*
Y240500D02*
X572771Y241429D01*
X572136Y242146D01*
X571241Y242485D01*
X570291Y242370D01*
X569503Y241826D01*
X569058Y240979D01*
Y240021D01*
X569503Y239174D01*
X570291Y238630D01*
X571241Y238515D01*
X572136Y238854D01*
X572771Y239570D01*
X573000Y240500D01*
Y270500D02*
X572771Y271429D01*
X572136Y272146D01*
X571241Y272485D01*
X570291Y272370D01*
X569503Y271826D01*
X569058Y270979D01*
Y270021D01*
X569503Y269174D01*
X570291Y268630D01*
X571241Y268515D01*
X572136Y268854D01*
X572771Y269570D01*
X573000Y270500D01*
Y300500D02*
X572771Y301429D01*
X572136Y302146D01*
X571241Y302485D01*
X570291Y302370D01*
X569503Y301826D01*
X569058Y300979D01*
Y300021D01*
X569503Y299174D01*
X570291Y298630D01*
X571241Y298515D01*
X572136Y298854D01*
X572771Y299570D01*
X573000Y300500D01*
Y345500D02*
X572771Y346429D01*
X572136Y347146D01*
X571241Y347485D01*
X570291Y347370D01*
X569503Y346826D01*
X569058Y345979D01*
Y345021D01*
X569503Y344174D01*
X570291Y343630D01*
X571241Y343515D01*
X572136Y343854D01*
X572771Y344570D01*
X573000Y345500D01*
Y375500D02*
X572771Y376429D01*
X572136Y377146D01*
X571241Y377485D01*
X570291Y377370D01*
X569503Y376826D01*
X569058Y375979D01*
Y375021D01*
X569503Y374174D01*
X570291Y373630D01*
X571241Y373515D01*
X572136Y373854D01*
X572771Y374570D01*
X573000Y375500D01*
X291500Y567500D02*
X291271Y568429D01*
X290636Y569146D01*
X289741Y569485D01*
X288791Y569370D01*
X288003Y568826D01*
X287558Y567979D01*
Y567021D01*
X288003Y566174D01*
X288791Y565630D01*
X289741Y565515D01*
X290636Y565854D01*
X291271Y566571D01*
X291500Y567500D01*
X321500D02*
X321271Y568429D01*
X320636Y569146D01*
X319741Y569485D01*
X318791Y569370D01*
X318003Y568826D01*
X317558Y567979D01*
Y567021D01*
X318003Y566174D01*
X318791Y565630D01*
X319741Y565515D01*
X320636Y565854D01*
X321271Y566571D01*
X321500Y567500D01*
X351500D02*
X351271Y568429D01*
X350636Y569146D01*
X349741Y569485D01*
X348791Y569370D01*
X348003Y568826D01*
X347558Y567979D01*
Y567021D01*
X348003Y566174D01*
X348791Y565630D01*
X349741Y565515D01*
X350636Y565854D01*
X351271Y566571D01*
X351500Y567500D01*
X396500D02*
X396271Y568429D01*
X395636Y569146D01*
X394741Y569485D01*
X393791Y569370D01*
X393003Y568826D01*
X392558Y567979D01*
Y567021D01*
X393003Y566174D01*
X393791Y565630D01*
X394741Y565515D01*
X395636Y565854D01*
X396271Y566571D01*
X396500Y567500D01*
X426500D02*
X426271Y568429D01*
X425636Y569146D01*
X424741Y569485D01*
X423791Y569370D01*
X423003Y568826D01*
X422558Y567979D01*
Y567021D01*
X423003Y566174D01*
X423791Y565630D01*
X424741Y565515D01*
X425636Y565854D01*
X426271Y566571D01*
X426500Y567500D01*
X456500D02*
X456271Y568429D01*
X455636Y569146D01*
X454741Y569485D01*
X453791Y569370D01*
X453003Y568826D01*
X452558Y567979D01*
Y567021D01*
X453003Y566174D01*
X453791Y565630D01*
X454741Y565515D01*
X455636Y565854D01*
X456271Y566571D01*
X456500Y567500D01*
X441500D02*
X441271Y568429D01*
X440636Y569146D01*
X439741Y569485D01*
X438791Y569370D01*
X438003Y568826D01*
X437558Y567979D01*
Y567021D01*
X438003Y566174D01*
X438791Y565630D01*
X439741Y565515D01*
X440636Y565854D01*
X441271Y566571D01*
X441500Y567500D01*
X411500D02*
X411271Y568429D01*
X410636Y569146D01*
X409741Y569485D01*
X408791Y569370D01*
X408003Y568826D01*
X407558Y567979D01*
Y567021D01*
X408003Y566174D01*
X408791Y565630D01*
X409741Y565515D01*
X410636Y565854D01*
X411271Y566571D01*
X411500Y567500D01*
X381500D02*
X381271Y568429D01*
X380636Y569146D01*
X379741Y569485D01*
X378791Y569370D01*
X378003Y568826D01*
X377558Y567979D01*
Y567021D01*
X378003Y566174D01*
X378791Y565630D01*
X379741Y565515D01*
X380636Y565854D01*
X381271Y566571D01*
X381500Y567500D01*
X366500D02*
X366271Y568429D01*
X365636Y569146D01*
X364741Y569485D01*
X363791Y569370D01*
X363003Y568826D01*
X362558Y567979D01*
Y567021D01*
X363003Y566174D01*
X363791Y565630D01*
X364741Y565515D01*
X365636Y565854D01*
X366271Y566571D01*
X366500Y567500D01*
X336500D02*
X336271Y568429D01*
X335636Y569146D01*
X334741Y569485D01*
X333791Y569370D01*
X333003Y568826D01*
X332558Y567979D01*
Y567021D01*
X333003Y566174D01*
X333791Y565630D01*
X334741Y565515D01*
X335636Y565854D01*
X336271Y566571D01*
X336500Y567500D01*
X306500D02*
X306271Y568429D01*
X305636Y569146D01*
X304741Y569485D01*
X303791Y569370D01*
X303003Y568826D01*
X302558Y567979D01*
Y567021D01*
X303003Y566174D01*
X303791Y565630D01*
X304741Y565515D01*
X305636Y565854D01*
X306271Y566571D01*
X306500Y567500D01*
M02*
