G04*
G04 #@! TF.GenerationSoftware,Altium Limited,Altium Designer,22.3.1 (43)*
G04*
G04 Layer_Physical_Order=1*
G04 Layer_Color=255*
%FSLAX25Y25*%
%MOIN*%
G70*
G04*
G04 #@! TF.SameCoordinates,858DE3B6-85AC-4B40-B280-C04C9E7F73BC*
G04*
G04*
G04 #@! TF.FilePolarity,Positive*
G04*
G01*
G75*
%ADD20O,0.08268X0.02362*%
%ADD21R,0.08268X0.02362*%
%ADD22R,0.05000X0.05000*%
%ADD23R,0.08661X0.06890*%
%ADD24R,0.05000X0.05000*%
%ADD25R,0.03937X0.10630*%
%ADD26R,0.12992X0.10630*%
%ADD27R,0.07874X0.07874*%
%ADD28R,0.04134X0.12598*%
%ADD29R,0.41142X0.39370*%
%ADD30R,0.08823X0.08061*%
G04:AMPARAMS|DCode=31|XSize=55mil|YSize=50mil|CornerRadius=0mil|HoleSize=0mil|Usage=FLASHONLY|Rotation=270.000|XOffset=0mil|YOffset=0mil|HoleType=Round|Shape=Octagon|*
%AMOCTAGOND31*
4,1,8,-0.01250,-0.02750,0.01250,-0.02750,0.02500,-0.01500,0.02500,0.01500,0.01250,0.02750,-0.01250,0.02750,-0.02500,0.01500,-0.02500,-0.01500,-0.01250,-0.02750,0.0*
%
%ADD31OCTAGOND31*%

%ADD32R,0.05000X0.05500*%
%ADD63C,0.02500*%
%ADD64C,0.05500*%
%ADD65C,0.07500*%
%ADD66C,0.04500*%
%ADD67C,0.03500*%
%ADD68R,0.27559X0.27559*%
%ADD69R,0.07087X0.07087*%
%ADD70C,0.07087*%
%ADD71C,0.06299*%
%ADD72R,0.06299X0.06299*%
%ADD73O,0.04724X0.07874*%
%ADD74R,0.04724X0.07874*%
%ADD75O,0.11811X0.08661*%
%ADD76C,0.07480*%
%ADD77R,0.07480X0.07480*%
%ADD78C,0.07677*%
%ADD79R,0.07874X0.04724*%
%ADD80O,0.07874X0.04724*%
%ADD81C,0.20000*%
%ADD82C,0.07874*%
%ADD83C,0.05000*%
%ADD84C,0.06000*%
G36*
X134469Y541469D02*
X135357Y540788D01*
X136390Y540359D01*
X137500Y540213D01*
X147758D01*
X147765Y540203D01*
X148703Y539265D01*
X149807Y538527D01*
X151034Y538019D01*
X152336Y537760D01*
X153664D01*
X153675Y537762D01*
X164713Y526724D01*
Y500500D01*
X163500D01*
Y489500D01*
Y481224D01*
Y479776D01*
X163875Y478377D01*
X164599Y477123D01*
X165623Y476099D01*
X165989Y475887D01*
X165953Y475331D01*
X164999Y474377D01*
X164275Y473123D01*
X163900Y471725D01*
Y471563D01*
X160652Y468315D01*
X160162Y468412D01*
X159962Y468893D01*
X159281Y469781D01*
X152920Y476142D01*
X153901Y477123D01*
X154625Y478377D01*
X155000Y479776D01*
Y480500D01*
Y489500D01*
Y500500D01*
Y501224D01*
X154625Y502623D01*
X153901Y503877D01*
X152877Y504901D01*
X151623Y505625D01*
X150224Y506000D01*
X148776D01*
X147377Y505625D01*
X146123Y504901D01*
X145099Y503877D01*
X144375Y502623D01*
X144000Y501224D01*
Y499776D01*
Y489500D01*
Y485716D01*
X143538Y485524D01*
X134007Y495055D01*
X134214Y495555D01*
X137331D01*
Y496500D01*
X138055D01*
X139454Y496875D01*
X140708Y497599D01*
X141732Y498623D01*
X142456Y499877D01*
X142831Y501276D01*
Y502724D01*
X142456Y504123D01*
X141732Y505377D01*
X140708Y506401D01*
X139454Y507125D01*
X138055Y507500D01*
X137331D01*
Y508445D01*
X122669D01*
Y496787D01*
X119220D01*
Y508445D01*
X104559D01*
Y506287D01*
X89646D01*
Y515763D01*
X92373D01*
X93482Y515909D01*
X94516Y516337D01*
X95404Y517018D01*
X96390Y518004D01*
X96409Y518000D01*
X97591D01*
X98750Y518231D01*
X99842Y518683D01*
X100825Y519340D01*
X101661Y520175D01*
X102317Y521158D01*
X102769Y522250D01*
X103000Y523409D01*
Y524591D01*
X102865Y525270D01*
X103272Y525788D01*
X114749Y526282D01*
X115210Y526363D01*
X115674Y526424D01*
X115760Y526460D01*
X115851Y526476D01*
X116276Y526674D01*
X116708Y526853D01*
X116782Y526909D01*
X116866Y526948D01*
X117225Y527249D01*
X117596Y527534D01*
X132125Y542063D01*
X133875D01*
X134469Y541469D01*
D02*
G37*
G36*
X275777Y405871D02*
X275315Y405680D01*
X269405Y411589D01*
X269597Y412051D01*
X273937D01*
Y422776D01*
X273937Y422776D01*
X273822Y423276D01*
X273983Y424500D01*
X273799Y425900D01*
X273259Y427204D01*
X272615Y428043D01*
X273259Y428882D01*
X273799Y430187D01*
X273983Y431587D01*
X273799Y432986D01*
X273259Y434291D01*
X272399Y435411D01*
X271279Y436270D01*
X269975Y436811D01*
X269875Y436983D01*
X270105Y437539D01*
X270251Y438649D01*
Y450219D01*
X270105Y451329D01*
X269677Y452363D01*
X268996Y453251D01*
X259470Y462777D01*
X259299Y464073D01*
X258759Y465377D01*
X257899Y466498D01*
X256779Y467357D01*
X255475Y467897D01*
X254075Y468082D01*
X250925D01*
X250600Y468367D01*
Y497037D01*
X255562Y502000D01*
X255724D01*
X257123Y502375D01*
X258377Y503099D01*
X259401Y504123D01*
X260125Y505377D01*
X260500Y506776D01*
Y508224D01*
X260125Y509623D01*
X259401Y510877D01*
X258377Y511901D01*
X257123Y512625D01*
X255724Y513000D01*
X254276D01*
X252877Y512625D01*
X251623Y511901D01*
X250599Y510877D01*
X249875Y509623D01*
X249500Y508224D01*
Y508062D01*
X243282Y501844D01*
X242601Y500956D01*
X242172Y499923D01*
X242026Y498813D01*
Y409424D01*
X242172Y408314D01*
X242601Y407280D01*
X243282Y406393D01*
X265713Y383961D01*
Y328732D01*
X257589D01*
Y327501D01*
X231858D01*
X227167Y332192D01*
X227076Y332652D01*
X226560Y333897D01*
X225812Y335017D01*
X224859Y335969D01*
X223739Y336718D01*
X222495Y337233D01*
X221174Y337496D01*
X219827D01*
X219073Y337346D01*
X218687Y337664D01*
Y373652D01*
X219073Y373969D01*
X219827Y373819D01*
X221174D01*
X222495Y374082D01*
X223739Y374597D01*
X224859Y375346D01*
X225812Y376298D01*
X226560Y377418D01*
X227076Y378663D01*
X227339Y379984D01*
Y381331D01*
X227076Y382652D01*
X226560Y383897D01*
X225812Y385017D01*
X224859Y385969D01*
X223739Y386718D01*
X222495Y387233D01*
X221174Y387496D01*
X219827D01*
X219073Y387346D01*
X218687Y387664D01*
Y393337D01*
X219073Y393654D01*
X219827Y393504D01*
X221174D01*
X222495Y393767D01*
X223739Y394282D01*
X224859Y395031D01*
X225812Y395983D01*
X226560Y397103D01*
X227076Y398348D01*
X227339Y399669D01*
Y401016D01*
X227076Y402337D01*
X226560Y403582D01*
X225812Y404702D01*
X224859Y405654D01*
X223739Y406403D01*
X222495Y406918D01*
X221174Y407181D01*
X219827D01*
X219073Y407031D01*
X218687Y407348D01*
Y419825D01*
X240231Y441369D01*
X240912Y442257D01*
X241340Y443291D01*
X241487Y444400D01*
Y465100D01*
X241340Y466210D01*
X240912Y467244D01*
X240231Y468131D01*
X237431Y470931D01*
X236543Y471613D01*
X235509Y472041D01*
X234400Y472187D01*
X213600D01*
X212490Y472041D01*
X211456Y471613D01*
X210569Y470931D01*
X208069Y468432D01*
X207786Y468063D01*
X206525Y467897D01*
X205221Y467357D01*
X204101Y466498D01*
X203241Y465377D01*
X202701Y464073D01*
X202517Y462673D01*
X202701Y461273D01*
X203074Y460373D01*
X202740Y459873D01*
X197689D01*
X196531Y461031D01*
X195643Y461712D01*
X194609Y462141D01*
X193500Y462287D01*
X185500D01*
Y463500D01*
X179487D01*
Y477424D01*
X185538Y483476D01*
X186000Y483284D01*
Y480276D01*
X186375Y478877D01*
X187099Y477623D01*
X188123Y476599D01*
X189377Y475875D01*
X190776Y475500D01*
X192224D01*
X193623Y475875D01*
X194877Y476599D01*
X195901Y477623D01*
X196625Y478877D01*
X197000Y480276D01*
Y481000D01*
Y490000D01*
Y496414D01*
X200024D01*
X203000Y493438D01*
Y488500D01*
Y483378D01*
X202499Y482877D01*
X201775Y481623D01*
X201400Y480224D01*
Y478776D01*
X201775Y477377D01*
X202499Y476123D01*
X203523Y475099D01*
X204777Y474375D01*
X206176Y474000D01*
X207624D01*
X209023Y474375D01*
X210277Y475099D01*
X211301Y476123D01*
X212025Y477377D01*
X212400Y478776D01*
Y479410D01*
X212437Y479500D01*
X214000D01*
Y488500D01*
Y493438D01*
X218086Y497524D01*
X218488Y498047D01*
X219088Y498008D01*
X219599Y497123D01*
X220623Y496099D01*
X221877Y495375D01*
X223276Y495000D01*
X223438D01*
X226219Y492219D01*
X226500Y492003D01*
Y488500D01*
Y480224D01*
Y478776D01*
X226875Y477377D01*
X227599Y476123D01*
X228623Y475099D01*
X229877Y474375D01*
X231276Y474000D01*
X232724D01*
X234123Y474375D01*
X235377Y475099D01*
X236401Y476123D01*
X237125Y477377D01*
X237500Y478776D01*
Y479500D01*
Y488500D01*
Y499500D01*
X236287D01*
Y540600D01*
X236141Y541710D01*
X235712Y542743D01*
X235031Y543631D01*
X231624Y547038D01*
X231816Y547500D01*
X235938D01*
X238213Y545224D01*
Y527797D01*
X237816Y527279D01*
X237276Y525975D01*
X237091Y524575D01*
Y521425D01*
X237276Y520025D01*
X237816Y518721D01*
X238676Y517601D01*
X239796Y516741D01*
X241100Y516201D01*
X242500Y516017D01*
X243900Y516201D01*
X245204Y516741D01*
X246043Y517385D01*
X246882Y516741D01*
X248187Y516201D01*
X249587Y516017D01*
X250811Y516178D01*
X251311Y516063D01*
Y516063D01*
X262035D01*
Y529937D01*
X253873D01*
Y538900D01*
X254724D01*
X256123Y539275D01*
X257377Y539999D01*
X258401Y541023D01*
X259125Y542277D01*
X259500Y543676D01*
Y545124D01*
X259131Y546500D01*
X259115Y546593D01*
X259350Y547000D01*
X259500D01*
Y556000D01*
Y567000D01*
X248500D01*
Y562062D01*
X246169Y559731D01*
X245487Y558843D01*
X245059Y557809D01*
X244913Y556700D01*
Y551302D01*
X244451Y551111D01*
X242000Y553562D01*
Y556500D01*
Y567500D01*
X237062D01*
X234000Y570562D01*
Y570724D01*
X233625Y572123D01*
X232901Y573377D01*
X231877Y574401D01*
X230623Y575125D01*
X229224Y575500D01*
X227776D01*
X226377Y575125D01*
X225123Y574401D01*
X224099Y573377D01*
X223375Y572123D01*
X223000Y570724D01*
Y569276D01*
X223375Y567877D01*
X224099Y566623D01*
X225123Y565599D01*
X226377Y564875D01*
X227776Y564500D01*
X227938D01*
X231000Y561438D01*
Y556500D01*
Y548332D01*
X230500Y548085D01*
X229943Y548513D01*
X228909Y548941D01*
X227800Y549087D01*
X207600D01*
X206491Y548941D01*
X205457Y548513D01*
X204569Y547832D01*
X202969Y546232D01*
X202288Y545344D01*
X201859Y544310D01*
X201845Y544201D01*
X191976D01*
Y529965D01*
X191820Y529694D01*
X191445Y528295D01*
Y526847D01*
X191820Y525448D01*
X192544Y524194D01*
X193568Y523170D01*
X194822Y522446D01*
X196221Y522071D01*
X197669D01*
X199068Y522446D01*
X200322Y523170D01*
X201346Y524194D01*
X202070Y525448D01*
X202445Y526847D01*
Y527571D01*
X210769D01*
Y502331D01*
X208500Y500062D01*
X204831Y503731D01*
X203943Y504413D01*
X202909Y504841D01*
X201800Y504987D01*
X174700D01*
X173787Y504867D01*
X173287Y505199D01*
Y528500D01*
X173141Y529609D01*
X172712Y530643D01*
X172031Y531531D01*
X166302Y537260D01*
X166509Y537760D01*
X166656Y537760D01*
X179740D01*
Y551240D01*
X166260D01*
Y538163D01*
X166260Y538010D01*
X165760Y537802D01*
X159738Y543824D01*
X159740Y543836D01*
Y545164D01*
X159481Y546466D01*
X158973Y547693D01*
X158235Y548797D01*
X157297Y549735D01*
X156193Y550473D01*
X154966Y550981D01*
X153664Y551240D01*
X152336D01*
X151034Y550981D01*
X149807Y550473D01*
X148703Y549735D01*
X147765Y548797D01*
X147758Y548787D01*
X139937D01*
Y555937D01*
X126063D01*
Y548125D01*
X112714Y534776D01*
X102179Y534323D01*
X101977Y534780D01*
X106031Y538834D01*
X106712Y539722D01*
X107141Y540756D01*
X107287Y541865D01*
Y542063D01*
X109937D01*
Y555937D01*
X96063D01*
Y542063D01*
X96482D01*
X96674Y541601D01*
X95226Y540153D01*
X94764Y540345D01*
Y578685D01*
X47622D01*
Y562783D01*
X47622D01*
X46299Y562652D01*
X45026Y562266D01*
X43854Y561640D01*
X42826Y560796D01*
X41982Y559768D01*
X41356Y558596D01*
X40970Y557323D01*
X40839Y556000D01*
X40970Y554677D01*
X41356Y553405D01*
X41982Y552232D01*
X42826Y551204D01*
X43854Y550361D01*
X45026Y549734D01*
X46299Y549348D01*
X47622Y549218D01*
X47622D01*
Y533315D01*
X60200D01*
X60213Y533300D01*
Y524299D01*
X57269D01*
X56990Y524336D01*
X53027D01*
X52817Y524842D01*
X52161Y525825D01*
X51325Y526660D01*
X50342Y527317D01*
X49250Y527769D01*
X48091Y528000D01*
X46909D01*
X45750Y527769D01*
X44658Y527317D01*
X43772Y526725D01*
X43598Y526953D01*
X39270Y531281D01*
X38382Y531962D01*
X37348Y532391D01*
X36239Y532537D01*
X31532D01*
X30423Y532391D01*
X29389Y531962D01*
X28501Y531281D01*
X27138Y529918D01*
X26639Y529942D01*
X26469Y530150D01*
X25352Y531066D01*
X24079Y531746D01*
X22697Y532166D01*
X22452Y532190D01*
Y532692D01*
X22697Y532716D01*
X24079Y533136D01*
X25352Y533816D01*
X26469Y534732D01*
X27345Y535800D01*
X27350Y535800D01*
X28384Y536229D01*
X29272Y536910D01*
X30931Y538569D01*
X31612Y539457D01*
X32040Y540491D01*
X32186Y541600D01*
Y559200D01*
X32040Y560310D01*
X31612Y561344D01*
X30931Y562231D01*
X28531Y564632D01*
X27643Y565313D01*
X26609Y565741D01*
X25500Y565887D01*
X21724D01*
X21569Y566363D01*
X22248Y566856D01*
X23695Y568303D01*
X24898Y569958D01*
X25827Y571781D01*
X26459Y573728D01*
X26779Y575749D01*
Y577795D01*
X26459Y579816D01*
X25905Y581521D01*
X26213Y582021D01*
X275777D01*
Y405871D01*
D02*
G37*
G36*
X29099Y520123D02*
X29213Y520009D01*
Y516062D01*
X29359Y514952D01*
X29788Y513918D01*
X30469Y513031D01*
X31513Y511986D01*
Y508776D01*
X29424Y506687D01*
X28319D01*
X28269Y506771D01*
X28085Y507187D01*
X28485Y508504D01*
X28626Y509941D01*
X28485Y511378D01*
X28065Y512760D01*
X27385Y514033D01*
X26469Y515150D01*
X25352Y516066D01*
X24079Y516746D01*
X22697Y517166D01*
X22452Y517190D01*
Y517692D01*
X22697Y517716D01*
X24079Y518135D01*
X25352Y518816D01*
X26469Y519732D01*
X27225Y520654D01*
X28223D01*
X28752Y520724D01*
X29099Y520123D01*
D02*
G37*
G36*
X227713Y538825D02*
Y505222D01*
X227213Y504996D01*
X226123Y505625D01*
X224724Y506000D01*
X223276D01*
X221877Y505625D01*
X220623Y504901D01*
X219842Y504120D01*
X219342Y504327D01*
Y527571D01*
X220024D01*
Y540514D01*
X226024D01*
X227713Y538825D01*
D02*
G37*
G36*
X69600Y497713D02*
X104559D01*
Y496787D01*
X69275D01*
X68740Y497322D01*
X68974Y497796D01*
X69600Y497713D01*
D02*
G37*
G36*
X180500Y496224D02*
Y494776D01*
X180875Y493377D01*
X181599Y492123D01*
X181830Y491892D01*
X174962Y485024D01*
X174500Y485216D01*
Y489500D01*
Y494438D01*
X176476Y496414D01*
X180354D01*
X180500Y496224D01*
D02*
G37*
G36*
X170913Y465301D02*
Y455678D01*
X170451Y455486D01*
X167375Y458562D01*
Y462914D01*
X169962Y465500D01*
X170124D01*
X170516Y465606D01*
X170913Y465301D01*
D02*
G37*
G36*
X64469Y489469D02*
X65356Y488788D01*
X66390Y488360D01*
X67500Y488214D01*
X128724D01*
X151963Y464975D01*
Y452000D01*
X150776D01*
X149750Y451725D01*
X149250Y452109D01*
Y463500D01*
Y464224D01*
X148875Y465623D01*
X148151Y466877D01*
X147127Y467901D01*
X145873Y468625D01*
X144474Y469000D01*
X143026D01*
X141627Y468625D01*
X140373Y467901D01*
X139349Y466877D01*
X139183Y466589D01*
X138692Y466491D01*
X138143Y466913D01*
X137109Y467341D01*
X136000Y467487D01*
X112701D01*
X111591Y467341D01*
X110557Y466913D01*
X109669Y466231D01*
X106938Y463500D01*
X102000D01*
Y458562D01*
X73489Y430051D01*
X73028Y430246D01*
X73325Y447047D01*
X73501Y447223D01*
X74225Y448478D01*
X74600Y449876D01*
Y451325D01*
X74225Y452723D01*
X73501Y453977D01*
X72477Y455001D01*
X71223Y455726D01*
X69824Y456100D01*
X68376D01*
X66977Y455726D01*
X65723Y455001D01*
X64699Y453977D01*
X63975Y452723D01*
X63600Y451325D01*
Y449876D01*
X63975Y448478D01*
X64699Y447223D01*
X64752Y447170D01*
X63317Y365758D01*
X42264D01*
X41155Y365612D01*
X40121Y365183D01*
X39233Y364502D01*
X38169Y363438D01*
X37487Y362550D01*
X37059Y361516D01*
X36913Y360407D01*
Y261176D01*
X30673Y254936D01*
X27225D01*
X26469Y255858D01*
X25352Y256774D01*
X24079Y257455D01*
X22697Y257874D01*
X22452Y257898D01*
Y258401D01*
X22697Y258425D01*
X24079Y258844D01*
X25352Y259525D01*
X26469Y260441D01*
X27385Y261557D01*
X28065Y262831D01*
X28485Y264212D01*
X28626Y265650D01*
X28485Y267087D01*
X28065Y268468D01*
X27385Y269742D01*
X26469Y270858D01*
X25352Y271774D01*
X24079Y272455D01*
X22697Y272874D01*
X22452Y272898D01*
Y273401D01*
X22697Y273425D01*
X24079Y273844D01*
X25352Y274525D01*
X26469Y275441D01*
X27385Y276557D01*
X28065Y277831D01*
X28485Y279212D01*
X28626Y280650D01*
X28485Y282087D01*
X28065Y283469D01*
X27385Y284742D01*
X26469Y285858D01*
X25352Y286774D01*
X24079Y287455D01*
X22697Y287874D01*
X22452Y287898D01*
Y288401D01*
X22697Y288425D01*
X24079Y288844D01*
X25352Y289525D01*
X26469Y290441D01*
X27385Y291557D01*
X28065Y292831D01*
X28485Y294213D01*
X28626Y295650D01*
X28485Y297087D01*
X28065Y298468D01*
X27385Y299742D01*
X26469Y300858D01*
X25352Y301774D01*
X24079Y302455D01*
X22697Y302874D01*
X22452Y302898D01*
Y303401D01*
X22697Y303425D01*
X24079Y303844D01*
X25352Y304525D01*
X26469Y305441D01*
X27385Y306557D01*
X28065Y307831D01*
X28485Y309212D01*
X28626Y310650D01*
X28485Y312087D01*
X28065Y313469D01*
X27385Y314742D01*
X26469Y315858D01*
X25352Y316774D01*
X24079Y317455D01*
X22697Y317874D01*
X22452Y317898D01*
Y318401D01*
X22697Y318425D01*
X24079Y318844D01*
X25352Y319525D01*
X26469Y320441D01*
X27325Y321485D01*
X27509Y321509D01*
X28543Y321937D01*
X29431Y322618D01*
X30931Y324118D01*
X31612Y325006D01*
X32040Y326040D01*
X32186Y327150D01*
Y448800D01*
X32040Y449910D01*
X31612Y450944D01*
X30931Y451831D01*
X29790Y452972D01*
X28903Y453653D01*
X27869Y454082D01*
X27282Y454159D01*
X26469Y455150D01*
X25352Y456066D01*
X24079Y456746D01*
X22697Y457166D01*
X22452Y457190D01*
Y457692D01*
X22697Y457716D01*
X24079Y458136D01*
X25352Y458816D01*
X26469Y459732D01*
X27385Y460849D01*
X28065Y462122D01*
X28485Y463504D01*
X28626Y464941D01*
X28485Y466378D01*
X28065Y467760D01*
X27385Y469033D01*
X26469Y470150D01*
X25352Y471066D01*
X24079Y471746D01*
X22697Y472166D01*
X22452Y472190D01*
Y472692D01*
X22697Y472716D01*
X24079Y473136D01*
X25352Y473816D01*
X26469Y474732D01*
X27385Y475848D01*
X28065Y477122D01*
X28485Y478504D01*
X28626Y479941D01*
X28485Y481378D01*
X28065Y482760D01*
X27385Y484033D01*
X26469Y485150D01*
X25352Y486066D01*
X24079Y486746D01*
X22697Y487166D01*
X22452Y487190D01*
Y487692D01*
X22697Y487716D01*
X24079Y488135D01*
X25352Y488816D01*
X26469Y489732D01*
X27385Y490848D01*
X28065Y492122D01*
X28485Y493504D01*
X28626Y494941D01*
X28485Y496378D01*
X28110Y497614D01*
X28373Y498114D01*
X31200D01*
X32309Y498260D01*
X33343Y498688D01*
X34231Y499369D01*
X38831Y503969D01*
X39512Y504857D01*
X39940Y505891D01*
X40086Y507000D01*
Y513144D01*
X40587Y513351D01*
X64469Y489469D01*
D02*
G37*
G36*
X120125Y452500D02*
Y443500D01*
X120622D01*
X120872Y443067D01*
X120500Y442423D01*
X120125Y441024D01*
Y439576D01*
X120500Y438177D01*
X121224Y436923D01*
X122248Y435899D01*
X123502Y435175D01*
X124901Y434800D01*
X126349D01*
X127748Y435175D01*
X128513Y435616D01*
X129013Y435328D01*
Y408487D01*
X129159Y407377D01*
X129587Y406343D01*
X130269Y405455D01*
X132169Y403555D01*
X132563Y403253D01*
Y394138D01*
X142713D01*
Y347592D01*
X142599Y347477D01*
X141875Y346223D01*
X141500Y344825D01*
Y343376D01*
X141875Y341977D01*
X142599Y340723D01*
X143623Y339699D01*
X144877Y338975D01*
X146276Y338600D01*
X147724D01*
X149123Y338975D01*
X150377Y339699D01*
X151401Y340723D01*
X152125Y341977D01*
X152500Y343376D01*
Y344825D01*
X152125Y346223D01*
X151401Y347477D01*
X151286Y347592D01*
Y441000D01*
X151963D01*
Y434550D01*
X152109Y433441D01*
X152538Y432407D01*
X153219Y431519D01*
X171813Y412925D01*
Y405191D01*
X171427Y404874D01*
X170674Y405023D01*
X169326D01*
X168005Y404761D01*
X166761Y404245D01*
X165641Y403497D01*
X164688Y402544D01*
X163940Y401424D01*
X163424Y400180D01*
X163161Y398858D01*
Y397511D01*
X163424Y396190D01*
X163940Y394946D01*
X164688Y393826D01*
X165641Y392873D01*
X166761Y392125D01*
X168005Y391609D01*
X169326Y391346D01*
X170674D01*
X171427Y391496D01*
X171813Y391179D01*
Y385506D01*
X171427Y385189D01*
X170674Y385338D01*
X169326D01*
X168005Y385076D01*
X166761Y384560D01*
X165641Y383812D01*
X164688Y382859D01*
X163940Y381739D01*
X163424Y380495D01*
X163161Y379173D01*
Y377826D01*
X163424Y376505D01*
X163940Y375261D01*
X164688Y374141D01*
X165641Y373188D01*
X166761Y372440D01*
X168005Y371924D01*
X169326Y371661D01*
X170674D01*
X171427Y371811D01*
X171813Y371494D01*
Y335506D01*
X171427Y335189D01*
X170674Y335338D01*
X169326D01*
X168005Y335076D01*
X166761Y334560D01*
X165641Y333812D01*
X164688Y332859D01*
X163940Y331739D01*
X163424Y330495D01*
X163333Y330035D01*
X157598Y324300D01*
X146411D01*
Y325531D01*
X131589D01*
Y311470D01*
X146411D01*
Y312700D01*
X160000D01*
X161501Y312898D01*
X162900Y313477D01*
X164101Y314399D01*
X171313Y321611D01*
X171813Y321404D01*
Y295438D01*
X171313Y295231D01*
X164347Y302197D01*
X163146Y303119D01*
X161747Y303698D01*
X160246Y303896D01*
X146411D01*
Y305127D01*
X131589D01*
Y298327D01*
X131127Y298136D01*
X125687Y303576D01*
Y380801D01*
X125540Y381910D01*
X125112Y382944D01*
X124431Y383832D01*
X110100Y398163D01*
Y398324D01*
X109726Y399723D01*
X109002Y400977D01*
X107977Y402001D01*
X106723Y402726D01*
X105324Y403100D01*
X103876D01*
X102478Y402726D01*
X101223Y402001D01*
X100199Y400977D01*
X99475Y399723D01*
X99100Y398324D01*
Y396876D01*
X99475Y395477D01*
X100199Y394223D01*
X101223Y393199D01*
X102478Y392475D01*
X103876Y392100D01*
X104038D01*
X117113Y379025D01*
Y301800D01*
X117259Y300691D01*
X117687Y299657D01*
X118369Y298769D01*
X161713Y255425D01*
Y245938D01*
X161213Y245839D01*
X160857Y246699D01*
X160176Y247587D01*
X113886Y293876D01*
Y369400D01*
X113740Y370510D01*
X113312Y371544D01*
X112631Y372431D01*
X94150Y390913D01*
Y391606D01*
X93913Y392794D01*
X93450Y393913D01*
X92777Y394920D01*
X91920Y395777D01*
X90913Y396450D01*
X89794Y396913D01*
X88606Y397150D01*
X87394D01*
X86206Y396913D01*
X85087Y396450D01*
X84591Y396118D01*
X84150Y396354D01*
Y397150D01*
X76886D01*
Y421324D01*
X101538Y445976D01*
X102000Y445784D01*
Y443500D01*
X106938D01*
X107651Y442787D01*
X107500Y442224D01*
Y440776D01*
X107875Y439377D01*
X108599Y438123D01*
X109623Y437099D01*
X110877Y436375D01*
X112276Y436000D01*
X113724D01*
X115123Y436375D01*
X116377Y437099D01*
X117401Y438123D01*
X118125Y439377D01*
X118500Y440776D01*
Y442224D01*
X118125Y443623D01*
X117401Y444877D01*
X116377Y445901D01*
X116309Y445940D01*
X116234Y446122D01*
X115553Y447010D01*
X113000Y449562D01*
Y452500D01*
Y457438D01*
X114476Y458914D01*
X120125D01*
Y452500D01*
D02*
G37*
G36*
X224574Y457887D02*
X224201Y456986D01*
X224017Y455587D01*
X224178Y454362D01*
X224063Y453862D01*
X224063D01*
Y443138D01*
X229222D01*
X229413Y442676D01*
X214348Y427611D01*
X213886Y427803D01*
Y431725D01*
X219431Y437269D01*
X220112Y438157D01*
X220540Y439191D01*
X220687Y440300D01*
Y458125D01*
X220948Y458387D01*
X224240D01*
X224574Y457887D01*
D02*
G37*
G36*
X142713Y419293D02*
X142213Y418932D01*
X141075Y419082D01*
X137925D01*
X137586Y419379D01*
Y437025D01*
X140931Y440369D01*
X141612Y441257D01*
X142040Y442291D01*
X142186Y443400D01*
Y443500D01*
X142713D01*
Y419293D01*
D02*
G37*
G36*
X192882Y452555D02*
X193770Y451874D01*
X194804Y451446D01*
X195913Y451300D01*
X202563D01*
Y443138D01*
X212113D01*
Y442076D01*
X206569Y436531D01*
X205887Y435644D01*
X205459Y434610D01*
X205313Y433500D01*
Y413203D01*
X204851Y413011D01*
X180324Y437538D01*
X180516Y438000D01*
X180724D01*
X182123Y438375D01*
X183377Y439099D01*
X184401Y440123D01*
X185125Y441377D01*
X185500Y442776D01*
Y443500D01*
Y452500D01*
Y453713D01*
X191724D01*
X192882Y452555D01*
D02*
G37*
G36*
X261678Y448444D02*
Y440424D01*
X257782Y436528D01*
X257101Y435640D01*
X256672Y434607D01*
X256526Y433497D01*
Y414119D01*
X256672Y413010D01*
X257101Y411976D01*
X257782Y411088D01*
X269213Y399657D01*
Y393239D01*
X268751Y393048D01*
X250600Y411199D01*
Y443138D01*
X259437D01*
Y450031D01*
X259899Y450223D01*
X261678Y448444D01*
D02*
G37*
G36*
X23613Y382575D02*
Y378016D01*
X23212Y377718D01*
X22697Y377874D01*
X21260Y378016D01*
X18110D01*
X16673Y377874D01*
X16188Y377727D01*
X15787Y378025D01*
Y382566D01*
X16188Y382863D01*
X16673Y382716D01*
X18110Y382575D01*
X21260D01*
X22697Y382716D01*
X23212Y382872D01*
X23613Y382575D01*
D02*
G37*
G36*
X200213Y405525D02*
Y241000D01*
X190000D01*
Y230000D01*
X191213D01*
Y226443D01*
X191359Y225333D01*
X191656Y224618D01*
Y221797D01*
X191258Y221279D01*
X190718Y219975D01*
X190534Y218575D01*
Y215425D01*
X190718Y214025D01*
X191258Y212721D01*
X191656Y212203D01*
Y170300D01*
X191802Y169191D01*
X192008Y168693D01*
X190927Y168245D01*
X189807Y167497D01*
X188855Y166544D01*
X188106Y165424D01*
X187591Y164180D01*
X187328Y162858D01*
Y161511D01*
X187591Y160190D01*
X188106Y158946D01*
X188855Y157826D01*
X189807Y156873D01*
X190927Y156125D01*
X192172Y155609D01*
X193493Y155346D01*
X194840D01*
X195627Y155503D01*
X196013Y155186D01*
Y149499D01*
X195627Y149182D01*
X194840Y149339D01*
X193493D01*
X193407Y149321D01*
X180386Y162342D01*
Y355592D01*
X180886Y355845D01*
X182176Y355500D01*
X183624D01*
X185023Y355875D01*
X186277Y356599D01*
X187301Y357623D01*
X188025Y358877D01*
X188400Y360276D01*
Y361724D01*
X188025Y363123D01*
X187301Y364377D01*
X187187Y364492D01*
Y415700D01*
X187040Y416810D01*
X186612Y417844D01*
X185931Y418731D01*
X172726Y431936D01*
X172766Y432305D01*
X173246Y432492D01*
X200213Y405525D01*
D02*
G37*
G36*
X60154Y346284D02*
X60025Y345801D01*
X59928Y345775D01*
X58674Y345051D01*
X57649Y344027D01*
X56925Y342773D01*
X56551Y341374D01*
Y339926D01*
X56925Y338527D01*
X57649Y337273D01*
X57764Y337158D01*
Y252598D01*
X57910Y251489D01*
X58338Y250455D01*
X59020Y249567D01*
X80213Y228373D01*
Y210336D01*
X79751Y210145D01*
X77365Y212531D01*
X76477Y213212D01*
X76302Y213285D01*
X76353Y213408D01*
X76497Y214500D01*
X76353Y215592D01*
X75932Y216609D01*
X75631Y217000D01*
X75932Y217391D01*
X76353Y218408D01*
X76497Y219500D01*
X76353Y220591D01*
X75932Y221609D01*
X75261Y222482D01*
X74388Y223152D01*
X73614Y223473D01*
Y223694D01*
X73467Y224803D01*
X73039Y225837D01*
X72358Y226725D01*
X70893Y228189D01*
X70006Y228870D01*
X68972Y229299D01*
X68405Y229373D01*
X67877Y229901D01*
X66623Y230625D01*
X65224Y231000D01*
X63776D01*
X62377Y230625D01*
X61123Y229901D01*
X60335Y229114D01*
X53249D01*
X36230Y246131D01*
X35343Y246813D01*
X35212Y246867D01*
X35147Y247363D01*
X35480Y247618D01*
X44231Y256369D01*
X44912Y257257D01*
X45340Y258291D01*
X45487Y259400D01*
Y351292D01*
X45987Y351546D01*
X47276Y351200D01*
X48724D01*
X50123Y351575D01*
X51377Y352299D01*
X51491Y352414D01*
X54024D01*
X60154Y346284D01*
D02*
G37*
G36*
X225355Y317601D02*
X226556Y316679D01*
X227955Y316100D01*
X229456Y315902D01*
X257589D01*
Y314671D01*
X267375D01*
Y308329D01*
X257589D01*
Y307098D01*
X233811D01*
X232310Y306900D01*
X230911Y306321D01*
X229710Y305399D01*
X221570Y297260D01*
X221174Y297339D01*
X219827D01*
X219073Y297189D01*
X218687Y297506D01*
Y323562D01*
X219186Y323769D01*
X225355Y317601D01*
D02*
G37*
G36*
X71850Y351087D02*
Y350394D01*
X72087Y349206D01*
X72550Y348087D01*
X73223Y347080D01*
X74080Y346223D01*
X75087Y345550D01*
X76206Y345087D01*
X77394Y344850D01*
X78606D01*
X79794Y345087D01*
X80913Y345550D01*
X81920Y346223D01*
X82684Y346987D01*
X83000Y347041D01*
X83316Y346987D01*
X83713Y346590D01*
Y273876D01*
X74548Y264711D01*
X74086Y264903D01*
Y342700D01*
X73940Y343810D01*
X73512Y344844D01*
X72831Y345731D01*
X61840Y356723D01*
X62031Y357185D01*
X65753D01*
X71850Y351087D01*
D02*
G37*
G36*
X99887Y245825D02*
Y241000D01*
X84000D01*
Y237364D01*
X83538Y237173D01*
X71597Y249114D01*
X71804Y249614D01*
X96098D01*
X99887Y245825D01*
D02*
G37*
G36*
X44476Y225762D02*
X44285Y225300D01*
X35495D01*
X32955Y227840D01*
X31754Y228762D01*
X30355Y229341D01*
X28854Y229538D01*
X27353Y229341D01*
X25954Y228762D01*
X24753Y227840D01*
X23832Y226639D01*
X23252Y225240D01*
X23062Y223798D01*
X22979Y223663D01*
X22595Y223396D01*
X21260Y223528D01*
X19042D01*
X18851Y223990D01*
X21131Y226269D01*
X21812Y227157D01*
X22240Y228191D01*
X22266Y228382D01*
X22697Y228425D01*
X24079Y228844D01*
X25352Y229525D01*
X26469Y230441D01*
X27385Y231557D01*
X28065Y232831D01*
X28485Y234212D01*
X28626Y235650D01*
X28485Y237087D01*
X28112Y238314D01*
X28380Y238814D01*
X31424D01*
X44476Y225762D01*
D02*
G37*
G36*
X163333Y286808D02*
X163424Y286348D01*
X163940Y285103D01*
X164688Y283983D01*
X165641Y283031D01*
X166761Y282282D01*
X168005Y281767D01*
X169326Y281504D01*
X170674D01*
X171427Y281654D01*
X171813Y281336D01*
Y224687D01*
X171313Y224621D01*
X171125Y225323D01*
X170401Y226577D01*
X170287Y226692D01*
Y257200D01*
X170140Y258310D01*
X169712Y259344D01*
X169031Y260231D01*
X138658Y290604D01*
X138850Y291066D01*
X146411D01*
Y292297D01*
X157844D01*
X163333Y286808D01*
D02*
G37*
G36*
X264213Y282172D02*
Y223937D01*
X257724D01*
X257724Y223937D01*
X257224Y223822D01*
X256000Y223983D01*
X254600Y223799D01*
X253700Y223426D01*
X253200Y223760D01*
Y225815D01*
X253684Y226038D01*
X254123Y225600D01*
X255377Y224875D01*
X256776Y224501D01*
X258224D01*
X259623Y224875D01*
X260877Y225600D01*
X261901Y226624D01*
X262625Y227878D01*
X263000Y229276D01*
Y230000D01*
Y241000D01*
X243186D01*
Y261799D01*
X263751Y282363D01*
X264213Y282172D01*
D02*
G37*
G36*
X62236Y220100D02*
X62157Y219500D01*
X62187Y219268D01*
X61754Y218728D01*
X61090Y218641D01*
X60056Y218212D01*
X59168Y217531D01*
X55228Y213591D01*
X54754Y213824D01*
X54843Y214500D01*
X54745Y215248D01*
X54807Y215319D01*
X54807D01*
Y220540D01*
X61809D01*
X62236Y220100D01*
D02*
G37*
G36*
X41738Y201518D02*
X42612Y200848D01*
X43629Y200427D01*
X44509Y200311D01*
X45026Y199914D01*
X46303Y199385D01*
X47673Y199205D01*
X49044Y199385D01*
X50321Y199914D01*
X50621Y200145D01*
X50839Y200109D01*
X51010Y199573D01*
X40119Y188682D01*
X39438Y187794D01*
X39009Y186760D01*
X38863Y185651D01*
Y139452D01*
X38401Y139261D01*
X33731Y143931D01*
X32843Y144613D01*
X31809Y145041D01*
X30700Y145187D01*
X28639D01*
X28341Y145589D01*
X28485Y146063D01*
X28626Y147500D01*
X28485Y148937D01*
X28065Y150319D01*
X27385Y151592D01*
X26469Y152709D01*
X25352Y153625D01*
X24079Y154305D01*
X22697Y154725D01*
X22452Y154749D01*
Y155251D01*
X22697Y155275D01*
X24079Y155694D01*
X25352Y156375D01*
X26469Y157291D01*
X27385Y158407D01*
X28065Y159681D01*
X28485Y161063D01*
X28626Y162500D01*
X28485Y163937D01*
X28065Y165319D01*
X27385Y166592D01*
X26469Y167709D01*
X25352Y168625D01*
X24079Y169305D01*
X22697Y169725D01*
X22452Y169749D01*
Y170251D01*
X22697Y170275D01*
X24079Y170694D01*
X25352Y171375D01*
X26469Y172291D01*
X27385Y173407D01*
X28065Y174681D01*
X28485Y176063D01*
X28626Y177500D01*
X28485Y178937D01*
X28065Y180319D01*
X27385Y181592D01*
X26469Y182709D01*
X25352Y183625D01*
X24079Y184305D01*
X22697Y184725D01*
X21260Y184866D01*
X18110D01*
X16673Y184725D01*
X16188Y184577D01*
X15787Y184875D01*
Y193786D01*
X16188Y194084D01*
X16673Y193937D01*
X18110Y193795D01*
X21260D01*
X22697Y193937D01*
X24079Y194356D01*
X25352Y195037D01*
X26469Y195953D01*
X27385Y197069D01*
X28065Y198343D01*
X28485Y199724D01*
X28626Y201161D01*
X28542Y202020D01*
X28877Y202391D01*
X41069D01*
X41738Y201518D01*
D02*
G37*
G36*
X94313Y181501D02*
Y169191D01*
X93927Y168874D01*
X93173Y169024D01*
X91826D01*
X91073Y168874D01*
X90687Y169191D01*
Y178125D01*
X93031Y180469D01*
X93712Y181357D01*
X93813Y181600D01*
X94313Y181501D01*
D02*
G37*
G36*
X243689Y214025D02*
X244230Y212721D01*
X244627Y212203D01*
Y170687D01*
X244773Y169577D01*
X244830Y169439D01*
X244552Y169024D01*
X244326D01*
X243573Y168874D01*
X243186Y169191D01*
Y214014D01*
X243687Y214046D01*
X243689Y214025D01*
D02*
G37*
G36*
X63392Y201518D02*
X64265Y200848D01*
X65040Y200527D01*
Y197600D01*
X65186Y196490D01*
X65268Y196292D01*
X65250Y196224D01*
Y194776D01*
X65625Y193377D01*
X66349Y192123D01*
X67373Y191099D01*
X68627Y190375D01*
X70026Y190000D01*
X71474D01*
X72873Y190375D01*
X74127Y191099D01*
X74913Y191885D01*
X75413Y191678D01*
Y139500D01*
X74287D01*
Y157000D01*
X74141Y158109D01*
X73712Y159143D01*
X73031Y160031D01*
X66043Y167019D01*
Y174043D01*
X65595D01*
X65358Y174543D01*
X65792Y175591D01*
X66043Y176856D01*
Y178144D01*
X65792Y179409D01*
X65299Y180599D01*
X64583Y181671D01*
X63754Y182500D01*
X64583Y183329D01*
X65299Y184401D01*
X65792Y185591D01*
X66043Y186855D01*
Y188144D01*
X65792Y189409D01*
X65299Y190599D01*
X64583Y191671D01*
X63671Y192582D01*
X62599Y193299D01*
X61409Y193792D01*
X60144Y194043D01*
X58855D01*
X58177Y193908D01*
X57931Y194369D01*
X61131Y197569D01*
X61812Y198457D01*
X62240Y199491D01*
X62387Y200600D01*
Y202007D01*
X62887Y202177D01*
X63392Y201518D01*
D02*
G37*
G36*
X264213Y136176D02*
X260787Y132749D01*
X260287Y132957D01*
Y210063D01*
X264213D01*
Y136176D01*
D02*
G37*
G36*
X53092Y188823D02*
X52957Y188144D01*
Y186855D01*
X53208Y185591D01*
X53701Y184401D01*
X54418Y183329D01*
X55246Y182500D01*
X54418Y181671D01*
X53701Y180599D01*
X53208Y179409D01*
X52957Y178144D01*
Y176856D01*
X53208Y175591D01*
X53642Y174543D01*
X53405Y174043D01*
X52957D01*
Y160957D01*
X59981D01*
X65713Y155224D01*
Y139500D01*
X64500D01*
Y129463D01*
X58962Y123925D01*
X58500Y124116D01*
Y131500D01*
Y142500D01*
X57287D01*
Y144064D01*
X57141Y145174D01*
X56712Y146207D01*
X56710Y146210D01*
Y147254D01*
X56336Y148653D01*
X55611Y149907D01*
X54588Y150931D01*
X53333Y151655D01*
X51934Y152030D01*
X50486D01*
X49088Y151655D01*
X47937Y150991D01*
X47437Y151173D01*
Y183875D01*
X52631Y189069D01*
X53092Y188823D01*
D02*
G37*
G36*
X251713Y133298D02*
Y105276D01*
X245759Y99322D01*
X245673Y99339D01*
X244326D01*
X243573Y99189D01*
X243186Y99506D01*
Y125425D01*
X251251Y133490D01*
X251713Y133298D01*
D02*
G37*
G36*
X199513Y128898D02*
Y103909D01*
X194926Y99322D01*
X194840Y99339D01*
X193493D01*
X192673Y99175D01*
X192287Y99493D01*
Y122325D01*
X199051Y129089D01*
X199513Y128898D01*
D02*
G37*
G36*
X91826Y135661D02*
X93173D01*
X93927Y135811D01*
X94313Y135494D01*
Y100375D01*
X93259Y99322D01*
X93173Y99339D01*
X91826D01*
X91073Y99189D01*
X90687Y99506D01*
Y135494D01*
X91073Y135811D01*
X91826Y135661D01*
D02*
G37*
G36*
X105313Y367625D02*
Y292100D01*
X105459Y290991D01*
X105887Y289957D01*
X106569Y289069D01*
X152858Y242780D01*
Y241000D01*
X137000D01*
Y230000D01*
X138213D01*
Y226472D01*
X138359Y225362D01*
X138684Y224577D01*
Y221797D01*
X138287Y221279D01*
X137747Y219975D01*
X137678Y219453D01*
X136856Y219113D01*
X135969Y218431D01*
X134169Y216632D01*
X133487Y215744D01*
X133059Y214710D01*
X132913Y213600D01*
Y98634D01*
X133059Y97524D01*
X133487Y96490D01*
X134169Y95602D01*
X136512Y93259D01*
X136495Y93173D01*
Y91826D01*
X136758Y90505D01*
X137273Y89261D01*
X138022Y88141D01*
X138974Y87188D01*
X139047Y87139D01*
Y57703D01*
X138974Y57654D01*
X138022Y56702D01*
X137273Y55582D01*
X136758Y54337D01*
X136495Y53016D01*
Y51669D01*
X136758Y50348D01*
X137273Y49103D01*
X138022Y47983D01*
X138974Y47031D01*
X140094Y46282D01*
X141339Y45767D01*
X142660Y45504D01*
X144007D01*
X145328Y45767D01*
X146573Y46282D01*
X147693Y47031D01*
X148645Y47983D01*
X149394Y49103D01*
X149909Y50348D01*
X150172Y51669D01*
Y53016D01*
X149909Y54337D01*
X149394Y55582D01*
X148645Y56702D01*
X147693Y57654D01*
X147620Y57703D01*
Y87139D01*
X147693Y87188D01*
X148645Y88141D01*
X149394Y89261D01*
X149909Y90505D01*
X150172Y91826D01*
Y93173D01*
X149909Y94495D01*
X149394Y95739D01*
X148645Y96859D01*
X147693Y97812D01*
X146573Y98560D01*
X145328Y99076D01*
X144007Y99339D01*
X142660D01*
X142574Y99322D01*
X141487Y100409D01*
Y135501D01*
X141873Y135818D01*
X142660Y135661D01*
X144007D01*
X145328Y135924D01*
X146573Y136440D01*
X147693Y137188D01*
X148645Y138141D01*
X149394Y139261D01*
X149909Y140505D01*
X150172Y141826D01*
Y143174D01*
X149909Y144495D01*
X149394Y145739D01*
X148645Y146859D01*
X147693Y147812D01*
X146573Y148560D01*
X145328Y149076D01*
X144007Y149339D01*
X142660D01*
X141873Y149182D01*
X141487Y149499D01*
Y155186D01*
X141873Y155503D01*
X142660Y155346D01*
X144007D01*
X145328Y155609D01*
X146573Y156125D01*
X147693Y156873D01*
X148645Y157826D01*
X149394Y158946D01*
X149909Y160190D01*
X150172Y161511D01*
Y162858D01*
X149909Y164180D01*
X149394Y165424D01*
X148645Y166544D01*
X147693Y167497D01*
X146573Y168245D01*
X145328Y168761D01*
X144007Y169024D01*
X142660D01*
X141873Y168867D01*
X141487Y169184D01*
Y209717D01*
X141987Y210146D01*
X142971Y210017D01*
X144371Y210201D01*
X145675Y210741D01*
X146514Y211385D01*
X147353Y210741D01*
X148658Y210201D01*
X150058Y210017D01*
X151282Y210178D01*
X151782Y210063D01*
Y210063D01*
X162507D01*
Y218289D01*
X163007Y218578D01*
X163877Y218075D01*
X165276Y217700D01*
X166724D01*
X168123Y218075D01*
X169377Y218799D01*
X170401Y219823D01*
X171125Y221077D01*
X171313Y221780D01*
X171813Y221714D01*
Y160567D01*
X171959Y159457D01*
X172387Y158423D01*
X173069Y157536D01*
X187345Y143259D01*
X187328Y143174D01*
Y141826D01*
X187591Y140505D01*
X188106Y139261D01*
X188855Y138141D01*
X189807Y137188D01*
X190927Y136440D01*
X192172Y135924D01*
X192908Y135778D01*
X193072Y135235D01*
X184969Y127131D01*
X184287Y126244D01*
X183859Y125210D01*
X183713Y124100D01*
Y58509D01*
X183859Y57400D01*
X184287Y56366D01*
X184969Y55478D01*
X187345Y53102D01*
X187328Y53016D01*
Y51669D01*
X187591Y50348D01*
X188106Y49103D01*
X188855Y47983D01*
X189807Y47031D01*
X190927Y46282D01*
X192172Y45767D01*
X193493Y45504D01*
X194840D01*
X196161Y45767D01*
X197406Y46282D01*
X198526Y47031D01*
X199478Y47983D01*
X200227Y49103D01*
X200742Y50348D01*
X201005Y51669D01*
Y53016D01*
X200742Y54337D01*
X200227Y55582D01*
X199478Y56702D01*
X198526Y57654D01*
X197406Y58403D01*
X196161Y58918D01*
X194840Y59181D01*
X193493D01*
X193407Y59164D01*
X192287Y60285D01*
Y85507D01*
X192673Y85825D01*
X193493Y85661D01*
X194840D01*
X196161Y85924D01*
X197406Y86440D01*
X198526Y87188D01*
X199478Y88141D01*
X200227Y89261D01*
X200742Y90505D01*
X201005Y91826D01*
Y93173D01*
X200988Y93259D01*
X206831Y99102D01*
X207512Y99990D01*
X207940Y101024D01*
X208086Y102133D01*
Y108321D01*
X208483Y108625D01*
X208576Y108600D01*
X210024D01*
X211016Y108866D01*
X211413Y108562D01*
Y54676D01*
X205938Y49200D01*
X205776D01*
X204377Y48825D01*
X203123Y48101D01*
X202099Y47077D01*
X201375Y45823D01*
X201000Y44425D01*
Y42976D01*
X201375Y41577D01*
X202099Y40323D01*
X203123Y39299D01*
X204377Y38575D01*
X205776Y38200D01*
X207224D01*
X208623Y38575D01*
X209877Y39299D01*
X210901Y40323D01*
X211625Y41577D01*
X212000Y42976D01*
Y43138D01*
X218731Y49869D01*
X219412Y50757D01*
X219840Y51791D01*
X219987Y52900D01*
Y162145D01*
X220486Y162474D01*
X221800Y162301D01*
X223301Y162498D01*
X224700Y163078D01*
X225901Y163999D01*
X228413Y166512D01*
X229335Y167713D01*
X229914Y169112D01*
X230112Y170613D01*
Y229601D01*
X229914Y231102D01*
X229335Y232500D01*
X228812Y233182D01*
Y287398D01*
X228731Y288016D01*
X236213Y295498D01*
X257589D01*
Y294268D01*
X262878D01*
X263069Y293806D01*
X235869Y266605D01*
X235187Y265717D01*
X234759Y264684D01*
X234613Y263574D01*
Y144400D01*
X234759Y143290D01*
X235187Y142257D01*
X235869Y141369D01*
X237769Y139469D01*
X238656Y138788D01*
X239485Y138444D01*
X239688Y138141D01*
X240641Y137188D01*
X241526Y136596D01*
X241632Y135994D01*
X235869Y130231D01*
X235187Y129344D01*
X234759Y128310D01*
X234613Y127200D01*
Y58443D01*
X234759Y57333D01*
X235187Y56299D01*
X235869Y55411D01*
X238178Y53102D01*
X238161Y53016D01*
Y51669D01*
X238424Y50348D01*
X238940Y49103D01*
X239688Y47983D01*
X240641Y47030D01*
X241761Y46282D01*
X243005Y45767D01*
X244326Y45504D01*
X245673D01*
X246995Y45767D01*
X248239Y46282D01*
X249359Y47030D01*
X250312Y47983D01*
X251060Y49103D01*
X251576Y50348D01*
X251839Y51669D01*
Y53016D01*
X251576Y54337D01*
X251060Y55582D01*
X250312Y56702D01*
X249359Y57654D01*
X248239Y58403D01*
X246995Y58918D01*
X245673Y59181D01*
X244326D01*
X244241Y59164D01*
X243186Y60218D01*
Y85494D01*
X243573Y85811D01*
X244326Y85661D01*
X245673D01*
X246995Y85924D01*
X248239Y86440D01*
X249359Y87188D01*
X250312Y88141D01*
X251060Y89261D01*
X251576Y90505D01*
X251839Y91826D01*
Y93173D01*
X251821Y93259D01*
X259031Y100469D01*
X259712Y101357D01*
X260141Y102391D01*
X260287Y103500D01*
Y121400D01*
X261724D01*
X263123Y121775D01*
X264377Y122499D01*
X265401Y123523D01*
X266125Y124777D01*
X266500Y126176D01*
Y126338D01*
X271531Y131369D01*
X272212Y132257D01*
X272641Y133291D01*
X272787Y134401D01*
Y286449D01*
X275315Y288977D01*
X275777Y288786D01*
Y2021D01*
X20408D01*
X20291Y2507D01*
X20593Y2661D01*
X22248Y3864D01*
X23695Y5310D01*
X24898Y6966D01*
X25827Y8789D01*
X26459Y10735D01*
X26779Y12756D01*
Y14803D01*
X26459Y16824D01*
X25827Y18770D01*
X24898Y20593D01*
X23695Y22248D01*
X22248Y23695D01*
X20593Y24898D01*
X18770Y25827D01*
X16824Y26459D01*
X14803Y26779D01*
X12756D01*
X10735Y26459D01*
X8789Y25827D01*
X6966Y24898D01*
X5311Y23695D01*
X3864Y22248D01*
X3752Y22095D01*
X3277Y22249D01*
Y107547D01*
X3777Y107681D01*
X4099Y107123D01*
X5123Y106099D01*
X6377Y105375D01*
X7776Y105000D01*
X9224D01*
X10623Y105375D01*
X10871Y105518D01*
X11258Y105164D01*
X10886Y103937D01*
X10744Y102500D01*
X10886Y101063D01*
X11305Y99681D01*
X11986Y98408D01*
X12902Y97291D01*
X14018Y96375D01*
X15292Y95695D01*
X16673Y95275D01*
X16918Y95251D01*
Y94749D01*
X16673Y94725D01*
X15292Y94305D01*
X14018Y93625D01*
X12902Y92709D01*
X11986Y91592D01*
X11305Y90319D01*
X10886Y88937D01*
X10744Y87500D01*
X10886Y86063D01*
X11305Y84681D01*
X11986Y83407D01*
X12902Y82291D01*
X14018Y81375D01*
X15292Y80695D01*
X16673Y80275D01*
X16918Y80251D01*
Y79749D01*
X16673Y79725D01*
X15292Y79305D01*
X14018Y78625D01*
X12902Y77709D01*
X11986Y76592D01*
X11305Y75319D01*
X10886Y73937D01*
X10744Y72500D01*
X10886Y71063D01*
X11305Y69681D01*
X11986Y68407D01*
X12902Y67291D01*
X14018Y66375D01*
X15292Y65694D01*
X16673Y65275D01*
X16918Y65251D01*
Y64749D01*
X16673Y64725D01*
X15292Y64305D01*
X14018Y63625D01*
X12902Y62709D01*
X11986Y61592D01*
X11305Y60319D01*
X10886Y58937D01*
X10744Y57500D01*
X10886Y56063D01*
X11305Y54681D01*
X11986Y53408D01*
X12902Y52291D01*
X14018Y51375D01*
X15292Y50695D01*
X16673Y50275D01*
X16918Y50251D01*
Y49749D01*
X16673Y49725D01*
X15292Y49305D01*
X14018Y48625D01*
X12902Y47709D01*
X11986Y46592D01*
X11305Y45319D01*
X10886Y43937D01*
X10744Y42500D01*
X10886Y41063D01*
X11305Y39681D01*
X11986Y38407D01*
X12902Y37291D01*
X14018Y36375D01*
X15292Y35695D01*
X16673Y35275D01*
X18110Y35134D01*
X21260D01*
X22697Y35275D01*
X24079Y35695D01*
X25352Y36375D01*
X26469Y37291D01*
X27385Y38407D01*
X28065Y39681D01*
X28485Y41063D01*
X28626Y42500D01*
X28485Y43937D01*
X28065Y45319D01*
X27385Y46592D01*
X26469Y47709D01*
X25352Y48625D01*
X24079Y49305D01*
X22697Y49725D01*
X22452Y49749D01*
Y50251D01*
X22697Y50275D01*
X24079Y50695D01*
X25352Y51375D01*
X26469Y52291D01*
X27385Y53408D01*
X28065Y54681D01*
X28485Y56063D01*
X28626Y57500D01*
X28485Y58937D01*
X28065Y60319D01*
X27385Y61592D01*
X26469Y62709D01*
X25352Y63625D01*
X24079Y64305D01*
X22697Y64725D01*
X22452Y64749D01*
Y65251D01*
X22697Y65275D01*
X24079Y65694D01*
X25352Y66375D01*
X26469Y67291D01*
X27385Y68407D01*
X28065Y69681D01*
X28485Y71063D01*
X28626Y72500D01*
X28485Y73937D01*
X28065Y75319D01*
X27385Y76592D01*
X26469Y77709D01*
X25352Y78625D01*
X24079Y79305D01*
X22697Y79725D01*
X22452Y79749D01*
Y80251D01*
X22697Y80275D01*
X24079Y80695D01*
X25352Y81375D01*
X26469Y82291D01*
X27385Y83407D01*
X28065Y84681D01*
X28485Y86063D01*
X28626Y87500D01*
X28485Y88937D01*
X28065Y90319D01*
X27385Y91592D01*
X26469Y92709D01*
X25352Y93625D01*
X24079Y94305D01*
X22697Y94725D01*
X22452Y94749D01*
Y95251D01*
X22697Y95275D01*
X24079Y95695D01*
X25352Y96375D01*
X26469Y97291D01*
X27385Y98408D01*
X28065Y99681D01*
X28485Y101063D01*
X28626Y102500D01*
X28485Y103937D01*
X28065Y105319D01*
X27385Y106592D01*
X26469Y107709D01*
X25352Y108625D01*
X24079Y109305D01*
X22697Y109725D01*
X22452Y109749D01*
Y110251D01*
X22697Y110275D01*
X24079Y110695D01*
X25352Y111375D01*
X26469Y112291D01*
X27385Y113408D01*
X28065Y114681D01*
X28485Y116063D01*
X28626Y117500D01*
X28485Y118937D01*
X28065Y120319D01*
X27385Y121592D01*
X26469Y122709D01*
X25352Y123625D01*
X24079Y124305D01*
X22697Y124725D01*
X22452Y124749D01*
Y125251D01*
X22697Y125275D01*
X24079Y125695D01*
X25352Y126375D01*
X26469Y127291D01*
X27385Y128408D01*
X28065Y129681D01*
X28485Y131063D01*
X28626Y132500D01*
X28485Y133937D01*
X28065Y135319D01*
X27641Y136114D01*
X27940Y136614D01*
X28924D01*
X33013Y132525D01*
Y37200D01*
X33159Y36091D01*
X33587Y35057D01*
X34269Y34169D01*
X37769Y30669D01*
X38656Y29988D01*
X39690Y29560D01*
X40800Y29414D01*
X56800D01*
X57909Y29560D01*
X58943Y29988D01*
X59831Y30669D01*
X60831Y31669D01*
X61512Y32557D01*
X61940Y33591D01*
X62086Y34700D01*
Y72534D01*
X61940Y73643D01*
X61512Y74677D01*
X60831Y75565D01*
X59062Y77333D01*
X69262Y87533D01*
X69424D01*
X70823Y87908D01*
X72077Y88632D01*
X73101Y89656D01*
X73825Y90910D01*
X74200Y92309D01*
Y93757D01*
X73825Y95156D01*
X73101Y96410D01*
X72077Y97434D01*
X70823Y98158D01*
X69424Y98533D01*
X67976D01*
X66577Y98158D01*
X65323Y97434D01*
X64299Y96410D01*
X63575Y95156D01*
X63200Y93757D01*
Y93595D01*
X61817Y92213D01*
X61334Y92342D01*
X61125Y93123D01*
X60401Y94377D01*
X59377Y95401D01*
X58537Y95886D01*
Y96917D01*
X58500Y97195D01*
Y102880D01*
X59054D01*
X59708Y102609D01*
X60817Y102463D01*
X75583D01*
X76693Y102609D01*
X77727Y103038D01*
X78614Y103719D01*
X81651Y106756D01*
X82113Y106564D01*
Y58443D01*
X82259Y57333D01*
X82687Y56299D01*
X83369Y55412D01*
X85678Y53102D01*
X85661Y53016D01*
Y51669D01*
X85924Y50348D01*
X86440Y49103D01*
X87188Y47983D01*
X88141Y47031D01*
X89261Y46282D01*
X90505Y45767D01*
X91826Y45504D01*
X93173D01*
X94495Y45767D01*
X95739Y46282D01*
X96859Y47031D01*
X97812Y47983D01*
X98560Y49103D01*
X99076Y50348D01*
X99339Y51669D01*
Y53016D01*
X99076Y54337D01*
X98560Y55582D01*
X97812Y56702D01*
X96859Y57654D01*
X95739Y58403D01*
X94495Y58918D01*
X93173Y59181D01*
X91826D01*
X91741Y59164D01*
X90687Y60218D01*
Y85494D01*
X91073Y85811D01*
X91826Y85661D01*
X93173D01*
X94495Y85924D01*
X95739Y86440D01*
X96859Y87188D01*
X97812Y88141D01*
X98560Y89261D01*
X99076Y90505D01*
X99339Y91826D01*
Y93173D01*
X99322Y93259D01*
X101631Y95569D01*
X102312Y96456D01*
X102740Y97490D01*
X102886Y98600D01*
Y186700D01*
X102740Y187810D01*
X102312Y188844D01*
X101631Y189732D01*
X101373Y189989D01*
Y210063D01*
X109535D01*
Y223937D01*
X108460D01*
Y247600D01*
X108314Y248710D01*
X107886Y249744D01*
X107204Y250631D01*
X100904Y256931D01*
X100016Y257613D01*
X98983Y258041D01*
X97873Y258187D01*
X80802D01*
X80611Y258649D01*
X91031Y269069D01*
X91712Y269957D01*
X92141Y270991D01*
X92287Y272101D01*
Y309302D01*
X92676Y309600D01*
X94124D01*
X95523Y309975D01*
X96777Y310699D01*
X97801Y311723D01*
X98525Y312977D01*
X98900Y314376D01*
Y315825D01*
X98525Y317223D01*
X97801Y318477D01*
X97686Y318592D01*
Y365600D01*
X97540Y366710D01*
X97112Y367743D01*
X96431Y368631D01*
X94150Y370913D01*
Y371606D01*
X93913Y372794D01*
X93450Y373913D01*
X92777Y374920D01*
X92013Y375684D01*
X91958Y376000D01*
X92013Y376316D01*
X92777Y377080D01*
X93450Y378087D01*
X93688Y378662D01*
X94178Y378760D01*
X105313Y367625D01*
D02*
G37*
%LPC*%
G36*
X215496Y567429D02*
X196504D01*
Y550799D01*
X215496D01*
Y567429D01*
D02*
G37*
G36*
X87437Y480437D02*
X73563D01*
Y466563D01*
X87437D01*
Y480437D01*
D02*
G37*
G36*
X61498D02*
X60132D01*
X58792Y480170D01*
X57529Y479647D01*
X56393Y478888D01*
X55427Y477922D01*
X54668Y476786D01*
X54145Y475523D01*
X53878Y474183D01*
Y472817D01*
X54145Y471477D01*
X54668Y470214D01*
X55427Y469078D01*
X56393Y468112D01*
X57529Y467352D01*
X58792Y466829D01*
X60132Y466563D01*
X61498D01*
X62838Y466829D01*
X64101Y467352D01*
X65237Y468112D01*
X66203Y469078D01*
X66962Y470214D01*
X67485Y471477D01*
X67752Y472817D01*
Y474183D01*
X67485Y475523D01*
X66962Y476786D01*
X66203Y477922D01*
X65237Y478888D01*
X64101Y479647D01*
X62838Y480170D01*
X61498Y480437D01*
D02*
G37*
%LPD*%
D20*
X69327Y204500D02*
D03*
X47673Y214500D02*
D03*
Y209500D02*
D03*
Y204500D02*
D03*
X69327Y219500D02*
D03*
Y214500D02*
D03*
Y209500D02*
D03*
D21*
X47673Y219500D02*
D03*
D22*
X107500Y449000D02*
D03*
Y458000D02*
D03*
X191500Y486500D02*
D03*
Y495500D02*
D03*
X254000Y561500D02*
D03*
Y552500D02*
D03*
X236500Y562000D02*
D03*
Y553000D02*
D03*
X53000Y38500D02*
D03*
Y47500D02*
D03*
X143750Y449000D02*
D03*
Y458000D02*
D03*
X180000D02*
D03*
Y449000D02*
D03*
X161875Y458000D02*
D03*
Y449000D02*
D03*
X169000Y486000D02*
D03*
Y495000D02*
D03*
X125625Y449000D02*
D03*
Y458000D02*
D03*
X53000Y77333D02*
D03*
Y68333D02*
D03*
Y107167D02*
D03*
Y98167D02*
D03*
Y137000D02*
D03*
Y128000D02*
D03*
X232000Y494000D02*
D03*
Y485000D02*
D03*
X208500Y494000D02*
D03*
Y485000D02*
D03*
X149500Y486000D02*
D03*
Y495000D02*
D03*
D23*
X111890Y502000D02*
D03*
X130000D02*
D03*
D24*
X89500Y235500D02*
D03*
X98500D02*
D03*
X142500D02*
D03*
X151500D02*
D03*
X248500D02*
D03*
X257500D02*
D03*
X195500D02*
D03*
X204500D02*
D03*
D25*
X196945Y535886D02*
D03*
X215055D02*
D03*
X206000D02*
D03*
D26*
Y559114D02*
D03*
D27*
X133000Y549000D02*
D03*
X103000D02*
D03*
X80500Y473500D02*
D03*
D28*
X57807Y515000D02*
D03*
X84579D02*
D03*
X71193D02*
D03*
X77886D02*
D03*
X64500D02*
D03*
D29*
X71193Y556000D02*
D03*
D30*
X139000Y318500D02*
D03*
Y298096D02*
D03*
X265000Y321702D02*
D03*
Y301298D02*
D03*
D31*
X70000Y120250D02*
D03*
D32*
Y133750D02*
D03*
D63*
X228500Y570000D02*
X236500Y562000D01*
X228500Y570000D02*
Y570000D01*
X147000Y445750D02*
X150074D01*
X150823Y446500D02*
X151500D01*
X150074Y445750D02*
X150823Y446500D01*
X156250Y434550D02*
X176100Y414700D01*
X130500Y492500D02*
X156250Y466750D01*
Y434550D02*
Y466750D01*
X143750Y449000D02*
X147000Y445750D01*
X60400Y107167D02*
X60817Y106750D01*
X53000Y107167D02*
X60400D01*
X65478Y111978D02*
X67359D01*
X65000Y111500D02*
X65478Y111978D01*
X60817Y106750D02*
X75583D01*
X67359Y111978D02*
X70000Y114619D01*
X75583Y106750D02*
X79700Y110867D01*
X70000Y114619D02*
Y120250D01*
X230750Y495250D02*
X232000Y494000D01*
X229250Y495250D02*
X230750D01*
X224000Y500500D02*
X229250Y495250D01*
X56000Y91000D02*
Y91676D01*
X53000Y98167D02*
X54250Y96917D01*
Y93427D02*
Y96917D01*
Y93427D02*
X56000Y91676D01*
X112522Y441978D02*
Y443979D01*
Y441978D02*
X113000Y441500D01*
X107500Y449000D02*
X112522Y443979D01*
X51473Y224827D02*
X64500D01*
Y225500D02*
X64842Y225158D01*
X67862D01*
X69327Y223694D01*
Y219500D02*
Y223694D01*
X98500Y229931D02*
Y235500D01*
X98500Y235500D01*
X104173Y217000D02*
Y247600D01*
X98500Y229931D02*
X98500Y229931D01*
X97873Y253900D02*
X104173Y247600D01*
X33199Y243100D02*
X51473Y224827D01*
X70750Y195500D02*
Y196177D01*
X69327Y197600D02*
Y204500D01*
Y197600D02*
X70750Y196177D01*
X8000Y126000D02*
Y339509D01*
Y126000D02*
X8000Y126000D01*
X6900Y340609D02*
X8000Y339509D01*
X6900Y340609D02*
Y552441D01*
X3200Y115800D02*
Y556000D01*
Y115800D02*
X8500Y110500D01*
X261000Y126900D02*
X268500Y134401D01*
Y288225D02*
X275161Y294886D01*
X268500Y134401D02*
Y288225D01*
X270000Y328326D02*
Y385737D01*
X273500Y329775D02*
X275161Y328114D01*
X270000Y328326D02*
X271661Y326664D01*
X273500Y329775D02*
Y401432D01*
X260813Y414119D02*
X273500Y401432D01*
X271661Y296336D02*
Y326664D01*
X238900Y263574D02*
X271661Y296336D01*
X275161Y294886D02*
Y328114D01*
X246313Y409424D02*
X270000Y385737D01*
X260813Y433497D02*
X265965Y438649D01*
X260813Y414119D02*
Y433497D01*
X257500Y230001D02*
Y235500D01*
X238900Y144400D02*
Y263574D01*
X252500Y462673D02*
X253511D01*
X265965Y450219D01*
Y438649D02*
Y450219D01*
X51210Y145854D02*
X53000Y144064D01*
Y137000D02*
Y144064D01*
X51210Y145854D02*
Y146530D01*
X151500Y229931D02*
Y235500D01*
X84500Y198316D02*
Y230149D01*
X86400Y58443D02*
X92500Y52343D01*
X90000Y183501D02*
Y217000D01*
X86400Y179900D02*
X90000Y183501D01*
Y217000D02*
Y225900D01*
X86400Y58443D02*
Y179900D01*
X58100Y200600D02*
Y210400D01*
X62199Y214500D01*
X69327D01*
X206500Y43700D02*
X215700Y52900D01*
X214400Y231300D02*
Y421600D01*
X209300Y205300D02*
X214800Y210800D01*
Y223900D01*
X215700Y52900D02*
Y205600D01*
X209600Y229100D02*
X214800Y223900D01*
X214400Y231300D02*
X218300Y227400D01*
X215700Y205600D02*
X218300Y208200D01*
Y227400D01*
X33500Y516062D02*
Y523500D01*
X35800Y507000D02*
Y513762D01*
X33500Y516062D02*
X35800Y513762D01*
X36239Y528250D02*
X40567Y523921D01*
X19685Y524941D02*
X28223D01*
X40567Y519433D02*
Y523921D01*
X28223Y524941D02*
X31532Y528250D01*
X36239D01*
X40567Y519433D02*
X67500Y492500D01*
X130500D01*
X31200Y502400D02*
X35800Y507000D01*
X47500Y522000D02*
X48177D01*
X246313Y409424D02*
Y498813D01*
X255000Y507500D01*
X84579Y515000D02*
Y519232D01*
X85396Y520049D02*
X92373D01*
X96324Y524000D02*
X97000D01*
X84579Y519232D02*
X85396Y520049D01*
X92373D02*
X96324Y524000D01*
X56990Y520049D02*
X57807Y519232D01*
X48177Y522000D02*
X50127Y520049D01*
X57807Y515000D02*
Y519232D01*
X50127Y520049D02*
X56990D01*
X147000Y344100D02*
Y445750D01*
X18100Y229300D02*
Y235650D01*
X211100Y462673D02*
Y465400D01*
X12359Y419941D02*
X14200D01*
Y414200D02*
Y419941D01*
X139000Y215400D02*
X142971D01*
X186000Y495500D02*
X191500D01*
X175200Y479200D02*
X191500Y495500D01*
X175200Y436600D02*
Y479200D01*
Y436600D02*
X204500Y407300D01*
Y235500D02*
Y407300D01*
X215055Y500555D02*
Y535886D01*
X208500Y494000D02*
X215055Y500555D01*
X201800Y500700D02*
X208500Y494000D01*
X174700Y500700D02*
X201800D01*
X169000Y495000D02*
X174700Y500700D01*
X153000Y544500D02*
X169000Y528500D01*
Y495000D02*
Y528500D01*
X77886Y515000D02*
Y528986D01*
X114565Y530565D01*
X133000Y549000D01*
X137500Y544500D02*
X153000D01*
X133000Y549000D02*
X137500Y544500D01*
X71100Y253900D02*
X97873D01*
X69800Y255200D02*
X71100Y253900D01*
X69800Y255200D02*
Y342700D01*
X55800Y356700D02*
X69800Y342700D01*
X48000Y356700D02*
X55800D01*
X157144Y217000D02*
Y244556D01*
X109600Y292100D02*
X157144Y244556D01*
X109600Y292100D02*
Y369400D01*
X88000Y391000D02*
X109600Y369400D01*
X62051Y252598D02*
Y340650D01*
Y252598D02*
X84500Y230149D01*
X135200Y406587D02*
X139500D01*
X133300Y408487D02*
X135200Y406587D01*
X133300Y408487D02*
Y438800D01*
X137900Y443400D01*
Y461300D01*
X136000Y463200D02*
X137900Y461300D01*
X112701Y463200D02*
X136000D01*
X107500Y458000D02*
X112701Y463200D01*
X161875Y463476D02*
X169400Y471000D01*
X161875Y458000D02*
Y463476D01*
X182900Y361000D02*
Y415700D01*
X168400Y430200D02*
X182900Y415700D01*
X168400Y430200D02*
Y451475D01*
X161875Y458000D02*
X168400Y451475D01*
X242500Y523000D02*
Y547000D01*
X236500Y553000D02*
X242500Y547000D01*
X19685Y539941D02*
X26240D01*
X27900Y541600D01*
Y559200D01*
X25500Y561600D02*
X27900Y559200D01*
X8800Y561600D02*
X25500D01*
X3200Y556000D02*
X8800Y561600D01*
X176100Y160567D02*
X194167Y142500D01*
X176100Y160567D02*
Y414700D01*
X97087Y188214D02*
Y217000D01*
Y188214D02*
X98600Y186700D01*
Y98600D02*
Y186700D01*
X92500Y92500D02*
X98600Y98600D01*
X240800Y142500D02*
X245000D01*
X238900Y144400D02*
X240800Y142500D01*
X74600Y258700D02*
X88000Y272101D01*
Y351000D01*
X18100Y235650D02*
X19685D01*
X11500Y222700D02*
X18100Y229300D01*
X11500Y144600D02*
Y222700D01*
Y144600D02*
X15200Y140900D01*
X30700D01*
X37300Y134300D01*
Y37200D02*
Y134300D01*
Y37200D02*
X40800Y33700D01*
X56800D01*
X57800Y34700D01*
Y72534D01*
X53000Y77333D02*
X57800Y72534D01*
X53000Y77333D02*
X68700Y93033D01*
X67529Y361471D02*
X78000Y351000D01*
X67529Y361471D02*
X69100Y450600D01*
X19685Y250650D02*
X32449D01*
X41200Y259400D01*
Y360407D01*
X42264Y361471D01*
X67529D01*
X11500Y420800D02*
X12359Y419941D01*
X11500Y420800D02*
Y498700D01*
X15200Y502400D01*
X31200D01*
X248913Y170687D02*
Y217000D01*
Y170687D02*
X251100Y168500D01*
Y139400D02*
Y168500D01*
X238900Y127200D02*
X251100Y139400D01*
X238900Y58443D02*
Y127200D01*
Y58443D02*
X245000Y52342D01*
X14200Y419941D02*
X19685D01*
X11500Y411500D02*
X14200Y414200D01*
X11500Y244000D02*
Y411500D01*
Y244000D02*
X12400Y243100D01*
X33199D01*
X104600Y397600D02*
X121400Y380801D01*
Y301800D02*
Y380801D01*
Y301800D02*
X166000Y257200D01*
Y223200D02*
Y257200D01*
X209300Y114100D02*
Y205300D01*
X209600Y229100D02*
Y433500D01*
X216400Y440300D01*
Y459900D01*
X219173Y462673D01*
X231000D01*
X209500D02*
X211100D01*
Y465400D02*
X213600Y467900D01*
X234400D01*
X237200Y465100D01*
Y444400D02*
Y465100D01*
X214400Y421600D02*
X237200Y444400D01*
X6900Y552441D02*
X9400Y554941D01*
X19685D01*
X254000Y544400D02*
Y552500D01*
X245000Y92500D02*
X256000Y103500D01*
Y217000D01*
X51400Y62833D02*
X53000Y64433D01*
Y68333D01*
X46650Y53850D02*
X53000Y47500D01*
X46650Y53850D02*
Y109651D01*
X49800Y112800D01*
X53900D01*
X70000Y128900D01*
Y133750D01*
X43150Y48350D02*
X53000Y38500D01*
X43150Y48350D02*
Y185651D01*
X58100Y200600D01*
X195942Y170300D02*
Y217000D01*
Y170300D02*
X200300Y165943D01*
Y136400D02*
Y165943D01*
X188000Y124100D02*
X200300Y136400D01*
X188000Y58509D02*
Y124100D01*
Y58509D02*
X194167Y52343D01*
X203029Y189271D02*
Y217000D01*
Y189271D02*
X203800Y188500D01*
Y102133D02*
Y188500D01*
X194167Y92500D02*
X203800Y102133D01*
X64500Y507100D02*
Y515000D01*
Y507100D02*
X69600Y502000D01*
X111890D01*
X125625Y458000D02*
X133100Y450525D01*
X204500Y230001D02*
Y235500D01*
X93400Y315100D02*
Y365600D01*
X88000Y371000D02*
X93400Y365600D01*
X249587Y523000D02*
Y540114D01*
X249200Y540500D02*
X249587Y540114D01*
X249200Y540500D02*
Y556700D01*
X254000Y561500D01*
X72600Y376400D02*
X78000Y371000D01*
X72600Y376400D02*
Y423100D01*
X107500Y458000D01*
X64500Y515000D02*
Y533300D01*
X65265Y534065D01*
X95200D01*
X103000Y541865D01*
Y549000D01*
X232000Y494000D02*
Y540600D01*
X227800Y544801D02*
X232000Y540600D01*
X207600Y544801D02*
X227800D01*
X206000Y543200D02*
X207600Y544801D01*
X206000Y535886D02*
Y543200D01*
X125625Y440300D02*
Y449000D01*
X70000Y133750D02*
Y157000D01*
X59500Y167500D02*
X70000Y157000D01*
X69327Y209500D02*
X74334D01*
X79700Y204134D01*
Y110867D02*
Y204134D01*
X206900Y479500D02*
X208500Y481100D01*
Y485000D01*
X142971Y215400D02*
Y217000D01*
X137200Y213600D02*
X139000Y215400D01*
X137200Y98634D02*
Y213600D01*
Y98634D02*
X143333Y92500D01*
X19685Y449941D02*
X26759D01*
X27900Y448800D01*
Y327150D02*
Y448800D01*
X26400Y325650D02*
X27900Y327150D01*
X19685Y325650D02*
X26400D01*
X195913Y455587D02*
X209500D01*
X193500Y458000D02*
X195913Y455587D01*
X180000Y458000D02*
X193500D01*
X89500Y226400D02*
Y235500D01*
Y226400D02*
X90000Y225900D01*
X142500Y226472D02*
Y235500D01*
Y226472D02*
X142971Y226000D01*
Y217000D02*
Y226000D01*
X143333Y52343D02*
Y92500D01*
X195500Y226443D02*
Y235500D01*
Y226443D02*
X195942Y226000D01*
Y217000D02*
Y226000D01*
X248500Y226414D02*
Y235500D01*
Y226414D02*
X248913Y226000D01*
Y217000D02*
Y226000D01*
X53000Y122500D02*
Y128000D01*
X161875Y443500D02*
Y449000D01*
X143750Y458000D02*
Y463500D01*
X180000Y443500D02*
Y449000D01*
X149500Y480500D02*
Y486000D01*
X169000Y480500D02*
Y486000D01*
X130000Y502000D02*
X137331D01*
X71193Y515000D02*
Y524299D01*
X191500Y481000D02*
Y486500D01*
X232000Y479500D02*
Y485000D01*
X196945Y527571D02*
Y535886D01*
X149500Y495000D02*
Y500500D01*
D64*
X28854Y223739D02*
X33093Y219500D01*
X47673D01*
X223013Y230900D02*
Y287398D01*
X223429Y290917D02*
X233811Y301298D01*
X220917Y290917D02*
X223429D01*
X221800Y168100D02*
X224312Y170613D01*
X220500Y289911D02*
Y290500D01*
Y289911D02*
X223013Y287398D01*
X224312Y170613D02*
Y229601D01*
X223013Y230900D02*
X224312Y229601D01*
X220500Y290500D02*
X220917Y290917D01*
X233811Y301298D02*
X265000D01*
X21865Y213388D02*
X27063Y208190D01*
X20404Y216161D02*
X21865Y214701D01*
X19685Y216161D02*
X20404D01*
X21865Y213388D02*
Y214701D01*
X27063Y208190D02*
X45507D01*
X139000Y318500D02*
X160000D01*
X170000Y328500D01*
X139000Y298096D02*
X160246D01*
X170000Y288342D01*
X229456Y321702D02*
X265000D01*
X220500Y330658D02*
X229456Y321702D01*
D65*
X47622Y556000D02*
X71193D01*
D66*
X47673Y204500D02*
Y209500D01*
D67*
Y214500D02*
Y219500D01*
D68*
X476500Y558500D02*
D03*
Y408000D02*
D03*
X327000Y558500D02*
D03*
Y408000D02*
D03*
X476500Y376750D02*
D03*
Y226250D02*
D03*
X327000Y376750D02*
D03*
Y226250D02*
D03*
Y44500D02*
D03*
Y195000D02*
D03*
X476500Y44500D02*
D03*
Y195000D02*
D03*
D69*
X59500Y167500D02*
D03*
D70*
Y177500D02*
D03*
Y187500D02*
D03*
D71*
X88000Y371000D02*
D03*
X78000Y351000D02*
D03*
X88000Y391000D02*
D03*
Y351000D02*
D03*
X78000Y371000D02*
D03*
X88000Y381000D02*
D03*
X78000D02*
D03*
Y361000D02*
D03*
X88000D02*
D03*
D72*
X78000Y391000D02*
D03*
D73*
X248913Y217000D02*
D03*
X256000D02*
D03*
X195942D02*
D03*
X203029D02*
D03*
X142971D02*
D03*
X150058D02*
D03*
X90000D02*
D03*
X97087D02*
D03*
X249587Y523000D02*
D03*
X242500D02*
D03*
D74*
X263087Y217000D02*
D03*
X210115D02*
D03*
X157144D02*
D03*
X104173D02*
D03*
X256673Y523000D02*
D03*
D75*
X19685Y102500D02*
D03*
Y132500D02*
D03*
Y162500D02*
D03*
Y177500D02*
D03*
Y147500D02*
D03*
Y72500D02*
D03*
Y42500D02*
D03*
Y117500D02*
D03*
Y87500D02*
D03*
Y57500D02*
D03*
Y201161D02*
D03*
Y216161D02*
D03*
Y280650D02*
D03*
Y325650D02*
D03*
Y340650D02*
D03*
Y310650D02*
D03*
Y265650D02*
D03*
Y235650D02*
D03*
Y370650D02*
D03*
Y355650D02*
D03*
Y250650D02*
D03*
Y295650D02*
D03*
Y404941D02*
D03*
Y434941D02*
D03*
Y464941D02*
D03*
Y479941D02*
D03*
Y509941D02*
D03*
Y539941D02*
D03*
Y554941D02*
D03*
Y524941D02*
D03*
Y494941D02*
D03*
Y449941D02*
D03*
Y419941D02*
D03*
Y389941D02*
D03*
D76*
X153000Y544500D02*
D03*
D77*
X173000D02*
D03*
D78*
X245000Y92500D02*
D03*
Y142500D02*
D03*
Y162185D02*
D03*
Y52342D02*
D03*
X220500Y380658D02*
D03*
X170000Y378500D02*
D03*
X194167Y142500D02*
D03*
Y52343D02*
D03*
Y92500D02*
D03*
Y162185D02*
D03*
X220500Y330658D02*
D03*
Y400343D02*
D03*
Y290500D02*
D03*
X143333Y92500D02*
D03*
Y142500D02*
D03*
Y52343D02*
D03*
Y162185D02*
D03*
X92500D02*
D03*
Y92500D02*
D03*
Y52343D02*
D03*
Y142500D02*
D03*
X170000Y328500D02*
D03*
Y398185D02*
D03*
Y288342D02*
D03*
D79*
X231000Y448500D02*
D03*
X209500D02*
D03*
X252500D02*
D03*
X267000Y417413D02*
D03*
X139500Y399500D02*
D03*
D80*
X231000Y455587D02*
D03*
Y462673D02*
D03*
X209500Y455587D02*
D03*
Y462673D02*
D03*
X252500Y455587D02*
D03*
Y462673D02*
D03*
X267000Y431587D02*
D03*
Y424500D02*
D03*
X139500Y413673D02*
D03*
Y406587D02*
D03*
D81*
X576772Y13779D02*
D03*
Y576772D02*
D03*
X13779D02*
D03*
Y13779D02*
D03*
D82*
X60815Y473500D02*
D03*
D83*
X228500Y570000D02*
D03*
X151500Y446500D02*
D03*
X65000Y111500D02*
D03*
X224000Y500500D02*
D03*
X56000Y91000D02*
D03*
X113000Y441500D02*
D03*
X28854Y223739D02*
D03*
X64500Y225500D02*
D03*
X98500Y229931D02*
D03*
X70750Y195500D02*
D03*
X8000Y126000D02*
D03*
X8500Y110500D02*
D03*
X257500Y230001D02*
D03*
X51210Y146530D02*
D03*
X151500Y229931D02*
D03*
X84500Y198316D02*
D03*
X33500Y523500D02*
D03*
X47622Y556000D02*
D03*
X255000Y507500D02*
D03*
X186000Y495500D02*
D03*
X48000Y356700D02*
D03*
X62051Y340650D02*
D03*
X169400Y471000D02*
D03*
X182900Y361000D02*
D03*
X74600Y258700D02*
D03*
X68700Y93033D02*
D03*
X69100Y450600D02*
D03*
X261000Y126900D02*
D03*
X104600Y397600D02*
D03*
X166000Y223200D02*
D03*
X209300Y114100D02*
D03*
X221800Y168100D02*
D03*
X206500Y43700D02*
D03*
X254000Y544400D02*
D03*
X51400Y62833D02*
D03*
X133100Y450525D02*
D03*
X204500Y230001D02*
D03*
X93400Y315100D02*
D03*
X147000Y344100D02*
D03*
X125625Y440300D02*
D03*
X206900Y479500D02*
D03*
X53000Y122500D02*
D03*
X161875Y443500D02*
D03*
X143750Y463500D02*
D03*
X180000Y443500D02*
D03*
X149500Y480500D02*
D03*
X169000D02*
D03*
X137331Y502000D02*
D03*
X71193Y524299D02*
D03*
X191500Y481000D02*
D03*
X232000Y479500D02*
D03*
X196945Y527571D02*
D03*
X149500Y500500D02*
D03*
D84*
X47500Y522000D02*
D03*
X97000Y524000D02*
D03*
M02*
