G04*
G04 #@! TF.GenerationSoftware,Altium Limited,Altium Designer,22.3.1 (43)*
G04*
G04 Layer_Color=65535*
%FSLAX25Y25*%
%MOIN*%
G70*
G04*
G04 #@! TF.SameCoordinates,5406EE39-799D-43BB-BE37-E4F8AF43DF71*
G04*
G04*
G04 #@! TF.FilePolarity,Positive*
G04*
G01*
G75*
%ADD10C,0.01000*%
%ADD11C,0.01968*%
%ADD12C,0.00787*%
%ADD13C,0.00800*%
%ADD14C,0.00984*%
%ADD15C,0.02900*%
%ADD16C,0.01500*%
%ADD17C,0.03150*%
%ADD18C,0.00394*%
%ADD19C,0.00600*%
G36*
X253249Y409778D02*
Y409767D01*
X253246Y409745D01*
X253242Y409719D01*
Y409690D01*
X253238Y409653D01*
X253235Y409608D01*
X253231Y409564D01*
X253223Y409464D01*
X253216Y409353D01*
X253209Y409242D01*
X253205Y409131D01*
Y408258D01*
Y408254D01*
Y408247D01*
Y408228D01*
X253209Y408206D01*
Y408180D01*
Y408147D01*
X253212Y408110D01*
Y408069D01*
X253216Y408025D01*
X253220Y407973D01*
X253227Y407862D01*
X253238Y407740D01*
X253249Y407607D01*
X253235D01*
X253216Y407610D01*
X253190Y407614D01*
X253157D01*
X253120Y407618D01*
X253079Y407621D01*
X253031Y407625D01*
X252927Y407632D01*
X252817Y407640D01*
X252702Y407647D01*
X252583Y407651D01*
X249734D01*
X249705Y407647D01*
X249672D01*
X249631Y407644D01*
X249586D01*
X249538Y407640D01*
X249486Y407636D01*
X249427Y407632D01*
X249368Y407629D01*
X249235Y407618D01*
X249091Y407607D01*
Y407610D01*
X249094Y407621D01*
Y407640D01*
X249098Y407662D01*
X249102Y407692D01*
X249105Y407725D01*
X249109Y407766D01*
X249113Y407806D01*
X249120Y407854D01*
X249124Y407906D01*
X249131Y408013D01*
X249139Y408132D01*
X249142Y408250D01*
Y409124D01*
Y409127D01*
Y409138D01*
Y409153D01*
Y409175D01*
X249139Y409201D01*
Y409235D01*
X249135Y409271D01*
Y409316D01*
X249131Y409364D01*
X249128Y409412D01*
X249116Y409523D01*
X249105Y409649D01*
X249091Y409782D01*
X249109D01*
X249128Y409778D01*
X249157Y409775D01*
X249190D01*
X249231Y409771D01*
X249276Y409767D01*
X249324Y409764D01*
X249427Y409756D01*
X249542Y409749D01*
X249657Y409741D01*
X249764Y409738D01*
X252617D01*
X252639Y409741D01*
X252702D01*
X252743Y409745D01*
X252783D01*
X252831Y409749D01*
X252883Y409753D01*
X252998Y409760D01*
X253120Y409771D01*
X253249Y409782D01*
Y409778D01*
D02*
G37*
G36*
X231567Y409190D02*
X231564D01*
X231553Y409194D01*
X231534D01*
X231508Y409198D01*
X231479Y409201D01*
X231442Y409205D01*
X231401Y409209D01*
X231353Y409216D01*
X231301Y409220D01*
X231249Y409223D01*
X231135Y409231D01*
X231009Y409235D01*
X230883Y409238D01*
X229573D01*
X229917Y409053D01*
X229921D01*
X229928Y409050D01*
X229947Y409035D01*
X229958Y409024D01*
X229965Y409016D01*
X229969Y409005D01*
X229965Y408998D01*
X229962Y408994D01*
X229954Y408990D01*
X229947Y408983D01*
X229932Y408976D01*
X229913Y408968D01*
X229888Y408961D01*
X229858Y408953D01*
X229851D01*
X229832Y408946D01*
X229802Y408931D01*
X229766Y408913D01*
X229721Y408887D01*
X229680Y408850D01*
X229636Y408805D01*
X229595Y408746D01*
X229592Y408739D01*
X229580Y408724D01*
X229562Y408694D01*
X229536Y408650D01*
X229499Y408594D01*
X229455Y408528D01*
X229399Y408443D01*
X229336Y408347D01*
X229333Y408343D01*
X229325Y408335D01*
X229314Y408321D01*
X229307Y408310D01*
X230439D01*
X230480Y408313D01*
X230524D01*
X230572Y408317D01*
X230624D01*
X230683Y408321D01*
X230809Y408328D01*
X230946Y408339D01*
X231086Y408354D01*
Y408350D01*
X231083Y408335D01*
Y408317D01*
X231079Y408287D01*
X231075Y408254D01*
X231072Y408213D01*
X231068Y408169D01*
X231064Y408117D01*
X231057Y408065D01*
X231053Y408006D01*
X231046Y407884D01*
X231042Y407758D01*
X231038Y407629D01*
Y406297D01*
Y406293D01*
Y406282D01*
Y406263D01*
Y406241D01*
Y406212D01*
X231042Y406178D01*
Y406138D01*
X231046Y406089D01*
Y406041D01*
X231049Y405986D01*
X231053Y405930D01*
X231061Y405867D01*
X231072Y405734D01*
X231086Y405594D01*
X231083D01*
X231072Y405597D01*
X231053D01*
X231027Y405601D01*
X230994Y405605D01*
X230957Y405609D01*
X230912Y405612D01*
X230864Y405616D01*
X230813Y405620D01*
X230753Y405623D01*
X230631Y405631D01*
X230498Y405638D01*
X229717D01*
Y403710D01*
Y403707D01*
Y403696D01*
Y403673D01*
Y403648D01*
X229714Y403618D01*
X229710Y403585D01*
X229699Y403507D01*
X229677Y403422D01*
X229662Y403381D01*
X229640Y403340D01*
X229618Y403300D01*
X229592Y403266D01*
X229558Y403237D01*
X229521Y403211D01*
X229518D01*
X229510Y403203D01*
X229499Y403200D01*
X229477Y403189D01*
X229451Y403178D01*
X229418Y403166D01*
X229381Y403152D01*
X229333Y403137D01*
X229277Y403122D01*
X229210Y403104D01*
X229136Y403089D01*
X229055Y403074D01*
X228963Y403059D01*
X228859Y403044D01*
X228748Y403033D01*
X228622Y403022D01*
Y403026D01*
X228619Y403037D01*
Y403052D01*
X228611Y403074D01*
X228607Y403100D01*
X228596Y403133D01*
X228589Y403170D01*
X228578Y403211D01*
X228544Y403303D01*
X228504Y403407D01*
X228452Y403518D01*
X228385Y403636D01*
X228389D01*
X228400Y403633D01*
X228419Y403629D01*
X228441Y403622D01*
X228470Y403614D01*
X228504Y403607D01*
X228541Y403599D01*
X228582Y403592D01*
X228670Y403574D01*
X228763Y403559D01*
X228852Y403548D01*
X228937Y403544D01*
X228952D01*
X228970Y403548D01*
X228992D01*
X229022Y403551D01*
X229051Y403559D01*
X229118Y403577D01*
X229148Y403592D01*
X229181Y403611D01*
X229207Y403633D01*
X229233Y403659D01*
X229255Y403692D01*
X229266Y403729D01*
X229273Y403770D01*
Y403818D01*
Y405638D01*
X228593D01*
X228556Y405634D01*
X228467D01*
X228415Y405631D01*
X228360Y405627D01*
X228300Y405623D01*
X228234Y405620D01*
X228167Y405616D01*
X228093Y405609D01*
X227941Y405594D01*
Y405597D01*
X227945Y405609D01*
Y405631D01*
X227949Y405657D01*
X227953Y405686D01*
X227956Y405727D01*
X227960Y405768D01*
X227964Y405816D01*
X227967Y405867D01*
X227971Y405923D01*
X227978Y406041D01*
X227986Y406167D01*
Y406297D01*
Y407636D01*
Y407640D01*
Y407651D01*
Y407666D01*
Y407692D01*
Y407721D01*
X227982Y407755D01*
Y407795D01*
Y407840D01*
X227978Y407891D01*
X227975Y407947D01*
X227971Y408006D01*
X227967Y408069D01*
X227956Y408206D01*
X227941Y408354D01*
X227960D01*
X227982Y408350D01*
X228012Y408347D01*
X228049Y408343D01*
X228093Y408339D01*
X228141Y408335D01*
X228193Y408332D01*
X228249Y408328D01*
X228308Y408324D01*
X228433Y408317D01*
X228559Y408313D01*
X228685Y408310D01*
X228844D01*
X228848Y408313D01*
X228855Y408332D01*
X228870Y408358D01*
X228885Y408391D01*
X228907Y408432D01*
X228933Y408483D01*
X228963Y408539D01*
X228992Y408602D01*
X229026Y408668D01*
X229059Y408742D01*
X229092Y408820D01*
X229129Y408902D01*
X229199Y409068D01*
X229266Y409238D01*
X227449D01*
Y407766D01*
Y407762D01*
Y407743D01*
Y407718D01*
Y407684D01*
Y407640D01*
Y407588D01*
Y407529D01*
X227446Y407458D01*
Y407384D01*
X227442Y407307D01*
Y407218D01*
X227438Y407126D01*
X227434Y407029D01*
X227431Y406929D01*
X227427Y406822D01*
X227423Y406715D01*
X227409Y406489D01*
X227394Y406260D01*
X227375Y406023D01*
X227349Y405790D01*
X227324Y405557D01*
X227290Y405335D01*
X227272Y405231D01*
X227253Y405127D01*
X227231Y405028D01*
X227209Y404935D01*
Y404931D01*
X227205Y404924D01*
X227201Y404909D01*
X227198Y404891D01*
X227190Y404869D01*
X227183Y404839D01*
X227175Y404806D01*
X227164Y404769D01*
X227153Y404728D01*
X227138Y404683D01*
X227120Y404632D01*
X227105Y404580D01*
X227064Y404465D01*
X227016Y404336D01*
X226961Y404199D01*
X226898Y404054D01*
X226828Y403899D01*
X226746Y403740D01*
X226658Y403577D01*
X226561Y403414D01*
X226454Y403248D01*
X226336Y403081D01*
X226332Y403085D01*
X226325Y403089D01*
X226310Y403100D01*
X226288Y403111D01*
X226265Y403126D01*
X226236Y403144D01*
X226199Y403166D01*
X226162Y403185D01*
X226077Y403233D01*
X225977Y403281D01*
X225873Y403326D01*
X225758Y403366D01*
X225762Y403370D01*
X225766Y403374D01*
X225777Y403385D01*
X225792Y403396D01*
X225829Y403433D01*
X225877Y403481D01*
X225936Y403544D01*
X226003Y403618D01*
X226077Y403707D01*
X226154Y403803D01*
X226236Y403914D01*
X226317Y404032D01*
X226398Y404162D01*
X226480Y404299D01*
X226554Y404447D01*
X226624Y404602D01*
X226687Y404765D01*
X226739Y404935D01*
Y404939D01*
X226743Y404946D01*
X226746Y404961D01*
X226750Y404980D01*
X226757Y405002D01*
X226765Y405031D01*
X226772Y405068D01*
X226780Y405105D01*
X226791Y405153D01*
X226802Y405205D01*
X226813Y405261D01*
X226824Y405320D01*
X226835Y405390D01*
X226850Y405461D01*
X226861Y405538D01*
X226872Y405623D01*
X226887Y405712D01*
X226898Y405805D01*
X226909Y405904D01*
X226920Y406012D01*
X226935Y406123D01*
X226942Y406238D01*
X226954Y406360D01*
X226965Y406485D01*
X226972Y406619D01*
X226979Y406755D01*
X226987Y406900D01*
X226994Y407048D01*
X226998Y407199D01*
X227002Y407359D01*
Y407525D01*
Y407695D01*
Y408939D01*
Y408942D01*
Y408953D01*
Y408972D01*
Y408998D01*
Y409027D01*
X226998Y409068D01*
Y409109D01*
Y409157D01*
X226994Y409212D01*
X226991Y409268D01*
X226987Y409331D01*
X226983Y409394D01*
X226972Y409534D01*
X226957Y409682D01*
X226961D01*
X226976Y409679D01*
X227002D01*
X227035Y409675D01*
X227072Y409671D01*
X227116Y409667D01*
X227168Y409664D01*
X227224Y409660D01*
X227346Y409649D01*
X227475Y409642D01*
X227605Y409638D01*
X227727Y409634D01*
X230975D01*
X231012Y409638D01*
X231057D01*
X231101Y409642D01*
X231153D01*
X231205Y409645D01*
X231323Y409656D01*
X231445Y409667D01*
X231567Y409682D01*
Y409190D01*
D02*
G37*
G36*
X261826Y409512D02*
Y409508D01*
X261830Y409501D01*
X261841Y409479D01*
X261852Y409449D01*
X261856Y409419D01*
Y409416D01*
Y409412D01*
X261848Y409394D01*
X261844Y409390D01*
X261837Y409386D01*
X261826Y409379D01*
X261807Y409375D01*
X261804D01*
X261785Y409379D01*
X261759Y409386D01*
X261719Y409401D01*
X261715D01*
X261708Y409405D01*
X261697Y409408D01*
X261678Y409412D01*
X261656Y409416D01*
X261630Y409419D01*
X261600Y409423D01*
X261523D01*
X261486Y409419D01*
X261445Y409416D01*
X261397Y409408D01*
X261341Y409397D01*
X261282Y409386D01*
X261278D01*
X261271Y409382D01*
X261260D01*
X261241Y409379D01*
X261219Y409371D01*
X261193Y409368D01*
X261164Y409360D01*
X261127Y409353D01*
X261086Y409342D01*
X261042Y409334D01*
X260990Y409323D01*
X260934Y409312D01*
X260879Y409301D01*
X260812Y409290D01*
X260746Y409279D01*
X260675Y409264D01*
X260598Y409253D01*
X260520Y409238D01*
X260435Y409227D01*
X260346Y409212D01*
X260254Y409198D01*
X260157Y409186D01*
X260057Y409172D01*
X259954Y409157D01*
X259846Y409142D01*
X259735Y409131D01*
X259621Y409116D01*
X259499Y409101D01*
X259251Y409075D01*
X258988Y409053D01*
Y409050D01*
Y409038D01*
Y409024D01*
Y409001D01*
X258992Y408972D01*
Y408935D01*
Y408894D01*
Y408846D01*
X258996Y408790D01*
Y408731D01*
Y408665D01*
X258999Y408594D01*
Y408513D01*
Y408428D01*
X259003Y408339D01*
Y408243D01*
Y408239D01*
Y408224D01*
Y408206D01*
X259007Y408176D01*
Y408143D01*
X259010Y408106D01*
Y408062D01*
X259014Y408017D01*
Y407921D01*
X259018Y407825D01*
X259021Y407732D01*
Y407688D01*
Y407651D01*
X261219D01*
X261256Y407655D01*
X261301D01*
X261349Y407658D01*
X261401Y407662D01*
X261456Y407666D01*
X261515Y407673D01*
X261578Y407677D01*
X261648Y407688D01*
X261719Y407695D01*
Y407692D01*
X261715Y407677D01*
X261711Y407651D01*
X261704Y407618D01*
X261693Y407573D01*
X261682Y407525D01*
X261671Y407466D01*
X261656Y407399D01*
X261641Y407329D01*
X261623Y407251D01*
X261600Y407166D01*
X261578Y407077D01*
X261552Y406985D01*
X261526Y406885D01*
X261500Y406785D01*
X261467Y406678D01*
X261404Y406460D01*
X261330Y406234D01*
X261249Y406001D01*
X261160Y405771D01*
X261060Y405542D01*
X260957Y405324D01*
X260905Y405216D01*
X260845Y405113D01*
X260786Y405017D01*
X260727Y404920D01*
X260731Y404917D01*
X260735Y404913D01*
X260746Y404902D01*
X260760Y404883D01*
X260779Y404865D01*
X260797Y404843D01*
X260853Y404787D01*
X260919Y404720D01*
X261001Y404646D01*
X261097Y404561D01*
X261201Y404469D01*
X261319Y404373D01*
X261449Y404273D01*
X261585Y404173D01*
X261730Y404073D01*
X261885Y403977D01*
X262048Y403884D01*
X262218Y403795D01*
X262396Y403718D01*
X262392Y403714D01*
X262385Y403707D01*
X262370Y403696D01*
X262351Y403681D01*
X262329Y403659D01*
X262300Y403633D01*
X262274Y403603D01*
X262240Y403570D01*
X262207Y403533D01*
X262174Y403492D01*
X262107Y403400D01*
X262041Y403292D01*
X261985Y403174D01*
X261981Y403178D01*
X261974Y403181D01*
X261963Y403189D01*
X261948Y403200D01*
X261926Y403218D01*
X261900Y403233D01*
X261874Y403255D01*
X261841Y403281D01*
X261767Y403337D01*
X261678Y403403D01*
X261578Y403481D01*
X261471Y403566D01*
X261356Y403659D01*
X261234Y403762D01*
X261104Y403869D01*
X260975Y403984D01*
X260842Y404103D01*
X260705Y404225D01*
X260572Y404354D01*
X260442Y404484D01*
Y404480D01*
X260435Y404476D01*
X260424Y404465D01*
X260413Y404450D01*
X260394Y404432D01*
X260376Y404410D01*
X260324Y404354D01*
X260261Y404288D01*
X260183Y404206D01*
X260091Y404117D01*
X259983Y404017D01*
X259869Y403914D01*
X259739Y403799D01*
X259595Y403681D01*
X259443Y403559D01*
X259277Y403437D01*
X259099Y403311D01*
X258914Y403185D01*
X258714Y403059D01*
Y403063D01*
X258707Y403070D01*
X258696Y403085D01*
X258685Y403107D01*
X258666Y403129D01*
X258644Y403159D01*
X258618Y403189D01*
X258585Y403222D01*
X258552Y403259D01*
X258511Y403296D01*
X258466Y403333D01*
X258418Y403374D01*
X258363Y403411D01*
X258307Y403448D01*
X258241Y403485D01*
X258174Y403518D01*
X258178D01*
X258189Y403522D01*
X258204Y403529D01*
X258230Y403537D01*
X258256Y403548D01*
X258293Y403562D01*
X258330Y403577D01*
X258374Y403596D01*
X258426Y403614D01*
X258477Y403636D01*
X258537Y403662D01*
X258596Y403692D01*
X258729Y403758D01*
X258873Y403832D01*
X259025Y403918D01*
X259184Y404017D01*
X259347Y404129D01*
X259510Y404247D01*
X259673Y404384D01*
X259832Y404528D01*
X259983Y404687D01*
X260128Y404857D01*
Y404861D01*
X260120Y404869D01*
X260113Y404880D01*
X260102Y404898D01*
X260087Y404924D01*
X260068Y404950D01*
X260046Y404987D01*
X260024Y405024D01*
X259998Y405068D01*
X259972Y405116D01*
X259943Y405168D01*
X259909Y405224D01*
X259876Y405287D01*
X259843Y405353D01*
X259806Y405427D01*
X259769Y405501D01*
X259732Y405583D01*
X259691Y405664D01*
X259650Y405753D01*
X259610Y405849D01*
X259569Y405945D01*
X259528Y406045D01*
X259484Y406149D01*
X259443Y406260D01*
X259402Y406371D01*
X259362Y406489D01*
X259321Y406607D01*
X259280Y406733D01*
X259206Y406992D01*
X259132Y407266D01*
X259021D01*
Y407259D01*
Y407240D01*
Y407207D01*
X259018Y407163D01*
Y407103D01*
X259014Y407037D01*
X259007Y406959D01*
X259003Y406870D01*
X258992Y406774D01*
X258981Y406667D01*
X258970Y406552D01*
X258951Y406434D01*
X258933Y406304D01*
X258910Y406171D01*
X258885Y406030D01*
X258855Y405882D01*
X258822Y405734D01*
X258785Y405579D01*
X258740Y405420D01*
X258696Y405261D01*
X258640Y405098D01*
X258585Y404935D01*
X258522Y404769D01*
X258452Y404602D01*
X258378Y404439D01*
X258296Y404273D01*
X258211Y404110D01*
X258115Y403947D01*
X258015Y403788D01*
X257908Y403633D01*
X257789Y403477D01*
X257667Y403329D01*
X257663Y403333D01*
X257656Y403337D01*
X257641Y403348D01*
X257619Y403363D01*
X257593Y403377D01*
X257564Y403396D01*
X257530Y403418D01*
X257493Y403440D01*
X257404Y403485D01*
X257308Y403529D01*
X257201Y403570D01*
X257086Y403603D01*
X257090Y403607D01*
X257101Y403618D01*
X257120Y403636D01*
X257146Y403659D01*
X257179Y403692D01*
X257216Y403729D01*
X257260Y403773D01*
X257308Y403825D01*
X257360Y403884D01*
X257416Y403947D01*
X257475Y404021D01*
X257534Y404099D01*
X257601Y404184D01*
X257663Y404277D01*
X257730Y404376D01*
X257800Y404480D01*
X257867Y404595D01*
X257934Y404713D01*
X258000Y404835D01*
X258067Y404968D01*
X258130Y405105D01*
X258189Y405250D01*
X258248Y405401D01*
X258304Y405560D01*
X258352Y405723D01*
X258400Y405893D01*
X258440Y406067D01*
X258477Y406252D01*
X258507Y406441D01*
X258533Y406637D01*
X258548Y406837D01*
X258559Y407044D01*
Y407048D01*
Y407063D01*
Y407089D01*
X258563Y407122D01*
Y407159D01*
Y407207D01*
X258566Y407259D01*
Y407318D01*
Y407381D01*
X258570Y407447D01*
Y407588D01*
X258574Y407736D01*
Y407884D01*
Y407888D01*
Y407895D01*
Y407906D01*
Y407925D01*
Y407943D01*
Y407969D01*
Y408002D01*
Y408036D01*
Y408076D01*
Y408121D01*
X258570Y408169D01*
Y408221D01*
Y408276D01*
Y408339D01*
X258566Y408402D01*
Y408472D01*
Y408476D01*
Y408480D01*
Y408491D01*
Y408502D01*
X258563Y408539D01*
Y408587D01*
X258559Y408646D01*
X258555Y408716D01*
X258552Y408790D01*
X258548Y408872D01*
X258544Y408953D01*
X258537Y409042D01*
X258526Y409216D01*
X258518Y409301D01*
X258507Y409379D01*
X258500Y409456D01*
X258489Y409523D01*
X258526D01*
X258566Y409519D01*
X258618D01*
X258681Y409516D01*
X258748D01*
X258892Y409512D01*
X258955D01*
X258988Y409516D01*
X259073D01*
X259129Y409519D01*
X259184Y409523D01*
X259251Y409527D01*
X259321Y409534D01*
X259395Y409538D01*
X259473Y409545D01*
X259558Y409556D01*
X259647Y409564D01*
X259739Y409579D01*
X259935Y409605D01*
X260142Y409638D01*
X260361Y409682D01*
X260587Y409730D01*
X260816Y409790D01*
X261053Y409860D01*
X261290Y409937D01*
X261526Y410030D01*
X261826Y409512D01*
D02*
G37*
G36*
X220316Y410119D02*
X220331D01*
X220349Y410115D01*
X220368Y410111D01*
X220386Y410104D01*
X220405Y410097D01*
X220416Y410085D01*
X220423Y410074D01*
Y410067D01*
Y410060D01*
X220419Y410048D01*
X220412Y410034D01*
X220397Y410015D01*
X220382Y409993D01*
X220356Y409963D01*
X220349Y409956D01*
X220334Y409937D01*
X220316Y409908D01*
X220290Y409860D01*
X220264Y409801D01*
X220253Y409767D01*
X220245Y409727D01*
X220234Y409682D01*
X220231Y409638D01*
X220223Y409586D01*
Y409530D01*
Y408924D01*
X222110D01*
X222151Y408927D01*
X222199D01*
X222247Y408931D01*
X222303Y408935D01*
X222365Y408939D01*
X222432Y408946D01*
X222502Y408950D01*
X222580Y408961D01*
X222661Y408968D01*
Y408964D01*
Y408950D01*
X222658Y408927D01*
X222654Y408898D01*
X222650Y408861D01*
X222647Y408820D01*
X222643Y408772D01*
X222639Y408724D01*
X222632Y408613D01*
X222624Y408498D01*
X222621Y408387D01*
X222617Y408335D01*
Y408287D01*
Y405801D01*
Y405797D01*
Y405786D01*
Y405771D01*
Y405749D01*
Y405720D01*
X222621Y405683D01*
Y405646D01*
X222624Y405597D01*
Y405549D01*
X222628Y405494D01*
X222632Y405435D01*
X222636Y405372D01*
X222639Y405301D01*
X222647Y405231D01*
X222661Y405079D01*
X222658D01*
X222643Y405083D01*
X222624D01*
X222599Y405087D01*
X222565Y405091D01*
X222525Y405094D01*
X222480Y405098D01*
X222432Y405105D01*
X222325Y405113D01*
X222206Y405120D01*
X222088Y405124D01*
X221966Y405127D01*
X220223D01*
Y404103D01*
Y404095D01*
Y404080D01*
X220219Y404054D01*
Y404025D01*
Y404021D01*
Y404006D01*
X220223Y403980D01*
X220231Y403951D01*
X220242Y403918D01*
X220260Y403877D01*
X220282Y403836D01*
X220312Y403792D01*
X220353Y403751D01*
X220401Y403710D01*
X220464Y403673D01*
X220534Y403640D01*
X220619Y403614D01*
X220667Y403603D01*
X220719Y403596D01*
X220775Y403592D01*
X220834Y403588D01*
X220900Y403585D01*
X220967Y403588D01*
X222266D01*
X222306Y403592D01*
X222358D01*
X222414Y403599D01*
X222473Y403603D01*
X222536Y403614D01*
X222669Y403636D01*
X222736Y403655D01*
X222798Y403677D01*
X222858Y403699D01*
X222913Y403729D01*
X222961Y403762D01*
X222998Y403803D01*
X223002Y403807D01*
X223006Y403814D01*
X223017Y403825D01*
X223031Y403844D01*
X223046Y403866D01*
X223068Y403899D01*
X223087Y403936D01*
X223109Y403984D01*
X223131Y404040D01*
X223154Y404103D01*
X223176Y404177D01*
X223198Y404258D01*
X223217Y404351D01*
X223235Y404454D01*
X223250Y404569D01*
X223261Y404695D01*
X223265Y404691D01*
X223272Y404683D01*
X223283Y404672D01*
X223302Y404658D01*
X223324Y404639D01*
X223350Y404621D01*
X223383Y404598D01*
X223416Y404572D01*
X223494Y404517D01*
X223583Y404465D01*
X223679Y404410D01*
X223783Y404365D01*
Y404362D01*
X223779Y404358D01*
X223775Y404347D01*
X223772Y404332D01*
X223760Y404295D01*
X223742Y404243D01*
X223720Y404184D01*
X223694Y404117D01*
X223664Y404043D01*
X223627Y403966D01*
X223550Y403803D01*
X223509Y403722D01*
X223464Y403648D01*
X223416Y403574D01*
X223364Y403511D01*
X223313Y403455D01*
X223261Y403411D01*
X223257Y403407D01*
X223250Y403400D01*
X223231Y403392D01*
X223209Y403377D01*
X223180Y403359D01*
X223143Y403340D01*
X223098Y403322D01*
X223043Y403303D01*
X222983Y403281D01*
X222913Y403263D01*
X222832Y403244D01*
X222743Y403229D01*
X222643Y403218D01*
X222536Y403207D01*
X222417Y403203D01*
X220793D01*
X220763Y403207D01*
X220730D01*
X220689Y403211D01*
X220608Y403218D01*
X220512Y403233D01*
X220412Y403255D01*
X220308Y403285D01*
X220205Y403322D01*
X220109Y403370D01*
X220016Y403433D01*
X219938Y403507D01*
X219901Y403548D01*
X219872Y403596D01*
X219846Y403644D01*
X219824Y403699D01*
X219809Y403758D01*
X219798Y403818D01*
X219790Y403888D01*
X219794Y403958D01*
Y405127D01*
X218155D01*
X218118Y405124D01*
X218074D01*
X218029Y405120D01*
X217974D01*
X217918Y405116D01*
X217855Y405113D01*
X217792Y405109D01*
X217652Y405094D01*
X217500Y405079D01*
Y405083D01*
X217504Y405098D01*
Y405124D01*
X217507Y405153D01*
X217511Y405194D01*
X217515Y405238D01*
X217518Y405287D01*
X217526Y405342D01*
X217533Y405457D01*
X217541Y405579D01*
X217544Y405697D01*
X217548Y405757D01*
Y405808D01*
Y408202D01*
Y408206D01*
Y408217D01*
Y408239D01*
Y408265D01*
Y408295D01*
X217544Y408335D01*
Y408380D01*
X217541Y408432D01*
Y408483D01*
X217537Y408543D01*
X217533Y408605D01*
X217530Y408672D01*
X217515Y408816D01*
X217500Y408968D01*
X217522D01*
X217544Y408964D01*
X217578Y408961D01*
X217615Y408957D01*
X217659Y408953D01*
X217711Y408950D01*
X217763Y408946D01*
X217877Y408939D01*
X217996Y408931D01*
X218110Y408927D01*
X218166Y408924D01*
X219794D01*
Y409482D01*
Y409486D01*
Y409497D01*
Y409512D01*
Y409534D01*
Y409560D01*
X219790Y409597D01*
Y409634D01*
Y409679D01*
X219787Y409727D01*
X219783Y409782D01*
X219779Y409841D01*
X219776Y409904D01*
X219772Y409971D01*
X219764Y410041D01*
X219757Y410119D01*
X219750Y410196D01*
X220316Y410119D01*
D02*
G37*
G36*
X244062Y410193D02*
X244081Y410174D01*
X244114Y410152D01*
X244159Y410119D01*
X244210Y410078D01*
X244273Y410030D01*
X244343Y409974D01*
X244421Y409912D01*
X244506Y409849D01*
X244599Y409778D01*
X244691Y409704D01*
X244791Y409627D01*
X244995Y409468D01*
X245198Y409305D01*
X244847Y408916D01*
X246371D01*
X246401Y408920D01*
X246434D01*
X246471Y408924D01*
X246515D01*
X246567Y408927D01*
X246623Y408931D01*
X246682Y408935D01*
X246748Y408939D01*
X246819Y408946D01*
X246897Y408953D01*
X246978Y408961D01*
Y408487D01*
X246959D01*
X246934Y408491D01*
X246904Y408495D01*
X246867D01*
X246823Y408498D01*
X246774Y408502D01*
X246723Y408506D01*
X246615Y408513D01*
X246504Y408520D01*
X246397Y408528D01*
X246353Y408532D01*
X242567D01*
X242542Y408528D01*
X242475D01*
X242434Y408524D01*
X242390Y408520D01*
X242342Y408517D01*
X242290Y408513D01*
X242234Y408509D01*
X242175Y408502D01*
X242109Y408495D01*
X242042Y408487D01*
Y408961D01*
X242057D01*
X242075Y408957D01*
X242101Y408953D01*
X242131D01*
X242164Y408950D01*
X242205Y408946D01*
X242246Y408942D01*
X242338Y408935D01*
X242434Y408927D01*
X242534Y408920D01*
X242627Y408916D01*
X244788D01*
X244780Y408920D01*
X244765Y408939D01*
X244736Y408961D01*
X244699Y408994D01*
X244651Y409035D01*
X244595Y409083D01*
X244529Y409138D01*
X244458Y409198D01*
X244377Y409264D01*
X244292Y409334D01*
X244203Y409408D01*
X244110Y409486D01*
X244010Y409567D01*
X243907Y409653D01*
X243696Y409819D01*
X244055Y410196D01*
X244062Y410193D01*
D02*
G37*
G36*
X225422Y409856D02*
X225433Y409849D01*
X225448Y409841D01*
X225485Y409815D01*
X225533Y409782D01*
X225596Y409741D01*
X225670Y409693D01*
X225755Y409638D01*
X225847Y409575D01*
X225943Y409508D01*
X226051Y409434D01*
X226162Y409357D01*
X226276Y409275D01*
X226513Y409101D01*
X226754Y408916D01*
X226439Y408554D01*
X226435D01*
X226432Y408561D01*
X226421Y408568D01*
X226410Y408580D01*
X226373Y408609D01*
X226321Y408646D01*
X226258Y408694D01*
X226184Y408750D01*
X226102Y408813D01*
X226014Y408883D01*
X225914Y408953D01*
X225810Y409031D01*
X225699Y409109D01*
X225585Y409186D01*
X225348Y409342D01*
X225226Y409419D01*
X225107Y409490D01*
X225414Y409860D01*
X225418D01*
X225422Y409856D01*
D02*
G37*
G36*
X257053Y410067D02*
X257064D01*
X257090Y410060D01*
X257116Y410048D01*
X257123Y410037D01*
X257127Y410026D01*
Y410023D01*
X257120Y410004D01*
X257108Y409993D01*
X257097Y409978D01*
X257079Y409960D01*
X257053Y409941D01*
X257049Y409937D01*
X257034Y409919D01*
X257027Y409904D01*
X257016Y409886D01*
X257009Y409864D01*
X256997Y409838D01*
X256986Y409808D01*
X256975Y409771D01*
X256964Y409730D01*
X256953Y409686D01*
X256946Y409638D01*
X256938Y409582D01*
X256935Y409519D01*
X256931Y409453D01*
Y408402D01*
X257586D01*
X257615Y408406D01*
X257649D01*
X257689Y408409D01*
X257734D01*
X257778Y408413D01*
X257830Y408417D01*
X257886Y408421D01*
X258004Y408432D01*
X258137Y408446D01*
Y407973D01*
X258133D01*
X258119Y407976D01*
X258096D01*
X258070Y407980D01*
X258037Y407984D01*
X257997Y407988D01*
X257952Y407995D01*
X257908Y407999D01*
X257808Y408006D01*
X257704Y408013D01*
X257604Y408017D01*
X256931D01*
Y407588D01*
X256935D01*
X256938Y407581D01*
X256961Y407562D01*
X256994Y407533D01*
X257042Y407492D01*
X257101Y407440D01*
X257168Y407381D01*
X257245Y407310D01*
X257327Y407233D01*
X257419Y407148D01*
X257512Y407055D01*
X257612Y406959D01*
X257715Y406855D01*
X257823Y406748D01*
X257926Y406633D01*
X258137Y406400D01*
X257756Y405997D01*
X257752Y406004D01*
X257741Y406023D01*
X257719Y406052D01*
X257693Y406093D01*
X257660Y406145D01*
X257619Y406204D01*
X257571Y406271D01*
X257519Y406345D01*
X257460Y406426D01*
X257397Y406511D01*
X257330Y406604D01*
X257257Y406696D01*
X257183Y406796D01*
X257101Y406896D01*
X256931Y407096D01*
Y403762D01*
Y403758D01*
Y403751D01*
Y403736D01*
Y403714D01*
Y403688D01*
X256935Y403655D01*
Y403622D01*
X256938Y403577D01*
Y403533D01*
X256942Y403481D01*
X256946Y403426D01*
X256953Y403366D01*
X256957Y403303D01*
X256964Y403233D01*
X256979Y403089D01*
X256476D01*
Y403092D01*
X256480Y403107D01*
Y403129D01*
X256483Y403159D01*
X256487Y403196D01*
X256491Y403237D01*
X256494Y403281D01*
X256498Y403333D01*
X256505Y403440D01*
X256513Y403551D01*
X256520Y403662D01*
Y403714D01*
Y403762D01*
Y406966D01*
X256517Y406959D01*
X256513Y406944D01*
X256505Y406926D01*
X256498Y406904D01*
X256487Y406874D01*
X256476Y406841D01*
X256461Y406804D01*
X256446Y406763D01*
X256428Y406715D01*
X256391Y406615D01*
X256343Y406500D01*
X256291Y406371D01*
X256235Y406238D01*
X256172Y406093D01*
X256102Y405941D01*
X256028Y405786D01*
X255950Y405627D01*
X255865Y405468D01*
X255777Y405309D01*
X255684Y405150D01*
X255680Y405153D01*
X255673Y405157D01*
X255662Y405164D01*
X255643Y405179D01*
X255621Y405190D01*
X255595Y405209D01*
X255566Y405227D01*
X255532Y405246D01*
X255455Y405283D01*
X255362Y405324D01*
X255258Y405357D01*
X255144Y405386D01*
X255148Y405390D01*
X255155Y405398D01*
X255166Y405409D01*
X255181Y405427D01*
X255199Y405449D01*
X255222Y405479D01*
X255251Y405512D01*
X255281Y405549D01*
X255314Y405594D01*
X255351Y405642D01*
X255388Y405694D01*
X255429Y405753D01*
X255473Y405816D01*
X255518Y405886D01*
X255566Y405960D01*
X255617Y406041D01*
X255665Y406126D01*
X255717Y406215D01*
X255773Y406308D01*
X255825Y406408D01*
X255880Y406515D01*
X255936Y406626D01*
X255991Y406741D01*
X256043Y406863D01*
X256098Y406989D01*
X256154Y407118D01*
X256206Y407255D01*
X256261Y407399D01*
X256313Y407544D01*
X256361Y407695D01*
X256409Y407854D01*
X256457Y408017D01*
X255936D01*
X255910Y408013D01*
X255839D01*
X255799Y408010D01*
X255754Y408006D01*
X255702Y408002D01*
X255647Y407999D01*
X255588Y407995D01*
X255525Y407988D01*
X255458Y407980D01*
X255384Y407973D01*
Y408446D01*
X255403D01*
X255421Y408443D01*
X255447Y408439D01*
X255481Y408435D01*
X255518Y408432D01*
X255558Y408428D01*
X255603Y408424D01*
X255702Y408417D01*
X255806Y408409D01*
X255906Y408406D01*
X255998Y408402D01*
X256520D01*
Y409560D01*
Y409564D01*
Y409571D01*
Y409582D01*
Y409601D01*
Y409623D01*
X256517Y409649D01*
Y409682D01*
Y409716D01*
X256513Y409756D01*
X256509Y409801D01*
X256505Y409849D01*
X256502Y409901D01*
X256498Y409956D01*
X256491Y410011D01*
X256476Y410141D01*
X257053Y410067D01*
D02*
G37*
G36*
X246356Y407322D02*
X246338D01*
X246319Y407325D01*
X246293Y407329D01*
X246260D01*
X246219Y407333D01*
X246179Y407336D01*
X246131Y407340D01*
X246031Y407347D01*
X245923Y407355D01*
X245816Y407362D01*
X245716Y407366D01*
X243289D01*
X243263Y407362D01*
X243233D01*
X243197Y407359D01*
X243160D01*
X243115Y407355D01*
X243067Y407351D01*
X243011Y407347D01*
X242956Y407344D01*
X242893Y407340D01*
X242830Y407333D01*
X242690Y407322D01*
Y407780D01*
X242693D01*
X242708Y407777D01*
X242727D01*
X242756Y407773D01*
X242790Y407769D01*
X242830Y407766D01*
X242871Y407762D01*
X242919Y407758D01*
X243023Y407747D01*
X243130Y407740D01*
X243237Y407736D01*
X243333Y407732D01*
X245738D01*
X245753Y407736D01*
X245805D01*
X245835Y407740D01*
X245872D01*
X245916Y407743D01*
X245960Y407747D01*
X246016Y407751D01*
X246071Y407755D01*
X246134Y407762D01*
X246205Y407766D01*
X246279Y407773D01*
X246356Y407780D01*
Y407322D01*
D02*
G37*
G36*
X254530Y406552D02*
X254515D01*
X254496Y406556D01*
X254470Y406559D01*
X254441D01*
X254408Y406563D01*
X254367Y406567D01*
X254322Y406570D01*
X254222Y406578D01*
X254112Y406585D01*
X253997Y406593D01*
X253878Y406596D01*
X250423D01*
Y406593D01*
X250415Y406582D01*
X250408Y406563D01*
X250393Y406537D01*
X250378Y406504D01*
X250360Y406463D01*
X250341Y406419D01*
X250319Y406367D01*
X250293Y406312D01*
X250267Y406249D01*
X250238Y406178D01*
X250204Y406108D01*
X250175Y406030D01*
X250141Y405949D01*
X250108Y405860D01*
X250071Y405771D01*
X252942D01*
X252964Y405775D01*
X253027D01*
X253068Y405779D01*
X253109D01*
X253157Y405782D01*
X253209Y405786D01*
X253320Y405794D01*
X253442Y405805D01*
X253571Y405816D01*
Y405812D01*
X253568Y405805D01*
Y405786D01*
X253564Y405768D01*
X253560Y405742D01*
X253553Y405708D01*
X253549Y405675D01*
X253542Y405634D01*
X253534Y405590D01*
X253531Y405546D01*
X253516Y405442D01*
X253501Y405331D01*
X253490Y405213D01*
Y405209D01*
Y405198D01*
X253486Y405179D01*
Y405157D01*
X253483Y405124D01*
X253479Y405091D01*
X253471Y405050D01*
X253468Y405002D01*
X253460Y404954D01*
X253453Y404898D01*
X253434Y404780D01*
X253412Y404654D01*
X253386Y404521D01*
X253353Y404384D01*
X253316Y404247D01*
X253275Y404114D01*
X253227Y403984D01*
X253172Y403869D01*
X253142Y403818D01*
X253113Y403770D01*
X253079Y403725D01*
X253042Y403685D01*
X253005Y403651D01*
X252968Y403622D01*
X252964Y403618D01*
X252946Y403607D01*
X252916Y403585D01*
X252894Y403574D01*
X252872Y403562D01*
X252842Y403548D01*
X252813Y403533D01*
X252776Y403514D01*
X252731Y403500D01*
X252687Y403481D01*
X252635Y403463D01*
X252580Y403444D01*
X252517Y403426D01*
X252450Y403407D01*
X252376Y403385D01*
X252298Y403366D01*
X252213Y403348D01*
X252121Y403329D01*
X252025Y403311D01*
X251917Y403296D01*
X251806Y403277D01*
X251688Y403263D01*
X251562Y403248D01*
X251429Y403233D01*
X251288Y403222D01*
X251140Y403211D01*
X250981Y403203D01*
X250818Y403196D01*
X250645Y403189D01*
Y403192D01*
Y403203D01*
X250641Y403218D01*
X250637Y403240D01*
X250634Y403270D01*
X250630Y403303D01*
X250622Y403340D01*
X250615Y403381D01*
X250593Y403470D01*
X250567Y403570D01*
X250530Y403677D01*
X250482Y403781D01*
X250485D01*
X250500Y403777D01*
X250522Y403773D01*
X250556Y403770D01*
X250593Y403762D01*
X250637Y403758D01*
X250689Y403751D01*
X250748Y403744D01*
X250811Y403736D01*
X250878Y403729D01*
X250948Y403725D01*
X251022Y403718D01*
X251181Y403710D01*
X251344Y403707D01*
X251440D01*
X251492Y403710D01*
X251547D01*
X251610Y403714D01*
X251681Y403718D01*
X251688D01*
X251710Y403722D01*
X251740Y403725D01*
X251784Y403729D01*
X251836Y403736D01*
X251899Y403744D01*
X251965Y403755D01*
X252036Y403766D01*
X252187Y403792D01*
X252343Y403829D01*
X252417Y403851D01*
X252487Y403873D01*
X252554Y403899D01*
X252613Y403925D01*
X252617Y403929D01*
X252631Y403940D01*
X252650Y403955D01*
X252676Y403984D01*
X252709Y404021D01*
X252743Y404069D01*
X252780Y404129D01*
X252820Y404203D01*
X252839Y404243D01*
X252857Y404291D01*
X252876Y404339D01*
X252894Y404391D01*
X252913Y404450D01*
X252931Y404513D01*
X252946Y404576D01*
X252964Y404646D01*
X252976Y404724D01*
X252990Y404802D01*
X253001Y404887D01*
X253013Y404976D01*
X253020Y405072D01*
X253027Y405172D01*
X253031Y405275D01*
X253035Y405386D01*
X249990D01*
X249960Y405383D01*
X249927D01*
X249890Y405379D01*
X249845D01*
X249797Y405375D01*
X249745Y405372D01*
X249686Y405368D01*
X249623Y405364D01*
X249557Y405357D01*
X249486Y405353D01*
X249409Y405346D01*
X249331Y405338D01*
Y405342D01*
X249335Y405346D01*
X249346Y405368D01*
X249364Y405401D01*
X249387Y405449D01*
X249416Y405509D01*
X249449Y405575D01*
X249486Y405653D01*
X249527Y405742D01*
X249572Y405834D01*
X249616Y405930D01*
X249660Y406038D01*
X249705Y406145D01*
X249794Y406367D01*
X249875Y406596D01*
X248365D01*
X248336Y406593D01*
X248303D01*
X248266Y406589D01*
X248221D01*
X248173Y406585D01*
X248121Y406582D01*
X248066Y406578D01*
X248007Y406574D01*
X247881Y406563D01*
X247744Y406552D01*
Y407029D01*
X247759D01*
X247781Y407026D01*
X247807Y407022D01*
X247836D01*
X247873Y407018D01*
X247918Y407015D01*
X247962Y407011D01*
X248066Y407003D01*
X248180Y406996D01*
X248299Y406989D01*
X248417Y406985D01*
X253908D01*
X253934Y406989D01*
X253997D01*
X254034Y406992D01*
X254078D01*
X254126Y406996D01*
X254174Y407000D01*
X254285Y407007D01*
X254404Y407018D01*
X254530Y407029D01*
Y406552D01*
D02*
G37*
G36*
X224896Y407969D02*
X224907Y407962D01*
X224919Y407951D01*
X224959Y407928D01*
X225007Y407895D01*
X225070Y407854D01*
X225144Y407803D01*
X225226Y407747D01*
X225318Y407684D01*
X225414Y407618D01*
X225522Y407544D01*
X225629Y407466D01*
X225744Y407384D01*
X225980Y407214D01*
X226221Y407037D01*
X225947Y406656D01*
X225940Y406663D01*
X225921Y406678D01*
X225888Y406704D01*
X225840Y406741D01*
X225784Y406785D01*
X225718Y406837D01*
X225640Y406896D01*
X225555Y406963D01*
X225462Y407033D01*
X225359Y407111D01*
X225252Y407188D01*
X225137Y407270D01*
X225018Y407351D01*
X224893Y407436D01*
X224763Y407521D01*
X224634Y407607D01*
X224889Y407973D01*
X224893D01*
X224896Y407969D01*
D02*
G37*
G36*
X246356Y406193D02*
X246338D01*
X246316Y406197D01*
X246290Y406201D01*
X246256D01*
X246216Y406204D01*
X246171Y406208D01*
X246123Y406212D01*
X246020Y406219D01*
X245916Y406226D01*
X245812Y406234D01*
X245761Y406238D01*
X243293D01*
X243270Y406234D01*
X243245D01*
X243211Y406230D01*
X243174D01*
X243130Y406226D01*
X243082Y406223D01*
X243030Y406219D01*
X242971Y406215D01*
X242908Y406212D01*
X242841Y406204D01*
X242767Y406201D01*
X242690Y406193D01*
Y406656D01*
X242708D01*
X242727Y406652D01*
X242756Y406648D01*
X242790Y406644D01*
X242827Y406641D01*
X242871Y406637D01*
X242919Y406633D01*
X243019Y406622D01*
X243126Y406615D01*
X243233Y406607D01*
X243333Y406604D01*
X245742D01*
X245761Y406607D01*
X245812D01*
X245846Y406611D01*
X245883Y406615D01*
X245927D01*
X245975Y406619D01*
X246027Y406622D01*
X246086Y406630D01*
X246145Y406633D01*
X246212Y406641D01*
X246282Y406648D01*
X246356Y406656D01*
Y406193D01*
D02*
G37*
G36*
X246308Y405505D02*
Y405494D01*
X246304Y405475D01*
X246301Y405449D01*
Y405416D01*
X246297Y405379D01*
X246293Y405335D01*
X246290Y405290D01*
X246286Y405238D01*
X246282Y405183D01*
X246275Y405068D01*
X246268Y404950D01*
X246264Y404828D01*
Y403703D01*
Y403696D01*
Y403685D01*
Y403670D01*
Y403651D01*
X246268Y403625D01*
Y403596D01*
X246271Y403562D01*
Y403518D01*
X246275Y403474D01*
X246279Y403418D01*
X246282Y403359D01*
X246286Y403292D01*
X246293Y403218D01*
X246301Y403141D01*
X246308Y403052D01*
X245790D01*
Y403055D01*
X245794Y403067D01*
Y403081D01*
X245798Y403104D01*
X245801Y403129D01*
X245805Y403159D01*
X245812Y403229D01*
X245820Y403311D01*
X245827Y403392D01*
X245835Y403470D01*
Y403540D01*
X243104D01*
Y403533D01*
Y403522D01*
Y403511D01*
Y403492D01*
X243108Y403470D01*
Y403444D01*
Y403414D01*
X243111Y403377D01*
Y403337D01*
X243115Y403296D01*
X243119Y403244D01*
X243123Y403192D01*
X243130Y403133D01*
X243134Y403070D01*
X243141Y403000D01*
X242627D01*
Y403004D01*
X242630Y403019D01*
Y403037D01*
X242634Y403063D01*
X242638Y403096D01*
X242641Y403137D01*
X242645Y403178D01*
X242649Y403226D01*
X242656Y403329D01*
X242664Y403440D01*
X242671Y403551D01*
X242675Y403659D01*
Y404835D01*
Y404839D01*
Y404846D01*
Y404857D01*
Y404876D01*
X242671Y404898D01*
Y404928D01*
X242667Y404961D01*
Y405002D01*
X242664Y405046D01*
X242660Y405094D01*
X242656Y405150D01*
X242653Y405209D01*
X242645Y405275D01*
X242641Y405349D01*
X242634Y405427D01*
X242627Y405509D01*
X242653D01*
X242678Y405505D01*
X242716Y405501D01*
X242760Y405498D01*
X242812Y405494D01*
X242867Y405490D01*
X242926Y405486D01*
X243052Y405479D01*
X243174Y405472D01*
X243233Y405468D01*
X243285D01*
X243333Y405464D01*
X245605D01*
X245635Y405468D01*
X245672D01*
X245716Y405472D01*
X245768D01*
X245824Y405475D01*
X245886Y405479D01*
X245957Y405483D01*
X246034Y405486D01*
X246119Y405494D01*
X246208Y405501D01*
X246308Y405509D01*
Y405505D01*
D02*
G37*
G36*
X237720Y408021D02*
X237728Y408006D01*
X237739Y407984D01*
X237754Y407951D01*
X237776Y407910D01*
X237798Y407862D01*
X237828Y407806D01*
X237857Y407743D01*
X237894Y407673D01*
X237931Y407599D01*
X237972Y407514D01*
X238017Y407425D01*
X238061Y407329D01*
X238109Y407229D01*
X238161Y407122D01*
X238213Y407011D01*
X238268Y406892D01*
X238324Y406774D01*
X238379Y406648D01*
X238438Y406519D01*
X238557Y406252D01*
X238675Y405975D01*
X238797Y405690D01*
X238916Y405394D01*
X239034Y405098D01*
X239145Y404798D01*
X238668Y404558D01*
Y404561D01*
X238660Y404576D01*
X238653Y404602D01*
X238642Y404635D01*
X238631Y404680D01*
X238612Y404728D01*
X238594Y404787D01*
X238572Y404854D01*
X238546Y404928D01*
X238516Y405009D01*
X238486Y405094D01*
X238453Y405190D01*
X238416Y405287D01*
X238375Y405394D01*
X238335Y405501D01*
X238290Y405616D01*
X238242Y405734D01*
X238194Y405856D01*
X238087Y406115D01*
X237968Y406382D01*
X237843Y406656D01*
X237706Y406941D01*
X237561Y407222D01*
X237406Y407507D01*
X237243Y407788D01*
X237717Y408025D01*
X237720Y408021D01*
D02*
G37*
G36*
X234283Y407917D02*
X234287D01*
X234294Y407914D01*
X234316Y407902D01*
X234335Y407888D01*
X234342Y407880D01*
Y407873D01*
Y407865D01*
X234335Y407851D01*
X234324Y407840D01*
X234313Y407825D01*
X234294Y407810D01*
X234268Y407795D01*
X234265D01*
X234257Y407788D01*
X234246Y407780D01*
X234231Y407769D01*
X234213Y407751D01*
X234191Y407729D01*
X234169Y407703D01*
X234143Y407673D01*
X234117Y407636D01*
X234091Y407595D01*
X234065Y407547D01*
X234039Y407495D01*
X234013Y407433D01*
X233987Y407366D01*
X233965Y407292D01*
X233946Y407211D01*
Y407207D01*
X233943Y407192D01*
X233935Y407170D01*
X233928Y407137D01*
X233917Y407100D01*
X233906Y407052D01*
X233891Y407000D01*
X233876Y406937D01*
X233854Y406870D01*
X233836Y406796D01*
X233813Y406718D01*
X233787Y406633D01*
X233758Y406545D01*
X233732Y406452D01*
X233699Y406356D01*
X233665Y406252D01*
X233591Y406041D01*
X233514Y405819D01*
X233425Y405590D01*
X233329Y405353D01*
X233225Y405120D01*
X233114Y404887D01*
X232999Y404661D01*
X232874Y404443D01*
X232870D01*
X232859Y404450D01*
X232844Y404454D01*
X232822Y404465D01*
X232796Y404476D01*
X232763Y404487D01*
X232726Y404502D01*
X232685Y404521D01*
X232592Y404554D01*
X232492Y404587D01*
X232381Y404621D01*
X232267Y404650D01*
X232270Y404654D01*
X232278Y404661D01*
X232289Y404672D01*
X232307Y404691D01*
X232330Y404713D01*
X232355Y404743D01*
X232385Y404776D01*
X232418Y404817D01*
X232455Y404861D01*
X232492Y404917D01*
X232537Y404976D01*
X232581Y405042D01*
X232629Y405116D01*
X232677Y405198D01*
X232729Y405287D01*
X232781Y405383D01*
X232837Y405486D01*
X232888Y405597D01*
X232944Y405720D01*
X233003Y405849D01*
X233059Y405986D01*
X233114Y406134D01*
X233170Y406289D01*
X233225Y406452D01*
X233280Y406626D01*
X233332Y406811D01*
X233384Y407007D01*
X233436Y407211D01*
X233484Y407425D01*
X233532Y407651D01*
X233576Y407884D01*
X233617Y408132D01*
X234283Y407917D01*
D02*
G37*
G36*
X236178Y409941D02*
X236181D01*
X236189Y409937D01*
X236204Y409934D01*
X236218Y409930D01*
X236248Y409919D01*
X236255Y409912D01*
X236263Y409904D01*
Y409901D01*
X236259Y409886D01*
X236252Y409875D01*
X236244Y409864D01*
X236229Y409845D01*
X236207Y409827D01*
X236200Y409823D01*
X236185Y409804D01*
X236174Y409790D01*
X236163Y409775D01*
X236152Y409753D01*
X236141Y409727D01*
X236126Y409697D01*
X236115Y409664D01*
X236104Y409623D01*
X236092Y409579D01*
X236081Y409527D01*
X236078Y409471D01*
X236070Y409408D01*
Y409342D01*
Y403718D01*
Y403714D01*
Y403703D01*
Y403685D01*
Y403662D01*
X236067Y403633D01*
X236063Y403599D01*
X236052Y403529D01*
X236026Y403448D01*
X236011Y403411D01*
X235989Y403370D01*
X235963Y403337D01*
X235937Y403303D01*
X235904Y403274D01*
X235863Y403248D01*
X235859D01*
X235852Y403240D01*
X235841Y403237D01*
X235819Y403226D01*
X235793Y403215D01*
X235759Y403203D01*
X235715Y403189D01*
X235667Y403170D01*
X235604Y403155D01*
X235534Y403137D01*
X235456Y403118D01*
X235364Y403100D01*
X235260Y403078D01*
X235145Y403059D01*
X235019Y403041D01*
X234879Y403022D01*
Y403026D01*
X234875Y403041D01*
X234872Y403063D01*
X234864Y403089D01*
X234857Y403122D01*
X234846Y403163D01*
X234831Y403207D01*
X234816Y403252D01*
X234783Y403355D01*
X234738Y403463D01*
X234686Y403566D01*
X234657Y403614D01*
X234627Y403659D01*
X234631D01*
X234642Y403655D01*
X234664D01*
X234690Y403651D01*
X234720Y403644D01*
X234757Y403640D01*
X234794Y403636D01*
X234838Y403629D01*
X234931Y403618D01*
X235027Y403611D01*
X235123Y403603D01*
X235168Y403599D01*
X235260D01*
X235293Y403603D01*
X235367Y403611D01*
X235401Y403618D01*
X235434Y403629D01*
X235438D01*
X235441Y403633D01*
X235464Y403644D01*
X235497Y403662D01*
X235534Y403692D01*
X235552Y403714D01*
X235567Y403740D01*
X235586Y403770D01*
X235600Y403803D01*
X235612Y403840D01*
X235619Y403884D01*
X235626Y403932D01*
Y403988D01*
Y409312D01*
Y409316D01*
Y409323D01*
Y409342D01*
Y409360D01*
X235623Y409390D01*
Y409423D01*
X235619Y409460D01*
Y409505D01*
X235615Y409553D01*
X235612Y409605D01*
X235608Y409664D01*
X235604Y409730D01*
X235597Y409797D01*
X235593Y409871D01*
X235586Y409949D01*
X235578Y410030D01*
X236178Y409941D01*
D02*
G37*
G36*
X230450Y405164D02*
X230469Y405142D01*
X230502Y405109D01*
X230546Y405061D01*
X230602Y405002D01*
X230665Y404931D01*
X230739Y404850D01*
X230820Y404761D01*
X230905Y404665D01*
X230998Y404561D01*
X231094Y404450D01*
X231194Y404336D01*
X231297Y404217D01*
X231401Y404092D01*
X231612Y403840D01*
X231216Y403511D01*
Y403514D01*
X231208Y403518D01*
X231201Y403529D01*
X231190Y403544D01*
X231175Y403562D01*
X231157Y403585D01*
X231116Y403640D01*
X231064Y403707D01*
X231001Y403788D01*
X230931Y403873D01*
X230853Y403969D01*
X230772Y404073D01*
X230679Y404184D01*
X230587Y404295D01*
X230487Y404410D01*
X230283Y404646D01*
X230180Y404761D01*
X230076Y404872D01*
X230443Y405172D01*
X230446D01*
X230450Y405164D01*
D02*
G37*
G36*
X228722Y405039D02*
X228730Y405035D01*
X228744Y405028D01*
X228763Y405020D01*
X228789Y405005D01*
X228811Y404991D01*
X228833Y404976D01*
X228848Y404961D01*
X228852Y404950D01*
Y404946D01*
X228848Y404939D01*
X228844Y404931D01*
X228833Y404920D01*
X228815Y404909D01*
X228789Y404894D01*
X228752Y404880D01*
X228748D01*
X228744Y404876D01*
X228733Y404872D01*
X228722Y404869D01*
X228685Y404850D01*
X228663Y404835D01*
X228637Y404817D01*
X228611Y404795D01*
X228582Y404769D01*
X228552Y404739D01*
X228522Y404702D01*
X228489Y404661D01*
X228456Y404617D01*
X228419Y404565D01*
X228385Y404506D01*
X228382Y404498D01*
X228371Y404480D01*
X228352Y404450D01*
X228326Y404410D01*
X228297Y404362D01*
X228260Y404302D01*
X228215Y404236D01*
X228163Y404162D01*
X228108Y404080D01*
X228049Y403992D01*
X227982Y403903D01*
X227912Y403807D01*
X227838Y403707D01*
X227756Y403607D01*
X227675Y403507D01*
X227586Y403403D01*
X227583Y403407D01*
X227579Y403411D01*
X227564Y403418D01*
X227549Y403429D01*
X227531Y403444D01*
X227505Y403459D01*
X227479Y403477D01*
X227446Y403496D01*
X227375Y403540D01*
X227287Y403592D01*
X227190Y403644D01*
X227083Y403696D01*
X227087D01*
X227090Y403699D01*
X227101Y403707D01*
X227113Y403718D01*
X227150Y403744D01*
X227198Y403784D01*
X227261Y403832D01*
X227327Y403895D01*
X227405Y403973D01*
X227490Y404062D01*
X227583Y404162D01*
X227675Y404277D01*
X227771Y404406D01*
X227823Y404476D01*
X227871Y404550D01*
X227919Y404628D01*
X227971Y404709D01*
X228019Y404795D01*
X228067Y404883D01*
X228115Y404976D01*
X228163Y405072D01*
X228211Y405176D01*
X228256Y405279D01*
X228722Y405039D01*
D02*
G37*
G36*
X225877Y406256D02*
X225884Y406249D01*
X225892Y406234D01*
X225899Y406219D01*
X225914Y406193D01*
X225929Y406167D01*
X225969Y406104D01*
X226017Y406030D01*
X226077Y405945D01*
X226143Y405856D01*
X226221Y405764D01*
X226217Y405760D01*
X226214Y405745D01*
X226202Y405723D01*
X226191Y405694D01*
X226173Y405657D01*
X226151Y405612D01*
X226128Y405560D01*
X226102Y405505D01*
X226073Y405438D01*
X226043Y405372D01*
X226006Y405294D01*
X225973Y405216D01*
X225932Y405131D01*
X225892Y405042D01*
X225851Y404950D01*
X225806Y404854D01*
X225718Y404650D01*
X225622Y404439D01*
X225525Y404221D01*
X225425Y404003D01*
X225329Y403781D01*
X225233Y403562D01*
X225137Y403348D01*
X225048Y403144D01*
X224556Y403466D01*
X224560Y403470D01*
X224563Y403481D01*
X224574Y403496D01*
X224589Y403518D01*
X224608Y403548D01*
X224626Y403581D01*
X224652Y403622D01*
X224682Y403666D01*
X224711Y403718D01*
X224745Y403777D01*
X224782Y403840D01*
X224819Y403906D01*
X224859Y403980D01*
X224904Y404062D01*
X224948Y404147D01*
X224996Y404236D01*
X225048Y404328D01*
X225096Y404428D01*
X225148Y404532D01*
X225203Y404639D01*
X225255Y404754D01*
X225311Y404869D01*
X225366Y404991D01*
X225425Y405116D01*
X225481Y405246D01*
X225536Y405379D01*
X225596Y405516D01*
X225651Y405660D01*
X225766Y405953D01*
X225877Y406260D01*
Y406256D01*
D02*
G37*
G36*
X242275Y409889D02*
X242279D01*
X242286Y409886D01*
X242305Y409871D01*
X242323Y409852D01*
X242327Y409841D01*
Y409830D01*
X242323Y409827D01*
X242316Y409812D01*
X242305Y409801D01*
X242290Y409790D01*
X242271Y409775D01*
X242246Y409760D01*
X242242D01*
X242238Y409753D01*
X242227Y409745D01*
X242216Y409738D01*
X242197Y409723D01*
X242179Y409704D01*
X242157Y409682D01*
X242135Y409656D01*
X242109Y409627D01*
X242083Y409590D01*
X242053Y409553D01*
X242024Y409508D01*
X241994Y409460D01*
X241964Y409405D01*
X241935Y409345D01*
X241905Y409283D01*
X241901Y409275D01*
X241894Y409260D01*
X241883Y409231D01*
X241868Y409194D01*
X241846Y409149D01*
X241824Y409098D01*
X241798Y409042D01*
X241772Y408983D01*
X241709Y408850D01*
X241646Y408716D01*
X241613Y408654D01*
X241580Y408591D01*
X241546Y408532D01*
X241517Y408480D01*
Y403718D01*
Y403714D01*
Y403707D01*
Y403692D01*
X241520Y403673D01*
Y403648D01*
Y403618D01*
X241524Y403581D01*
Y403540D01*
X241528Y403492D01*
X241531Y403440D01*
X241535Y403381D01*
X241539Y403314D01*
X241543Y403244D01*
X241550Y403170D01*
X241554Y403089D01*
X241561Y403000D01*
X241039D01*
Y403004D01*
Y403019D01*
X241043Y403041D01*
X241047Y403074D01*
Y403111D01*
X241051Y403152D01*
X241054Y403200D01*
X241058Y403252D01*
X241065Y403366D01*
X241073Y403485D01*
X241080Y403607D01*
X241084Y403718D01*
Y407673D01*
X241080Y407666D01*
X241069Y407647D01*
X241051Y407618D01*
X241025Y407577D01*
X240991Y407529D01*
X240954Y407470D01*
X240914Y407403D01*
X240865Y407329D01*
X240814Y407248D01*
X240755Y407163D01*
X240695Y407074D01*
X240632Y406978D01*
X240499Y406781D01*
X240359Y406582D01*
X240355Y406585D01*
X240348Y406589D01*
X240336Y406596D01*
X240318Y406611D01*
X240299Y406626D01*
X240270Y406641D01*
X240240Y406663D01*
X240203Y406681D01*
X240162Y406707D01*
X240118Y406733D01*
X240066Y406759D01*
X240015Y406785D01*
X239955Y406815D01*
X239892Y406844D01*
X239826Y406874D01*
X239752Y406904D01*
X239756Y406907D01*
X239767Y406915D01*
X239781Y406929D01*
X239807Y406948D01*
X239833Y406974D01*
X239870Y407007D01*
X239911Y407044D01*
X239955Y407089D01*
X240003Y407140D01*
X240059Y407196D01*
X240114Y407259D01*
X240177Y407325D01*
X240240Y407403D01*
X240311Y407484D01*
X240381Y407573D01*
X240455Y407666D01*
X240529Y407769D01*
X240606Y407877D01*
X240684Y407991D01*
X240762Y408117D01*
X240843Y408243D01*
X240925Y408380D01*
X241006Y408524D01*
X241088Y408676D01*
X241169Y408835D01*
X241250Y408998D01*
X241328Y409172D01*
X241406Y409353D01*
X241483Y409538D01*
X241557Y409734D01*
X241628Y409937D01*
X241698Y410148D01*
X242275Y409889D01*
D02*
G37*
G36*
X291020Y448227D02*
X291013Y448212D01*
Y448183D01*
X291005Y448146D01*
X290998Y448094D01*
X290983Y448035D01*
X290976Y447968D01*
X290968Y447901D01*
X290946Y447739D01*
X290931Y447554D01*
X290924Y447369D01*
Y447169D01*
Y445393D01*
Y445385D01*
Y445371D01*
Y445348D01*
Y445319D01*
Y445274D01*
Y445230D01*
Y445171D01*
X290931Y445112D01*
X290939Y444964D01*
X290961Y444793D01*
X290983Y444608D01*
X291020Y444401D01*
X291013D01*
X290998Y444409D01*
X290961D01*
X290924Y444416D01*
X290872Y444423D01*
X290813Y444431D01*
X290746Y444446D01*
X290672Y444453D01*
X290510Y444468D01*
X290332Y444483D01*
X290147Y444490D01*
X287254D01*
X287187Y444483D01*
X287039Y444475D01*
X286869Y444460D01*
X286676Y444438D01*
X286469Y444401D01*
Y444409D01*
X286477Y444423D01*
Y444446D01*
X286484Y444483D01*
X286491Y444520D01*
X286506Y444571D01*
X286521Y444690D01*
X286543Y444830D01*
X286558Y444986D01*
X286565Y445149D01*
Y445319D01*
Y447250D01*
Y447258D01*
Y447272D01*
Y447295D01*
Y447332D01*
Y447376D01*
Y447420D01*
X286558Y447546D01*
X286551Y447694D01*
X286528Y447857D01*
X286506Y448042D01*
X286469Y448234D01*
X286477D01*
X286499Y448227D01*
X286528D01*
X286573Y448220D01*
X286625Y448212D01*
X286684Y448197D01*
X286824Y448183D01*
X286980Y448160D01*
X287150Y448146D01*
X287313Y448138D01*
X290243D01*
X290302Y448146D01*
X290443Y448153D01*
X290613Y448175D01*
X290806Y448197D01*
X291020Y448234D01*
Y448227D01*
D02*
G37*
G36*
X284945D02*
X284937Y448212D01*
Y448183D01*
X284930Y448138D01*
X284923Y448086D01*
X284908Y448035D01*
X284900Y447968D01*
X284893Y447894D01*
X284871Y447724D01*
X284856Y447546D01*
X284849Y447354D01*
Y447154D01*
Y445474D01*
Y445467D01*
Y445452D01*
Y445430D01*
Y445393D01*
Y445348D01*
Y445297D01*
Y445237D01*
X284856Y445171D01*
X284863Y445008D01*
X284886Y444830D01*
X284908Y444623D01*
X284945Y444401D01*
X284937D01*
X284915Y444409D01*
X284886D01*
X284834Y444416D01*
X284782Y444423D01*
X284715Y444431D01*
X284649Y444446D01*
X284567Y444453D01*
X284397Y444468D01*
X284212Y444483D01*
X284027Y444490D01*
X281230D01*
X281163Y444483D01*
X281008Y444475D01*
X280830Y444460D01*
X280631Y444438D01*
X280409Y444401D01*
Y444409D01*
X280416Y444423D01*
Y444446D01*
X280431Y444483D01*
X280438Y444520D01*
X280446Y444571D01*
X280468Y444690D01*
X280483Y444838D01*
X280505Y444993D01*
X280512Y445171D01*
Y445348D01*
Y447287D01*
Y447295D01*
Y447302D01*
Y447324D01*
Y447354D01*
Y447398D01*
Y447443D01*
X280505Y447554D01*
X280490Y447694D01*
X280475Y447850D01*
X280446Y448035D01*
X280409Y448234D01*
X280416D01*
X280438Y448227D01*
X280468D01*
X280505Y448220D01*
X280557Y448212D01*
X280616Y448197D01*
X280756Y448183D01*
X280919Y448160D01*
X281089Y448146D01*
X281274Y448138D01*
X284123D01*
X284190Y448146D01*
X284353Y448153D01*
X284538Y448175D01*
X284738Y448197D01*
X284945Y448234D01*
Y448227D01*
D02*
G37*
G36*
X168942Y448042D02*
X168935Y448027D01*
Y447998D01*
X168928Y447961D01*
X168920Y447916D01*
X168905Y447864D01*
X168891Y447731D01*
X168868Y447583D01*
X168854Y447413D01*
X168846Y447235D01*
Y447050D01*
Y443661D01*
Y443654D01*
Y443639D01*
Y443609D01*
Y443572D01*
Y443521D01*
Y443461D01*
Y443402D01*
X168854Y443328D01*
X168861Y443165D01*
X168883Y442980D01*
X168905Y442788D01*
X168942Y442588D01*
X168935D01*
X168913Y442596D01*
X168883D01*
X168839Y442603D01*
X168787Y442610D01*
X168728Y442618D01*
X168654Y442633D01*
X168580Y442640D01*
X168417Y442655D01*
X168239Y442670D01*
X168062Y442677D01*
X164525D01*
X165072Y442374D01*
X165080Y442366D01*
X165102Y442359D01*
X165131Y442337D01*
X165161Y442322D01*
X165198Y442292D01*
X165220Y442270D01*
X165242Y442240D01*
Y442218D01*
Y442203D01*
X165235Y442189D01*
X165220Y442174D01*
X165191Y442152D01*
X165161Y442129D01*
X165109Y442100D01*
X165043Y442078D01*
X165035D01*
X165013Y442063D01*
X164976Y442048D01*
X164932Y442026D01*
X164835Y441974D01*
X164791Y441937D01*
X164754Y441900D01*
X164747Y441885D01*
X164724Y441856D01*
X164687Y441796D01*
X164643Y441730D01*
X164576Y441641D01*
X164510Y441545D01*
X164436Y441441D01*
X164347Y441330D01*
X168846D01*
X168928Y441338D01*
X169009D01*
X169098Y441345D01*
X169305Y441360D01*
X169527Y441382D01*
X169779Y441419D01*
Y441412D01*
Y441404D01*
X169771Y441382D01*
X169764Y441352D01*
X169756Y441278D01*
X169742Y441175D01*
X169727Y441056D01*
X169712Y440916D01*
X169697Y440768D01*
X169690Y440612D01*
X169520Y437068D01*
Y437060D01*
Y437053D01*
Y437031D01*
Y437001D01*
X169512Y436920D01*
Y436816D01*
X169497Y436690D01*
X169490Y436550D01*
X169475Y436394D01*
X169453Y436239D01*
X169401Y435913D01*
X169364Y435751D01*
X169320Y435603D01*
X169268Y435469D01*
X169216Y435351D01*
X169150Y435255D01*
X169113Y435218D01*
X169076Y435188D01*
Y435181D01*
X169061Y435173D01*
X169039Y435151D01*
X169002Y435129D01*
X168957Y435092D01*
X168891Y435055D01*
X168817Y435018D01*
X168713Y434974D01*
X168595Y434929D01*
X168447Y434877D01*
X168276Y434833D01*
X168084Y434789D01*
X167973Y434759D01*
X167862Y434737D01*
X167736Y434715D01*
X167603Y434700D01*
X167462Y434678D01*
X167314Y434655D01*
X167159Y434633D01*
X166996Y434618D01*
Y434626D01*
X166989Y434641D01*
Y434670D01*
X166981Y434715D01*
X166967Y434766D01*
X166952Y434826D01*
X166930Y434892D01*
X166907Y434966D01*
X166841Y435144D01*
X166752Y435336D01*
X166693Y435432D01*
X166634Y435543D01*
X166567Y435647D01*
X166486Y435758D01*
X166493D01*
X166515Y435751D01*
X166552D01*
X166604Y435743D01*
X166663Y435728D01*
X166737Y435721D01*
X166811Y435714D01*
X166900Y435699D01*
X167085Y435677D01*
X167285Y435662D01*
X167485Y435647D01*
X167670Y435640D01*
X167729D01*
X167788Y435647D01*
X167862D01*
X167951Y435654D01*
X168032Y435669D01*
X168114Y435684D01*
X168188Y435706D01*
X168195D01*
X168210Y435714D01*
X168232Y435721D01*
X168254Y435736D01*
X168328Y435788D01*
X168373Y435817D01*
X168410Y435862D01*
X168454Y435906D01*
X168498Y435965D01*
X168535Y436032D01*
X168572Y436106D01*
X168602Y436195D01*
X168624Y436291D01*
X168639Y436402D01*
X168646Y436520D01*
X168861Y440568D01*
X167818D01*
Y440553D01*
X167810Y440524D01*
X167795Y440472D01*
X167781Y440398D01*
X167758Y440302D01*
X167721Y440191D01*
X167684Y440065D01*
X167640Y439917D01*
X167588Y439761D01*
X167529Y439584D01*
X167462Y439406D01*
X167381Y439206D01*
X167292Y438999D01*
X167196Y438785D01*
X167092Y438563D01*
X166974Y438333D01*
X166841Y438096D01*
X166700Y437852D01*
X166545Y437608D01*
X166382Y437364D01*
X166197Y437112D01*
X166005Y436861D01*
X165797Y436609D01*
X165583Y436365D01*
X165346Y436121D01*
X165094Y435876D01*
X164828Y435640D01*
X164547Y435403D01*
X164243Y435181D01*
X163925Y434966D01*
X163592Y434759D01*
X163244Y434559D01*
Y434567D01*
X163230Y434581D01*
X163207Y434604D01*
X163185Y434641D01*
X163148Y434685D01*
X163104Y434729D01*
X163059Y434781D01*
X163000Y434840D01*
X162934Y434900D01*
X162852Y434959D01*
X162771Y435018D01*
X162682Y435077D01*
X162578Y435129D01*
X162467Y435188D01*
X162349Y435233D01*
X162223Y435277D01*
X162231Y435284D01*
X162268Y435292D01*
X162319Y435307D01*
X162386Y435336D01*
X162475Y435373D01*
X162571Y435410D01*
X162689Y435462D01*
X162823Y435529D01*
X162963Y435595D01*
X163119Y435677D01*
X163281Y435765D01*
X163459Y435869D01*
X163637Y435980D01*
X163829Y436106D01*
X164021Y436239D01*
X164214Y436380D01*
X164414Y436542D01*
X164621Y436713D01*
X164821Y436890D01*
X165028Y437090D01*
X165228Y437297D01*
X165427Y437519D01*
X165620Y437756D01*
X165805Y438008D01*
X165990Y438274D01*
X166167Y438555D01*
X166330Y438851D01*
X166493Y439162D01*
X166634Y439488D01*
X166767Y439835D01*
X166893Y440191D01*
X166996Y440568D01*
X165901D01*
Y440561D01*
X165894Y440546D01*
X165879Y440524D01*
X165864Y440487D01*
X165842Y440442D01*
X165812Y440390D01*
X165783Y440331D01*
X165746Y440257D01*
X165701Y440183D01*
X165649Y440094D01*
X165538Y439902D01*
X165405Y439687D01*
X165250Y439443D01*
X165072Y439184D01*
X164872Y438903D01*
X164643Y438607D01*
X164391Y438296D01*
X164118Y437978D01*
X163822Y437652D01*
X163496Y437319D01*
X163141Y436986D01*
X163133Y436994D01*
X163126Y437009D01*
X163104Y437031D01*
X163074Y437068D01*
X163030Y437105D01*
X162985Y437149D01*
X162926Y437201D01*
X162867Y437253D01*
X162793Y437312D01*
X162719Y437364D01*
X162541Y437475D01*
X162334Y437578D01*
X162216Y437615D01*
X162097Y437652D01*
X162105D01*
X162120Y437660D01*
X162142Y437675D01*
X162179Y437689D01*
X162223Y437712D01*
X162275Y437741D01*
X162334Y437771D01*
X162401Y437808D01*
X162556Y437897D01*
X162734Y438008D01*
X162934Y438148D01*
X163148Y438311D01*
X163378Y438496D01*
X163614Y438703D01*
X163866Y438947D01*
X164110Y439214D01*
X164362Y439502D01*
X164480Y439665D01*
X164599Y439828D01*
X164717Y440006D01*
X164835Y440183D01*
X164946Y440368D01*
X165057Y440568D01*
X163762D01*
Y440561D01*
X163748Y440553D01*
X163733Y440531D01*
X163711Y440501D01*
X163681Y440464D01*
X163644Y440413D01*
X163548Y440309D01*
X163429Y440168D01*
X163289Y440013D01*
X163126Y439835D01*
X162941Y439643D01*
X162934Y439650D01*
X162926Y439658D01*
X162904Y439680D01*
X162874Y439702D01*
X162837Y439732D01*
X162786Y439769D01*
X162734Y439806D01*
X162675Y439850D01*
X162601Y439895D01*
X162527Y439939D01*
X162438Y439983D01*
X162342Y440028D01*
X162245Y440072D01*
X162134Y440117D01*
X161898Y440191D01*
X161905D01*
X161912Y440198D01*
X161935Y440213D01*
X161964Y440228D01*
X162038Y440279D01*
X162134Y440353D01*
X162253Y440442D01*
X162393Y440546D01*
X162549Y440679D01*
X162719Y440827D01*
X162897Y440990D01*
X163082Y441175D01*
X163267Y441382D01*
X163459Y441604D01*
X163644Y441841D01*
X163829Y442100D01*
X164007Y442381D01*
X164169Y442677D01*
X163859D01*
X163770Y442670D01*
X163674D01*
X163570Y442662D01*
X163348Y442647D01*
X163104Y442625D01*
X162852Y442588D01*
Y442596D01*
X162860Y442610D01*
Y442640D01*
X162867Y442677D01*
X162874Y442721D01*
X162882Y442781D01*
X162904Y442906D01*
X162919Y443054D01*
X162934Y443225D01*
X162941Y443395D01*
Y443565D01*
Y447036D01*
Y447043D01*
Y447058D01*
Y447087D01*
Y447117D01*
Y447169D01*
Y447221D01*
Y447280D01*
X162934Y447346D01*
X162926Y447494D01*
X162911Y447672D01*
X162889Y447857D01*
X162852Y448049D01*
X162860D01*
X162882Y448042D01*
X162911D01*
X162948Y448035D01*
X163000Y448027D01*
X163059Y448020D01*
X163126Y448012D01*
X163200Y447998D01*
X163363Y447983D01*
X163540Y447968D01*
X163725Y447961D01*
X168143D01*
X168210Y447968D01*
X168373Y447975D01*
X168558Y447990D01*
X168743Y448012D01*
X168942Y448049D01*
Y448042D01*
D02*
G37*
G36*
X314870Y447850D02*
X314856Y447827D01*
X314841Y447790D01*
X314811Y447739D01*
X314782Y447672D01*
X314745Y447591D01*
X314700Y447502D01*
X314648Y447398D01*
X314597Y447287D01*
X314537Y447169D01*
X314471Y447036D01*
X314404Y446895D01*
X314330Y446747D01*
X314256Y446592D01*
X314093Y446266D01*
X313923Y445918D01*
X313746Y445556D01*
X313561Y445186D01*
X313376Y444808D01*
X313183Y444431D01*
X312998Y444068D01*
X312821Y443713D01*
X312643Y443380D01*
X312650Y443373D01*
X312665Y443365D01*
X312687Y443343D01*
X312717Y443321D01*
X312761Y443284D01*
X312806Y443239D01*
X312924Y443143D01*
X313057Y443010D01*
X313205Y442855D01*
X313376Y442677D01*
X313546Y442485D01*
X313716Y442263D01*
X313879Y442026D01*
X314042Y441767D01*
X314182Y441493D01*
X314315Y441204D01*
X314412Y440908D01*
X314456Y440753D01*
X314493Y440598D01*
X314515Y440435D01*
X314530Y440272D01*
Y440265D01*
Y440257D01*
Y440235D01*
X314537Y440205D01*
Y440131D01*
Y440028D01*
Y440020D01*
Y440006D01*
Y439983D01*
X314530Y439946D01*
Y439902D01*
X314523Y439850D01*
X314508Y439791D01*
X314493Y439724D01*
X314456Y439569D01*
X314397Y439399D01*
X314315Y439214D01*
X314264Y439118D01*
X314212Y439021D01*
X314145Y438918D01*
X314071Y438822D01*
X313990Y438718D01*
X313894Y438622D01*
X313797Y438526D01*
X313686Y438429D01*
X313561Y438333D01*
X313427Y438244D01*
X313287Y438163D01*
X313131Y438082D01*
X312961Y438000D01*
X312776Y437934D01*
X312584Y437867D01*
X312377Y437815D01*
X312147Y437763D01*
X311910Y437726D01*
Y437734D01*
X311903Y437756D01*
X311896Y437786D01*
X311888Y437830D01*
X311866Y437882D01*
X311851Y437948D01*
X311829Y438015D01*
X311799Y438096D01*
X311733Y438281D01*
X311651Y438489D01*
X311555Y438711D01*
X311437Y438940D01*
X311459D01*
X311481Y438933D01*
X311511D01*
X311585Y438925D01*
X311688Y438910D01*
X311799Y438903D01*
X311918Y438888D01*
X312036Y438881D01*
X312214D01*
X312288Y438888D01*
X312377Y438896D01*
X312488Y438918D01*
X312613Y438940D01*
X312739Y438977D01*
X312880Y439021D01*
X313013Y439081D01*
X313146Y439155D01*
X313272Y439243D01*
X313383Y439354D01*
X313487Y439480D01*
X313561Y439628D01*
X313612Y439798D01*
X313635Y439895D01*
X313642Y439998D01*
Y440006D01*
Y440020D01*
Y440043D01*
X313635Y440080D01*
X313627Y440124D01*
X313620Y440183D01*
X313612Y440242D01*
X313598Y440316D01*
X313583Y440390D01*
X313568Y440479D01*
X313516Y440664D01*
X313450Y440879D01*
X313361Y441116D01*
X313257Y441360D01*
X313117Y441619D01*
X313043Y441752D01*
X312954Y441893D01*
X312858Y442026D01*
X312761Y442166D01*
X312650Y442307D01*
X312532Y442440D01*
X312399Y442581D01*
X312266Y442714D01*
X312118Y442855D01*
X311962Y442988D01*
X311792Y443121D01*
X311614Y443247D01*
Y443254D01*
X311629Y443269D01*
X311644Y443291D01*
X311659Y443328D01*
X311688Y443365D01*
X311718Y443417D01*
X311748Y443476D01*
X311785Y443550D01*
X311829Y443624D01*
X311881Y443706D01*
X311925Y443802D01*
X311984Y443898D01*
X312095Y444120D01*
X312229Y444364D01*
X312362Y444631D01*
X312510Y444919D01*
X312658Y445230D01*
X312813Y445556D01*
X312969Y445903D01*
X313124Y446259D01*
X313279Y446629D01*
X313427Y447006D01*
X310956D01*
Y435995D01*
Y435987D01*
Y435965D01*
Y435928D01*
Y435884D01*
Y435825D01*
X310963Y435751D01*
Y435669D01*
X310971Y435573D01*
Y435477D01*
X310978Y435366D01*
X310985Y435247D01*
X310993Y435122D01*
X311015Y434855D01*
X311045Y434574D01*
X310009D01*
Y434581D01*
X310016Y434604D01*
Y434641D01*
X310023Y434692D01*
X310031Y434759D01*
X310038Y434833D01*
X310046Y434914D01*
X310053Y435011D01*
X310060Y435114D01*
X310068Y435225D01*
X310083Y435462D01*
X310097Y435721D01*
Y435995D01*
Y446451D01*
Y446458D01*
Y446481D01*
Y446518D01*
Y446562D01*
Y446621D01*
X310090Y446688D01*
Y446769D01*
Y446865D01*
X310083Y446962D01*
X310075Y447073D01*
X310068Y447184D01*
X310060Y447309D01*
X310038Y447576D01*
X310009Y447857D01*
X310046D01*
X310090Y447850D01*
X310142Y447842D01*
X310216Y447835D01*
X310290Y447827D01*
X310386Y447820D01*
X310482Y447813D01*
X310697Y447798D01*
X310934Y447783D01*
X311170Y447776D01*
X311400Y447768D01*
X313694D01*
X313768Y447776D01*
X313849D01*
X313945Y447783D01*
X314042D01*
X314153Y447790D01*
X314375Y447805D01*
X314619Y447827D01*
X314870Y447857D01*
Y447850D01*
D02*
G37*
G36*
X352818Y447776D02*
Y447761D01*
X352810Y447731D01*
X352803Y447687D01*
Y447635D01*
X352795Y447576D01*
X352788Y447509D01*
X352781Y447428D01*
X352773Y447339D01*
X352766Y447243D01*
X352758Y447139D01*
X352751Y447028D01*
X352736Y446784D01*
X352729Y446525D01*
Y436957D01*
Y436942D01*
Y436905D01*
Y436846D01*
Y436772D01*
X352721Y436676D01*
X352714Y436572D01*
X352699Y436461D01*
X352677Y436335D01*
X352647Y436209D01*
X352610Y436084D01*
X352566Y435958D01*
X352507Y435832D01*
X352440Y435721D01*
X352359Y435617D01*
X352270Y435521D01*
X352159Y435447D01*
X352152Y435440D01*
X352129Y435432D01*
X352092Y435410D01*
X352041Y435381D01*
X351967Y435344D01*
X351870Y435307D01*
X351759Y435262D01*
X351619Y435210D01*
X351456Y435166D01*
X351264Y435114D01*
X351049Y435062D01*
X350931Y435033D01*
X350805Y435011D01*
X350664Y434981D01*
X350524Y434959D01*
X350376Y434929D01*
X350213Y434907D01*
X350050Y434885D01*
X349872Y434863D01*
X349687Y434840D01*
X349495Y434818D01*
Y434826D01*
Y434848D01*
Y434885D01*
X349488Y434937D01*
X349480Y434996D01*
X349473Y435062D01*
X349458Y435144D01*
X349443Y435233D01*
X349399Y435425D01*
X349332Y435632D01*
X349236Y435847D01*
X349184Y435958D01*
X349118Y436061D01*
X349147D01*
X349192Y436054D01*
X349236D01*
X349303Y436047D01*
X349369Y436039D01*
X349451Y436032D01*
X349539D01*
X349732Y436017D01*
X349932Y436002D01*
X350131Y435995D01*
X350435D01*
X350494Y436002D01*
X350561D01*
X350709Y436010D01*
X350871Y436024D01*
X351034Y436047D01*
X351190Y436076D01*
X351256Y436098D01*
X351315Y436121D01*
X351323D01*
X351338Y436128D01*
X351367Y436143D01*
X351404Y436158D01*
X351441Y436180D01*
X351493Y436217D01*
X351537Y436254D01*
X351589Y436298D01*
X351641Y436357D01*
X351685Y436417D01*
X351730Y436498D01*
X351774Y436579D01*
X351804Y436676D01*
X351826Y436787D01*
X351841Y436905D01*
Y437038D01*
Y446932D01*
X342761D01*
X342680Y446925D01*
X342598D01*
X342509Y446917D01*
X342310Y446910D01*
X342102Y446895D01*
X341895Y446865D01*
X341710Y446836D01*
Y447783D01*
X341725D01*
X341755Y447776D01*
X341784Y447768D01*
X341829Y447761D01*
X341880Y447753D01*
X341940Y447746D01*
X342014Y447739D01*
X342095Y447731D01*
X342184Y447724D01*
X342287Y447716D01*
X342398Y447709D01*
X342517Y447702D01*
X342657D01*
X342798Y447694D01*
X351737D01*
X351811Y447702D01*
X351893D01*
X351989Y447709D01*
X352189Y447716D01*
X352403Y447731D01*
X352618Y447753D01*
X352818Y447783D01*
Y447776D01*
D02*
G37*
G36*
X321619Y447731D02*
X321612Y447709D01*
Y447672D01*
X321604Y447628D01*
X321597Y447568D01*
X321590Y447502D01*
X321582Y447420D01*
X321575Y447339D01*
X321553Y447147D01*
X321538Y446939D01*
X321530Y446725D01*
X321523Y446510D01*
Y442470D01*
Y442462D01*
Y442448D01*
Y442418D01*
Y442381D01*
Y442329D01*
X321530Y442270D01*
Y442203D01*
X321538Y442129D01*
X321545Y441959D01*
X321567Y441759D01*
X321590Y441545D01*
X321619Y441315D01*
X321612D01*
X321590Y441323D01*
X321560D01*
X321516Y441330D01*
X321456Y441338D01*
X321390Y441345D01*
X321316Y441352D01*
X321234Y441360D01*
X321049Y441375D01*
X320842Y441389D01*
X320628Y441404D01*
X318644D01*
Y441389D01*
X318659Y441352D01*
X318667Y441286D01*
X318689Y441204D01*
X318718Y441101D01*
X318748Y440975D01*
X318792Y440834D01*
X318837Y440679D01*
X318889Y440509D01*
X318948Y440331D01*
X319022Y440146D01*
X319096Y439946D01*
X319185Y439747D01*
X319273Y439547D01*
X319377Y439340D01*
X319488Y439132D01*
X319495D01*
X319503Y439147D01*
X319525Y439162D01*
X319555Y439177D01*
X319592Y439206D01*
X319636Y439236D01*
X319747Y439310D01*
X319873Y439406D01*
X320021Y439517D01*
X320191Y439650D01*
X320369Y439791D01*
X320554Y439946D01*
X320753Y440109D01*
X320946Y440287D01*
X321146Y440472D01*
X321338Y440657D01*
X321523Y440857D01*
X321701Y441056D01*
X321863Y441256D01*
X322618Y440361D01*
X322626Y440353D01*
X322633Y440339D01*
X322670Y440294D01*
X322707Y440242D01*
X322714Y440213D01*
X322722Y440191D01*
Y440183D01*
X322707Y440161D01*
X322700Y440154D01*
X322692Y440146D01*
X322670Y440139D01*
X322640Y440124D01*
X322589Y440109D01*
X322529Y440102D01*
X322448Y440087D01*
X322433D01*
X322389Y440080D01*
X322330Y440057D01*
X322241Y440028D01*
X322137Y439991D01*
X322026Y439932D01*
X321900Y439858D01*
X321775Y439761D01*
X321760Y439754D01*
X321723Y439724D01*
X321671Y439680D01*
X321590Y439628D01*
X321493Y439562D01*
X321382Y439480D01*
X321257Y439391D01*
X321123Y439288D01*
X320983Y439184D01*
X320827Y439081D01*
X320517Y438851D01*
X320198Y438629D01*
X320050Y438518D01*
X319902Y438415D01*
Y438407D01*
X319917Y438392D01*
X319932Y438363D01*
X319954Y438326D01*
X319984Y438281D01*
X320021Y438230D01*
X320065Y438163D01*
X320110Y438096D01*
X320228Y437934D01*
X320376Y437749D01*
X320539Y437541D01*
X320739Y437327D01*
X320953Y437097D01*
X321197Y436868D01*
X321471Y436631D01*
X321767Y436402D01*
X322085Y436180D01*
X322433Y435973D01*
X322803Y435780D01*
X323195Y435610D01*
X323188Y435603D01*
X323166Y435595D01*
X323136Y435573D01*
X323092Y435543D01*
X323040Y435506D01*
X322973Y435469D01*
X322907Y435418D01*
X322825Y435358D01*
X322663Y435225D01*
X322485Y435070D01*
X322307Y434892D01*
X322137Y434692D01*
X322130Y434700D01*
X322100Y434722D01*
X322048Y434759D01*
X321989Y434811D01*
X321908Y434877D01*
X321812Y434966D01*
X321701Y435055D01*
X321582Y435166D01*
X321449Y435292D01*
X321308Y435425D01*
X321153Y435580D01*
X320990Y435743D01*
X320827Y435913D01*
X320650Y436106D01*
X320472Y436306D01*
X320295Y436520D01*
X320110Y436742D01*
X319917Y436979D01*
X319732Y437231D01*
X319547Y437490D01*
X319362Y437756D01*
X319185Y438045D01*
X319007Y438333D01*
X318829Y438637D01*
X318667Y438947D01*
X318504Y439273D01*
X318356Y439606D01*
X318215Y439946D01*
X318082Y440294D01*
X317964Y440657D01*
X317860Y441027D01*
X317764Y441404D01*
X316239D01*
Y436121D01*
X316254Y436128D01*
X316291Y436150D01*
X316350Y436180D01*
X316432Y436232D01*
X316528Y436291D01*
X316654Y436357D01*
X316794Y436446D01*
X316950Y436542D01*
X317120Y436646D01*
X317298Y436764D01*
X317497Y436898D01*
X317705Y437038D01*
X317927Y437194D01*
X318156Y437356D01*
X318385Y437527D01*
X318630Y437712D01*
Y437704D01*
Y437689D01*
Y437660D01*
Y437623D01*
X318637Y437571D01*
Y437512D01*
Y437453D01*
X318644Y437379D01*
X318659Y437208D01*
X318681Y437023D01*
X318711Y436824D01*
X318748Y436609D01*
X318741D01*
X318726Y436594D01*
X318704Y436579D01*
X318667Y436565D01*
X318622Y436535D01*
X318570Y436505D01*
X318511Y436476D01*
X318445Y436431D01*
X318282Y436343D01*
X318097Y436232D01*
X317890Y436106D01*
X317668Y435965D01*
X317431Y435817D01*
X317179Y435654D01*
X316913Y435484D01*
X316654Y435307D01*
X316121Y434929D01*
X315862Y434737D01*
X315610Y434544D01*
X314915Y435447D01*
X314922D01*
X314937Y435462D01*
X314959Y435477D01*
X314996Y435499D01*
X315033Y435529D01*
X315070Y435566D01*
X315115Y435610D01*
X315159Y435669D01*
X315203Y435743D01*
X315248Y435825D01*
X315285Y435913D01*
X315322Y436024D01*
X315351Y436143D01*
X315366Y436276D01*
X315374Y436431D01*
Y436594D01*
Y446362D01*
Y446370D01*
Y446392D01*
Y446421D01*
Y446466D01*
Y446525D01*
X315366Y446592D01*
Y446666D01*
Y446754D01*
X315359Y446851D01*
X315351Y446954D01*
X315344Y447065D01*
X315337Y447191D01*
X315314Y447450D01*
X315285Y447739D01*
X315314D01*
X315359Y447731D01*
X315411Y447724D01*
X315477Y447716D01*
X315551Y447709D01*
X315633Y447702D01*
X315729Y447694D01*
X315936Y447679D01*
X316165Y447665D01*
X316410Y447657D01*
X316646Y447650D01*
X320568D01*
X320635Y447657D01*
X320709D01*
X320790Y447665D01*
X320983Y447672D01*
X321183Y447687D01*
X321405Y447709D01*
X321619Y447739D01*
Y447731D01*
D02*
G37*
G36*
X200015Y447753D02*
X200022Y447746D01*
X200037Y447731D01*
X200074Y447687D01*
X200089Y447657D01*
X200104Y447628D01*
X200111Y447598D01*
X200104Y447568D01*
X200096Y447561D01*
X200089Y447554D01*
X200067Y447539D01*
X200037Y447531D01*
X200008Y447524D01*
X199882D01*
X199837Y447531D01*
X199601D01*
X199556Y447524D01*
X199512D01*
X199393Y447509D01*
X199260Y447494D01*
X199112Y447465D01*
X198949Y447428D01*
X198787Y447376D01*
X198779D01*
X198750Y447361D01*
X198698Y447346D01*
X198624Y447324D01*
X198535Y447295D01*
X198417Y447258D01*
X198276Y447213D01*
X198106Y447169D01*
X197913Y447110D01*
X197699Y447043D01*
X197447Y446969D01*
X197173Y446895D01*
X197025Y446851D01*
X196870Y446806D01*
X196707Y446762D01*
X196530Y446710D01*
X196352Y446658D01*
X196167Y446606D01*
X195975Y446555D01*
X195767Y446495D01*
Y443461D01*
X199615D01*
X199675Y443469D01*
X199734D01*
X199808Y443476D01*
X199889D01*
X199978Y443484D01*
X200082Y443491D01*
X200193Y443498D01*
X200311Y443506D01*
X200437Y443521D01*
X200577Y443535D01*
X200725Y443550D01*
Y442603D01*
X200688D01*
X200651Y442610D01*
X200600Y442618D01*
X200533D01*
X200459Y442625D01*
X200378Y442633D01*
X200281Y442640D01*
X200089Y442655D01*
X199882Y442670D01*
X199682Y442684D01*
X199497Y442692D01*
X198727D01*
Y436150D01*
Y436143D01*
Y436121D01*
Y436091D01*
X198735Y436039D01*
Y435980D01*
X198742Y435913D01*
Y435832D01*
X198750Y435743D01*
X198757Y435647D01*
X198764Y435543D01*
X198779Y435314D01*
X198794Y435055D01*
X198816Y434789D01*
X197780D01*
Y434796D01*
X197788Y434833D01*
Y434877D01*
X197795Y434944D01*
X197802Y435018D01*
X197810Y435107D01*
X197817Y435203D01*
X197825Y435307D01*
X197839Y435529D01*
X197854Y435758D01*
X197862Y435869D01*
X197869Y435965D01*
Y436061D01*
Y436150D01*
Y442692D01*
X195782D01*
Y442684D01*
Y442655D01*
Y442603D01*
Y442544D01*
Y442462D01*
Y442366D01*
Y442255D01*
Y442137D01*
Y442004D01*
Y441856D01*
X195775Y441700D01*
Y441537D01*
X195767Y441367D01*
Y441190D01*
X195753Y440820D01*
X195738Y440427D01*
X195716Y440035D01*
X195693Y439643D01*
X195656Y439258D01*
X195619Y438896D01*
X195597Y438718D01*
X195568Y438555D01*
X195545Y438392D01*
X195516Y438252D01*
X195486Y438111D01*
X195449Y437985D01*
Y437978D01*
X195442Y437971D01*
Y437948D01*
X195434Y437919D01*
X195420Y437882D01*
X195405Y437837D01*
X195375Y437734D01*
X195323Y437593D01*
X195264Y437430D01*
X195190Y437245D01*
X195101Y437038D01*
X194998Y436809D01*
X194872Y436557D01*
X194731Y436291D01*
X194569Y436002D01*
X194391Y435706D01*
X194191Y435395D01*
X193969Y435070D01*
X193725Y434737D01*
Y434744D01*
X193710Y434752D01*
X193695Y434774D01*
X193666Y434803D01*
X193629Y434833D01*
X193592Y434877D01*
X193488Y434966D01*
X193355Y435070D01*
X193192Y435181D01*
X193000Y435292D01*
X192778Y435395D01*
X192785D01*
X192793Y435410D01*
X192837Y435447D01*
X192904Y435514D01*
X192992Y435595D01*
X193096Y435706D01*
X193214Y435832D01*
X193348Y435980D01*
X193488Y436150D01*
X193629Y436328D01*
X193777Y436528D01*
X193917Y436742D01*
X194058Y436972D01*
X194191Y437208D01*
X194310Y437460D01*
X194413Y437719D01*
X194495Y437985D01*
Y437993D01*
X194502Y438000D01*
Y438022D01*
X194517Y438052D01*
X194524Y438089D01*
X194532Y438133D01*
X194546Y438193D01*
X194561Y438259D01*
X194576Y438333D01*
X194591Y438415D01*
X194613Y438503D01*
X194628Y438607D01*
X194650Y438718D01*
X194665Y438836D01*
X194687Y438962D01*
X194709Y439103D01*
X194724Y439251D01*
X194746Y439406D01*
X194768Y439576D01*
X194783Y439754D01*
X194805Y439946D01*
X194820Y440146D01*
X194835Y440353D01*
X194850Y440575D01*
X194865Y440805D01*
X194879Y441042D01*
X194887Y441301D01*
X194894Y441560D01*
X194902Y441833D01*
X194909Y442122D01*
Y442418D01*
Y442721D01*
Y445866D01*
Y445874D01*
Y445889D01*
Y445911D01*
Y445940D01*
X194902Y445992D01*
Y446059D01*
X194894Y446148D01*
Y446155D01*
Y446177D01*
X194887Y446207D01*
Y446251D01*
X194879Y446303D01*
X194872Y446362D01*
X194865Y446436D01*
Y446510D01*
X194850Y446680D01*
X194835Y446865D01*
X194820Y447058D01*
X194805Y447250D01*
X194828D01*
X194857Y447243D01*
X194887D01*
X194976Y447235D01*
X195072Y447228D01*
X195153D01*
X195190Y447235D01*
X195242D01*
X195309Y447243D01*
X195375Y447250D01*
X195449Y447265D01*
X195538Y447272D01*
X195723Y447309D01*
X195938Y447354D01*
X196182Y447420D01*
X196189D01*
X196204Y447428D01*
X196234Y447435D01*
X196271Y447443D01*
X196322Y447457D01*
X196382Y447472D01*
X196448Y447494D01*
X196522Y447517D01*
X196604Y447539D01*
X196692Y447568D01*
X196892Y447628D01*
X197107Y447694D01*
X197344Y447776D01*
X197588Y447857D01*
X197839Y447953D01*
X198091Y448049D01*
X198343Y448146D01*
X198587Y448257D01*
X198816Y448360D01*
X199023Y448479D01*
X199216Y448590D01*
X200015Y447753D01*
D02*
G37*
G36*
X153062Y446621D02*
X153055D01*
X153040Y446629D01*
X153018D01*
X152981Y446636D01*
X152936Y446643D01*
X152892Y446658D01*
X152766Y446673D01*
X152625Y446695D01*
X152470Y446710D01*
X152307Y446717D01*
X147704D01*
Y446710D01*
Y446695D01*
Y446666D01*
Y446629D01*
Y446577D01*
X147697Y446525D01*
Y446458D01*
Y446377D01*
X147690Y446296D01*
Y446207D01*
X147682Y446000D01*
X147667Y445778D01*
X147653Y445526D01*
X147638Y445260D01*
X147623Y444978D01*
X147601Y444690D01*
X147579Y444394D01*
X147519Y443794D01*
X147482Y443498D01*
X147445Y443217D01*
X153454D01*
X153565Y443225D01*
X153706Y443232D01*
X153869Y443247D01*
X154054Y443269D01*
X154246Y443306D01*
Y442322D01*
X154239D01*
X154224Y442329D01*
X154194D01*
X154150Y442337D01*
X154105Y442344D01*
X154046Y442359D01*
X153920Y442374D01*
X153765Y442396D01*
X153602Y442411D01*
X153439Y442418D01*
X148962D01*
Y436986D01*
Y436979D01*
Y436964D01*
Y436935D01*
Y436890D01*
X148970Y436846D01*
Y436794D01*
X148992Y436683D01*
X149029Y436565D01*
X149081Y436454D01*
X149118Y436402D01*
X149162Y436365D01*
X149214Y436328D01*
X149273Y436306D01*
X149288Y436298D01*
X149310Y436291D01*
X149332Y436283D01*
X149377Y436276D01*
X149429Y436261D01*
X149495Y436246D01*
X149577Y436239D01*
X149680Y436224D01*
X149791Y436217D01*
X149932Y436202D01*
X150087Y436195D01*
X150265Y436187D01*
X150465Y436180D01*
X151293D01*
X151427Y436187D01*
X151567Y436195D01*
X151715Y436209D01*
X152026Y436239D01*
X152181Y436261D01*
X152322Y436291D01*
X152455Y436328D01*
X152566Y436372D01*
X152662Y436417D01*
X152736Y436476D01*
X152744D01*
X152751Y436491D01*
X152773Y436505D01*
X152803Y436535D01*
X152833Y436579D01*
X152870Y436631D01*
X152914Y436698D01*
X152958Y436779D01*
X153003Y436883D01*
X153055Y437001D01*
X153106Y437142D01*
X153158Y437297D01*
X153210Y437482D01*
X153262Y437689D01*
X153306Y437926D01*
X153351Y438185D01*
X153358Y438178D01*
X153373Y438163D01*
X153395Y438133D01*
X153432Y438096D01*
X153469Y438045D01*
X153521Y438000D01*
X153580Y437941D01*
X153639Y437889D01*
X153787Y437771D01*
X153957Y437667D01*
X154054Y437623D01*
X154150Y437586D01*
X154246Y437556D01*
X154350Y437541D01*
Y437534D01*
X154342Y437527D01*
X154335Y437504D01*
X154327Y437475D01*
X154305Y437393D01*
X154268Y437290D01*
X154224Y437171D01*
X154172Y437031D01*
X154105Y436883D01*
X154039Y436720D01*
X153883Y436394D01*
X153795Y436239D01*
X153698Y436091D01*
X153595Y435950D01*
X153499Y435832D01*
X153388Y435736D01*
X153277Y435662D01*
X153262Y435654D01*
X153217Y435625D01*
X153151Y435588D01*
X153047Y435543D01*
X152929Y435499D01*
X152781Y435447D01*
X152611Y435403D01*
X152418Y435366D01*
X152396D01*
X152366Y435358D01*
X152322Y435351D01*
X152270D01*
X152204Y435344D01*
X152130Y435336D01*
X152033Y435329D01*
X151930Y435321D01*
X151819Y435314D01*
X151686Y435307D01*
X151545D01*
X151390Y435299D01*
X151227Y435292D01*
X150553D01*
X150413Y435299D01*
X150250D01*
X150065Y435307D01*
X149880Y435314D01*
X149488Y435344D01*
X149295Y435358D01*
X149110Y435381D01*
X148940Y435410D01*
X148785Y435440D01*
X148659Y435477D01*
X148600Y435499D01*
X148555Y435521D01*
X148548D01*
X148533Y435529D01*
X148511Y435543D01*
X148474Y435566D01*
X148437Y435588D01*
X148393Y435625D01*
X148348Y435662D01*
X148296Y435714D01*
X148252Y435773D01*
X148208Y435847D01*
X148163Y435928D01*
X148134Y436024D01*
X148104Y436128D01*
X148082Y436246D01*
X148074Y436372D01*
Y436520D01*
Y442418D01*
X147305D01*
Y442403D01*
X147297Y442366D01*
X147283Y442300D01*
X147260Y442211D01*
X147238Y442107D01*
X147201Y441974D01*
X147157Y441819D01*
X147105Y441648D01*
X147046Y441463D01*
X146979Y441256D01*
X146898Y441042D01*
X146809Y440805D01*
X146705Y440553D01*
X146594Y440294D01*
X146469Y440028D01*
X146328Y439747D01*
X146180Y439458D01*
X146010Y439162D01*
X145832Y438859D01*
X145632Y438555D01*
X145418Y438237D01*
X145196Y437926D01*
X144952Y437608D01*
X144685Y437297D01*
X144404Y436979D01*
X144108Y436668D01*
X143790Y436357D01*
X143449Y436054D01*
X143094Y435751D01*
X142717Y435455D01*
X142317Y435173D01*
X141895Y434892D01*
Y434900D01*
X141881Y434922D01*
X141866Y434951D01*
X141836Y434996D01*
X141807Y435055D01*
X141770Y435114D01*
X141666Y435255D01*
X141540Y435410D01*
X141385Y435573D01*
X141207Y435728D01*
X141104Y435795D01*
X141000Y435862D01*
X141015Y435869D01*
X141044Y435876D01*
X141096Y435899D01*
X141170Y435936D01*
X141266Y435973D01*
X141377Y436024D01*
X141503Y436091D01*
X141644Y436158D01*
X141799Y436246D01*
X141962Y436343D01*
X142140Y436454D01*
X142332Y436579D01*
X142524Y436713D01*
X142732Y436861D01*
X142946Y437023D01*
X143161Y437208D01*
X143383Y437401D01*
X143605Y437608D01*
X143827Y437837D01*
X144056Y438074D01*
X144278Y438333D01*
X144500Y438614D01*
X144722Y438903D01*
X144937Y439221D01*
X145151Y439547D01*
X145351Y439895D01*
X145551Y440265D01*
X145736Y440657D01*
X145914Y441064D01*
X146084Y441493D01*
X146232Y441944D01*
X146372Y442418D01*
X142021D01*
X141962Y442411D01*
X141814Y442403D01*
X141644Y442381D01*
X141459Y442359D01*
X141252Y442322D01*
Y443306D01*
X141259D01*
X141274Y443299D01*
X141303D01*
X141333Y443291D01*
X141377Y443284D01*
X141429Y443276D01*
X141548Y443254D01*
X141688Y443239D01*
X141844Y443225D01*
X142006Y443217D01*
X146506D01*
Y443225D01*
Y443232D01*
X146513Y443254D01*
Y443284D01*
X146520Y443313D01*
X146528Y443358D01*
X146535Y443410D01*
X146543Y443469D01*
X146557Y443602D01*
X146580Y443772D01*
X146602Y443957D01*
X146624Y444179D01*
X146654Y444416D01*
X146676Y444682D01*
X146698Y444971D01*
X146728Y445282D01*
X146750Y445615D01*
X146765Y445963D01*
X146787Y446333D01*
X146802Y446717D01*
X143324D01*
X143213Y446710D01*
X143072Y446703D01*
X142917Y446680D01*
X142732Y446658D01*
X142524Y446621D01*
Y447605D01*
X142532D01*
X142547Y447598D01*
X142569D01*
X142606Y447591D01*
X142650Y447583D01*
X142702Y447568D01*
X142820Y447554D01*
X142961Y447531D01*
X143116Y447517D01*
X143287Y447509D01*
X152270D01*
X152389Y447517D01*
X152529Y447524D01*
X152692Y447546D01*
X152870Y447568D01*
X153062Y447605D01*
Y446621D01*
D02*
G37*
G36*
X301166Y448708D02*
X301173D01*
X301195Y448701D01*
X301225Y448693D01*
X301262Y448686D01*
X301299Y448671D01*
X301336Y448649D01*
X301358Y448634D01*
X301373Y448604D01*
Y448590D01*
X301365Y448575D01*
X301351Y448553D01*
X301328Y448523D01*
X301299Y448493D01*
X301262Y448456D01*
X301203Y448412D01*
X301188Y448405D01*
X301151Y448375D01*
X301099Y448338D01*
X301040Y448271D01*
X300973Y448197D01*
X300907Y448094D01*
X300847Y447983D01*
X300803Y447842D01*
Y447835D01*
X300796Y447813D01*
X300788Y447783D01*
X300773Y447746D01*
X300766Y447687D01*
X300744Y447628D01*
X300729Y447561D01*
X300707Y447487D01*
X300662Y447317D01*
X300603Y447139D01*
X300551Y446947D01*
X300492Y446762D01*
X306434D01*
X306501Y446769D01*
X306575D01*
X306656Y446777D01*
X306753D01*
X306856Y446784D01*
X306967Y446791D01*
X307078Y446799D01*
X307337Y446821D01*
X307618Y446851D01*
Y445896D01*
X307611D01*
X307589Y445903D01*
X307544D01*
X307493Y445911D01*
X307426Y445918D01*
X307352Y445933D01*
X307271Y445940D01*
X307174Y445948D01*
X306967Y445970D01*
X306738Y445985D01*
X306508Y445992D01*
X300241D01*
X300233Y445985D01*
X300226Y445948D01*
X300196Y445896D01*
X300167Y445829D01*
X300130Y445748D01*
X300078Y445644D01*
X300026Y445533D01*
X299967Y445408D01*
X299893Y445267D01*
X299819Y445126D01*
X299737Y444971D01*
X299649Y444808D01*
X299456Y444475D01*
X299249Y444135D01*
X304148D01*
X304251Y444142D01*
X304370Y444150D01*
X304496D01*
X304629Y444157D01*
X304769Y444172D01*
X305065Y444194D01*
X305376Y444231D01*
Y444224D01*
X305369Y444187D01*
Y444142D01*
X305361Y444076D01*
X305354Y443994D01*
X305347Y443898D01*
X305339Y443794D01*
X305332Y443676D01*
X305317Y443558D01*
X305310Y443424D01*
X305295Y443158D01*
X305287Y442892D01*
X305280Y442633D01*
Y436180D01*
Y436172D01*
Y436143D01*
Y436098D01*
Y436032D01*
X305273Y435965D01*
X305265Y435884D01*
X305243Y435699D01*
X305199Y435506D01*
X305169Y435410D01*
X305132Y435321D01*
X305088Y435240D01*
X305028Y435166D01*
X304969Y435099D01*
X304895Y435048D01*
X304888D01*
X304880Y435033D01*
X304858Y435018D01*
X304821Y435003D01*
X304769Y434981D01*
X304710Y434951D01*
X304629Y434922D01*
X304533Y434885D01*
X304414Y434855D01*
X304274Y434818D01*
X304118Y434781D01*
X303933Y434744D01*
X303726Y434707D01*
X303489Y434670D01*
X303230Y434633D01*
X303082Y434618D01*
X302934Y434604D01*
Y434611D01*
Y434633D01*
X302927Y434670D01*
X302919Y434722D01*
X302912Y434781D01*
X302897Y434848D01*
X302882Y434929D01*
X302860Y435018D01*
X302808Y435210D01*
X302742Y435425D01*
X302653Y435647D01*
X302535Y435876D01*
X302564D01*
X302601Y435869D01*
X302653Y435862D01*
X302712Y435854D01*
X302779Y435847D01*
X302853Y435839D01*
X302934Y435832D01*
X303112Y435817D01*
X303297Y435802D01*
X303482Y435795D01*
X303645Y435788D01*
X303748D01*
X303807Y435795D01*
X303948Y435810D01*
X304015Y435817D01*
X304074Y435832D01*
X304081D01*
X304089Y435839D01*
X304126Y435854D01*
X304177Y435884D01*
X304244Y435943D01*
X304303Y436017D01*
X304325Y436069D01*
X304355Y436121D01*
X304370Y436187D01*
X304385Y436261D01*
X304392Y436343D01*
Y436431D01*
Y438355D01*
X298946D01*
Y436135D01*
Y436128D01*
Y436113D01*
Y436076D01*
Y436032D01*
Y435980D01*
X298953Y435913D01*
Y435839D01*
X298960Y435751D01*
Y435654D01*
X298968Y435543D01*
X298975Y435425D01*
X298990Y435299D01*
X298997Y435166D01*
X299012Y435018D01*
X299027Y434870D01*
X299042Y434707D01*
X297961D01*
Y434715D01*
X297969Y434744D01*
Y434789D01*
X297976Y434848D01*
X297984Y434922D01*
X297991Y435011D01*
X297998Y435107D01*
X298013Y435210D01*
X298028Y435432D01*
X298043Y435669D01*
X298050Y435913D01*
X298058Y436135D01*
Y442544D01*
X298043Y442529D01*
X298006Y442485D01*
X297939Y442418D01*
X297850Y442329D01*
X297739Y442218D01*
X297599Y442085D01*
X297443Y441937D01*
X297258Y441774D01*
X297059Y441597D01*
X296837Y441404D01*
X296600Y441197D01*
X296341Y440990D01*
X296067Y440775D01*
X295771Y440553D01*
X295468Y440324D01*
X295142Y440102D01*
X295135Y440109D01*
X295127Y440124D01*
X295105Y440146D01*
X295075Y440183D01*
X295038Y440220D01*
X294994Y440272D01*
X294942Y440331D01*
X294876Y440390D01*
X294735Y440531D01*
X294565Y440679D01*
X294365Y440842D01*
X294143Y441005D01*
X294150Y441012D01*
X294180Y441027D01*
X294232Y441049D01*
X294298Y441079D01*
X294380Y441123D01*
X294483Y441175D01*
X294594Y441234D01*
X294728Y441308D01*
X294861Y441389D01*
X295016Y441478D01*
X295179Y441582D01*
X295349Y441693D01*
X295534Y441811D01*
X295719Y441937D01*
X295912Y442078D01*
X296111Y442226D01*
X296319Y442388D01*
X296526Y442559D01*
X296733Y442736D01*
X296948Y442929D01*
X297155Y443121D01*
X297369Y443336D01*
X297577Y443550D01*
X297784Y443787D01*
X297984Y444024D01*
X298183Y444275D01*
X298376Y444534D01*
X298561Y444808D01*
X298731Y445089D01*
X298901Y445378D01*
X299057Y445681D01*
X299205Y445992D01*
X295534D01*
X295482Y445985D01*
X295416D01*
X295342Y445977D01*
X295260D01*
X295172Y445970D01*
X295075Y445963D01*
X294964Y445955D01*
X294846Y445940D01*
X294720Y445926D01*
X294587Y445911D01*
X294446Y445896D01*
Y446851D01*
X294476D01*
X294513Y446843D01*
X294565Y446836D01*
X294624Y446828D01*
X294698Y446821D01*
X294779Y446814D01*
X294868Y446806D01*
X295053Y446791D01*
X295260Y446777D01*
X295460Y446769D01*
X295660Y446762D01*
X299464D01*
X299471Y446777D01*
X299478Y446806D01*
X299501Y446865D01*
X299523Y446939D01*
X299552Y447028D01*
X299582Y447147D01*
X299619Y447272D01*
X299656Y447413D01*
X299693Y447568D01*
X299737Y447739D01*
X299774Y447916D01*
X299804Y448109D01*
X299841Y448308D01*
X299871Y448516D01*
X299908Y448952D01*
X301166Y448708D01*
D02*
G37*
G36*
X189944Y448775D02*
X189966Y448760D01*
X189995Y448730D01*
X190047Y448693D01*
X190106Y448641D01*
X190180Y448582D01*
X190262Y448508D01*
X190365Y448419D01*
X190476Y448323D01*
X190602Y448212D01*
X190735Y448094D01*
X190883Y447961D01*
X191046Y447813D01*
X191216Y447657D01*
X191401Y447487D01*
X191601Y447302D01*
X190987Y446651D01*
X192807D01*
X192837Y446658D01*
X192881D01*
X192933Y446666D01*
X193000D01*
X193074Y446673D01*
X193148Y446680D01*
X193244Y446688D01*
X193340Y446695D01*
X193451Y446703D01*
X193570Y446710D01*
X193695Y446725D01*
X193829Y446732D01*
X193977Y446747D01*
Y445792D01*
X193940D01*
X193903Y445800D01*
X193843Y445807D01*
X193777D01*
X193703Y445815D01*
X193614Y445822D01*
X193525Y445829D01*
X193333Y445844D01*
X193126Y445859D01*
X192933Y445874D01*
X192844Y445881D01*
X188456D01*
X188412Y445874D01*
X188286D01*
X188205Y445866D01*
X188108Y445859D01*
X188005Y445852D01*
X187886Y445844D01*
X187753Y445837D01*
X187605Y445822D01*
X187450Y445807D01*
X187272Y445792D01*
Y446747D01*
X187280D01*
X187309Y446740D01*
X187361D01*
X187420Y446732D01*
X187494Y446725D01*
X187583Y446717D01*
X187679Y446710D01*
X187775Y446703D01*
X187990Y446680D01*
X188205Y446666D01*
X188301Y446658D01*
X188397D01*
X188486Y446651D01*
X190839D01*
X190832Y446658D01*
X190809Y446680D01*
X190780Y446717D01*
X190735Y446769D01*
X190676Y446836D01*
X190602Y446917D01*
X190521Y447006D01*
X190425Y447102D01*
X190321Y447213D01*
X190203Y447324D01*
X190077Y447450D01*
X189944Y447583D01*
X189796Y447724D01*
X189633Y447864D01*
X189470Y448012D01*
X189292Y448168D01*
X189936Y448782D01*
X189944Y448775D01*
D02*
G37*
G36*
X270137Y448752D02*
X270167D01*
X270204Y448745D01*
X270241Y448738D01*
X270278Y448723D01*
X270315Y448708D01*
X270337Y448686D01*
X270352Y448664D01*
Y448649D01*
Y448634D01*
X270345Y448612D01*
X270330Y448582D01*
X270300Y448545D01*
X270271Y448501D01*
X270219Y448442D01*
X270204Y448427D01*
X270174Y448390D01*
X270137Y448331D01*
X270086Y448234D01*
X270034Y448116D01*
X270012Y448049D01*
X269997Y447968D01*
X269975Y447879D01*
X269967Y447790D01*
X269952Y447687D01*
Y447576D01*
Y446362D01*
X273726D01*
X273808Y446370D01*
X273904D01*
X274000Y446377D01*
X274111Y446384D01*
X274237Y446392D01*
X274370Y446407D01*
X274511Y446414D01*
X274666Y446436D01*
X274829Y446451D01*
Y446444D01*
Y446414D01*
X274822Y446370D01*
X274814Y446310D01*
X274807Y446236D01*
X274799Y446155D01*
X274792Y446059D01*
X274785Y445963D01*
X274770Y445741D01*
X274755Y445511D01*
X274748Y445289D01*
X274740Y445186D01*
Y445089D01*
Y440117D01*
Y440109D01*
Y440087D01*
Y440057D01*
Y440013D01*
Y439954D01*
X274748Y439880D01*
Y439806D01*
X274755Y439710D01*
Y439613D01*
X274762Y439502D01*
X274770Y439384D01*
X274777Y439258D01*
X274785Y439118D01*
X274799Y438977D01*
X274829Y438674D01*
X274822D01*
X274792Y438681D01*
X274755D01*
X274703Y438688D01*
X274637Y438696D01*
X274555Y438703D01*
X274466Y438711D01*
X274370Y438725D01*
X274156Y438740D01*
X273919Y438755D01*
X273682Y438762D01*
X273438Y438770D01*
X269952D01*
Y436720D01*
Y436705D01*
Y436676D01*
X269945Y436624D01*
Y436565D01*
Y436557D01*
Y436528D01*
X269952Y436476D01*
X269967Y436417D01*
X269989Y436350D01*
X270026Y436269D01*
X270071Y436187D01*
X270130Y436098D01*
X270211Y436017D01*
X270308Y435936D01*
X270433Y435862D01*
X270574Y435795D01*
X270744Y435743D01*
X270840Y435721D01*
X270944Y435706D01*
X271055Y435699D01*
X271173Y435691D01*
X271307Y435684D01*
X271440Y435691D01*
X274037D01*
X274119Y435699D01*
X274222D01*
X274333Y435714D01*
X274452Y435721D01*
X274577Y435743D01*
X274844Y435788D01*
X274977Y435825D01*
X275103Y435869D01*
X275221Y435913D01*
X275332Y435973D01*
X275428Y436039D01*
X275502Y436121D01*
X275510Y436128D01*
X275517Y436143D01*
X275539Y436165D01*
X275569Y436202D01*
X275599Y436246D01*
X275643Y436313D01*
X275680Y436387D01*
X275724Y436483D01*
X275769Y436594D01*
X275813Y436720D01*
X275858Y436868D01*
X275902Y437031D01*
X275939Y437216D01*
X275976Y437423D01*
X276006Y437652D01*
X276028Y437904D01*
X276035Y437897D01*
X276050Y437882D01*
X276072Y437860D01*
X276109Y437830D01*
X276154Y437793D01*
X276205Y437756D01*
X276272Y437712D01*
X276339Y437660D01*
X276494Y437549D01*
X276672Y437445D01*
X276864Y437334D01*
X277071Y437245D01*
Y437238D01*
X277064Y437231D01*
X277056Y437208D01*
X277049Y437179D01*
X277027Y437105D01*
X276990Y437001D01*
X276945Y436883D01*
X276894Y436750D01*
X276834Y436602D01*
X276760Y436446D01*
X276605Y436121D01*
X276524Y435958D01*
X276435Y435810D01*
X276339Y435662D01*
X276235Y435536D01*
X276131Y435425D01*
X276028Y435336D01*
X276020Y435329D01*
X276006Y435314D01*
X275969Y435299D01*
X275924Y435270D01*
X275865Y435233D01*
X275791Y435196D01*
X275702Y435159D01*
X275591Y435122D01*
X275473Y435077D01*
X275332Y435040D01*
X275169Y435003D01*
X274992Y434974D01*
X274792Y434951D01*
X274577Y434929D01*
X274341Y434922D01*
X271092D01*
X271033Y434929D01*
X270966D01*
X270885Y434937D01*
X270722Y434951D01*
X270530Y434981D01*
X270330Y435025D01*
X270123Y435085D01*
X269915Y435159D01*
X269723Y435255D01*
X269538Y435381D01*
X269383Y435529D01*
X269309Y435610D01*
X269249Y435706D01*
X269198Y435802D01*
X269153Y435913D01*
X269124Y436032D01*
X269101Y436150D01*
X269087Y436291D01*
X269094Y436431D01*
Y438770D01*
X265816D01*
X265742Y438762D01*
X265653D01*
X265564Y438755D01*
X265453D01*
X265342Y438748D01*
X265216Y438740D01*
X265091Y438733D01*
X264809Y438703D01*
X264506Y438674D01*
Y438681D01*
X264513Y438711D01*
Y438762D01*
X264521Y438822D01*
X264528Y438903D01*
X264536Y438992D01*
X264543Y439088D01*
X264558Y439199D01*
X264573Y439428D01*
X264587Y439673D01*
X264595Y439909D01*
X264602Y440028D01*
Y440131D01*
Y444919D01*
Y444927D01*
Y444949D01*
Y444993D01*
Y445045D01*
Y445104D01*
X264595Y445186D01*
Y445274D01*
X264587Y445378D01*
Y445482D01*
X264580Y445600D01*
X264573Y445726D01*
X264565Y445859D01*
X264536Y446148D01*
X264506Y446451D01*
X264550D01*
X264595Y446444D01*
X264661Y446436D01*
X264735Y446429D01*
X264824Y446421D01*
X264928Y446414D01*
X265031Y446407D01*
X265261Y446392D01*
X265498Y446377D01*
X265727Y446370D01*
X265838Y446362D01*
X269094D01*
Y447480D01*
Y447487D01*
Y447509D01*
Y447539D01*
Y447583D01*
Y447635D01*
X269087Y447709D01*
Y447783D01*
Y447872D01*
X269079Y447968D01*
X269072Y448079D01*
X269064Y448197D01*
X269057Y448323D01*
X269050Y448456D01*
X269035Y448597D01*
X269020Y448752D01*
X269005Y448908D01*
X270137Y448752D01*
D02*
G37*
G36*
X239457D02*
X239487D01*
X239524Y448745D01*
X239561Y448738D01*
X239598Y448723D01*
X239635Y448708D01*
X239657Y448686D01*
X239672Y448664D01*
Y448649D01*
Y448634D01*
X239664Y448612D01*
X239649Y448582D01*
X239620Y448545D01*
X239590Y448501D01*
X239538Y448442D01*
X239524Y448427D01*
X239494Y448390D01*
X239457Y448331D01*
X239405Y448234D01*
X239353Y448116D01*
X239331Y448049D01*
X239316Y447968D01*
X239294Y447879D01*
X239287Y447790D01*
X239272Y447687D01*
Y447576D01*
Y446362D01*
X243046D01*
X243127Y446370D01*
X243224D01*
X243320Y446377D01*
X243431Y446384D01*
X243557Y446392D01*
X243690Y446407D01*
X243830Y446414D01*
X243986Y446436D01*
X244149Y446451D01*
Y446444D01*
Y446414D01*
X244141Y446370D01*
X244134Y446310D01*
X244126Y446236D01*
X244119Y446155D01*
X244112Y446059D01*
X244104Y445963D01*
X244089Y445741D01*
X244075Y445511D01*
X244067Y445289D01*
X244060Y445186D01*
Y445089D01*
Y440117D01*
Y440109D01*
Y440087D01*
Y440057D01*
Y440013D01*
Y439954D01*
X244067Y439880D01*
Y439806D01*
X244075Y439710D01*
Y439613D01*
X244082Y439502D01*
X244089Y439384D01*
X244097Y439258D01*
X244104Y439118D01*
X244119Y438977D01*
X244149Y438674D01*
X244141D01*
X244112Y438681D01*
X244075D01*
X244023Y438688D01*
X243956Y438696D01*
X243875Y438703D01*
X243786Y438711D01*
X243690Y438725D01*
X243475Y438740D01*
X243238Y438755D01*
X243002Y438762D01*
X242757Y438770D01*
X239272D01*
Y436720D01*
Y436705D01*
Y436676D01*
X239265Y436624D01*
Y436565D01*
Y436557D01*
Y436528D01*
X239272Y436476D01*
X239287Y436417D01*
X239309Y436350D01*
X239346Y436269D01*
X239390Y436187D01*
X239450Y436098D01*
X239531Y436017D01*
X239627Y435936D01*
X239753Y435862D01*
X239894Y435795D01*
X240064Y435743D01*
X240160Y435721D01*
X240264Y435706D01*
X240375Y435699D01*
X240493Y435691D01*
X240626Y435684D01*
X240759Y435691D01*
X243357D01*
X243438Y435699D01*
X243542D01*
X243653Y435714D01*
X243771Y435721D01*
X243897Y435743D01*
X244163Y435788D01*
X244297Y435825D01*
X244422Y435869D01*
X244541Y435913D01*
X244652Y435973D01*
X244748Y436039D01*
X244822Y436121D01*
X244829Y436128D01*
X244837Y436143D01*
X244859Y436165D01*
X244889Y436202D01*
X244918Y436246D01*
X244963Y436313D01*
X245000Y436387D01*
X245044Y436483D01*
X245088Y436594D01*
X245133Y436720D01*
X245177Y436868D01*
X245222Y437031D01*
X245259Y437216D01*
X245296Y437423D01*
X245325Y437652D01*
X245347Y437904D01*
X245355Y437897D01*
X245370Y437882D01*
X245392Y437860D01*
X245429Y437830D01*
X245473Y437793D01*
X245525Y437756D01*
X245592Y437712D01*
X245658Y437660D01*
X245814Y437549D01*
X245991Y437445D01*
X246184Y437334D01*
X246391Y437245D01*
Y437238D01*
X246383Y437231D01*
X246376Y437208D01*
X246369Y437179D01*
X246346Y437105D01*
X246309Y437001D01*
X246265Y436883D01*
X246213Y436750D01*
X246154Y436602D01*
X246080Y436446D01*
X245925Y436121D01*
X245843Y435958D01*
X245754Y435810D01*
X245658Y435662D01*
X245555Y435536D01*
X245451Y435425D01*
X245347Y435336D01*
X245340Y435329D01*
X245325Y435314D01*
X245288Y435299D01*
X245244Y435270D01*
X245185Y435233D01*
X245111Y435196D01*
X245022Y435159D01*
X244911Y435122D01*
X244792Y435077D01*
X244652Y435040D01*
X244489Y435003D01*
X244311Y434974D01*
X244112Y434951D01*
X243897Y434929D01*
X243660Y434922D01*
X240412D01*
X240352Y434929D01*
X240286D01*
X240204Y434937D01*
X240042Y434951D01*
X239849Y434981D01*
X239649Y435025D01*
X239442Y435085D01*
X239235Y435159D01*
X239043Y435255D01*
X238858Y435381D01*
X238702Y435529D01*
X238628Y435610D01*
X238569Y435706D01*
X238517Y435802D01*
X238473Y435913D01*
X238443Y436032D01*
X238421Y436150D01*
X238406Y436291D01*
X238414Y436431D01*
Y438770D01*
X235135D01*
X235061Y438762D01*
X234973D01*
X234884Y438755D01*
X234773D01*
X234662Y438748D01*
X234536Y438740D01*
X234410Y438733D01*
X234129Y438703D01*
X233826Y438674D01*
Y438681D01*
X233833Y438711D01*
Y438762D01*
X233840Y438822D01*
X233848Y438903D01*
X233855Y438992D01*
X233863Y439088D01*
X233877Y439199D01*
X233892Y439428D01*
X233907Y439673D01*
X233914Y439909D01*
X233922Y440028D01*
Y440131D01*
Y444919D01*
Y444927D01*
Y444949D01*
Y444993D01*
Y445045D01*
Y445104D01*
X233914Y445186D01*
Y445274D01*
X233907Y445378D01*
Y445482D01*
X233900Y445600D01*
X233892Y445726D01*
X233885Y445859D01*
X233855Y446148D01*
X233826Y446451D01*
X233870D01*
X233914Y446444D01*
X233981Y446436D01*
X234055Y446429D01*
X234144Y446421D01*
X234247Y446414D01*
X234351Y446407D01*
X234580Y446392D01*
X234817Y446377D01*
X235047Y446370D01*
X235158Y446362D01*
X238414D01*
Y447480D01*
Y447487D01*
Y447509D01*
Y447539D01*
Y447583D01*
Y447635D01*
X238406Y447709D01*
Y447783D01*
Y447872D01*
X238399Y447968D01*
X238391Y448079D01*
X238384Y448197D01*
X238377Y448323D01*
X238369Y448456D01*
X238354Y448597D01*
X238340Y448752D01*
X238325Y448908D01*
X239457Y448752D01*
D02*
G37*
G36*
X177430Y448775D02*
X177445Y448760D01*
X177482Y448738D01*
X177519Y448708D01*
X177578Y448664D01*
X177645Y448612D01*
X177719Y448553D01*
X177808Y448486D01*
X177904Y448405D01*
X178015Y448323D01*
X178141Y448227D01*
X178266Y448123D01*
X178414Y448012D01*
X178562Y447894D01*
X178725Y447768D01*
X178895Y447635D01*
X178903Y447628D01*
X178918Y447613D01*
X178947Y447591D01*
X178984Y447561D01*
X179029Y447531D01*
X179080Y447487D01*
X179206Y447391D01*
X179332Y447287D01*
X179465Y447184D01*
X179584Y447087D01*
X179643Y447043D01*
X179687Y447006D01*
X179014Y446222D01*
X178999Y446236D01*
X178969Y446266D01*
X178910Y446325D01*
X178836Y446399D01*
X178740Y446495D01*
X178629Y446599D01*
X178503Y446725D01*
X178363Y446851D01*
X178200Y446999D01*
X178030Y447147D01*
X177845Y447295D01*
X177652Y447457D01*
X177452Y447613D01*
X177238Y447776D01*
X176794Y448079D01*
X177423Y448782D01*
X177430Y448775D01*
D02*
G37*
G36*
X185134Y445252D02*
X185126D01*
X185097Y445260D01*
X185052D01*
X185000Y445267D01*
X184926Y445274D01*
X184845Y445282D01*
X184749Y445289D01*
X184653Y445297D01*
X184542Y445304D01*
X184423Y445311D01*
X184179Y445326D01*
X183927Y445341D01*
X183683Y445348D01*
X178725D01*
Y443232D01*
X181796D01*
X181855Y443239D01*
X181937D01*
X182026Y443247D01*
X182129D01*
X182240Y443254D01*
X182373Y443262D01*
X182514Y443269D01*
X182669Y443276D01*
X182840Y443291D01*
X183017Y443306D01*
X183217Y443321D01*
Y443313D01*
Y443284D01*
X183210Y443232D01*
X183202Y443173D01*
Y443099D01*
X183195Y443010D01*
X183187Y442906D01*
X183180Y442803D01*
X183165Y442573D01*
X183150Y442337D01*
X183136Y442100D01*
X183128Y441989D01*
Y441885D01*
Y437697D01*
Y437689D01*
Y437660D01*
Y437615D01*
Y437564D01*
X183121Y437497D01*
X183113Y437423D01*
X183084Y437253D01*
X183039Y437075D01*
X183002Y436986D01*
X182958Y436898D01*
X182906Y436824D01*
X182847Y436750D01*
X182780Y436690D01*
X182699Y436639D01*
X182692D01*
X182677Y436624D01*
X182655Y436616D01*
X182610Y436594D01*
X182558Y436572D01*
X182492Y436550D01*
X182410Y436520D01*
X182307Y436491D01*
X182188Y436461D01*
X182048Y436424D01*
X181892Y436394D01*
X181707Y436365D01*
X181508Y436335D01*
X181278Y436306D01*
X181027Y436283D01*
X180753Y436261D01*
Y436269D01*
Y436291D01*
X180745Y436320D01*
Y436357D01*
X180738Y436409D01*
X180723Y436476D01*
X180708Y436542D01*
X180686Y436624D01*
X180634Y436794D01*
X180597Y436890D01*
X180553Y436986D01*
X180494Y437090D01*
X180435Y437194D01*
X180368Y437297D01*
X180287Y437401D01*
X180294D01*
X180316Y437393D01*
X180346D01*
X180383Y437386D01*
X180435Y437379D01*
X180494Y437371D01*
X180634Y437349D01*
X180797Y437327D01*
X180967Y437312D01*
X181138Y437305D01*
X181300Y437297D01*
X181552D01*
X181641Y437290D01*
X181841Y437282D01*
X182033Y437268D01*
X182122Y437260D01*
X182203Y437245D01*
X182262Y437231D01*
X182307Y437216D01*
X182314Y437194D01*
X182322Y437179D01*
X182329Y437164D01*
X182336Y437171D01*
Y437194D01*
X182307Y437216D01*
X182299Y437245D01*
Y437290D01*
X182292Y437349D01*
X182285Y437416D01*
Y437504D01*
X182277Y437608D01*
Y437734D01*
Y437874D01*
Y437882D01*
Y437911D01*
X182270Y437956D01*
X182262Y438015D01*
Y442470D01*
X178725D01*
Y436039D01*
Y436032D01*
Y436017D01*
Y435980D01*
X178733Y435936D01*
Y435884D01*
Y435817D01*
X178740Y435736D01*
Y435647D01*
X178747Y435543D01*
X178755Y435432D01*
X178762Y435307D01*
X178770Y435173D01*
X178784Y435025D01*
X178792Y434870D01*
X178807Y434707D01*
X178821Y434530D01*
X177771D01*
Y434537D01*
X177778Y434574D01*
Y434618D01*
X177785Y434685D01*
X177793Y434759D01*
X177800Y434848D01*
X177808Y434951D01*
X177815Y435062D01*
X177830Y435299D01*
X177845Y435551D01*
X177859Y435802D01*
X177867Y435928D01*
Y436039D01*
Y442470D01*
X174448D01*
Y437541D01*
Y437534D01*
Y437519D01*
Y437490D01*
X174455Y437453D01*
Y437401D01*
Y437349D01*
X174463Y437275D01*
Y437201D01*
X174470Y437120D01*
X174478Y437023D01*
X174492Y436824D01*
X174515Y436587D01*
X174537Y436335D01*
X173493D01*
Y436343D01*
Y436365D01*
X173501Y436402D01*
X173508Y436454D01*
Y436513D01*
X173516Y436579D01*
X173523Y436661D01*
X173530Y436742D01*
X173545Y436935D01*
X173560Y437134D01*
X173575Y437342D01*
X173582Y437541D01*
Y441915D01*
Y441922D01*
Y441937D01*
Y441959D01*
Y441996D01*
Y442041D01*
X173575Y442100D01*
Y442166D01*
Y442240D01*
X173567Y442337D01*
X173560Y442440D01*
X173553Y442551D01*
X173545Y442677D01*
X173538Y442818D01*
X173523Y442973D01*
X173508Y443143D01*
X173493Y443321D01*
X173530D01*
X173575Y443313D01*
X173634Y443306D01*
X173708D01*
X173789Y443299D01*
X173886Y443291D01*
X173989Y443284D01*
X174211Y443269D01*
X174455Y443254D01*
X174692Y443239D01*
X174914Y443232D01*
X177867D01*
Y445348D01*
X172642D01*
X172583Y445341D01*
X172509D01*
X172420Y445334D01*
X172324D01*
X172221Y445326D01*
X172102Y445319D01*
X171976Y445311D01*
X171843Y445297D01*
X171695Y445282D01*
X171540Y445267D01*
X171377Y445252D01*
Y446207D01*
X171414D01*
X171458Y446199D01*
X171518Y446192D01*
X171592D01*
X171680Y446185D01*
X171769Y446177D01*
X171873Y446170D01*
X172102Y446155D01*
X172339Y446140D01*
X172568Y446125D01*
X172790Y446118D01*
X183824D01*
X183883Y446125D01*
X183957D01*
X184046Y446133D01*
X184135D01*
X184246Y446140D01*
X184364Y446148D01*
X184497Y446155D01*
X184638Y446162D01*
X184793Y446177D01*
X184956Y446192D01*
X185134Y446207D01*
Y445252D01*
D02*
G37*
G36*
X159870Y448234D02*
X159877Y448227D01*
X159900Y448220D01*
X159929Y448197D01*
X159966Y448183D01*
X159996Y448153D01*
X160025Y448131D01*
X160048Y448101D01*
X160055Y448079D01*
Y448064D01*
X160048Y448049D01*
X160025Y448035D01*
X160003Y448012D01*
X159966Y447983D01*
X159914Y447961D01*
X159840Y447931D01*
X159833D01*
X159826Y447924D01*
X159781Y447901D01*
X159715Y447857D01*
X159633Y447798D01*
X159544Y447716D01*
X159448Y447613D01*
X159359Y447487D01*
X159271Y447332D01*
Y447324D01*
X159263Y447309D01*
X159248Y447280D01*
X159234Y447250D01*
X159211Y447198D01*
X159182Y447147D01*
X159152Y447080D01*
X159115Y447013D01*
X159034Y446851D01*
X158930Y446658D01*
X158819Y446451D01*
X158693Y446222D01*
X161232D01*
X161276Y446229D01*
X161387Y446236D01*
X161520Y446244D01*
X161683Y446266D01*
X161861Y446288D01*
X162053Y446318D01*
Y445363D01*
X162046D01*
X162023Y445371D01*
X161994D01*
X161957Y445378D01*
X161905Y445385D01*
X161846Y445400D01*
X161713Y445415D01*
X161565Y445437D01*
X161409Y445452D01*
X161261Y445459D01*
X158272D01*
X158264Y445445D01*
X158242Y445415D01*
X158198Y445356D01*
X158146Y445289D01*
X158079Y445193D01*
X158005Y445089D01*
X157916Y444971D01*
X157820Y444845D01*
X157709Y444705D01*
X157598Y444557D01*
X157354Y444246D01*
X157102Y443920D01*
X156836Y443602D01*
X156829Y443609D01*
X156814Y443624D01*
X156792Y443646D01*
X156762Y443676D01*
X156718Y443706D01*
X156666Y443750D01*
X156555Y443839D01*
X156414Y443935D01*
X156259Y444031D01*
X156089Y444120D01*
X155918Y444179D01*
X155926Y444187D01*
X155941Y444194D01*
X155963Y444216D01*
X155992Y444238D01*
X156037Y444275D01*
X156081Y444320D01*
X156140Y444372D01*
X156207Y444431D01*
X156274Y444505D01*
X156355Y444579D01*
X156436Y444668D01*
X156525Y444764D01*
X156621Y444867D01*
X156718Y444978D01*
X156821Y445104D01*
X156932Y445237D01*
X157043Y445378D01*
X157162Y445526D01*
X157280Y445689D01*
X157398Y445859D01*
X157524Y446044D01*
X157650Y446229D01*
X157776Y446429D01*
X157902Y446643D01*
X158035Y446865D01*
X158161Y447095D01*
X158294Y447339D01*
X158420Y447591D01*
X158553Y447850D01*
X158679Y448123D01*
X158804Y448412D01*
X158930Y448708D01*
X159870Y448234D01*
D02*
G37*
G36*
X254938Y448575D02*
X254945D01*
X254975Y448567D01*
X255012Y448560D01*
X255049Y448545D01*
X255093Y448530D01*
X255123Y448508D01*
X255152Y448479D01*
X255160Y448442D01*
Y448427D01*
X255152Y448412D01*
X255145Y448382D01*
X255123Y448345D01*
X255078Y448301D01*
X255027Y448249D01*
X254953Y448183D01*
X254945Y448175D01*
X254930Y448146D01*
X254901Y448094D01*
X254871Y448020D01*
X254856Y447968D01*
X254842Y447909D01*
X254827Y447850D01*
X254812Y447776D01*
X254805Y447694D01*
X254797Y447598D01*
X254790Y447502D01*
X254782Y447391D01*
Y447376D01*
Y447339D01*
Y447280D01*
Y447198D01*
Y447095D01*
Y446976D01*
X254775Y446836D01*
Y446680D01*
Y446510D01*
X254768Y446333D01*
X254760Y446133D01*
Y445933D01*
X254753Y445718D01*
X254745Y445496D01*
X254723Y445030D01*
X258934Y445149D01*
X259060D01*
X259126Y445156D01*
X259296D01*
X259393Y445163D01*
X259496Y445171D01*
X259607Y445178D01*
X259844Y445200D01*
X260088Y445230D01*
X260340Y445267D01*
Y445260D01*
Y445245D01*
X260332Y445223D01*
Y445200D01*
X260325Y445163D01*
X260318Y445112D01*
Y445052D01*
X260310Y444986D01*
X260303Y444904D01*
X260288Y444808D01*
X260281Y444697D01*
X260273Y444564D01*
X260258Y444423D01*
X260251Y444261D01*
X260236Y444083D01*
X260221Y443876D01*
X260207Y443654D01*
X260192Y443410D01*
X260177Y443143D01*
X260155Y442855D01*
X260140Y442536D01*
X260118Y442196D01*
X260103Y441826D01*
X260081Y441426D01*
X260066Y441219D01*
X260059Y441005D01*
X260044Y440783D01*
X260036Y440546D01*
X260022Y440309D01*
X260007Y440065D01*
X259999Y439806D01*
X259985Y439547D01*
X259970Y439273D01*
X259955Y438992D01*
X259948Y438703D01*
X259933Y438407D01*
X259918Y438104D01*
X259903Y437786D01*
Y437778D01*
Y437763D01*
Y437741D01*
Y437704D01*
X259896Y437660D01*
Y437608D01*
Y437549D01*
X259888Y437482D01*
X259881Y437327D01*
X259866Y437157D01*
X259844Y436972D01*
X259814Y436779D01*
X259785Y436579D01*
X259740Y436380D01*
X259696Y436180D01*
X259637Y436002D01*
X259570Y435832D01*
X259496Y435684D01*
X259452Y435625D01*
X259407Y435566D01*
X259356Y435521D01*
X259304Y435477D01*
X259296Y435469D01*
X259282Y435455D01*
X259252Y435432D01*
X259200Y435395D01*
X259134Y435358D01*
X259045Y435314D01*
X258934Y435262D01*
X258801Y435218D01*
X258638Y435159D01*
X258542Y435136D01*
X258445Y435107D01*
X258334Y435085D01*
X258216Y435055D01*
X258098Y435033D01*
X257964Y435011D01*
X257816Y434988D01*
X257668Y434966D01*
X257506Y434944D01*
X257335Y434922D01*
X257158Y434907D01*
X256965Y434892D01*
X256766Y434877D01*
X256551Y434863D01*
Y434870D01*
Y434892D01*
X256544Y434922D01*
Y434966D01*
X256536Y435018D01*
X256529Y435085D01*
X256514Y435159D01*
X256499Y435240D01*
X256477Y435329D01*
X256455Y435432D01*
X256388Y435647D01*
X256299Y435884D01*
X256240Y436010D01*
X256181Y436135D01*
X256188D01*
X256218Y436128D01*
X256255Y436121D01*
X256314Y436113D01*
X256381Y436098D01*
X256455Y436091D01*
X256544Y436076D01*
X256640Y436061D01*
X256840Y436032D01*
X257062Y436010D01*
X257284Y435995D01*
X257491Y435987D01*
X257550D01*
X257624Y435995D01*
X257713Y436002D01*
X257824Y436017D01*
X257942Y436039D01*
X258068Y436069D01*
X258201Y436106D01*
X258334Y436158D01*
X258468Y436224D01*
X258586Y436306D01*
X258690Y436394D01*
X258786Y436505D01*
X258852Y436639D01*
X258904Y436787D01*
X258912Y436868D01*
X258919Y436957D01*
Y436972D01*
X258926Y437009D01*
Y437075D01*
X258934Y437164D01*
X258941Y437275D01*
X258949Y437408D01*
X258963Y437556D01*
X258971Y437734D01*
X258986Y437919D01*
X259000Y438126D01*
X259015Y438348D01*
X259030Y438585D01*
X259045Y438829D01*
X259060Y439088D01*
X259074Y439362D01*
X259097Y439643D01*
X259111Y439932D01*
X259126Y440228D01*
X259163Y440827D01*
X259193Y441449D01*
X259222Y442070D01*
X259252Y442684D01*
X259274Y443284D01*
X259282Y443580D01*
X259289Y443861D01*
X259296Y444135D01*
X259304Y444401D01*
X254708Y444275D01*
Y444268D01*
Y444253D01*
Y444231D01*
Y444201D01*
X254701Y444164D01*
Y444113D01*
X254694Y444053D01*
X254686Y443987D01*
X254679Y443920D01*
X254671Y443839D01*
X254657Y443654D01*
X254627Y443447D01*
X254597Y443210D01*
X254553Y442951D01*
X254501Y442670D01*
X254442Y442366D01*
X254368Y442048D01*
X254287Y441708D01*
X254198Y441352D01*
X254087Y440990D01*
X253968Y440612D01*
X253835Y440228D01*
X253680Y439835D01*
X253517Y439436D01*
X253332Y439029D01*
X253132Y438622D01*
X252910Y438215D01*
X252666Y437808D01*
X252407Y437408D01*
X252126Y437009D01*
X251822Y436616D01*
X251497Y436232D01*
X251149Y435862D01*
X250772Y435499D01*
X250372Y435151D01*
X249943Y434818D01*
X249491Y434500D01*
X249484Y434507D01*
X249469Y434522D01*
X249447Y434552D01*
X249417Y434589D01*
X249373Y434633D01*
X249329Y434685D01*
X249269Y434744D01*
X249203Y434811D01*
X249047Y434944D01*
X248870Y435092D01*
X248670Y435233D01*
X248441Y435366D01*
X248448D01*
X248455Y435373D01*
X248500Y435388D01*
X248566Y435425D01*
X248663Y435469D01*
X248781Y435529D01*
X248914Y435603D01*
X249070Y435699D01*
X249247Y435802D01*
X249432Y435921D01*
X249639Y436061D01*
X249854Y436217D01*
X250076Y436394D01*
X250305Y436579D01*
X250542Y436794D01*
X250786Y437023D01*
X251031Y437268D01*
X251282Y437534D01*
X251526Y437823D01*
X251763Y438133D01*
X252000Y438459D01*
X252229Y438814D01*
X252451Y439184D01*
X252666Y439584D01*
X252866Y439998D01*
X253051Y440442D01*
X253221Y440908D01*
X253369Y441397D01*
X253502Y441915D01*
X253613Y442455D01*
X253702Y443017D01*
X253761Y443609D01*
X253798Y444231D01*
X250912Y444150D01*
X250786D01*
X250727Y444142D01*
X250646D01*
X250564Y444135D01*
X250468Y444127D01*
X250365Y444120D01*
X250254Y444113D01*
X250017Y444083D01*
X249765Y444046D01*
X249506Y443994D01*
X249447Y445015D01*
X249462D01*
X249491Y445008D01*
X249551Y444993D01*
X249617Y444986D01*
X249699Y444971D01*
X249787Y444956D01*
X249965Y444949D01*
X250039D01*
X250083Y444941D01*
X250535D01*
X250624Y444949D01*
X250720D01*
X253828Y445015D01*
Y445023D01*
Y445045D01*
Y445089D01*
Y445141D01*
Y445208D01*
Y445289D01*
Y445385D01*
Y445482D01*
X253820Y445593D01*
Y445718D01*
Y445844D01*
Y445985D01*
X253813Y446273D01*
X253806Y446577D01*
X253798Y446895D01*
X253791Y447206D01*
X253783Y447524D01*
X253769Y447820D01*
X253761Y448101D01*
X253754Y448234D01*
X253746Y448353D01*
X253739Y448471D01*
X253732Y448575D01*
X253717Y448671D01*
X253709Y448752D01*
X254938Y448575D01*
D02*
G37*
G36*
X350124Y444046D02*
X350117D01*
X350102Y444053D01*
X350072D01*
X350035Y444061D01*
X349983Y444068D01*
X349924Y444076D01*
X349850Y444083D01*
X349769Y444090D01*
X349680Y444098D01*
X349584Y444105D01*
X349480Y444113D01*
X349369Y444120D01*
X349243Y444127D01*
X349118Y444135D01*
X341777D01*
X341703Y444127D01*
X341525D01*
X341325Y444113D01*
X341118Y444098D01*
X340926Y444076D01*
X340830Y444061D01*
X340748Y444046D01*
Y445001D01*
X340756D01*
X340763Y444993D01*
X340785D01*
X340815Y444986D01*
X340859Y444978D01*
X340904Y444971D01*
X340963Y444964D01*
X341029Y444956D01*
X341111Y444941D01*
X341200Y444934D01*
X341303Y444927D01*
X341414Y444919D01*
X341540Y444912D01*
X341673D01*
X341821Y444904D01*
X349051D01*
X349132Y444912D01*
X349221D01*
X349317Y444919D01*
X349525Y444927D01*
X349739Y444949D01*
X349946Y444971D01*
X350035Y444986D01*
X350124Y445001D01*
Y444046D01*
D02*
G37*
G36*
X227558Y448086D02*
X227587Y448049D01*
X227639Y447998D01*
X227706Y447924D01*
X227787Y447827D01*
X227891Y447716D01*
X228009Y447583D01*
X228142Y447428D01*
X228283Y447258D01*
X228446Y447065D01*
X228616Y446858D01*
X228808Y446636D01*
X229001Y446399D01*
X229215Y446140D01*
X229430Y445866D01*
X229659Y445578D01*
X228882Y444890D01*
Y444897D01*
X228868Y444912D01*
X228853Y444934D01*
X228831Y444964D01*
X228801Y445001D01*
X228771Y445045D01*
X228683Y445163D01*
X228579Y445297D01*
X228461Y445459D01*
X228327Y445630D01*
X228179Y445822D01*
X228017Y446022D01*
X227854Y446236D01*
X227491Y446658D01*
X227306Y446873D01*
X227121Y447073D01*
X226944Y447272D01*
X226759Y447450D01*
X227550Y448094D01*
X227558Y448086D01*
D02*
G37*
G36*
X161298Y442721D02*
X161291D01*
X161269Y442729D01*
X161239D01*
X161195Y442736D01*
X161143Y442744D01*
X161091Y442758D01*
X160950Y442773D01*
X160802Y442795D01*
X160647Y442810D01*
X160499Y442818D01*
X159500D01*
Y440627D01*
X161069D01*
X161180Y440635D01*
X161313Y440642D01*
X161461Y440657D01*
X161631Y440679D01*
X161816Y440716D01*
Y439761D01*
X161809D01*
X161794Y439769D01*
X161764D01*
X161727Y439776D01*
X161676Y439784D01*
X161624Y439791D01*
X161498Y439813D01*
X161350Y439828D01*
X161202Y439843D01*
X161047Y439850D01*
X159500D01*
Y436261D01*
X159507D01*
X159515Y436276D01*
X159537Y436283D01*
X159567Y436306D01*
X159641Y436357D01*
X159744Y436424D01*
X159863Y436505D01*
X160003Y436602D01*
X160159Y436713D01*
X160321Y436824D01*
X160654Y437068D01*
X160825Y437186D01*
X160987Y437312D01*
X161143Y437438D01*
X161283Y437549D01*
X161409Y437660D01*
X161513Y437756D01*
X161816Y436794D01*
X161809D01*
X161801Y436787D01*
X161779Y436772D01*
X161757Y436757D01*
X161683Y436705D01*
X161579Y436646D01*
X161454Y436565D01*
X161306Y436461D01*
X161135Y436350D01*
X160943Y436224D01*
X160736Y436084D01*
X160506Y435928D01*
X160270Y435758D01*
X160018Y435580D01*
X159752Y435388D01*
X159485Y435181D01*
X159204Y434974D01*
X158915Y434752D01*
X158227Y435721D01*
X158235D01*
X158249Y435736D01*
X158272Y435751D01*
X158301Y435765D01*
X158375Y435817D01*
X158464Y435891D01*
X158545Y435980D01*
X158619Y436076D01*
X158649Y436128D01*
X158671Y436187D01*
X158679Y436246D01*
Y436306D01*
Y439850D01*
X157184D01*
X157132Y439843D01*
X157014D01*
X156873Y439828D01*
X156703Y439813D01*
X156518Y439791D01*
X156311Y439761D01*
Y440716D01*
X156318D01*
X156333Y440709D01*
X156362D01*
X156399Y440701D01*
X156444Y440694D01*
X156496Y440686D01*
X156621Y440664D01*
X156762Y440649D01*
X156925Y440635D01*
X157088Y440627D01*
X158679D01*
Y442818D01*
X157857D01*
X157791Y442810D01*
X157650Y442803D01*
X157480Y442781D01*
X157280Y442758D01*
X157065Y442721D01*
Y443676D01*
X157073D01*
X157088Y443669D01*
X157117D01*
X157154Y443661D01*
X157199Y443654D01*
X157258Y443639D01*
X157384Y443624D01*
X157524Y443602D01*
X157687Y443587D01*
X157842Y443580D01*
X160506D01*
X160617Y443587D01*
X160758Y443595D01*
X160913Y443617D01*
X161098Y443639D01*
X161298Y443676D01*
Y442721D01*
D02*
G37*
G36*
X193222Y445193D02*
X193229D01*
X193251Y445178D01*
X193274Y445163D01*
X193303Y445141D01*
X193333Y445119D01*
X193362Y445097D01*
X193377Y445067D01*
Y445045D01*
Y445038D01*
X193370Y445023D01*
X193355Y445008D01*
X193333Y444986D01*
X193303Y444964D01*
X193266Y444941D01*
X193207Y444919D01*
X193200Y444912D01*
X193170Y444904D01*
X193133Y444882D01*
X193089Y444860D01*
X193029Y444823D01*
X192970Y444786D01*
X192837Y444690D01*
X192830Y444682D01*
X192815Y444668D01*
X192800Y444645D01*
X192778Y444608D01*
X192748Y444571D01*
X192711Y444512D01*
X192659Y444446D01*
X192608Y444357D01*
X192541Y444261D01*
X192467Y444142D01*
X192378Y444002D01*
X192282Y443846D01*
X192171Y443661D01*
X192045Y443461D01*
X191905Y443232D01*
X193096D01*
X193133Y443239D01*
X193229D01*
X193288Y443247D01*
X193362D01*
X193444Y443254D01*
X193533Y443262D01*
X193629Y443269D01*
X193740Y443276D01*
X193851Y443284D01*
X193977Y443299D01*
X194110Y443306D01*
X194250Y443321D01*
Y442374D01*
X194243D01*
X194221Y442381D01*
X194176D01*
X194132Y442388D01*
X194065Y442396D01*
X193991Y442403D01*
X193910Y442411D01*
X193821Y442418D01*
X193629Y442433D01*
X193429Y442448D01*
X193229Y442462D01*
X193037Y442470D01*
X191305D01*
Y440834D01*
X192874D01*
X192918Y440842D01*
X192963D01*
X193022Y440849D01*
X193096D01*
X193170Y440857D01*
X193251Y440864D01*
X193348Y440871D01*
X193547Y440886D01*
X193777Y440908D01*
X194021Y440931D01*
Y439983D01*
X193984D01*
X193947Y439991D01*
X193895Y439998D01*
X193829D01*
X193747Y440006D01*
X193666Y440013D01*
X193577Y440020D01*
X193377Y440035D01*
X193170Y440050D01*
X192970Y440065D01*
X192881Y440072D01*
X191305D01*
Y436491D01*
Y436483D01*
Y436446D01*
Y436402D01*
Y436335D01*
X191298Y436261D01*
Y436180D01*
X191290Y436084D01*
X191276Y435987D01*
X191239Y435788D01*
X191209Y435691D01*
X191179Y435595D01*
X191135Y435506D01*
X191091Y435432D01*
X191039Y435373D01*
X190972Y435321D01*
X190957Y435307D01*
X190935Y435299D01*
X190906Y435277D01*
X190861Y435255D01*
X190802Y435233D01*
X190735Y435203D01*
X190647Y435173D01*
X190543Y435144D01*
X190425Y435114D01*
X190284Y435077D01*
X190129Y435048D01*
X189944Y435018D01*
X189744Y434996D01*
X189514Y434974D01*
X189263Y434951D01*
Y434959D01*
Y434981D01*
X189255Y435011D01*
X189248Y435055D01*
X189241Y435107D01*
X189233Y435166D01*
X189218Y435233D01*
X189196Y435314D01*
X189152Y435477D01*
X189085Y435654D01*
X188989Y435839D01*
X188878Y436024D01*
X188900D01*
X188922Y436017D01*
X188959D01*
X189004Y436010D01*
X189048Y436002D01*
X189159Y435995D01*
X189292Y435980D01*
X189426Y435965D01*
X189559Y435958D01*
X189736D01*
X189796Y435965D01*
X189862D01*
X190018Y435987D01*
X190092Y436002D01*
X190151Y436024D01*
X190166Y436032D01*
X190203Y436047D01*
X190247Y436084D01*
X190306Y436143D01*
X190358Y436224D01*
X190388Y436276D01*
X190410Y436335D01*
X190425Y436402D01*
X190439Y436476D01*
X190447Y436565D01*
Y436653D01*
Y440072D01*
X188471D01*
X188419Y440065D01*
X188353D01*
X188279Y440057D01*
X188197D01*
X188108Y440050D01*
X188005Y440043D01*
X187790Y440028D01*
X187553Y440006D01*
X187302Y439983D01*
Y440931D01*
X187309D01*
X187339Y440923D01*
X187383D01*
X187435Y440916D01*
X187509Y440908D01*
X187590Y440901D01*
X187679Y440894D01*
X187775Y440886D01*
X187975Y440864D01*
X188190Y440849D01*
X188390Y440842D01*
X188486Y440834D01*
X190447D01*
Y442470D01*
X188094D01*
X188049Y442462D01*
X187990D01*
X187923Y442455D01*
X187849D01*
X187768Y442448D01*
X187679Y442440D01*
X187576Y442433D01*
X187465Y442425D01*
X187346Y442411D01*
X187220Y442403D01*
X187087Y442388D01*
X186947Y442374D01*
Y443321D01*
X186976D01*
X187021Y443313D01*
X187072Y443306D01*
X187132D01*
X187206Y443299D01*
X187294Y443291D01*
X187383Y443284D01*
X187576Y443269D01*
X187783Y443254D01*
X187983Y443239D01*
X188175Y443232D01*
X189640D01*
X189633Y443239D01*
X189611Y443276D01*
X189574Y443321D01*
X189522Y443387D01*
X189455Y443469D01*
X189381Y443558D01*
X189292Y443669D01*
X189196Y443780D01*
X189085Y443905D01*
X188974Y444039D01*
X188723Y444312D01*
X188456Y444594D01*
X188175Y444875D01*
X188848Y445422D01*
X188856Y445415D01*
X188878Y445393D01*
X188915Y445348D01*
X188967Y445297D01*
X189033Y445230D01*
X189107Y445156D01*
X189196Y445060D01*
X189292Y444956D01*
X189403Y444845D01*
X189514Y444719D01*
X189640Y444586D01*
X189766Y444446D01*
X189907Y444298D01*
X190047Y444142D01*
X190343Y443817D01*
X189744Y443232D01*
X191031D01*
Y443239D01*
X191039Y443247D01*
X191054Y443269D01*
X191068Y443299D01*
X191113Y443373D01*
X191172Y443469D01*
X191246Y443595D01*
X191327Y443743D01*
X191416Y443905D01*
X191512Y444083D01*
X191616Y444268D01*
X191712Y444468D01*
X191816Y444682D01*
X191912Y444890D01*
X192001Y445112D01*
X192090Y445326D01*
X192164Y445541D01*
X192230Y445748D01*
X193222Y445193D01*
D02*
G37*
G36*
X286218Y444216D02*
X286225D01*
X286240Y444209D01*
X286277Y444194D01*
X286321Y444157D01*
X286329Y444142D01*
X286336Y444120D01*
Y444113D01*
X286321Y444083D01*
X286306Y444068D01*
X286284Y444039D01*
X286255Y444016D01*
X286218Y443979D01*
X286210Y443972D01*
X286195Y443957D01*
X286173Y443935D01*
X286151Y443898D01*
X286114Y443854D01*
X286084Y443809D01*
X286033Y443691D01*
Y443676D01*
X286018Y443639D01*
X286003Y443580D01*
X285981Y443491D01*
X285951Y443373D01*
X285914Y443232D01*
X285862Y443062D01*
X285811Y442862D01*
X289089D01*
X289081Y442869D01*
X289044Y442892D01*
X288993Y442929D01*
X288926Y442973D01*
X288852Y443025D01*
X288756Y443084D01*
X288652Y443151D01*
X288541Y443217D01*
X288304Y443358D01*
X288053Y443498D01*
X287934Y443558D01*
X287816Y443609D01*
X287712Y443654D01*
X287609Y443691D01*
X288105Y444431D01*
X288112D01*
X288134Y444416D01*
X288171Y444394D01*
X288223Y444372D01*
X288282Y444335D01*
X288356Y444290D01*
X288452Y444246D01*
X288549Y444187D01*
X288667Y444120D01*
X288793Y444046D01*
X288933Y443965D01*
X289081Y443876D01*
X289244Y443780D01*
X289414Y443676D01*
X289599Y443565D01*
X289792Y443447D01*
X289355Y442862D01*
X290665D01*
X290761Y442869D01*
X290865D01*
X290983Y442877D01*
X291109D01*
X291242Y442884D01*
X291509Y442899D01*
X291782Y442921D01*
X292041Y442951D01*
Y442018D01*
X292034D01*
X292012Y442026D01*
X291975D01*
X291923Y442033D01*
X291856Y442048D01*
X291775Y442055D01*
X291679Y442063D01*
X291583Y442078D01*
X291464Y442085D01*
X291338Y442092D01*
X291205Y442107D01*
X291065Y442115D01*
X290909Y442122D01*
X290746D01*
X290406Y442129D01*
X286817D01*
X286824Y442122D01*
X286854Y442115D01*
X286898Y442092D01*
X286965Y442063D01*
X287046Y442026D01*
X287135Y441981D01*
X287246Y441930D01*
X287372Y441878D01*
X287513Y441819D01*
X287661Y441752D01*
X287831Y441685D01*
X288001Y441619D01*
X288186Y441545D01*
X288386Y441471D01*
X288593Y441397D01*
X288808Y441323D01*
X289030Y441249D01*
X289259Y441175D01*
X289747Y441034D01*
X290251Y440901D01*
X290769Y440790D01*
X291301Y440694D01*
X291568Y440657D01*
X291842Y440627D01*
X292108Y440598D01*
X292374Y440583D01*
X292907D01*
X292900Y440575D01*
X292885Y440553D01*
X292855Y440524D01*
X292826Y440479D01*
X292789Y440427D01*
X292744Y440368D01*
X292693Y440294D01*
X292648Y440213D01*
X292545Y440043D01*
X292463Y439850D01*
X292434Y439747D01*
X292404Y439650D01*
X292389Y439547D01*
X292382Y439443D01*
X292374D01*
X292345Y439451D01*
X292300Y439458D01*
X292234Y439465D01*
X292160Y439480D01*
X292071Y439495D01*
X291975Y439517D01*
X291864Y439532D01*
X291627Y439576D01*
X291383Y439628D01*
X291131Y439687D01*
X290887Y439747D01*
Y436476D01*
Y436468D01*
Y436446D01*
Y436417D01*
Y436365D01*
Y436313D01*
Y436239D01*
X290894Y436165D01*
Y436076D01*
X290902Y435980D01*
X290909Y435884D01*
X290924Y435662D01*
X290954Y435425D01*
X290991Y435173D01*
X289969D01*
Y435181D01*
X289977Y435188D01*
Y435210D01*
X289984Y435240D01*
X290006Y435321D01*
X290021Y435425D01*
X290043Y435543D01*
X290058Y435684D01*
X290066Y435839D01*
Y435995D01*
X287135D01*
Y435987D01*
Y435973D01*
Y435950D01*
Y435913D01*
Y435869D01*
Y435817D01*
X287143Y435699D01*
X287150Y435558D01*
X287165Y435403D01*
X287194Y435240D01*
X287231Y435077D01*
X286218D01*
Y435085D01*
X286225Y435107D01*
Y435144D01*
X286232Y435196D01*
X286240Y435255D01*
X286247Y435329D01*
X286262Y435403D01*
X286269Y435492D01*
X286284Y435677D01*
X286299Y435876D01*
X286306Y436076D01*
Y436261D01*
Y438940D01*
Y438947D01*
Y438962D01*
Y438984D01*
Y439021D01*
Y439058D01*
Y439110D01*
Y439169D01*
X286299Y439236D01*
X286292Y439384D01*
X286277Y439554D01*
X286255Y439747D01*
X286218Y439954D01*
X286225D01*
X286240Y439946D01*
X286269D01*
X286306Y439939D01*
X286351Y439924D01*
X286410Y439917D01*
X286536Y439895D01*
X286691Y439880D01*
X286854Y439858D01*
X287032Y439850D01*
X290473D01*
X290450Y439858D01*
X290413Y439872D01*
X290362Y439880D01*
X290295Y439902D01*
X290214Y439924D01*
X290125Y439954D01*
X290021Y439983D01*
X289910Y440020D01*
X289784Y440057D01*
X289651Y440102D01*
X289511Y440146D01*
X289355Y440198D01*
X289192Y440257D01*
X289030Y440316D01*
X288852Y440376D01*
X288482Y440516D01*
X288090Y440672D01*
X287683Y440849D01*
X287261Y441034D01*
X286832Y441241D01*
X286395Y441463D01*
X285966Y441708D01*
X285544Y441959D01*
Y441952D01*
X285529Y441944D01*
X285515Y441922D01*
X285492Y441893D01*
X285455Y441856D01*
X285418Y441819D01*
X285367Y441767D01*
X285315Y441715D01*
X285248Y441656D01*
X285174Y441589D01*
X285093Y441523D01*
X285004Y441449D01*
X284900Y441375D01*
X284797Y441293D01*
X284678Y441212D01*
X284545Y441130D01*
X284405Y441042D01*
X284257Y440960D01*
X284101Y440871D01*
X283931Y440783D01*
X283746Y440694D01*
X283554Y440612D01*
X283354Y440524D01*
X283139Y440442D01*
X282910Y440361D01*
X282673Y440279D01*
X282421Y440205D01*
X282155Y440131D01*
X281881Y440065D01*
X281593Y439998D01*
X281297Y439939D01*
X280978Y439887D01*
X284012D01*
X284079Y439895D01*
X284153D01*
X284242Y439902D01*
X284331Y439909D01*
X284427Y439917D01*
X284641Y439946D01*
X284878Y439983D01*
Y439976D01*
X284871Y439961D01*
Y439932D01*
X284863Y439895D01*
X284856Y439850D01*
X284849Y439798D01*
X284841Y439739D01*
X284826Y439673D01*
X284812Y439517D01*
X284797Y439347D01*
X284789Y439162D01*
Y438970D01*
Y436320D01*
Y436313D01*
Y436298D01*
Y436269D01*
Y436224D01*
Y436180D01*
Y436121D01*
Y436047D01*
X284797Y435973D01*
Y435884D01*
X284804Y435795D01*
X284819Y435595D01*
X284841Y435373D01*
X284878Y435129D01*
X283864D01*
Y435136D01*
X283872Y435151D01*
Y435173D01*
X283879Y435203D01*
X283887Y435240D01*
X283901Y435292D01*
X283916Y435403D01*
X283938Y435536D01*
X283953Y435677D01*
X283961Y435832D01*
Y435995D01*
X281215D01*
Y435987D01*
Y435973D01*
Y435943D01*
Y435913D01*
Y435869D01*
Y435817D01*
X281223Y435691D01*
X281230Y435543D01*
X281245Y435373D01*
X281267Y435196D01*
X281304Y435011D01*
X280290D01*
Y435018D01*
X280298Y435040D01*
Y435070D01*
X280305Y435114D01*
X280312Y435166D01*
X280320Y435225D01*
X280335Y435299D01*
X280342Y435381D01*
X280349Y435469D01*
X280357Y435566D01*
X280372Y435780D01*
X280379Y436010D01*
Y436261D01*
Y439806D01*
X280372D01*
X280349Y439798D01*
X280320D01*
X280275Y439791D01*
X280216Y439784D01*
X280150Y439769D01*
X280068Y439761D01*
X279979Y439747D01*
X279883Y439739D01*
X279780Y439724D01*
X279550Y439702D01*
X279299Y439680D01*
X279032Y439658D01*
Y439665D01*
X279025Y439673D01*
Y439695D01*
X279010Y439724D01*
X279003Y439769D01*
X278988Y439813D01*
X278966Y439865D01*
X278943Y439924D01*
X278884Y440072D01*
X278803Y440242D01*
X278699Y440435D01*
X278573Y440657D01*
X278640D01*
X278721Y440649D01*
X278914D01*
X279017Y440642D01*
X279358D01*
X279439Y440649D01*
X279535D01*
X279654Y440657D01*
X279780Y440664D01*
X279920Y440679D01*
X280068Y440686D01*
X280238Y440701D01*
X280409Y440723D01*
X280594Y440746D01*
X280786Y440768D01*
X281186Y440827D01*
X281607Y440908D01*
X282051Y441005D01*
X282495Y441123D01*
X282939Y441271D01*
X283383Y441441D01*
X283591Y441537D01*
X283805Y441641D01*
X284005Y441752D01*
X284197Y441870D01*
X284390Y441996D01*
X284567Y442129D01*
X280342D01*
X280246Y442122D01*
X280142D01*
X280024Y442115D01*
X279772Y442100D01*
X279506Y442085D01*
X279247Y442055D01*
X279121Y442041D01*
X279003Y442018D01*
Y442951D01*
X279032D01*
X279062Y442943D01*
X279114Y442936D01*
X279173Y442929D01*
X279247Y442921D01*
X279328Y442914D01*
X279424Y442906D01*
X279535Y442899D01*
X279654Y442892D01*
X279780Y442884D01*
X279920Y442877D01*
X280076Y442869D01*
X280238D01*
X280409Y442862D01*
X284989D01*
Y442869D01*
X284997Y442892D01*
X285004Y442929D01*
X285011Y442973D01*
X285026Y443032D01*
X285041Y443099D01*
X285056Y443173D01*
X285071Y443262D01*
X285093Y443439D01*
X285122Y443639D01*
X285137Y443839D01*
X285145Y444031D01*
Y444046D01*
Y444076D01*
Y444120D01*
X285137Y444179D01*
Y444253D01*
X285130Y444327D01*
X285108Y444490D01*
X286218Y444216D01*
D02*
G37*
G36*
X215636Y441315D02*
X215629D01*
X215607Y441323D01*
X215562D01*
X215511Y441330D01*
X215444Y441338D01*
X215363Y441345D01*
X215274Y441352D01*
X215170Y441360D01*
X215067Y441367D01*
X214948Y441375D01*
X214697Y441389D01*
X214423Y441404D01*
X203330D01*
X203212Y441397D01*
X202960Y441389D01*
X202701Y441375D01*
X202457Y441352D01*
X202339Y441330D01*
X202228Y441315D01*
Y442388D01*
X202235D01*
X202265Y442381D01*
X202309D01*
X202376Y442374D01*
X202450Y442366D01*
X202538Y442359D01*
X202635Y442351D01*
X202738Y442344D01*
X202857Y442329D01*
X202982Y442322D01*
X203234Y442307D01*
X203500Y442300D01*
X203759Y442292D01*
X214356D01*
X214438Y442300D01*
X214526D01*
X214623Y442307D01*
X214726D01*
X214845Y442314D01*
X215089Y442337D01*
X215355Y442359D01*
X215636Y442388D01*
Y441315D01*
D02*
G37*
G36*
X348910Y442211D02*
Y442196D01*
X348903Y442166D01*
X348896Y442129D01*
X348888Y442078D01*
X348881Y442018D01*
X348873Y441952D01*
X348866Y441878D01*
X348859Y441796D01*
X348851Y441700D01*
X348836Y441500D01*
X348829Y441271D01*
X348822Y441019D01*
Y439044D01*
Y439036D01*
Y439007D01*
Y438970D01*
Y438918D01*
Y438851D01*
X348829Y438777D01*
Y438703D01*
X348836Y438614D01*
X348844Y438429D01*
X348859Y438237D01*
X348881Y438059D01*
X348896Y437978D01*
X348910Y437904D01*
X348903D01*
X348888Y437911D01*
X348859D01*
X348814Y437919D01*
X348770Y437926D01*
X348711Y437934D01*
X348637Y437941D01*
X348563Y437956D01*
X348474Y437963D01*
X348378Y437971D01*
X348170Y437985D01*
X347934Y437993D01*
X347682Y438000D01*
X343405D01*
X343331Y437993D01*
X343257D01*
X343168Y437985D01*
X342990Y437978D01*
X342798Y437963D01*
X342606Y437934D01*
X342435Y437904D01*
Y437911D01*
X342443Y437926D01*
Y437956D01*
X342450Y437993D01*
X342458Y438045D01*
X342465Y438096D01*
X342472Y438163D01*
X342487Y438237D01*
X342502Y438407D01*
X342517Y438600D01*
X342524Y438814D01*
X342532Y439044D01*
Y441019D01*
Y441027D01*
Y441049D01*
Y441086D01*
Y441130D01*
Y441190D01*
X342524Y441264D01*
Y441338D01*
X342517Y441419D01*
X342509Y441611D01*
X342495Y441811D01*
X342465Y442018D01*
X342435Y442218D01*
X342458D01*
X342480Y442211D01*
X342517Y442203D01*
X342554Y442196D01*
X342606Y442189D01*
X342672Y442181D01*
X342739Y442174D01*
X342820Y442166D01*
X342902Y442159D01*
X342998Y442152D01*
X343101Y442144D01*
X343212Y442137D01*
X343331D01*
X343582Y442129D01*
X347867D01*
X347941Y442137D01*
X348030D01*
X348119Y442144D01*
X348311Y442152D01*
X348518Y442166D01*
X348718Y442189D01*
X348910Y442218D01*
Y442211D01*
D02*
G37*
G36*
X333555Y448264D02*
X333570Y448227D01*
X333585Y448160D01*
X333607Y448079D01*
X333637Y447968D01*
X333681Y447835D01*
X333726Y447687D01*
X333785Y447517D01*
X333851Y447332D01*
X333925Y447132D01*
X334014Y446917D01*
X334110Y446688D01*
X334214Y446444D01*
X334332Y446185D01*
X334466Y445926D01*
X334606Y445652D01*
X334762Y445371D01*
X334932Y445082D01*
X335109Y444793D01*
X335309Y444497D01*
X335516Y444194D01*
X335738Y443898D01*
X335975Y443595D01*
X336227Y443291D01*
X336493Y442995D01*
X336782Y442699D01*
X337085Y442411D01*
X337403Y442122D01*
X337736Y441848D01*
X338084Y441574D01*
X338454Y441315D01*
X338846Y441064D01*
X338839D01*
X338824Y441049D01*
X338802Y441034D01*
X338765Y441005D01*
X338721Y440975D01*
X338669Y440938D01*
X338610Y440894D01*
X338536Y440842D01*
X338462Y440783D01*
X338373Y440723D01*
X338188Y440583D01*
X337973Y440420D01*
X337744Y440242D01*
X337729Y440250D01*
X337699Y440279D01*
X337648Y440324D01*
X337566Y440390D01*
X337477Y440472D01*
X337366Y440575D01*
X337241Y440694D01*
X337100Y440827D01*
X336945Y440975D01*
X336782Y441138D01*
X336604Y441323D01*
X336412Y441515D01*
X336219Y441730D01*
X336020Y441952D01*
X335805Y442196D01*
X335598Y442448D01*
X335376Y442714D01*
X335161Y442995D01*
X334939Y443284D01*
X334725Y443587D01*
X334503Y443905D01*
X334288Y444238D01*
X334081Y444571D01*
X333874Y444927D01*
X333681Y445289D01*
X333489Y445659D01*
X333304Y446037D01*
X333134Y446429D01*
X332978Y446828D01*
X332830Y447235D01*
X332704Y447657D01*
X332586Y448079D01*
X332601D01*
X332616Y448086D01*
X332638Y448094D01*
X332653D01*
X332690Y448109D01*
X332756Y448116D01*
X332801Y448131D01*
X332852Y448138D01*
X332912Y448153D01*
X332978Y448168D01*
X333052Y448183D01*
X333134Y448197D01*
X333230Y448212D01*
X333326Y448234D01*
X333437Y448257D01*
X333555Y448279D01*
Y448264D01*
D02*
G37*
G36*
X330499Y447302D02*
X330507D01*
X330521Y447287D01*
X330581Y447258D01*
X330632Y447213D01*
X330647Y447184D01*
X330655Y447154D01*
X330647Y447139D01*
X330625Y447110D01*
X330610Y447095D01*
X330573Y447073D01*
X330536Y447050D01*
X330484Y447036D01*
X330477D01*
X330470Y447028D01*
X330425Y446999D01*
X330351Y446954D01*
X330262Y446880D01*
X330166Y446784D01*
X330114Y446725D01*
X330055Y446658D01*
X330003Y446584D01*
X329944Y446503D01*
X329892Y446414D01*
X329841Y446318D01*
Y446310D01*
X329826Y446281D01*
X329811Y446236D01*
X329781Y446177D01*
X329752Y446096D01*
X329707Y446007D01*
X329656Y445896D01*
X329604Y445770D01*
X329537Y445637D01*
X329463Y445489D01*
X329382Y445326D01*
X329293Y445149D01*
X329197Y444971D01*
X329093Y444771D01*
X328982Y444571D01*
X328856Y444357D01*
X328731Y444135D01*
X328590Y443905D01*
X328442Y443669D01*
X328287Y443424D01*
X328124Y443173D01*
X327946Y442921D01*
X327769Y442662D01*
X327576Y442396D01*
X327376Y442129D01*
X327162Y441863D01*
X326947Y441589D01*
X326718Y441315D01*
X326481Y441042D01*
X326237Y440775D01*
X325978Y440501D01*
X325711Y440228D01*
X325704Y440235D01*
X325689Y440242D01*
X325667Y440257D01*
X325637Y440287D01*
X325593Y440316D01*
X325541Y440353D01*
X325482Y440398D01*
X325415Y440442D01*
X325334Y440494D01*
X325253Y440553D01*
X325164Y440612D01*
X325060Y440672D01*
X324846Y440812D01*
X324594Y440960D01*
X324601Y440968D01*
X324631Y440982D01*
X324668Y441012D01*
X324727Y441049D01*
X324794Y441093D01*
X324883Y441160D01*
X324979Y441234D01*
X325090Y441315D01*
X325208Y441419D01*
X325341Y441530D01*
X325482Y441656D01*
X325630Y441789D01*
X325785Y441944D01*
X325956Y442107D01*
X326126Y442292D01*
X326303Y442485D01*
X326488Y442692D01*
X326673Y442914D01*
X326866Y443158D01*
X327058Y443410D01*
X327251Y443683D01*
X327450Y443965D01*
X327643Y444268D01*
X327843Y444586D01*
X328035Y444927D01*
X328227Y445274D01*
X328420Y445644D01*
X328605Y446037D01*
X328790Y446444D01*
X328967Y446865D01*
X329138Y447309D01*
X329300Y447768D01*
X330499Y447302D01*
D02*
G37*
G36*
X192615Y439406D02*
X192637Y439377D01*
X192667Y439325D01*
X192711Y439258D01*
X192763Y439177D01*
X192830Y439081D01*
X192904Y438970D01*
X192978Y438844D01*
X193066Y438703D01*
X193155Y438555D01*
X193259Y438392D01*
X193355Y438230D01*
X193459Y438052D01*
X193570Y437867D01*
X193784Y437482D01*
X192948Y436972D01*
X192941Y436986D01*
X192926Y437023D01*
X192896Y437083D01*
X192859Y437164D01*
X192815Y437260D01*
X192756Y437379D01*
X192696Y437504D01*
X192622Y437645D01*
X192548Y437793D01*
X192460Y437948D01*
X192267Y438274D01*
X192060Y438600D01*
X191949Y438762D01*
X191838Y438918D01*
X192608Y439414D01*
X192615Y439406D01*
D02*
G37*
G36*
X189611Y438903D02*
X189618D01*
X189633Y438888D01*
X189685Y438859D01*
X189707Y438836D01*
X189729Y438814D01*
X189744Y438792D01*
Y438770D01*
X189736Y438762D01*
X189722Y438755D01*
X189707Y438740D01*
X189670Y438725D01*
X189633Y438711D01*
X189574Y438696D01*
X189507Y438674D01*
X189500D01*
X189470Y438659D01*
X189418Y438637D01*
X189359Y438600D01*
X189292Y438540D01*
X189248Y438503D01*
X189211Y438459D01*
X189167Y438400D01*
X189122Y438341D01*
X189078Y438267D01*
X189033Y438185D01*
X189026Y438170D01*
X189004Y438133D01*
X188974Y438082D01*
X188930Y438000D01*
X188871Y437904D01*
X188804Y437786D01*
X188730Y437652D01*
X188649Y437504D01*
X188552Y437349D01*
X188449Y437179D01*
X188338Y437001D01*
X188227Y436816D01*
X187975Y436424D01*
X187709Y436024D01*
X187701D01*
X187694Y436039D01*
X187672Y436054D01*
X187642Y436069D01*
X187605Y436098D01*
X187561Y436121D01*
X187457Y436187D01*
X187324Y436261D01*
X187161Y436343D01*
X186984Y436417D01*
X186776Y436491D01*
X186784Y436498D01*
X186791Y436505D01*
X186813Y436528D01*
X186836Y436550D01*
X186902Y436624D01*
X186998Y436727D01*
X187109Y436853D01*
X187235Y437009D01*
X187368Y437179D01*
X187516Y437371D01*
X187672Y437586D01*
X187827Y437815D01*
X187983Y438059D01*
X188138Y438318D01*
X188286Y438592D01*
X188419Y438881D01*
X188545Y439169D01*
X188649Y439473D01*
X189611Y438903D01*
D02*
G37*
G36*
X332445Y443114D02*
X332453D01*
X332475Y443099D01*
X332505Y443084D01*
X332542Y443069D01*
X332579Y443047D01*
X332608Y443017D01*
X332630Y442988D01*
X332638Y442951D01*
Y442943D01*
X332630Y442936D01*
X332623Y442914D01*
X332601Y442892D01*
X332571Y442862D01*
X332534Y442832D01*
X332482Y442788D01*
X332416Y442751D01*
X332408Y442744D01*
X332371Y442729D01*
X332327Y442684D01*
X332260Y442625D01*
X332223Y442581D01*
X332186Y442536D01*
X332142Y442477D01*
X332098Y442411D01*
X332053Y442337D01*
X332009Y442248D01*
X331964Y442152D01*
X331913Y442048D01*
Y442041D01*
X331898Y442018D01*
X331883Y441981D01*
X331861Y441937D01*
X331831Y441870D01*
X331794Y441796D01*
X331750Y441708D01*
X331698Y441604D01*
X331639Y441493D01*
X331580Y441375D01*
X331513Y441234D01*
X331439Y441093D01*
X331358Y440938D01*
X331269Y440775D01*
X331173Y440598D01*
X331076Y440413D01*
X330973Y440220D01*
X330862Y440020D01*
X330743Y439813D01*
X330618Y439599D01*
X330359Y439147D01*
X330077Y438674D01*
X329767Y438178D01*
X329441Y437660D01*
X329093Y437127D01*
X328723Y436579D01*
X328775D01*
X328834Y436587D01*
X328923Y436594D01*
X329041Y436602D01*
X329189Y436609D01*
X329360Y436624D01*
X329456Y436631D01*
X329567Y436639D01*
X329678Y436646D01*
X329796Y436653D01*
X329922Y436661D01*
X330055Y436676D01*
X330203Y436683D01*
X330351Y436698D01*
X330514Y436705D01*
X330677Y436720D01*
X330854Y436735D01*
X331039Y436750D01*
X331224Y436764D01*
X331424Y436779D01*
X331639Y436794D01*
X331853Y436816D01*
X332075Y436831D01*
X332312Y436853D01*
X332349D01*
X332379Y436861D01*
X332416D01*
X332460Y436868D01*
X332571Y436875D01*
X332697Y436883D01*
X332845Y436898D01*
X333008Y436905D01*
X333185Y436920D01*
X333378Y436935D01*
X333570Y436949D01*
X333955Y436979D01*
X334147Y436994D01*
X334332Y437009D01*
X334503Y437023D01*
X334658Y437038D01*
Y437046D01*
X334643Y437053D01*
X334636Y437075D01*
X334614Y437105D01*
X334591Y437149D01*
X334562Y437194D01*
X334488Y437297D01*
X334399Y437430D01*
X334295Y437586D01*
X334184Y437756D01*
X334066Y437934D01*
X333933Y438126D01*
X333800Y438326D01*
X333518Y438725D01*
X333378Y438918D01*
X333245Y439103D01*
X333111Y439280D01*
X332986Y439443D01*
X333800Y439998D01*
X333807Y439991D01*
X333822Y439969D01*
X333844Y439939D01*
X333874Y439887D01*
X333911Y439828D01*
X333962Y439761D01*
X334014Y439680D01*
X334081Y439584D01*
X334147Y439488D01*
X334221Y439377D01*
X334303Y439251D01*
X334384Y439125D01*
X334473Y438992D01*
X334569Y438844D01*
X334769Y438540D01*
X334984Y438215D01*
X335206Y437874D01*
X335435Y437519D01*
X335672Y437157D01*
X336131Y436424D01*
X336353Y436069D01*
X336560Y435721D01*
X335664Y435144D01*
Y435151D01*
X335657Y435166D01*
X335642Y435196D01*
X335627Y435240D01*
X335605Y435284D01*
X335576Y435344D01*
X335546Y435418D01*
X335509Y435492D01*
X335465Y435573D01*
X335413Y435662D01*
X335309Y435862D01*
X335176Y436084D01*
X335021Y436320D01*
X334976D01*
X334924Y436313D01*
X334850Y436306D01*
X334762Y436298D01*
X334651Y436291D01*
X334532Y436276D01*
X334392Y436269D01*
X334236Y436254D01*
X334066Y436239D01*
X333888Y436217D01*
X333696Y436202D01*
X333489Y436187D01*
X333274Y436165D01*
X333052Y436143D01*
X332823Y436121D01*
X332342Y436076D01*
X331846Y436024D01*
X331335Y435980D01*
X330817Y435921D01*
X330299Y435869D01*
X329796Y435817D01*
X329315Y435758D01*
X329078Y435736D01*
X328856Y435706D01*
X328842D01*
X328834Y435699D01*
X328812D01*
X328782Y435691D01*
X328738Y435684D01*
X328686Y435669D01*
X328620Y435654D01*
X328538Y435640D01*
X328435Y435610D01*
X328316Y435588D01*
X328183Y435551D01*
X328020Y435514D01*
X327835Y435469D01*
X327628Y435418D01*
X327621Y435425D01*
X327613Y435447D01*
X327591Y435484D01*
X327569Y435536D01*
X327539Y435595D01*
X327502Y435662D01*
X327421Y435825D01*
X327339Y435987D01*
X327251Y436158D01*
X327177Y436320D01*
X327147Y436387D01*
X327117Y436446D01*
X327125D01*
X327140Y436461D01*
X327169Y436476D01*
X327206Y436491D01*
X327258Y436520D01*
X327310Y436550D01*
X327428Y436616D01*
X327561Y436698D01*
X327702Y436787D01*
X327828Y436890D01*
X327939Y436986D01*
X327946Y436994D01*
X327961Y437023D01*
X327991Y437068D01*
X328035Y437127D01*
X328087Y437208D01*
X328146Y437297D01*
X328220Y437408D01*
X328301Y437534D01*
X328383Y437667D01*
X328479Y437815D01*
X328583Y437985D01*
X328694Y438156D01*
X328805Y438348D01*
X328923Y438548D01*
X329049Y438755D01*
X329175Y438977D01*
X329300Y439206D01*
X329434Y439451D01*
X329574Y439695D01*
X329707Y439954D01*
X329848Y440220D01*
X329981Y440487D01*
X330255Y441049D01*
X330521Y441634D01*
X330780Y442240D01*
X331017Y442855D01*
X331239Y443476D01*
X332445Y443114D01*
D02*
G37*
G36*
X225834Y448397D02*
X225841D01*
X225871Y448390D01*
X225908Y448382D01*
X225952Y448375D01*
X225989Y448368D01*
X226026Y448353D01*
X226056Y448338D01*
X226063Y448323D01*
Y448316D01*
X226070Y448301D01*
X226063Y448279D01*
X226048Y448249D01*
X226026Y448212D01*
X225996Y448168D01*
X225945Y448109D01*
X225930Y448094D01*
X225893Y448049D01*
X225841Y447983D01*
X225789Y447879D01*
X225730Y447753D01*
X225686Y447598D01*
X225656Y447420D01*
X225649Y447317D01*
Y447213D01*
Y447206D01*
Y447184D01*
Y447154D01*
Y447110D01*
X225656Y447050D01*
Y446984D01*
Y446910D01*
Y446821D01*
X225663Y446725D01*
Y446621D01*
X225671Y446510D01*
X225678Y446392D01*
X225686Y446133D01*
X225700Y445852D01*
X225715Y445556D01*
X225730Y445252D01*
X225752Y444934D01*
X225782Y444616D01*
X225811Y444298D01*
X225841Y443987D01*
X225878Y443683D01*
X225915Y443402D01*
X225922D01*
X225952Y443410D01*
X225996Y443417D01*
X226056Y443424D01*
X226137Y443439D01*
X226226Y443447D01*
X226337Y443469D01*
X226455Y443484D01*
X226581Y443506D01*
X226729Y443528D01*
X226877Y443558D01*
X227040Y443580D01*
X227210Y443609D01*
X227388Y443646D01*
X227765Y443713D01*
X228165Y443787D01*
X228579Y443868D01*
X229415Y444046D01*
X229830Y444142D01*
X230222Y444246D01*
X230599Y444349D01*
X230777Y444409D01*
X230947Y444460D01*
X231139Y443447D01*
X231125D01*
X231102Y443439D01*
X231065D01*
X231028Y443432D01*
X230977Y443424D01*
X230917Y443417D01*
X230843Y443410D01*
X230769Y443395D01*
X230681Y443387D01*
X230577Y443373D01*
X230473Y443358D01*
X230348Y443336D01*
X230222Y443321D01*
X230081Y443299D01*
X229933Y443276D01*
X229770Y443254D01*
X229593Y443225D01*
X229415Y443195D01*
X229215Y443165D01*
X229016Y443136D01*
X228794Y443099D01*
X228572Y443062D01*
X228327Y443025D01*
X228076Y442988D01*
X227817Y442943D01*
X227543Y442899D01*
X227254Y442847D01*
X226958Y442795D01*
X226648Y442744D01*
X226322Y442692D01*
X225989Y442633D01*
Y442618D01*
X225996Y442581D01*
X226004Y442514D01*
X226011Y442425D01*
X226033Y442314D01*
X226048Y442181D01*
X226078Y442033D01*
X226107Y441863D01*
X226137Y441678D01*
X226181Y441478D01*
X226226Y441264D01*
X226278Y441034D01*
X226337Y440797D01*
X226403Y440553D01*
X226477Y440302D01*
X226559Y440043D01*
X226648Y439776D01*
X226744Y439510D01*
X226847Y439243D01*
X226966Y438970D01*
X227092Y438703D01*
X227217Y438437D01*
X227365Y438170D01*
X227513Y437919D01*
X227676Y437667D01*
X227854Y437423D01*
X228039Y437194D01*
X228231Y436972D01*
X228438Y436757D01*
X228660Y436565D01*
X228890Y436387D01*
X229134Y436224D01*
X229141D01*
X229149Y436217D01*
X229193Y436187D01*
X229260Y436150D01*
X229341Y436106D01*
X229437Y436061D01*
X229534Y436024D01*
X229637Y435995D01*
X229741Y435987D01*
X229756D01*
X229800Y435995D01*
X229867Y436017D01*
X229948Y436054D01*
X229992Y436084D01*
X230037Y436121D01*
X230081Y436158D01*
X230126Y436209D01*
X230163Y436276D01*
X230207Y436343D01*
X230244Y436424D01*
X230274Y436520D01*
X230281Y436535D01*
Y436550D01*
X230288Y436572D01*
X230296Y436609D01*
X230311Y436646D01*
X230318Y436698D01*
X230333Y436750D01*
X230348Y436824D01*
X230362Y436898D01*
X230377Y436986D01*
X230392Y437083D01*
X230407Y437194D01*
X230429Y437319D01*
X230444Y437453D01*
X230466Y437601D01*
Y437593D01*
X230481Y437578D01*
X230496Y437556D01*
X230525Y437527D01*
X230555Y437482D01*
X230599Y437445D01*
X230651Y437393D01*
X230710Y437349D01*
X230777Y437297D01*
X230858Y437245D01*
X230947Y437201D01*
X231043Y437157D01*
X231154Y437120D01*
X231273Y437083D01*
X231406Y437060D01*
X231546Y437038D01*
Y437031D01*
X231532Y437001D01*
X231517Y436957D01*
X231502Y436898D01*
X231472Y436824D01*
X231443Y436735D01*
X231413Y436646D01*
X231376Y436542D01*
X231302Y436328D01*
X231221Y436106D01*
X231132Y435899D01*
X231095Y435795D01*
X231051Y435706D01*
Y435699D01*
X231036Y435669D01*
X231021Y435625D01*
X230991Y435566D01*
X230954Y435499D01*
X230917Y435425D01*
X230866Y435351D01*
X230806Y435270D01*
X230747Y435181D01*
X230673Y435107D01*
X230592Y435033D01*
X230496Y434966D01*
X230399Y434907D01*
X230296Y434863D01*
X230177Y434833D01*
X230052Y434826D01*
X230000D01*
X229963Y434833D01*
X229911Y434840D01*
X229852Y434855D01*
X229785Y434870D01*
X229711Y434885D01*
X229622Y434914D01*
X229526Y434944D01*
X229423Y434988D01*
X229312Y435033D01*
X229201Y435092D01*
X229075Y435159D01*
X228942Y435233D01*
X228808Y435321D01*
X228801Y435329D01*
X228771Y435344D01*
X228734Y435366D01*
X228675Y435410D01*
X228609Y435455D01*
X228520Y435521D01*
X228424Y435595D01*
X228320Y435677D01*
X228202Y435780D01*
X228083Y435891D01*
X227950Y436017D01*
X227809Y436158D01*
X227661Y436313D01*
X227513Y436483D01*
X227358Y436676D01*
X227203Y436875D01*
X227040Y437090D01*
X226884Y437327D01*
X226722Y437571D01*
X226559Y437845D01*
X226403Y438126D01*
X226255Y438429D01*
X226100Y438748D01*
X225959Y439088D01*
X225819Y439443D01*
X225686Y439821D01*
X225567Y440213D01*
X225449Y440635D01*
X225345Y441071D01*
X225256Y441523D01*
X225175Y442004D01*
X225108Y442499D01*
X222763Y442063D01*
X222740Y442055D01*
X222718D01*
X222689Y442048D01*
X222652Y442041D01*
X222600Y442026D01*
X222541Y442011D01*
X222459Y441996D01*
X222363Y441967D01*
X222245Y441944D01*
X222111Y441907D01*
X221956Y441870D01*
X221778Y441826D01*
X221571Y441774D01*
X221371Y442773D01*
X221475D01*
X221542Y442781D01*
X221630D01*
X221727Y442788D01*
X221830D01*
X221941Y442795D01*
X222178Y442810D01*
X222407Y442832D01*
X222511Y442840D01*
X222607Y442855D01*
X222696Y442862D01*
X222763Y442877D01*
X225034Y443262D01*
Y443269D01*
Y443291D01*
X225027Y443328D01*
Y443373D01*
X225020Y443432D01*
X225012Y443506D01*
X225005Y443587D01*
X224997Y443683D01*
X224983Y443787D01*
X224975Y443898D01*
X224960Y444016D01*
X224953Y444142D01*
X224931Y444416D01*
X224901Y444719D01*
X224879Y445030D01*
X224857Y445356D01*
X224812Y446022D01*
X224790Y446355D01*
X224775Y446673D01*
X224768Y446976D01*
X224761Y447265D01*
Y447272D01*
Y447280D01*
Y447302D01*
Y447332D01*
Y447369D01*
Y447413D01*
X224753Y447472D01*
Y447531D01*
Y447605D01*
X224746Y447687D01*
X224738Y447776D01*
Y447879D01*
X224731Y447990D01*
X224724Y448109D01*
X224709Y448242D01*
X224701Y448382D01*
Y448390D01*
Y448405D01*
X224694Y448427D01*
Y448456D01*
X224687Y448516D01*
Y448575D01*
X225834Y448397D01*
D02*
G37*
G36*
X222504Y448205D02*
X222511D01*
X222533Y448190D01*
X222555Y448175D01*
X222585Y448160D01*
X222615Y448138D01*
X222644Y448116D01*
X222659Y448094D01*
Y448079D01*
Y448072D01*
X222652Y448057D01*
X222637Y448042D01*
X222615Y448020D01*
X222578Y447998D01*
X222533Y447975D01*
X222474Y447946D01*
X222459Y447938D01*
X222430Y447916D01*
X222378Y447879D01*
X222304Y447813D01*
X222267Y447776D01*
X222222Y447724D01*
X222178Y447665D01*
X222126Y447605D01*
X222074Y447531D01*
X222015Y447443D01*
X221963Y447354D01*
X221904Y447250D01*
Y447243D01*
X221897Y447228D01*
X221882Y447206D01*
X221867Y447176D01*
X221845Y447132D01*
X221815Y447080D01*
X221786Y447013D01*
X221749Y446947D01*
X221704Y446865D01*
X221660Y446777D01*
X221608Y446680D01*
X221549Y446569D01*
X221490Y446458D01*
X221423Y446333D01*
X221349Y446199D01*
X221275Y446059D01*
Y446051D01*
X221260Y446037D01*
X221253Y446007D01*
X221231Y445970D01*
X221209Y445926D01*
X221186Y445874D01*
X221127Y445763D01*
X221061Y445630D01*
X220994Y445504D01*
X220935Y445385D01*
X220876Y445282D01*
Y436039D01*
Y436032D01*
Y436017D01*
Y435995D01*
Y435958D01*
Y435906D01*
X220883Y435854D01*
Y435780D01*
X220890Y435699D01*
Y435603D01*
X220898Y435499D01*
X220905Y435381D01*
X220920Y435255D01*
X220927Y435107D01*
X220942Y434951D01*
X220957Y434789D01*
X220972Y434604D01*
X219958D01*
Y434611D01*
X219965Y434641D01*
Y434692D01*
X219973Y434759D01*
X219980Y434833D01*
X219988Y434922D01*
X219995Y435018D01*
X220002Y435129D01*
X220017Y435358D01*
X220032Y435595D01*
X220047Y435832D01*
X220054Y435936D01*
Y436039D01*
Y443957D01*
X220047Y443950D01*
X220032Y443928D01*
X220017Y443905D01*
X219965Y443831D01*
X219899Y443728D01*
X219817Y443602D01*
X219721Y443461D01*
X219610Y443299D01*
X219484Y443121D01*
X219351Y442929D01*
X219203Y442721D01*
X219048Y442507D01*
X218885Y442285D01*
X218537Y441833D01*
X218167Y441375D01*
X218160Y441382D01*
X218145Y441389D01*
X218115Y441412D01*
X218078Y441434D01*
X218027Y441463D01*
X217975Y441500D01*
X217908Y441545D01*
X217834Y441589D01*
X217679Y441678D01*
X217494Y441782D01*
X217301Y441878D01*
X217102Y441974D01*
X217109Y441981D01*
X217131Y442004D01*
X217176Y442041D01*
X217227Y442092D01*
X217294Y442152D01*
X217375Y442233D01*
X217472Y442329D01*
X217575Y442433D01*
X217694Y442551D01*
X217812Y442684D01*
X217945Y442832D01*
X218093Y442995D01*
X218241Y443165D01*
X218397Y443350D01*
X218559Y443550D01*
X218722Y443765D01*
X218892Y443987D01*
X219070Y444224D01*
X219248Y444468D01*
X219425Y444734D01*
X219603Y445008D01*
X219780Y445289D01*
X219958Y445585D01*
X220143Y445896D01*
X220313Y446214D01*
X220491Y446547D01*
X220654Y446888D01*
X220824Y447243D01*
X220979Y447605D01*
X221135Y447983D01*
X221275Y448368D01*
X221416Y448767D01*
X222504Y448205D01*
D02*
G37*
%LPC*%
G36*
X252794Y409349D02*
X249553D01*
Y408032D01*
X252794D01*
Y409349D01*
D02*
G37*
G36*
X230594Y407910D02*
X228430D01*
Y407166D01*
X230594D01*
Y407910D01*
D02*
G37*
G36*
Y406767D02*
X228430D01*
Y406041D01*
X230594D01*
Y406767D01*
D02*
G37*
G36*
X261153Y407266D02*
X259639D01*
Y407262D01*
X259643Y407251D01*
X259647Y407236D01*
X259650Y407214D01*
X259658Y407185D01*
X259669Y407151D01*
X259676Y407114D01*
X259687Y407070D01*
X259702Y407022D01*
X259717Y406970D01*
X259732Y406911D01*
X259750Y406852D01*
X259791Y406718D01*
X259835Y406578D01*
X259887Y406426D01*
X259946Y406267D01*
X260013Y406101D01*
X260083Y405938D01*
X260161Y405771D01*
X260242Y405605D01*
X260331Y405446D01*
X260427Y405294D01*
Y405298D01*
X260435Y405305D01*
X260438Y405316D01*
X260450Y405331D01*
X260461Y405349D01*
X260475Y405375D01*
X260494Y405405D01*
X260512Y405435D01*
X260531Y405472D01*
X260553Y405512D01*
X260575Y405557D01*
X260601Y405609D01*
X260627Y405660D01*
X260653Y405716D01*
X260709Y405838D01*
X260768Y405975D01*
X260831Y406123D01*
X260890Y406286D01*
X260949Y406460D01*
X261005Y406644D01*
X261060Y406844D01*
X261108Y407048D01*
X261153Y407266D01*
D02*
G37*
G36*
X222188Y408539D02*
X220223D01*
Y407225D01*
X222188D01*
Y408539D01*
D02*
G37*
G36*
X219794D02*
X217977D01*
Y407225D01*
X219794D01*
Y408539D01*
D02*
G37*
G36*
X222188Y406844D02*
X220223D01*
Y405509D01*
X222188D01*
Y406844D01*
D02*
G37*
G36*
X219794D02*
X217977D01*
Y405509D01*
X219794D01*
Y406844D01*
D02*
G37*
G36*
X245835Y405079D02*
X243104D01*
Y403910D01*
X245835D01*
Y405079D01*
D02*
G37*
G36*
X290095Y447406D02*
X287394D01*
Y445223D01*
X290095D01*
Y447406D01*
D02*
G37*
G36*
X284020D02*
X281334D01*
Y445223D01*
X284020D01*
Y447406D01*
D02*
G37*
G36*
X167988Y447184D02*
X163762D01*
Y445704D01*
X167988D01*
Y447184D01*
D02*
G37*
G36*
Y444964D02*
X163762D01*
Y443447D01*
X167988D01*
Y444964D01*
D02*
G37*
G36*
X320702Y446880D02*
X316239D01*
Y444860D01*
X320702D01*
Y446880D01*
D02*
G37*
G36*
Y444090D02*
X316239D01*
Y442174D01*
X320702D01*
Y444090D01*
D02*
G37*
G36*
X304392Y443365D02*
X298946D01*
Y441634D01*
X304392D01*
Y443365D01*
D02*
G37*
G36*
Y440871D02*
X298946D01*
Y439118D01*
X304392D01*
Y440871D01*
D02*
G37*
G36*
X273882Y445593D02*
X269952D01*
Y442966D01*
X273882D01*
Y445593D01*
D02*
G37*
G36*
X269094D02*
X265461D01*
Y442966D01*
X269094D01*
Y445593D01*
D02*
G37*
G36*
X273882Y442203D02*
X269952D01*
Y439532D01*
X273882D01*
Y442203D01*
D02*
G37*
G36*
X269094D02*
X265461D01*
Y439532D01*
X269094D01*
Y442203D01*
D02*
G37*
G36*
X243201Y445593D02*
X239272D01*
Y442966D01*
X243201D01*
Y445593D01*
D02*
G37*
G36*
X238414D02*
X234780D01*
Y442966D01*
X238414D01*
Y445593D01*
D02*
G37*
G36*
X243201Y442203D02*
X239272D01*
Y439532D01*
X243201D01*
Y442203D01*
D02*
G37*
G36*
X238414D02*
X234780D01*
Y439532D01*
X238414D01*
Y442203D01*
D02*
G37*
G36*
X290066Y439118D02*
X287135D01*
Y436705D01*
X290066D01*
Y439118D01*
D02*
G37*
G36*
X283961Y439147D02*
X281215D01*
Y436705D01*
X283961D01*
Y439147D01*
D02*
G37*
G36*
X347926Y441389D02*
X343420D01*
Y438740D01*
X347926D01*
Y441389D01*
D02*
G37*
%LPD*%
D10*
X586614Y570866D02*
X586583Y571865D01*
X586487Y572860D01*
X586330Y573846D01*
X586109Y574821D01*
X585828Y575780D01*
X585486Y576719D01*
X585085Y577635D01*
X584627Y578523D01*
X584114Y579380D01*
X583548Y580203D01*
X582930Y580989D01*
X582264Y581734D01*
X581551Y582435D01*
X580796Y583089D01*
X580001Y583694D01*
X579169Y584248D01*
X578303Y584747D01*
X577408Y585191D01*
X576486Y585577D01*
X575542Y585904D01*
X574579Y586170D01*
X573601Y586375D01*
X572612Y586517D01*
X571616Y586596D01*
X570616Y586612D01*
X569618Y586565D01*
X568625Y586454D01*
X567641Y586280D01*
X566670Y586045D01*
X565716Y585748D01*
X564782Y585391D01*
X563873Y584976D01*
X562992Y584504D01*
X562143Y583978D01*
X561329Y583398D01*
X560553Y582768D01*
X559819Y582090D01*
X559130Y581366D01*
X558487Y580601D01*
X557895Y579796D01*
X557355Y578956D01*
X556869Y578082D01*
X556439Y577180D01*
X556068Y576252D01*
X555756Y575303D01*
X555505Y574336D01*
X555316Y573354D01*
X555189Y572363D01*
X555126Y571366D01*
Y570366D01*
X555189Y569369D01*
X555316Y568378D01*
X555505Y567397D01*
X555756Y566429D01*
X556068Y565480D01*
X556439Y564552D01*
X556869Y563650D01*
X557355Y562777D01*
X557895Y561936D01*
X558487Y561131D01*
X559130Y560366D01*
X559819Y559643D01*
X560553Y558965D01*
X561329Y558334D01*
X562143Y557755D01*
X562992Y557228D01*
X563873Y556756D01*
X564782Y556341D01*
X565716Y555984D01*
X566670Y555688D01*
X567641Y555452D01*
X568625Y555278D01*
X569618Y555168D01*
X570616Y555120D01*
X571616Y555136D01*
X572612Y555215D01*
X573601Y555357D01*
X574579Y555562D01*
X575542Y555828D01*
X576486Y556155D01*
X577408Y556541D01*
X578303Y556985D01*
X579169Y557485D01*
X580001Y558038D01*
X580796Y558643D01*
X581551Y559298D01*
X582264Y559999D01*
X582930Y560744D01*
X583547Y561529D01*
X584114Y562352D01*
X584627Y563209D01*
X585085Y564098D01*
X585486Y565013D01*
X585828Y565952D01*
X586109Y566911D01*
X586330Y567886D01*
X586487Y568872D01*
X586583Y569867D01*
X586614Y570866D01*
X35433Y570866D02*
X35401Y571865D01*
X35306Y572860D01*
X35149Y573846D01*
X34928Y574821D01*
X34647Y575780D01*
X34305Y576719D01*
X33904Y577635D01*
X33446Y578523D01*
X32933Y579380D01*
X32366Y580203D01*
X31749Y580989D01*
X31082Y581734D01*
X30370Y582435D01*
X29615Y583089D01*
X28820Y583694D01*
X27988Y584248D01*
X27122Y584747D01*
X26227Y585191D01*
X25305Y585577D01*
X24361Y585904D01*
X23398Y586170D01*
X22420Y586375D01*
X21430Y586517D01*
X20434Y586596D01*
X19435Y586612D01*
X18437Y586565D01*
X17444Y586454D01*
X16460Y586280D01*
X15489Y586045D01*
X14534Y585748D01*
X13601Y585391D01*
X12692Y584976D01*
X11811Y584504D01*
X10962Y583978D01*
X10148Y583398D01*
X9372Y582768D01*
X8638Y582090D01*
X7949Y581366D01*
X7306Y580601D01*
X6714Y579796D01*
X6174Y578956D01*
X5688Y578082D01*
X5258Y577180D01*
X4887Y576252D01*
X4575Y575303D01*
X4324Y574336D01*
X4135Y573354D01*
X4008Y572363D01*
X3945Y571366D01*
Y570366D01*
X4008Y569369D01*
X4135Y568378D01*
X4324Y567397D01*
X4575Y566429D01*
X4887Y565480D01*
X5258Y564552D01*
X5688Y563650D01*
X6174Y562777D01*
X6714Y561936D01*
X7306Y561131D01*
X7949Y560366D01*
X8638Y559643D01*
X9372Y558965D01*
X10148Y558334D01*
X10962Y557755D01*
X11811Y557228D01*
X12692Y556756D01*
X13601Y556341D01*
X14534Y555984D01*
X15489Y555688D01*
X16460Y555452D01*
X17444Y555278D01*
X18437Y555168D01*
X19435Y555120D01*
X20434Y555136D01*
X21430Y555215D01*
X22420Y555357D01*
X23398Y555562D01*
X24361Y555828D01*
X25305Y556155D01*
X26227Y556541D01*
X27122Y556985D01*
X27988Y557485D01*
X28820Y558038D01*
X29615Y558643D01*
X30370Y559298D01*
X31082Y559999D01*
X31749Y560744D01*
X32366Y561529D01*
X32933Y562352D01*
X33446Y563209D01*
X33904Y564098D01*
X34305Y565013D01*
X34647Y565952D01*
X34928Y566911D01*
X35149Y567886D01*
X35306Y568872D01*
X35401Y569867D01*
X35433Y570866D01*
X586614Y19685D02*
X586583Y20684D01*
X586487Y21679D01*
X586330Y22665D01*
X586109Y23640D01*
X585828Y24599D01*
X585486Y25538D01*
X585085Y26454D01*
X584627Y27342D01*
X584114Y28199D01*
X583548Y29022D01*
X582930Y29808D01*
X582264Y30552D01*
X581551Y31253D01*
X580796Y31908D01*
X580001Y32513D01*
X579169Y33066D01*
X578303Y33566D01*
X577408Y34010D01*
X576486Y34396D01*
X575542Y34723D01*
X574579Y34989D01*
X573601Y35194D01*
X572612Y35336D01*
X571616Y35415D01*
X570616Y35431D01*
X569618Y35383D01*
X568625Y35273D01*
X567641Y35099D01*
X566670Y34864D01*
X565716Y34567D01*
X564782Y34210D01*
X563873Y33795D01*
X562992Y33323D01*
X562143Y32796D01*
X561329Y32217D01*
X560553Y31587D01*
X559819Y30909D01*
X559130Y30185D01*
X558487Y29420D01*
X557895Y28615D01*
X557355Y27775D01*
X556869Y26901D01*
X556439Y25999D01*
X556068Y25071D01*
X555756Y24122D01*
X555505Y23155D01*
X555316Y22173D01*
X555189Y21182D01*
X555126Y20185D01*
Y19185D01*
X555189Y18188D01*
X555316Y17197D01*
X555505Y16216D01*
X555756Y15248D01*
X556068Y14299D01*
X556439Y13371D01*
X556869Y12469D01*
X557355Y11596D01*
X557895Y10755D01*
X558487Y9950D01*
X559130Y9185D01*
X559819Y8461D01*
X560553Y7784D01*
X561329Y7153D01*
X562143Y6574D01*
X562992Y6047D01*
X563873Y5575D01*
X564782Y5160D01*
X565716Y4803D01*
X566670Y4506D01*
X567641Y4271D01*
X568625Y4097D01*
X569618Y3986D01*
X570616Y3939D01*
X571616Y3955D01*
X572612Y4034D01*
X573601Y4176D01*
X574579Y4381D01*
X575542Y4647D01*
X576486Y4974D01*
X577408Y5360D01*
X578303Y5804D01*
X579169Y6303D01*
X580001Y6857D01*
X580796Y7462D01*
X581551Y8117D01*
X582264Y8818D01*
X582930Y9562D01*
X583547Y10348D01*
X584114Y11171D01*
X584627Y12028D01*
X585085Y12917D01*
X585486Y13832D01*
X585828Y14771D01*
X586109Y15730D01*
X586330Y16705D01*
X586487Y17691D01*
X586583Y18686D01*
X586614Y19685D01*
X35433Y19685D02*
X35401Y20684D01*
X35306Y21679D01*
X35149Y22665D01*
X34928Y23640D01*
X34647Y24599D01*
X34305Y25538D01*
X33904Y26454D01*
X33446Y27342D01*
X32933Y28199D01*
X32366Y29022D01*
X31749Y29808D01*
X31082Y30552D01*
X30370Y31253D01*
X29615Y31908D01*
X28820Y32513D01*
X27988Y33066D01*
X27122Y33566D01*
X26227Y34010D01*
X25305Y34396D01*
X24361Y34723D01*
X23398Y34989D01*
X22420Y35194D01*
X21430Y35336D01*
X20434Y35415D01*
X19435Y35431D01*
X18437Y35383D01*
X17444Y35273D01*
X16460Y35099D01*
X15489Y34864D01*
X14534Y34567D01*
X13601Y34210D01*
X12692Y33795D01*
X11811Y33323D01*
X10962Y32796D01*
X10148Y32217D01*
X9372Y31587D01*
X8638Y30909D01*
X7949Y30185D01*
X7306Y29420D01*
X6714Y28615D01*
X6174Y27775D01*
X5688Y26901D01*
X5258Y25999D01*
X4887Y25071D01*
X4575Y24122D01*
X4324Y23155D01*
X4135Y22173D01*
X4008Y21182D01*
X3945Y20185D01*
Y19185D01*
X4008Y18188D01*
X4135Y17197D01*
X4324Y16216D01*
X4575Y15248D01*
X4887Y14299D01*
X5258Y13371D01*
X5688Y12469D01*
X6174Y11596D01*
X6714Y10755D01*
X7306Y9950D01*
X7949Y9185D01*
X8638Y8461D01*
X9372Y7784D01*
X10148Y7153D01*
X10962Y6574D01*
X11811Y6047D01*
X12692Y5575D01*
X13601Y5160D01*
X14534Y4803D01*
X15489Y4506D01*
X16460Y4271D01*
X17444Y4097D01*
X18437Y3986D01*
X19435Y3939D01*
X20434Y3955D01*
X21430Y4034D01*
X22420Y4176D01*
X23398Y4381D01*
X24361Y4647D01*
X25305Y4974D01*
X26227Y5360D01*
X27122Y5804D01*
X27988Y6303D01*
X28820Y6857D01*
X29615Y7462D01*
X30370Y8117D01*
X31082Y8818D01*
X31749Y9562D01*
X32366Y10348D01*
X32933Y11171D01*
X33446Y12028D01*
X33904Y12917D01*
X34305Y13832D01*
X34647Y14771D01*
X34928Y15730D01*
X35149Y16705D01*
X35306Y17691D01*
X35401Y18686D01*
X35433Y19685D01*
X101000Y521801D02*
X101551Y520965D01*
X102172Y520180D01*
X102858Y519451D01*
X103604Y518784D01*
X104405Y518183D01*
X105254Y517652D01*
X106146Y517197D01*
X107073Y516820D01*
X108029Y516524D01*
X109007Y516310D01*
X110000Y516182D01*
X111000Y516139D01*
X112000Y516182D01*
X112993Y516310D01*
X113971Y516524D01*
X114927Y516820D01*
X115854Y517197D01*
X116746Y517652D01*
X117595Y518183D01*
X118395Y518784D01*
X119141Y519451D01*
X119828Y520180D01*
X120449Y520965D01*
X121000Y521801D01*
X96000Y515801D02*
X96147Y514874D01*
X96573Y514037D01*
X97237Y513374D01*
X98073Y512947D01*
X99000Y512801D01*
X123000D02*
X123927Y512947D01*
X124763Y513374D01*
X125427Y514037D01*
X125853Y514874D01*
X126000Y515801D01*
X99000Y542801D02*
X98073Y542654D01*
X97237Y542228D01*
X96573Y541564D01*
X96147Y540728D01*
X96000Y539801D01*
X126000D02*
X125853Y540728D01*
X125427Y541564D01*
X124763Y542228D01*
X123927Y542654D01*
X123000Y542801D01*
X121000Y533801D02*
X120449Y534636D01*
X119828Y535421D01*
X119141Y536150D01*
X118395Y536818D01*
X117595Y537419D01*
X116746Y537949D01*
X115854Y538404D01*
X114927Y538781D01*
X113971Y539078D01*
X112993Y539291D01*
X112000Y539420D01*
X111000Y539463D01*
X110000Y539420D01*
X109007Y539291D01*
X108029Y539078D01*
X107073Y538781D01*
X106146Y538404D01*
X105254Y537949D01*
X104405Y537419D01*
X103604Y536818D01*
X102858Y536150D01*
X102172Y535421D01*
X101551Y534636D01*
X101000Y533801D01*
X113000Y527801D02*
X112732Y528801D01*
X112000Y529533D01*
X111000Y529801D01*
X110000Y529533D01*
X109268Y528801D01*
X109000Y527801D01*
X117000D02*
X116732Y528801D01*
X116000Y529533D01*
X115000Y529801D01*
X114000Y529533D01*
X113268Y528801D01*
X113000Y527801D01*
X109000D02*
X108732Y528801D01*
X108000Y529533D01*
X107000Y529801D01*
X106000Y529533D01*
X105268Y528801D01*
X105000Y527801D01*
X8100Y279250D02*
X16500D01*
Y271750D02*
Y279250D01*
X8100Y271750D02*
X16500D01*
X8100Y309250D02*
X16500D01*
Y301750D02*
Y309250D01*
X8100Y301750D02*
X16500D01*
X8100Y346750D02*
X16500D01*
Y354250D01*
X8100D02*
X16500D01*
X8100Y376750D02*
X16500D01*
Y384250D01*
X8100D02*
X16500D01*
X38300Y268000D02*
Y420000D01*
X8100Y268000D02*
X38300D01*
X8100D02*
Y420000D01*
X38300D01*
X32000Y268000D02*
Y420000D01*
X8100Y414250D02*
X16500D01*
Y406750D02*
Y414250D01*
X8100Y406750D02*
X16500D01*
X8100Y399250D02*
X16500D01*
Y391750D02*
Y399250D01*
X8100Y391750D02*
X16500D01*
X8100Y369250D02*
X16500D01*
Y361750D02*
Y369250D01*
X8100Y361750D02*
X16500D01*
X8100Y339250D02*
X16500D01*
Y331750D02*
Y339250D01*
X8100Y331750D02*
X16500D01*
X8100Y316750D02*
X16500D01*
Y324250D01*
X8100D02*
X16500D01*
X8100Y286750D02*
X16500D01*
Y294250D01*
X8100D02*
X16500D01*
X32000Y534411D02*
Y543269D01*
Y534411D02*
X75000D01*
Y543269D01*
X556700Y43500D02*
Y75500D01*
X586900D01*
Y43500D02*
Y75500D01*
X556700Y43500D02*
X586900D01*
X563000D02*
Y75500D01*
X578500Y49250D02*
X586900D01*
X578500D02*
Y56750D01*
X586900D01*
X578500Y64250D02*
X586900D01*
X578500D02*
Y71750D01*
X586900D01*
X578500Y356750D02*
X586900D01*
X578500D02*
Y364250D01*
X586900D01*
X578500Y326750D02*
X586900D01*
X578500D02*
Y334250D01*
X586900D01*
X578500Y319250D02*
X586900D01*
X578500Y311750D02*
Y319250D01*
Y311750D02*
X586900D01*
X578500Y289250D02*
X586900D01*
X578500Y281750D02*
Y289250D01*
Y281750D02*
X586900D01*
X578500Y259250D02*
X586900D01*
X578500Y251750D02*
Y259250D01*
Y251750D02*
X586900D01*
X578500Y244250D02*
X586900D01*
X578500Y236750D02*
Y244250D01*
Y236750D02*
X586900D01*
X563000Y231000D02*
Y383000D01*
X556700Y231000D02*
X586900D01*
Y383000D01*
X556700D02*
X586900D01*
X556700Y231000D02*
Y383000D01*
X578500Y266750D02*
X586900D01*
X578500D02*
Y274250D01*
X586900D01*
X578500Y296750D02*
X586900D01*
X578500D02*
Y304250D01*
X586900D01*
X578500Y349250D02*
X586900D01*
X578500Y341750D02*
Y349250D01*
Y341750D02*
X586900D01*
X578500Y379250D02*
X586900D01*
X578500Y371750D02*
Y379250D01*
Y371750D02*
X586900D01*
X126000Y515801D02*
Y522801D01*
X99000Y512801D02*
X123000D01*
X96000Y515801D02*
Y522801D01*
X126000Y532801D02*
Y539801D01*
X99000Y542801D02*
X123000D01*
X96000Y532801D02*
Y539801D01*
X117000Y527801D02*
X121000D01*
X101000D02*
X105000D01*
X293250Y575000D02*
Y583400D01*
X285750Y575000D02*
X293250D01*
X285750D02*
Y583400D01*
X323250Y575000D02*
Y583400D01*
X315750Y575000D02*
X323250D01*
X315750D02*
Y583400D01*
X353250Y575000D02*
Y583400D01*
X345750Y575000D02*
X353250D01*
X345750D02*
Y583400D01*
X390750Y575000D02*
Y583400D01*
Y575000D02*
X398250D01*
Y583400D01*
X420750Y575000D02*
Y583400D01*
Y575000D02*
X428250D01*
Y583400D01*
X282000Y553200D02*
X464000D01*
X282000D02*
Y583400D01*
X464000D01*
Y553200D02*
Y583400D01*
X282000Y559500D02*
X464000D01*
X458250Y575000D02*
Y583400D01*
X450750Y575000D02*
X458250D01*
X450750D02*
Y583400D01*
X443250Y575000D02*
Y583400D01*
X435750Y575000D02*
X443250D01*
X435750D02*
Y583400D01*
X413250Y575000D02*
Y583400D01*
X405750Y575000D02*
X413250D01*
X405750D02*
Y583400D01*
X383250Y575000D02*
Y583400D01*
X375750Y575000D02*
X383250D01*
X375750D02*
Y583400D01*
X360750Y575000D02*
Y583400D01*
Y575000D02*
X368250D01*
Y583400D01*
X330750Y575000D02*
Y583400D01*
Y575000D02*
X338250D01*
Y583400D01*
X300750Y575000D02*
Y583400D01*
Y575000D02*
X308250D01*
Y583400D01*
X471500Y530000D02*
X495500D01*
Y518000D02*
Y530000D01*
X471500Y518000D02*
X495500D01*
X471500D02*
Y530000D01*
X495500Y524000D02*
X498500D01*
X468500D02*
X471500D01*
X490500Y518000D02*
Y530000D01*
X491500Y518000D02*
Y530000D01*
X492500Y518000D02*
Y530000D01*
X473000Y450500D02*
X497000D01*
Y438500D02*
Y450500D01*
X473000Y438500D02*
X497000D01*
X473000D02*
Y450500D01*
X497000Y444500D02*
X500000D01*
X470000D02*
X473000D01*
X492000Y438500D02*
Y450500D01*
X493000Y438500D02*
Y450500D01*
X494000Y438500D02*
Y450500D01*
X475500Y365000D02*
X499500D01*
Y353000D02*
Y365000D01*
X475500Y353000D02*
X499500D01*
X475500D02*
Y365000D01*
X499500Y359000D02*
X502500D01*
X472500D02*
X475500D01*
X494500Y353000D02*
Y365000D01*
X495500Y353000D02*
Y365000D01*
X496500Y353000D02*
Y365000D01*
X475000Y274000D02*
X499000D01*
Y262000D02*
Y274000D01*
X475000Y262000D02*
X499000D01*
X475000D02*
Y274000D01*
X499000Y268000D02*
X502000D01*
X472000D02*
X475000D01*
X494000Y262000D02*
Y274000D01*
X495000Y262000D02*
Y274000D01*
X496000Y262000D02*
Y274000D01*
X473500Y181500D02*
X497500D01*
Y169500D02*
Y181500D01*
X473500Y169500D02*
X497500D01*
X473500D02*
Y181500D01*
X497500Y175500D02*
X500500D01*
X470500D02*
X473500D01*
X492500Y169500D02*
Y181500D01*
X493500Y169500D02*
Y181500D01*
X494500Y169500D02*
Y181500D01*
X502300Y23700D02*
Y27300D01*
Y23700D02*
X504000Y22000D01*
X509250D01*
X504000Y29000D02*
X509250D01*
X502300Y27300D02*
X504000Y29000D01*
X511940Y22330D02*
Y28810D01*
X524250Y22000D02*
Y29000D01*
X517750D02*
X524250D01*
X517750Y22000D02*
X524250D01*
X511940Y25650D02*
X515140Y22450D01*
Y28620D01*
X512100Y25580D02*
X515140Y28620D01*
X424473Y548993D02*
X422500D01*
X424473Y550966D01*
Y551460D01*
X423980Y551953D01*
X422993D01*
X422500Y551460D01*
X426939Y548993D02*
Y551953D01*
X425460Y550473D01*
X427433D01*
X428419Y548500D02*
X430393D01*
X431379Y548993D02*
X432366D01*
X431872D01*
Y550966D01*
X431379D01*
X433845Y548993D02*
Y550966D01*
X435325D01*
X435818Y550473D01*
Y548993D01*
X436805Y551460D02*
X437298Y551953D01*
X438285D01*
X438778Y551460D01*
Y550966D01*
X438285Y550473D01*
X437792D01*
X438285D01*
X438778Y549980D01*
Y549487D01*
X438285Y548993D01*
X437298D01*
X436805Y549487D01*
X442724Y548993D02*
X443711D01*
X443218D01*
Y550966D01*
X442724D01*
X445191Y548993D02*
Y550966D01*
X446671D01*
X447164Y550473D01*
Y548993D01*
X450124D02*
X448150D01*
X450124Y550966D01*
Y551460D01*
X449630Y551953D01*
X448644D01*
X448150Y551460D01*
X454070Y548993D02*
X455056D01*
X454563D01*
Y550966D01*
X454070D01*
X456536Y548993D02*
Y550966D01*
X458016D01*
X458509Y550473D01*
Y548993D01*
X459496D02*
X460482D01*
X459989D01*
Y551953D01*
X459496Y551460D01*
X361473Y551953D02*
X360980Y552446D01*
X359993D01*
X359500Y551953D01*
Y549980D01*
X359993Y549487D01*
X360980D01*
X361473Y549980D01*
Y550966D01*
X360487D01*
X362460Y549487D02*
Y551460D01*
X363939D01*
X364433Y550966D01*
Y549487D01*
X367392Y552446D02*
Y549487D01*
X365913D01*
X365419Y549980D01*
Y550966D01*
X365913Y551460D01*
X367392D01*
X371339Y548500D02*
Y551460D01*
X372818D01*
X373312Y550966D01*
Y549980D01*
X372818Y549487D01*
X371339D01*
X374298Y551460D02*
Y549980D01*
X374792Y549487D01*
X375285Y549980D01*
X375778Y549487D01*
X376272Y549980D01*
Y551460D01*
X377258Y549487D02*
Y551460D01*
X377751D01*
X378245Y550966D01*
Y549487D01*
Y550966D01*
X378738Y551460D01*
X379231Y550966D01*
Y549487D01*
X380218Y551953D02*
X380711Y552446D01*
X381698D01*
X382191Y551953D01*
Y551460D01*
X381698Y550966D01*
X381204D01*
X381698D01*
X382191Y550473D01*
Y549980D01*
X381698Y549487D01*
X380711D01*
X380218Y549980D01*
X383177Y549487D02*
Y549980D01*
X383671D01*
Y549487D01*
X383177D01*
X385644Y551953D02*
X386137Y552446D01*
X387124D01*
X387617Y551953D01*
Y551460D01*
X387124Y550966D01*
X386630D01*
X387124D01*
X387617Y550473D01*
Y549980D01*
X387124Y549487D01*
X386137D01*
X385644Y549980D01*
X391563Y548500D02*
Y551460D01*
X393043D01*
X393536Y550966D01*
Y549980D01*
X393043Y549487D01*
X391563D01*
X394523Y551460D02*
Y549980D01*
X395016Y549487D01*
X395509Y549980D01*
X396003Y549487D01*
X396496Y549980D01*
Y551460D01*
X397482Y549487D02*
Y551460D01*
X397976D01*
X398469Y550966D01*
Y549487D01*
Y550966D01*
X398962Y551460D01*
X399455Y550966D01*
Y549487D01*
X402415Y552446D02*
X400442D01*
Y550966D01*
X401429Y551460D01*
X401922D01*
X402415Y550966D01*
Y549980D01*
X401922Y549487D01*
X400935D01*
X400442Y549980D01*
X406361Y551953D02*
X406855Y552446D01*
X407841D01*
X408335Y551953D01*
Y551460D01*
X407841Y550966D01*
X407348D01*
X407841D01*
X408335Y550473D01*
Y549980D01*
X407841Y549487D01*
X406855D01*
X406361Y549980D01*
X409321Y549487D02*
Y549980D01*
X409814D01*
Y549487D01*
X409321D01*
X411788Y551953D02*
X412281Y552446D01*
X413267D01*
X413761Y551953D01*
Y551460D01*
X413267Y550966D01*
X412774D01*
X413267D01*
X413761Y550473D01*
Y549980D01*
X413267Y549487D01*
X412281D01*
X411788Y549980D01*
X414747Y551460D02*
X415734Y549487D01*
X416720Y551460D01*
X320473Y551460D02*
X318500D01*
Y549980D01*
X319487Y550473D01*
X319980D01*
X320473Y549980D01*
Y548993D01*
X319980Y548500D01*
X318993D01*
X318500Y548993D01*
X321460Y550473D02*
X322446Y548500D01*
X323433Y550473D01*
X329352Y550966D02*
X328859Y551460D01*
X327872D01*
X327379Y550966D01*
Y548993D01*
X327872Y548500D01*
X328859D01*
X329352Y548993D01*
Y549980D01*
X328366D01*
X330339Y548500D02*
Y550473D01*
X331819D01*
X332312Y549980D01*
Y548500D01*
X335272Y551460D02*
Y548500D01*
X333792D01*
X333298Y548993D01*
Y549980D01*
X333792Y550473D01*
X335272D01*
X288473Y548500D02*
X286500D01*
X288473Y550473D01*
Y550966D01*
X287980Y551460D01*
X286993D01*
X286500Y550966D01*
X290939Y548500D02*
Y551460D01*
X289460Y549980D01*
X291433D01*
X292419Y550473D02*
X293406Y548500D01*
X294392Y550473D01*
X300312Y550966D02*
X299818Y551460D01*
X298832D01*
X298339Y550966D01*
Y548993D01*
X298832Y548500D01*
X299818D01*
X300312Y548993D01*
Y549980D01*
X299325D01*
X301298Y548500D02*
Y550473D01*
X302778D01*
X303272Y549980D01*
Y548500D01*
X306231Y551460D02*
Y548500D01*
X304751D01*
X304258Y548993D01*
Y549980D01*
X304751Y550473D01*
X306231D01*
X39500Y271000D02*
Y276998D01*
X42499D01*
X43499Y275998D01*
Y273999D01*
X42499Y272999D01*
X39500D01*
X45498Y276998D02*
Y273999D01*
X46498Y272999D01*
X47497Y273999D01*
X48497Y272999D01*
X49497Y273999D01*
Y276998D01*
X51496Y272999D02*
Y276998D01*
X52496D01*
X53496Y275998D01*
Y272999D01*
Y275998D01*
X54495Y276998D01*
X55495Y275998D01*
Y272999D01*
X40500Y289499D02*
X42499D01*
X43499Y288499D01*
Y285500D01*
X40500D01*
X39500Y286500D01*
X40500Y287499D01*
X43499D01*
X49497Y291498D02*
Y285500D01*
X46498D01*
X45498Y286500D01*
Y288499D01*
X46498Y289499D01*
X49497D01*
X55495D02*
X52496D01*
X51496Y288499D01*
Y286500D01*
X52496Y285500D01*
X55495D01*
X40500Y362500D02*
X42499D01*
X43499Y363500D01*
Y365499D01*
X42499Y366499D01*
X40500D01*
X39500Y365499D01*
Y363500D01*
X40500Y362500D01*
X46498Y367498D02*
Y366499D01*
X45498D01*
X47497D01*
X46498D01*
Y363500D01*
X47497Y362500D01*
X53496D02*
Y368498D01*
X50496Y365499D01*
X54495D01*
X40500Y407000D02*
X42499D01*
X41500D01*
Y410999D01*
X40500D01*
X45498Y407000D02*
Y410999D01*
X48497D01*
X49497Y409999D01*
Y407000D01*
X51496D02*
X53496D01*
X52496D01*
Y412998D01*
X51496Y411998D01*
X177999Y371999D02*
Y373998D01*
Y372999D01*
X173001D01*
X172001Y373998D01*
Y374998D01*
X173001Y375998D01*
X172001Y370000D02*
X177999D01*
Y367001D01*
X176999Y366001D01*
X175000D01*
X174000Y367001D01*
Y370000D01*
X172001Y364002D02*
Y362002D01*
Y363002D01*
X177999D01*
X176999Y364002D01*
X23499Y434999D02*
Y436998D01*
Y435998D01*
X18501D01*
X17501Y436998D01*
Y437998D01*
X18501Y438997D01*
X17501Y432999D02*
X23499D01*
Y430000D01*
X22499Y429001D01*
X20500D01*
X19500Y430000D01*
Y432999D01*
X17501Y423003D02*
Y427001D01*
X21500Y423003D01*
X22499D01*
X23499Y424002D01*
Y426002D01*
X22499Y427001D01*
X38001Y587499D02*
Y582501D01*
X39001Y581501D01*
X41000D01*
X42000Y582501D01*
Y587499D01*
X43999Y581501D02*
X45999D01*
X44999D01*
Y587499D01*
X43999Y586499D01*
X510800Y91198D02*
X512799D01*
X511799D01*
Y85200D01*
X510800D01*
X512799D01*
X519797Y90199D02*
X518797Y91198D01*
X516798D01*
X515798Y90199D01*
Y86200D01*
X516798Y85200D01*
X518797D01*
X519797Y86200D01*
X521796Y85200D02*
X523796D01*
X522796D01*
Y91198D01*
X521796Y90199D01*
X465000Y76500D02*
Y82498D01*
X467999D01*
X468998Y81499D01*
Y79499D01*
X467999Y78500D01*
X465000D01*
X466999D02*
X468998Y76500D01*
X473997D02*
Y82498D01*
X470998Y79499D01*
X474997D01*
X483500Y77000D02*
Y82998D01*
X486499D01*
X487499Y81999D01*
Y79999D01*
X486499Y79000D01*
X483500D01*
X485499D02*
X487499Y77000D01*
X489498Y81999D02*
X490497Y82998D01*
X492497D01*
X493497Y81999D01*
Y80999D01*
X492497Y79999D01*
X491497D01*
X492497D01*
X493497Y79000D01*
Y78000D01*
X492497Y77000D01*
X490497D01*
X489498Y78000D01*
X191600Y557698D02*
Y553700D01*
X193599Y551700D01*
X195598Y553700D01*
Y557698D01*
X197598Y551700D02*
X199597D01*
X198598D01*
Y557698D01*
X197598Y556699D01*
X258000Y538500D02*
Y544498D01*
X260999D01*
X261999Y543499D01*
Y541499D01*
X260999Y540500D01*
X258000D01*
X259999D02*
X261999Y538500D01*
X267997D02*
X263998D01*
X267997Y542499D01*
Y543499D01*
X266997Y544498D01*
X264998D01*
X263998Y543499D01*
X310500Y537000D02*
Y542998D01*
X313499D01*
X314498Y541999D01*
Y539999D01*
X313499Y539000D01*
X310500D01*
X312499D02*
X314498Y537000D01*
X316498D02*
X318497D01*
X317497D01*
Y542998D01*
X316498Y541999D01*
X285799Y537200D02*
Y541199D01*
X284799Y542198D01*
X282800D01*
X281800Y541199D01*
Y537200D01*
X282800Y536200D01*
X284799D01*
X283799Y538200D02*
X285799Y536200D01*
X284799D02*
X285799Y537200D01*
X287798D02*
X288797Y536200D01*
X290797D01*
X291797Y537200D01*
Y541199D01*
X290797Y542198D01*
X288797D01*
X287798Y541199D01*
Y540199D01*
X288797Y539199D01*
X291797D01*
X342998Y503200D02*
Y507199D01*
X341998Y508198D01*
X339999D01*
X338999Y507199D01*
Y503200D01*
X339999Y502200D01*
X341998D01*
X340999Y504200D02*
X342998Y502200D01*
X341998D02*
X342998Y503200D01*
X344997Y507199D02*
X345997Y508198D01*
X347996D01*
X348996Y507199D01*
Y506199D01*
X347996Y505199D01*
X348996Y504200D01*
Y503200D01*
X347996Y502200D01*
X345997D01*
X344997Y503200D01*
Y504200D01*
X345997Y505199D01*
X344997Y506199D01*
Y507199D01*
X345997Y505199D02*
X347996D01*
X342998Y417450D02*
Y421449D01*
X341998Y422448D01*
X339999D01*
X338999Y421449D01*
Y417450D01*
X339999Y416450D01*
X341998D01*
X340999Y418450D02*
X342998Y416450D01*
X341998D02*
X342998Y417450D01*
X344997Y422448D02*
X348996D01*
Y421449D01*
X344997Y417450D01*
Y416450D01*
X343038Y331700D02*
Y335699D01*
X342038Y336698D01*
X340039D01*
X339039Y335699D01*
Y331700D01*
X340039Y330700D01*
X342038D01*
X341039Y332700D02*
X343038Y330700D01*
X342038D02*
X343038Y331700D01*
X349036Y336698D02*
X347037Y335699D01*
X345038Y333699D01*
Y331700D01*
X346037Y330700D01*
X348037D01*
X349036Y331700D01*
Y332700D01*
X348037Y333699D01*
X345038D01*
X342999Y245947D02*
Y249946D01*
X341999Y250946D01*
X340000D01*
X339000Y249946D01*
Y245947D01*
X340000Y244948D01*
X341999D01*
X340999Y246947D02*
X342999Y244948D01*
X341999D02*
X342999Y245947D01*
X348997Y250946D02*
X344998D01*
Y247947D01*
X346997Y248946D01*
X347997D01*
X348997Y247947D01*
Y245947D01*
X347997Y244948D01*
X345998D01*
X344998Y245947D01*
X342998Y160200D02*
Y164199D01*
X341998Y165198D01*
X339999D01*
X338999Y164199D01*
Y160200D01*
X339999Y159200D01*
X341998D01*
X340999Y161200D02*
X342998Y159200D01*
X341998D02*
X342998Y160200D01*
X347996Y159200D02*
Y165198D01*
X344997Y162199D01*
X348996D01*
X208298Y248800D02*
Y252799D01*
X207299Y253798D01*
X205299D01*
X204300Y252799D01*
Y248800D01*
X205299Y247800D01*
X207299D01*
X206299Y249799D02*
X208298Y247800D01*
X207299D02*
X208298Y248800D01*
X210298Y252799D02*
X211297Y253798D01*
X213297D01*
X214297Y252799D01*
Y251799D01*
X213297Y250799D01*
X212297D01*
X213297D01*
X214297Y249799D01*
Y248800D01*
X213297Y247800D01*
X211297D01*
X210298Y248800D01*
X136299Y248800D02*
Y252799D01*
X135299Y253798D01*
X133300D01*
X132300Y252799D01*
Y248800D01*
X133300Y247800D01*
X135299D01*
X134299Y249800D02*
X136299Y247800D01*
X135299D02*
X136299Y248800D01*
X142297Y247800D02*
X138298D01*
X142297Y251799D01*
Y252799D01*
X141297Y253798D01*
X139297D01*
X138298Y252799D01*
X64298Y248800D02*
Y252799D01*
X63299Y253798D01*
X61300D01*
X60300Y252799D01*
Y248800D01*
X61300Y247800D01*
X63299D01*
X62299Y249799D02*
X64298Y247800D01*
X63299D02*
X64298Y248800D01*
X66298Y247800D02*
X68297D01*
X67298D01*
Y253798D01*
X66298Y252799D01*
X92700Y552298D02*
Y546300D01*
X96698D01*
X98698D02*
X100697D01*
X99698D01*
Y552298D01*
X98698Y551299D01*
X552504Y91499D02*
X550505D01*
X551505D01*
Y86501D01*
X550505Y85501D01*
X549505D01*
X548505Y86501D01*
X554504Y85501D02*
Y91499D01*
X557503D01*
X558502Y90499D01*
Y88500D01*
X557503Y87500D01*
X554504D01*
X560502Y84501D02*
X564500D01*
X566500Y85501D02*
Y89499D01*
X568499Y91499D01*
X570498Y89499D01*
Y85501D01*
Y88500D01*
X566500D01*
X572498Y91499D02*
Y85501D01*
X575497D01*
X576497Y86501D01*
Y90499D01*
X575497Y91499D01*
X572498D01*
X582494Y90499D02*
X581495Y91499D01*
X579495D01*
X578496Y90499D01*
Y86501D01*
X579495Y85501D01*
X581495D01*
X582494Y86501D01*
X565001Y177007D02*
Y175007D01*
Y176007D01*
X570000D01*
X570999Y175007D01*
Y174008D01*
X570000Y173008D01*
X570999Y179006D02*
X565001D01*
Y182005D01*
X566001Y183005D01*
X568000D01*
X569000Y182005D01*
Y179006D01*
X570999Y188003D02*
X565001D01*
X568000Y185004D01*
Y189003D01*
X571999Y191002D02*
Y195001D01*
X570999Y197000D02*
X567000D01*
X565001Y199000D01*
X567000Y200999D01*
X570999D01*
X568000D01*
Y197000D01*
X566001Y206997D02*
X565001Y205997D01*
Y203998D01*
X566001Y202998D01*
X570000D01*
X570999Y203998D01*
Y205997D01*
X570000Y206997D01*
X570999Y209996D02*
Y211996D01*
X570000Y212995D01*
X568000D01*
X567000Y211996D01*
Y209996D01*
X568000Y208997D01*
X570000D01*
X570999Y209996D01*
X567000Y214995D02*
X570000D01*
X570999Y215994D01*
Y218993D01*
X567000D01*
X566001Y221992D02*
X567000D01*
Y220993D01*
Y222992D01*
Y221992D01*
X570000D01*
X570999Y222992D01*
X271995Y560001D02*
X273994D01*
X272994D01*
Y564999D01*
X273994Y565999D01*
X274994D01*
X275993Y564999D01*
X269995Y565999D02*
Y560001D01*
X266996D01*
X265997Y561001D01*
Y563000D01*
X266996Y564000D01*
X269995D01*
X263997Y561001D02*
X262998Y560001D01*
X260998D01*
X259999Y561001D01*
Y562001D01*
X260998Y563000D01*
X261998D01*
X260998D01*
X259999Y564000D01*
Y564999D01*
X260998Y565999D01*
X262998D01*
X263997Y564999D01*
X257999Y566999D02*
X254001D01*
X252001Y565999D02*
Y560001D01*
X249002D01*
X248003Y561001D01*
Y563000D01*
X249002Y564000D01*
X252001D01*
X246003Y560001D02*
Y565999D01*
X244004Y564000D01*
X242004Y565999D01*
Y560001D01*
X240005Y565999D02*
Y560001D01*
X237006D01*
X236006Y561001D01*
Y563000D01*
X237006Y564000D01*
X240005D01*
X238006D02*
X236006Y565999D01*
X363398Y524398D02*
X361399D01*
X362398D01*
Y519400D01*
X361399Y518400D01*
X360399D01*
X359399Y519400D01*
X365397Y523399D02*
X366397Y524398D01*
X368396D01*
X369396Y523399D01*
Y522399D01*
X368396Y521399D01*
X369396Y520400D01*
Y519400D01*
X368396Y518400D01*
X366397D01*
X365397Y519400D01*
Y520400D01*
X366397Y521399D01*
X365397Y522399D01*
Y523399D01*
X366397Y521399D02*
X368396D01*
X363398Y437273D02*
X361399D01*
X362398D01*
Y432275D01*
X361399Y431275D01*
X360399D01*
X359399Y432275D01*
X365397Y437273D02*
X369396D01*
Y436274D01*
X365397Y432275D01*
Y431275D01*
X363398Y350148D02*
X361399D01*
X362398D01*
Y345150D01*
X361399Y344150D01*
X360399D01*
X359399Y345150D01*
X369396Y350148D02*
X367397Y349149D01*
X365397Y347149D01*
Y345150D01*
X366397Y344150D01*
X368396D01*
X369396Y345150D01*
Y346150D01*
X368396Y347149D01*
X365397D01*
X363398Y263023D02*
X361399D01*
X362398D01*
Y258025D01*
X361399Y257025D01*
X360399D01*
X359399Y258025D01*
X369396Y263023D02*
X365397D01*
Y260024D01*
X367397Y261024D01*
X368396D01*
X369396Y260024D01*
Y258025D01*
X368396Y257025D01*
X366397D01*
X365397Y258025D01*
X363399Y175898D02*
X361399D01*
X362399D01*
Y170900D01*
X361399Y169900D01*
X360400D01*
X359400Y170900D01*
X368397Y169900D02*
Y175898D01*
X365398Y172899D01*
X369397D01*
X179798Y231598D02*
X177799D01*
X178799D01*
Y226600D01*
X177799Y225600D01*
X176799D01*
X175800Y226600D01*
X181798Y230599D02*
X182798Y231598D01*
X184797D01*
X185797Y230599D01*
Y229599D01*
X184797Y228599D01*
X183797D01*
X184797D01*
X185797Y227600D01*
Y226600D01*
X184797Y225600D01*
X182798D01*
X181798Y226600D01*
X104298Y231098D02*
X102299D01*
X103299D01*
Y226100D01*
X102299Y225100D01*
X101300D01*
X100300Y226100D01*
X110297Y225100D02*
X106298D01*
X110297Y229099D01*
Y230099D01*
X109297Y231098D01*
X107298D01*
X106298Y230099D01*
X33799Y233098D02*
X31799D01*
X32799D01*
Y228100D01*
X31799Y227100D01*
X30799D01*
X29800Y228100D01*
X35798Y227100D02*
X37797D01*
X36797D01*
Y233098D01*
X35798Y232099D01*
X459900Y539498D02*
Y533500D01*
X462899D01*
X463899Y534500D01*
Y538499D01*
X462899Y539498D01*
X459900D01*
X465898Y533500D02*
Y539498D01*
X468897D01*
X469897Y538499D01*
Y536499D01*
X468897Y535500D01*
X465898D01*
X467897D02*
X469897Y533500D01*
X471896Y538499D02*
X472896Y539498D01*
X474895D01*
X475895Y538499D01*
Y537499D01*
X474895Y536499D01*
X475895Y535500D01*
Y534500D01*
X474895Y533500D01*
X472896D01*
X471896Y534500D01*
Y535500D01*
X472896Y536499D01*
X471896Y537499D01*
Y538499D01*
X472896Y536499D02*
X474895D01*
X461400Y459998D02*
Y454000D01*
X464399D01*
X465399Y455000D01*
Y458999D01*
X464399Y459998D01*
X461400D01*
X467398Y454000D02*
Y459998D01*
X470397D01*
X471397Y458999D01*
Y456999D01*
X470397Y456000D01*
X467398D01*
X469397D02*
X471397Y454000D01*
X473396Y459998D02*
X477395D01*
Y458999D01*
X473396Y455000D01*
Y454000D01*
X463900Y374498D02*
Y368500D01*
X466899D01*
X467899Y369500D01*
Y373499D01*
X466899Y374498D01*
X463900D01*
X469898Y368500D02*
Y374498D01*
X472897D01*
X473897Y373499D01*
Y371499D01*
X472897Y370500D01*
X469898D01*
X471897D02*
X473897Y368500D01*
X479895Y374498D02*
X477895Y373499D01*
X475896Y371499D01*
Y369500D01*
X476896Y368500D01*
X478895D01*
X479895Y369500D01*
Y370500D01*
X478895Y371499D01*
X475896D01*
X463400Y283498D02*
Y277500D01*
X466399D01*
X467399Y278500D01*
Y282499D01*
X466399Y283498D01*
X463400D01*
X469398Y277500D02*
Y283498D01*
X472397D01*
X473397Y282499D01*
Y280499D01*
X472397Y279500D01*
X469398D01*
X471397D02*
X473397Y277500D01*
X479395Y283498D02*
X475396D01*
Y280499D01*
X477395Y281499D01*
X478395D01*
X479395Y280499D01*
Y278500D01*
X478395Y277500D01*
X476396D01*
X475396Y278500D01*
X461900Y190998D02*
Y185000D01*
X464899D01*
X465899Y186000D01*
Y189999D01*
X464899Y190998D01*
X461900D01*
X467898Y185000D02*
Y190998D01*
X470897D01*
X471897Y189999D01*
Y187999D01*
X470897Y187000D01*
X467898D01*
X469897D02*
X471897Y185000D01*
X476895D02*
Y190998D01*
X473896Y187999D01*
X477895D01*
X502800Y38498D02*
Y32500D01*
X505799D01*
X506799Y33500D01*
Y37499D01*
X505799Y38498D01*
X502800D01*
X512797Y32500D02*
X508798D01*
X512797Y36499D01*
Y37499D01*
X511797Y38498D01*
X509797D01*
X508798Y37499D01*
X116600Y505483D02*
Y499485D01*
X119599D01*
X120598Y500484D01*
Y504483D01*
X119599Y505483D01*
X116600D01*
X122598Y499485D02*
X124597D01*
X123598D01*
Y505483D01*
X122598Y504483D01*
X487499Y41999D02*
X486499Y42998D01*
X484500D01*
X483500Y41999D01*
Y38000D01*
X484500Y37000D01*
X486499D01*
X487499Y38000D01*
X489498Y37000D02*
X491497D01*
X490497D01*
Y42998D01*
X489498Y41999D01*
X494496D02*
X495496Y42998D01*
X497495D01*
X498495Y41999D01*
Y38000D01*
X497495Y37000D01*
X495496D01*
X494496Y38000D01*
Y41999D01*
X537499Y41499D02*
X536499Y42498D01*
X534500D01*
X533500Y41499D01*
Y37500D01*
X534500Y36500D01*
X536499D01*
X537499Y37500D01*
X539498D02*
X540497Y36500D01*
X542497D01*
X543497Y37500D01*
Y41499D01*
X542497Y42498D01*
X540497D01*
X539498Y41499D01*
Y40499D01*
X540497Y39499D01*
X543497D01*
X550498Y41499D02*
X549499Y42498D01*
X547500D01*
X546500Y41499D01*
Y37500D01*
X547500Y36500D01*
X549499D01*
X550498Y37500D01*
X552498Y41499D02*
X553498Y42498D01*
X555497D01*
X556497Y41499D01*
Y40499D01*
X555497Y39499D01*
X556497Y38500D01*
Y37500D01*
X555497Y36500D01*
X553498D01*
X552498Y37500D01*
Y38500D01*
X553498Y39499D01*
X552498Y40499D01*
Y41499D01*
X553498Y39499D02*
X555497D01*
X257998Y504499D02*
X256999Y505499D01*
X254999D01*
X254000Y504499D01*
Y500500D01*
X254999Y499500D01*
X256999D01*
X257998Y500500D01*
X259998Y505499D02*
X263997D01*
Y504499D01*
X259998Y500500D01*
Y499500D01*
X239498Y504499D02*
X238499Y505499D01*
X236500D01*
X235500Y504499D01*
Y500500D01*
X236500Y499500D01*
X238499D01*
X239498Y500500D01*
X245497Y505499D02*
X243497Y504499D01*
X241498Y502499D01*
Y500500D01*
X242497Y499500D01*
X244497D01*
X245497Y500500D01*
Y501500D01*
X244497Y502499D01*
X241498D01*
X201998Y504499D02*
X200999Y505499D01*
X199000D01*
X198000Y504499D01*
Y500500D01*
X199000Y499500D01*
X200999D01*
X201998Y500500D01*
X207997Y505499D02*
X203998D01*
Y502499D01*
X205997Y503499D01*
X206997D01*
X207997Y502499D01*
Y500500D01*
X206997Y499500D01*
X204997D01*
X203998Y500500D01*
X185498Y504499D02*
X184499Y505499D01*
X182500D01*
X181500Y504499D01*
Y500500D01*
X182500Y499500D01*
X184499D01*
X185498Y500500D01*
X190497Y499500D02*
Y505499D01*
X187498Y502499D01*
X191497D01*
X140899Y556799D02*
X139899Y557798D01*
X137899D01*
X136900Y556799D01*
Y552800D01*
X137899Y551800D01*
X139899D01*
X140899Y552800D01*
X142898Y556799D02*
X143897Y557798D01*
X145897D01*
X146897Y556799D01*
Y555799D01*
X145897Y554799D01*
X144897D01*
X145897D01*
X146897Y553800D01*
Y552800D01*
X145897Y551800D01*
X143897D01*
X142898Y552800D01*
X33898Y506299D02*
X32899Y507298D01*
X30900D01*
X29900Y506299D01*
Y502300D01*
X30900Y501300D01*
X32899D01*
X33898Y502300D01*
X39897Y501300D02*
X35898D01*
X39897Y505299D01*
Y506299D01*
X38897Y507298D01*
X36898D01*
X35898Y506299D01*
X96499Y504499D02*
X95499Y505498D01*
X93499D01*
X92500Y504499D01*
Y500500D01*
X93499Y499500D01*
X95499D01*
X96499Y500500D01*
X98498Y499500D02*
X100497D01*
X99497D01*
Y505498D01*
X98498Y504499D01*
D11*
X35287Y519000D02*
X34743Y519749D01*
X33863Y519463D01*
Y518537D01*
X34743Y518251D01*
X35287Y519000D01*
X532919Y76000D02*
X532311Y76608D01*
X531703Y76000D01*
X532311Y75392D01*
X532919Y76000D01*
D12*
X412500Y289033D02*
Y288640D01*
Y289033D01*
Y288640D01*
X283347Y532802D02*
X282774Y531990D01*
X282282Y531126D01*
X281877Y530219D01*
X281561Y529277D01*
X281338Y528308D01*
X281210Y527322D01*
X281179Y526329D01*
X281243Y525337D01*
X281404Y524357D01*
X281659Y523396D01*
X282006Y522465D01*
X282442Y521571D01*
X282962Y520725D01*
X283562Y519932D01*
X284236Y519202D01*
X284978Y518540D01*
X285780Y517953D01*
X286635Y517447D01*
X287536Y517027D01*
X288473Y516695D01*
X289437Y516456D01*
X290421Y516312D01*
X291413Y516264D01*
X292406Y516312D01*
X293389Y516456D01*
X294354Y516695D01*
X295291Y517027D01*
X296192Y517447D01*
X297047Y517953D01*
X297849Y518540D01*
X298591Y519202D01*
X299265Y519932D01*
X299865Y520725D01*
X300385Y521571D01*
X300821Y522465D01*
X301168Y523396D01*
X301423Y524357D01*
X301583Y525337D01*
X301648Y526329D01*
X301617Y527322D01*
X301489Y528308D01*
X301266Y529277D01*
X300950Y530219D01*
X300545Y531126D01*
X300053Y531990D01*
X299480Y532802D01*
X412500Y463283D02*
Y462890D01*
Y463283D01*
Y462890D01*
Y376158D02*
Y375765D01*
Y376158D01*
Y375765D01*
X412500Y201908D02*
Y201515D01*
Y201908D01*
Y201515D01*
Y114783D02*
Y114390D01*
Y114783D01*
Y114390D01*
X179283Y168500D02*
X178890D01*
X179283D01*
X178890D01*
X103783Y168000D02*
X103390D01*
X103783D01*
X103390D01*
X33283Y170000D02*
X32890D01*
X33283D01*
X32890D01*
X510657Y71500D02*
X530343D01*
X510657Y60500D02*
X530343D01*
X510657D02*
Y71500D01*
X219189Y524512D02*
Y534748D01*
X192811Y524512D02*
Y534748D01*
X219189D01*
X192811Y524512D02*
X219189D01*
X283579Y532799D02*
X299248D01*
X339594Y490106D02*
Y493256D01*
X342744D01*
X351405Y490106D02*
Y493256D01*
X348255D02*
X351405D01*
X339594Y404356D02*
Y407506D01*
X342744D01*
X351405Y404356D02*
Y407506D01*
X348255D02*
X351405D01*
X339594Y318606D02*
Y321756D01*
X342744D01*
X351405Y318606D02*
Y321756D01*
X348255D02*
X351405D01*
X339594Y232856D02*
Y236006D01*
X342744D01*
X351405Y232856D02*
Y236006D01*
X348255D02*
X351405D01*
X339594Y147106D02*
Y150256D01*
X342744D01*
X351405Y147106D02*
Y150256D01*
X348256D02*
X351405D01*
X209244Y232354D02*
X212394D01*
X209244D02*
Y235504D01*
Y244165D02*
X212394D01*
X209244Y241016D02*
Y244165D01*
X137244Y232354D02*
X140394D01*
X137244D02*
Y235504D01*
Y244165D02*
X140394D01*
X137244Y241016D02*
Y244165D01*
X65244Y232354D02*
X68394D01*
X65244D02*
Y235504D01*
Y244165D02*
X68394D01*
X65244Y241016D02*
Y244165D01*
X117732Y496055D02*
X127969D01*
X115961Y494283D02*
X117732Y496055D01*
X115961Y481685D02*
X117732Y479894D01*
X146669Y479913D02*
X157299D01*
X146669Y496055D02*
X157299D01*
Y479913D02*
Y496055D01*
X115961Y481685D02*
Y494283D01*
X117732Y479913D02*
X127969D01*
D13*
X528342Y66000D02*
X528611Y65000D01*
X529343Y64268D01*
X530342Y64000D01*
X530342Y68000D02*
X529343Y67732D01*
X528611Y67000D01*
X528342Y66000D01*
X530343Y60500D02*
Y64000D01*
Y68000D02*
Y71500D01*
X464400Y73100D02*
X471600D01*
Y56900D02*
Y73100D01*
X464400Y56900D02*
X471600D01*
X464400D02*
Y73100D01*
X482900Y57400D02*
X490100D01*
X482900D02*
Y73600D01*
X490100D01*
Y57400D02*
Y73600D01*
X264600Y518900D02*
Y535100D01*
X257400D02*
X264600D01*
X257400Y518900D02*
Y535100D01*
Y518900D02*
X264600D01*
X317100Y517400D02*
Y533600D01*
X309900D02*
X317100D01*
X309900Y517400D02*
Y533600D01*
Y517400D02*
X317100D01*
X490100Y27900D02*
Y33600D01*
X482900Y27900D02*
Y33600D01*
X490100Y17400D02*
Y23100D01*
X482900Y17400D02*
Y23100D01*
Y33600D02*
X490100D01*
X482900Y17400D02*
X490100D01*
X540100Y27400D02*
Y33100D01*
X532900Y27400D02*
Y33100D01*
X540100Y16900D02*
Y22600D01*
X532900Y16900D02*
Y22600D01*
Y33100D02*
X540100D01*
X532900Y16900D02*
X540100D01*
X553100Y27400D02*
Y33100D01*
X545900Y27400D02*
Y33100D01*
X553100Y16900D02*
Y22600D01*
X545900Y16900D02*
Y22600D01*
Y33100D02*
X553100D01*
X545900Y16900D02*
X553100D01*
X260600Y490400D02*
Y496100D01*
X253400Y490400D02*
Y496100D01*
X260600Y479900D02*
Y485600D01*
X253400Y479900D02*
Y485600D01*
Y496100D02*
X260600D01*
X253400Y479900D02*
X260600D01*
X242100Y490400D02*
Y496100D01*
X234900Y490400D02*
Y496100D01*
X242100Y479900D02*
Y485600D01*
X234900Y479900D02*
Y485600D01*
Y496100D02*
X242100D01*
X234900Y479900D02*
X242100D01*
X204600Y490400D02*
Y496100D01*
X197400Y490400D02*
Y496100D01*
X204600Y479900D02*
Y485600D01*
X197400Y479900D02*
Y485600D01*
Y496100D02*
X204600D01*
X197400Y479900D02*
X204600D01*
X188100Y490400D02*
Y496100D01*
X180900Y490400D02*
Y496100D01*
X188100Y479900D02*
Y485600D01*
X180900Y479900D02*
Y485600D01*
Y496100D02*
X188100D01*
X180900Y479900D02*
X188100D01*
X99100Y490400D02*
Y496100D01*
X91900Y490400D02*
Y496100D01*
X99100Y479900D02*
Y485600D01*
X91900Y479900D02*
Y485600D01*
Y496100D02*
X99100D01*
X91900Y479900D02*
X99100D01*
X147500Y301000D02*
Y299667D01*
Y300334D01*
X151499D01*
X150832Y301000D01*
Y297668D02*
X151499Y297001D01*
Y295668D01*
X150832Y295002D01*
X148167D01*
X147500Y295668D01*
Y297001D01*
X148167Y297668D01*
X150832D01*
X138166Y301000D02*
X137500Y300334D01*
Y299001D01*
X138166Y298334D01*
X140832D01*
X141499Y299001D01*
Y300334D01*
X140832Y301000D01*
X140166D01*
X139499Y300334D01*
Y298334D01*
X147500Y386334D02*
Y389000D01*
X150166Y386334D01*
X150832D01*
X151499Y387001D01*
Y388334D01*
X150832Y389000D01*
X137500Y388000D02*
Y386667D01*
Y387334D01*
X141499D01*
X140832Y388000D01*
D14*
X193303Y518015D02*
X192565Y518442D01*
Y517589D01*
X193303Y518015D01*
X339492Y483500D02*
X338754Y483926D01*
Y483074D01*
X339492Y483500D01*
Y397750D02*
X338754Y398176D01*
Y397324D01*
X339492Y397750D01*
Y312000D02*
X338754Y312426D01*
Y311574D01*
X339492Y312000D01*
Y226250D02*
X338754Y226676D01*
Y225824D01*
X339492Y226250D01*
Y140500D02*
X338754Y140926D01*
Y140074D01*
X339492Y140500D01*
X219492Y231760D02*
X218754Y232186D01*
Y231333D01*
X219492Y231760D01*
X147492Y231760D02*
X146754Y232186D01*
Y231334D01*
X147492Y231760D01*
X75492Y231760D02*
X74754Y232186D01*
Y231333D01*
X75492Y231760D01*
D15*
X144500Y543662D02*
X143768Y542988D01*
X143068Y542281D01*
X142403Y541541D01*
X141773Y540770D01*
X141181Y539970D01*
X140627Y539144D01*
X140112Y538292D01*
X139639Y537417D01*
X139207Y536520D01*
X138818Y535604D01*
X138473Y534671D01*
X138172Y533723D01*
X137916Y532761D01*
X137706Y531788D01*
X137542Y530807D01*
X137425Y529819D01*
X137355Y528826D01*
X137331Y527831D01*
X137355Y526836D01*
X137425Y525844D01*
X137542Y524856D01*
X137706Y523874D01*
X137916Y522901D01*
X138172Y521940D01*
X138473Y520991D01*
X138818Y520058D01*
X139207Y519142D01*
X139639Y518245D01*
X140112Y517370D01*
X140627Y516518D01*
X141181Y515692D01*
X141773Y514892D01*
X142403Y514122D01*
X143068Y513382D01*
X143768Y512674D01*
X144500Y512000D01*
D16*
X179449Y527550D02*
X179425Y528547D01*
X179352Y529541D01*
X179231Y530531D01*
X179062Y531513D01*
X178845Y532487D01*
X178581Y533448D01*
X178271Y534396D01*
X177915Y535327D01*
X177513Y536240D01*
X177068Y537132D01*
X176580Y538001D01*
X176051Y538846D01*
X175480Y539664D01*
X174871Y540453D01*
X174224Y541212D01*
X173541Y541938D01*
X172823Y542630D01*
X172072Y543286D01*
X171291Y543905D01*
X170480Y544485D01*
X169642Y545025D01*
X168778Y545524D01*
X167891Y545979D01*
X166983Y546392D01*
X166057Y546759D01*
X165113Y547081D01*
X164155Y547357D01*
X163184Y547585D01*
X162204Y547766D01*
X161216Y547900D01*
X160222Y547985D01*
X159226Y548021D01*
X158229Y548009D01*
X157234Y547948D01*
X156243Y547839D01*
X155258Y547682D01*
X154282Y547477D01*
X153318Y547225D01*
X152367Y546926D01*
X151431Y546581D01*
X150513Y546191D01*
X149616Y545757D01*
X148740Y545280D01*
X147889Y544760D01*
X147065Y544200D01*
X146268Y543600D01*
X145502Y542963D01*
X144767Y542288D01*
X144067Y541579D01*
X143401Y540836D01*
X142773Y540062D01*
X142183Y539258D01*
X141633Y538427D01*
X141124Y537570D01*
X140657Y536689D01*
X140234Y535786D01*
X139855Y534863D01*
X139522Y533924D01*
X139234Y532969D01*
X138994Y532001D01*
X138801Y531023D01*
X138656Y530037D01*
X138559Y529044D01*
X138510Y528049D01*
Y527051D01*
X138559Y526056D01*
X138656Y525063D01*
X138801Y524077D01*
X138994Y523099D01*
X139234Y522131D01*
X139522Y521176D01*
X139855Y520237D01*
X140234Y519314D01*
X140657Y518412D01*
X141124Y517530D01*
X141633Y516673D01*
X142183Y515842D01*
X142773Y515038D01*
X143401Y514264D01*
X144067Y513521D01*
X144767Y512812D01*
X145502Y512138D01*
X146268Y511500D01*
X147065Y510900D01*
X147889Y510340D01*
X148740Y509820D01*
X149616Y509343D01*
X150513Y508909D01*
X151431Y508519D01*
X152366Y508174D01*
X153318Y507875D01*
X154282Y507623D01*
X155258Y507418D01*
X156243Y507261D01*
X157234Y507152D01*
X158229Y507091D01*
X159226Y507079D01*
X160222Y507116D01*
X161216Y507200D01*
X162204Y507334D01*
X163184Y507515D01*
X164155Y507743D01*
X165113Y508019D01*
X166057Y508341D01*
X166984Y508708D01*
X167891Y509121D01*
X168778Y509576D01*
X169642Y510075D01*
X170480Y510615D01*
X171291Y511195D01*
X172072Y511814D01*
X172823Y512470D01*
X173541Y513162D01*
X174224Y513888D01*
X174871Y514647D01*
X175480Y515436D01*
X176051Y516254D01*
X176580Y517099D01*
X177068Y517968D01*
X177513Y518860D01*
X177915Y519773D01*
X178271Y520705D01*
X178581Y521652D01*
X178845Y522613D01*
X179062Y523587D01*
X179231Y524569D01*
X179352Y525559D01*
X179425Y526553D01*
X179449Y527550D01*
X83591Y472000D02*
X83571Y472998D01*
X83513Y473995D01*
X83415Y474989D01*
X83279Y475979D01*
X83105Y476962D01*
X82892Y477938D01*
X82642Y478904D01*
X82353Y479860D01*
X82028Y480805D01*
X81666Y481735D01*
X81269Y482651D01*
X80835Y483551D01*
X80367Y484433D01*
X79865Y485296D01*
X79330Y486139D01*
X78762Y486961D01*
X78162Y487759D01*
X77532Y488534D01*
X76872Y489284D01*
X76183Y490007D01*
X75467Y490702D01*
X74724Y491370D01*
X73955Y492007D01*
X73163Y492615D01*
X72347Y493191D01*
X71509Y493734D01*
X70651Y494245D01*
X69773Y494721D01*
X68878Y495163D01*
X67966Y495570D01*
X67039Y495941D01*
X66098Y496276D01*
X65144Y496573D01*
X64180Y496833D01*
X63207Y497055D01*
X62225Y497239D01*
X61237Y497385D01*
X60244Y497492D01*
X59248Y497560D01*
X58250Y497589D01*
X57251Y497579D01*
X56254Y497531D01*
X55259Y497443D01*
X54268Y497317D01*
X53283Y497152D01*
X52306Y496949D01*
X51336Y496708D01*
X50378Y496429D01*
X49430Y496113D01*
X48496Y495760D01*
X47576Y495371D01*
X46672Y494947D01*
X45786Y494487D01*
X44918Y493994D01*
X44069Y493467D01*
X43242Y492907D01*
X42438Y492315D01*
X41657Y491692D01*
X40901Y491040D01*
X40172Y490358D01*
X39469Y489648D01*
X38794Y488912D01*
X38149Y488150D01*
X37534Y487363D01*
X36950Y486553D01*
X36399Y485720D01*
X35880Y484867D01*
X35395Y483994D01*
X34944Y483103D01*
X34528Y482195D01*
X34148Y481272D01*
X33805Y480334D01*
X33498Y479384D01*
X33228Y478422D01*
X32997Y477451D01*
X32803Y476471D01*
X32648Y475485D01*
X32531Y474493D01*
X32453Y473497D01*
X32414Y472499D01*
Y471501D01*
X32453Y470503D01*
X32531Y469507D01*
X32648Y468515D01*
X32803Y467529D01*
X32997Y466549D01*
X33228Y465578D01*
X33498Y464616D01*
X33805Y463666D01*
X34148Y462728D01*
X34528Y461805D01*
X34944Y460897D01*
X35394Y460006D01*
X35880Y459133D01*
X36399Y458280D01*
X36950Y457447D01*
X37534Y456637D01*
X38149Y455850D01*
X38794Y455088D01*
X39469Y454352D01*
X40172Y453642D01*
X40901Y452960D01*
X41657Y452308D01*
X42438Y451685D01*
X43242Y451093D01*
X44069Y450533D01*
X44918Y450006D01*
X45786Y449513D01*
X46672Y449053D01*
X47576Y448629D01*
X48496Y448240D01*
X49430Y447887D01*
X50378Y447571D01*
X51336Y447292D01*
X52306Y447051D01*
X53283Y446848D01*
X54268Y446683D01*
X55259Y446557D01*
X56254Y446469D01*
X57251Y446420D01*
X58250Y446411D01*
X59248Y446440D01*
X60244Y446508D01*
X61237Y446615D01*
X62225Y446761D01*
X63206Y446945D01*
X64180Y447167D01*
X65144Y447427D01*
X66098Y447724D01*
X67039Y448059D01*
X67966Y448430D01*
X68878Y448837D01*
X69773Y449278D01*
X70651Y449755D01*
X71509Y450266D01*
X72347Y450809D01*
X73163Y451385D01*
X73955Y451993D01*
X74724Y452630D01*
X75467Y453298D01*
X76183Y453993D01*
X76872Y454716D01*
X77532Y455466D01*
X78162Y456241D01*
X78762Y457039D01*
X79330Y457861D01*
X79865Y458704D01*
X80367Y459567D01*
X80835Y460449D01*
X81269Y461349D01*
X81666Y462264D01*
X82028Y463195D01*
X82353Y464140D01*
X82642Y465096D01*
X82892Y466062D01*
X83105Y467038D01*
X83279Y468021D01*
X83415Y469011D01*
X83513Y470005D01*
X83571Y471001D01*
X83591Y472000D01*
X150500Y302882D02*
Y305000D01*
X138500D02*
X150500D01*
X138500Y303000D02*
Y305000D01*
Y381000D02*
Y383118D01*
Y381000D02*
X150500D01*
Y383000D01*
X163500Y302900D02*
Y383118D01*
X126784Y332900D02*
X134500D01*
X126767Y302900D02*
X163500D01*
X126784Y302882D02*
Y332900D01*
X134500Y358000D02*
X144500D01*
Y368000D01*
X154500Y318000D02*
Y368000D01*
X134500Y318000D02*
X154500D01*
X134500D02*
Y368000D01*
X154500D01*
X126784Y352900D02*
X134500D01*
X126784Y383118D02*
X163500D01*
X126784Y352900D02*
Y383118D01*
X139000Y523500D02*
X155000Y507500D01*
X139000Y531500D02*
X158977Y511523D01*
X141000Y537500D02*
X158977Y519523D01*
Y519500D02*
Y519523D01*
X155000Y547500D02*
X158977Y543523D01*
X149000Y545500D02*
X158977Y535523D01*
X145000Y541500D02*
X159000Y527500D01*
X141000Y517500D02*
X148500Y510000D01*
X158977Y507078D02*
Y507523D01*
Y511500D02*
Y511523D01*
Y523500D02*
Y523523D01*
Y535500D02*
Y535523D01*
Y539507D02*
Y539523D01*
Y543500D02*
Y543523D01*
Y507530D02*
Y547960D01*
Y547479D02*
Y547507D01*
Y539479D02*
Y539507D01*
X58000Y447000D02*
Y497000D01*
Y456000D02*
Y460000D01*
X51000Y448000D02*
X58000Y455000D01*
Y463000D02*
Y468000D01*
X45000Y450000D02*
X58000Y463000D01*
Y471000D02*
Y472000D01*
X41000Y454000D02*
X58000Y471000D01*
Y479000D02*
Y482000D01*
X37000Y458000D02*
X58000Y479000D01*
Y487000D02*
Y492000D01*
X34000Y463000D02*
X58000Y487000D01*
Y495000D02*
Y497000D01*
X33000Y470000D02*
X58000Y495000D01*
X33000Y478000D02*
X51000Y496000D01*
D17*
X41043Y493667D02*
X40274Y493042D01*
X39527Y492390D01*
X38805Y491712D01*
X38107Y491008D01*
X37436Y490279D01*
X36791Y489526D01*
X36173Y488751D01*
X35584Y487954D01*
X35024Y487136D01*
X34494Y486299D01*
X33994Y485443D01*
X33525Y484570D01*
X33089Y483680D01*
X32684Y482775D01*
X32313Y481857D01*
X31974Y480925D01*
X31670Y479982D01*
X31399Y479028D01*
X31163Y478066D01*
X30962Y477095D01*
X30796Y476118D01*
X30666Y475136D01*
X30570Y474149D01*
X30511Y473160D01*
X30487Y472169D01*
X30499Y471178D01*
X30546Y470188D01*
X30629Y469200D01*
X30748Y468216D01*
X30902Y467237D01*
X31091Y466264D01*
X31315Y465299D01*
X31574Y464342D01*
X31866Y463395D01*
X32193Y462460D01*
X32554Y461536D01*
X32947Y460627D01*
X33373Y459732D01*
X33831Y458853D01*
X34320Y457991D01*
X34840Y457147D01*
X35390Y456322D01*
X35969Y455518D01*
X36577Y454736D01*
X37213Y453975D01*
X37876Y453238D01*
X38564Y452526D01*
X39278Y451838D01*
X40017Y451177D01*
D18*
X362500Y295726D02*
X532578D01*
X362500D02*
Y337065D01*
X532578D01*
Y295726D02*
Y337065D01*
X362500Y469976D02*
X532578D01*
X362500D02*
Y511315D01*
X532578D01*
Y469976D02*
Y511315D01*
X362500Y382851D02*
X532578D01*
X362500D02*
Y424190D01*
X532578D01*
Y382851D02*
Y424190D01*
X362500Y208601D02*
X532578D01*
X362500D02*
Y249940D01*
X532578D01*
Y208601D02*
Y249940D01*
X362500Y121476D02*
X532578D01*
X362500D02*
Y162815D01*
X532578D01*
Y121476D02*
Y162815D01*
X185976Y48421D02*
Y218500D01*
X227315D01*
Y48421D02*
Y218500D01*
X185976Y48421D02*
X227315D01*
X110476Y47922D02*
Y218000D01*
X151815D01*
Y47922D02*
Y218000D01*
X110476Y47922D02*
X151815D01*
X39976Y49921D02*
Y220000D01*
X81315D01*
Y49921D02*
Y220000D01*
X39976Y49921D02*
X81315D01*
D19*
X485000Y25000D02*
X488000D01*
X485000Y26000D02*
X488000D01*
X486500D02*
Y26500D01*
Y24500D02*
Y25000D01*
X535000Y24500D02*
X538000D01*
X535000Y25500D02*
X538000D01*
X536500D02*
Y26000D01*
Y24000D02*
Y24500D01*
X548000Y24500D02*
X551000D01*
X548000Y25500D02*
X551000D01*
X549500D02*
Y26000D01*
Y24000D02*
Y24500D01*
X255500Y487500D02*
X258500D01*
X255500Y488500D02*
X258500D01*
X257000D02*
Y489000D01*
Y487000D02*
Y487500D01*
X237000D02*
X240000D01*
X237000Y488500D02*
X240000D01*
X238500D02*
Y489000D01*
Y487000D02*
Y487500D01*
X199500D02*
X202500D01*
X199500Y488500D02*
X202500D01*
X201000D02*
Y489000D01*
Y487000D02*
Y487500D01*
X183000D02*
X186000D01*
X183000Y488500D02*
X186000D01*
X184500D02*
Y489000D01*
Y487000D02*
Y487500D01*
X94000D02*
X97000D01*
X94000Y488500D02*
X97000D01*
X95500D02*
Y489000D01*
Y487000D02*
Y487500D01*
M02*
