G04*
G04 #@! TF.GenerationSoftware,Altium Limited,Altium Designer,22.3.1 (43)*
G04*
G04 Layer_Color=255*
%FSLAX25Y25*%
%MOIN*%
G70*
G04*
G04 #@! TF.SameCoordinates,EF3FA71F-0FF1-4D3B-8963-7E32679EFE31*
G04*
G04*
G04 #@! TF.FilePolarity,Positive*
G04*
G01*
G75*
%ADD23R,0.07874X0.07874*%
%ADD65C,0.07480*%
%ADD66R,0.07480X0.07480*%
%ADD67C,0.07677*%
%ADD68O,0.08661X0.11811*%
%ADD69R,0.27559X0.27559*%
%ADD70R,0.07874X0.04724*%
%ADD71O,0.07874X0.04724*%
%ADD72C,0.06299*%
%ADD73R,0.06299X0.06299*%
%ADD74C,0.20000*%
%ADD75C,0.07087*%
%ADD76R,0.07087X0.07087*%
%ADD77O,0.11811X0.08661*%
%ADD78O,0.04724X0.07874*%
%ADD79R,0.04724X0.07874*%
%ADD80C,0.07874*%
D23*
X67842Y472000D02*
D03*
D65*
X149000Y527500D02*
D03*
D66*
X169000D02*
D03*
D67*
X204000Y117000D02*
D03*
Y167000D02*
D03*
Y186685D02*
D03*
Y76843D02*
D03*
X181500Y377000D02*
D03*
X122500Y378500D02*
D03*
X147000Y167000D02*
D03*
Y76843D02*
D03*
Y117000D02*
D03*
Y186685D02*
D03*
X181500Y327000D02*
D03*
Y396685D02*
D03*
Y286842D02*
D03*
X90000Y117000D02*
D03*
Y167000D02*
D03*
Y76843D02*
D03*
Y186685D02*
D03*
X33000D02*
D03*
Y117000D02*
D03*
Y76843D02*
D03*
Y167000D02*
D03*
X122500Y328500D02*
D03*
Y398185D02*
D03*
Y288343D02*
D03*
D68*
X167500Y18000D02*
D03*
X137500D02*
D03*
X107500D02*
D03*
X97000Y567500D02*
D03*
X182500Y18000D02*
D03*
X152500D02*
D03*
X77500D02*
D03*
X47500D02*
D03*
X62500D02*
D03*
X92500D02*
D03*
X122500D02*
D03*
X245500Y18500D02*
D03*
X260500D02*
D03*
X127000Y567500D02*
D03*
X157000D02*
D03*
X202000D02*
D03*
X232000D02*
D03*
X262000D02*
D03*
X247000D02*
D03*
X217000D02*
D03*
X187000D02*
D03*
X172000D02*
D03*
X142000D02*
D03*
X112000D02*
D03*
D69*
X327000Y408000D02*
D03*
Y558500D02*
D03*
X476500Y408000D02*
D03*
Y558500D02*
D03*
X327000Y226250D02*
D03*
Y376750D02*
D03*
X476500Y226250D02*
D03*
Y376750D02*
D03*
X327000Y44500D02*
D03*
Y195000D02*
D03*
X476500Y44500D02*
D03*
Y195000D02*
D03*
D70*
X231000Y448500D02*
D03*
X209500D02*
D03*
X252500D02*
D03*
X230000Y360913D02*
D03*
X56500Y416000D02*
D03*
D71*
X231000Y455587D02*
D03*
Y462673D02*
D03*
X209500Y455587D02*
D03*
Y462673D02*
D03*
X252500Y455587D02*
D03*
Y462673D02*
D03*
X230000Y375087D02*
D03*
Y368000D02*
D03*
X56500Y430173D02*
D03*
Y423087D02*
D03*
D72*
X81500Y347500D02*
D03*
X71500D02*
D03*
Y367500D02*
D03*
X81500D02*
D03*
X71500Y357500D02*
D03*
X81500Y337500D02*
D03*
Y377500D02*
D03*
X71500Y337500D02*
D03*
X81500Y357500D02*
D03*
D73*
X71500Y377500D02*
D03*
D74*
X576772Y13779D02*
D03*
Y576772D02*
D03*
X13779D02*
D03*
Y13779D02*
D03*
D75*
X221000Y16000D02*
D03*
X211000D02*
D03*
D76*
X201000D02*
D03*
D77*
X24000Y335500D02*
D03*
Y290500D02*
D03*
Y395500D02*
D03*
Y410500D02*
D03*
Y275500D02*
D03*
Y305500D02*
D03*
Y350500D02*
D03*
Y380500D02*
D03*
Y365500D02*
D03*
Y320500D02*
D03*
D78*
X248913Y531000D02*
D03*
X241827D02*
D03*
D79*
X256000D02*
D03*
D80*
X48157Y472000D02*
D03*
M02*
