G04*
G04 #@! TF.GenerationSoftware,Altium Limited,Altium Designer,22.3.1 (43)*
G04*
G04 Layer_Color=16711935*
%FSLAX25Y25*%
%MOIN*%
G70*
G04*
G04 #@! TF.SameCoordinates,5406EE39-799D-43BB-BE37-E4F8AF43DF71*
G04*
G04*
G04 #@! TF.FilePolarity,Positive*
G04*
G01*
G75*
%ADD12C,0.00787*%
%ADD18C,0.00394*%
D12*
X362500Y337065D02*
X532578D01*
X362500Y295726D02*
Y337065D01*
Y295726D02*
X532578D01*
Y337065D01*
X362500Y511315D02*
X532578D01*
X362500Y469976D02*
Y511315D01*
Y469976D02*
X532578D01*
Y511315D01*
X362500Y424190D02*
X532578D01*
X362500Y382851D02*
Y424190D01*
Y382851D02*
X532578D01*
Y424190D01*
X362500Y249940D02*
X532578D01*
X362500Y208601D02*
Y249940D01*
Y208601D02*
X532578D01*
Y249940D01*
X362500Y162815D02*
X532578D01*
X362500Y121476D02*
Y162815D01*
Y121476D02*
X532578D01*
Y162815D01*
X227315Y48421D02*
Y218500D01*
X185976D02*
X227315D01*
X185976Y48421D02*
Y218500D01*
Y48421D02*
X227315D01*
X151815Y47922D02*
Y218000D01*
X110476D02*
X151815D01*
X110476Y47922D02*
Y218000D01*
Y47922D02*
X151815D01*
X81315Y49921D02*
Y220000D01*
X39976D02*
X81315D01*
X39976Y49921D02*
Y220000D01*
Y49921D02*
X81315D01*
D18*
X529468Y70000D02*
X529205Y70984D01*
X528484Y71705D01*
X527500Y71969D01*
X526516Y71705D01*
X525795Y70984D01*
X525531Y70000D01*
X525795Y69016D01*
X526516Y68295D01*
X527500Y68032D01*
X528484Y68295D01*
X529205Y69016D01*
X529468Y70000D01*
X510657Y73087D02*
X530343D01*
X510657Y58913D02*
X530343D01*
Y73087D01*
X510657Y58913D02*
Y73087D01*
X219189Y522346D02*
Y536913D01*
X192811Y522346D02*
Y536913D01*
X219189D01*
X192811Y522346D02*
X219189D01*
X351405Y487941D02*
Y493059D01*
X339594Y487941D02*
Y493059D01*
X351405D01*
X339594Y487941D02*
X351405D01*
Y402191D02*
Y407309D01*
X339594Y402191D02*
Y407309D01*
X351405D01*
X339594Y402191D02*
X351405D01*
Y316441D02*
Y321559D01*
X339594Y316441D02*
Y321559D01*
X351405D01*
X339594Y316441D02*
X351405D01*
Y230691D02*
Y235809D01*
X339594Y230691D02*
Y235809D01*
X351405D01*
X339594Y230691D02*
X351405D01*
X351405Y144941D02*
Y150059D01*
X339594Y144941D02*
Y150059D01*
X351405D01*
X339594Y144941D02*
X351405D01*
X209441Y244165D02*
X214559D01*
X209441Y232354D02*
X214559D01*
X209441D02*
Y244165D01*
X214559Y232354D02*
Y244165D01*
X137441D02*
X142559D01*
X137441Y232354D02*
X142559D01*
X137441D02*
Y244165D01*
X142559Y232354D02*
Y244165D01*
X65441D02*
X70559D01*
X65441Y232354D02*
X70559D01*
X65441D02*
Y244165D01*
X70559Y232354D02*
Y244165D01*
M02*
