G04*
G04 #@! TF.GenerationSoftware,Altium Limited,Altium Designer,22.3.1 (43)*
G04*
G04 Layer_Color=32896*
%FSLAX25Y25*%
%MOIN*%
G70*
G04*
G04 #@! TF.SameCoordinates,858DE3B6-85AC-4B40-B280-C04C9E7F73BC*
G04*
G04*
G04 #@! TF.FilePolarity,Positive*
G04*
G01*
G75*
%ADD113C,0.02362*%
G36*
X267000Y421605D02*
Y408892D01*
Y408500D01*
X158509D01*
X158516Y408507D01*
X158531Y408522D01*
X158553Y408552D01*
X158583Y408589D01*
X158627Y408633D01*
X158671Y408685D01*
X158731Y408744D01*
X158797Y408811D01*
X158953Y408944D01*
X159130Y409092D01*
X159330Y409233D01*
X159559Y409366D01*
X159552D01*
X159545Y409373D01*
X159500Y409388D01*
X159434Y409425D01*
X159337Y409469D01*
X159219Y409529D01*
X159086Y409603D01*
X158930Y409699D01*
X158753Y409802D01*
X158568Y409921D01*
X158361Y410061D01*
X158146Y410217D01*
X157924Y410394D01*
X157695Y410579D01*
X157458Y410794D01*
X157214Y411023D01*
X156969Y411268D01*
X156718Y411534D01*
X156474Y411823D01*
X156237Y412133D01*
X156000Y412459D01*
X155771Y412814D01*
X155549Y413184D01*
X155334Y413584D01*
X155134Y413998D01*
X154949Y414442D01*
X154779Y414908D01*
X154631Y415397D01*
X154498Y415915D01*
X154387Y416455D01*
X154298Y417017D01*
X154239Y417609D01*
X154202Y418231D01*
X157088Y418150D01*
X157214D01*
X157273Y418142D01*
X157354D01*
X157436Y418135D01*
X157532Y418127D01*
X157635Y418120D01*
X157746Y418113D01*
X157983Y418083D01*
X158235Y418046D01*
X158494Y417994D01*
X158553Y419015D01*
X158538D01*
X158509Y419008D01*
X158449Y418993D01*
X158383Y418986D01*
X158301Y418971D01*
X158213Y418956D01*
X158035Y418949D01*
X157961D01*
X157917Y418941D01*
X157465D01*
X157376Y418949D01*
X157280D01*
X154172Y419015D01*
Y419023D01*
Y419045D01*
Y419089D01*
Y419141D01*
Y419208D01*
Y419289D01*
Y419385D01*
Y419482D01*
X154180Y419593D01*
Y419718D01*
Y419844D01*
Y419985D01*
X154187Y420273D01*
X154194Y420577D01*
X154202Y420895D01*
X154209Y421206D01*
X154217Y421524D01*
X154231Y421820D01*
X154239Y422101D01*
X154246Y422234D01*
X154254Y422353D01*
X154261Y422471D01*
X154268Y422575D01*
X154283Y422671D01*
X154291Y422752D01*
X153062Y422575D01*
X153055D01*
X153025Y422567D01*
X152988Y422560D01*
X152951Y422545D01*
X152907Y422530D01*
X152877Y422508D01*
X152848Y422479D01*
X152840Y422442D01*
Y422427D01*
X152848Y422412D01*
X152855Y422382D01*
X152877Y422345D01*
X152922Y422301D01*
X152973Y422249D01*
X153047Y422183D01*
X153055Y422175D01*
X153070Y422146D01*
X153099Y422094D01*
X153129Y422020D01*
X153144Y421968D01*
X153158Y421909D01*
X153173Y421850D01*
X153188Y421776D01*
X153195Y421694D01*
X153203Y421598D01*
X153210Y421502D01*
X153218Y421391D01*
Y421376D01*
Y421339D01*
Y421280D01*
Y421198D01*
Y421095D01*
Y420976D01*
X153225Y420836D01*
Y420680D01*
Y420510D01*
X153232Y420333D01*
X153240Y420133D01*
Y419933D01*
X153247Y419718D01*
X153255Y419496D01*
X153277Y419030D01*
X149066Y419149D01*
X148940D01*
X148874Y419156D01*
X148704D01*
X148607Y419163D01*
X148504Y419171D01*
X148393Y419178D01*
X148156Y419200D01*
X147912Y419230D01*
X147660Y419267D01*
Y419245D01*
X147668Y419223D01*
Y419200D01*
X147675Y419163D01*
X147682Y419112D01*
Y419052D01*
X147690Y418986D01*
X147697Y418904D01*
X147712Y418808D01*
X147719Y418697D01*
X147727Y418564D01*
X147742Y418423D01*
X147749Y418261D01*
X147764Y418083D01*
X147779Y417876D01*
X147793Y417654D01*
X147808Y417410D01*
X147823Y417143D01*
X147845Y416855D01*
X147860Y416536D01*
X147882Y416196D01*
X147897Y415826D01*
X147919Y415426D01*
X147934Y415219D01*
X147941Y415005D01*
X147956Y414783D01*
X147964Y414546D01*
X147978Y414309D01*
X147993Y414065D01*
X148001Y413806D01*
X148015Y413547D01*
X148030Y413273D01*
X148045Y412992D01*
X148052Y412703D01*
X148067Y412407D01*
X148082Y412104D01*
X148097Y411786D01*
Y411778D01*
Y411763D01*
Y411741D01*
Y411704D01*
X148104Y411660D01*
Y411608D01*
Y411549D01*
X148112Y411482D01*
X148119Y411327D01*
X148134Y411157D01*
X148156Y410972D01*
X148186Y410779D01*
X148215Y410579D01*
X148260Y410380D01*
X148304Y410180D01*
X148363Y410002D01*
X148430Y409832D01*
X148504Y409684D01*
X148548Y409625D01*
X148593Y409566D01*
X148644Y409521D01*
X148696Y409477D01*
X148704Y409469D01*
X148718Y409455D01*
X148748Y409432D01*
X148800Y409395D01*
X148866Y409358D01*
X148955Y409314D01*
X149066Y409262D01*
X149199Y409218D01*
X149362Y409159D01*
X149458Y409136D01*
X149555Y409107D01*
X149666Y409085D01*
X149784Y409055D01*
X149902Y409033D01*
X150036Y409011D01*
X150184Y408988D01*
X150332Y408966D01*
X150494Y408944D01*
X150665Y408922D01*
X150842Y408907D01*
X151035Y408892D01*
X151234Y408877D01*
X151449Y408863D01*
Y408870D01*
Y408892D01*
X151456Y408922D01*
Y408966D01*
X151464Y409018D01*
X151471Y409085D01*
X151486Y409159D01*
X151501Y409240D01*
X151523Y409329D01*
X151545Y409432D01*
X151612Y409647D01*
X151701Y409884D01*
X151760Y410010D01*
X151819Y410135D01*
X151812D01*
X151782Y410128D01*
X151745Y410121D01*
X151686Y410113D01*
X151619Y410098D01*
X151545Y410091D01*
X151456Y410076D01*
X151360Y410061D01*
X151160Y410032D01*
X150938Y410010D01*
X150716Y409995D01*
X150509Y409987D01*
X150450D01*
X150376Y409995D01*
X150287Y410002D01*
X150176Y410017D01*
X150058Y410039D01*
X149932Y410069D01*
X149799Y410106D01*
X149666Y410158D01*
X149532Y410224D01*
X149414Y410306D01*
X149310Y410394D01*
X149214Y410505D01*
X149148Y410639D01*
X149096Y410787D01*
X149088Y410868D01*
X149081Y410957D01*
Y410972D01*
X149074Y411009D01*
Y411075D01*
X149066Y411164D01*
X149059Y411275D01*
X149051Y411408D01*
X149037Y411556D01*
X149029Y411734D01*
X149014Y411919D01*
X149000Y412126D01*
X148985Y412348D01*
X148970Y412585D01*
X148955Y412829D01*
X148940Y413088D01*
X148926Y413362D01*
X148903Y413643D01*
X148889Y413932D01*
X148874Y414228D01*
X148837Y414827D01*
X148807Y415449D01*
X148778Y416070D01*
X148748Y416684D01*
X148726Y417284D01*
X148718Y417580D01*
X148711Y417861D01*
X148704Y418135D01*
X148696Y418401D01*
X153292Y418275D01*
Y418268D01*
Y418253D01*
Y418231D01*
Y418201D01*
X153299Y418164D01*
Y418113D01*
X153306Y418053D01*
X153314Y417987D01*
X153321Y417920D01*
X153329Y417839D01*
X153343Y417654D01*
X153373Y417447D01*
X153403Y417210D01*
X153447Y416951D01*
X153499Y416670D01*
X153558Y416366D01*
X153632Y416048D01*
X153713Y415708D01*
X153802Y415352D01*
X153913Y414990D01*
X154032Y414612D01*
X154165Y414228D01*
X154320Y413835D01*
X154483Y413436D01*
X154668Y413029D01*
X154868Y412622D01*
X155090Y412215D01*
X155334Y411808D01*
X155593Y411408D01*
X155874Y411009D01*
X156178Y410616D01*
X156503Y410232D01*
X156851Y409862D01*
X157228Y409499D01*
X157628Y409151D01*
X158057Y408818D01*
X158509Y408500D01*
X55182D01*
Y408818D01*
Y421761D01*
X55190Y421731D01*
X55197Y421687D01*
Y421635D01*
X55205Y421576D01*
X55212Y421509D01*
X55219Y421428D01*
X55227Y421339D01*
X55234Y421243D01*
X55242Y421139D01*
X55249Y421028D01*
X55264Y420784D01*
X55271Y420525D01*
Y410957D01*
Y410942D01*
Y410905D01*
Y410846D01*
Y410772D01*
X55279Y410676D01*
X55286Y410572D01*
X55301Y410461D01*
X55323Y410335D01*
X55353Y410209D01*
X55390Y410084D01*
X55434Y409958D01*
X55493Y409832D01*
X55560Y409721D01*
X55641Y409617D01*
X55730Y409521D01*
X55841Y409447D01*
X55848Y409440D01*
X55871Y409432D01*
X55908Y409410D01*
X55959Y409381D01*
X56033Y409344D01*
X56130Y409307D01*
X56241Y409262D01*
X56381Y409210D01*
X56544Y409166D01*
X56736Y409114D01*
X56951Y409062D01*
X57069Y409033D01*
X57195Y409011D01*
X57336Y408981D01*
X57476Y408959D01*
X57624Y408929D01*
X57787Y408907D01*
X57950Y408885D01*
X58128Y408863D01*
X58313Y408840D01*
X58505Y408818D01*
Y408826D01*
Y408848D01*
Y408885D01*
X58512Y408937D01*
X58520Y408996D01*
X58527Y409062D01*
X58542Y409144D01*
X58557Y409233D01*
X58601Y409425D01*
X58668Y409632D01*
X58764Y409847D01*
X58816Y409958D01*
X58882Y410061D01*
X58853D01*
X58808Y410054D01*
X58764D01*
X58697Y410047D01*
X58631Y410039D01*
X58549Y410032D01*
X58461D01*
X58268Y410017D01*
X58068Y410002D01*
X57869Y409995D01*
X57565D01*
X57506Y410002D01*
X57439D01*
X57291Y410010D01*
X57129Y410024D01*
X56966Y410047D01*
X56810Y410076D01*
X56744Y410098D01*
X56685Y410121D01*
X56677D01*
X56662Y410128D01*
X56633Y410143D01*
X56596Y410158D01*
X56559Y410180D01*
X56507Y410217D01*
X56463Y410254D01*
X56411Y410298D01*
X56359Y410357D01*
X56315Y410417D01*
X56270Y410498D01*
X56226Y410579D01*
X56196Y410676D01*
X56174Y410787D01*
X56159Y410905D01*
Y411038D01*
Y420932D01*
X65239D01*
X65320Y420925D01*
X65402D01*
X65491Y420917D01*
X65690Y420910D01*
X65898Y420895D01*
X66105Y420865D01*
X66290Y420836D01*
Y421783D01*
X66275D01*
X66245Y421776D01*
X66216Y421768D01*
X66171Y421761D01*
X66120Y421753D01*
X66060Y421746D01*
X65986Y421739D01*
X65905Y421731D01*
X65816Y421724D01*
X65713Y421716D01*
X65602Y421709D01*
X65483Y421702D01*
X65343D01*
X65202Y421694D01*
X56263D01*
X56189Y421702D01*
X56107D01*
X56011Y421709D01*
X55811Y421716D01*
X55597Y421731D01*
X55382Y421753D01*
X55182Y421783D01*
Y422952D01*
X108092D01*
X106834Y422708D01*
X106827D01*
X106805Y422701D01*
X106775Y422693D01*
X106738Y422686D01*
X106701Y422671D01*
X106664Y422649D01*
X106642Y422634D01*
X106627Y422604D01*
Y422590D01*
X106635Y422575D01*
X106649Y422553D01*
X106672Y422523D01*
X106701Y422493D01*
X106738Y422456D01*
X106797Y422412D01*
X106812Y422405D01*
X106849Y422375D01*
X106901Y422338D01*
X106960Y422271D01*
X107027Y422197D01*
X107093Y422094D01*
X107153Y421983D01*
X107197Y421842D01*
Y421835D01*
X107204Y421813D01*
X107212Y421783D01*
X107227Y421746D01*
X107234Y421687D01*
X107256Y421628D01*
X107271Y421561D01*
X107293Y421487D01*
X107338Y421317D01*
X107397Y421139D01*
X107449Y420947D01*
X107508Y420762D01*
X101566D01*
X101499Y420769D01*
X101425D01*
X101344Y420777D01*
X101247D01*
X101144Y420784D01*
X101033Y420791D01*
X100922Y420799D01*
X100663Y420821D01*
X100382Y420851D01*
Y419896D01*
X100389D01*
X100411Y419903D01*
X100456D01*
X100507Y419911D01*
X100574Y419918D01*
X100648Y419933D01*
X100729Y419940D01*
X100826Y419948D01*
X101033Y419970D01*
X101262Y419985D01*
X101492Y419992D01*
X107759D01*
X107767Y419985D01*
X107774Y419948D01*
X107804Y419896D01*
X107833Y419829D01*
X107870Y419748D01*
X107922Y419644D01*
X107974Y419533D01*
X108033Y419408D01*
X108107Y419267D01*
X108181Y419126D01*
X108263Y418971D01*
X108351Y418808D01*
X108544Y418475D01*
X108751Y418135D01*
X103852D01*
X103749Y418142D01*
X103630Y418150D01*
X103504D01*
X103371Y418157D01*
X103231Y418172D01*
X102935Y418194D01*
X102624Y418231D01*
Y418224D01*
X102631Y418187D01*
Y418142D01*
X102639Y418076D01*
X102646Y417994D01*
X102653Y417898D01*
X102661Y417794D01*
X102668Y417676D01*
X102683Y417558D01*
X102690Y417424D01*
X102705Y417158D01*
X102713Y416892D01*
X102720Y416633D01*
Y410180D01*
Y410172D01*
Y410143D01*
Y410098D01*
Y410032D01*
X102727Y409965D01*
X102735Y409884D01*
X102757Y409699D01*
X102801Y409506D01*
X102831Y409410D01*
X102868Y409321D01*
X102912Y409240D01*
X102972Y409166D01*
X103031Y409099D01*
X103105Y409048D01*
X103112D01*
X103120Y409033D01*
X103142Y409018D01*
X103179Y409003D01*
X103231Y408981D01*
X103290Y408951D01*
X103371Y408922D01*
X103467Y408885D01*
X103586Y408855D01*
X103726Y408818D01*
X103882Y408781D01*
X104067Y408744D01*
X104274Y408707D01*
X104511Y408670D01*
X104770Y408633D01*
X104918Y408618D01*
X105066Y408604D01*
Y408611D01*
Y408633D01*
X105073Y408670D01*
X105081Y408722D01*
X105088Y408781D01*
X105103Y408848D01*
X105118Y408929D01*
X105140Y409018D01*
X105192Y409210D01*
X105258Y409425D01*
X105347Y409647D01*
X105465Y409876D01*
X105436D01*
X105399Y409869D01*
X105347Y409862D01*
X105288Y409854D01*
X105221Y409847D01*
X105147Y409839D01*
X105066Y409832D01*
X104888Y409817D01*
X104703Y409802D01*
X104518Y409795D01*
X104355Y409788D01*
X104252D01*
X104193Y409795D01*
X104052Y409810D01*
X103985Y409817D01*
X103926Y409832D01*
X103919D01*
X103911Y409839D01*
X103874Y409854D01*
X103823Y409884D01*
X103756Y409943D01*
X103697Y410017D01*
X103675Y410069D01*
X103645Y410121D01*
X103630Y410187D01*
X103615Y410261D01*
X103608Y410343D01*
Y410431D01*
Y412355D01*
X109054D01*
Y410135D01*
Y410128D01*
Y410113D01*
Y410076D01*
Y410032D01*
Y409980D01*
X109047Y409913D01*
Y409839D01*
X109040Y409751D01*
Y409654D01*
X109032Y409543D01*
X109025Y409425D01*
X109010Y409299D01*
X109003Y409166D01*
X108988Y409018D01*
X108973Y408870D01*
X108958Y408707D01*
X110039D01*
Y408715D01*
X110031Y408744D01*
Y408789D01*
X110024Y408848D01*
X110016Y408922D01*
X110009Y409011D01*
X110002Y409107D01*
X109987Y409210D01*
X109972Y409432D01*
X109957Y409669D01*
X109950Y409913D01*
X109942Y410135D01*
Y416544D01*
X109957Y416529D01*
X109994Y416485D01*
X110061Y416418D01*
X110150Y416329D01*
X110261Y416218D01*
X110401Y416085D01*
X110557Y415937D01*
X110742Y415774D01*
X110941Y415597D01*
X111163Y415404D01*
X111400Y415197D01*
X111659Y414990D01*
X111933Y414775D01*
X112229Y414553D01*
X112532Y414324D01*
X112858Y414102D01*
X112865Y414109D01*
X112873Y414124D01*
X112895Y414146D01*
X112925Y414183D01*
X112962Y414220D01*
X113006Y414272D01*
X113058Y414331D01*
X113124Y414390D01*
X113265Y414531D01*
X113435Y414679D01*
X113635Y414842D01*
X113857Y415005D01*
X113850Y415012D01*
X113820Y415027D01*
X113768Y415049D01*
X113702Y415079D01*
X113620Y415123D01*
X113517Y415175D01*
X113406Y415234D01*
X113272Y415308D01*
X113139Y415389D01*
X112984Y415478D01*
X112821Y415582D01*
X112651Y415693D01*
X112466Y415811D01*
X112281Y415937D01*
X112088Y416078D01*
X111889Y416226D01*
X111681Y416388D01*
X111474Y416559D01*
X111267Y416736D01*
X111052Y416929D01*
X110845Y417121D01*
X110631Y417336D01*
X110423Y417550D01*
X110216Y417787D01*
X110016Y418024D01*
X109817Y418275D01*
X109624Y418534D01*
X109439Y418808D01*
X109269Y419089D01*
X109099Y419378D01*
X108943Y419681D01*
X108795Y419992D01*
X112466D01*
X112518Y419985D01*
X112584D01*
X112658Y419977D01*
X112740D01*
X112828Y419970D01*
X112925Y419963D01*
X113036Y419955D01*
X113154Y419940D01*
X113280Y419926D01*
X113413Y419911D01*
X113554Y419896D01*
Y420851D01*
X113524D01*
X113487Y420843D01*
X113435Y420836D01*
X113376Y420828D01*
X113302Y420821D01*
X113221Y420814D01*
X113132Y420806D01*
X112947Y420791D01*
X112740Y420777D01*
X112540Y420769D01*
X112340Y420762D01*
X108536D01*
X108529Y420777D01*
X108522Y420806D01*
X108499Y420865D01*
X108477Y420939D01*
X108448Y421028D01*
X108418Y421147D01*
X108381Y421272D01*
X108344Y421413D01*
X108307Y421568D01*
X108263Y421739D01*
X108226Y421916D01*
X108196Y422109D01*
X108159Y422308D01*
X108129Y422516D01*
X108092Y422952D01*
X267000D01*
Y421605D01*
D02*
G37*
G36*
X109054Y415634D02*
X103608D01*
Y417365D01*
X109054D01*
Y415634D01*
D02*
G37*
G36*
Y413118D02*
X103608D01*
Y414871D01*
X109054D01*
Y413118D01*
D02*
G37*
G36*
X256184Y396619D02*
X256170D01*
X256151Y396615D01*
X256133Y396611D01*
X256114Y396604D01*
X256096Y396597D01*
X256084Y396585D01*
X256077Y396574D01*
Y396567D01*
Y396560D01*
X256081Y396549D01*
X256088Y396534D01*
X256103Y396515D01*
X256118Y396493D01*
X256144Y396463D01*
X256151Y396456D01*
X256166Y396438D01*
X256184Y396408D01*
X256210Y396360D01*
X256236Y396301D01*
X256247Y396267D01*
X256255Y396227D01*
X256266Y396182D01*
X256269Y396138D01*
X256277Y396086D01*
Y396030D01*
Y395424D01*
X254390D01*
X254349Y395427D01*
X254301D01*
X254253Y395431D01*
X254197Y395435D01*
X254134Y395439D01*
X254068Y395446D01*
X253998Y395450D01*
X253920Y395461D01*
X253838Y395468D01*
Y395464D01*
Y395450D01*
X253842Y395427D01*
X253846Y395398D01*
X253850Y395361D01*
X253853Y395320D01*
X253857Y395272D01*
X253861Y395224D01*
X253868Y395113D01*
X253875Y394998D01*
X253879Y394887D01*
X253883Y394835D01*
Y394787D01*
Y392301D01*
Y392297D01*
Y392286D01*
Y392271D01*
Y392249D01*
Y392219D01*
X253879Y392182D01*
Y392145D01*
X253875Y392097D01*
Y392049D01*
X253872Y391994D01*
X253868Y391935D01*
X253864Y391872D01*
X253861Y391801D01*
X253853Y391731D01*
X253838Y391579D01*
X253842D01*
X253857Y391583D01*
X253875D01*
X253901Y391587D01*
X253935Y391590D01*
X253975Y391594D01*
X254020Y391598D01*
X254068Y391605D01*
X254175Y391613D01*
X254294Y391620D01*
X254412Y391624D01*
X254534Y391628D01*
X256277D01*
Y390603D01*
Y390595D01*
Y390580D01*
X256280Y390554D01*
Y390525D01*
Y390521D01*
Y390506D01*
X256277Y390480D01*
X256269Y390451D01*
X256258Y390418D01*
X256240Y390377D01*
X256218Y390336D01*
X256188Y390292D01*
X256147Y390251D01*
X256099Y390210D01*
X256036Y390173D01*
X255966Y390140D01*
X255881Y390114D01*
X255833Y390103D01*
X255781Y390096D01*
X255726Y390092D01*
X255666Y390088D01*
X255600Y390085D01*
X255533Y390088D01*
X254234D01*
X254194Y390092D01*
X254142D01*
X254086Y390099D01*
X254027Y390103D01*
X253964Y390114D01*
X253831Y390136D01*
X253765Y390155D01*
X253702Y390177D01*
X253642Y390199D01*
X253587Y390229D01*
X253539Y390262D01*
X253502Y390303D01*
X253498Y390307D01*
X253494Y390314D01*
X253483Y390325D01*
X253468Y390344D01*
X253454Y390366D01*
X253432Y390399D01*
X253413Y390436D01*
X253391Y390484D01*
X253369Y390540D01*
X253346Y390603D01*
X253324Y390677D01*
X253302Y390758D01*
X253284Y390850D01*
X253265Y390954D01*
X253250Y391069D01*
X253239Y391195D01*
X253235Y391191D01*
X253228Y391183D01*
X253217Y391172D01*
X253198Y391158D01*
X253176Y391139D01*
X253150Y391121D01*
X253117Y391098D01*
X253084Y391073D01*
X253006Y391017D01*
X252917Y390965D01*
X252821Y390910D01*
X252717Y390865D01*
Y390862D01*
X252721Y390858D01*
X252725Y390847D01*
X252729Y390832D01*
X252740Y390795D01*
X252758Y390743D01*
X252780Y390684D01*
X252806Y390617D01*
X252836Y390543D01*
X252873Y390466D01*
X252951Y390303D01*
X252991Y390222D01*
X253036Y390147D01*
X253084Y390073D01*
X253135Y390011D01*
X253187Y389955D01*
X253239Y389911D01*
X253243Y389907D01*
X253250Y389900D01*
X253269Y389892D01*
X253291Y389877D01*
X253321Y389859D01*
X253358Y389840D01*
X253402Y389822D01*
X253457Y389803D01*
X253517Y389781D01*
X253587Y389763D01*
X253668Y389744D01*
X253757Y389729D01*
X253857Y389718D01*
X253964Y389707D01*
X254083Y389703D01*
X255707D01*
X255737Y389707D01*
X255770D01*
X255811Y389711D01*
X255892Y389718D01*
X255988Y389733D01*
X256088Y389755D01*
X256192Y389785D01*
X256295Y389822D01*
X256392Y389870D01*
X256484Y389933D01*
X256562Y390007D01*
X256599Y390048D01*
X256628Y390096D01*
X256654Y390144D01*
X256676Y390199D01*
X256691Y390259D01*
X256702Y390318D01*
X256710Y390388D01*
X256706Y390458D01*
Y391628D01*
X258345D01*
X258382Y391624D01*
X258426D01*
X258471Y391620D01*
X258526D01*
X258582Y391616D01*
X258645Y391613D01*
X258708Y391609D01*
X258848Y391594D01*
X259000Y391579D01*
Y389703D01*
Y389500D01*
X235461D01*
Y389504D01*
Y389518D01*
X235457Y389541D01*
X235453Y389574D01*
Y389611D01*
X235450Y389652D01*
X235446Y389700D01*
X235442Y389752D01*
X235435Y389866D01*
X235427Y389985D01*
X235420Y390107D01*
X235416Y390218D01*
Y394173D01*
X235420Y394166D01*
X235431Y394147D01*
X235450Y394118D01*
X235475Y394077D01*
X235509Y394029D01*
X235546Y393970D01*
X235586Y393903D01*
X235634Y393829D01*
X235686Y393748D01*
X235746Y393663D01*
X235805Y393574D01*
X235868Y393478D01*
X236001Y393281D01*
X236141Y393082D01*
X236145Y393085D01*
X236153Y393089D01*
X236164Y393096D01*
X236182Y393111D01*
X236201Y393126D01*
X236230Y393141D01*
X236260Y393163D01*
X236297Y393181D01*
X236337Y393207D01*
X236382Y393233D01*
X236434Y393259D01*
X236486Y393285D01*
X236545Y393315D01*
X236608Y393344D01*
X236674Y393374D01*
X236748Y393404D01*
X236744Y393407D01*
X236733Y393415D01*
X236719Y393429D01*
X236693Y393448D01*
X236667Y393474D01*
X236630Y393507D01*
X236589Y393544D01*
X236545Y393588D01*
X236497Y393640D01*
X236441Y393696D01*
X236386Y393759D01*
X236323Y393825D01*
X236260Y393903D01*
X236190Y393984D01*
X236119Y394073D01*
X236045Y394166D01*
X235971Y394269D01*
X235894Y394377D01*
X235816Y394491D01*
X235738Y394617D01*
X235657Y394743D01*
X235575Y394880D01*
X235494Y395024D01*
X235413Y395176D01*
X235331Y395335D01*
X235250Y395498D01*
X235172Y395672D01*
X235094Y395853D01*
X235017Y396038D01*
X234943Y396234D01*
X234872Y396438D01*
X234802Y396648D01*
X234225Y396389D01*
X234221D01*
X234214Y396386D01*
X234195Y396371D01*
X234177Y396352D01*
X234173Y396341D01*
Y396330D01*
X234177Y396326D01*
X234184Y396312D01*
X234195Y396301D01*
X234210Y396289D01*
X234228Y396275D01*
X234254Y396260D01*
X234258D01*
X234262Y396252D01*
X234273Y396245D01*
X234284Y396238D01*
X234302Y396223D01*
X234321Y396204D01*
X234343Y396182D01*
X234365Y396156D01*
X234391Y396127D01*
X234417Y396090D01*
X234447Y396053D01*
X234476Y396008D01*
X234506Y395960D01*
X234536Y395905D01*
X234565Y395846D01*
X234595Y395783D01*
X234598Y395775D01*
X234606Y395760D01*
X234617Y395731D01*
X234632Y395694D01*
X234654Y395649D01*
X234676Y395598D01*
X234702Y395542D01*
X234728Y395483D01*
X234791Y395350D01*
X234854Y395216D01*
X234887Y395154D01*
X234920Y395091D01*
X234954Y395031D01*
X234983Y394980D01*
Y390218D01*
Y390214D01*
Y390207D01*
Y390192D01*
X234980Y390173D01*
Y390147D01*
Y390118D01*
X234976Y390081D01*
Y390040D01*
X234972Y389992D01*
X234968Y389940D01*
X234965Y389881D01*
X234961Y389814D01*
X234957Y389744D01*
X234950Y389670D01*
X234946Y389589D01*
X234939Y389500D01*
X233873D01*
Y389504D01*
X233870Y389518D01*
Y389537D01*
X233866Y389563D01*
X233862Y389596D01*
X233858Y389637D01*
X233855Y389678D01*
X233851Y389726D01*
X233844Y389829D01*
X233836Y389940D01*
X233829Y390051D01*
X233825Y390159D01*
Y391335D01*
Y391339D01*
Y391346D01*
Y391357D01*
Y391376D01*
X233829Y391398D01*
Y391428D01*
X233833Y391461D01*
Y391502D01*
X233836Y391546D01*
X233840Y391594D01*
X233844Y391650D01*
X233847Y391709D01*
X233855Y391775D01*
X233858Y391849D01*
X233866Y391927D01*
X233873Y392009D01*
X233847D01*
X233822Y392005D01*
X233785Y392001D01*
X233740Y391998D01*
X233688Y391994D01*
X233633Y391990D01*
X233574Y391986D01*
X233448Y391979D01*
X233326Y391972D01*
X233266Y391968D01*
X233215D01*
X233167Y391964D01*
X230895D01*
X230865Y391968D01*
X230828D01*
X230784Y391972D01*
X230732D01*
X230677Y391975D01*
X230614Y391979D01*
X230543Y391983D01*
X230466Y391986D01*
X230381Y391994D01*
X230292Y392001D01*
X230192Y392009D01*
Y392005D01*
Y391994D01*
X230195Y391975D01*
X230199Y391949D01*
Y391916D01*
X230203Y391879D01*
X230207Y391835D01*
X230210Y391790D01*
X230214Y391739D01*
X230218Y391683D01*
X230225Y391568D01*
X230233Y391450D01*
X230236Y391328D01*
Y390203D01*
Y390196D01*
Y390184D01*
Y390170D01*
Y390151D01*
X230233Y390125D01*
Y390096D01*
X230229Y390062D01*
Y390018D01*
X230225Y389974D01*
X230221Y389918D01*
X230218Y389859D01*
X230214Y389792D01*
X230207Y389718D01*
X230199Y389641D01*
X230192Y389552D01*
X230710D01*
Y389556D01*
X230706Y389567D01*
Y389581D01*
X230702Y389604D01*
X230699Y389630D01*
X230695Y389659D01*
X230688Y389729D01*
X230680Y389811D01*
X230673Y389892D01*
X230665Y389970D01*
Y390040D01*
X233396D01*
Y390033D01*
Y390022D01*
Y390011D01*
Y389992D01*
X233392Y389970D01*
Y389944D01*
Y389914D01*
X233389Y389877D01*
Y389837D01*
X233385Y389796D01*
X233381Y389744D01*
X233378Y389692D01*
X233370Y389633D01*
X233366Y389570D01*
X233359Y389500D01*
X214104D01*
Y389559D01*
Y396641D01*
Y396696D01*
X232445D01*
X232438Y396693D01*
X232419Y396674D01*
X232386Y396652D01*
X232342Y396619D01*
X232290Y396578D01*
X232227Y396530D01*
X232156Y396475D01*
X232079Y396412D01*
X231994Y396349D01*
X231901Y396278D01*
X231809Y396204D01*
X231709Y396127D01*
X231505Y395968D01*
X231302Y395805D01*
X231653Y395416D01*
X230129D01*
X230099Y395420D01*
X230066D01*
X230029Y395424D01*
X229985D01*
X229933Y395427D01*
X229877Y395431D01*
X229818Y395435D01*
X229751Y395439D01*
X229681Y395446D01*
X229604Y395453D01*
X229522Y395461D01*
Y394987D01*
X229541D01*
X229567Y394991D01*
X229596Y394994D01*
X229633D01*
X229678Y394998D01*
X229726Y395002D01*
X229777Y395006D01*
X229885Y395013D01*
X229996Y395020D01*
X230103Y395028D01*
X230147Y395031D01*
X233932D01*
X233958Y395028D01*
X234025D01*
X234066Y395024D01*
X234110Y395020D01*
X234158Y395017D01*
X234210Y395013D01*
X234265Y395009D01*
X234325Y395002D01*
X234391Y394994D01*
X234458Y394987D01*
Y395461D01*
X234443D01*
X234425Y395457D01*
X234399Y395453D01*
X234369D01*
X234336Y395450D01*
X234295Y395446D01*
X234254Y395442D01*
X234162Y395435D01*
X234066Y395427D01*
X233966Y395420D01*
X233873Y395416D01*
X231713D01*
X231720Y395420D01*
X231735Y395439D01*
X231764Y395461D01*
X231801Y395494D01*
X231849Y395535D01*
X231905Y395583D01*
X231972Y395638D01*
X232042Y395697D01*
X232123Y395764D01*
X232208Y395834D01*
X232297Y395908D01*
X232390Y395986D01*
X232489Y396068D01*
X232593Y396153D01*
X232804Y396319D01*
X232445Y396696D01*
X256750D01*
X256184Y396619D01*
D02*
G37*
G36*
X258523Y393725D02*
X256706D01*
Y395039D01*
X258523D01*
Y393725D01*
D02*
G37*
G36*
X256277D02*
X254312D01*
Y395039D01*
X256277D01*
Y393725D01*
D02*
G37*
G36*
X258523Y392009D02*
X256706D01*
Y393344D01*
X258523D01*
Y392009D01*
D02*
G37*
G36*
X256277D02*
X254312D01*
Y393344D01*
X256277D01*
Y392009D01*
D02*
G37*
G36*
X259000Y391583D02*
X258996Y391598D01*
Y391624D01*
X258993Y391653D01*
X258989Y391694D01*
X258985Y391739D01*
X258981Y391787D01*
X258974Y391842D01*
X258967Y391957D01*
X258959Y392079D01*
X258956Y392197D01*
X258952Y392256D01*
Y392308D01*
Y394702D01*
Y394706D01*
Y394717D01*
Y394739D01*
Y394765D01*
Y394795D01*
X258956Y394835D01*
Y394880D01*
X258959Y394932D01*
Y394983D01*
X258963Y395043D01*
X258967Y395106D01*
X258970Y395172D01*
X258985Y395316D01*
X259000Y395468D01*
X258978D01*
X258956Y395464D01*
X258922Y395461D01*
X258885Y395457D01*
X258841Y395453D01*
X258789Y395450D01*
X258737Y395446D01*
X258623Y395439D01*
X258504Y395431D01*
X258389Y395427D01*
X258334Y395424D01*
X256706D01*
Y395982D01*
Y395986D01*
Y395997D01*
Y396012D01*
Y396034D01*
Y396060D01*
X256710Y396097D01*
Y396134D01*
Y396179D01*
X256713Y396227D01*
X256717Y396282D01*
X256721Y396341D01*
X256725Y396404D01*
X256728Y396471D01*
X256736Y396541D01*
X256743Y396619D01*
X256750Y396696D01*
X259000D01*
Y391583D01*
D02*
G37*
G36*
X233396Y390410D02*
X230665D01*
Y391579D01*
X233396D01*
Y390410D01*
D02*
G37*
%LPC*%
G36*
X127591Y422234D02*
X127584D01*
X127562Y422227D01*
X127532D01*
X127495Y422220D01*
X127443Y422212D01*
X127384Y422197D01*
X127244Y422183D01*
X127081Y422160D01*
X126911Y422146D01*
X126726Y422138D01*
X123877D01*
X123810Y422146D01*
X123647Y422153D01*
X123462Y422175D01*
X123262Y422197D01*
X123055Y422234D01*
Y422227D01*
X123063Y422212D01*
Y422183D01*
X123070Y422138D01*
X123077Y422086D01*
X123092Y422035D01*
X123100Y421968D01*
X123107Y421894D01*
X123129Y421724D01*
X123144Y421546D01*
X123151Y421354D01*
Y421154D01*
Y419474D01*
Y419467D01*
Y419452D01*
Y419430D01*
Y419393D01*
Y419348D01*
Y419297D01*
Y419237D01*
X123144Y419171D01*
X123137Y419008D01*
X123114Y418830D01*
X123092Y418623D01*
X123055Y418401D01*
X123063D01*
X123085Y418409D01*
X123114D01*
X123166Y418416D01*
X123218Y418423D01*
X123285Y418431D01*
X123351Y418446D01*
X123433Y418453D01*
X123603Y418468D01*
X123788Y418483D01*
X123973Y418490D01*
X126770D01*
X126837Y418483D01*
X126992Y418475D01*
X127170Y418460D01*
X127369Y418438D01*
X127591Y418401D01*
Y418409D01*
X127584Y418423D01*
Y418446D01*
X127569Y418483D01*
X127562Y418520D01*
X127554Y418571D01*
X127532Y418690D01*
X127517Y418838D01*
X127495Y418993D01*
X127488Y419171D01*
Y419348D01*
Y421287D01*
Y421295D01*
Y421302D01*
Y421324D01*
Y421354D01*
Y421398D01*
Y421443D01*
X127495Y421554D01*
X127510Y421694D01*
X127525Y421850D01*
X127554Y422035D01*
X127591Y422234D01*
D02*
G37*
G36*
X121531D02*
X121523D01*
X121501Y422227D01*
X121472D01*
X121427Y422220D01*
X121375Y422212D01*
X121316Y422197D01*
X121176Y422183D01*
X121020Y422160D01*
X120850Y422146D01*
X120687Y422138D01*
X117757D01*
X117698Y422146D01*
X117557Y422153D01*
X117387Y422175D01*
X117194Y422197D01*
X116980Y422234D01*
Y422227D01*
X116987Y422212D01*
Y422183D01*
X116995Y422146D01*
X117002Y422094D01*
X117017Y422035D01*
X117024Y421968D01*
X117032Y421901D01*
X117054Y421739D01*
X117069Y421554D01*
X117076Y421369D01*
Y421169D01*
Y419393D01*
Y419385D01*
Y419371D01*
Y419348D01*
Y419319D01*
Y419274D01*
Y419230D01*
Y419171D01*
X117069Y419112D01*
X117061Y418964D01*
X117039Y418793D01*
X117017Y418608D01*
X116980Y418401D01*
X116987D01*
X117002Y418409D01*
X117039D01*
X117076Y418416D01*
X117128Y418423D01*
X117187Y418431D01*
X117254Y418446D01*
X117328Y418453D01*
X117490Y418468D01*
X117668Y418483D01*
X117853Y418490D01*
X120746D01*
X120813Y418483D01*
X120961Y418475D01*
X121131Y418460D01*
X121324Y418438D01*
X121531Y418401D01*
Y418409D01*
X121523Y418423D01*
Y418446D01*
X121516Y418483D01*
X121509Y418520D01*
X121494Y418571D01*
X121479Y418690D01*
X121457Y418830D01*
X121442Y418986D01*
X121435Y419149D01*
Y419319D01*
Y421250D01*
Y421258D01*
Y421272D01*
Y421295D01*
Y421332D01*
Y421376D01*
Y421420D01*
X121442Y421546D01*
X121449Y421694D01*
X121472Y421857D01*
X121494Y422042D01*
X121531Y422234D01*
D02*
G37*
G36*
X245148Y422049D02*
X245140D01*
X245118Y422042D01*
X245089D01*
X245052Y422035D01*
X245000Y422027D01*
X244941Y422020D01*
X244874Y422012D01*
X244800Y421998D01*
X244637Y421983D01*
X244460Y421968D01*
X244275Y421961D01*
X239857D01*
X239790Y421968D01*
X239627Y421975D01*
X239442Y421990D01*
X239257Y422012D01*
X239058Y422049D01*
Y422042D01*
X239065Y422027D01*
Y421998D01*
X239072Y421961D01*
X239080Y421916D01*
X239095Y421864D01*
X239109Y421731D01*
X239132Y421583D01*
X239146Y421413D01*
X239154Y421235D01*
Y421050D01*
Y417661D01*
Y417654D01*
Y417639D01*
Y417609D01*
Y417572D01*
Y417521D01*
Y417461D01*
Y417402D01*
X239146Y417328D01*
X239139Y417165D01*
X239117Y416980D01*
X239095Y416788D01*
X239058Y416588D01*
X239065D01*
X239087Y416596D01*
X239117D01*
X239161Y416603D01*
X239213Y416610D01*
X239272Y416618D01*
X239346Y416633D01*
X239420Y416640D01*
X239583Y416655D01*
X239761Y416670D01*
X239938Y416677D01*
X243475D01*
X242928Y416374D01*
X242920Y416366D01*
X242898Y416359D01*
X242869Y416337D01*
X242839Y416322D01*
X242802Y416292D01*
X242780Y416270D01*
X242758Y416240D01*
Y416218D01*
Y416203D01*
X242765Y416189D01*
X242780Y416174D01*
X242809Y416152D01*
X242839Y416129D01*
X242891Y416100D01*
X242957Y416078D01*
X242965D01*
X242987Y416063D01*
X243024Y416048D01*
X243068Y416026D01*
X243165Y415974D01*
X243209Y415937D01*
X243246Y415900D01*
X243253Y415885D01*
X243276Y415856D01*
X243313Y415796D01*
X243357Y415730D01*
X243424Y415641D01*
X243490Y415545D01*
X243564Y415441D01*
X243653Y415330D01*
X239154D01*
X239072Y415338D01*
X238991D01*
X238902Y415345D01*
X238695Y415360D01*
X238473Y415382D01*
X238221Y415419D01*
Y415404D01*
X238229Y415382D01*
X238236Y415352D01*
X238244Y415278D01*
X238258Y415175D01*
X238273Y415056D01*
X238288Y414916D01*
X238303Y414768D01*
X238310Y414612D01*
X238480Y411068D01*
Y411060D01*
Y411053D01*
Y411031D01*
Y411001D01*
X238488Y410920D01*
Y410816D01*
X238503Y410690D01*
X238510Y410550D01*
X238525Y410394D01*
X238547Y410239D01*
X238599Y409913D01*
X238636Y409751D01*
X238680Y409603D01*
X238732Y409469D01*
X238784Y409351D01*
X238850Y409255D01*
X238887Y409218D01*
X238924Y409188D01*
Y409181D01*
X238939Y409173D01*
X238961Y409151D01*
X238998Y409129D01*
X239043Y409092D01*
X239109Y409055D01*
X239183Y409018D01*
X239287Y408974D01*
X239405Y408929D01*
X239553Y408877D01*
X239724Y408833D01*
X239916Y408789D01*
X240027Y408759D01*
X240138Y408737D01*
X240264Y408715D01*
X240397Y408700D01*
X240538Y408678D01*
X240686Y408655D01*
X240841Y408633D01*
X241004Y408618D01*
Y408626D01*
X241011Y408641D01*
Y408670D01*
X241019Y408715D01*
X241033Y408766D01*
X241048Y408826D01*
X241070Y408892D01*
X241093Y408966D01*
X241159Y409144D01*
X241248Y409336D01*
X241307Y409432D01*
X241366Y409543D01*
X241433Y409647D01*
X241514Y409758D01*
X241507D01*
X241485Y409751D01*
X241448D01*
X241396Y409743D01*
X241337Y409728D01*
X241263Y409721D01*
X241189Y409714D01*
X241100Y409699D01*
X240915Y409677D01*
X240715Y409662D01*
X240515Y409647D01*
X240330Y409640D01*
X240271D01*
X240212Y409647D01*
X240138D01*
X240049Y409654D01*
X239968Y409669D01*
X239886Y409684D01*
X239812Y409706D01*
X239805D01*
X239790Y409714D01*
X239768Y409721D01*
X239746Y409736D01*
X239672Y409788D01*
X239627Y409817D01*
X239590Y409862D01*
X239546Y409906D01*
X239502Y409965D01*
X239465Y410032D01*
X239428Y410106D01*
X239398Y410195D01*
X239376Y410291D01*
X239361Y410402D01*
X239354Y410520D01*
X239139Y414568D01*
X240182D01*
Y414553D01*
X240190Y414524D01*
X240205Y414472D01*
X240219Y414398D01*
X240242Y414302D01*
X240279Y414191D01*
X240316Y414065D01*
X240360Y413917D01*
X240412Y413761D01*
X240471Y413584D01*
X240538Y413406D01*
X240619Y413206D01*
X240708Y412999D01*
X240804Y412785D01*
X240908Y412563D01*
X241026Y412333D01*
X241159Y412096D01*
X241300Y411852D01*
X241455Y411608D01*
X241618Y411364D01*
X241803Y411112D01*
X241995Y410861D01*
X242203Y410609D01*
X242417Y410365D01*
X242654Y410121D01*
X242906Y409876D01*
X243172Y409640D01*
X243453Y409403D01*
X243757Y409181D01*
X244075Y408966D01*
X244408Y408759D01*
X244756Y408559D01*
Y408567D01*
X244770Y408581D01*
X244793Y408604D01*
X244815Y408641D01*
X244852Y408685D01*
X244896Y408729D01*
X244941Y408781D01*
X245000Y408840D01*
X245066Y408900D01*
X245148Y408959D01*
X245229Y409018D01*
X245318Y409077D01*
X245422Y409129D01*
X245533Y409188D01*
X245651Y409233D01*
X245777Y409277D01*
X245769Y409284D01*
X245732Y409292D01*
X245681Y409307D01*
X245614Y409336D01*
X245525Y409373D01*
X245429Y409410D01*
X245311Y409462D01*
X245177Y409529D01*
X245037Y409595D01*
X244881Y409677D01*
X244719Y409765D01*
X244541Y409869D01*
X244363Y409980D01*
X244171Y410106D01*
X243979Y410239D01*
X243786Y410380D01*
X243586Y410542D01*
X243379Y410713D01*
X243179Y410890D01*
X242972Y411090D01*
X242772Y411297D01*
X242573Y411519D01*
X242380Y411756D01*
X242195Y412008D01*
X242010Y412274D01*
X241833Y412555D01*
X241670Y412851D01*
X241507Y413162D01*
X241366Y413488D01*
X241233Y413835D01*
X241107Y414191D01*
X241004Y414568D01*
X242099D01*
Y414561D01*
X242106Y414546D01*
X242121Y414524D01*
X242136Y414487D01*
X242158Y414442D01*
X242188Y414390D01*
X242217Y414331D01*
X242254Y414257D01*
X242299Y414183D01*
X242351Y414094D01*
X242462Y413902D01*
X242595Y413687D01*
X242750Y413443D01*
X242928Y413184D01*
X243128Y412903D01*
X243357Y412607D01*
X243609Y412296D01*
X243882Y411978D01*
X244178Y411652D01*
X244504Y411319D01*
X244859Y410986D01*
X244867Y410994D01*
X244874Y411009D01*
X244896Y411031D01*
X244926Y411068D01*
X244970Y411105D01*
X245015Y411149D01*
X245074Y411201D01*
X245133Y411253D01*
X245207Y411312D01*
X245281Y411364D01*
X245459Y411475D01*
X245666Y411578D01*
X245784Y411615D01*
X245903Y411652D01*
X245895D01*
X245880Y411660D01*
X245858Y411675D01*
X245821Y411689D01*
X245777Y411712D01*
X245725Y411741D01*
X245666Y411771D01*
X245599Y411808D01*
X245444Y411897D01*
X245266Y412008D01*
X245066Y412148D01*
X244852Y412311D01*
X244622Y412496D01*
X244386Y412703D01*
X244134Y412947D01*
X243890Y413214D01*
X243638Y413502D01*
X243520Y413665D01*
X243401Y413828D01*
X243283Y414006D01*
X243165Y414183D01*
X243054Y414368D01*
X242943Y414568D01*
X244238D01*
Y414561D01*
X244252Y414553D01*
X244267Y414531D01*
X244289Y414501D01*
X244319Y414464D01*
X244356Y414413D01*
X244452Y414309D01*
X244571Y414168D01*
X244711Y414013D01*
X244874Y413835D01*
X245059Y413643D01*
X245066Y413650D01*
X245074Y413658D01*
X245096Y413680D01*
X245126Y413702D01*
X245163Y413732D01*
X245214Y413769D01*
X245266Y413806D01*
X245325Y413850D01*
X245399Y413895D01*
X245473Y413939D01*
X245562Y413983D01*
X245658Y414028D01*
X245755Y414072D01*
X245866Y414117D01*
X246102Y414191D01*
X246095D01*
X246088Y414198D01*
X246065Y414213D01*
X246036Y414228D01*
X245962Y414279D01*
X245866Y414353D01*
X245747Y414442D01*
X245607Y414546D01*
X245451Y414679D01*
X245281Y414827D01*
X245103Y414990D01*
X244918Y415175D01*
X244733Y415382D01*
X244541Y415604D01*
X244356Y415841D01*
X244171Y416100D01*
X243993Y416381D01*
X243831Y416677D01*
X244141D01*
X244230Y416670D01*
X244326D01*
X244430Y416662D01*
X244652Y416647D01*
X244896Y416625D01*
X245148Y416588D01*
Y416596D01*
X245140Y416610D01*
Y416640D01*
X245133Y416677D01*
X245126Y416721D01*
X245118Y416781D01*
X245096Y416906D01*
X245081Y417054D01*
X245066Y417225D01*
X245059Y417395D01*
Y417565D01*
Y421036D01*
Y421043D01*
Y421058D01*
Y421087D01*
Y421117D01*
Y421169D01*
Y421221D01*
Y421280D01*
X245066Y421346D01*
X245074Y421494D01*
X245089Y421672D01*
X245111Y421857D01*
X245148Y422049D01*
D02*
G37*
G36*
X97991Y421857D02*
X97954D01*
X97910Y421850D01*
X97858Y421842D01*
X97784Y421835D01*
X97710Y421827D01*
X97614Y421820D01*
X97518Y421813D01*
X97303Y421798D01*
X97066Y421783D01*
X96830Y421776D01*
X96600Y421768D01*
X94306D01*
X94232Y421776D01*
X94151D01*
X94055Y421783D01*
X93958D01*
X93847Y421790D01*
X93625Y421805D01*
X93381Y421827D01*
X93130Y421857D01*
Y421850D01*
X93144Y421827D01*
X93159Y421790D01*
X93189Y421739D01*
X93218Y421672D01*
X93255Y421591D01*
X93300Y421502D01*
X93352Y421398D01*
X93403Y421287D01*
X93463Y421169D01*
X93529Y421036D01*
X93596Y420895D01*
X93670Y420747D01*
X93744Y420592D01*
X93907Y420266D01*
X94077Y419918D01*
X94254Y419556D01*
X94439Y419186D01*
X94624Y418808D01*
X94817Y418431D01*
X95002Y418068D01*
X95179Y417713D01*
X95357Y417380D01*
X95350Y417373D01*
X95335Y417365D01*
X95313Y417343D01*
X95283Y417321D01*
X95239Y417284D01*
X95194Y417239D01*
X95076Y417143D01*
X94943Y417010D01*
X94795Y416855D01*
X94624Y416677D01*
X94454Y416485D01*
X94284Y416263D01*
X94121Y416026D01*
X93958Y415767D01*
X93818Y415493D01*
X93685Y415204D01*
X93588Y414908D01*
X93544Y414753D01*
X93507Y414598D01*
X93485Y414435D01*
X93470Y414272D01*
Y414265D01*
Y414257D01*
Y414235D01*
X93463Y414205D01*
Y414131D01*
Y414028D01*
Y414020D01*
Y414006D01*
Y413983D01*
X93470Y413946D01*
Y413902D01*
X93477Y413850D01*
X93492Y413791D01*
X93507Y413724D01*
X93544Y413569D01*
X93603Y413399D01*
X93685Y413214D01*
X93736Y413118D01*
X93788Y413021D01*
X93855Y412918D01*
X93929Y412822D01*
X94010Y412718D01*
X94106Y412622D01*
X94203Y412526D01*
X94314Y412429D01*
X94439Y412333D01*
X94573Y412244D01*
X94713Y412163D01*
X94869Y412082D01*
X95039Y412000D01*
X95224Y411934D01*
X95416Y411867D01*
X95623Y411815D01*
X95853Y411763D01*
X96090Y411726D01*
Y411734D01*
X96097Y411756D01*
X96104Y411786D01*
X96112Y411830D01*
X96134Y411882D01*
X96149Y411948D01*
X96171Y412015D01*
X96201Y412096D01*
X96267Y412281D01*
X96349Y412489D01*
X96445Y412711D01*
X96563Y412940D01*
X96541D01*
X96519Y412933D01*
X96489D01*
X96415Y412925D01*
X96312Y412910D01*
X96201Y412903D01*
X96082Y412888D01*
X95964Y412881D01*
X95786D01*
X95712Y412888D01*
X95623Y412896D01*
X95512Y412918D01*
X95387Y412940D01*
X95261Y412977D01*
X95120Y413021D01*
X94987Y413081D01*
X94854Y413155D01*
X94728Y413243D01*
X94617Y413354D01*
X94513Y413480D01*
X94439Y413628D01*
X94388Y413798D01*
X94365Y413895D01*
X94358Y413998D01*
Y414006D01*
Y414020D01*
Y414043D01*
X94365Y414080D01*
X94373Y414124D01*
X94380Y414183D01*
X94388Y414242D01*
X94402Y414316D01*
X94417Y414390D01*
X94432Y414479D01*
X94484Y414664D01*
X94550Y414879D01*
X94639Y415116D01*
X94743Y415360D01*
X94883Y415619D01*
X94957Y415752D01*
X95046Y415893D01*
X95142Y416026D01*
X95239Y416166D01*
X95350Y416307D01*
X95468Y416440D01*
X95601Y416581D01*
X95734Y416714D01*
X95882Y416855D01*
X96038Y416988D01*
X96208Y417121D01*
X96386Y417247D01*
Y417254D01*
X96371Y417269D01*
X96356Y417291D01*
X96341Y417328D01*
X96312Y417365D01*
X96282Y417417D01*
X96252Y417476D01*
X96215Y417550D01*
X96171Y417624D01*
X96119Y417706D01*
X96075Y417802D01*
X96016Y417898D01*
X95905Y418120D01*
X95771Y418364D01*
X95638Y418631D01*
X95490Y418919D01*
X95342Y419230D01*
X95187Y419556D01*
X95031Y419903D01*
X94876Y420259D01*
X94721Y420629D01*
X94573Y421006D01*
X97044D01*
Y409995D01*
Y409987D01*
Y409965D01*
Y409928D01*
Y409884D01*
Y409825D01*
X97037Y409751D01*
Y409669D01*
X97029Y409573D01*
Y409477D01*
X97022Y409366D01*
X97015Y409247D01*
X97007Y409122D01*
X96985Y408855D01*
X96955Y408574D01*
X97991D01*
Y408581D01*
X97984Y408604D01*
Y408641D01*
X97977Y408692D01*
X97969Y408759D01*
X97962Y408833D01*
X97954Y408914D01*
X97947Y409011D01*
X97940Y409114D01*
X97932Y409225D01*
X97917Y409462D01*
X97903Y409721D01*
Y409995D01*
Y420451D01*
Y420458D01*
Y420481D01*
Y420518D01*
Y420562D01*
Y420621D01*
X97910Y420688D01*
Y420769D01*
Y420865D01*
X97917Y420962D01*
X97925Y421073D01*
X97932Y421184D01*
X97940Y421309D01*
X97962Y421576D01*
X97991Y421857D01*
D02*
G37*
G36*
X92715Y421739D02*
X92686D01*
X92641Y421731D01*
X92589Y421724D01*
X92523Y421716D01*
X92449Y421709D01*
X92367Y421702D01*
X92271Y421694D01*
X92064Y421679D01*
X91835Y421665D01*
X91590Y421657D01*
X91354Y421650D01*
X87432D01*
X87365Y421657D01*
X87291D01*
X87210Y421665D01*
X87017Y421672D01*
X86817Y421687D01*
X86595Y421709D01*
X86381Y421739D01*
Y421731D01*
X86388Y421709D01*
Y421672D01*
X86396Y421628D01*
X86403Y421568D01*
X86410Y421502D01*
X86418Y421420D01*
X86425Y421339D01*
X86447Y421147D01*
X86462Y420939D01*
X86470Y420725D01*
X86477Y420510D01*
Y416470D01*
Y416462D01*
Y416448D01*
Y416418D01*
Y416381D01*
Y416329D01*
X86470Y416270D01*
Y416203D01*
X86462Y416129D01*
X86455Y415959D01*
X86433Y415759D01*
X86410Y415545D01*
X86381Y415315D01*
X86388D01*
X86410Y415323D01*
X86440D01*
X86484Y415330D01*
X86544Y415338D01*
X86610Y415345D01*
X86684Y415352D01*
X86766Y415360D01*
X86951Y415375D01*
X87158Y415389D01*
X87372Y415404D01*
X89356D01*
Y415389D01*
X89341Y415352D01*
X89333Y415286D01*
X89311Y415204D01*
X89282Y415101D01*
X89252Y414975D01*
X89208Y414834D01*
X89163Y414679D01*
X89111Y414509D01*
X89052Y414331D01*
X88978Y414146D01*
X88904Y413946D01*
X88815Y413747D01*
X88727Y413547D01*
X88623Y413340D01*
X88512Y413132D01*
X88505D01*
X88497Y413147D01*
X88475Y413162D01*
X88445Y413177D01*
X88408Y413206D01*
X88364Y413236D01*
X88253Y413310D01*
X88127Y413406D01*
X87979Y413517D01*
X87809Y413650D01*
X87631Y413791D01*
X87446Y413946D01*
X87247Y414109D01*
X87054Y414287D01*
X86854Y414472D01*
X86662Y414657D01*
X86477Y414857D01*
X86299Y415056D01*
X86137Y415256D01*
X85382Y414361D01*
X85374Y414353D01*
X85367Y414339D01*
X85330Y414294D01*
X85293Y414242D01*
X85286Y414213D01*
X85278Y414191D01*
Y414183D01*
X85293Y414161D01*
X85300Y414154D01*
X85308Y414146D01*
X85330Y414139D01*
X85360Y414124D01*
X85411Y414109D01*
X85471Y414102D01*
X85552Y414087D01*
X85567D01*
X85611Y414080D01*
X85670Y414057D01*
X85759Y414028D01*
X85863Y413991D01*
X85974Y413932D01*
X86100Y413858D01*
X86225Y413761D01*
X86240Y413754D01*
X86277Y413724D01*
X86329Y413680D01*
X86410Y413628D01*
X86507Y413562D01*
X86618Y413480D01*
X86743Y413391D01*
X86877Y413288D01*
X87017Y413184D01*
X87173Y413081D01*
X87483Y412851D01*
X87802Y412629D01*
X87950Y412518D01*
X88098Y412415D01*
Y412407D01*
X88083Y412392D01*
X88068Y412363D01*
X88046Y412326D01*
X88016Y412281D01*
X87979Y412230D01*
X87935Y412163D01*
X87890Y412096D01*
X87772Y411934D01*
X87624Y411749D01*
X87461Y411541D01*
X87261Y411327D01*
X87047Y411097D01*
X86803Y410868D01*
X86529Y410631D01*
X86233Y410402D01*
X85915Y410180D01*
X85567Y409973D01*
X85197Y409780D01*
X84805Y409610D01*
X84812Y409603D01*
X84834Y409595D01*
X84864Y409573D01*
X84908Y409543D01*
X84960Y409506D01*
X85027Y409469D01*
X85093Y409418D01*
X85175Y409358D01*
X85337Y409225D01*
X85515Y409070D01*
X85693Y408892D01*
X85863Y408692D01*
X85870Y408700D01*
X85900Y408722D01*
X85952Y408759D01*
X86011Y408811D01*
X86092Y408877D01*
X86188Y408966D01*
X86299Y409055D01*
X86418Y409166D01*
X86551Y409292D01*
X86692Y409425D01*
X86847Y409580D01*
X87010Y409743D01*
X87173Y409913D01*
X87350Y410106D01*
X87528Y410306D01*
X87705Y410520D01*
X87890Y410742D01*
X88083Y410979D01*
X88268Y411231D01*
X88453Y411490D01*
X88638Y411756D01*
X88815Y412045D01*
X88993Y412333D01*
X89171Y412637D01*
X89333Y412947D01*
X89496Y413273D01*
X89644Y413606D01*
X89785Y413946D01*
X89918Y414294D01*
X90036Y414657D01*
X90140Y415027D01*
X90236Y415404D01*
X91761D01*
Y410121D01*
X91746Y410128D01*
X91709Y410150D01*
X91650Y410180D01*
X91568Y410232D01*
X91472Y410291D01*
X91346Y410357D01*
X91206Y410446D01*
X91050Y410542D01*
X90880Y410646D01*
X90702Y410764D01*
X90503Y410898D01*
X90295Y411038D01*
X90073Y411194D01*
X89844Y411356D01*
X89615Y411527D01*
X89370Y411712D01*
Y411704D01*
Y411689D01*
Y411660D01*
Y411623D01*
X89363Y411571D01*
Y411512D01*
Y411453D01*
X89356Y411379D01*
X89341Y411208D01*
X89319Y411023D01*
X89289Y410824D01*
X89252Y410609D01*
X89259D01*
X89274Y410594D01*
X89296Y410579D01*
X89333Y410565D01*
X89378Y410535D01*
X89430Y410505D01*
X89489Y410476D01*
X89555Y410431D01*
X89718Y410343D01*
X89903Y410232D01*
X90110Y410106D01*
X90332Y409965D01*
X90569Y409817D01*
X90821Y409654D01*
X91087Y409484D01*
X91346Y409307D01*
X91879Y408929D01*
X92138Y408737D01*
X92390Y408544D01*
X93085Y409447D01*
X93078D01*
X93063Y409462D01*
X93041Y409477D01*
X93004Y409499D01*
X92967Y409529D01*
X92930Y409566D01*
X92885Y409610D01*
X92841Y409669D01*
X92797Y409743D01*
X92752Y409825D01*
X92715Y409913D01*
X92678Y410024D01*
X92649Y410143D01*
X92634Y410276D01*
X92626Y410431D01*
Y410594D01*
Y420362D01*
Y420370D01*
Y420392D01*
Y420421D01*
Y420466D01*
Y420525D01*
X92634Y420592D01*
Y420666D01*
Y420754D01*
X92641Y420851D01*
X92649Y420954D01*
X92656Y421065D01*
X92663Y421191D01*
X92686Y421450D01*
X92715Y421739D01*
D02*
G37*
G36*
X265476Y421605D02*
X265468D01*
X265453Y421598D01*
X265431D01*
X265394Y421591D01*
X265350Y421583D01*
X265298Y421568D01*
X265180Y421554D01*
X265039Y421531D01*
X264884Y421517D01*
X264713Y421509D01*
X255730D01*
X255611Y421517D01*
X255471Y421524D01*
X255308Y421546D01*
X255130Y421568D01*
X254938Y421605D01*
Y420621D01*
X254945D01*
X254960Y420629D01*
X254982D01*
X255019Y420636D01*
X255064Y420643D01*
X255108Y420658D01*
X255234Y420673D01*
X255375Y420695D01*
X255530Y420710D01*
X255693Y420717D01*
X260296D01*
Y420710D01*
Y420695D01*
Y420666D01*
Y420629D01*
Y420577D01*
X260303Y420525D01*
Y420458D01*
Y420377D01*
X260310Y420296D01*
Y420207D01*
X260318Y420000D01*
X260333Y419778D01*
X260347Y419526D01*
X260362Y419260D01*
X260377Y418978D01*
X260399Y418690D01*
X260421Y418394D01*
X260481Y417794D01*
X260518Y417498D01*
X260555Y417217D01*
X254546D01*
X254435Y417225D01*
X254294Y417232D01*
X254131Y417247D01*
X253946Y417269D01*
X253754Y417306D01*
Y416322D01*
X253761D01*
X253776Y416329D01*
X253806D01*
X253850Y416337D01*
X253895Y416344D01*
X253954Y416359D01*
X254080Y416374D01*
X254235Y416396D01*
X254398Y416411D01*
X254561Y416418D01*
X259038D01*
Y410986D01*
Y410979D01*
Y410964D01*
Y410935D01*
Y410890D01*
X259030Y410846D01*
Y410794D01*
X259008Y410683D01*
X258971Y410565D01*
X258919Y410454D01*
X258882Y410402D01*
X258838Y410365D01*
X258786Y410328D01*
X258727Y410306D01*
X258712Y410298D01*
X258690Y410291D01*
X258668Y410283D01*
X258623Y410276D01*
X258571Y410261D01*
X258505Y410246D01*
X258423Y410239D01*
X258320Y410224D01*
X258209Y410217D01*
X258068Y410202D01*
X257913Y410195D01*
X257735Y410187D01*
X257535Y410180D01*
X256707D01*
X256573Y410187D01*
X256433Y410195D01*
X256285Y410209D01*
X255974Y410239D01*
X255819Y410261D01*
X255678Y410291D01*
X255545Y410328D01*
X255434Y410372D01*
X255338Y410417D01*
X255264Y410476D01*
X255256D01*
X255249Y410491D01*
X255227Y410505D01*
X255197Y410535D01*
X255167Y410579D01*
X255130Y410631D01*
X255086Y410698D01*
X255042Y410779D01*
X254997Y410883D01*
X254945Y411001D01*
X254894Y411142D01*
X254842Y411297D01*
X254790Y411482D01*
X254738Y411689D01*
X254694Y411926D01*
X254649Y412185D01*
X254642Y412178D01*
X254627Y412163D01*
X254605Y412133D01*
X254568Y412096D01*
X254531Y412045D01*
X254479Y412000D01*
X254420Y411941D01*
X254361Y411889D01*
X254213Y411771D01*
X254043Y411667D01*
X253946Y411623D01*
X253850Y411586D01*
X253754Y411556D01*
X253650Y411541D01*
Y411534D01*
X253658Y411527D01*
X253665Y411504D01*
X253673Y411475D01*
X253695Y411393D01*
X253732Y411290D01*
X253776Y411171D01*
X253828Y411031D01*
X253895Y410883D01*
X253961Y410720D01*
X254117Y410394D01*
X254205Y410239D01*
X254302Y410091D01*
X254405Y409950D01*
X254501Y409832D01*
X254612Y409736D01*
X254723Y409662D01*
X254738Y409654D01*
X254783Y409625D01*
X254849Y409588D01*
X254953Y409543D01*
X255071Y409499D01*
X255219Y409447D01*
X255389Y409403D01*
X255582Y409366D01*
X255604D01*
X255634Y409358D01*
X255678Y409351D01*
X255730D01*
X255796Y409344D01*
X255870Y409336D01*
X255967Y409329D01*
X256070Y409321D01*
X256181Y409314D01*
X256314Y409307D01*
X256455D01*
X256610Y409299D01*
X256773Y409292D01*
X257447D01*
X257587Y409299D01*
X257750D01*
X257935Y409307D01*
X258120Y409314D01*
X258512Y409344D01*
X258705Y409358D01*
X258890Y409381D01*
X259060Y409410D01*
X259215Y409440D01*
X259341Y409477D01*
X259400Y409499D01*
X259445Y409521D01*
X259452D01*
X259467Y409529D01*
X259489Y409543D01*
X259526Y409566D01*
X259563Y409588D01*
X259607Y409625D01*
X259652Y409662D01*
X259704Y409714D01*
X259748Y409773D01*
X259792Y409847D01*
X259837Y409928D01*
X259866Y410024D01*
X259896Y410128D01*
X259918Y410246D01*
X259926Y410372D01*
Y410520D01*
Y416418D01*
X260695D01*
Y416403D01*
X260703Y416366D01*
X260717Y416300D01*
X260740Y416211D01*
X260762Y416107D01*
X260799Y415974D01*
X260843Y415819D01*
X260895Y415648D01*
X260954Y415463D01*
X261021Y415256D01*
X261102Y415042D01*
X261191Y414805D01*
X261295Y414553D01*
X261406Y414294D01*
X261531Y414028D01*
X261672Y413747D01*
X261820Y413458D01*
X261990Y413162D01*
X262168Y412859D01*
X262368Y412555D01*
X262582Y412237D01*
X262804Y411926D01*
X263048Y411608D01*
X263315Y411297D01*
X263596Y410979D01*
X263892Y410668D01*
X264210Y410357D01*
X264551Y410054D01*
X264906Y409751D01*
X265283Y409455D01*
X265683Y409173D01*
X266105Y408892D01*
Y408900D01*
X266119Y408922D01*
X266134Y408951D01*
X266164Y408996D01*
X266193Y409055D01*
X266230Y409114D01*
X266334Y409255D01*
X266460Y409410D01*
X266615Y409573D01*
X266793Y409728D01*
X266896Y409795D01*
X267000Y409862D01*
X266985Y409869D01*
X266956Y409876D01*
X266904Y409899D01*
X266830Y409936D01*
X266734Y409973D01*
X266623Y410024D01*
X266497Y410091D01*
X266356Y410158D01*
X266201Y410246D01*
X266038Y410343D01*
X265860Y410454D01*
X265668Y410579D01*
X265476Y410713D01*
X265268Y410861D01*
X265054Y411023D01*
X264839Y411208D01*
X264617Y411401D01*
X264395Y411608D01*
X264173Y411837D01*
X263944Y412074D01*
X263722Y412333D01*
X263500Y412614D01*
X263278Y412903D01*
X263063Y413221D01*
X262849Y413547D01*
X262649Y413895D01*
X262449Y414265D01*
X262264Y414657D01*
X262086Y415064D01*
X261916Y415493D01*
X261768Y415944D01*
X261628Y416418D01*
X265979D01*
X266038Y416411D01*
X266186Y416403D01*
X266356Y416381D01*
X266541Y416359D01*
X266748Y416322D01*
Y417306D01*
X266741D01*
X266726Y417299D01*
X266697D01*
X266667Y417291D01*
X266623Y417284D01*
X266571Y417276D01*
X266452Y417254D01*
X266312Y417239D01*
X266156Y417225D01*
X265994Y417217D01*
X261494D01*
Y417225D01*
Y417232D01*
X261487Y417254D01*
Y417284D01*
X261480Y417313D01*
X261472Y417358D01*
X261465Y417410D01*
X261457Y417469D01*
X261443Y417602D01*
X261420Y417772D01*
X261398Y417957D01*
X261376Y418179D01*
X261346Y418416D01*
X261324Y418682D01*
X261302Y418971D01*
X261272Y419282D01*
X261250Y419615D01*
X261235Y419963D01*
X261213Y420333D01*
X261198Y420717D01*
X264676D01*
X264787Y420710D01*
X264928Y420703D01*
X265083Y420680D01*
X265268Y420658D01*
X265476Y420621D01*
Y421605D01*
D02*
G37*
G36*
X218064Y422782D02*
X218056Y422775D01*
X218034Y422760D01*
X218005Y422730D01*
X217953Y422693D01*
X217894Y422641D01*
X217820Y422582D01*
X217738Y422508D01*
X217635Y422419D01*
X217524Y422323D01*
X217398Y422212D01*
X217265Y422094D01*
X217117Y421961D01*
X216954Y421813D01*
X216784Y421657D01*
X216599Y421487D01*
X216399Y421302D01*
X217013Y420651D01*
X215193D01*
X215163Y420658D01*
X215119D01*
X215067Y420666D01*
X215000D01*
X214926Y420673D01*
X214852Y420680D01*
X214756Y420688D01*
X214660Y420695D01*
X214549Y420703D01*
X214430Y420710D01*
X214305Y420725D01*
X214171Y420732D01*
X214023Y420747D01*
Y419792D01*
X214060D01*
X214097Y419800D01*
X214157Y419807D01*
X214223D01*
X214297Y419815D01*
X214386Y419822D01*
X214475Y419829D01*
X214667Y419844D01*
X214874Y419859D01*
X215067Y419874D01*
X215156Y419881D01*
X219544D01*
X219588Y419874D01*
X219714D01*
X219795Y419866D01*
X219892Y419859D01*
X219995Y419852D01*
X220114Y419844D01*
X220247Y419837D01*
X220395Y419822D01*
X220550Y419807D01*
X220728Y419792D01*
Y420747D01*
X220720D01*
X220691Y420740D01*
X220639D01*
X220580Y420732D01*
X220506Y420725D01*
X220417Y420717D01*
X220321Y420710D01*
X220225Y420703D01*
X220010Y420680D01*
X219795Y420666D01*
X219699Y420658D01*
X219603D01*
X219514Y420651D01*
X217161D01*
X217168Y420658D01*
X217191Y420680D01*
X217220Y420717D01*
X217265Y420769D01*
X217324Y420836D01*
X217398Y420917D01*
X217479Y421006D01*
X217575Y421102D01*
X217679Y421213D01*
X217797Y421324D01*
X217923Y421450D01*
X218056Y421583D01*
X218204Y421724D01*
X218367Y421864D01*
X218530Y422012D01*
X218708Y422168D01*
X218064Y422782D01*
D02*
G37*
G36*
X169675Y422908D02*
X168543Y422752D01*
X168513D01*
X168476Y422745D01*
X168439Y422738D01*
X168402Y422723D01*
X168365Y422708D01*
X168343Y422686D01*
X168328Y422664D01*
Y422649D01*
Y422634D01*
X168336Y422612D01*
X168351Y422582D01*
X168380Y422545D01*
X168410Y422501D01*
X168462Y422442D01*
X168476Y422427D01*
X168506Y422390D01*
X168543Y422331D01*
X168595Y422234D01*
X168647Y422116D01*
X168669Y422049D01*
X168684Y421968D01*
X168706Y421879D01*
X168713Y421790D01*
X168728Y421687D01*
Y421576D01*
Y420362D01*
X164954D01*
X164873Y420370D01*
X164776D01*
X164680Y420377D01*
X164569Y420384D01*
X164443Y420392D01*
X164310Y420407D01*
X164170Y420414D01*
X164014Y420436D01*
X163851Y420451D01*
Y420444D01*
Y420414D01*
X163859Y420370D01*
X163866Y420310D01*
X163874Y420236D01*
X163881Y420155D01*
X163888Y420059D01*
X163896Y419963D01*
X163911Y419741D01*
X163925Y419511D01*
X163933Y419289D01*
X163940Y419186D01*
Y419089D01*
Y414117D01*
Y414109D01*
Y414087D01*
Y414057D01*
Y414013D01*
Y413954D01*
X163933Y413880D01*
Y413806D01*
X163925Y413710D01*
Y413613D01*
X163918Y413502D01*
X163911Y413384D01*
X163903Y413258D01*
X163896Y413118D01*
X163881Y412977D01*
X163851Y412674D01*
X163859D01*
X163888Y412681D01*
X163925D01*
X163977Y412688D01*
X164044Y412696D01*
X164125Y412703D01*
X164214Y412711D01*
X164310Y412725D01*
X164525Y412740D01*
X164762Y412755D01*
X164998Y412762D01*
X165243Y412770D01*
X168728D01*
Y410720D01*
Y410705D01*
Y410676D01*
X168735Y410624D01*
Y410565D01*
Y410557D01*
Y410528D01*
X168728Y410476D01*
X168713Y410417D01*
X168691Y410350D01*
X168654Y410269D01*
X168610Y410187D01*
X168550Y410098D01*
X168469Y410017D01*
X168373Y409936D01*
X168247Y409862D01*
X168106Y409795D01*
X167936Y409743D01*
X167840Y409721D01*
X167736Y409706D01*
X167625Y409699D01*
X167507Y409691D01*
X167374Y409684D01*
X167241Y409691D01*
X164643D01*
X164562Y409699D01*
X164458D01*
X164347Y409714D01*
X164229Y409721D01*
X164103Y409743D01*
X163837Y409788D01*
X163703Y409825D01*
X163578Y409869D01*
X163459Y409913D01*
X163348Y409973D01*
X163252Y410039D01*
X163178Y410121D01*
X163171Y410128D01*
X163163Y410143D01*
X163141Y410165D01*
X163111Y410202D01*
X163082Y410246D01*
X163037Y410313D01*
X163000Y410387D01*
X162956Y410483D01*
X162912Y410594D01*
X162867Y410720D01*
X162823Y410868D01*
X162778Y411031D01*
X162741Y411216D01*
X162704Y411423D01*
X162675Y411652D01*
X162653Y411904D01*
X162645Y411897D01*
X162630Y411882D01*
X162608Y411860D01*
X162571Y411830D01*
X162527Y411793D01*
X162475Y411756D01*
X162408Y411712D01*
X162342Y411660D01*
X162186Y411549D01*
X162009Y411445D01*
X161816Y411334D01*
X161609Y411245D01*
Y411238D01*
X161617Y411231D01*
X161624Y411208D01*
X161631Y411179D01*
X161654Y411105D01*
X161691Y411001D01*
X161735Y410883D01*
X161787Y410750D01*
X161846Y410602D01*
X161920Y410446D01*
X162075Y410121D01*
X162157Y409958D01*
X162246Y409810D01*
X162342Y409662D01*
X162445Y409536D01*
X162549Y409425D01*
X162653Y409336D01*
X162660Y409329D01*
X162675Y409314D01*
X162712Y409299D01*
X162756Y409270D01*
X162815Y409233D01*
X162889Y409196D01*
X162978Y409159D01*
X163089Y409122D01*
X163208Y409077D01*
X163348Y409040D01*
X163511Y409003D01*
X163689Y408974D01*
X163888Y408951D01*
X164103Y408929D01*
X164340Y408922D01*
X167588D01*
X167648Y408929D01*
X167714D01*
X167796Y408937D01*
X167958Y408951D01*
X168151Y408981D01*
X168351Y409025D01*
X168558Y409085D01*
X168765Y409159D01*
X168957Y409255D01*
X169142Y409381D01*
X169298Y409529D01*
X169372Y409610D01*
X169431Y409706D01*
X169483Y409802D01*
X169527Y409913D01*
X169557Y410032D01*
X169579Y410150D01*
X169594Y410291D01*
X169586Y410431D01*
Y412770D01*
X172865D01*
X172939Y412762D01*
X173027D01*
X173116Y412755D01*
X173227D01*
X173338Y412748D01*
X173464Y412740D01*
X173590Y412733D01*
X173871Y412703D01*
X174174Y412674D01*
Y412681D01*
X174167Y412711D01*
Y412762D01*
X174160Y412822D01*
X174152Y412903D01*
X174145Y412992D01*
X174137Y413088D01*
X174123Y413199D01*
X174108Y413428D01*
X174093Y413673D01*
X174086Y413909D01*
X174078Y414028D01*
Y414131D01*
Y418919D01*
Y418927D01*
Y418949D01*
Y418993D01*
Y419045D01*
Y419104D01*
X174086Y419186D01*
Y419274D01*
X174093Y419378D01*
Y419482D01*
X174100Y419600D01*
X174108Y419726D01*
X174115Y419859D01*
X174145Y420148D01*
X174174Y420451D01*
X174130D01*
X174086Y420444D01*
X174019Y420436D01*
X173945Y420429D01*
X173856Y420421D01*
X173753Y420414D01*
X173649Y420407D01*
X173420Y420392D01*
X173183Y420377D01*
X172953Y420370D01*
X172842Y420362D01*
X169586D01*
Y421480D01*
Y421487D01*
Y421509D01*
Y421539D01*
Y421583D01*
Y421635D01*
X169594Y421709D01*
Y421783D01*
Y421872D01*
X169601Y421968D01*
X169609Y422079D01*
X169616Y422197D01*
X169623Y422323D01*
X169631Y422456D01*
X169646Y422597D01*
X169660Y422752D01*
X169675Y422908D01*
D02*
G37*
G36*
X138995D02*
X137863Y422752D01*
X137833D01*
X137796Y422745D01*
X137759Y422738D01*
X137722Y422723D01*
X137685Y422708D01*
X137663Y422686D01*
X137648Y422664D01*
Y422649D01*
Y422634D01*
X137655Y422612D01*
X137670Y422582D01*
X137700Y422545D01*
X137729Y422501D01*
X137781Y422442D01*
X137796Y422427D01*
X137826Y422390D01*
X137863Y422331D01*
X137914Y422234D01*
X137966Y422116D01*
X137988Y422049D01*
X138003Y421968D01*
X138025Y421879D01*
X138033Y421790D01*
X138048Y421687D01*
Y421576D01*
Y420362D01*
X134274D01*
X134192Y420370D01*
X134096D01*
X134000Y420377D01*
X133889Y420384D01*
X133763Y420392D01*
X133630Y420407D01*
X133489Y420414D01*
X133334Y420436D01*
X133171Y420451D01*
Y420444D01*
Y420414D01*
X133178Y420370D01*
X133186Y420310D01*
X133193Y420236D01*
X133201Y420155D01*
X133208Y420059D01*
X133215Y419963D01*
X133230Y419741D01*
X133245Y419511D01*
X133252Y419289D01*
X133260Y419186D01*
Y419089D01*
Y414117D01*
Y414109D01*
Y414087D01*
Y414057D01*
Y414013D01*
Y413954D01*
X133252Y413880D01*
Y413806D01*
X133245Y413710D01*
Y413613D01*
X133238Y413502D01*
X133230Y413384D01*
X133223Y413258D01*
X133215Y413118D01*
X133201Y412977D01*
X133171Y412674D01*
X133178D01*
X133208Y412681D01*
X133245D01*
X133297Y412688D01*
X133363Y412696D01*
X133445Y412703D01*
X133534Y412711D01*
X133630Y412725D01*
X133844Y412740D01*
X134081Y412755D01*
X134318Y412762D01*
X134562Y412770D01*
X138048D01*
Y410720D01*
Y410705D01*
Y410676D01*
X138055Y410624D01*
Y410565D01*
Y410557D01*
Y410528D01*
X138048Y410476D01*
X138033Y410417D01*
X138011Y410350D01*
X137974Y410269D01*
X137929Y410187D01*
X137870Y410098D01*
X137789Y410017D01*
X137692Y409936D01*
X137567Y409862D01*
X137426Y409795D01*
X137256Y409743D01*
X137160Y409721D01*
X137056Y409706D01*
X136945Y409699D01*
X136827Y409691D01*
X136693Y409684D01*
X136560Y409691D01*
X133963D01*
X133881Y409699D01*
X133778D01*
X133667Y409714D01*
X133548Y409721D01*
X133423Y409743D01*
X133156Y409788D01*
X133023Y409825D01*
X132897Y409869D01*
X132779Y409913D01*
X132668Y409973D01*
X132572Y410039D01*
X132498Y410121D01*
X132490Y410128D01*
X132483Y410143D01*
X132461Y410165D01*
X132431Y410202D01*
X132401Y410246D01*
X132357Y410313D01*
X132320Y410387D01*
X132276Y410483D01*
X132231Y410594D01*
X132187Y410720D01*
X132142Y410868D01*
X132098Y411031D01*
X132061Y411216D01*
X132024Y411423D01*
X131994Y411652D01*
X131972Y411904D01*
X131965Y411897D01*
X131950Y411882D01*
X131928Y411860D01*
X131891Y411830D01*
X131846Y411793D01*
X131795Y411756D01*
X131728Y411712D01*
X131661Y411660D01*
X131506Y411549D01*
X131328Y411445D01*
X131136Y411334D01*
X130929Y411245D01*
Y411238D01*
X130936Y411231D01*
X130944Y411208D01*
X130951Y411179D01*
X130973Y411105D01*
X131010Y411001D01*
X131055Y410883D01*
X131106Y410750D01*
X131166Y410602D01*
X131240Y410446D01*
X131395Y410121D01*
X131476Y409958D01*
X131565Y409810D01*
X131661Y409662D01*
X131765Y409536D01*
X131869Y409425D01*
X131972Y409336D01*
X131980Y409329D01*
X131994Y409314D01*
X132031Y409299D01*
X132076Y409270D01*
X132135Y409233D01*
X132209Y409196D01*
X132298Y409159D01*
X132409Y409122D01*
X132527Y409077D01*
X132668Y409040D01*
X132831Y409003D01*
X133008Y408974D01*
X133208Y408951D01*
X133423Y408929D01*
X133659Y408922D01*
X136908D01*
X136967Y408929D01*
X137034D01*
X137115Y408937D01*
X137278Y408951D01*
X137470Y408981D01*
X137670Y409025D01*
X137877Y409085D01*
X138085Y409159D01*
X138277Y409255D01*
X138462Y409381D01*
X138617Y409529D01*
X138691Y409610D01*
X138751Y409706D01*
X138802Y409802D01*
X138847Y409913D01*
X138876Y410032D01*
X138899Y410150D01*
X138913Y410291D01*
X138906Y410431D01*
Y412770D01*
X142184D01*
X142258Y412762D01*
X142347D01*
X142436Y412755D01*
X142547D01*
X142658Y412748D01*
X142784Y412740D01*
X142909Y412733D01*
X143191Y412703D01*
X143494Y412674D01*
Y412681D01*
X143487Y412711D01*
Y412762D01*
X143479Y412822D01*
X143472Y412903D01*
X143464Y412992D01*
X143457Y413088D01*
X143442Y413199D01*
X143427Y413428D01*
X143413Y413673D01*
X143405Y413909D01*
X143398Y414028D01*
Y414131D01*
Y418919D01*
Y418927D01*
Y418949D01*
Y418993D01*
Y419045D01*
Y419104D01*
X143405Y419186D01*
Y419274D01*
X143413Y419378D01*
Y419482D01*
X143420Y419600D01*
X143427Y419726D01*
X143435Y419859D01*
X143464Y420148D01*
X143494Y420451D01*
X143450D01*
X143405Y420444D01*
X143339Y420436D01*
X143265Y420429D01*
X143176Y420421D01*
X143072Y420414D01*
X142969Y420407D01*
X142739Y420392D01*
X142502Y420377D01*
X142273Y420370D01*
X142162Y420362D01*
X138906D01*
Y421480D01*
Y421487D01*
Y421509D01*
Y421539D01*
Y421583D01*
Y421635D01*
X138913Y421709D01*
Y421783D01*
Y421872D01*
X138921Y421968D01*
X138928Y422079D01*
X138936Y422197D01*
X138943Y422323D01*
X138950Y422456D01*
X138965Y422597D01*
X138980Y422752D01*
X138995Y422908D01*
D02*
G37*
G36*
X249070Y422708D02*
X248130Y422234D01*
X248123Y422227D01*
X248100Y422220D01*
X248071Y422197D01*
X248034Y422183D01*
X248004Y422153D01*
X247975Y422131D01*
X247952Y422101D01*
X247945Y422079D01*
Y422064D01*
X247952Y422049D01*
X247975Y422035D01*
X247997Y422012D01*
X248034Y421983D01*
X248086Y421961D01*
X248160Y421931D01*
X248167D01*
X248174Y421924D01*
X248219Y421901D01*
X248285Y421857D01*
X248367Y421798D01*
X248456Y421716D01*
X248552Y421613D01*
X248641Y421487D01*
X248729Y421332D01*
Y421324D01*
X248737Y421309D01*
X248752Y421280D01*
X248766Y421250D01*
X248789Y421198D01*
X248818Y421147D01*
X248848Y421080D01*
X248885Y421013D01*
X248966Y420851D01*
X249070Y420658D01*
X249181Y420451D01*
X249307Y420222D01*
X246768D01*
X246724Y420229D01*
X246613Y420236D01*
X246480Y420244D01*
X246317Y420266D01*
X246139Y420288D01*
X245947Y420318D01*
Y419363D01*
X245954D01*
X245977Y419371D01*
X246006D01*
X246043Y419378D01*
X246095Y419385D01*
X246154Y419400D01*
X246287Y419415D01*
X246435Y419437D01*
X246591Y419452D01*
X246739Y419459D01*
X249728D01*
X249736Y419445D01*
X249758Y419415D01*
X249802Y419356D01*
X249854Y419289D01*
X249921Y419193D01*
X249995Y419089D01*
X250084Y418971D01*
X250180Y418845D01*
X250291Y418705D01*
X250402Y418557D01*
X250646Y418246D01*
X250898Y417920D01*
X251164Y417602D01*
X251171Y417609D01*
X251186Y417624D01*
X251208Y417646D01*
X251238Y417676D01*
X251282Y417706D01*
X251334Y417750D01*
X251445Y417839D01*
X251586Y417935D01*
X251741Y418031D01*
X251911Y418120D01*
X252082Y418179D01*
X252074Y418187D01*
X252059Y418194D01*
X252037Y418216D01*
X252008Y418238D01*
X251963Y418275D01*
X251919Y418320D01*
X251860Y418372D01*
X251793Y418431D01*
X251726Y418505D01*
X251645Y418579D01*
X251564Y418668D01*
X251475Y418764D01*
X251379Y418867D01*
X251282Y418978D01*
X251179Y419104D01*
X251068Y419237D01*
X250957Y419378D01*
X250838Y419526D01*
X250720Y419689D01*
X250602Y419859D01*
X250476Y420044D01*
X250350Y420229D01*
X250224Y420429D01*
X250098Y420643D01*
X249965Y420865D01*
X249839Y421095D01*
X249706Y421339D01*
X249580Y421591D01*
X249447Y421850D01*
X249321Y422123D01*
X249196Y422412D01*
X249070Y422708D01*
D02*
G37*
G36*
X230577Y422782D02*
X230570Y422775D01*
X230555Y422760D01*
X230518Y422738D01*
X230481Y422708D01*
X230422Y422664D01*
X230355Y422612D01*
X230281Y422553D01*
X230192Y422486D01*
X230096Y422405D01*
X229985Y422323D01*
X229859Y422227D01*
X229734Y422123D01*
X229586Y422012D01*
X229438Y421894D01*
X229275Y421768D01*
X229105Y421635D01*
X229097Y421628D01*
X229082Y421613D01*
X229053Y421591D01*
X229016Y421561D01*
X228971Y421531D01*
X228920Y421487D01*
X228794Y421391D01*
X228668Y421287D01*
X228535Y421184D01*
X228416Y421087D01*
X228357Y421043D01*
X228313Y421006D01*
X228986Y420222D01*
X229001Y420236D01*
X229031Y420266D01*
X229090Y420325D01*
X229164Y420399D01*
X229260Y420495D01*
X229371Y420599D01*
X229497Y420725D01*
X229637Y420851D01*
X229800Y420999D01*
X229970Y421147D01*
X230155Y421295D01*
X230348Y421457D01*
X230548Y421613D01*
X230762Y421776D01*
X231206Y422079D01*
X230577Y422782D01*
D02*
G37*
G36*
X236623Y420207D02*
X236586D01*
X236542Y420199D01*
X236482Y420192D01*
X236408D01*
X236320Y420185D01*
X236231Y420177D01*
X236127Y420170D01*
X235898Y420155D01*
X235661Y420140D01*
X235432Y420125D01*
X235210Y420118D01*
X224176D01*
X224117Y420125D01*
X224043D01*
X223954Y420133D01*
X223865D01*
X223754Y420140D01*
X223636Y420148D01*
X223503Y420155D01*
X223362Y420162D01*
X223207Y420177D01*
X223044Y420192D01*
X222866Y420207D01*
Y419252D01*
X222874D01*
X222903Y419260D01*
X222948D01*
X223000Y419267D01*
X223074Y419274D01*
X223155Y419282D01*
X223251Y419289D01*
X223347Y419297D01*
X223458Y419304D01*
X223577Y419311D01*
X223821Y419326D01*
X224073Y419341D01*
X224317Y419348D01*
X229275D01*
Y417232D01*
X226204D01*
X226145Y417239D01*
X226063D01*
X225974Y417247D01*
X225871D01*
X225760Y417254D01*
X225627Y417262D01*
X225486Y417269D01*
X225331Y417276D01*
X225160Y417291D01*
X224983Y417306D01*
X224783Y417321D01*
Y417313D01*
Y417284D01*
X224790Y417232D01*
X224798Y417173D01*
Y417099D01*
X224805Y417010D01*
X224813Y416906D01*
X224820Y416803D01*
X224835Y416573D01*
X224850Y416337D01*
X224864Y416100D01*
X224872Y415989D01*
Y415885D01*
Y411697D01*
Y411689D01*
Y411660D01*
Y411615D01*
Y411564D01*
X224879Y411497D01*
X224887Y411423D01*
X224916Y411253D01*
X224961Y411075D01*
X224998Y410986D01*
X225042Y410898D01*
X225094Y410824D01*
X225153Y410750D01*
X225220Y410690D01*
X225301Y410639D01*
X225308D01*
X225323Y410624D01*
X225345Y410616D01*
X225390Y410594D01*
X225442Y410572D01*
X225508Y410550D01*
X225590Y410520D01*
X225693Y410491D01*
X225812Y410461D01*
X225952Y410424D01*
X226108Y410394D01*
X226293Y410365D01*
X226492Y410335D01*
X226722Y410306D01*
X226973Y410283D01*
X227247Y410261D01*
Y410269D01*
Y410291D01*
X227255Y410320D01*
Y410357D01*
X227262Y410409D01*
X227277Y410476D01*
X227292Y410542D01*
X227314Y410624D01*
X227366Y410794D01*
X227403Y410890D01*
X227447Y410986D01*
X227506Y411090D01*
X227565Y411194D01*
X227632Y411297D01*
X227713Y411401D01*
X227706D01*
X227684Y411393D01*
X227654D01*
X227617Y411386D01*
X227565Y411379D01*
X227506Y411371D01*
X227366Y411349D01*
X227203Y411327D01*
X227033Y411312D01*
X226862Y411305D01*
X226700Y411297D01*
X226448D01*
X226359Y411290D01*
X226159Y411282D01*
X225967Y411268D01*
X225878Y411260D01*
X225797Y411245D01*
X225738Y411231D01*
X225693Y411216D01*
X225686Y411194D01*
X225678Y411179D01*
X225671Y411164D01*
X225664Y411171D01*
Y411194D01*
X225693Y411216D01*
X225701Y411245D01*
Y411290D01*
X225708Y411349D01*
X225715Y411416D01*
Y411504D01*
X225723Y411608D01*
Y411734D01*
Y411874D01*
Y411882D01*
Y411911D01*
X225730Y411956D01*
X225738Y412015D01*
Y416470D01*
X229275D01*
Y410039D01*
Y410032D01*
Y410017D01*
Y409980D01*
X229267Y409936D01*
Y409884D01*
Y409817D01*
X229260Y409736D01*
Y409647D01*
X229253Y409543D01*
X229245Y409432D01*
X229238Y409307D01*
X229230Y409173D01*
X229216Y409025D01*
X229208Y408870D01*
X229193Y408707D01*
X229179Y408530D01*
X230229D01*
Y408537D01*
X230222Y408574D01*
Y408618D01*
X230215Y408685D01*
X230207Y408759D01*
X230200Y408848D01*
X230192Y408951D01*
X230185Y409062D01*
X230170Y409299D01*
X230155Y409551D01*
X230141Y409802D01*
X230133Y409928D01*
Y410039D01*
Y416470D01*
X233552D01*
Y411541D01*
Y411534D01*
Y411519D01*
Y411490D01*
X233545Y411453D01*
Y411401D01*
Y411349D01*
X233537Y411275D01*
Y411201D01*
X233530Y411120D01*
X233522Y411023D01*
X233508Y410824D01*
X233485Y410587D01*
X233463Y410335D01*
X234507D01*
Y410343D01*
Y410365D01*
X234499Y410402D01*
X234492Y410454D01*
Y410513D01*
X234484Y410579D01*
X234477Y410661D01*
X234470Y410742D01*
X234455Y410935D01*
X234440Y411134D01*
X234425Y411342D01*
X234418Y411541D01*
Y415915D01*
Y415922D01*
Y415937D01*
Y415959D01*
Y415996D01*
Y416041D01*
X234425Y416100D01*
Y416166D01*
Y416240D01*
X234433Y416337D01*
X234440Y416440D01*
X234447Y416551D01*
X234455Y416677D01*
X234462Y416818D01*
X234477Y416973D01*
X234492Y417143D01*
X234507Y417321D01*
X234470D01*
X234425Y417313D01*
X234366Y417306D01*
X234292D01*
X234211Y417299D01*
X234114Y417291D01*
X234011Y417284D01*
X233789Y417269D01*
X233545Y417254D01*
X233308Y417239D01*
X233086Y417232D01*
X230133D01*
Y419348D01*
X235358D01*
X235417Y419341D01*
X235491D01*
X235580Y419334D01*
X235676D01*
X235779Y419326D01*
X235898Y419319D01*
X236024Y419311D01*
X236157Y419297D01*
X236305Y419282D01*
X236460Y419267D01*
X236623Y419252D01*
Y420207D01*
D02*
G37*
G36*
X67252Y419001D02*
X67244D01*
X67237Y418993D01*
X67215D01*
X67185Y418986D01*
X67141Y418978D01*
X67096Y418971D01*
X67037Y418964D01*
X66971Y418956D01*
X66889Y418941D01*
X66800Y418934D01*
X66697Y418927D01*
X66586Y418919D01*
X66460Y418912D01*
X66327D01*
X66179Y418904D01*
X58949D01*
X58868Y418912D01*
X58779D01*
X58683Y418919D01*
X58475Y418927D01*
X58261Y418949D01*
X58054Y418971D01*
X57965Y418986D01*
X57876Y419001D01*
Y418046D01*
X57883D01*
X57898Y418053D01*
X57928D01*
X57965Y418061D01*
X58017Y418068D01*
X58076Y418076D01*
X58150Y418083D01*
X58231Y418090D01*
X58320Y418098D01*
X58416Y418105D01*
X58520Y418113D01*
X58631Y418120D01*
X58757Y418127D01*
X58882Y418135D01*
X66223D01*
X66297Y418127D01*
X66475D01*
X66675Y418113D01*
X66882Y418098D01*
X67074Y418076D01*
X67170Y418061D01*
X67252Y418046D01*
Y419001D01*
D02*
G37*
G36*
X180450Y422094D02*
X180442Y422086D01*
X180413Y422049D01*
X180361Y421998D01*
X180294Y421924D01*
X180213Y421827D01*
X180109Y421716D01*
X179991Y421583D01*
X179858Y421428D01*
X179717Y421258D01*
X179554Y421065D01*
X179384Y420858D01*
X179192Y420636D01*
X178999Y420399D01*
X178785Y420140D01*
X178570Y419866D01*
X178341Y419578D01*
X179118Y418890D01*
Y418897D01*
X179132Y418912D01*
X179147Y418934D01*
X179169Y418964D01*
X179199Y419001D01*
X179229Y419045D01*
X179317Y419163D01*
X179421Y419297D01*
X179539Y419459D01*
X179673Y419630D01*
X179821Y419822D01*
X179983Y420022D01*
X180146Y420236D01*
X180509Y420658D01*
X180694Y420873D01*
X180879Y421073D01*
X181056Y421272D01*
X181241Y421450D01*
X180450Y422094D01*
D02*
G37*
G36*
X250935Y417676D02*
X250927D01*
X250912Y417669D01*
X250883D01*
X250846Y417661D01*
X250801Y417654D01*
X250742Y417639D01*
X250616Y417624D01*
X250476Y417602D01*
X250313Y417587D01*
X250158Y417580D01*
X247494D01*
X247383Y417587D01*
X247242Y417595D01*
X247087Y417617D01*
X246902Y417639D01*
X246702Y417676D01*
Y416721D01*
X246709D01*
X246731Y416729D01*
X246761D01*
X246805Y416736D01*
X246857Y416744D01*
X246909Y416758D01*
X247050Y416773D01*
X247198Y416795D01*
X247353Y416810D01*
X247501Y416818D01*
X248500D01*
Y414627D01*
X246931D01*
X246820Y414635D01*
X246687Y414642D01*
X246539Y414657D01*
X246369Y414679D01*
X246184Y414716D01*
Y413761D01*
X246191D01*
X246206Y413769D01*
X246236D01*
X246273Y413776D01*
X246324Y413784D01*
X246376Y413791D01*
X246502Y413813D01*
X246650Y413828D01*
X246798Y413843D01*
X246953Y413850D01*
X248500D01*
Y410261D01*
X248493D01*
X248485Y410276D01*
X248463Y410283D01*
X248433Y410306D01*
X248359Y410357D01*
X248256Y410424D01*
X248137Y410505D01*
X247997Y410602D01*
X247841Y410713D01*
X247679Y410824D01*
X247346Y411068D01*
X247175Y411186D01*
X247013Y411312D01*
X246857Y411438D01*
X246717Y411549D01*
X246591Y411660D01*
X246487Y411756D01*
X246184Y410794D01*
X246191D01*
X246199Y410787D01*
X246221Y410772D01*
X246243Y410757D01*
X246317Y410705D01*
X246421Y410646D01*
X246546Y410565D01*
X246694Y410461D01*
X246865Y410350D01*
X247057Y410224D01*
X247264Y410084D01*
X247494Y409928D01*
X247730Y409758D01*
X247982Y409580D01*
X248248Y409388D01*
X248515Y409181D01*
X248796Y408974D01*
X249085Y408752D01*
X249773Y409721D01*
X249765D01*
X249751Y409736D01*
X249728Y409751D01*
X249699Y409765D01*
X249625Y409817D01*
X249536Y409891D01*
X249455Y409980D01*
X249381Y410076D01*
X249351Y410128D01*
X249329Y410187D01*
X249321Y410246D01*
Y410306D01*
Y413850D01*
X250816D01*
X250868Y413843D01*
X250986D01*
X251127Y413828D01*
X251297Y413813D01*
X251482Y413791D01*
X251689Y413761D01*
Y414716D01*
X251682D01*
X251667Y414709D01*
X251638D01*
X251601Y414701D01*
X251556Y414694D01*
X251504Y414686D01*
X251379Y414664D01*
X251238Y414649D01*
X251075Y414635D01*
X250912Y414627D01*
X249321D01*
Y416818D01*
X250143D01*
X250209Y416810D01*
X250350Y416803D01*
X250520Y416781D01*
X250720Y416758D01*
X250935Y416721D01*
Y417676D01*
D02*
G37*
G36*
X208784Y422590D02*
X207985Y421753D01*
X207978Y421746D01*
X207963Y421731D01*
X207926Y421687D01*
X207911Y421657D01*
X207896Y421628D01*
X207889Y421598D01*
X207896Y421568D01*
X207904Y421561D01*
X207911Y421554D01*
X207933Y421539D01*
X207963Y421531D01*
X207992Y421524D01*
X208118D01*
X208163Y421531D01*
X208399D01*
X208444Y421524D01*
X208488D01*
X208607Y421509D01*
X208740Y421494D01*
X208888Y421465D01*
X209051Y421428D01*
X209213Y421376D01*
X209221D01*
X209250Y421361D01*
X209302Y421346D01*
X209376Y421324D01*
X209465Y421295D01*
X209583Y421258D01*
X209724Y421213D01*
X209894Y421169D01*
X210087Y421110D01*
X210301Y421043D01*
X210553Y420969D01*
X210827Y420895D01*
X210975Y420851D01*
X211130Y420806D01*
X211293Y420762D01*
X211470Y420710D01*
X211648Y420658D01*
X211833Y420606D01*
X212025Y420555D01*
X212233Y420495D01*
Y417461D01*
X208385D01*
X208325Y417469D01*
X208266D01*
X208192Y417476D01*
X208111D01*
X208022Y417484D01*
X207918Y417491D01*
X207807Y417498D01*
X207689Y417506D01*
X207563Y417521D01*
X207423Y417535D01*
X207275Y417550D01*
Y416603D01*
X207312D01*
X207349Y416610D01*
X207400Y416618D01*
X207467D01*
X207541Y416625D01*
X207622Y416633D01*
X207719Y416640D01*
X207911Y416655D01*
X208118Y416670D01*
X208318Y416684D01*
X208503Y416692D01*
X209273D01*
Y410150D01*
Y410143D01*
Y410121D01*
Y410091D01*
X209265Y410039D01*
Y409980D01*
X209258Y409913D01*
Y409832D01*
X209250Y409743D01*
X209243Y409647D01*
X209236Y409543D01*
X209221Y409314D01*
X209206Y409055D01*
X209184Y408789D01*
X210220D01*
Y408796D01*
X210212Y408833D01*
Y408877D01*
X210205Y408944D01*
X210198Y409018D01*
X210190Y409107D01*
X210183Y409203D01*
X210175Y409307D01*
X210161Y409529D01*
X210146Y409758D01*
X210138Y409869D01*
X210131Y409965D01*
Y410061D01*
Y410150D01*
Y416692D01*
X212218D01*
Y416684D01*
Y416655D01*
Y416603D01*
Y416544D01*
Y416462D01*
Y416366D01*
Y416255D01*
Y416137D01*
Y416004D01*
Y415856D01*
X212225Y415700D01*
Y415537D01*
X212233Y415367D01*
Y415190D01*
X212247Y414820D01*
X212262Y414427D01*
X212284Y414035D01*
X212307Y413643D01*
X212344Y413258D01*
X212381Y412896D01*
X212403Y412718D01*
X212432Y412555D01*
X212455Y412392D01*
X212484Y412252D01*
X212514Y412111D01*
X212551Y411985D01*
Y411978D01*
X212558Y411971D01*
Y411948D01*
X212566Y411919D01*
X212580Y411882D01*
X212595Y411837D01*
X212625Y411734D01*
X212677Y411593D01*
X212736Y411430D01*
X212810Y411245D01*
X212899Y411038D01*
X213002Y410809D01*
X213128Y410557D01*
X213269Y410291D01*
X213431Y410002D01*
X213609Y409706D01*
X213809Y409395D01*
X214031Y409070D01*
X214275Y408737D01*
Y408744D01*
X214290Y408752D01*
X214305Y408774D01*
X214334Y408803D01*
X214371Y408833D01*
X214408Y408877D01*
X214512Y408966D01*
X214645Y409070D01*
X214808Y409181D01*
X215000Y409292D01*
X215222Y409395D01*
X215215D01*
X215207Y409410D01*
X215163Y409447D01*
X215096Y409514D01*
X215008Y409595D01*
X214904Y409706D01*
X214786Y409832D01*
X214652Y409980D01*
X214512Y410150D01*
X214371Y410328D01*
X214223Y410528D01*
X214083Y410742D01*
X213942Y410972D01*
X213809Y411208D01*
X213690Y411460D01*
X213587Y411719D01*
X213505Y411985D01*
Y411993D01*
X213498Y412000D01*
Y412022D01*
X213483Y412052D01*
X213476Y412089D01*
X213468Y412133D01*
X213454Y412193D01*
X213439Y412259D01*
X213424Y412333D01*
X213409Y412415D01*
X213387Y412503D01*
X213372Y412607D01*
X213350Y412718D01*
X213335Y412836D01*
X213313Y412962D01*
X213291Y413103D01*
X213276Y413251D01*
X213254Y413406D01*
X213232Y413576D01*
X213217Y413754D01*
X213195Y413946D01*
X213180Y414146D01*
X213165Y414353D01*
X213150Y414575D01*
X213135Y414805D01*
X213121Y415042D01*
X213113Y415301D01*
X213106Y415560D01*
X213098Y415833D01*
X213091Y416122D01*
Y416418D01*
Y416721D01*
Y419866D01*
Y419874D01*
Y419889D01*
Y419911D01*
Y419940D01*
X213098Y419992D01*
Y420059D01*
X213106Y420148D01*
Y420155D01*
Y420177D01*
X213113Y420207D01*
Y420251D01*
X213121Y420303D01*
X213128Y420362D01*
X213135Y420436D01*
Y420510D01*
X213150Y420680D01*
X213165Y420865D01*
X213180Y421058D01*
X213195Y421250D01*
X213172D01*
X213143Y421243D01*
X213113D01*
X213024Y421235D01*
X212928Y421228D01*
X212847D01*
X212810Y421235D01*
X212758D01*
X212691Y421243D01*
X212625Y421250D01*
X212551Y421265D01*
X212462Y421272D01*
X212277Y421309D01*
X212062Y421354D01*
X211818Y421420D01*
X211811D01*
X211796Y421428D01*
X211766Y421435D01*
X211729Y421443D01*
X211678Y421457D01*
X211618Y421472D01*
X211552Y421494D01*
X211478Y421517D01*
X211396Y421539D01*
X211308Y421568D01*
X211108Y421628D01*
X210893Y421694D01*
X210656Y421776D01*
X210412Y421857D01*
X210161Y421953D01*
X209909Y422049D01*
X209657Y422146D01*
X209413Y422257D01*
X209184Y422360D01*
X208977Y422479D01*
X208784Y422590D01*
D02*
G37*
G36*
X183313Y422575D02*
X182166Y422397D01*
X182159D01*
X182129Y422390D01*
X182092Y422382D01*
X182048Y422375D01*
X182011Y422368D01*
X181974Y422353D01*
X181944Y422338D01*
X181937Y422323D01*
Y422316D01*
X181930Y422301D01*
X181937Y422279D01*
X181952Y422249D01*
X181974Y422212D01*
X182004Y422168D01*
X182055Y422109D01*
X182070Y422094D01*
X182107Y422049D01*
X182159Y421983D01*
X182211Y421879D01*
X182270Y421753D01*
X182314Y421598D01*
X182344Y421420D01*
X182351Y421317D01*
Y421213D01*
Y421206D01*
Y421184D01*
Y421154D01*
Y421110D01*
X182344Y421050D01*
Y420984D01*
Y420910D01*
Y420821D01*
X182337Y420725D01*
Y420621D01*
X182329Y420510D01*
X182322Y420392D01*
X182314Y420133D01*
X182300Y419852D01*
X182285Y419556D01*
X182270Y419252D01*
X182248Y418934D01*
X182218Y418616D01*
X182189Y418298D01*
X182159Y417987D01*
X182122Y417683D01*
X182085Y417402D01*
X182078D01*
X182048Y417410D01*
X182004Y417417D01*
X181944Y417424D01*
X181863Y417439D01*
X181774Y417447D01*
X181663Y417469D01*
X181545Y417484D01*
X181419Y417506D01*
X181271Y417528D01*
X181123Y417558D01*
X180960Y417580D01*
X180790Y417609D01*
X180612Y417646D01*
X180235Y417713D01*
X179835Y417787D01*
X179421Y417868D01*
X178585Y418046D01*
X178170Y418142D01*
X177778Y418246D01*
X177401Y418349D01*
X177223Y418409D01*
X177053Y418460D01*
X176861Y417447D01*
X176875D01*
X176898Y417439D01*
X176935D01*
X176972Y417432D01*
X177023Y417424D01*
X177083Y417417D01*
X177157Y417410D01*
X177231Y417395D01*
X177319Y417387D01*
X177423Y417373D01*
X177527Y417358D01*
X177652Y417336D01*
X177778Y417321D01*
X177919Y417299D01*
X178067Y417276D01*
X178230Y417254D01*
X178407Y417225D01*
X178585Y417195D01*
X178785Y417165D01*
X178984Y417136D01*
X179206Y417099D01*
X179428Y417062D01*
X179673Y417025D01*
X179924Y416988D01*
X180183Y416943D01*
X180457Y416899D01*
X180746Y416847D01*
X181042Y416795D01*
X181352Y416744D01*
X181678Y416692D01*
X182011Y416633D01*
Y416618D01*
X182004Y416581D01*
X181996Y416514D01*
X181989Y416425D01*
X181967Y416314D01*
X181952Y416181D01*
X181922Y416033D01*
X181893Y415863D01*
X181863Y415678D01*
X181819Y415478D01*
X181774Y415264D01*
X181722Y415034D01*
X181663Y414797D01*
X181597Y414553D01*
X181523Y414302D01*
X181441Y414043D01*
X181352Y413776D01*
X181256Y413510D01*
X181153Y413243D01*
X181034Y412970D01*
X180908Y412703D01*
X180783Y412437D01*
X180635Y412170D01*
X180487Y411919D01*
X180324Y411667D01*
X180146Y411423D01*
X179961Y411194D01*
X179769Y410972D01*
X179562Y410757D01*
X179340Y410565D01*
X179110Y410387D01*
X178866Y410224D01*
X178859D01*
X178851Y410217D01*
X178807Y410187D01*
X178740Y410150D01*
X178659Y410106D01*
X178563Y410061D01*
X178466Y410024D01*
X178363Y409995D01*
X178259Y409987D01*
X178244D01*
X178200Y409995D01*
X178133Y410017D01*
X178052Y410054D01*
X178008Y410084D01*
X177963Y410121D01*
X177919Y410158D01*
X177874Y410209D01*
X177837Y410276D01*
X177793Y410343D01*
X177756Y410424D01*
X177726Y410520D01*
X177719Y410535D01*
Y410550D01*
X177712Y410572D01*
X177704Y410609D01*
X177689Y410646D01*
X177682Y410698D01*
X177667Y410750D01*
X177652Y410824D01*
X177638Y410898D01*
X177623Y410986D01*
X177608Y411083D01*
X177593Y411194D01*
X177571Y411319D01*
X177556Y411453D01*
X177534Y411601D01*
Y411593D01*
X177519Y411578D01*
X177504Y411556D01*
X177475Y411527D01*
X177445Y411482D01*
X177401Y411445D01*
X177349Y411393D01*
X177290Y411349D01*
X177223Y411297D01*
X177142Y411245D01*
X177053Y411201D01*
X176957Y411157D01*
X176846Y411120D01*
X176727Y411083D01*
X176594Y411060D01*
X176454Y411038D01*
Y411031D01*
X176468Y411001D01*
X176483Y410957D01*
X176498Y410898D01*
X176528Y410824D01*
X176557Y410735D01*
X176587Y410646D01*
X176624Y410542D01*
X176698Y410328D01*
X176779Y410106D01*
X176868Y409899D01*
X176905Y409795D01*
X176949Y409706D01*
Y409699D01*
X176964Y409669D01*
X176979Y409625D01*
X177009Y409566D01*
X177046Y409499D01*
X177083Y409425D01*
X177134Y409351D01*
X177194Y409270D01*
X177253Y409181D01*
X177327Y409107D01*
X177408Y409033D01*
X177504Y408966D01*
X177601Y408907D01*
X177704Y408863D01*
X177823Y408833D01*
X177948Y408826D01*
X178000D01*
X178037Y408833D01*
X178089Y408840D01*
X178148Y408855D01*
X178215Y408870D01*
X178289Y408885D01*
X178378Y408914D01*
X178474Y408944D01*
X178577Y408988D01*
X178688Y409033D01*
X178799Y409092D01*
X178925Y409159D01*
X179058Y409233D01*
X179192Y409321D01*
X179199Y409329D01*
X179229Y409344D01*
X179266Y409366D01*
X179325Y409410D01*
X179391Y409455D01*
X179480Y409521D01*
X179576Y409595D01*
X179680Y409677D01*
X179798Y409780D01*
X179917Y409891D01*
X180050Y410017D01*
X180191Y410158D01*
X180339Y410313D01*
X180487Y410483D01*
X180642Y410676D01*
X180797Y410875D01*
X180960Y411090D01*
X181116Y411327D01*
X181278Y411571D01*
X181441Y411845D01*
X181597Y412126D01*
X181745Y412429D01*
X181900Y412748D01*
X182041Y413088D01*
X182181Y413443D01*
X182314Y413821D01*
X182433Y414213D01*
X182551Y414635D01*
X182655Y415071D01*
X182744Y415523D01*
X182825Y416004D01*
X182892Y416499D01*
X185237Y416063D01*
X185260Y416055D01*
X185282D01*
X185311Y416048D01*
X185348Y416041D01*
X185400Y416026D01*
X185459Y416011D01*
X185541Y415996D01*
X185637Y415967D01*
X185755Y415944D01*
X185889Y415907D01*
X186044Y415870D01*
X186222Y415826D01*
X186429Y415774D01*
X186629Y416773D01*
X186525D01*
X186458Y416781D01*
X186370D01*
X186273Y416788D01*
X186170D01*
X186059Y416795D01*
X185822Y416810D01*
X185593Y416832D01*
X185489Y416840D01*
X185393Y416855D01*
X185304Y416862D01*
X185237Y416877D01*
X182966Y417262D01*
Y417269D01*
Y417291D01*
X182973Y417328D01*
Y417373D01*
X182980Y417432D01*
X182988Y417506D01*
X182995Y417587D01*
X183003Y417683D01*
X183017Y417787D01*
X183025Y417898D01*
X183040Y418016D01*
X183047Y418142D01*
X183069Y418416D01*
X183099Y418719D01*
X183121Y419030D01*
X183143Y419356D01*
X183188Y420022D01*
X183210Y420355D01*
X183225Y420673D01*
X183232Y420976D01*
X183239Y421265D01*
Y421272D01*
Y421280D01*
Y421302D01*
Y421332D01*
Y421369D01*
Y421413D01*
X183247Y421472D01*
Y421531D01*
Y421605D01*
X183254Y421687D01*
X183262Y421776D01*
Y421879D01*
X183269Y421990D01*
X183276Y422109D01*
X183291Y422242D01*
X183299Y422382D01*
Y422390D01*
Y422405D01*
X183306Y422427D01*
Y422456D01*
X183313Y422516D01*
Y422575D01*
D02*
G37*
G36*
X215770Y419748D02*
X214778Y419193D01*
X214771D01*
X214749Y419178D01*
X214726Y419163D01*
X214697Y419141D01*
X214667Y419119D01*
X214638Y419097D01*
X214623Y419067D01*
Y419045D01*
Y419038D01*
X214630Y419023D01*
X214645Y419008D01*
X214667Y418986D01*
X214697Y418964D01*
X214734Y418941D01*
X214793Y418919D01*
X214800Y418912D01*
X214830Y418904D01*
X214867Y418882D01*
X214911Y418860D01*
X214971Y418823D01*
X215030Y418786D01*
X215163Y418690D01*
X215170Y418682D01*
X215185Y418668D01*
X215200Y418645D01*
X215222Y418608D01*
X215252Y418571D01*
X215289Y418512D01*
X215341Y418446D01*
X215392Y418357D01*
X215459Y418261D01*
X215533Y418142D01*
X215622Y418002D01*
X215718Y417846D01*
X215829Y417661D01*
X215955Y417461D01*
X216095Y417232D01*
X214904D01*
X214867Y417239D01*
X214771D01*
X214712Y417247D01*
X214638D01*
X214556Y417254D01*
X214467Y417262D01*
X214371Y417269D01*
X214260Y417276D01*
X214149Y417284D01*
X214023Y417299D01*
X213890Y417306D01*
X213750Y417321D01*
Y416374D01*
X213757D01*
X213779Y416381D01*
X213824D01*
X213868Y416388D01*
X213935Y416396D01*
X214009Y416403D01*
X214090Y416411D01*
X214179Y416418D01*
X214371Y416433D01*
X214571Y416448D01*
X214771Y416462D01*
X214963Y416470D01*
X216695D01*
Y414834D01*
X215126D01*
X215082Y414842D01*
X215037D01*
X214978Y414849D01*
X214904D01*
X214830Y414857D01*
X214749Y414864D01*
X214652Y414871D01*
X214453Y414886D01*
X214223Y414908D01*
X213979Y414931D01*
Y413983D01*
X214016D01*
X214053Y413991D01*
X214105Y413998D01*
X214171D01*
X214253Y414006D01*
X214334Y414013D01*
X214423Y414020D01*
X214623Y414035D01*
X214830Y414050D01*
X215030Y414065D01*
X215119Y414072D01*
X216695D01*
Y410491D01*
Y410483D01*
Y410446D01*
Y410402D01*
Y410335D01*
X216702Y410261D01*
Y410180D01*
X216710Y410084D01*
X216724Y409987D01*
X216761Y409788D01*
X216791Y409691D01*
X216821Y409595D01*
X216865Y409506D01*
X216909Y409432D01*
X216961Y409373D01*
X217028Y409321D01*
X217043Y409307D01*
X217065Y409299D01*
X217094Y409277D01*
X217139Y409255D01*
X217198Y409233D01*
X217265Y409203D01*
X217353Y409173D01*
X217457Y409144D01*
X217575Y409114D01*
X217716Y409077D01*
X217871Y409048D01*
X218056Y409018D01*
X218256Y408996D01*
X218486Y408974D01*
X218737Y408951D01*
Y408959D01*
Y408981D01*
X218745Y409011D01*
X218752Y409055D01*
X218759Y409107D01*
X218767Y409166D01*
X218782Y409233D01*
X218804Y409314D01*
X218848Y409477D01*
X218915Y409654D01*
X219011Y409839D01*
X219122Y410024D01*
X219100D01*
X219078Y410017D01*
X219041D01*
X218996Y410010D01*
X218952Y410002D01*
X218841Y409995D01*
X218708Y409980D01*
X218574Y409965D01*
X218441Y409958D01*
X218264D01*
X218204Y409965D01*
X218138D01*
X217982Y409987D01*
X217908Y410002D01*
X217849Y410024D01*
X217834Y410032D01*
X217797Y410047D01*
X217753Y410084D01*
X217694Y410143D01*
X217642Y410224D01*
X217612Y410276D01*
X217590Y410335D01*
X217575Y410402D01*
X217561Y410476D01*
X217553Y410565D01*
Y410653D01*
Y414072D01*
X219529D01*
X219581Y414065D01*
X219647D01*
X219721Y414057D01*
X219803D01*
X219892Y414050D01*
X219995Y414043D01*
X220210Y414028D01*
X220447Y414006D01*
X220698Y413983D01*
Y414931D01*
X220691D01*
X220661Y414923D01*
X220617D01*
X220565Y414916D01*
X220491Y414908D01*
X220410Y414901D01*
X220321Y414894D01*
X220225Y414886D01*
X220025Y414864D01*
X219810Y414849D01*
X219610Y414842D01*
X219514Y414834D01*
X217553D01*
Y416470D01*
X219906D01*
X219951Y416462D01*
X220010D01*
X220077Y416455D01*
X220151D01*
X220232Y416448D01*
X220321Y416440D01*
X220424Y416433D01*
X220535Y416425D01*
X220654Y416411D01*
X220780Y416403D01*
X220913Y416388D01*
X221053Y416374D01*
Y417321D01*
X221024D01*
X220979Y417313D01*
X220928Y417306D01*
X220868D01*
X220794Y417299D01*
X220706Y417291D01*
X220617Y417284D01*
X220424Y417269D01*
X220217Y417254D01*
X220017Y417239D01*
X219825Y417232D01*
X218360D01*
X218367Y417239D01*
X218389Y417276D01*
X218426Y417321D01*
X218478Y417387D01*
X218545Y417469D01*
X218619Y417558D01*
X218708Y417669D01*
X218804Y417780D01*
X218915Y417905D01*
X219026Y418039D01*
X219277Y418312D01*
X219544Y418594D01*
X219825Y418875D01*
X219152Y419422D01*
X219144Y419415D01*
X219122Y419393D01*
X219085Y419348D01*
X219033Y419297D01*
X218967Y419230D01*
X218893Y419156D01*
X218804Y419060D01*
X218708Y418956D01*
X218597Y418845D01*
X218486Y418719D01*
X218360Y418586D01*
X218234Y418446D01*
X218093Y418298D01*
X217953Y418142D01*
X217657Y417817D01*
X218256Y417232D01*
X216969D01*
Y417239D01*
X216961Y417247D01*
X216946Y417269D01*
X216932Y417299D01*
X216887Y417373D01*
X216828Y417469D01*
X216754Y417595D01*
X216673Y417743D01*
X216584Y417905D01*
X216488Y418083D01*
X216384Y418268D01*
X216288Y418468D01*
X216184Y418682D01*
X216088Y418890D01*
X215999Y419112D01*
X215910Y419326D01*
X215836Y419541D01*
X215770Y419748D01*
D02*
G37*
G36*
X122892Y418490D02*
X121782Y418216D01*
X121775D01*
X121760Y418209D01*
X121723Y418194D01*
X121679Y418157D01*
X121671Y418142D01*
X121664Y418120D01*
Y418113D01*
X121679Y418083D01*
X121694Y418068D01*
X121716Y418039D01*
X121745Y418016D01*
X121782Y417979D01*
X121790Y417972D01*
X121805Y417957D01*
X121827Y417935D01*
X121849Y417898D01*
X121886Y417854D01*
X121916Y417809D01*
X121967Y417691D01*
Y417676D01*
X121982Y417639D01*
X121997Y417580D01*
X122019Y417491D01*
X122049Y417373D01*
X122086Y417232D01*
X122138Y417062D01*
X122189Y416862D01*
X118911D01*
X118919Y416869D01*
X118956Y416892D01*
X119007Y416929D01*
X119074Y416973D01*
X119148Y417025D01*
X119244Y417084D01*
X119348Y417151D01*
X119459Y417217D01*
X119696Y417358D01*
X119947Y417498D01*
X120066Y417558D01*
X120184Y417609D01*
X120288Y417654D01*
X120391Y417691D01*
X119895Y418431D01*
X119888D01*
X119866Y418416D01*
X119829Y418394D01*
X119777Y418372D01*
X119718Y418335D01*
X119644Y418290D01*
X119548Y418246D01*
X119451Y418187D01*
X119333Y418120D01*
X119207Y418046D01*
X119067Y417965D01*
X118919Y417876D01*
X118756Y417780D01*
X118586Y417676D01*
X118401Y417565D01*
X118208Y417447D01*
X118645Y416862D01*
X117335D01*
X117239Y416869D01*
X117135D01*
X117017Y416877D01*
X116891D01*
X116758Y416884D01*
X116491Y416899D01*
X116218Y416921D01*
X115959Y416951D01*
Y416018D01*
X115966D01*
X115988Y416026D01*
X116025D01*
X116077Y416033D01*
X116144Y416048D01*
X116225Y416055D01*
X116321Y416063D01*
X116417Y416078D01*
X116536Y416085D01*
X116662Y416092D01*
X116795Y416107D01*
X116935Y416115D01*
X117091Y416122D01*
X117254D01*
X117594Y416129D01*
X121183D01*
X121176Y416122D01*
X121146Y416115D01*
X121102Y416092D01*
X121035Y416063D01*
X120954Y416026D01*
X120865Y415981D01*
X120754Y415930D01*
X120628Y415878D01*
X120487Y415819D01*
X120339Y415752D01*
X120169Y415685D01*
X119999Y415619D01*
X119814Y415545D01*
X119614Y415471D01*
X119407Y415397D01*
X119192Y415323D01*
X118970Y415249D01*
X118741Y415175D01*
X118253Y415034D01*
X117749Y414901D01*
X117231Y414790D01*
X116699Y414694D01*
X116432Y414657D01*
X116158Y414627D01*
X115892Y414598D01*
X115626Y414583D01*
X115093D01*
X115100Y414575D01*
X115115Y414553D01*
X115145Y414524D01*
X115174Y414479D01*
X115211Y414427D01*
X115256Y414368D01*
X115307Y414294D01*
X115352Y414213D01*
X115455Y414043D01*
X115537Y413850D01*
X115566Y413747D01*
X115596Y413650D01*
X115611Y413547D01*
X115618Y413443D01*
X115626D01*
X115655Y413451D01*
X115700Y413458D01*
X115766Y413465D01*
X115840Y413480D01*
X115929Y413495D01*
X116025Y413517D01*
X116136Y413532D01*
X116373Y413576D01*
X116617Y413628D01*
X116869Y413687D01*
X117113Y413747D01*
Y410476D01*
Y410468D01*
Y410446D01*
Y410417D01*
Y410365D01*
Y410313D01*
Y410239D01*
X117106Y410165D01*
Y410076D01*
X117098Y409980D01*
X117091Y409884D01*
X117076Y409662D01*
X117046Y409425D01*
X117009Y409173D01*
X118031D01*
Y409181D01*
X118023Y409188D01*
Y409210D01*
X118016Y409240D01*
X117994Y409321D01*
X117979Y409425D01*
X117957Y409543D01*
X117942Y409684D01*
X117934Y409839D01*
Y409995D01*
X120865D01*
Y409987D01*
Y409973D01*
Y409950D01*
Y409913D01*
Y409869D01*
Y409817D01*
X120857Y409699D01*
X120850Y409558D01*
X120835Y409403D01*
X120806Y409240D01*
X120769Y409077D01*
X121782D01*
Y409085D01*
X121775Y409107D01*
Y409144D01*
X121768Y409196D01*
X121760Y409255D01*
X121753Y409329D01*
X121738Y409403D01*
X121731Y409492D01*
X121716Y409677D01*
X121701Y409876D01*
X121694Y410076D01*
Y410261D01*
Y412940D01*
Y412947D01*
Y412962D01*
Y412984D01*
Y413021D01*
Y413058D01*
Y413110D01*
Y413169D01*
X121701Y413236D01*
X121708Y413384D01*
X121723Y413554D01*
X121745Y413747D01*
X121782Y413954D01*
X121775D01*
X121760Y413946D01*
X121731D01*
X121694Y413939D01*
X121649Y413924D01*
X121590Y413917D01*
X121464Y413895D01*
X121309Y413880D01*
X121146Y413858D01*
X120968Y413850D01*
X117527D01*
X117550Y413858D01*
X117587Y413872D01*
X117638Y413880D01*
X117705Y413902D01*
X117786Y413924D01*
X117875Y413954D01*
X117979Y413983D01*
X118090Y414020D01*
X118216Y414057D01*
X118349Y414102D01*
X118489Y414146D01*
X118645Y414198D01*
X118808Y414257D01*
X118970Y414316D01*
X119148Y414376D01*
X119518Y414516D01*
X119910Y414672D01*
X120317Y414849D01*
X120739Y415034D01*
X121168Y415241D01*
X121605Y415463D01*
X122034Y415708D01*
X122456Y415959D01*
Y415952D01*
X122471Y415944D01*
X122485Y415922D01*
X122508Y415893D01*
X122545Y415856D01*
X122582Y415819D01*
X122633Y415767D01*
X122685Y415715D01*
X122752Y415656D01*
X122826Y415589D01*
X122907Y415523D01*
X122996Y415449D01*
X123100Y415375D01*
X123203Y415293D01*
X123322Y415212D01*
X123455Y415130D01*
X123595Y415042D01*
X123743Y414960D01*
X123899Y414871D01*
X124069Y414783D01*
X124254Y414694D01*
X124446Y414612D01*
X124646Y414524D01*
X124861Y414442D01*
X125090Y414361D01*
X125327Y414279D01*
X125579Y414205D01*
X125845Y414131D01*
X126119Y414065D01*
X126407Y413998D01*
X126703Y413939D01*
X127022Y413887D01*
X123988D01*
X123921Y413895D01*
X123847D01*
X123758Y413902D01*
X123669Y413909D01*
X123573Y413917D01*
X123359Y413946D01*
X123122Y413983D01*
Y413976D01*
X123129Y413961D01*
Y413932D01*
X123137Y413895D01*
X123144Y413850D01*
X123151Y413798D01*
X123159Y413739D01*
X123174Y413673D01*
X123188Y413517D01*
X123203Y413347D01*
X123211Y413162D01*
Y412970D01*
Y410320D01*
Y410313D01*
Y410298D01*
Y410269D01*
Y410224D01*
Y410180D01*
Y410121D01*
Y410047D01*
X123203Y409973D01*
Y409884D01*
X123196Y409795D01*
X123181Y409595D01*
X123159Y409373D01*
X123122Y409129D01*
X124136D01*
Y409136D01*
X124128Y409151D01*
Y409173D01*
X124121Y409203D01*
X124113Y409240D01*
X124099Y409292D01*
X124084Y409403D01*
X124062Y409536D01*
X124047Y409677D01*
X124039Y409832D01*
Y409995D01*
X126785D01*
Y409987D01*
Y409973D01*
Y409943D01*
Y409913D01*
Y409869D01*
Y409817D01*
X126777Y409691D01*
X126770Y409543D01*
X126755Y409373D01*
X126733Y409196D01*
X126696Y409011D01*
X127710D01*
Y409018D01*
X127702Y409040D01*
Y409070D01*
X127695Y409114D01*
X127688Y409166D01*
X127680Y409225D01*
X127665Y409299D01*
X127658Y409381D01*
X127651Y409469D01*
X127643Y409566D01*
X127628Y409780D01*
X127621Y410010D01*
Y410261D01*
Y413806D01*
X127628D01*
X127651Y413798D01*
X127680D01*
X127725Y413791D01*
X127784Y413784D01*
X127850Y413769D01*
X127932Y413761D01*
X128021Y413747D01*
X128117Y413739D01*
X128220Y413724D01*
X128450Y413702D01*
X128701Y413680D01*
X128968Y413658D01*
Y413665D01*
X128975Y413673D01*
Y413695D01*
X128990Y413724D01*
X128997Y413769D01*
X129012Y413813D01*
X129034Y413865D01*
X129057Y413924D01*
X129116Y414072D01*
X129197Y414242D01*
X129301Y414435D01*
X129427Y414657D01*
X129360D01*
X129279Y414649D01*
X129086D01*
X128983Y414642D01*
X128642D01*
X128561Y414649D01*
X128465D01*
X128346Y414657D01*
X128220Y414664D01*
X128080Y414679D01*
X127932Y414686D01*
X127762Y414701D01*
X127591Y414723D01*
X127406Y414746D01*
X127214Y414768D01*
X126814Y414827D01*
X126393Y414908D01*
X125949Y415005D01*
X125505Y415123D01*
X125061Y415271D01*
X124617Y415441D01*
X124409Y415537D01*
X124195Y415641D01*
X123995Y415752D01*
X123803Y415870D01*
X123610Y415996D01*
X123433Y416129D01*
X127658D01*
X127754Y416122D01*
X127858D01*
X127976Y416115D01*
X128228Y416100D01*
X128494Y416085D01*
X128753Y416055D01*
X128879Y416041D01*
X128997Y416018D01*
Y416951D01*
X128968D01*
X128938Y416943D01*
X128886Y416936D01*
X128827Y416929D01*
X128753Y416921D01*
X128672Y416914D01*
X128576Y416906D01*
X128465Y416899D01*
X128346Y416892D01*
X128220Y416884D01*
X128080Y416877D01*
X127924Y416869D01*
X127762D01*
X127591Y416862D01*
X123011D01*
Y416869D01*
X123003Y416892D01*
X122996Y416929D01*
X122989Y416973D01*
X122974Y417032D01*
X122959Y417099D01*
X122944Y417173D01*
X122929Y417262D01*
X122907Y417439D01*
X122878Y417639D01*
X122863Y417839D01*
X122855Y418031D01*
Y418046D01*
Y418076D01*
Y418120D01*
X122863Y418179D01*
Y418253D01*
X122870Y418327D01*
X122892Y418490D01*
D02*
G37*
G36*
X205772Y416388D02*
X205765D01*
X205735Y416381D01*
X205691D01*
X205624Y416374D01*
X205550Y416366D01*
X205462Y416359D01*
X205365Y416351D01*
X205262Y416344D01*
X205143Y416329D01*
X205018Y416322D01*
X204766Y416307D01*
X204500Y416300D01*
X204241Y416292D01*
X193644D01*
X193562Y416300D01*
X193474D01*
X193377Y416307D01*
X193274D01*
X193155Y416314D01*
X192911Y416337D01*
X192645Y416359D01*
X192364Y416388D01*
Y415315D01*
X192371D01*
X192393Y415323D01*
X192438D01*
X192489Y415330D01*
X192556Y415338D01*
X192637Y415345D01*
X192726Y415352D01*
X192830Y415360D01*
X192933Y415367D01*
X193052Y415375D01*
X193303Y415389D01*
X193577Y415404D01*
X204670D01*
X204788Y415397D01*
X205040Y415389D01*
X205299Y415375D01*
X205543Y415352D01*
X205661Y415330D01*
X205772Y415315D01*
Y416388D01*
D02*
G37*
G36*
X65565Y416218D02*
X65542D01*
X65520Y416211D01*
X65483Y416203D01*
X65446Y416196D01*
X65394Y416189D01*
X65328Y416181D01*
X65261Y416174D01*
X65180Y416166D01*
X65098Y416159D01*
X65002Y416152D01*
X64899Y416144D01*
X64788Y416137D01*
X64669D01*
X64418Y416129D01*
X60133D01*
X60059Y416137D01*
X59970D01*
X59881Y416144D01*
X59689Y416152D01*
X59482Y416166D01*
X59282Y416189D01*
X59090Y416218D01*
Y416211D01*
Y416196D01*
X59097Y416166D01*
X59104Y416129D01*
X59112Y416078D01*
X59119Y416018D01*
X59127Y415952D01*
X59134Y415878D01*
X59141Y415796D01*
X59149Y415700D01*
X59164Y415500D01*
X59171Y415271D01*
X59178Y415019D01*
Y413044D01*
Y413036D01*
Y413007D01*
Y412970D01*
Y412918D01*
Y412851D01*
X59171Y412777D01*
Y412703D01*
X59164Y412614D01*
X59156Y412429D01*
X59141Y412237D01*
X59119Y412059D01*
X59104Y411978D01*
X59090Y411904D01*
X59097D01*
X59112Y411911D01*
X59141D01*
X59186Y411919D01*
X59230Y411926D01*
X59289Y411934D01*
X59363Y411941D01*
X59437Y411956D01*
X59526Y411963D01*
X59622Y411971D01*
X59830Y411985D01*
X60066Y411993D01*
X60318Y412000D01*
X64595D01*
X64669Y411993D01*
X64743D01*
X64832Y411985D01*
X65010Y411978D01*
X65202Y411963D01*
X65394Y411934D01*
X65565Y411904D01*
Y411911D01*
X65557Y411926D01*
Y411956D01*
X65550Y411993D01*
X65542Y412045D01*
X65535Y412096D01*
X65528Y412163D01*
X65513Y412237D01*
X65498Y412407D01*
X65483Y412600D01*
X65476Y412814D01*
X65468Y413044D01*
Y415019D01*
Y415027D01*
Y415049D01*
Y415086D01*
Y415130D01*
Y415190D01*
X65476Y415264D01*
Y415338D01*
X65483Y415419D01*
X65491Y415611D01*
X65505Y415811D01*
X65535Y416018D01*
X65565Y416218D01*
D02*
G37*
G36*
X186584Y422767D02*
X185496Y422205D01*
X185489D01*
X185467Y422190D01*
X185445Y422175D01*
X185415Y422160D01*
X185385Y422138D01*
X185356Y422116D01*
X185341Y422094D01*
Y422079D01*
Y422072D01*
X185348Y422057D01*
X185363Y422042D01*
X185385Y422020D01*
X185422Y421998D01*
X185467Y421975D01*
X185526Y421946D01*
X185541Y421938D01*
X185570Y421916D01*
X185622Y421879D01*
X185696Y421813D01*
X185733Y421776D01*
X185778Y421724D01*
X185822Y421665D01*
X185874Y421605D01*
X185926Y421531D01*
X185985Y421443D01*
X186037Y421354D01*
X186096Y421250D01*
Y421243D01*
X186103Y421228D01*
X186118Y421206D01*
X186133Y421176D01*
X186155Y421132D01*
X186185Y421080D01*
X186214Y421013D01*
X186251Y420947D01*
X186296Y420865D01*
X186340Y420777D01*
X186392Y420680D01*
X186451Y420569D01*
X186510Y420458D01*
X186577Y420333D01*
X186651Y420199D01*
X186725Y420059D01*
Y420051D01*
X186740Y420037D01*
X186747Y420007D01*
X186769Y419970D01*
X186791Y419926D01*
X186814Y419874D01*
X186873Y419763D01*
X186939Y419630D01*
X187006Y419504D01*
X187065Y419385D01*
X187124Y419282D01*
Y410039D01*
Y410032D01*
Y410017D01*
Y409995D01*
Y409958D01*
Y409906D01*
X187117Y409854D01*
Y409780D01*
X187110Y409699D01*
Y409603D01*
X187102Y409499D01*
X187095Y409381D01*
X187080Y409255D01*
X187073Y409107D01*
X187058Y408951D01*
X187043Y408789D01*
X187028Y408604D01*
X188042D01*
Y408611D01*
X188035Y408641D01*
Y408692D01*
X188027Y408759D01*
X188020Y408833D01*
X188012Y408922D01*
X188005Y409018D01*
X187998Y409129D01*
X187983Y409358D01*
X187968Y409595D01*
X187953Y409832D01*
X187946Y409936D01*
Y410039D01*
Y417957D01*
X187953Y417950D01*
X187968Y417928D01*
X187983Y417905D01*
X188035Y417831D01*
X188101Y417728D01*
X188183Y417602D01*
X188279Y417461D01*
X188390Y417299D01*
X188516Y417121D01*
X188649Y416929D01*
X188797Y416721D01*
X188952Y416507D01*
X189115Y416285D01*
X189463Y415833D01*
X189833Y415375D01*
X189840Y415382D01*
X189855Y415389D01*
X189885Y415412D01*
X189922Y415434D01*
X189973Y415463D01*
X190025Y415500D01*
X190092Y415545D01*
X190166Y415589D01*
X190321Y415678D01*
X190506Y415782D01*
X190699Y415878D01*
X190898Y415974D01*
X190891Y415981D01*
X190869Y416004D01*
X190824Y416041D01*
X190773Y416092D01*
X190706Y416152D01*
X190625Y416233D01*
X190528Y416329D01*
X190425Y416433D01*
X190306Y416551D01*
X190188Y416684D01*
X190055Y416832D01*
X189907Y416995D01*
X189759Y417165D01*
X189603Y417350D01*
X189441Y417550D01*
X189278Y417765D01*
X189108Y417987D01*
X188930Y418224D01*
X188752Y418468D01*
X188575Y418734D01*
X188397Y419008D01*
X188220Y419289D01*
X188042Y419585D01*
X187857Y419896D01*
X187687Y420214D01*
X187509Y420547D01*
X187346Y420888D01*
X187176Y421243D01*
X187021Y421605D01*
X186865Y421983D01*
X186725Y422368D01*
X186584Y422767D01*
D02*
G37*
G36*
X74445Y422279D02*
Y422264D01*
X74430Y422227D01*
X74415Y422160D01*
X74393Y422079D01*
X74363Y421968D01*
X74319Y421835D01*
X74274Y421687D01*
X74215Y421517D01*
X74149Y421332D01*
X74075Y421132D01*
X73986Y420917D01*
X73890Y420688D01*
X73786Y420444D01*
X73668Y420185D01*
X73534Y419926D01*
X73394Y419652D01*
X73238Y419371D01*
X73068Y419082D01*
X72891Y418793D01*
X72691Y418497D01*
X72484Y418194D01*
X72262Y417898D01*
X72025Y417595D01*
X71773Y417291D01*
X71507Y416995D01*
X71218Y416699D01*
X70915Y416411D01*
X70597Y416122D01*
X70264Y415848D01*
X69916Y415574D01*
X69546Y415315D01*
X69154Y415064D01*
X69161D01*
X69176Y415049D01*
X69198Y415034D01*
X69235Y415005D01*
X69279Y414975D01*
X69331Y414938D01*
X69390Y414894D01*
X69464Y414842D01*
X69538Y414783D01*
X69627Y414723D01*
X69812Y414583D01*
X70027Y414420D01*
X70256Y414242D01*
X70271Y414250D01*
X70301Y414279D01*
X70352Y414324D01*
X70434Y414390D01*
X70523Y414472D01*
X70634Y414575D01*
X70759Y414694D01*
X70900Y414827D01*
X71055Y414975D01*
X71218Y415138D01*
X71396Y415323D01*
X71588Y415515D01*
X71781Y415730D01*
X71980Y415952D01*
X72195Y416196D01*
X72402Y416448D01*
X72624Y416714D01*
X72839Y416995D01*
X73061Y417284D01*
X73275Y417587D01*
X73497Y417905D01*
X73712Y418238D01*
X73919Y418571D01*
X74126Y418927D01*
X74319Y419289D01*
X74511Y419659D01*
X74696Y420037D01*
X74866Y420429D01*
X75022Y420828D01*
X75170Y421235D01*
X75296Y421657D01*
X75414Y422079D01*
X75399D01*
X75384Y422086D01*
X75362Y422094D01*
X75347D01*
X75310Y422109D01*
X75244Y422116D01*
X75199Y422131D01*
X75148Y422138D01*
X75088Y422153D01*
X75022Y422168D01*
X74948Y422183D01*
X74866Y422197D01*
X74770Y422212D01*
X74674Y422234D01*
X74563Y422257D01*
X74445Y422279D01*
D02*
G37*
G36*
X78700Y421768D02*
X77501Y421302D01*
X77493D01*
X77479Y421287D01*
X77419Y421258D01*
X77368Y421213D01*
X77353Y421184D01*
X77345Y421154D01*
X77353Y421139D01*
X77375Y421110D01*
X77390Y421095D01*
X77427Y421073D01*
X77464Y421050D01*
X77516Y421036D01*
X77523D01*
X77530Y421028D01*
X77575Y420999D01*
X77649Y420954D01*
X77738Y420880D01*
X77834Y420784D01*
X77886Y420725D01*
X77945Y420658D01*
X77997Y420584D01*
X78056Y420503D01*
X78108Y420414D01*
X78159Y420318D01*
Y420310D01*
X78174Y420281D01*
X78189Y420236D01*
X78219Y420177D01*
X78248Y420096D01*
X78293Y420007D01*
X78344Y419896D01*
X78396Y419770D01*
X78463Y419637D01*
X78537Y419489D01*
X78618Y419326D01*
X78707Y419149D01*
X78803Y418971D01*
X78907Y418771D01*
X79018Y418571D01*
X79144Y418357D01*
X79269Y418135D01*
X79410Y417905D01*
X79558Y417669D01*
X79713Y417424D01*
X79876Y417173D01*
X80054Y416921D01*
X80231Y416662D01*
X80424Y416396D01*
X80624Y416129D01*
X80838Y415863D01*
X81053Y415589D01*
X81282Y415315D01*
X81519Y415042D01*
X81763Y414775D01*
X82022Y414501D01*
X82289Y414228D01*
X82296Y414235D01*
X82311Y414242D01*
X82333Y414257D01*
X82363Y414287D01*
X82407Y414316D01*
X82459Y414353D01*
X82518Y414398D01*
X82585Y414442D01*
X82666Y414494D01*
X82747Y414553D01*
X82836Y414612D01*
X82940Y414672D01*
X83154Y414812D01*
X83406Y414960D01*
X83399Y414968D01*
X83369Y414982D01*
X83332Y415012D01*
X83273Y415049D01*
X83206Y415093D01*
X83117Y415160D01*
X83021Y415234D01*
X82910Y415315D01*
X82792Y415419D01*
X82659Y415530D01*
X82518Y415656D01*
X82370Y415789D01*
X82215Y415944D01*
X82044Y416107D01*
X81874Y416292D01*
X81697Y416485D01*
X81512Y416692D01*
X81327Y416914D01*
X81134Y417158D01*
X80942Y417410D01*
X80749Y417683D01*
X80550Y417965D01*
X80357Y418268D01*
X80157Y418586D01*
X79965Y418927D01*
X79773Y419274D01*
X79580Y419644D01*
X79395Y420037D01*
X79210Y420444D01*
X79033Y420865D01*
X78862Y421309D01*
X78700Y421768D01*
D02*
G37*
G36*
X215392Y413414D02*
X215385Y413406D01*
X215363Y413377D01*
X215333Y413325D01*
X215289Y413258D01*
X215237Y413177D01*
X215170Y413081D01*
X215096Y412970D01*
X215022Y412844D01*
X214934Y412703D01*
X214845Y412555D01*
X214741Y412392D01*
X214645Y412230D01*
X214541Y412052D01*
X214430Y411867D01*
X214216Y411482D01*
X215052Y410972D01*
X215059Y410986D01*
X215074Y411023D01*
X215104Y411083D01*
X215141Y411164D01*
X215185Y411260D01*
X215244Y411379D01*
X215304Y411504D01*
X215378Y411645D01*
X215452Y411793D01*
X215540Y411948D01*
X215733Y412274D01*
X215940Y412600D01*
X216051Y412762D01*
X216162Y412918D01*
X215392Y413414D01*
D02*
G37*
G36*
X76761Y417476D02*
X75555Y417114D01*
X75547D01*
X75525Y417099D01*
X75495Y417084D01*
X75458Y417069D01*
X75421Y417047D01*
X75392Y417017D01*
X75370Y416988D01*
X75362Y416951D01*
Y416943D01*
X75370Y416936D01*
X75377Y416914D01*
X75399Y416892D01*
X75429Y416862D01*
X75466Y416832D01*
X75518Y416788D01*
X75584Y416751D01*
X75592Y416744D01*
X75629Y416729D01*
X75673Y416684D01*
X75740Y416625D01*
X75777Y416581D01*
X75814Y416536D01*
X75858Y416477D01*
X75902Y416411D01*
X75947Y416337D01*
X75991Y416248D01*
X76036Y416152D01*
X76087Y416048D01*
Y416041D01*
X76102Y416018D01*
X76117Y415981D01*
X76139Y415937D01*
X76169Y415870D01*
X76206Y415796D01*
X76250Y415708D01*
X76302Y415604D01*
X76361Y415493D01*
X76420Y415375D01*
X76487Y415234D01*
X76561Y415093D01*
X76642Y414938D01*
X76731Y414775D01*
X76827Y414598D01*
X76924Y414413D01*
X77027Y414220D01*
X77138Y414020D01*
X77257Y413813D01*
X77382Y413599D01*
X77641Y413147D01*
X77923Y412674D01*
X78233Y412178D01*
X78559Y411660D01*
X78907Y411127D01*
X79277Y410579D01*
X79225D01*
X79166Y410587D01*
X79077Y410594D01*
X78959Y410602D01*
X78811Y410609D01*
X78640Y410624D01*
X78544Y410631D01*
X78433Y410639D01*
X78322Y410646D01*
X78204Y410653D01*
X78078Y410661D01*
X77945Y410676D01*
X77797Y410683D01*
X77649Y410698D01*
X77486Y410705D01*
X77323Y410720D01*
X77146Y410735D01*
X76961Y410750D01*
X76776Y410764D01*
X76576Y410779D01*
X76361Y410794D01*
X76147Y410816D01*
X75925Y410831D01*
X75688Y410853D01*
X75651D01*
X75621Y410861D01*
X75584D01*
X75540Y410868D01*
X75429Y410875D01*
X75303Y410883D01*
X75155Y410898D01*
X74992Y410905D01*
X74815Y410920D01*
X74622Y410935D01*
X74430Y410949D01*
X74045Y410979D01*
X73853Y410994D01*
X73668Y411009D01*
X73497Y411023D01*
X73342Y411038D01*
Y411046D01*
X73357Y411053D01*
X73364Y411075D01*
X73386Y411105D01*
X73409Y411149D01*
X73438Y411194D01*
X73512Y411297D01*
X73601Y411430D01*
X73705Y411586D01*
X73816Y411756D01*
X73934Y411934D01*
X74067Y412126D01*
X74200Y412326D01*
X74482Y412725D01*
X74622Y412918D01*
X74755Y413103D01*
X74889Y413280D01*
X75014Y413443D01*
X74200Y413998D01*
X74193Y413991D01*
X74178Y413969D01*
X74156Y413939D01*
X74126Y413887D01*
X74089Y413828D01*
X74038Y413761D01*
X73986Y413680D01*
X73919Y413584D01*
X73853Y413488D01*
X73779Y413377D01*
X73697Y413251D01*
X73616Y413125D01*
X73527Y412992D01*
X73431Y412844D01*
X73231Y412540D01*
X73016Y412215D01*
X72794Y411874D01*
X72565Y411519D01*
X72328Y411157D01*
X71869Y410424D01*
X71647Y410069D01*
X71440Y409721D01*
X72336Y409144D01*
Y409151D01*
X72343Y409166D01*
X72358Y409196D01*
X72373Y409240D01*
X72395Y409284D01*
X72424Y409344D01*
X72454Y409418D01*
X72491Y409492D01*
X72535Y409573D01*
X72587Y409662D01*
X72691Y409862D01*
X72824Y410084D01*
X72979Y410320D01*
X73024D01*
X73076Y410313D01*
X73150Y410306D01*
X73238Y410298D01*
X73349Y410291D01*
X73468Y410276D01*
X73608Y410269D01*
X73764Y410254D01*
X73934Y410239D01*
X74112Y410217D01*
X74304Y410202D01*
X74511Y410187D01*
X74726Y410165D01*
X74948Y410143D01*
X75177Y410121D01*
X75658Y410076D01*
X76154Y410024D01*
X76665Y409980D01*
X77183Y409921D01*
X77701Y409869D01*
X78204Y409817D01*
X78685Y409758D01*
X78922Y409736D01*
X79144Y409706D01*
X79158D01*
X79166Y409699D01*
X79188D01*
X79218Y409691D01*
X79262Y409684D01*
X79314Y409669D01*
X79380Y409654D01*
X79462Y409640D01*
X79565Y409610D01*
X79684Y409588D01*
X79817Y409551D01*
X79980Y409514D01*
X80165Y409469D01*
X80372Y409418D01*
X80379Y409425D01*
X80387Y409447D01*
X80409Y409484D01*
X80431Y409536D01*
X80461Y409595D01*
X80498Y409662D01*
X80579Y409825D01*
X80661Y409987D01*
X80749Y410158D01*
X80823Y410320D01*
X80853Y410387D01*
X80883Y410446D01*
X80875D01*
X80860Y410461D01*
X80831Y410476D01*
X80794Y410491D01*
X80742Y410520D01*
X80690Y410550D01*
X80572Y410616D01*
X80439Y410698D01*
X80298Y410787D01*
X80172Y410890D01*
X80061Y410986D01*
X80054Y410994D01*
X80039Y411023D01*
X80009Y411068D01*
X79965Y411127D01*
X79913Y411208D01*
X79854Y411297D01*
X79780Y411408D01*
X79699Y411534D01*
X79617Y411667D01*
X79521Y411815D01*
X79417Y411985D01*
X79306Y412156D01*
X79195Y412348D01*
X79077Y412548D01*
X78951Y412755D01*
X78825Y412977D01*
X78700Y413206D01*
X78566Y413451D01*
X78426Y413695D01*
X78293Y413954D01*
X78152Y414220D01*
X78019Y414487D01*
X77745Y415049D01*
X77479Y415634D01*
X77220Y416240D01*
X76983Y416855D01*
X76761Y417476D01*
D02*
G37*
G36*
X219351Y413473D02*
X218389Y412903D01*
X218382D01*
X218367Y412888D01*
X218315Y412859D01*
X218293Y412836D01*
X218271Y412814D01*
X218256Y412792D01*
Y412770D01*
X218264Y412762D01*
X218278Y412755D01*
X218293Y412740D01*
X218330Y412725D01*
X218367Y412711D01*
X218426Y412696D01*
X218493Y412674D01*
X218500D01*
X218530Y412659D01*
X218582Y412637D01*
X218641Y412600D01*
X218708Y412540D01*
X218752Y412503D01*
X218789Y412459D01*
X218833Y412400D01*
X218878Y412341D01*
X218922Y412267D01*
X218967Y412185D01*
X218974Y412170D01*
X218996Y412133D01*
X219026Y412082D01*
X219070Y412000D01*
X219129Y411904D01*
X219196Y411786D01*
X219270Y411652D01*
X219351Y411504D01*
X219448Y411349D01*
X219551Y411179D01*
X219662Y411001D01*
X219773Y410816D01*
X220025Y410424D01*
X220291Y410024D01*
X220299D01*
X220306Y410039D01*
X220328Y410054D01*
X220358Y410069D01*
X220395Y410098D01*
X220439Y410121D01*
X220543Y410187D01*
X220676Y410261D01*
X220839Y410343D01*
X221016Y410417D01*
X221224Y410491D01*
X221216Y410498D01*
X221209Y410505D01*
X221187Y410528D01*
X221164Y410550D01*
X221098Y410624D01*
X221002Y410727D01*
X220891Y410853D01*
X220765Y411009D01*
X220632Y411179D01*
X220484Y411371D01*
X220328Y411586D01*
X220173Y411815D01*
X220017Y412059D01*
X219862Y412318D01*
X219714Y412592D01*
X219581Y412881D01*
X219455Y413169D01*
X219351Y413473D01*
D02*
G37*
%LPD*%
G36*
X126666Y419223D02*
X123980D01*
Y421406D01*
X126666D01*
Y419223D01*
D02*
G37*
G36*
X120606D02*
X117905D01*
Y421406D01*
X120606D01*
Y419223D01*
D02*
G37*
G36*
X244238Y419704D02*
X240012D01*
Y421184D01*
X244238D01*
Y419704D01*
D02*
G37*
G36*
Y417447D02*
X240012D01*
Y418964D01*
X244238D01*
Y417447D01*
D02*
G37*
G36*
X91761Y418860D02*
X87298D01*
Y420880D01*
X91761D01*
Y418860D01*
D02*
G37*
G36*
Y416174D02*
X87298D01*
Y418090D01*
X91761D01*
Y416174D01*
D02*
G37*
G36*
X173220Y416966D02*
X169586D01*
Y419593D01*
X173220D01*
Y416966D01*
D02*
G37*
G36*
X168728D02*
X164799D01*
Y419593D01*
X168728D01*
Y416966D01*
D02*
G37*
G36*
X173220Y413532D02*
X169586D01*
Y416203D01*
X173220D01*
Y413532D01*
D02*
G37*
G36*
X168728D02*
X164799D01*
Y416203D01*
X168728D01*
Y413532D01*
D02*
G37*
G36*
X142539Y416966D02*
X138906D01*
Y419593D01*
X142539D01*
Y416966D01*
D02*
G37*
G36*
X138048D02*
X134118D01*
Y419593D01*
X138048D01*
Y416966D01*
D02*
G37*
G36*
X142539Y413532D02*
X138906D01*
Y416203D01*
X142539D01*
Y413532D01*
D02*
G37*
G36*
X138048D02*
X134118D01*
Y416203D01*
X138048D01*
Y413532D01*
D02*
G37*
G36*
X126785Y410705D02*
X124039D01*
Y413147D01*
X126785D01*
Y410705D01*
D02*
G37*
G36*
X120865D02*
X117934D01*
Y413118D01*
X120865D01*
Y410705D01*
D02*
G37*
G36*
X64580Y412740D02*
X60074D01*
Y415389D01*
X64580D01*
Y412740D01*
D02*
G37*
%LPC*%
G36*
X227409Y396282D02*
X227391D01*
X227372Y396278D01*
X227343Y396275D01*
X227309D01*
X227269Y396271D01*
X227224Y396267D01*
X227176Y396264D01*
X227073Y396256D01*
X226958Y396249D01*
X226843Y396241D01*
X226736Y396238D01*
X223883D01*
X223861Y396241D01*
X223798D01*
X223758Y396245D01*
X223717D01*
X223669Y396249D01*
X223617Y396252D01*
X223502Y396260D01*
X223380Y396271D01*
X223251Y396282D01*
Y396278D01*
Y396267D01*
X223254Y396245D01*
X223258Y396219D01*
Y396190D01*
X223262Y396153D01*
X223265Y396108D01*
X223269Y396064D01*
X223276Y395964D01*
X223284Y395853D01*
X223291Y395742D01*
X223295Y395631D01*
Y394758D01*
Y394754D01*
Y394747D01*
Y394728D01*
X223291Y394706D01*
Y394680D01*
Y394647D01*
X223288Y394610D01*
Y394569D01*
X223284Y394525D01*
X223280Y394473D01*
X223273Y394362D01*
X223262Y394240D01*
X223251Y394107D01*
X223265D01*
X223284Y394110D01*
X223310Y394114D01*
X223343D01*
X223380Y394118D01*
X223421Y394121D01*
X223469Y394125D01*
X223572Y394132D01*
X223684Y394140D01*
X223798Y394147D01*
X223917Y394151D01*
X226766D01*
X226795Y394147D01*
X226829D01*
X226869Y394144D01*
X226914D01*
X226962Y394140D01*
X227013Y394136D01*
X227073Y394132D01*
X227132Y394129D01*
X227265Y394118D01*
X227409Y394107D01*
Y394110D01*
X227406Y394121D01*
Y394140D01*
X227402Y394162D01*
X227398Y394192D01*
X227395Y394225D01*
X227391Y394266D01*
X227387Y394306D01*
X227380Y394354D01*
X227376Y394406D01*
X227369Y394514D01*
X227361Y394632D01*
X227358Y394750D01*
Y395623D01*
Y395627D01*
Y395638D01*
Y395653D01*
Y395675D01*
X227361Y395701D01*
Y395735D01*
X227365Y395772D01*
Y395816D01*
X227369Y395864D01*
X227372Y395912D01*
X227383Y396023D01*
X227395Y396149D01*
X227409Y396282D01*
D02*
G37*
G36*
X249543Y396182D02*
X249539D01*
X249524Y396179D01*
X249498D01*
X249465Y396175D01*
X249428Y396171D01*
X249384Y396167D01*
X249332Y396164D01*
X249276Y396160D01*
X249154Y396149D01*
X249025Y396142D01*
X248895Y396138D01*
X248773Y396134D01*
X245525D01*
X245488Y396138D01*
X245443D01*
X245399Y396142D01*
X245347D01*
X245295Y396145D01*
X245177Y396156D01*
X245055Y396167D01*
X244933Y396182D01*
Y395690D01*
X244936D01*
X244947Y395694D01*
X244966D01*
X244992Y395697D01*
X245021Y395701D01*
X245058Y395705D01*
X245099Y395709D01*
X245147Y395716D01*
X245199Y395720D01*
X245251Y395723D01*
X245366Y395731D01*
X245491Y395735D01*
X245617Y395738D01*
X246927D01*
X246583Y395553D01*
X246579D01*
X246572Y395550D01*
X246553Y395535D01*
X246542Y395524D01*
X246535Y395516D01*
X246531Y395505D01*
X246535Y395498D01*
X246538Y395494D01*
X246546Y395490D01*
X246553Y395483D01*
X246568Y395476D01*
X246586Y395468D01*
X246612Y395461D01*
X246642Y395453D01*
X246649D01*
X246668Y395446D01*
X246697Y395431D01*
X246734Y395413D01*
X246779Y395387D01*
X246820Y395350D01*
X246864Y395305D01*
X246905Y395246D01*
X246908Y395239D01*
X246919Y395224D01*
X246938Y395194D01*
X246964Y395150D01*
X247001Y395094D01*
X247045Y395028D01*
X247101Y394943D01*
X247164Y394847D01*
X247167Y394843D01*
X247175Y394835D01*
X247186Y394821D01*
X247193Y394810D01*
X246061D01*
X246020Y394813D01*
X245976D01*
X245928Y394817D01*
X245876D01*
X245817Y394821D01*
X245691Y394828D01*
X245554Y394839D01*
X245414Y394854D01*
Y394850D01*
X245417Y394835D01*
Y394817D01*
X245421Y394787D01*
X245425Y394754D01*
X245428Y394713D01*
X245432Y394669D01*
X245436Y394617D01*
X245443Y394565D01*
X245447Y394506D01*
X245454Y394384D01*
X245458Y394258D01*
X245462Y394129D01*
Y392797D01*
Y392793D01*
Y392782D01*
Y392763D01*
Y392741D01*
Y392712D01*
X245458Y392678D01*
Y392638D01*
X245454Y392589D01*
Y392541D01*
X245451Y392486D01*
X245447Y392430D01*
X245440Y392368D01*
X245428Y392234D01*
X245414Y392094D01*
X245417D01*
X245428Y392097D01*
X245447D01*
X245473Y392101D01*
X245506Y392105D01*
X245543Y392108D01*
X245587Y392112D01*
X245636Y392116D01*
X245687Y392120D01*
X245747Y392123D01*
X245869Y392131D01*
X246002Y392138D01*
X246783D01*
Y390210D01*
Y390207D01*
Y390196D01*
Y390173D01*
Y390147D01*
X246786Y390118D01*
X246790Y390085D01*
X246801Y390007D01*
X246823Y389922D01*
X246838Y389881D01*
X246860Y389840D01*
X246883Y389800D01*
X246908Y389766D01*
X246942Y389737D01*
X246979Y389711D01*
X246982D01*
X246990Y389703D01*
X247001Y389700D01*
X247023Y389689D01*
X247049Y389678D01*
X247082Y389667D01*
X247119Y389652D01*
X247167Y389637D01*
X247223Y389622D01*
X247289Y389604D01*
X247363Y389589D01*
X247445Y389574D01*
X247537Y389559D01*
X247641Y389544D01*
X247752Y389533D01*
X247878Y389522D01*
Y389526D01*
X247882Y389537D01*
Y389552D01*
X247889Y389574D01*
X247893Y389600D01*
X247904Y389633D01*
X247911Y389670D01*
X247922Y389711D01*
X247955Y389803D01*
X247996Y389907D01*
X248048Y390018D01*
X248115Y390136D01*
X248111D01*
X248100Y390133D01*
X248081Y390129D01*
X248059Y390122D01*
X248029Y390114D01*
X247996Y390107D01*
X247959Y390099D01*
X247919Y390092D01*
X247830Y390073D01*
X247737Y390059D01*
X247648Y390048D01*
X247563Y390044D01*
X247549D01*
X247530Y390048D01*
X247508D01*
X247478Y390051D01*
X247449Y390059D01*
X247382Y390077D01*
X247352Y390092D01*
X247319Y390110D01*
X247293Y390133D01*
X247267Y390159D01*
X247245Y390192D01*
X247234Y390229D01*
X247227Y390270D01*
Y390318D01*
Y392138D01*
X247907D01*
X247944Y392134D01*
X248033D01*
X248085Y392131D01*
X248141Y392127D01*
X248200Y392123D01*
X248266Y392120D01*
X248333Y392116D01*
X248407Y392108D01*
X248559Y392094D01*
Y392097D01*
X248555Y392108D01*
Y392131D01*
X248551Y392157D01*
X248548Y392186D01*
X248544Y392227D01*
X248540Y392268D01*
X248536Y392316D01*
X248533Y392368D01*
X248529Y392423D01*
X248522Y392541D01*
X248514Y392667D01*
Y392797D01*
Y394136D01*
Y394140D01*
Y394151D01*
Y394166D01*
Y394192D01*
Y394221D01*
X248518Y394254D01*
Y394295D01*
Y394340D01*
X248522Y394391D01*
X248525Y394447D01*
X248529Y394506D01*
X248533Y394569D01*
X248544Y394706D01*
X248559Y394854D01*
X248540D01*
X248518Y394850D01*
X248488Y394847D01*
X248451Y394843D01*
X248407Y394839D01*
X248359Y394835D01*
X248307Y394832D01*
X248252Y394828D01*
X248192Y394824D01*
X248066Y394817D01*
X247941Y394813D01*
X247815Y394810D01*
X247656D01*
X247652Y394813D01*
X247645Y394832D01*
X247630Y394858D01*
X247615Y394891D01*
X247593Y394932D01*
X247567Y394983D01*
X247537Y395039D01*
X247508Y395102D01*
X247475Y395168D01*
X247441Y395242D01*
X247408Y395320D01*
X247371Y395402D01*
X247301Y395568D01*
X247234Y395738D01*
X249051D01*
Y394266D01*
Y394262D01*
Y394243D01*
Y394217D01*
Y394184D01*
Y394140D01*
Y394088D01*
Y394029D01*
X249054Y393958D01*
Y393884D01*
X249058Y393807D01*
Y393718D01*
X249062Y393625D01*
X249065Y393529D01*
X249069Y393429D01*
X249073Y393322D01*
X249077Y393215D01*
X249091Y392989D01*
X249106Y392760D01*
X249125Y392523D01*
X249151Y392290D01*
X249177Y392057D01*
X249210Y391835D01*
X249228Y391731D01*
X249247Y391628D01*
X249269Y391528D01*
X249291Y391435D01*
Y391431D01*
X249295Y391424D01*
X249299Y391409D01*
X249302Y391391D01*
X249310Y391369D01*
X249317Y391339D01*
X249324Y391306D01*
X249336Y391269D01*
X249347Y391228D01*
X249361Y391183D01*
X249380Y391132D01*
X249395Y391080D01*
X249435Y390965D01*
X249484Y390836D01*
X249539Y390699D01*
X249602Y390554D01*
X249672Y390399D01*
X249754Y390240D01*
X249843Y390077D01*
X249939Y389914D01*
X250046Y389748D01*
X250164Y389581D01*
X250168Y389585D01*
X250175Y389589D01*
X250190Y389600D01*
X250213Y389611D01*
X250235Y389626D01*
X250264Y389644D01*
X250301Y389667D01*
X250338Y389685D01*
X250423Y389733D01*
X250523Y389781D01*
X250627Y389826D01*
X250742Y389866D01*
X250738Y389870D01*
X250734Y389874D01*
X250723Y389885D01*
X250708Y389896D01*
X250671Y389933D01*
X250623Y389981D01*
X250564Y390044D01*
X250497Y390118D01*
X250423Y390207D01*
X250346Y390303D01*
X250264Y390414D01*
X250183Y390532D01*
X250101Y390662D01*
X250020Y390799D01*
X249946Y390947D01*
X249876Y391102D01*
X249813Y391265D01*
X249761Y391435D01*
Y391439D01*
X249757Y391446D01*
X249754Y391461D01*
X249750Y391479D01*
X249743Y391502D01*
X249735Y391531D01*
X249728Y391568D01*
X249720Y391605D01*
X249709Y391653D01*
X249698Y391705D01*
X249687Y391761D01*
X249676Y391820D01*
X249665Y391890D01*
X249650Y391961D01*
X249639Y392038D01*
X249628Y392123D01*
X249613Y392212D01*
X249602Y392305D01*
X249591Y392405D01*
X249580Y392512D01*
X249565Y392623D01*
X249558Y392738D01*
X249547Y392860D01*
X249535Y392985D01*
X249528Y393119D01*
X249521Y393255D01*
X249513Y393400D01*
X249506Y393548D01*
X249502Y393700D01*
X249498Y393859D01*
Y394025D01*
Y394195D01*
Y395439D01*
Y395442D01*
Y395453D01*
Y395472D01*
Y395498D01*
Y395527D01*
X249502Y395568D01*
Y395609D01*
Y395657D01*
X249506Y395712D01*
X249510Y395768D01*
X249513Y395831D01*
X249517Y395894D01*
X249528Y396034D01*
X249543Y396182D01*
D02*
G37*
G36*
X251086Y396360D02*
X251082D01*
X251078Y396356D01*
X251067Y396349D01*
X251052Y396341D01*
X251015Y396315D01*
X250967Y396282D01*
X250904Y396241D01*
X250830Y396193D01*
X250745Y396138D01*
X250653Y396075D01*
X250557Y396008D01*
X250449Y395934D01*
X250338Y395857D01*
X250224Y395775D01*
X249987Y395601D01*
X249746Y395416D01*
X250061Y395054D01*
X250064D01*
X250068Y395061D01*
X250079Y395069D01*
X250090Y395080D01*
X250127Y395109D01*
X250179Y395146D01*
X250242Y395194D01*
X250316Y395250D01*
X250397Y395313D01*
X250486Y395383D01*
X250586Y395453D01*
X250690Y395531D01*
X250801Y395609D01*
X250916Y395686D01*
X251152Y395842D01*
X251274Y395919D01*
X251393Y395990D01*
X251086Y396360D01*
D02*
G37*
G36*
X220024Y396641D02*
X219447Y396567D01*
X219436D01*
X219410Y396560D01*
X219384Y396549D01*
X219377Y396537D01*
X219373Y396526D01*
Y396523D01*
X219380Y396504D01*
X219391Y396493D01*
X219403Y396478D01*
X219421Y396460D01*
X219447Y396441D01*
X219451Y396438D01*
X219465Y396419D01*
X219473Y396404D01*
X219484Y396386D01*
X219491Y396363D01*
X219502Y396338D01*
X219514Y396308D01*
X219525Y396271D01*
X219536Y396230D01*
X219547Y396186D01*
X219554Y396138D01*
X219562Y396082D01*
X219565Y396019D01*
X219569Y395953D01*
Y394902D01*
X218914D01*
X218885Y394906D01*
X218851D01*
X218811Y394909D01*
X218766D01*
X218722Y394913D01*
X218670Y394917D01*
X218615Y394920D01*
X218496Y394932D01*
X218363Y394946D01*
Y394473D01*
X218367D01*
X218381Y394477D01*
X218404D01*
X218429Y394480D01*
X218463Y394484D01*
X218503Y394488D01*
X218548Y394495D01*
X218592Y394499D01*
X218692Y394506D01*
X218796Y394514D01*
X218896Y394517D01*
X219569D01*
Y394088D01*
X219565D01*
X219562Y394081D01*
X219539Y394062D01*
X219506Y394033D01*
X219458Y393992D01*
X219399Y393940D01*
X219332Y393881D01*
X219255Y393811D01*
X219173Y393733D01*
X219081Y393648D01*
X218988Y393555D01*
X218888Y393459D01*
X218785Y393355D01*
X218677Y393248D01*
X218574Y393133D01*
X218363Y392900D01*
X218744Y392497D01*
X218748Y392504D01*
X218759Y392523D01*
X218781Y392552D01*
X218807Y392593D01*
X218840Y392645D01*
X218881Y392704D01*
X218929Y392771D01*
X218981Y392845D01*
X219040Y392926D01*
X219103Y393011D01*
X219169Y393104D01*
X219244Y393196D01*
X219318Y393296D01*
X219399Y393396D01*
X219569Y393596D01*
Y390262D01*
Y390259D01*
Y390251D01*
Y390236D01*
Y390214D01*
Y390188D01*
X219565Y390155D01*
Y390122D01*
X219562Y390077D01*
Y390033D01*
X219558Y389981D01*
X219554Y389926D01*
X219547Y389866D01*
X219543Y389803D01*
X219536Y389733D01*
X219521Y389589D01*
X220024D01*
Y389593D01*
X220021Y389607D01*
Y389630D01*
X220017Y389659D01*
X220013Y389696D01*
X220009Y389737D01*
X220006Y389781D01*
X220002Y389833D01*
X219995Y389940D01*
X219987Y390051D01*
X219980Y390162D01*
Y390214D01*
Y390262D01*
Y393466D01*
X219984Y393459D01*
X219987Y393444D01*
X219995Y393426D01*
X220002Y393404D01*
X220013Y393374D01*
X220024Y393341D01*
X220039Y393304D01*
X220054Y393263D01*
X220072Y393215D01*
X220109Y393115D01*
X220157Y393000D01*
X220209Y392871D01*
X220265Y392738D01*
X220328Y392593D01*
X220398Y392442D01*
X220472Y392286D01*
X220550Y392127D01*
X220635Y391968D01*
X220724Y391809D01*
X220816Y391650D01*
X220820Y391653D01*
X220827Y391657D01*
X220838Y391665D01*
X220857Y391679D01*
X220879Y391690D01*
X220905Y391709D01*
X220934Y391727D01*
X220968Y391746D01*
X221045Y391783D01*
X221138Y391824D01*
X221241Y391857D01*
X221356Y391886D01*
X221353Y391890D01*
X221345Y391898D01*
X221334Y391909D01*
X221319Y391927D01*
X221301Y391949D01*
X221279Y391979D01*
X221249Y392012D01*
X221219Y392049D01*
X221186Y392094D01*
X221149Y392142D01*
X221112Y392194D01*
X221071Y392253D01*
X221027Y392316D01*
X220983Y392386D01*
X220934Y392460D01*
X220883Y392541D01*
X220834Y392627D01*
X220783Y392715D01*
X220727Y392808D01*
X220675Y392908D01*
X220620Y393015D01*
X220564Y393126D01*
X220509Y393241D01*
X220457Y393363D01*
X220402Y393489D01*
X220346Y393618D01*
X220294Y393755D01*
X220239Y393899D01*
X220187Y394044D01*
X220139Y394195D01*
X220091Y394354D01*
X220043Y394517D01*
X220564D01*
X220590Y394514D01*
X220661D01*
X220701Y394510D01*
X220746Y394506D01*
X220797Y394502D01*
X220853Y394499D01*
X220912Y394495D01*
X220975Y394488D01*
X221042Y394480D01*
X221116Y394473D01*
Y394946D01*
X221097D01*
X221079Y394943D01*
X221053Y394939D01*
X221020Y394935D01*
X220983Y394932D01*
X220942Y394928D01*
X220897Y394924D01*
X220797Y394917D01*
X220694Y394909D01*
X220594Y394906D01*
X220501Y394902D01*
X219980D01*
Y396060D01*
Y396064D01*
Y396071D01*
Y396082D01*
Y396101D01*
Y396123D01*
X219984Y396149D01*
Y396182D01*
Y396216D01*
X219987Y396256D01*
X219991Y396301D01*
X219995Y396349D01*
X219998Y396400D01*
X220002Y396456D01*
X220009Y396512D01*
X220024Y396641D01*
D02*
G37*
G36*
X233810Y394280D02*
X233807D01*
X233792Y394277D01*
X233773D01*
X233744Y394273D01*
X233711Y394269D01*
X233670Y394266D01*
X233629Y394262D01*
X233581Y394258D01*
X233477Y394247D01*
X233370Y394240D01*
X233263Y394236D01*
X233167Y394232D01*
X230762D01*
X230747Y394236D01*
X230695D01*
X230665Y394240D01*
X230628D01*
X230584Y394243D01*
X230540Y394247D01*
X230484Y394251D01*
X230429Y394254D01*
X230366Y394262D01*
X230295Y394266D01*
X230221Y394273D01*
X230144Y394280D01*
Y393822D01*
X230162D01*
X230181Y393825D01*
X230207Y393829D01*
X230240D01*
X230281Y393833D01*
X230321Y393836D01*
X230369Y393840D01*
X230469Y393847D01*
X230577Y393855D01*
X230684Y393862D01*
X230784Y393866D01*
X233211D01*
X233237Y393862D01*
X233266D01*
X233303Y393859D01*
X233341D01*
X233385Y393855D01*
X233433Y393851D01*
X233488Y393847D01*
X233544Y393844D01*
X233607Y393840D01*
X233670Y393833D01*
X233810Y393822D01*
Y394280D01*
D02*
G37*
G36*
X214974Y396530D02*
X214674Y396012D01*
Y396008D01*
X214670Y396001D01*
X214659Y395979D01*
X214648Y395949D01*
X214644Y395919D01*
Y395916D01*
Y395912D01*
X214652Y395894D01*
X214655Y395890D01*
X214663Y395886D01*
X214674Y395879D01*
X214692Y395875D01*
X214696D01*
X214715Y395879D01*
X214741Y395886D01*
X214781Y395901D01*
X214785D01*
X214792Y395905D01*
X214804Y395908D01*
X214822Y395912D01*
X214844Y395916D01*
X214870Y395919D01*
X214900Y395923D01*
X214977D01*
X215014Y395919D01*
X215055Y395916D01*
X215103Y395908D01*
X215159Y395897D01*
X215218Y395886D01*
X215222D01*
X215229Y395883D01*
X215240D01*
X215259Y395879D01*
X215281Y395871D01*
X215307Y395868D01*
X215336Y395860D01*
X215373Y395853D01*
X215414Y395842D01*
X215458Y395834D01*
X215510Y395823D01*
X215566Y395812D01*
X215621Y395801D01*
X215688Y395790D01*
X215754Y395779D01*
X215825Y395764D01*
X215902Y395753D01*
X215980Y395738D01*
X216065Y395727D01*
X216154Y395712D01*
X216247Y395697D01*
X216343Y395686D01*
X216443Y395672D01*
X216546Y395657D01*
X216653Y395642D01*
X216764Y395631D01*
X216879Y395616D01*
X217001Y395601D01*
X217249Y395575D01*
X217512Y395553D01*
Y395550D01*
Y395538D01*
Y395524D01*
Y395501D01*
X217508Y395472D01*
Y395435D01*
Y395394D01*
Y395346D01*
X217505Y395290D01*
Y395231D01*
Y395165D01*
X217501Y395094D01*
Y395013D01*
Y394928D01*
X217497Y394839D01*
Y394743D01*
Y394739D01*
Y394724D01*
Y394706D01*
X217493Y394676D01*
Y394643D01*
X217490Y394606D01*
Y394562D01*
X217486Y394517D01*
Y394421D01*
X217482Y394325D01*
X217479Y394232D01*
Y394188D01*
Y394151D01*
X215281D01*
X215244Y394155D01*
X215199D01*
X215151Y394158D01*
X215100Y394162D01*
X215044Y394166D01*
X214985Y394173D01*
X214922Y394177D01*
X214852Y394188D01*
X214781Y394195D01*
Y394192D01*
X214785Y394177D01*
X214789Y394151D01*
X214796Y394118D01*
X214807Y394073D01*
X214818Y394025D01*
X214829Y393966D01*
X214844Y393899D01*
X214859Y393829D01*
X214878Y393751D01*
X214900Y393666D01*
X214922Y393577D01*
X214948Y393485D01*
X214974Y393385D01*
X215000Y393285D01*
X215033Y393178D01*
X215096Y392959D01*
X215170Y392734D01*
X215251Y392501D01*
X215340Y392271D01*
X215440Y392042D01*
X215544Y391824D01*
X215595Y391716D01*
X215654Y391613D01*
X215714Y391516D01*
X215773Y391420D01*
X215769Y391417D01*
X215766Y391413D01*
X215754Y391402D01*
X215740Y391383D01*
X215721Y391365D01*
X215703Y391343D01*
X215647Y391287D01*
X215581Y391220D01*
X215499Y391146D01*
X215403Y391061D01*
X215299Y390969D01*
X215181Y390873D01*
X215051Y390773D01*
X214914Y390673D01*
X214770Y390573D01*
X214615Y390477D01*
X214452Y390384D01*
X214282Y390296D01*
X214104Y390218D01*
X214108Y390214D01*
X214115Y390207D01*
X214130Y390196D01*
X214149Y390181D01*
X214171Y390159D01*
X214200Y390133D01*
X214226Y390103D01*
X214260Y390070D01*
X214293Y390033D01*
X214326Y389992D01*
X214393Y389900D01*
X214459Y389792D01*
X214515Y389674D01*
X214519Y389678D01*
X214526Y389681D01*
X214537Y389689D01*
X214552Y389700D01*
X214574Y389718D01*
X214600Y389733D01*
X214626Y389755D01*
X214659Y389781D01*
X214733Y389837D01*
X214822Y389903D01*
X214922Y389981D01*
X215029Y390066D01*
X215144Y390159D01*
X215266Y390262D01*
X215395Y390370D01*
X215525Y390484D01*
X215658Y390603D01*
X215795Y390725D01*
X215928Y390854D01*
X216058Y390984D01*
Y390980D01*
X216065Y390976D01*
X216076Y390965D01*
X216087Y390950D01*
X216106Y390932D01*
X216124Y390910D01*
X216176Y390854D01*
X216239Y390788D01*
X216317Y390706D01*
X216409Y390617D01*
X216517Y390517D01*
X216631Y390414D01*
X216761Y390299D01*
X216905Y390181D01*
X217057Y390059D01*
X217223Y389937D01*
X217401Y389811D01*
X217586Y389685D01*
X217786Y389559D01*
Y389563D01*
X217793Y389570D01*
X217804Y389585D01*
X217815Y389607D01*
X217834Y389630D01*
X217856Y389659D01*
X217882Y389689D01*
X217915Y389722D01*
X217949Y389759D01*
X217989Y389796D01*
X218034Y389833D01*
X218082Y389874D01*
X218137Y389911D01*
X218193Y389948D01*
X218259Y389985D01*
X218326Y390018D01*
X218322D01*
X218311Y390022D01*
X218296Y390029D01*
X218270Y390037D01*
X218245Y390048D01*
X218208Y390062D01*
X218170Y390077D01*
X218126Y390096D01*
X218074Y390114D01*
X218022Y390136D01*
X217963Y390162D01*
X217904Y390192D01*
X217771Y390259D01*
X217627Y390333D01*
X217475Y390418D01*
X217316Y390517D01*
X217153Y390629D01*
X216990Y390747D01*
X216827Y390884D01*
X216668Y391028D01*
X216517Y391187D01*
X216372Y391357D01*
Y391361D01*
X216380Y391369D01*
X216387Y391380D01*
X216398Y391398D01*
X216413Y391424D01*
X216431Y391450D01*
X216454Y391487D01*
X216476Y391524D01*
X216502Y391568D01*
X216528Y391616D01*
X216557Y391668D01*
X216591Y391724D01*
X216624Y391787D01*
X216657Y391853D01*
X216694Y391927D01*
X216731Y392001D01*
X216768Y392083D01*
X216809Y392164D01*
X216850Y392253D01*
X216890Y392349D01*
X216931Y392445D01*
X216972Y392545D01*
X217016Y392649D01*
X217057Y392760D01*
X217097Y392871D01*
X217138Y392989D01*
X217179Y393108D01*
X217220Y393233D01*
X217294Y393492D01*
X217368Y393766D01*
X217479D01*
Y393759D01*
Y393740D01*
Y393707D01*
X217482Y393663D01*
Y393603D01*
X217486Y393537D01*
X217493Y393459D01*
X217497Y393370D01*
X217508Y393274D01*
X217519Y393167D01*
X217530Y393052D01*
X217549Y392934D01*
X217567Y392804D01*
X217590Y392671D01*
X217616Y392530D01*
X217645Y392382D01*
X217678Y392234D01*
X217715Y392079D01*
X217760Y391920D01*
X217804Y391761D01*
X217860Y391598D01*
X217915Y391435D01*
X217978Y391269D01*
X218048Y391102D01*
X218122Y390939D01*
X218204Y390773D01*
X218289Y390610D01*
X218385Y390447D01*
X218485Y390288D01*
X218592Y390133D01*
X218711Y389977D01*
X218833Y389829D01*
X218836Y389833D01*
X218844Y389837D01*
X218859Y389848D01*
X218881Y389863D01*
X218907Y389877D01*
X218936Y389896D01*
X218970Y389918D01*
X219007Y389940D01*
X219095Y389985D01*
X219192Y390029D01*
X219299Y390070D01*
X219414Y390103D01*
X219410Y390107D01*
X219399Y390118D01*
X219380Y390136D01*
X219355Y390159D01*
X219321Y390192D01*
X219284Y390229D01*
X219240Y390273D01*
X219192Y390325D01*
X219140Y390384D01*
X219084Y390447D01*
X219025Y390521D01*
X218966Y390599D01*
X218899Y390684D01*
X218836Y390776D01*
X218770Y390876D01*
X218700Y390980D01*
X218633Y391095D01*
X218566Y391213D01*
X218500Y391335D01*
X218433Y391468D01*
X218370Y391605D01*
X218311Y391750D01*
X218252Y391901D01*
X218196Y392060D01*
X218148Y392223D01*
X218100Y392393D01*
X218059Y392567D01*
X218022Y392752D01*
X217993Y392941D01*
X217967Y393137D01*
X217952Y393337D01*
X217941Y393544D01*
Y393548D01*
Y393563D01*
Y393588D01*
X217937Y393622D01*
Y393659D01*
Y393707D01*
X217934Y393759D01*
Y393818D01*
Y393881D01*
X217930Y393947D01*
Y394088D01*
X217926Y394236D01*
Y394384D01*
Y394388D01*
Y394395D01*
Y394406D01*
Y394425D01*
Y394443D01*
Y394469D01*
Y394502D01*
Y394536D01*
Y394576D01*
Y394621D01*
X217930Y394669D01*
Y394721D01*
Y394776D01*
Y394839D01*
X217934Y394902D01*
Y394972D01*
Y394976D01*
Y394980D01*
Y394991D01*
Y395002D01*
X217937Y395039D01*
Y395087D01*
X217941Y395146D01*
X217945Y395216D01*
X217949Y395290D01*
X217952Y395372D01*
X217956Y395453D01*
X217963Y395542D01*
X217974Y395716D01*
X217982Y395801D01*
X217993Y395879D01*
X218000Y395956D01*
X218011Y396023D01*
X217974D01*
X217934Y396019D01*
X217882D01*
X217819Y396016D01*
X217752D01*
X217608Y396012D01*
X217545D01*
X217512Y396016D01*
X217427D01*
X217371Y396019D01*
X217316Y396023D01*
X217249Y396027D01*
X217179Y396034D01*
X217105Y396038D01*
X217027Y396045D01*
X216942Y396056D01*
X216853Y396064D01*
X216761Y396079D01*
X216565Y396105D01*
X216357Y396138D01*
X216139Y396182D01*
X215914Y396230D01*
X215684Y396289D01*
X215447Y396360D01*
X215211Y396438D01*
X214974Y396530D01*
D02*
G37*
G36*
X228756Y393529D02*
X228741D01*
X228719Y393526D01*
X228693Y393522D01*
X228664D01*
X228627Y393518D01*
X228582Y393514D01*
X228538Y393511D01*
X228434Y393503D01*
X228320Y393496D01*
X228201Y393489D01*
X228083Y393485D01*
X222592D01*
X222566Y393489D01*
X222503D01*
X222466Y393492D01*
X222422D01*
X222374Y393496D01*
X222326Y393500D01*
X222215Y393507D01*
X222096Y393518D01*
X221970Y393529D01*
Y393052D01*
X221985D01*
X222004Y393056D01*
X222030Y393059D01*
X222059D01*
X222093Y393063D01*
X222133Y393067D01*
X222178Y393071D01*
X222277Y393078D01*
X222389Y393085D01*
X222503Y393093D01*
X222622Y393096D01*
X226077D01*
Y393093D01*
X226085Y393082D01*
X226092Y393063D01*
X226107Y393037D01*
X226122Y393004D01*
X226140Y392963D01*
X226159Y392919D01*
X226181Y392867D01*
X226207Y392811D01*
X226233Y392749D01*
X226262Y392678D01*
X226296Y392608D01*
X226325Y392530D01*
X226359Y392449D01*
X226392Y392360D01*
X226429Y392271D01*
X223558D01*
X223535Y392275D01*
X223473D01*
X223432Y392279D01*
X223391D01*
X223343Y392282D01*
X223291Y392286D01*
X223180Y392294D01*
X223058Y392305D01*
X222929Y392316D01*
Y392312D01*
X222932Y392305D01*
Y392286D01*
X222936Y392268D01*
X222940Y392242D01*
X222947Y392208D01*
X222951Y392175D01*
X222958Y392134D01*
X222966Y392090D01*
X222969Y392046D01*
X222984Y391942D01*
X222999Y391831D01*
X223010Y391713D01*
Y391709D01*
Y391698D01*
X223014Y391679D01*
Y391657D01*
X223018Y391624D01*
X223021Y391590D01*
X223029Y391550D01*
X223032Y391502D01*
X223040Y391454D01*
X223047Y391398D01*
X223066Y391280D01*
X223088Y391154D01*
X223114Y391021D01*
X223147Y390884D01*
X223184Y390747D01*
X223225Y390614D01*
X223273Y390484D01*
X223328Y390370D01*
X223358Y390318D01*
X223388Y390270D01*
X223421Y390225D01*
X223458Y390184D01*
X223495Y390151D01*
X223532Y390122D01*
X223535Y390118D01*
X223554Y390107D01*
X223584Y390085D01*
X223606Y390073D01*
X223628Y390062D01*
X223658Y390048D01*
X223687Y390033D01*
X223724Y390014D01*
X223769Y390000D01*
X223813Y389981D01*
X223865Y389963D01*
X223920Y389944D01*
X223983Y389926D01*
X224050Y389907D01*
X224124Y389885D01*
X224201Y389866D01*
X224287Y389848D01*
X224379Y389829D01*
X224475Y389811D01*
X224583Y389796D01*
X224694Y389777D01*
X224812Y389763D01*
X224938Y389748D01*
X225071Y389733D01*
X225212Y389722D01*
X225360Y389711D01*
X225519Y389703D01*
X225681Y389696D01*
X225855Y389689D01*
Y389692D01*
Y389703D01*
X225859Y389718D01*
X225863Y389740D01*
X225867Y389770D01*
X225870Y389803D01*
X225878Y389840D01*
X225885Y389881D01*
X225907Y389970D01*
X225933Y390070D01*
X225970Y390177D01*
X226018Y390281D01*
X226014D01*
X226000Y390277D01*
X225977Y390273D01*
X225944Y390270D01*
X225907Y390262D01*
X225863Y390259D01*
X225811Y390251D01*
X225752Y390244D01*
X225689Y390236D01*
X225622Y390229D01*
X225552Y390225D01*
X225478Y390218D01*
X225319Y390210D01*
X225156Y390207D01*
X225060D01*
X225008Y390210D01*
X224953D01*
X224890Y390214D01*
X224819Y390218D01*
X224812D01*
X224790Y390222D01*
X224760Y390225D01*
X224716Y390229D01*
X224664Y390236D01*
X224601Y390244D01*
X224535Y390255D01*
X224464Y390266D01*
X224312Y390292D01*
X224157Y390329D01*
X224083Y390351D01*
X224013Y390373D01*
X223946Y390399D01*
X223887Y390425D01*
X223883Y390429D01*
X223868Y390440D01*
X223850Y390455D01*
X223824Y390484D01*
X223791Y390521D01*
X223758Y390569D01*
X223721Y390629D01*
X223680Y390703D01*
X223661Y390743D01*
X223643Y390791D01*
X223624Y390839D01*
X223606Y390891D01*
X223587Y390950D01*
X223569Y391013D01*
X223554Y391076D01*
X223535Y391146D01*
X223524Y391224D01*
X223510Y391302D01*
X223499Y391387D01*
X223487Y391476D01*
X223480Y391572D01*
X223473Y391672D01*
X223469Y391775D01*
X223465Y391886D01*
X226510D01*
X226540Y391883D01*
X226573D01*
X226610Y391879D01*
X226655D01*
X226703Y391875D01*
X226754Y391872D01*
X226814Y391868D01*
X226877Y391864D01*
X226943Y391857D01*
X227013Y391853D01*
X227091Y391846D01*
X227169Y391838D01*
Y391842D01*
X227165Y391846D01*
X227154Y391868D01*
X227136Y391901D01*
X227113Y391949D01*
X227084Y392009D01*
X227050Y392075D01*
X227013Y392153D01*
X226973Y392242D01*
X226928Y392334D01*
X226884Y392430D01*
X226840Y392538D01*
X226795Y392645D01*
X226706Y392867D01*
X226625Y393096D01*
X228135D01*
X228164Y393093D01*
X228198D01*
X228235Y393089D01*
X228279D01*
X228327Y393085D01*
X228379Y393082D01*
X228434Y393078D01*
X228493Y393074D01*
X228619Y393063D01*
X228756Y393052D01*
Y393529D01*
D02*
G37*
G36*
X251611Y394473D02*
X251607D01*
X251604Y394469D01*
X251593Y394462D01*
X251582Y394451D01*
X251541Y394428D01*
X251493Y394395D01*
X251430Y394354D01*
X251356Y394303D01*
X251274Y394247D01*
X251182Y394184D01*
X251086Y394118D01*
X250978Y394044D01*
X250871Y393966D01*
X250756Y393884D01*
X250520Y393714D01*
X250279Y393537D01*
X250553Y393156D01*
X250560Y393163D01*
X250579Y393178D01*
X250612Y393204D01*
X250660Y393241D01*
X250716Y393285D01*
X250782Y393337D01*
X250860Y393396D01*
X250945Y393463D01*
X251038Y393533D01*
X251141Y393611D01*
X251249Y393688D01*
X251363Y393770D01*
X251482Y393851D01*
X251607Y393936D01*
X251737Y394021D01*
X251866Y394107D01*
X251611Y394473D01*
D02*
G37*
G36*
X233810Y393156D02*
X233792D01*
X233773Y393152D01*
X233744Y393148D01*
X233711Y393144D01*
X233674Y393141D01*
X233629Y393137D01*
X233581Y393133D01*
X233481Y393122D01*
X233374Y393115D01*
X233266Y393108D01*
X233167Y393104D01*
X230758D01*
X230739Y393108D01*
X230688D01*
X230654Y393111D01*
X230617Y393115D01*
X230573D01*
X230525Y393119D01*
X230473Y393122D01*
X230414Y393130D01*
X230355Y393133D01*
X230288Y393141D01*
X230218Y393148D01*
X230144Y393156D01*
Y392693D01*
X230162D01*
X230184Y392697D01*
X230210Y392701D01*
X230244D01*
X230284Y392704D01*
X230329Y392708D01*
X230377Y392712D01*
X230480Y392719D01*
X230584Y392726D01*
X230688Y392734D01*
X230739Y392738D01*
X233207D01*
X233229Y392734D01*
X233255D01*
X233289Y392730D01*
X233326D01*
X233370Y392726D01*
X233418Y392723D01*
X233470Y392719D01*
X233529Y392715D01*
X233592Y392712D01*
X233659Y392704D01*
X233733Y392701D01*
X233810Y392693D01*
Y393156D01*
D02*
G37*
G36*
X238783Y394525D02*
X238779Y394521D01*
X238772Y394506D01*
X238761Y394484D01*
X238746Y394451D01*
X238724Y394410D01*
X238702Y394362D01*
X238672Y394306D01*
X238643Y394243D01*
X238606Y394173D01*
X238569Y394099D01*
X238528Y394014D01*
X238484Y393925D01*
X238439Y393829D01*
X238391Y393729D01*
X238339Y393622D01*
X238287Y393511D01*
X238232Y393392D01*
X238176Y393274D01*
X238121Y393148D01*
X238062Y393019D01*
X237943Y392752D01*
X237825Y392475D01*
X237703Y392190D01*
X237584Y391894D01*
X237466Y391598D01*
X237355Y391298D01*
X237832Y391058D01*
Y391061D01*
X237840Y391076D01*
X237847Y391102D01*
X237858Y391135D01*
X237869Y391180D01*
X237888Y391228D01*
X237906Y391287D01*
X237929Y391354D01*
X237954Y391428D01*
X237984Y391509D01*
X238014Y391594D01*
X238047Y391690D01*
X238084Y391787D01*
X238125Y391894D01*
X238165Y392001D01*
X238210Y392116D01*
X238258Y392234D01*
X238306Y392356D01*
X238413Y392615D01*
X238532Y392882D01*
X238657Y393156D01*
X238794Y393441D01*
X238939Y393722D01*
X239094Y394007D01*
X239257Y394288D01*
X238783Y394525D01*
D02*
G37*
G36*
X242883Y394632D02*
X242217Y394417D01*
X242213D01*
X242206Y394414D01*
X242183Y394403D01*
X242165Y394388D01*
X242158Y394380D01*
Y394373D01*
Y394366D01*
X242165Y394351D01*
X242176Y394340D01*
X242187Y394325D01*
X242206Y394310D01*
X242232Y394295D01*
X242235D01*
X242243Y394288D01*
X242254Y394280D01*
X242269Y394269D01*
X242287Y394251D01*
X242309Y394229D01*
X242332Y394203D01*
X242357Y394173D01*
X242383Y394136D01*
X242409Y394095D01*
X242435Y394047D01*
X242461Y393995D01*
X242487Y393933D01*
X242513Y393866D01*
X242535Y393792D01*
X242553Y393711D01*
Y393707D01*
X242557Y393692D01*
X242565Y393670D01*
X242572Y393637D01*
X242583Y393600D01*
X242594Y393551D01*
X242609Y393500D01*
X242624Y393437D01*
X242646Y393370D01*
X242665Y393296D01*
X242687Y393218D01*
X242713Y393133D01*
X242742Y393045D01*
X242768Y392952D01*
X242801Y392856D01*
X242835Y392752D01*
X242909Y392541D01*
X242986Y392319D01*
X243075Y392090D01*
X243171Y391853D01*
X243275Y391620D01*
X243386Y391387D01*
X243501Y391161D01*
X243626Y390943D01*
X243630D01*
X243641Y390950D01*
X243656Y390954D01*
X243678Y390965D01*
X243704Y390976D01*
X243738Y390987D01*
X243775Y391002D01*
X243815Y391021D01*
X243908Y391054D01*
X244008Y391087D01*
X244119Y391121D01*
X244233Y391150D01*
X244230Y391154D01*
X244222Y391161D01*
X244211Y391172D01*
X244193Y391191D01*
X244170Y391213D01*
X244145Y391243D01*
X244115Y391276D01*
X244082Y391317D01*
X244045Y391361D01*
X244008Y391417D01*
X243963Y391476D01*
X243919Y391542D01*
X243871Y391616D01*
X243823Y391698D01*
X243771Y391787D01*
X243719Y391883D01*
X243664Y391986D01*
X243612Y392097D01*
X243556Y392219D01*
X243497Y392349D01*
X243442Y392486D01*
X243386Y392634D01*
X243331Y392789D01*
X243275Y392952D01*
X243219Y393126D01*
X243168Y393311D01*
X243116Y393507D01*
X243064Y393711D01*
X243016Y393925D01*
X242968Y394151D01*
X242923Y394384D01*
X242883Y394632D01*
D02*
G37*
G36*
X246057Y391672D02*
X246054D01*
X246050Y391665D01*
X246031Y391642D01*
X245998Y391609D01*
X245954Y391561D01*
X245898Y391502D01*
X245835Y391431D01*
X245761Y391350D01*
X245680Y391261D01*
X245595Y391165D01*
X245502Y391061D01*
X245406Y390950D01*
X245306Y390836D01*
X245203Y390717D01*
X245099Y390592D01*
X244888Y390340D01*
X245284Y390011D01*
Y390014D01*
X245291Y390018D01*
X245299Y390029D01*
X245310Y390044D01*
X245325Y390062D01*
X245343Y390085D01*
X245384Y390140D01*
X245436Y390207D01*
X245499Y390288D01*
X245569Y390373D01*
X245647Y390469D01*
X245728Y390573D01*
X245821Y390684D01*
X245913Y390795D01*
X246013Y390910D01*
X246217Y391146D01*
X246320Y391261D01*
X246424Y391372D01*
X246057Y391672D01*
D02*
G37*
G36*
X248244Y391779D02*
X247778Y391539D01*
X247771Y391535D01*
X247756Y391528D01*
X247737Y391520D01*
X247711Y391505D01*
X247689Y391491D01*
X247667Y391476D01*
X247652Y391461D01*
X247648Y391450D01*
Y391446D01*
X247652Y391439D01*
X247656Y391431D01*
X247667Y391420D01*
X247685Y391409D01*
X247711Y391394D01*
X247748Y391380D01*
X247752D01*
X247756Y391376D01*
X247767Y391372D01*
X247778Y391369D01*
X247815Y391350D01*
X247837Y391335D01*
X247863Y391317D01*
X247889Y391295D01*
X247919Y391269D01*
X247948Y391239D01*
X247978Y391202D01*
X248011Y391161D01*
X248044Y391117D01*
X248081Y391065D01*
X248115Y391006D01*
X248118Y390999D01*
X248129Y390980D01*
X248148Y390950D01*
X248174Y390910D01*
X248203Y390862D01*
X248240Y390802D01*
X248285Y390736D01*
X248337Y390662D01*
X248392Y390580D01*
X248451Y390492D01*
X248518Y390403D01*
X248588Y390307D01*
X248662Y390207D01*
X248744Y390107D01*
X248825Y390007D01*
X248914Y389903D01*
X248918Y389907D01*
X248921Y389911D01*
X248936Y389918D01*
X248951Y389929D01*
X248969Y389944D01*
X248995Y389959D01*
X249021Y389977D01*
X249054Y389996D01*
X249125Y390040D01*
X249214Y390092D01*
X249310Y390144D01*
X249417Y390196D01*
X249413D01*
X249410Y390199D01*
X249398Y390207D01*
X249387Y390218D01*
X249350Y390244D01*
X249302Y390284D01*
X249239Y390333D01*
X249173Y390395D01*
X249095Y390473D01*
X249010Y390562D01*
X248918Y390662D01*
X248825Y390776D01*
X248729Y390906D01*
X248677Y390976D01*
X248629Y391050D01*
X248581Y391128D01*
X248529Y391209D01*
X248481Y391295D01*
X248433Y391383D01*
X248385Y391476D01*
X248337Y391572D01*
X248288Y391676D01*
X248244Y391779D01*
D02*
G37*
G36*
X250623Y392760D02*
Y392756D01*
X250616Y392749D01*
X250608Y392734D01*
X250601Y392719D01*
X250586Y392693D01*
X250571Y392667D01*
X250531Y392604D01*
X250483Y392530D01*
X250423Y392445D01*
X250357Y392356D01*
X250279Y392264D01*
X250283Y392260D01*
X250287Y392245D01*
X250298Y392223D01*
X250309Y392194D01*
X250327Y392157D01*
X250349Y392112D01*
X250372Y392060D01*
X250397Y392005D01*
X250427Y391938D01*
X250457Y391872D01*
X250494Y391794D01*
X250527Y391716D01*
X250568Y391631D01*
X250608Y391542D01*
X250649Y391450D01*
X250693Y391354D01*
X250782Y391150D01*
X250879Y390939D01*
X250975Y390721D01*
X251075Y390503D01*
X251171Y390281D01*
X251267Y390062D01*
X251363Y389848D01*
X251452Y389644D01*
X251944Y389966D01*
X251940Y389970D01*
X251937Y389981D01*
X251926Y389996D01*
X251911Y390018D01*
X251892Y390048D01*
X251874Y390081D01*
X251848Y390122D01*
X251818Y390166D01*
X251789Y390218D01*
X251755Y390277D01*
X251718Y390340D01*
X251681Y390406D01*
X251641Y390480D01*
X251596Y390562D01*
X251552Y390647D01*
X251504Y390736D01*
X251452Y390828D01*
X251404Y390928D01*
X251352Y391032D01*
X251297Y391139D01*
X251245Y391254D01*
X251189Y391369D01*
X251134Y391491D01*
X251075Y391616D01*
X251019Y391746D01*
X250964Y391879D01*
X250904Y392016D01*
X250849Y392160D01*
X250734Y392453D01*
X250623Y392760D01*
D02*
G37*
G36*
X240922Y396530D02*
X240322Y396441D01*
X240319D01*
X240311Y396438D01*
X240297Y396434D01*
X240282Y396430D01*
X240252Y396419D01*
X240245Y396412D01*
X240237Y396404D01*
Y396400D01*
X240241Y396386D01*
X240248Y396375D01*
X240256Y396363D01*
X240271Y396345D01*
X240293Y396326D01*
X240300Y396323D01*
X240315Y396304D01*
X240326Y396289D01*
X240337Y396275D01*
X240348Y396252D01*
X240359Y396227D01*
X240374Y396197D01*
X240385Y396164D01*
X240396Y396123D01*
X240407Y396079D01*
X240419Y396027D01*
X240422Y395971D01*
X240430Y395908D01*
Y395842D01*
Y390218D01*
Y390214D01*
Y390203D01*
Y390184D01*
Y390162D01*
X240433Y390133D01*
X240437Y390099D01*
X240448Y390029D01*
X240474Y389948D01*
X240489Y389911D01*
X240511Y389870D01*
X240537Y389837D01*
X240563Y389803D01*
X240596Y389774D01*
X240637Y389748D01*
X240641D01*
X240648Y389740D01*
X240659Y389737D01*
X240681Y389726D01*
X240707Y389715D01*
X240740Y389703D01*
X240785Y389689D01*
X240833Y389670D01*
X240896Y389655D01*
X240966Y389637D01*
X241044Y389618D01*
X241136Y389600D01*
X241240Y389578D01*
X241355Y389559D01*
X241480Y389541D01*
X241621Y389522D01*
Y389526D01*
X241625Y389541D01*
X241629Y389563D01*
X241636Y389589D01*
X241643Y389622D01*
X241654Y389663D01*
X241669Y389707D01*
X241684Y389752D01*
X241717Y389855D01*
X241762Y389963D01*
X241813Y390066D01*
X241843Y390114D01*
X241873Y390159D01*
X241869D01*
X241858Y390155D01*
X241836D01*
X241810Y390151D01*
X241780Y390144D01*
X241743Y390140D01*
X241706Y390136D01*
X241662Y390129D01*
X241569Y390118D01*
X241473Y390110D01*
X241377Y390103D01*
X241333Y390099D01*
X241240D01*
X241207Y390103D01*
X241133Y390110D01*
X241099Y390118D01*
X241066Y390129D01*
X241062D01*
X241059Y390133D01*
X241037Y390144D01*
X241003Y390162D01*
X240966Y390192D01*
X240948Y390214D01*
X240933Y390240D01*
X240914Y390270D01*
X240900Y390303D01*
X240889Y390340D01*
X240881Y390384D01*
X240874Y390432D01*
Y390488D01*
Y395812D01*
Y395816D01*
Y395823D01*
Y395842D01*
Y395860D01*
X240877Y395890D01*
Y395923D01*
X240881Y395960D01*
Y396005D01*
X240885Y396053D01*
X240889Y396105D01*
X240892Y396164D01*
X240896Y396230D01*
X240903Y396297D01*
X240907Y396371D01*
X240914Y396449D01*
X240922Y396530D01*
D02*
G37*
%LPD*%
G36*
X226947Y394532D02*
X223706D01*
Y395849D01*
X226947D01*
Y394532D01*
D02*
G37*
G36*
X248070Y393666D02*
X245906D01*
Y394410D01*
X248070D01*
Y393666D01*
D02*
G37*
G36*
Y392541D02*
X245906D01*
Y393267D01*
X248070D01*
Y392541D01*
D02*
G37*
G36*
X216861Y393762D02*
X216857Y393751D01*
X216853Y393737D01*
X216850Y393714D01*
X216842Y393685D01*
X216831Y393651D01*
X216824Y393614D01*
X216813Y393570D01*
X216798Y393522D01*
X216783Y393470D01*
X216768Y393411D01*
X216750Y393352D01*
X216709Y393218D01*
X216665Y393078D01*
X216613Y392926D01*
X216554Y392767D01*
X216487Y392601D01*
X216417Y392438D01*
X216339Y392271D01*
X216258Y392105D01*
X216169Y391946D01*
X216073Y391794D01*
Y391798D01*
X216065Y391805D01*
X216061Y391816D01*
X216050Y391831D01*
X216039Y391849D01*
X216024Y391875D01*
X216006Y391905D01*
X215987Y391935D01*
X215969Y391972D01*
X215947Y392012D01*
X215925Y392057D01*
X215899Y392108D01*
X215873Y392160D01*
X215847Y392216D01*
X215791Y392338D01*
X215732Y392475D01*
X215669Y392623D01*
X215610Y392786D01*
X215551Y392959D01*
X215495Y393144D01*
X215440Y393344D01*
X215392Y393548D01*
X215347Y393766D01*
X216861D01*
Y393762D01*
D02*
G37*
D113*
X83000Y347693D02*
Y395100D01*
X74000Y356000D02*
X91200D01*
X74000Y366000D02*
X91200D01*
X74000Y376000D02*
X91200D01*
X74000Y386000D02*
X91200D01*
M02*
