G04*
G04 #@! TF.GenerationSoftware,Altium Limited,Altium Designer,22.3.1 (43)*
G04*
G04 Layer_Color=255*
%FSLAX25Y25*%
%MOIN*%
G70*
G04*
G04 #@! TF.SameCoordinates,42F2F30E-D50D-475D-B1A6-53A476FFABF4*
G04*
G04*
G04 #@! TF.FilePolarity,Positive*
G04*
G01*
G75*
%ADD30R,0.07874X0.07874*%
%ADD68R,0.27559X0.27559*%
%ADD69C,0.07677*%
%ADD70O,0.11811X0.08661*%
%ADD71C,0.06299*%
%ADD72R,0.06299X0.06299*%
%ADD73C,0.20000*%
%ADD74R,0.07480X0.07480*%
%ADD75C,0.07480*%
%ADD76O,0.07874X0.04724*%
%ADD77R,0.07874X0.04724*%
%ADD78C,0.07087*%
%ADD79R,0.07087X0.07087*%
%ADD80O,0.04724X0.07874*%
%ADD81R,0.04724X0.07874*%
%ADD82O,0.08661X0.11811*%
%ADD83C,0.07874*%
D30*
X67842Y472000D02*
D03*
D68*
X478500Y530000D02*
D03*
Y379500D02*
D03*
X329000Y530000D02*
D03*
Y379500D02*
D03*
D69*
X178000Y167500D02*
D03*
Y77343D02*
D03*
Y117500D02*
D03*
Y187185D02*
D03*
X453842Y173000D02*
D03*
X403842D02*
D03*
X384157D02*
D03*
X494000D02*
D03*
X109500Y117500D02*
D03*
Y167500D02*
D03*
Y77343D02*
D03*
Y187185D02*
D03*
X492657Y294000D02*
D03*
X382815D02*
D03*
X402500D02*
D03*
X452500D02*
D03*
X246500Y77343D02*
D03*
Y187185D02*
D03*
Y167500D02*
D03*
Y117500D02*
D03*
X41000Y187185D02*
D03*
Y117500D02*
D03*
Y77343D02*
D03*
Y167500D02*
D03*
X494657Y233500D02*
D03*
X384815D02*
D03*
X404500D02*
D03*
X454500D02*
D03*
X451500Y110500D02*
D03*
X401500D02*
D03*
X381815D02*
D03*
X491657D02*
D03*
D70*
X565500Y332000D02*
D03*
Y302000D02*
D03*
Y272000D02*
D03*
Y257000D02*
D03*
Y227000D02*
D03*
Y197000D02*
D03*
Y182000D02*
D03*
Y212000D02*
D03*
Y242000D02*
D03*
Y287000D02*
D03*
Y317000D02*
D03*
Y347000D02*
D03*
X24000Y335500D02*
D03*
Y290500D02*
D03*
Y395500D02*
D03*
Y410500D02*
D03*
Y275500D02*
D03*
Y305500D02*
D03*
Y350500D02*
D03*
Y380500D02*
D03*
Y365500D02*
D03*
Y320500D02*
D03*
X571000Y53000D02*
D03*
Y68000D02*
D03*
D71*
X149500Y333000D02*
D03*
X139500D02*
D03*
Y353000D02*
D03*
X149500D02*
D03*
X139500Y343000D02*
D03*
X149500Y323000D02*
D03*
Y363000D02*
D03*
X139500Y323000D02*
D03*
X149500Y343000D02*
D03*
D72*
X139500Y363000D02*
D03*
D73*
X570866Y19685D02*
D03*
Y570866D02*
D03*
X19685D02*
D03*
Y19685D02*
D03*
D74*
X169000Y527500D02*
D03*
D75*
X149000D02*
D03*
D76*
X325000Y351087D02*
D03*
Y344000D02*
D03*
X324000Y323087D02*
D03*
Y316000D02*
D03*
X327500Y267087D02*
D03*
Y260000D02*
D03*
X331000Y197587D02*
D03*
Y190500D02*
D03*
X334500Y127587D02*
D03*
Y120500D02*
D03*
D77*
X325000Y336913D02*
D03*
X324000Y308913D02*
D03*
X327500Y252913D02*
D03*
X331000Y183413D02*
D03*
X334500Y113413D02*
D03*
D78*
X468000Y55000D02*
D03*
Y65000D02*
D03*
D79*
Y75000D02*
D03*
D80*
X248913Y531000D02*
D03*
X241827D02*
D03*
D81*
X256000D02*
D03*
D82*
X289500Y567500D02*
D03*
X319500D02*
D03*
X349500D02*
D03*
X394500D02*
D03*
X424500D02*
D03*
X454500D02*
D03*
X439500D02*
D03*
X409500D02*
D03*
X379500D02*
D03*
X364500D02*
D03*
X334500D02*
D03*
X304500D02*
D03*
D83*
X48157Y472000D02*
D03*
M02*
