G04*
G04 #@! TF.GenerationSoftware,Altium Limited,Altium Designer,22.3.1 (43)*
G04*
G04 Layer_Color=8421504*
%FSLAX25Y25*%
%MOIN*%
G70*
G04*
G04 #@! TF.SameCoordinates,5406EE39-799D-43BB-BE37-E4F8AF43DF71*
G04*
G04*
G04 #@! TF.FilePolarity,Positive*
G04*
G01*
G75*
%ADD20R,0.04134X0.12598*%
%ADD21R,0.41142X0.39370*%
%ADD22O,0.02362X0.08268*%
%ADD23R,0.02362X0.08268*%
%ADD24R,0.05000X0.05000*%
%ADD25R,0.12992X0.10630*%
%ADD26R,0.03937X0.10630*%
%ADD27R,0.02362X0.05512*%
%ADD28R,0.05512X0.02362*%
%ADD29R,0.07874X0.07874*%
G04:AMPARAMS|DCode=30|XSize=55mil|YSize=50mil|CornerRadius=0mil|HoleSize=0mil|Usage=FLASHONLY|Rotation=180.000|XOffset=0mil|YOffset=0mil|HoleType=Round|Shape=Octagon|*
%AMOCTAGOND30*
4,1,8,-0.02750,0.01250,-0.02750,-0.01250,-0.01500,-0.02500,0.01500,-0.02500,0.02750,-0.01250,0.02750,0.01250,0.01500,0.02500,-0.01500,0.02500,-0.02750,0.01250,0.0*
%
%ADD30OCTAGOND30*%

%ADD31R,0.05500X0.05000*%
%ADD32R,0.09449X0.12992*%
D20*
X40114Y519500D02*
D03*
X66886D02*
D03*
X53500D02*
D03*
X60193D02*
D03*
X46807D02*
D03*
D21*
X53500Y560500D02*
D03*
D22*
X513000Y55173D02*
D03*
X523000Y76827D02*
D03*
X518000D02*
D03*
X513000D02*
D03*
X528000Y55173D02*
D03*
X523000D02*
D03*
X518000D02*
D03*
D23*
X528000Y76827D02*
D03*
D24*
X468000Y69500D02*
D03*
Y60500D02*
D03*
X486500Y70000D02*
D03*
Y61000D02*
D03*
X261000Y522500D02*
D03*
Y531500D02*
D03*
X313500Y521000D02*
D03*
Y530000D02*
D03*
X486500Y30000D02*
D03*
Y21000D02*
D03*
X536500Y29500D02*
D03*
Y20500D02*
D03*
X549500Y29500D02*
D03*
Y20500D02*
D03*
X257000Y492500D02*
D03*
Y483500D02*
D03*
X238500Y492500D02*
D03*
Y483500D02*
D03*
X201000Y492500D02*
D03*
Y483500D02*
D03*
X184500Y492500D02*
D03*
Y483500D02*
D03*
X95500D02*
D03*
Y492500D02*
D03*
D25*
X206000Y541244D02*
D03*
D26*
Y518016D02*
D03*
X215055D02*
D03*
X196945D02*
D03*
D27*
X341759Y485500D02*
D03*
X349240D02*
D03*
X345500Y495397D02*
D03*
X341759Y399750D02*
D03*
X349240D02*
D03*
X345500Y409647D02*
D03*
X341759Y314000D02*
D03*
X349240D02*
D03*
X345500Y323897D02*
D03*
X341759Y228250D02*
D03*
X349240D02*
D03*
X345500Y238147D02*
D03*
X341760Y142500D02*
D03*
X349240D02*
D03*
X345500Y152397D02*
D03*
D28*
X217000Y234520D02*
D03*
Y242000D02*
D03*
X207103Y238260D02*
D03*
X145000Y234520D02*
D03*
Y242000D02*
D03*
X135103Y238260D02*
D03*
X73000Y234520D02*
D03*
Y242000D02*
D03*
X63103Y238260D02*
D03*
D29*
X96000Y527801D02*
D03*
X126000D02*
D03*
D30*
X506750Y25500D02*
D03*
D31*
X520250D02*
D03*
D32*
X123638Y487984D02*
D03*
X151000D02*
D03*
M02*
