M48
;Layer_Color=9474304
;FILE_FORMAT=2:5
INCH,LZ
;TYPE=PLATED
T1F00S00C0.02756
T2F00S00C0.02800
T3F00S00C0.03150
T4F00S00C0.03543
T5F00S00C0.03937
T6F00S00C0.04000
T7F00S00C0.04331
T8F00S00C0.05000
T9F00S00C0.05118
T10F00S00C0.12500
T11F00S00C0.15748
%
T01
X00595Y01675
Y01775
Y01875
T02
X02065Y00437
X0261Y01269
X02218Y01681
X02093Y01141
X0065Y01115
X00687Y0093033
X007075Y01955
X00845Y0198316
X005121Y014653
X0053Y01225
X0056Y0091
X00514Y0062833
X00085Y01105
X0008Y0126
X0048Y03567
X0062051Y034065
X00934Y03151
X00746Y02587
X00645Y02255
X00985Y0229931
X01515
X0166Y02232
X02045Y0230001
X01829Y0361
X0147Y03441
X02575Y0230001
X0232Y04795
X0224Y05005
X0255Y05075
X02069Y04795
X01915Y0481
X0186Y04955
X0169Y04805
X01694Y0471
X01495Y04805
Y05005
X0137331Y0502
X014375Y04635
X01331Y0450525
X0125625Y04403
X0113Y04415
X01515Y04465
X0161875Y04435
X018
X00691Y04506
X0071193Y0524299
X01046Y03976
X00335Y05235
X0047622Y0556
X0196945Y0527571
X0254Y05444
X02285Y057
T03
X009Y0217
X0097087
X0104173
X0142971
X0150058
X0157144
X0195942
X0203029
X0210115
X0248913
X0256
X0263087
X0267Y0417413
Y04245
Y0431587
X02525Y04485
Y0455587
Y0462673
X0231
Y0455587
Y04485
X02425Y0523
X0249587
X0256673
X02095Y0462673
Y0455587
Y04485
X01395Y0413673
Y0406587
Y03995
T04
X0078Y0351
X0088
Y0361
X0078
Y0371
X0088
Y0381
Y0391
X0078
Y0381
X0153Y05445
X0173
T05
X0019685Y00425
Y00575
Y00725
Y00875
Y01025
Y01175
Y01325
Y01475
Y01625
Y01775
Y0201161
Y0216161
Y023565
Y025065
Y026565
Y028065
Y029565
Y031065
Y032565
Y034065
Y035565
Y037065
Y0389941
Y0404941
Y0419941
Y0434941
Y0449941
Y0464941
Y0479941
Y0494941
Y0509941
Y0524941
Y0539941
Y0554941
T06
X0028854Y0223739
T07
X0060815Y04735
X00805
T08
X0097Y0524
X00475Y0522
T09
X00925Y0052343
X0143333
X0194167
X0245Y0052342
Y00925
Y01425
Y0162185
X0194167
Y01425
Y00925
X0143333
Y01425
Y0162185
X00925
Y01425
Y00925
X017Y0288342
Y03285
X02205Y0330658
Y02905
Y0380658
Y0400343
X017Y0398185
Y03785
T10
X0013779Y0013779
X0576772
X0013779Y0576772
X0576772
T11
X0327Y00445
X04765
Y0195
X0327
Y022625
X04765
Y037675
Y0408
X0327
Y037675
Y05585
X04765
M30
