G04*
G04 #@! TF.GenerationSoftware,Altium Limited,Altium Designer,22.3.1 (43)*
G04*
G04 Layer_Physical_Order=1*
G04 Layer_Color=255*
%FSLAX25Y25*%
%MOIN*%
G70*
G04*
G04 #@! TF.SameCoordinates,ABD3340E-3DDB-4FBE-A437-06F7E2321E34*
G04*
G04*
G04 #@! TF.FilePolarity,Positive*
G04*
G01*
G75*
%ADD20R,0.05000X0.05000*%
%ADD21R,0.04134X0.12598*%
%ADD22R,0.41142X0.39370*%
%ADD23O,0.02362X0.08268*%
%ADD24R,0.02362X0.08268*%
%ADD25R,0.12992X0.10630*%
%ADD26R,0.03937X0.10630*%
%ADD27R,0.05512X0.02362*%
%ADD28R,0.07874X0.07874*%
G04:AMPARAMS|DCode=29|XSize=55mil|YSize=50mil|CornerRadius=0mil|HoleSize=0mil|Usage=FLASHONLY|Rotation=180.000|XOffset=0mil|YOffset=0mil|HoleType=Round|Shape=Octagon|*
%AMOCTAGOND29*
4,1,8,-0.02750,0.01250,-0.02750,-0.01250,-0.01500,-0.02500,0.01500,-0.02500,0.02750,-0.01250,0.02750,0.01250,0.01500,0.02500,-0.01500,0.02500,-0.02750,0.01250,0.0*
%
%ADD29OCTAGOND29*%

%ADD30R,0.05500X0.05000*%
%ADD31R,0.09449X0.12992*%
%ADD61C,0.03000*%
%ADD62C,0.05000*%
%ADD63C,0.04000*%
%ADD64R,0.07480X0.07480*%
%ADD65C,0.07480*%
%ADD66O,0.07874X0.04724*%
%ADD67R,0.07874X0.04724*%
%ADD68C,0.07087*%
%ADD69R,0.07087X0.07087*%
%ADD70C,0.07677*%
%ADD71C,0.06299*%
%ADD72R,0.06299X0.06299*%
%ADD73O,0.11811X0.08661*%
%ADD74C,0.20000*%
%ADD75O,0.04724X0.07874*%
%ADD76R,0.04724X0.07874*%
%ADD77O,0.08661X0.11811*%
%ADD78R,0.07874X0.07874*%
%ADD79C,0.07874*%
%ADD80C,0.05000*%
G36*
X432540Y561274D02*
X433581Y560006D01*
X433953Y559701D01*
Y543098D01*
X426677Y535823D01*
X425796Y534674D01*
X425241Y533336D01*
X425052Y531900D01*
Y283298D01*
X368277Y226523D01*
X367396Y225374D01*
X366841Y224036D01*
X366652Y222600D01*
Y165398D01*
X366440Y165079D01*
X365950Y163896D01*
X365700Y162641D01*
Y161360D01*
X365950Y160104D01*
X366440Y158922D01*
X367151Y157857D01*
X368056Y156951D01*
X369121Y156240D01*
X370304Y155750D01*
X371560Y155500D01*
X372840D01*
X374096Y155750D01*
X375279Y156240D01*
X376343Y156951D01*
X377249Y157857D01*
X377960Y158922D01*
X378450Y160104D01*
X378700Y161360D01*
Y162641D01*
X378450Y163896D01*
X377960Y165079D01*
X377747Y165398D01*
Y220303D01*
X398070Y240625D01*
X398846Y239987D01*
X398240Y239079D01*
X397750Y237896D01*
X397500Y236641D01*
Y235360D01*
X397750Y234104D01*
X398240Y232922D01*
X398452Y232603D01*
Y226417D01*
X397452Y225953D01*
X396528Y226571D01*
X395101Y227162D01*
X393587Y227463D01*
X392043D01*
X390528Y227162D01*
X389102Y226571D01*
X387818Y225713D01*
X386726Y224622D01*
X385868Y223338D01*
X385277Y221911D01*
X384976Y220397D01*
Y218853D01*
X385277Y217338D01*
X385868Y215912D01*
X386726Y214628D01*
X387818Y213536D01*
X389102Y212678D01*
X390528Y212087D01*
X392043Y211786D01*
X393587D01*
X395101Y212087D01*
X396528Y212678D01*
X397452Y213296D01*
X398452Y212832D01*
Y139292D01*
X397452Y138828D01*
X396528Y139446D01*
X395101Y140037D01*
X393587Y140338D01*
X392043D01*
X390528Y140037D01*
X389102Y139446D01*
X387818Y138588D01*
X386726Y137497D01*
X385868Y136213D01*
X385277Y134786D01*
X384976Y133272D01*
Y131728D01*
X385277Y130213D01*
X385868Y128787D01*
X386726Y127503D01*
X387818Y126411D01*
X389102Y125553D01*
X390528Y124962D01*
X392043Y124661D01*
X393587D01*
X395101Y124962D01*
X396528Y125553D01*
X397452Y126171D01*
X398452Y125707D01*
Y92289D01*
X398641Y90854D01*
X399196Y89516D01*
X398389Y88957D01*
X360947Y126398D01*
Y149800D01*
X360758Y151236D01*
X360204Y152574D01*
X359322Y153723D01*
X359322Y153723D01*
X293894Y219152D01*
X293954Y220077D01*
X294836Y221226D01*
X295390Y222564D01*
X295543Y223729D01*
X295941Y224020D01*
X296083Y224080D01*
X296579Y224158D01*
X297508Y223446D01*
X298846Y222891D01*
X300282Y222703D01*
X300282Y222703D01*
X340563D01*
Y221663D01*
X345500D01*
X350437D01*
Y222833D01*
X350626Y222934D01*
X351595Y223729D01*
X352390Y224698D01*
X352981Y225803D01*
X353344Y227003D01*
X353467Y228250D01*
X353344Y229497D01*
X352981Y230697D01*
X352395Y231793D01*
X352981Y232890D01*
X353344Y234089D01*
X353467Y235337D01*
X353344Y236584D01*
X352981Y237783D01*
X352390Y238888D01*
X351595Y239857D01*
X350626Y240652D01*
X349521Y241243D01*
X348322Y241607D01*
X347074Y241730D01*
X343925D01*
X342678Y241607D01*
X341478Y241243D01*
X340373Y240652D01*
X339404Y239857D01*
X338609Y238888D01*
X338018Y237783D01*
X337655Y236584D01*
X337532Y235337D01*
X337585Y234797D01*
X336763Y233797D01*
X302579D01*
X296532Y239845D01*
Y245000D01*
X283532D01*
Y232000D01*
X284214D01*
X284770Y231169D01*
X284673Y230936D01*
X284540Y229920D01*
X283521Y229524D01*
X275847Y237198D01*
Y309300D01*
X275940D01*
X277196Y309550D01*
X278379Y310040D01*
X279443Y310752D01*
X280349Y311657D01*
X281060Y312721D01*
X281550Y313904D01*
X281800Y315160D01*
Y316441D01*
X281550Y317696D01*
X281060Y318879D01*
X280847Y319198D01*
Y480502D01*
X282608Y482262D01*
X283532Y481880D01*
Y470875D01*
X284214D01*
X284770Y470044D01*
X284673Y469811D01*
X284484Y468375D01*
Y462875D01*
X284673Y461439D01*
X285227Y460101D01*
X286109Y458952D01*
X287258Y458071D01*
X288596Y457516D01*
X290032Y457328D01*
X291467Y457516D01*
X292805Y458071D01*
X293954Y458952D01*
X294836Y460101D01*
X295390Y461439D01*
X295579Y462875D01*
Y468375D01*
X295390Y469811D01*
X295294Y470044D01*
X295849Y470875D01*
X296532D01*
Y476030D01*
X300454Y479952D01*
X340563D01*
Y478913D01*
X345500D01*
X350437D01*
Y480083D01*
X350626Y480184D01*
X351595Y480979D01*
X352390Y481948D01*
X352981Y483053D01*
X353344Y484253D01*
X353467Y485500D01*
X353344Y486747D01*
X352981Y487947D01*
X352395Y489043D01*
X352981Y490140D01*
X353344Y491339D01*
X353467Y492587D01*
X353344Y493834D01*
X352981Y495033D01*
X352390Y496138D01*
X351595Y497107D01*
X350626Y497902D01*
X349521Y498493D01*
X348322Y498857D01*
X347074Y498980D01*
X343925D01*
X342678Y498857D01*
X341478Y498493D01*
X340373Y497902D01*
X339404Y497107D01*
X338609Y496138D01*
X338018Y495033D01*
X337655Y493834D01*
X337532Y492587D01*
X337585Y492047D01*
X336763Y491047D01*
X298157D01*
X298157Y491047D01*
X296721Y490858D01*
X295383Y490304D01*
X294234Y489423D01*
X294234Y489423D01*
X288686Y483875D01*
X285527D01*
X285144Y484799D01*
X314845Y514500D01*
X320000D01*
Y515452D01*
X323000D01*
X324436Y515641D01*
X325774Y516196D01*
X326923Y517077D01*
X343423Y533577D01*
X343423Y533577D01*
X343657Y533883D01*
X346117Y536343D01*
X346423Y536577D01*
X362298Y552453D01*
X379500D01*
X380936Y552642D01*
X382274Y553196D01*
X383423Y554078D01*
X384304Y555227D01*
X384858Y556565D01*
X385047Y558000D01*
Y559701D01*
X385419Y560006D01*
X386460Y561274D01*
X386500Y561349D01*
X387500D01*
X387540Y561274D01*
X388581Y560006D01*
X389849Y558965D01*
X391297Y558191D01*
X392867Y557715D01*
X394500Y557554D01*
X396133Y557715D01*
X397703Y558191D01*
X399151Y558965D01*
X400419Y560006D01*
X401460Y561274D01*
X401500Y561349D01*
X402500D01*
X402540Y561274D01*
X403581Y560006D01*
X404849Y558965D01*
X406296Y558191D01*
X407867Y557715D01*
X409500Y557554D01*
X411133Y557715D01*
X412703Y558191D01*
X414151Y558965D01*
X415419Y560006D01*
X416460Y561274D01*
X416500Y561349D01*
X417500D01*
X417540Y561274D01*
X418581Y560006D01*
X419849Y558965D01*
X421297Y558191D01*
X422867Y557715D01*
X424500Y557554D01*
X426133Y557715D01*
X427703Y558191D01*
X429151Y558965D01*
X430419Y560006D01*
X431460Y561274D01*
X431500Y561349D01*
X432500D01*
X432540Y561274D01*
D02*
G37*
G36*
X313952Y547869D02*
Y545041D01*
X314142Y543605D01*
X314696Y542268D01*
X315577Y541119D01*
X316541Y540155D01*
X316750Y539104D01*
X317240Y537921D01*
X317521Y537500D01*
X316987Y536500D01*
X307000D01*
Y531345D01*
X302786Y527131D01*
X301862Y527514D01*
Y531437D01*
X299000D01*
Y526500D01*
X298000D01*
Y531437D01*
X296830D01*
X296729Y531627D01*
X295934Y532595D01*
X294965Y533390D01*
X293860Y533981D01*
X292661Y534345D01*
X291413Y534468D01*
X290166Y534345D01*
X288967Y533981D01*
X287870Y533395D01*
X286773Y533981D01*
X285574Y534345D01*
X284327Y534468D01*
X283080Y534345D01*
X281880Y533981D01*
X280775Y533390D01*
X279806Y532595D01*
X279357Y532047D01*
X270699D01*
X270317Y532971D01*
X285698Y548353D01*
X313400D01*
X313952Y547869D01*
D02*
G37*
G36*
X197001Y525254D02*
X196618Y524331D01*
X193976D01*
Y522670D01*
X193022Y521938D01*
X192141Y520789D01*
X191586Y519451D01*
X191397Y518016D01*
Y509701D01*
X191586Y508265D01*
X192141Y506927D01*
X193022Y505778D01*
X194171Y504896D01*
X195509Y504342D01*
X196945Y504153D01*
X198381Y504342D01*
X199467Y504792D01*
X200228Y504502D01*
X200536Y504263D01*
X200642Y503464D01*
X201196Y502126D01*
X201552Y501662D01*
Y499000D01*
X194500D01*
Y498047D01*
X191000D01*
Y499000D01*
X185767D01*
X171692Y512653D01*
X156845Y527500D01*
X166298Y536953D01*
X185302D01*
X197001Y525254D01*
D02*
G37*
G36*
X277052Y503401D02*
Y501298D01*
X266377Y490623D01*
X265496Y489474D01*
X264941Y488136D01*
X264752Y486700D01*
Y324700D01*
X263828Y324317D01*
X233625Y354520D01*
X233550Y354896D01*
X233060Y356079D01*
X232349Y357143D01*
X231444Y358049D01*
X230379Y358760D01*
X229196Y359250D01*
X227940Y359500D01*
X226660D01*
X225404Y359250D01*
X224221Y358760D01*
X223157Y358049D01*
X222251Y357143D01*
X221540Y356079D01*
X221050Y354896D01*
X220800Y353640D01*
Y352360D01*
X221050Y351104D01*
X221540Y349921D01*
X222251Y348856D01*
X223157Y347951D01*
X224221Y347240D01*
X225404Y346750D01*
X225780Y346675D01*
X260752Y311702D01*
Y182607D01*
X260941Y181171D01*
X261496Y179833D01*
X262377Y178684D01*
X283532Y157530D01*
Y152375D01*
X284214D01*
X284770Y151543D01*
X284673Y151311D01*
X284484Y149875D01*
Y144375D01*
X284673Y142939D01*
X285227Y141601D01*
X286109Y140452D01*
X287258Y139571D01*
X288596Y139016D01*
X290032Y138828D01*
X291467Y139016D01*
X292805Y139571D01*
X293954Y140452D01*
X294836Y141601D01*
X295390Y142939D01*
X295543Y144104D01*
X296480Y144581D01*
X302484Y138577D01*
X302484Y138577D01*
X303633Y137696D01*
X304971Y137142D01*
X306407Y136952D01*
X306407Y136952D01*
X340563D01*
Y135913D01*
X345500D01*
Y135413D01*
X346000D01*
Y132051D01*
X349852D01*
Y124100D01*
X350041Y122665D01*
X350596Y121327D01*
X351477Y120178D01*
X463731Y7924D01*
X463348Y7000D01*
X27745D01*
X27420Y8000D01*
X28805Y9006D01*
X30364Y10565D01*
X31659Y12347D01*
X32659Y14311D01*
X33340Y16407D01*
X33685Y18583D01*
Y20787D01*
X33340Y22963D01*
X32659Y25059D01*
X31659Y27023D01*
X30364Y28805D01*
X28805Y30364D01*
X27023Y31659D01*
X25059Y32659D01*
X22963Y33340D01*
X20787Y33685D01*
X18583D01*
X16407Y33340D01*
X14311Y32659D01*
X12347Y31659D01*
X10565Y30364D01*
X9006Y28805D01*
X8000Y27420D01*
X7000Y27745D01*
Y260680D01*
X7007Y260682D01*
X8000Y260855D01*
X16077Y252778D01*
X17226Y251896D01*
X18564Y251342D01*
X20000Y251153D01*
X32700D01*
X34136Y251342D01*
X35473Y251896D01*
X36622Y252778D01*
X44793Y260949D01*
X44793Y260949D01*
X45675Y262098D01*
X46229Y263436D01*
X46418Y264871D01*
X46418Y264871D01*
Y278803D01*
X46631Y279121D01*
X47121Y280304D01*
X47371Y281560D01*
Y282841D01*
X47121Y284096D01*
X46631Y285279D01*
X45920Y286344D01*
X45014Y287249D01*
X43950Y287961D01*
X42767Y288451D01*
X41511Y288700D01*
X40231D01*
X40047Y288851D01*
Y326575D01*
X39858Y328011D01*
X39304Y329348D01*
X38423Y330497D01*
X38423Y330497D01*
X33899Y335021D01*
X33946Y335500D01*
X33785Y337133D01*
X33309Y338703D01*
X32535Y340151D01*
X31494Y341419D01*
X30226Y342460D01*
X30151Y342500D01*
Y343500D01*
X30226Y343540D01*
X31494Y344581D01*
X32535Y345849D01*
X33309Y347297D01*
X33785Y348867D01*
X33946Y350500D01*
X33785Y352133D01*
X33309Y353703D01*
X32535Y355151D01*
X31494Y356419D01*
X30226Y357460D01*
X30151Y357500D01*
Y358500D01*
X30226Y358540D01*
X31494Y359581D01*
X32535Y360849D01*
X33309Y362297D01*
X33785Y363867D01*
X33946Y365500D01*
X33785Y367133D01*
X33309Y368703D01*
X32535Y370151D01*
X31494Y371419D01*
X30226Y372460D01*
X30151Y372500D01*
Y373500D01*
X30226Y373540D01*
X31494Y374581D01*
X32535Y375849D01*
X33309Y377296D01*
X33785Y378867D01*
X33946Y380500D01*
X33785Y382133D01*
X33309Y383703D01*
X32535Y385151D01*
X31494Y386419D01*
X30226Y387460D01*
X30151Y387500D01*
Y388500D01*
X30226Y388540D01*
X31494Y389581D01*
X32535Y390849D01*
X33309Y392297D01*
X33785Y393867D01*
X33946Y395500D01*
X33785Y397133D01*
X33645Y397596D01*
X34529Y398126D01*
X62753Y369901D01*
Y243808D01*
X60000D01*
X60000Y243808D01*
X58564Y243619D01*
X58136Y243441D01*
X56347D01*
Y242390D01*
X56077Y242183D01*
X40677Y226783D01*
X39796Y225634D01*
X39241Y224296D01*
X39052Y222860D01*
Y84243D01*
X39241Y82807D01*
X39796Y81469D01*
X40677Y80321D01*
X43161Y77836D01*
Y77071D01*
X43463Y75556D01*
X44054Y74130D01*
X44911Y72846D01*
X46003Y71754D01*
X47287Y70897D01*
X48714Y70306D01*
X50228Y70004D01*
X51772D01*
X53286Y70306D01*
X54713Y70897D01*
X55997Y71754D01*
X57089Y72846D01*
X57946Y74130D01*
X58537Y75556D01*
X58839Y77071D01*
Y78615D01*
X58537Y80129D01*
X57946Y81556D01*
X57089Y82840D01*
X55997Y83932D01*
X54713Y84789D01*
X53286Y85380D01*
X51772Y85682D01*
X51007D01*
X50147Y86541D01*
Y110096D01*
X50228Y110162D01*
X51772D01*
X53286Y110463D01*
X54713Y111054D01*
X55997Y111912D01*
X57089Y113004D01*
X57946Y114287D01*
X58537Y115714D01*
X58839Y117228D01*
Y117994D01*
X73622Y132778D01*
X74504Y133926D01*
X75058Y135264D01*
X75247Y136700D01*
Y229339D01*
X79756D01*
Y236819D01*
Y247181D01*
X78548D01*
Y294202D01*
X107128Y322783D01*
X108052Y322400D01*
Y75000D01*
X108241Y73565D01*
X108796Y72227D01*
X109677Y71078D01*
X117173Y63582D01*
X117173Y63582D01*
X118322Y62700D01*
X119660Y62146D01*
X121096Y61957D01*
X207339D01*
X208774Y62146D01*
X210112Y62700D01*
X211261Y63582D01*
X226222Y78543D01*
X227104Y79692D01*
X227658Y81030D01*
X227847Y82466D01*
Y242000D01*
X227658Y243436D01*
X227104Y244774D01*
X226222Y245922D01*
X225074Y246804D01*
X223736Y247358D01*
X222300Y247547D01*
X217000D01*
X215564Y247358D01*
X215136Y247181D01*
X212647D01*
Y494201D01*
X213571Y494584D01*
X219578Y488577D01*
X219578Y488577D01*
X220727Y487696D01*
X222065Y487142D01*
X223500Y486952D01*
X232000D01*
Y486000D01*
X232682D01*
X233238Y485169D01*
X233142Y484936D01*
X232952Y483500D01*
Y478000D01*
X233142Y476564D01*
X233696Y475226D01*
X234577Y474077D01*
X235726Y473196D01*
X237064Y472642D01*
X238500Y472452D01*
X239936Y472642D01*
X241274Y473196D01*
X242423Y474077D01*
X243304Y475226D01*
X243858Y476564D01*
X244047Y478000D01*
Y483500D01*
X243858Y484936D01*
X243762Y485169D01*
X244318Y486000D01*
X245000D01*
Y486952D01*
X250500D01*
Y486000D01*
X251182D01*
X251738Y485169D01*
X251642Y484936D01*
X251452Y483500D01*
Y478000D01*
X251642Y476564D01*
X252196Y475226D01*
X253077Y474077D01*
X254226Y473196D01*
X255564Y472642D01*
X257000Y472452D01*
X258436Y472642D01*
X259774Y473196D01*
X260923Y474077D01*
X261804Y475226D01*
X262358Y476564D01*
X262547Y478000D01*
Y483500D01*
X262358Y484936D01*
X262262Y485169D01*
X262818Y486000D01*
X263500D01*
Y491155D01*
X276129Y503783D01*
X277052Y503401D01*
D02*
G37*
G36*
X561685Y581754D02*
X561701Y581500D01*
X560188Y579987D01*
X558892Y578204D01*
X557892Y576240D01*
X557211Y574145D01*
X556866Y571968D01*
Y569764D01*
X557211Y567588D01*
X557892Y565492D01*
X558892Y563529D01*
X560188Y561746D01*
X561746Y560188D01*
X563529Y558892D01*
X565492Y557892D01*
X567588Y557211D01*
X569764Y556866D01*
X571968D01*
X574145Y557211D01*
X576240Y557892D01*
X578204Y558892D01*
X579987Y560188D01*
X581545Y561746D01*
X582500Y563061D01*
X583500Y562736D01*
Y82033D01*
X582576Y81650D01*
X574963Y89264D01*
X574049Y90013D01*
X573007Y90571D01*
X571876Y90914D01*
X570700Y91030D01*
X520500D01*
X520500Y91030D01*
X519324Y90914D01*
X518193Y90571D01*
X517151Y90013D01*
X516237Y89264D01*
X513737Y86764D01*
X512987Y85850D01*
X512500Y84940D01*
X511648Y84827D01*
X510387Y84305D01*
X509305Y83475D01*
X508474Y82392D01*
X507952Y81132D01*
X507774Y79779D01*
Y79778D01*
X507430Y79134D01*
X507087Y78003D01*
X506971Y76827D01*
X507087Y75651D01*
X507430Y74520D01*
X507774Y73875D01*
Y73874D01*
X507952Y72522D01*
X508474Y71261D01*
X509305Y70179D01*
X510387Y69348D01*
X511647Y68826D01*
X511483Y67855D01*
X508000D01*
X506564Y67666D01*
X505226Y67111D01*
X504077Y66230D01*
X503196Y65081D01*
X502642Y63743D01*
X502453Y62307D01*
X502642Y60871D01*
X503196Y59533D01*
X504077Y58385D01*
X505226Y57503D01*
X506564Y56949D01*
X507452Y56832D01*
Y55173D01*
X507502Y54800D01*
X506842Y54048D01*
X501297D01*
X493000Y62345D01*
Y63500D01*
Y76500D01*
X480000D01*
Y75547D01*
X475543D01*
Y82543D01*
X460457D01*
Y67457D01*
X463141D01*
X463687Y66457D01*
X463457Y65598D01*
Y65500D01*
X468000D01*
Y64500D01*
X463457D01*
Y64402D01*
X463766Y63246D01*
X464117Y62639D01*
X464296Y62088D01*
X463857Y61304D01*
X463191Y60859D01*
X462141Y59808D01*
X461315Y58573D01*
X460747Y57200D01*
X460457Y55743D01*
Y54257D01*
X460747Y52800D01*
X461315Y51427D01*
X462141Y50191D01*
X463191Y49141D01*
X464427Y48315D01*
X465800Y47747D01*
X467257Y47457D01*
X468743D01*
X470200Y47747D01*
X471573Y48315D01*
X472809Y49141D01*
X473859Y50191D01*
X474685Y51427D01*
X474952Y52073D01*
X475952Y51874D01*
Y50000D01*
X476141Y48565D01*
X476696Y47227D01*
X477577Y46078D01*
X486231Y37424D01*
X485848Y36500D01*
X480000D01*
Y35547D01*
X468587D01*
X409547Y94587D01*
Y124296D01*
X410547Y124896D01*
X411728Y124661D01*
X413272D01*
X414786Y124962D01*
X416213Y125553D01*
X417496Y126411D01*
X418588Y127503D01*
X419446Y128787D01*
X420037Y130213D01*
X420338Y131728D01*
Y133272D01*
X420037Y134786D01*
X419446Y136213D01*
X418588Y137497D01*
X417496Y138588D01*
X416213Y139446D01*
X414786Y140037D01*
X413272Y140338D01*
X411728D01*
X410547Y140104D01*
X409547Y140703D01*
Y211421D01*
X410547Y212021D01*
X411728Y211786D01*
X413272D01*
X414786Y212087D01*
X416213Y212678D01*
X417496Y213536D01*
X418588Y214628D01*
X419446Y215912D01*
X420037Y217338D01*
X420338Y218853D01*
Y220397D01*
X420037Y221911D01*
X419446Y223338D01*
X418588Y224622D01*
X417496Y225713D01*
X416213Y226571D01*
X414786Y227162D01*
X413272Y227463D01*
X411728D01*
X410547Y227229D01*
X409547Y227828D01*
Y232603D01*
X409760Y232922D01*
X410250Y234104D01*
X410500Y235360D01*
Y236641D01*
X410250Y237896D01*
X409760Y239079D01*
X409049Y240144D01*
X408143Y241049D01*
X407079Y241761D01*
X405896Y242251D01*
X404640Y242500D01*
X403360D01*
X402104Y242251D01*
X400921Y241761D01*
X400013Y241154D01*
X399375Y241931D01*
X434522Y277078D01*
X435404Y278227D01*
X435958Y279565D01*
X436147Y281000D01*
Y529602D01*
X443423Y536878D01*
X443423Y536878D01*
X444304Y538027D01*
X444858Y539365D01*
X445048Y540801D01*
Y559701D01*
X445419Y560006D01*
X446460Y561274D01*
X446500Y561349D01*
X447500D01*
X447540Y561274D01*
X448581Y560006D01*
X448952Y559701D01*
Y191398D01*
X448740Y191079D01*
X448250Y189897D01*
X448000Y188641D01*
Y187360D01*
X448250Y186105D01*
X448740Y184922D01*
X449451Y183857D01*
X450356Y182952D01*
X451421Y182240D01*
X452604Y181750D01*
X453860Y181501D01*
X455140D01*
X456287Y181729D01*
X456652Y181644D01*
X457287Y181220D01*
Y167563D01*
X458693D01*
Y139384D01*
X457503Y138588D01*
X456411Y137497D01*
X455553Y136213D01*
X454962Y134786D01*
X454661Y133272D01*
Y131728D01*
X454962Y130213D01*
X455553Y128787D01*
X456411Y127503D01*
X457503Y126411D01*
X458787Y125553D01*
X460213Y124962D01*
X461728Y124661D01*
X463272D01*
X464786Y124962D01*
X466213Y125553D01*
X467496Y126411D01*
X468588Y127503D01*
X469446Y128787D01*
X470037Y130213D01*
X470202Y131044D01*
X470655Y131596D01*
X471259Y132725D01*
X471630Y133950D01*
X471756Y135225D01*
Y167563D01*
X473161D01*
Y183437D01*
X460471D01*
X459936Y184437D01*
X460260Y184922D01*
X460750Y186105D01*
X461000Y187360D01*
Y188641D01*
X460750Y189897D01*
X460260Y191079D01*
X460047Y191398D01*
Y211101D01*
X461048Y211922D01*
X461728Y211786D01*
X463272D01*
X464786Y212087D01*
X466213Y212678D01*
X467496Y213536D01*
X468588Y214628D01*
X469446Y215912D01*
X470037Y217338D01*
X470183Y218071D01*
X471343Y219231D01*
X472155Y220221D01*
X472759Y221350D01*
X473130Y222575D01*
X473256Y223850D01*
Y260063D01*
X474661D01*
Y275937D01*
X460047D01*
Y298226D01*
X461048Y299047D01*
X461728Y298911D01*
X463272D01*
X464786Y299213D01*
X466213Y299803D01*
X467496Y300661D01*
X468588Y301753D01*
X469446Y303037D01*
X470037Y304464D01*
X470183Y305196D01*
X471843Y306856D01*
X472655Y307846D01*
X473259Y308975D01*
X473630Y310201D01*
X473756Y311475D01*
Y351063D01*
X475161D01*
Y366937D01*
X460047D01*
Y385351D01*
X461048Y386172D01*
X461728Y386036D01*
X463272D01*
X464786Y386338D01*
X466213Y386929D01*
X467496Y387786D01*
X468588Y388878D01*
X469446Y390162D01*
X470037Y391588D01*
X470338Y393103D01*
Y394647D01*
X470037Y396161D01*
X469446Y397588D01*
X469031Y398209D01*
Y415295D01*
X469343Y415607D01*
X470155Y416597D01*
X470759Y417726D01*
X471130Y418951D01*
X471256Y420225D01*
Y436563D01*
X472661D01*
Y452437D01*
X460047D01*
Y472476D01*
X460799Y473179D01*
X461048Y473215D01*
X479668Y454594D01*
Y391800D01*
X479794Y390526D01*
X480165Y389301D01*
X480769Y388172D01*
X481581Y387182D01*
X502795Y365968D01*
X502716Y365165D01*
X501611Y364059D01*
X500742Y362759D01*
X500144Y361315D01*
X499839Y359782D01*
Y358218D01*
X500144Y356685D01*
X500742Y355240D01*
X501244Y354489D01*
Y314574D01*
X501103Y314433D01*
X500371Y314287D01*
X498944Y313696D01*
X497660Y312839D01*
X496568Y311747D01*
X495711Y310463D01*
X495120Y309036D01*
X494818Y307522D01*
Y305978D01*
X495120Y304464D01*
X495711Y303037D01*
X496568Y301753D01*
X497660Y300661D01*
X498944Y299803D01*
X500371Y299213D01*
X501885Y298911D01*
X503429D01*
X504943Y299213D01*
X506370Y299803D01*
X507654Y300661D01*
X508746Y301753D01*
X509603Y303037D01*
X510194Y304464D01*
X510340Y305196D01*
X512394Y307250D01*
X513206Y308240D01*
X513810Y309369D01*
X514182Y310594D01*
X514307Y311869D01*
Y353703D01*
X514549Y353969D01*
X515307Y354373D01*
X516226Y354094D01*
X517500Y353969D01*
X564252D01*
X564775Y353540D01*
X564849Y353500D01*
Y352500D01*
X564775Y352460D01*
X563506Y351419D01*
X562465Y350151D01*
X561691Y348703D01*
X561215Y347133D01*
X561054Y345500D01*
X561215Y343867D01*
X561691Y342297D01*
X562465Y340849D01*
X563506Y339581D01*
X564775Y338540D01*
X564849Y338500D01*
Y337500D01*
X564775Y337460D01*
X563506Y336419D01*
X562465Y335151D01*
X561691Y333703D01*
X561215Y332133D01*
X561054Y330500D01*
X561215Y328867D01*
X561691Y327296D01*
X562465Y325849D01*
X563506Y324581D01*
X564775Y323540D01*
X564849Y323500D01*
Y322500D01*
X564775Y322460D01*
X563506Y321419D01*
X562465Y320151D01*
X561691Y318703D01*
X561215Y317133D01*
X561054Y315500D01*
X561215Y313867D01*
X561691Y312297D01*
X562465Y310849D01*
X563506Y309581D01*
X564775Y308540D01*
X564849Y308500D01*
Y307500D01*
X564775Y307460D01*
X563506Y306419D01*
X562465Y305151D01*
X561691Y303703D01*
X561215Y302133D01*
X561054Y300500D01*
X561215Y298867D01*
X561691Y297297D01*
X562465Y295849D01*
X563506Y294581D01*
X564775Y293540D01*
X564849Y293500D01*
Y292500D01*
X564775Y292460D01*
X563506Y291419D01*
X562465Y290151D01*
X561691Y288703D01*
X561215Y287133D01*
X561054Y285500D01*
X561215Y283867D01*
X561691Y282296D01*
X562465Y280849D01*
X563506Y279581D01*
X564775Y278540D01*
X564849Y278500D01*
Y277500D01*
X564775Y277460D01*
X563506Y276419D01*
X562465Y275151D01*
X561691Y273703D01*
X561215Y272133D01*
X561054Y270500D01*
X561215Y268867D01*
X561691Y267297D01*
X562465Y265849D01*
X563506Y264581D01*
X564775Y263540D01*
X564849Y263500D01*
Y262500D01*
X564775Y262460D01*
X563506Y261419D01*
X562465Y260151D01*
X561691Y258703D01*
X561215Y257133D01*
X561152Y256489D01*
X501081Y196418D01*
X500269Y195429D01*
X499665Y194299D01*
X499294Y193074D01*
X499168Y191800D01*
Y179898D01*
X498742Y179260D01*
X498144Y177815D01*
X497839Y176282D01*
Y174718D01*
X498144Y173185D01*
X498742Y171740D01*
X499244Y170989D01*
Y139570D01*
X498944Y139446D01*
X497660Y138588D01*
X496569Y137497D01*
X495711Y136213D01*
X495120Y134786D01*
X494819Y133272D01*
Y131728D01*
X495120Y130213D01*
X495711Y128787D01*
X496569Y127503D01*
X497660Y126411D01*
X498944Y125553D01*
X500371Y124962D01*
X501885Y124661D01*
X503429D01*
X504944Y124962D01*
X506370Y125553D01*
X507654Y126411D01*
X508746Y127503D01*
X509604Y128787D01*
X510194Y130213D01*
X510340Y130946D01*
X510394Y131000D01*
X511206Y131990D01*
X511810Y133119D01*
X512182Y134344D01*
X512307Y135618D01*
Y170989D01*
X512809Y171740D01*
X513408Y173185D01*
X513713Y174718D01*
Y176282D01*
X513408Y177815D01*
X512809Y179260D01*
X512231Y180125D01*
Y189095D01*
X560711Y237574D01*
X561202Y237451D01*
X561746Y237195D01*
X562465Y235849D01*
X563506Y234581D01*
X564775Y233540D01*
X566222Y232766D01*
X567792Y232290D01*
X569425Y232129D01*
X572575D01*
X574208Y232290D01*
X575778Y232766D01*
X577225Y233540D01*
X578494Y234581D01*
X579535Y235849D01*
X580309Y237297D01*
X580785Y238867D01*
X580946Y240500D01*
X580785Y242133D01*
X580309Y243703D01*
X579535Y245151D01*
X578494Y246419D01*
X577225Y247460D01*
X577151Y247500D01*
Y248500D01*
X577225Y248540D01*
X578494Y249581D01*
X579535Y250849D01*
X580309Y252296D01*
X580785Y253867D01*
X580946Y255500D01*
X580785Y257133D01*
X580309Y258703D01*
X579535Y260151D01*
X578494Y261419D01*
X577225Y262460D01*
X577151Y262500D01*
Y263500D01*
X577225Y263540D01*
X578494Y264581D01*
X579535Y265849D01*
X580309Y267297D01*
X580785Y268867D01*
X580946Y270500D01*
X580785Y272133D01*
X580309Y273703D01*
X579535Y275151D01*
X578494Y276419D01*
X577225Y277460D01*
X577151Y277500D01*
Y278500D01*
X577225Y278540D01*
X578494Y279581D01*
X579535Y280849D01*
X580309Y282296D01*
X580785Y283867D01*
X580946Y285500D01*
X580785Y287133D01*
X580309Y288703D01*
X579535Y290151D01*
X578494Y291419D01*
X577225Y292460D01*
X577151Y292500D01*
Y293500D01*
X577225Y293540D01*
X578494Y294581D01*
X579535Y295849D01*
X580309Y297297D01*
X580785Y298867D01*
X580946Y300500D01*
X580785Y302133D01*
X580309Y303703D01*
X579535Y305151D01*
X578494Y306419D01*
X577225Y307460D01*
X577151Y307500D01*
Y308500D01*
X577225Y308540D01*
X578494Y309581D01*
X579535Y310849D01*
X580309Y312297D01*
X580785Y313867D01*
X580946Y315500D01*
X580785Y317133D01*
X580309Y318703D01*
X579535Y320151D01*
X578494Y321419D01*
X577225Y322460D01*
X577151Y322500D01*
Y323500D01*
X577225Y323540D01*
X578494Y324581D01*
X579535Y325849D01*
X580309Y327296D01*
X580785Y328867D01*
X580946Y330500D01*
X580785Y332133D01*
X580309Y333703D01*
X579535Y335151D01*
X578494Y336419D01*
X577225Y337460D01*
X577151Y337500D01*
Y338500D01*
X577225Y338540D01*
X578494Y339581D01*
X579535Y340849D01*
X580309Y342297D01*
X580785Y343867D01*
X580946Y345500D01*
X580785Y347133D01*
X580309Y348703D01*
X579535Y350151D01*
X578494Y351419D01*
X577225Y352460D01*
X577151Y352500D01*
Y353500D01*
X577225Y353540D01*
X578494Y354581D01*
X579535Y355849D01*
X580309Y357296D01*
X580785Y358867D01*
X580946Y360500D01*
X580785Y362133D01*
X580309Y363703D01*
X579535Y365151D01*
X578494Y366419D01*
X577225Y367460D01*
X577151Y367500D01*
Y368500D01*
X577225Y368540D01*
X578494Y369581D01*
X579535Y370849D01*
X580309Y372297D01*
X580785Y373867D01*
X580946Y375500D01*
X580785Y377133D01*
X580309Y378703D01*
X579535Y380151D01*
X578494Y381419D01*
X577225Y382460D01*
X575778Y383234D01*
X574208Y383710D01*
X572575Y383871D01*
X571531D01*
Y426200D01*
X571406Y427475D01*
X571034Y428700D01*
X570431Y429829D01*
X569618Y430819D01*
X514819Y485618D01*
X513829Y486431D01*
X512700Y487034D01*
X511474Y487406D01*
X510200Y487531D01*
X509188D01*
Y499368D01*
X509206Y499390D01*
X509810Y500520D01*
X510182Y501745D01*
X510307Y503019D01*
Y519489D01*
X510809Y520240D01*
X511408Y521685D01*
X511713Y523218D01*
Y524782D01*
X511408Y526315D01*
X510809Y527760D01*
X509941Y529060D01*
X508835Y530165D01*
X507535Y531034D01*
X506091Y531632D01*
X504557Y531937D01*
X502994D01*
X501461Y531632D01*
X500016Y531034D01*
X498716Y530165D01*
X497611Y529060D01*
X496742Y527760D01*
X496144Y526315D01*
X495839Y524782D01*
Y523218D01*
X496144Y521685D01*
X496742Y520240D01*
X497244Y519489D01*
Y505551D01*
X497226Y505529D01*
X496623Y504400D01*
X496251Y503175D01*
X496126Y501900D01*
Y485334D01*
X495711Y484713D01*
X495120Y483286D01*
X494818Y481772D01*
Y480228D01*
X495120Y478714D01*
X495711Y477287D01*
X496568Y476003D01*
X497660Y474911D01*
X498944Y474053D01*
X500371Y473463D01*
X501885Y473161D01*
X503429D01*
X504943Y473463D01*
X506370Y474053D01*
X506991Y474469D01*
X507495D01*
X558468Y423495D01*
Y375500D01*
X558594Y374226D01*
X558965Y373001D01*
X559569Y371871D01*
X560381Y370882D01*
X561371Y370069D01*
X562500Y369466D01*
X563726Y369094D01*
X564150Y369052D01*
X564605Y368679D01*
X564657Y367690D01*
X564643Y367592D01*
X564043Y367031D01*
X520206D01*
X502201Y385036D01*
X502615Y386036D01*
X503429D01*
X504943Y386338D01*
X506370Y386929D01*
X507654Y387786D01*
X508746Y388878D01*
X509603Y390162D01*
X510194Y391588D01*
X510496Y393103D01*
Y394647D01*
X510194Y396161D01*
X509603Y397588D01*
X509188Y398209D01*
Y415095D01*
X509894Y415801D01*
X510706Y416790D01*
X511310Y417919D01*
X511682Y419145D01*
X511807Y420419D01*
Y439989D01*
X512309Y440740D01*
X512908Y442185D01*
X513213Y443718D01*
Y445282D01*
X512908Y446815D01*
X512309Y448260D01*
X511441Y449559D01*
X510335Y450665D01*
X509035Y451534D01*
X507591Y452132D01*
X506057Y452437D01*
X504494D01*
X502960Y452132D01*
X501516Y451534D01*
X500216Y450665D01*
X499111Y449559D01*
X498242Y448260D01*
X497644Y446815D01*
X497339Y445282D01*
Y443718D01*
X497644Y442185D01*
X498242Y440740D01*
X498744Y439989D01*
Y423124D01*
X498039Y422419D01*
X497226Y421429D01*
X496623Y420300D01*
X496251Y419075D01*
X496126Y417800D01*
Y398209D01*
X495711Y397588D01*
X495120Y396161D01*
X494818Y394647D01*
Y393833D01*
X493818Y393419D01*
X492731Y394506D01*
Y457300D01*
X492606Y458574D01*
X492234Y459799D01*
X491631Y460928D01*
X490818Y461918D01*
X470183Y482554D01*
X470037Y483286D01*
X469446Y484713D01*
X469031Y485334D01*
Y499900D01*
X469259Y500326D01*
X469630Y501551D01*
X469756Y502825D01*
Y516063D01*
X471161D01*
Y531937D01*
X460047D01*
Y559701D01*
X460419Y560006D01*
X461460Y561274D01*
X462234Y562722D01*
X462710Y564292D01*
X462871Y565925D01*
Y569075D01*
X462710Y570708D01*
X462234Y572278D01*
X461460Y573726D01*
X460419Y574994D01*
X459151Y576035D01*
X457703Y576809D01*
X456133Y577285D01*
X454500Y577446D01*
X452867Y577285D01*
X451297Y576809D01*
X449849Y576035D01*
X448581Y574994D01*
X447540Y573726D01*
X447500Y573651D01*
X446500D01*
X446460Y573726D01*
X445419Y574994D01*
X444151Y576035D01*
X442703Y576809D01*
X441133Y577285D01*
X439500Y577446D01*
X437867Y577285D01*
X436297Y576809D01*
X434849Y576035D01*
X433581Y574994D01*
X432540Y573726D01*
X432500Y573651D01*
X431500D01*
X431460Y573726D01*
X430419Y574994D01*
X429151Y576035D01*
X427703Y576809D01*
X426133Y577285D01*
X424500Y577446D01*
X422867Y577285D01*
X421297Y576809D01*
X419849Y576035D01*
X418581Y574994D01*
X417540Y573726D01*
X417500Y573651D01*
X416500D01*
X416460Y573726D01*
X415419Y574994D01*
X414151Y576035D01*
X412703Y576809D01*
X411133Y577285D01*
X409500Y577446D01*
X407867Y577285D01*
X406296Y576809D01*
X404849Y576035D01*
X403581Y574994D01*
X402540Y573726D01*
X402500Y573651D01*
X401500D01*
X401460Y573726D01*
X400419Y574994D01*
X399151Y576035D01*
X397703Y576809D01*
X396133Y577285D01*
X394500Y577446D01*
X392867Y577285D01*
X391297Y576809D01*
X389849Y576035D01*
X388581Y574994D01*
X387540Y573726D01*
X387500Y573651D01*
X386500D01*
X386460Y573726D01*
X385419Y574994D01*
X384151Y576035D01*
X382703Y576809D01*
X381133Y577285D01*
X379500Y577446D01*
X377867Y577285D01*
X376296Y576809D01*
X374849Y576035D01*
X373581Y574994D01*
X372540Y573726D01*
X371766Y572278D01*
X371290Y570708D01*
X371129Y569075D01*
Y565925D01*
X371217Y565035D01*
X370494Y564174D01*
X370459Y564190D01*
X369765Y565077D01*
X369877Y565925D01*
Y567000D01*
X359123D01*
Y565925D01*
X359307Y564534D01*
X358685Y563694D01*
X358568Y563673D01*
X358145Y563978D01*
X357730Y564494D01*
X357871Y565925D01*
Y569075D01*
X357710Y570708D01*
X357234Y572278D01*
X356460Y573726D01*
X355419Y574994D01*
X354151Y576035D01*
X352703Y576809D01*
X351133Y577285D01*
X349500Y577446D01*
X347867Y577285D01*
X346297Y576809D01*
X344849Y576035D01*
X343581Y574994D01*
X342540Y573726D01*
X341766Y572278D01*
X341290Y570708D01*
X341129Y569075D01*
Y565925D01*
X341290Y564292D01*
X341766Y562722D01*
X342540Y561274D01*
X343581Y560006D01*
X344849Y558965D01*
X346297Y558191D01*
X347867Y557715D01*
X349500Y557554D01*
X350381Y557641D01*
X350836Y556681D01*
X338812Y544657D01*
X338562Y544465D01*
X338481Y544427D01*
X337307Y544638D01*
X337301Y544649D01*
X336649Y545301D01*
X335851Y545761D01*
X335000Y545990D01*
Y542500D01*
X334500D01*
Y542000D01*
X331011D01*
X331239Y541149D01*
X331699Y540351D01*
X332351Y539699D01*
X332407Y539667D01*
X332572Y538417D01*
X321000Y526845D01*
X320000Y527259D01*
Y534307D01*
X320831Y534863D01*
X321104Y534750D01*
X322360Y534500D01*
X323640D01*
X324896Y534750D01*
X326079Y535240D01*
X327144Y535951D01*
X328049Y536857D01*
X328760Y537921D01*
X329250Y539104D01*
X329500Y540360D01*
Y541640D01*
X329250Y542896D01*
X328760Y544079D01*
X328049Y545144D01*
X327144Y546049D01*
X326079Y546760D01*
X325306Y547080D01*
X325047Y547339D01*
Y559701D01*
X325419Y560006D01*
X326460Y561274D01*
X327234Y562722D01*
X327710Y564292D01*
X327871Y565925D01*
Y569075D01*
X327710Y570708D01*
X327234Y572278D01*
X326460Y573726D01*
X325419Y574994D01*
X324151Y576035D01*
X322703Y576809D01*
X321133Y577285D01*
X319500Y577446D01*
X317867Y577285D01*
X316297Y576809D01*
X314849Y576035D01*
X313581Y574994D01*
X312540Y573726D01*
X311766Y572278D01*
X311290Y570708D01*
X311129Y569075D01*
Y565925D01*
X311290Y564292D01*
X311766Y562722D01*
X312540Y561274D01*
X312715Y561061D01*
X311102Y559448D01*
X296255D01*
X295782Y560448D01*
X296460Y561274D01*
X297234Y562722D01*
X297710Y564292D01*
X297871Y565925D01*
Y569075D01*
X297710Y570708D01*
X297234Y572278D01*
X296460Y573726D01*
X295419Y574994D01*
X294151Y576035D01*
X292703Y576809D01*
X291133Y577285D01*
X289500Y577446D01*
X287867Y577285D01*
X286297Y576809D01*
X284849Y576035D01*
X283581Y574994D01*
X282540Y573726D01*
X281766Y572278D01*
X281290Y570708D01*
X281129Y569075D01*
Y565925D01*
X281290Y564292D01*
X281766Y562722D01*
X282540Y561274D01*
X283229Y560434D01*
X282810Y559370D01*
X281965Y559259D01*
X280627Y558705D01*
X279478Y557823D01*
X279478Y557823D01*
X259655Y538000D01*
X254500D01*
Y537047D01*
X220155D01*
X218719Y536858D01*
X217496Y536352D01*
X216621Y536679D01*
X216496Y536741D01*
Y550559D01*
X195504D01*
Y543748D01*
X194580Y543365D01*
X191522Y546423D01*
X190374Y547305D01*
X189036Y547859D01*
X187600Y548048D01*
X164000D01*
X164000Y548048D01*
X162565Y547859D01*
X161227Y547305D01*
X160078Y546423D01*
X148895Y535240D01*
X148238D01*
X146742Y534943D01*
X145334Y534359D01*
X144066Y533512D01*
X143601Y533047D01*
X139005D01*
X138736Y533159D01*
X137300Y533348D01*
X133937D01*
Y535738D01*
X125908D01*
X123423Y538223D01*
X122274Y539105D01*
X120936Y539659D01*
X119500Y539848D01*
X75071D01*
Y560000D01*
X54000D01*
Y539815D01*
X61002D01*
X61342Y538815D01*
X60570Y538223D01*
X56270Y533923D01*
X56085Y533682D01*
X54936Y534158D01*
X53500Y534347D01*
X52064Y534158D01*
X50726Y533603D01*
X49577Y532722D01*
X48696Y531573D01*
X48142Y530235D01*
X48084Y529799D01*
X46543D01*
X46364Y530695D01*
X45874Y531878D01*
X45163Y532943D01*
X44258Y533848D01*
X43193Y534559D01*
X42010Y535049D01*
X40754Y535299D01*
X39474D01*
X38218Y535049D01*
X37035Y534559D01*
X35971Y533848D01*
X35065Y532943D01*
X34354Y531878D01*
X33864Y530695D01*
X33614Y529439D01*
Y528159D01*
X33864Y526903D01*
X34047Y526461D01*
Y509201D01*
X41351D01*
X41449Y508457D01*
X42003Y507119D01*
X42884Y505970D01*
X46077Y502778D01*
X47226Y501896D01*
X48564Y501342D01*
X50000Y501153D01*
X74900D01*
X76336Y501342D01*
X77674Y501896D01*
X78822Y502778D01*
X95331Y519286D01*
X96669D01*
X116551Y499404D01*
X116168Y498480D01*
X114913D01*
Y477488D01*
X132362D01*
Y498480D01*
X129185D01*
Y500163D01*
X128996Y501599D01*
X128442Y502937D01*
X127560Y504085D01*
X103937Y527709D01*
Y528753D01*
X117202D01*
X118063Y527892D01*
Y519864D01*
X133937D01*
Y522253D01*
X135895D01*
X136165Y522142D01*
X137600Y521952D01*
X143601D01*
X144066Y521488D01*
X145334Y520641D01*
X146742Y520057D01*
X148238Y519760D01*
X148895D01*
X163876Y504778D01*
X163910Y504752D01*
X163936Y504719D01*
X178000Y491077D01*
Y486000D01*
X178682D01*
X179238Y485169D01*
X179142Y484936D01*
X178953Y483500D01*
Y478000D01*
X179142Y476564D01*
X179696Y475226D01*
X180577Y474077D01*
X181726Y473196D01*
X183064Y472642D01*
X184500Y472452D01*
X185452Y472578D01*
X186452Y471873D01*
Y332109D01*
X185796Y331253D01*
X185241Y329915D01*
X185052Y328480D01*
Y174401D01*
X185241Y172965D01*
X185796Y171627D01*
X186677Y170478D01*
X189161Y167994D01*
Y167228D01*
X189463Y165714D01*
X190053Y164287D01*
X190911Y163004D01*
X192003Y161912D01*
X193287Y161054D01*
X194714Y160463D01*
X196228Y160162D01*
X197772D01*
X199052Y160416D01*
X200052Y159864D01*
Y126137D01*
X199052Y125584D01*
X197772Y125839D01*
X196228D01*
X194714Y125538D01*
X193287Y124947D01*
X192003Y124089D01*
X190911Y122997D01*
X190053Y121713D01*
X189463Y120287D01*
X189161Y118772D01*
Y118007D01*
X186677Y115523D01*
X185796Y114374D01*
X185241Y113036D01*
X185052Y111600D01*
Y75000D01*
X185177Y74052D01*
X184471Y73052D01*
X131287D01*
X130815Y73934D01*
X130947Y74130D01*
X131537Y75556D01*
X131839Y77071D01*
Y78615D01*
X131537Y80129D01*
X130947Y81556D01*
X130089Y82840D01*
X128997Y83932D01*
X127713Y84789D01*
X126286Y85380D01*
X124772Y85682D01*
X124007D01*
X123147Y86541D01*
Y110096D01*
X123228Y110162D01*
X124772D01*
X126286Y110463D01*
X127713Y111054D01*
X128997Y111912D01*
X130089Y113004D01*
X130947Y114287D01*
X131537Y115714D01*
X131839Y117228D01*
Y117994D01*
X140422Y126577D01*
X140422Y126577D01*
X141304Y127726D01*
X141858Y129064D01*
X142047Y130500D01*
X142047Y130500D01*
Y228722D01*
X142298Y228972D01*
X145000D01*
X146436Y229161D01*
X146864Y229339D01*
X151756D01*
Y236819D01*
Y247181D01*
X150547D01*
Y303402D01*
X159122Y311978D01*
X160004Y313127D01*
X160558Y314465D01*
X160747Y315900D01*
X160747Y315900D01*
Y357300D01*
X160558Y358736D01*
X160004Y360074D01*
X159122Y361223D01*
X159122Y361223D01*
X156650Y363696D01*
Y363704D01*
X156375Y365085D01*
X155836Y366387D01*
X155053Y367558D01*
X154058Y368553D01*
X152887Y369336D01*
X151585Y369875D01*
X150204Y370150D01*
X148796D01*
X147650Y369922D01*
X146650Y370150D01*
Y370150D01*
X132350D01*
Y363696D01*
X74772Y306117D01*
X73848Y306500D01*
Y372199D01*
X73848Y372199D01*
X73659Y373635D01*
X73105Y374973D01*
X72223Y376122D01*
X33922Y414423D01*
X32774Y415304D01*
X32221Y415533D01*
X31494Y416419D01*
X30226Y417460D01*
X28778Y418234D01*
X27208Y418710D01*
X25575Y418871D01*
X22425D01*
X21788Y418808D01*
X21047Y419480D01*
Y428403D01*
X25520Y432875D01*
X25896Y432950D01*
X27079Y433440D01*
X28143Y434152D01*
X29049Y435057D01*
X29760Y436122D01*
X30250Y437304D01*
X30500Y438560D01*
Y439841D01*
X30250Y441096D01*
X29760Y442279D01*
X29049Y443344D01*
X28143Y444249D01*
X27079Y444961D01*
X25896Y445451D01*
X24640Y445700D01*
X23360D01*
X22104Y445451D01*
X20921Y444961D01*
X19856Y444249D01*
X18951Y443344D01*
X18240Y442279D01*
X18047Y441815D01*
X17047Y442014D01*
Y443503D01*
X27220Y453676D01*
X27596Y453750D01*
X28779Y454240D01*
X29843Y454951D01*
X30749Y455857D01*
X31460Y456921D01*
X31950Y458104D01*
X32200Y459360D01*
Y460641D01*
X31950Y461896D01*
X31460Y463079D01*
X30749Y464144D01*
X29843Y465049D01*
X28779Y465761D01*
X27596Y466251D01*
X26340Y466500D01*
X25060D01*
X23804Y466251D01*
X22621Y465761D01*
X21556Y465049D01*
X20651Y464144D01*
X19940Y463079D01*
X19450Y461896D01*
X19375Y461521D01*
X8000Y450146D01*
X7000Y450560D01*
Y562806D01*
X8000Y563131D01*
X9006Y561746D01*
X10565Y560188D01*
X12347Y558892D01*
X14311Y557892D01*
X16407Y557211D01*
X18583Y556866D01*
X20787D01*
X22963Y557211D01*
X25056Y557891D01*
X25125Y557726D01*
X26006Y556577D01*
X27155Y555696D01*
X28493Y555141D01*
X29929Y554952D01*
X31929D01*
Y539815D01*
X53000D01*
Y560500D01*
Y581185D01*
X31929D01*
Y579533D01*
X30929Y579208D01*
X30364Y579987D01*
X28850Y581500D01*
X28866Y581754D01*
X29109Y582500D01*
X561443D01*
X561685Y581754D01*
D02*
G37*
G36*
X199564Y472642D02*
X201000Y472452D01*
X201552Y471968D01*
Y243441D01*
X200347D01*
Y239951D01*
X200241Y239696D01*
X200052Y238260D01*
Y192665D01*
X199052Y192088D01*
X198868Y192194D01*
X197637Y192524D01*
X197500D01*
Y187685D01*
Y182847D01*
X197637D01*
X198868Y183177D01*
X199052Y183283D01*
X200052Y182706D01*
Y176137D01*
X199052Y175584D01*
X197772Y175839D01*
X197007D01*
X196147Y176698D01*
Y182681D01*
X196363Y182847D01*
X196500D01*
Y187685D01*
Y192524D01*
X196363D01*
X196147Y192690D01*
Y326250D01*
X196804Y327106D01*
X197358Y328444D01*
X197547Y329880D01*
X197547Y329880D01*
Y472568D01*
X198547Y473063D01*
X199564Y472642D01*
D02*
G37*
G36*
X130952Y229953D02*
Y173504D01*
X130500Y173239D01*
X129952Y173134D01*
X128997Y174089D01*
X127713Y174947D01*
X126286Y175538D01*
X124772Y175839D01*
X123228D01*
X123147Y175905D01*
Y182681D01*
X123363Y182847D01*
X123500D01*
Y187685D01*
Y192524D01*
X123363D01*
X123147Y192690D01*
Y223562D01*
X129952Y230367D01*
X130952Y229953D01*
D02*
G37*
G36*
X64152Y232092D02*
Y138998D01*
X51147Y125993D01*
X50147Y126211D01*
Y160096D01*
X50228Y160162D01*
X51772D01*
X53286Y160463D01*
X54713Y161054D01*
X55997Y161912D01*
X57089Y163004D01*
X57946Y164287D01*
X58537Y165714D01*
X58839Y167228D01*
Y168772D01*
X58537Y170287D01*
X57946Y171713D01*
X57089Y172997D01*
X55997Y174089D01*
X54713Y174947D01*
X53286Y175538D01*
X51772Y175839D01*
X50228D01*
X50147Y175905D01*
Y182681D01*
X50363Y182847D01*
X50500D01*
Y187685D01*
Y192524D01*
X50363D01*
X50147Y192690D01*
Y220562D01*
X62298Y232713D01*
X63103D01*
X63401Y232752D01*
X64152Y232092D01*
D02*
G37*
%LPC*%
G36*
X350437Y477913D02*
X346000D01*
Y475051D01*
X350437D01*
Y477913D01*
D02*
G37*
G36*
X345000D02*
X340563D01*
Y475051D01*
X345000D01*
Y477913D01*
D02*
G37*
G36*
X413272Y488839D02*
X411728D01*
X410213Y488537D01*
X408787Y487946D01*
X407503Y487089D01*
X406411Y485997D01*
X405553Y484713D01*
X404962Y483286D01*
X404661Y481772D01*
Y480228D01*
X404962Y478714D01*
X405553Y477287D01*
X406411Y476003D01*
X407503Y474911D01*
X408787Y474053D01*
X410213Y473463D01*
X411728Y473161D01*
X413272D01*
X414786Y473463D01*
X416213Y474053D01*
X417496Y474911D01*
X418588Y476003D01*
X419446Y477287D01*
X420037Y478714D01*
X420338Y480228D01*
Y481772D01*
X420037Y483286D01*
X419446Y484713D01*
X418588Y485997D01*
X417496Y487089D01*
X416213Y487946D01*
X414786Y488537D01*
X413272Y488839D01*
D02*
G37*
G36*
X393587D02*
X392043D01*
X390528Y488537D01*
X389102Y487946D01*
X387818Y487089D01*
X386726Y485997D01*
X385868Y484713D01*
X385277Y483286D01*
X384976Y481772D01*
Y480228D01*
X385277Y478714D01*
X385868Y477287D01*
X386726Y476003D01*
X387818Y474911D01*
X389102Y474053D01*
X390528Y473463D01*
X392043Y473161D01*
X393587D01*
X395101Y473463D01*
X396528Y474053D01*
X397811Y474911D01*
X398903Y476003D01*
X399761Y477287D01*
X400352Y478714D01*
X400653Y480228D01*
Y481772D01*
X400352Y483286D01*
X399761Y484713D01*
X398903Y485997D01*
X397811Y487089D01*
X396528Y487946D01*
X395101Y488537D01*
X393587Y488839D01*
D02*
G37*
G36*
X347074Y413230D02*
X343925D01*
X342678Y413107D01*
X341478Y412743D01*
X340373Y412152D01*
X339404Y411357D01*
X338609Y410388D01*
X338018Y409283D01*
X337655Y408084D01*
X337532Y406837D01*
X337585Y406297D01*
X336763Y405297D01*
X318700D01*
X318700Y405297D01*
X317264Y405108D01*
X315926Y404554D01*
X314777Y403673D01*
X314777Y403673D01*
X314402Y403297D01*
X296532D01*
Y404250D01*
X283532D01*
Y391250D01*
X284214D01*
X284770Y390419D01*
X284673Y390186D01*
X284484Y388750D01*
Y383250D01*
X284673Y381814D01*
X285227Y380476D01*
X286109Y379327D01*
X287258Y378446D01*
X288596Y377891D01*
X290032Y377702D01*
X291467Y377891D01*
X292805Y378446D01*
X293954Y379327D01*
X294836Y380476D01*
X295390Y381814D01*
X295579Y383250D01*
Y388750D01*
X295390Y390186D01*
X295294Y390419D01*
X295849Y391250D01*
X296532D01*
Y392202D01*
X316700D01*
X318136Y392391D01*
X319474Y392946D01*
X320622Y393827D01*
X320998Y394202D01*
X340563D01*
Y393163D01*
X345500D01*
X350437D01*
Y394333D01*
X350626Y394434D01*
X351595Y395229D01*
X352390Y396198D01*
X352981Y397304D01*
X353344Y398503D01*
X353467Y399750D01*
X353344Y400997D01*
X352981Y402197D01*
X352395Y403293D01*
X352981Y404390D01*
X353344Y405589D01*
X353467Y406837D01*
X353344Y408084D01*
X352981Y409283D01*
X352390Y410388D01*
X351595Y411357D01*
X350626Y412152D01*
X349521Y412743D01*
X348322Y413107D01*
X347074Y413230D01*
D02*
G37*
G36*
X350437Y392163D02*
X346000D01*
Y389301D01*
X350437D01*
Y392163D01*
D02*
G37*
G36*
X345000D02*
X340563D01*
Y389301D01*
X345000D01*
Y392163D01*
D02*
G37*
G36*
X413272Y401714D02*
X411728D01*
X410213Y401412D01*
X408787Y400821D01*
X407503Y399964D01*
X406411Y398872D01*
X405553Y397588D01*
X404962Y396161D01*
X404661Y394647D01*
Y393103D01*
X404962Y391588D01*
X405553Y390162D01*
X406411Y388878D01*
X407503Y387786D01*
X408787Y386929D01*
X410213Y386338D01*
X411728Y386036D01*
X413272D01*
X414786Y386338D01*
X416213Y386929D01*
X417496Y387786D01*
X418588Y388878D01*
X419446Y390162D01*
X420037Y391588D01*
X420338Y393103D01*
Y394647D01*
X420037Y396161D01*
X419446Y397588D01*
X418588Y398872D01*
X417496Y399964D01*
X416213Y400821D01*
X414786Y401412D01*
X413272Y401714D01*
D02*
G37*
G36*
X393587D02*
X392043D01*
X390528Y401412D01*
X389102Y400821D01*
X387818Y399964D01*
X386726Y398872D01*
X385868Y397588D01*
X385277Y396161D01*
X384976Y394647D01*
Y393103D01*
X385277Y391588D01*
X385868Y390162D01*
X386726Y388878D01*
X387818Y387786D01*
X389102Y386929D01*
X390528Y386338D01*
X392043Y386036D01*
X393587D01*
X395101Y386338D01*
X396528Y386929D01*
X397811Y387786D01*
X398903Y388878D01*
X399761Y390162D01*
X400352Y391588D01*
X400653Y393103D01*
Y394647D01*
X400352Y396161D01*
X399761Y397588D01*
X398903Y398872D01*
X397811Y399964D01*
X396528Y400821D01*
X395101Y401412D01*
X393587Y401714D01*
D02*
G37*
G36*
X347074Y327480D02*
X343925D01*
X342678Y327357D01*
X341478Y326993D01*
X340373Y326402D01*
X339404Y325607D01*
X338609Y324638D01*
X338018Y323533D01*
X337655Y322334D01*
X337532Y321087D01*
X337585Y320547D01*
X336763Y319547D01*
X296532D01*
Y324625D01*
X283532D01*
Y311625D01*
X284214D01*
X284770Y310793D01*
X284673Y310561D01*
X284484Y309125D01*
Y303625D01*
X284673Y302189D01*
X285227Y300851D01*
X286109Y299702D01*
X287258Y298821D01*
X288596Y298267D01*
X290032Y298078D01*
X291467Y298267D01*
X292805Y298821D01*
X293954Y299702D01*
X294836Y300851D01*
X295390Y302189D01*
X295579Y303625D01*
Y308453D01*
X340563D01*
Y307413D01*
X345500D01*
Y306913D01*
D01*
Y307413D01*
X350437D01*
Y308583D01*
X350626Y308684D01*
X351595Y309479D01*
X352390Y310448D01*
X352981Y311554D01*
X353344Y312753D01*
X353467Y314000D01*
X353344Y315247D01*
X352981Y316446D01*
X352395Y317543D01*
X352981Y318640D01*
X353344Y319839D01*
X353467Y321087D01*
X353344Y322334D01*
X352981Y323533D01*
X352390Y324638D01*
X351595Y325607D01*
X350626Y326402D01*
X349521Y326993D01*
X348322Y327357D01*
X347074Y327480D01*
D02*
G37*
G36*
X350437Y306413D02*
X346000D01*
Y303551D01*
X350437D01*
Y306413D01*
D02*
G37*
G36*
X345000D02*
X340563D01*
Y303551D01*
X345000D01*
Y306413D01*
D02*
G37*
G36*
X413272Y314588D02*
X411728D01*
X410213Y314287D01*
X408787Y313696D01*
X407503Y312839D01*
X406411Y311747D01*
X405553Y310463D01*
X404962Y309036D01*
X404661Y307522D01*
Y305978D01*
X404962Y304464D01*
X405553Y303037D01*
X406411Y301753D01*
X407503Y300661D01*
X408787Y299803D01*
X410213Y299213D01*
X411728Y298911D01*
X413272D01*
X414786Y299213D01*
X416213Y299803D01*
X417496Y300661D01*
X418588Y301753D01*
X419446Y303037D01*
X420037Y304464D01*
X420338Y305978D01*
Y307522D01*
X420037Y309036D01*
X419446Y310463D01*
X418588Y311747D01*
X417496Y312839D01*
X416213Y313696D01*
X414786Y314287D01*
X413272Y314588D01*
D02*
G37*
G36*
X393587D02*
X392043D01*
X390528Y314287D01*
X389102Y313696D01*
X387818Y312839D01*
X386726Y311747D01*
X385868Y310463D01*
X385277Y309036D01*
X384976Y307522D01*
Y305978D01*
X385277Y304464D01*
X385868Y303037D01*
X386726Y301753D01*
X387818Y300661D01*
X389102Y299803D01*
X390528Y299213D01*
X392043Y298911D01*
X393587D01*
X395101Y299213D01*
X396528Y299803D01*
X397811Y300661D01*
X398903Y301753D01*
X399761Y303037D01*
X400352Y304464D01*
X400653Y305978D01*
Y307522D01*
X400352Y309036D01*
X399761Y310463D01*
X398903Y311747D01*
X397811Y312839D01*
X396528Y313696D01*
X395101Y314287D01*
X393587Y314588D01*
D02*
G37*
G36*
X350437Y220663D02*
X346000D01*
Y217801D01*
X350437D01*
Y220663D01*
D02*
G37*
G36*
X345000D02*
X340563D01*
Y217801D01*
X345000D01*
Y220663D01*
D02*
G37*
G36*
X173740Y532240D02*
X169500D01*
Y528000D01*
X173740D01*
Y532240D01*
D02*
G37*
G36*
X168500D02*
X164260D01*
Y528000D01*
X168500D01*
Y532240D01*
D02*
G37*
G36*
X173740Y527000D02*
X169500D01*
Y522760D01*
X173740D01*
Y527000D01*
D02*
G37*
G36*
X168500D02*
X164260D01*
Y522760D01*
X168500D01*
Y527000D01*
D02*
G37*
G36*
X345000Y134913D02*
X340563D01*
Y132051D01*
X345000D01*
Y134913D01*
D02*
G37*
G36*
X365000Y574386D02*
Y568000D01*
X369877D01*
Y569075D01*
X369693Y570466D01*
X369156Y571763D01*
X368302Y572877D01*
X367188Y573731D01*
X365892Y574268D01*
X365000Y574386D01*
D02*
G37*
G36*
X364000D02*
X363108Y574268D01*
X361812Y573731D01*
X360698Y572877D01*
X359844Y571763D01*
X359307Y570466D01*
X359123Y569075D01*
Y568000D01*
X364000D01*
Y574386D01*
D02*
G37*
G36*
X335000D02*
Y568000D01*
X339877D01*
Y569075D01*
X339693Y570466D01*
X339156Y571763D01*
X338302Y572877D01*
X337188Y573731D01*
X335892Y574268D01*
X335000Y574386D01*
D02*
G37*
G36*
X334000D02*
X333108Y574268D01*
X331812Y573731D01*
X330698Y572877D01*
X329844Y571763D01*
X329307Y570466D01*
X329123Y569075D01*
Y568000D01*
X334000D01*
Y574386D01*
D02*
G37*
G36*
X305000D02*
Y568000D01*
X309877D01*
Y569075D01*
X309694Y570466D01*
X309156Y571763D01*
X308302Y572877D01*
X307188Y573731D01*
X305892Y574268D01*
X305000Y574386D01*
D02*
G37*
G36*
X304000D02*
X303108Y574268D01*
X301812Y573731D01*
X300698Y572877D01*
X299844Y571763D01*
X299307Y570466D01*
X299123Y569075D01*
Y568000D01*
X304000D01*
Y574386D01*
D02*
G37*
G36*
X75071Y581185D02*
X54000D01*
Y561000D01*
X75071D01*
Y581185D01*
D02*
G37*
G36*
X339877Y567000D02*
X335000D01*
Y560614D01*
X335892Y560732D01*
X337188Y561269D01*
X338302Y562123D01*
X339156Y563237D01*
X339693Y564534D01*
X339877Y565925D01*
Y567000D01*
D02*
G37*
G36*
X334000D02*
X329123D01*
Y565925D01*
X329307Y564534D01*
X329844Y563237D01*
X330698Y562123D01*
X331812Y561269D01*
X333108Y560732D01*
X334000Y560614D01*
Y567000D01*
D02*
G37*
G36*
X309877D02*
X305000D01*
Y560614D01*
X305892Y560732D01*
X307188Y561269D01*
X308302Y562123D01*
X309156Y563237D01*
X309694Y564534D01*
X309877Y565925D01*
Y567000D01*
D02*
G37*
G36*
X304000D02*
X299123D01*
Y565925D01*
X299307Y564534D01*
X299844Y563237D01*
X300698Y562123D01*
X301812Y561269D01*
X303108Y560732D01*
X304000Y560614D01*
Y567000D01*
D02*
G37*
G36*
X334000Y545990D02*
X333149Y545761D01*
X332351Y545301D01*
X331699Y544649D01*
X331239Y543851D01*
X331011Y543000D01*
X334000D01*
Y545990D01*
D02*
G37*
G36*
X156724Y495480D02*
X151500D01*
Y488484D01*
X156724D01*
Y495480D01*
D02*
G37*
G36*
X150500D02*
X145276D01*
Y488484D01*
X150500D01*
Y495480D01*
D02*
G37*
G36*
X156724Y487484D02*
X151000D01*
X145276D01*
Y480488D01*
X145452D01*
Y478488D01*
X145642Y477052D01*
X146196Y475714D01*
X147077Y474565D01*
X148226Y473684D01*
X149564Y473130D01*
X151000Y472940D01*
X152436Y473130D01*
X153774Y473684D01*
X154923Y474565D01*
X155804Y475714D01*
X156358Y477052D01*
X156547Y478488D01*
Y480488D01*
X156724D01*
Y487484D01*
D02*
G37*
G36*
X72779Y476937D02*
X68342D01*
Y472500D01*
X72779D01*
Y476937D01*
D02*
G37*
G36*
X67342D02*
X62905D01*
Y472500D01*
X67342D01*
Y476937D01*
D02*
G37*
G36*
X96140Y504500D02*
X94860D01*
X93604Y504250D01*
X92421Y503760D01*
X91356Y503049D01*
X90451Y502143D01*
X89740Y501079D01*
X89250Y499896D01*
X89072Y499000D01*
X89000D01*
Y497360D01*
Y486000D01*
X89682D01*
X90238Y485169D01*
X90142Y484936D01*
X89952Y483500D01*
Y478000D01*
X90142Y476564D01*
X90696Y475226D01*
X91577Y474077D01*
X92726Y473196D01*
X94064Y472642D01*
X95500Y472452D01*
X96936Y472642D01*
X98274Y473196D01*
X99423Y474077D01*
X100304Y475226D01*
X100858Y476564D01*
X101048Y478000D01*
Y483500D01*
X100858Y484936D01*
X100762Y485169D01*
X101318Y486000D01*
X102000D01*
Y499000D01*
X101928D01*
X101750Y499896D01*
X101260Y501079D01*
X100549Y502143D01*
X99643Y503049D01*
X98579Y503760D01*
X97396Y504250D01*
X96140Y504500D01*
D02*
G37*
G36*
X72779Y471500D02*
X68342D01*
Y467063D01*
X72779D01*
Y471500D01*
D02*
G37*
G36*
X67342D02*
X62905D01*
Y467063D01*
X67342D01*
Y471500D01*
D02*
G37*
G36*
X48939Y479937D02*
X47376D01*
X45842Y479632D01*
X44398Y479034D01*
X43098Y478165D01*
X41992Y477060D01*
X41124Y475760D01*
X40525Y474315D01*
X40220Y472782D01*
Y471218D01*
X40525Y469685D01*
X41124Y468240D01*
X41992Y466940D01*
X43098Y465835D01*
X44398Y464966D01*
X45842Y464368D01*
X47376Y464063D01*
X48939D01*
X50472Y464368D01*
X51917Y464966D01*
X53217Y465835D01*
X54322Y466940D01*
X55191Y468240D01*
X55789Y469685D01*
X56094Y471218D01*
Y472782D01*
X55789Y474315D01*
X55191Y475760D01*
X54322Y477060D01*
X53217Y478165D01*
X51917Y479034D01*
X50472Y479632D01*
X48939Y479937D01*
D02*
G37*
G36*
X508057Y275937D02*
X506494D01*
X504960Y275632D01*
X503516Y275034D01*
X502216Y274165D01*
X501111Y273060D01*
X500242Y271760D01*
X499644Y270315D01*
X499339Y268782D01*
Y267218D01*
X499644Y265685D01*
X500242Y264240D01*
X500744Y263489D01*
Y227236D01*
X500371Y227162D01*
X498944Y226571D01*
X497660Y225713D01*
X496569Y224622D01*
X495711Y223338D01*
X495120Y221911D01*
X494819Y220397D01*
Y218853D01*
X495120Y217338D01*
X495711Y215912D01*
X496569Y214628D01*
X497660Y213536D01*
X498944Y212678D01*
X500371Y212087D01*
X501885Y211786D01*
X503429D01*
X504944Y212087D01*
X506370Y212678D01*
X507654Y213536D01*
X508746Y214628D01*
X509604Y215912D01*
X510194Y217338D01*
X510340Y218071D01*
X511894Y219625D01*
X512706Y220615D01*
X513310Y221744D01*
X513682Y222969D01*
X513807Y224243D01*
Y263489D01*
X514309Y264240D01*
X514908Y265685D01*
X515213Y267218D01*
Y268782D01*
X514908Y270315D01*
X514309Y271760D01*
X513441Y273060D01*
X512335Y274165D01*
X511035Y275034D01*
X509591Y275632D01*
X508057Y275937D01*
D02*
G37*
G36*
X124637Y192524D02*
X124500D01*
Y188185D01*
X128839D01*
Y188322D01*
X128509Y189553D01*
X127872Y190656D01*
X126971Y191557D01*
X125868Y192194D01*
X124637Y192524D01*
D02*
G37*
G36*
X128839Y187185D02*
X124500D01*
Y182847D01*
X124637D01*
X125868Y183177D01*
X126971Y183814D01*
X127872Y184714D01*
X128509Y185818D01*
X128839Y187048D01*
Y187185D01*
D02*
G37*
G36*
X51637Y192524D02*
X51500D01*
Y188185D01*
X55839D01*
Y188322D01*
X55509Y189553D01*
X54872Y190656D01*
X53971Y191557D01*
X52868Y192194D01*
X51637Y192524D01*
D02*
G37*
G36*
X55839Y187185D02*
X51500D01*
Y182847D01*
X51637D01*
X52868Y183177D01*
X53971Y183814D01*
X54872Y184714D01*
X55509Y185818D01*
X55839Y187048D01*
Y187185D01*
D02*
G37*
%LPD*%
D20*
X184500Y483500D02*
D03*
Y492500D02*
D03*
X290032Y149875D02*
D03*
Y158875D02*
D03*
Y468375D02*
D03*
Y477375D02*
D03*
Y309125D02*
D03*
Y318125D02*
D03*
Y388750D02*
D03*
Y397750D02*
D03*
Y229500D02*
D03*
Y238500D02*
D03*
X486500Y70000D02*
D03*
Y61000D02*
D03*
X261000Y522500D02*
D03*
Y531500D02*
D03*
X313500Y521000D02*
D03*
Y530000D02*
D03*
X486500Y30000D02*
D03*
Y21000D02*
D03*
X536500Y29500D02*
D03*
Y20500D02*
D03*
X549500Y29500D02*
D03*
Y20500D02*
D03*
X257000Y492500D02*
D03*
Y483500D02*
D03*
X238500Y492500D02*
D03*
Y483500D02*
D03*
X201000Y492500D02*
D03*
Y483500D02*
D03*
X95500D02*
D03*
Y492500D02*
D03*
D21*
X46807Y519500D02*
D03*
X60193D02*
D03*
X53500D02*
D03*
X66886D02*
D03*
X40114D02*
D03*
D22*
X53500Y560500D02*
D03*
D23*
X513000Y55173D02*
D03*
X523000Y76827D02*
D03*
X518000D02*
D03*
X513000D02*
D03*
X528000Y55173D02*
D03*
X523000D02*
D03*
X518000D02*
D03*
D24*
X528000Y76827D02*
D03*
D25*
X206000Y541244D02*
D03*
D26*
Y518016D02*
D03*
X215055D02*
D03*
X196945D02*
D03*
D27*
X217000Y234520D02*
D03*
Y242000D02*
D03*
X207103Y238260D02*
D03*
X145000Y234520D02*
D03*
Y242000D02*
D03*
X135103Y238260D02*
D03*
X73000Y234520D02*
D03*
Y242000D02*
D03*
X63103Y238260D02*
D03*
D28*
X96000Y527801D02*
D03*
X126000D02*
D03*
X67842Y472000D02*
D03*
D29*
X506750Y25500D02*
D03*
D30*
X520250D02*
D03*
D31*
X123638Y487984D02*
D03*
X151000D02*
D03*
D61*
X360000Y558000D02*
X379500D01*
X342500Y540500D02*
X360000Y558000D01*
X313500Y521000D02*
X323000D01*
X339500Y537500D01*
Y537571D02*
X342429Y540500D01*
X339500Y537500D02*
Y537571D01*
X342429Y540500D02*
X342500D01*
X275300Y482800D02*
X313500Y521000D01*
X319500Y560000D02*
Y567500D01*
Y545041D02*
Y560000D01*
X323000Y541000D02*
Y541541D01*
X319500Y545041D02*
X323000Y541541D01*
X313400Y553901D02*
X319500Y560000D01*
X283401Y553901D02*
X313400D01*
X379500Y558000D02*
Y567500D01*
X190600Y75000D02*
X194096Y71504D01*
X190600Y111600D02*
X197000Y118000D01*
X190600Y75000D02*
Y111600D01*
X29929Y560500D02*
X53500D01*
X25575Y335500D02*
X34500Y326575D01*
Y274000D02*
Y326575D01*
X40871Y264871D02*
Y282200D01*
X24000Y335500D02*
X25575D01*
X32700Y256700D02*
X40871Y264871D01*
X190600Y174401D02*
Y328480D01*
X192000Y329880D02*
Y484500D01*
X190600Y328480D02*
X192000Y329880D01*
X184500Y492500D02*
X201000D01*
X184500Y478000D02*
Y483500D01*
X476000Y17000D02*
X480000Y21000D01*
X486500D01*
X206000Y510000D02*
Y518016D01*
Y504900D02*
Y510000D01*
X207100Y238260D02*
Y503800D01*
X205600Y104425D02*
Y238260D01*
X528000Y51000D02*
Y55173D01*
Y46201D02*
Y51000D01*
X215055Y525345D02*
Y526400D01*
Y518016D02*
Y525345D01*
X69700Y136700D02*
Y234520D01*
X60000Y238260D02*
X63103D01*
X44600Y222860D02*
X60000Y238260D01*
X44600Y84243D02*
Y222860D01*
Y84243D02*
X51000Y77843D01*
X205600Y238260D02*
X207100D01*
X197000Y95825D02*
X205600Y104425D01*
X197000Y77843D02*
Y95825D01*
X528000Y51000D02*
X549500Y29500D01*
X256000Y526500D02*
X261000Y531500D01*
X256000Y517500D02*
Y526500D01*
Y517500D02*
X260000Y513500D01*
X266000D01*
X270500Y518000D01*
X280000D01*
X282600Y515400D01*
Y499000D02*
Y515400D01*
X270300Y486700D02*
X282600Y499000D01*
X270300Y234900D02*
Y486700D01*
Y234900D02*
X355400Y149800D01*
Y124100D02*
Y149800D01*
Y124100D02*
X470100Y9400D01*
X517700D01*
X526800Y18500D01*
Y45000D01*
X528000Y46201D01*
X261000Y531500D02*
X283401Y553901D01*
X149000Y527500D02*
X167799Y508701D01*
X184500Y492500D01*
X491000Y25500D02*
X506750D01*
X486500Y30000D02*
X491000Y25500D01*
X24000Y410500D02*
X30000D01*
X68300Y372199D01*
Y242000D02*
Y372199D01*
Y242000D02*
X73000D01*
Y296500D01*
X139500Y363000D01*
X113600Y327100D02*
X139500Y353000D01*
X113600Y75000D02*
Y327100D01*
Y75000D02*
X121096Y67504D01*
X207339D01*
X222300Y82466D01*
Y242000D01*
X217000D02*
X222300D01*
X227300Y353000D02*
X266300Y314000D01*
Y182607D02*
Y314000D01*
Y182607D02*
X290032Y158875D01*
X300282Y228250D02*
X345500D01*
X290032Y238500D02*
X300282Y228250D01*
X294157Y314000D02*
X345500D01*
X290032Y318125D02*
X294157Y314000D01*
X298157Y485500D02*
X345500D01*
X290032Y477375D02*
X298157Y485500D01*
X11800Y302300D02*
X15000Y305500D01*
X11800Y264900D02*
Y302300D01*
Y264900D02*
X20000Y256700D01*
X32700D01*
X15000Y305500D02*
X24000D01*
X11500Y309000D02*
X15000Y305500D01*
X11500Y309000D02*
Y445800D01*
X25700Y460000D01*
X518000Y55173D02*
Y60000D01*
X522200Y64200D01*
X532100D01*
X554600Y41700D01*
Y12500D02*
Y41700D01*
X551100Y9000D02*
X554600Y12500D01*
X535000Y9000D02*
X551100D01*
X531500Y12500D02*
X535000Y9000D01*
X531500Y12500D02*
Y24500D01*
X536500Y29500D01*
X473000Y70000D02*
X486500D01*
X468000Y75000D02*
X473000Y70000D01*
X265000Y526500D02*
X284327D01*
X261000Y522500D02*
X265000Y526500D01*
X275300Y315800D02*
Y482800D01*
X454500Y188001D02*
Y567500D01*
X439500Y540801D02*
Y567500D01*
X430600Y531900D02*
X439500Y540801D01*
X430600Y281000D02*
Y531900D01*
X372200Y222600D02*
X430600Y281000D01*
X372200Y162000D02*
Y222600D01*
X190600Y174401D02*
X197000Y168000D01*
X69700Y234520D02*
X73000D01*
X51000Y118000D02*
X69700Y136700D01*
X194096Y71504D02*
X200000D01*
X208896Y80401D01*
Y99397D01*
X210100Y100600D01*
Y233020D01*
X211600Y234520D01*
X217000D01*
X404000Y92289D02*
Y236000D01*
Y92289D02*
X466289Y30000D01*
X486500D01*
X257000Y492500D02*
X277500Y513000D01*
X145000Y242000D02*
X145000D01*
X145000D02*
Y305700D01*
X155200Y315900D01*
Y357300D01*
X149500Y363000D02*
X155200Y357300D01*
X15500Y430700D02*
X24000Y439200D01*
X15500Y321213D02*
Y430700D01*
Y321213D02*
X16213Y320500D01*
X24000D01*
X117600Y84243D02*
X124000Y77843D01*
X117600Y84243D02*
Y225860D01*
X130000Y238260D01*
X135103D01*
X508000Y62307D02*
X513000D01*
Y55173D02*
Y62307D01*
X306407Y142500D02*
X345500D01*
X290032Y158875D02*
X306407Y142500D01*
X60193Y519500D02*
Y530000D01*
X64493Y534300D01*
X119500D01*
X126000Y527801D01*
X212500Y527900D02*
X215055Y525345D01*
X202200Y527900D02*
X212500D01*
X187600Y542500D02*
X202200Y527900D01*
X164000Y542500D02*
X187600D01*
X149000Y527500D02*
X164000Y542500D01*
X206000Y504900D02*
X207100Y503800D01*
Y238260D02*
X207103D01*
X206000Y510000D02*
X223500Y492500D01*
X238500D01*
X516500Y25500D02*
X520250D01*
X502800Y39200D02*
X516500Y25500D01*
X492300Y39200D02*
X502800D01*
X481500Y50000D02*
X492300Y39200D01*
X481500Y50000D02*
Y65000D01*
X486500Y70000D01*
X123638Y487984D02*
Y500163D01*
X96000Y527801D02*
X123638Y500163D01*
X220155Y531500D02*
X261000D01*
X215055Y526400D02*
X220155Y531500D01*
X140000Y234520D02*
X145000D01*
X136500Y231020D02*
X140000Y234520D01*
X136500Y130500D02*
Y231020D01*
X124000Y118000D02*
X136500Y130500D01*
X74900Y506700D02*
X96000Y527801D01*
X50000Y506700D02*
X74900D01*
X46807Y509893D02*
X50000Y506700D01*
X46807Y509893D02*
Y519500D01*
X523000Y48500D02*
Y55173D01*
X499000Y48500D02*
X523000D01*
X486500Y61000D02*
X499000Y48500D01*
X302400Y518900D02*
X313500Y530000D01*
X295000Y518900D02*
X302400D01*
X291413Y522487D02*
X295000Y518900D01*
X291413Y522487D02*
Y526500D01*
X238500Y492500D02*
X257000D01*
X137600Y527500D02*
X149000D01*
X137300Y527801D02*
X137600Y527500D01*
X126000Y527801D02*
X137300D01*
X318700Y399750D02*
X345500D01*
X316700Y397750D02*
X318700Y399750D01*
X290032Y397750D02*
X316700D01*
X95500Y492500D02*
Y498000D01*
X40114Y519500D02*
Y528799D01*
X290032Y144375D02*
Y149875D01*
Y224000D02*
Y229500D01*
Y303625D02*
Y309125D01*
Y383250D02*
Y388750D01*
X95500Y478000D02*
Y483500D01*
X151000Y478488D02*
Y487984D01*
X53500Y519500D02*
Y528799D01*
X66886Y519500D02*
Y528799D01*
X201000Y478000D02*
Y483500D01*
X536500Y15000D02*
Y20500D01*
X238500Y478000D02*
Y483500D01*
X257000Y478000D02*
Y483500D01*
X549500Y15000D02*
Y20500D01*
X290032Y462875D02*
Y468375D01*
X196945Y509701D02*
Y518016D01*
D62*
X465224Y135225D02*
Y175500D01*
X505700D02*
Y191800D01*
X565000Y375500D02*
Y426200D01*
X462500Y132500D02*
X465224Y135225D01*
X505700Y175500D02*
X505776D01*
X505700Y191800D02*
X569400Y255500D01*
X571000D01*
X505776Y135618D02*
Y175500D01*
X502657Y132500D02*
X505776Y135618D01*
X466724Y223850D02*
Y268000D01*
X462500Y219625D02*
X466724Y223850D01*
X507276Y224243D02*
Y268000D01*
X502657Y219625D02*
X507276Y224243D01*
X467224Y311475D02*
Y359000D01*
X462500Y306750D02*
X467224Y311475D01*
X507776Y311869D02*
Y359000D01*
X502657Y306750D02*
X507776Y311869D01*
X502657Y481000D02*
X510200D01*
X565000Y426200D01*
Y375500D02*
X571000D01*
X517500Y360500D02*
X571000D01*
X486200Y391800D02*
X517500Y360500D01*
X486200Y391800D02*
Y457300D01*
X462500Y481000D02*
X486200Y457300D01*
X464724Y420225D02*
Y444500D01*
X462500Y418000D02*
X464724Y420225D01*
X462500Y393875D02*
Y418000D01*
X505276Y420419D02*
Y444500D01*
X502657Y417800D02*
X505276Y420419D01*
X502657Y393875D02*
Y417800D01*
X463224Y502825D02*
Y524000D01*
X462500Y502100D02*
X463224Y502825D01*
X462500Y481000D02*
Y502100D01*
X503776Y503019D02*
Y524000D01*
X502657Y501900D02*
X503776Y503019D01*
X502657Y481000D02*
Y501900D01*
D63*
X576505Y54083D02*
X581500Y59078D01*
X570700Y85001D02*
X581500Y74200D01*
Y59078D02*
Y74200D01*
X571000Y53000D02*
X572083Y54083D01*
X576505D01*
X562173Y76827D02*
X571000Y68000D01*
X523000Y76827D02*
X562173D01*
X518000D02*
Y82500D01*
X513000Y76827D02*
X518000D01*
X520500Y85001D02*
X570700D01*
X518000Y82500D02*
X520500Y85001D01*
D64*
X169000Y527500D02*
D03*
D65*
X149000D02*
D03*
D66*
X345500Y492587D02*
D03*
Y485500D02*
D03*
Y406837D02*
D03*
Y399750D02*
D03*
Y321087D02*
D03*
Y314000D02*
D03*
Y235337D02*
D03*
Y228250D02*
D03*
Y149587D02*
D03*
Y142500D02*
D03*
D67*
Y478413D02*
D03*
Y392663D02*
D03*
Y306913D02*
D03*
Y221163D02*
D03*
Y135413D02*
D03*
D68*
X468000Y55000D02*
D03*
Y65000D02*
D03*
D69*
Y75000D02*
D03*
D70*
X462500Y481000D02*
D03*
X412500D02*
D03*
X392815D02*
D03*
X502657D02*
D03*
X462500Y393875D02*
D03*
X412500D02*
D03*
X392815D02*
D03*
X502657D02*
D03*
X462500Y306750D02*
D03*
X412500D02*
D03*
X392815D02*
D03*
X502657D02*
D03*
X462500Y219625D02*
D03*
X412500D02*
D03*
X392815D02*
D03*
X502657D02*
D03*
X462500Y132500D02*
D03*
X412500D02*
D03*
X392815D02*
D03*
X502657D02*
D03*
X197000Y168000D02*
D03*
Y77843D02*
D03*
Y118000D02*
D03*
Y187685D02*
D03*
X124000Y118000D02*
D03*
Y168000D02*
D03*
Y77843D02*
D03*
Y187685D02*
D03*
X51000Y168000D02*
D03*
Y77843D02*
D03*
Y118000D02*
D03*
Y187685D02*
D03*
D71*
X149500Y343000D02*
D03*
X139500Y323000D02*
D03*
X149500Y363000D02*
D03*
Y323000D02*
D03*
X139500Y343000D02*
D03*
X149500Y353000D02*
D03*
X139500D02*
D03*
Y333000D02*
D03*
X149500D02*
D03*
D72*
X139500Y363000D02*
D03*
D73*
X24000Y335500D02*
D03*
Y290500D02*
D03*
Y395500D02*
D03*
Y410500D02*
D03*
Y275500D02*
D03*
Y305500D02*
D03*
Y350500D02*
D03*
Y380500D02*
D03*
Y365500D02*
D03*
Y320500D02*
D03*
X571000Y53000D02*
D03*
Y68000D02*
D03*
Y360500D02*
D03*
Y330500D02*
D03*
Y315500D02*
D03*
Y285500D02*
D03*
Y255500D02*
D03*
Y240500D02*
D03*
Y270500D02*
D03*
Y300500D02*
D03*
Y345500D02*
D03*
Y375500D02*
D03*
D74*
X570866Y570866D02*
D03*
X19685D02*
D03*
X570866Y19685D02*
D03*
X19685D02*
D03*
D75*
X291413Y526500D02*
D03*
X284327D02*
D03*
D76*
X298500D02*
D03*
D77*
X289500Y567500D02*
D03*
X319500D02*
D03*
X349500D02*
D03*
X394500D02*
D03*
X424500D02*
D03*
X454500D02*
D03*
X439500D02*
D03*
X409500D02*
D03*
X379500D02*
D03*
X364500D02*
D03*
X334500D02*
D03*
X304500D02*
D03*
D78*
X463224Y524000D02*
D03*
X464724Y444500D02*
D03*
X467224Y359000D02*
D03*
X466724Y268000D02*
D03*
X465224Y175500D02*
D03*
D79*
X503776Y524000D02*
D03*
X505276Y444500D02*
D03*
X507776Y359000D02*
D03*
X507276Y268000D02*
D03*
X505776Y175500D02*
D03*
X48157Y472000D02*
D03*
D80*
X323000Y541000D02*
D03*
X334500Y542500D02*
D03*
X29929Y560500D02*
D03*
X34500Y274000D02*
D03*
X40871Y282200D02*
D03*
X192000Y484500D02*
D03*
X184500Y478000D02*
D03*
X476000Y17000D02*
D03*
X227300Y353000D02*
D03*
X25700Y460000D02*
D03*
X275300Y315800D02*
D03*
X454500Y188001D02*
D03*
X372200Y162000D02*
D03*
X404000Y236000D02*
D03*
X277500Y513000D02*
D03*
X24000Y439200D02*
D03*
X508000Y62307D02*
D03*
X95500Y498000D02*
D03*
X40114Y528799D02*
D03*
X290032Y144375D02*
D03*
Y224000D02*
D03*
Y303625D02*
D03*
Y383250D02*
D03*
X95500Y478000D02*
D03*
X151000Y478488D02*
D03*
X53500Y528799D02*
D03*
X66886D02*
D03*
X201000Y478000D02*
D03*
X536500Y15000D02*
D03*
X238500Y478000D02*
D03*
X257000D02*
D03*
X549500Y15000D02*
D03*
X290032Y462875D02*
D03*
X196945Y509701D02*
D03*
M02*
