G04*
G04 #@! TF.GenerationSoftware,Altium Limited,Altium Designer,22.3.1 (43)*
G04*
G04 Layer_Color=8421504*
%FSLAX25Y25*%
%MOIN*%
G70*
G04*
G04 #@! TF.SameCoordinates,42F2F30E-D50D-475D-B1A6-53A476FFABF4*
G04*
G04*
G04 #@! TF.FilePolarity,Positive*
G04*
G01*
G75*
%ADD20R,0.08061X0.08823*%
%ADD21R,0.08823X0.08061*%
%ADD22R,0.05000X0.05000*%
%ADD23R,0.05512X0.02362*%
%ADD24R,0.04134X0.12598*%
%ADD25R,0.41142X0.39370*%
%ADD26O,0.02362X0.08268*%
%ADD27R,0.02362X0.08268*%
%ADD28R,0.12992X0.10630*%
%ADD29R,0.03937X0.10630*%
%ADD30R,0.07874X0.07874*%
G04:AMPARAMS|DCode=31|XSize=55mil|YSize=50mil|CornerRadius=0mil|HoleSize=0mil|Usage=FLASHONLY|Rotation=180.000|XOffset=0mil|YOffset=0mil|HoleType=Round|Shape=Octagon|*
%AMOCTAGOND31*
4,1,8,-0.02750,0.01250,-0.02750,-0.01250,-0.01500,-0.02500,0.01500,-0.02500,0.02750,-0.01250,0.02750,0.01250,0.01500,0.02500,-0.01500,0.02500,-0.02750,0.01250,0.0*
%
%ADD31OCTAGOND31*%

%ADD32R,0.05500X0.05000*%
%ADD33R,0.09449X0.12992*%
D20*
X318798Y94500D02*
D03*
X339202D02*
D03*
X317298Y166500D02*
D03*
X337702D02*
D03*
X315798Y236000D02*
D03*
X336202D02*
D03*
X316298Y288500D02*
D03*
X336702D02*
D03*
D21*
X536500Y331298D02*
D03*
Y351702D02*
D03*
D22*
X287500Y107375D02*
D03*
Y98375D02*
D03*
X184500Y483500D02*
D03*
Y492500D02*
D03*
X287500Y338500D02*
D03*
Y347500D02*
D03*
Y235792D02*
D03*
Y244792D02*
D03*
Y304500D02*
D03*
Y313500D02*
D03*
Y167083D02*
D03*
Y176083D02*
D03*
X486500Y70000D02*
D03*
Y61000D02*
D03*
X228500Y535000D02*
D03*
Y544000D02*
D03*
X267000Y532500D02*
D03*
Y541500D02*
D03*
X480000Y27000D02*
D03*
Y18000D02*
D03*
X530000Y26500D02*
D03*
Y17500D02*
D03*
X543000Y26500D02*
D03*
Y17500D02*
D03*
X242000Y492500D02*
D03*
Y483500D02*
D03*
X223500Y492500D02*
D03*
Y483500D02*
D03*
X201000Y492500D02*
D03*
Y483500D02*
D03*
X95500D02*
D03*
Y492500D02*
D03*
D23*
X250500Y241260D02*
D03*
X260397Y245000D02*
D03*
Y237520D02*
D03*
X191431D02*
D03*
Y245000D02*
D03*
X181534Y241260D02*
D03*
X122466Y237520D02*
D03*
Y245000D02*
D03*
X112569Y241260D02*
D03*
X53500Y237520D02*
D03*
Y245000D02*
D03*
X43603Y241260D02*
D03*
D24*
X56307Y514500D02*
D03*
X69693D02*
D03*
X63000D02*
D03*
X76386D02*
D03*
X49614D02*
D03*
D25*
X63000Y555500D02*
D03*
D26*
X513000Y55173D02*
D03*
X523000Y76827D02*
D03*
X518000D02*
D03*
X513000D02*
D03*
X528000Y55173D02*
D03*
X523000D02*
D03*
X518000D02*
D03*
D27*
X528000Y76827D02*
D03*
D28*
X206000Y541244D02*
D03*
D29*
Y518016D02*
D03*
X215055D02*
D03*
X196945D02*
D03*
D30*
X96000Y527801D02*
D03*
X126000D02*
D03*
D31*
X500250Y22500D02*
D03*
D32*
X513750D02*
D03*
D33*
X123638Y487984D02*
D03*
X151000D02*
D03*
M02*
