G04*
G04 #@! TF.GenerationSoftware,Altium Limited,Altium Designer,22.3.1 (43)*
G04*
G04 Layer_Color=128*
%FSLAX25Y25*%
%MOIN*%
G70*
G04*
G04 #@! TF.SameCoordinates,858DE3B6-85AC-4B40-B280-C04C9E7F73BC*
G04*
G04*
G04 #@! TF.FilePolarity,Positive*
G04*
G01*
G75*
%ADD115C,0.00200*%
D115*
X468626Y558500D02*
X484374D01*
X476500Y550626D02*
Y566374D01*
X468626Y408000D02*
X484374D01*
X476500Y400126D02*
Y415874D01*
X319126Y558500D02*
X334874D01*
X327000Y550626D02*
Y566374D01*
X319126Y408000D02*
X334874D01*
X327000Y400126D02*
Y415874D01*
X58122Y167500D02*
X60878D01*
X59500Y166122D02*
Y168878D01*
X58122Y177500D02*
X60878D01*
X59500Y176122D02*
Y178878D01*
X58122Y187500D02*
X60878D01*
X59500Y186122D02*
Y188878D01*
X468626Y376750D02*
X484374D01*
X476500Y368876D02*
Y384624D01*
X468626Y226250D02*
X484374D01*
X476500Y218376D02*
Y234124D01*
X319126Y376750D02*
X334874D01*
X327000Y368876D02*
Y384624D01*
X319126Y226250D02*
X334874D01*
X327000Y218376D02*
Y234124D01*
X86228Y371000D02*
X89772D01*
X88000Y369228D02*
Y372772D01*
X76228Y351000D02*
X79772D01*
X78000Y349228D02*
Y352772D01*
X86228Y391000D02*
X89772D01*
X88000Y389228D02*
Y392772D01*
X76228Y391000D02*
X79772D01*
X78000Y389228D02*
Y392772D01*
X86228Y351000D02*
X89772D01*
X88000Y349228D02*
Y352772D01*
X76228Y371000D02*
X79772D01*
X78000Y369228D02*
Y372772D01*
X86228Y381000D02*
X89772D01*
X88000Y379228D02*
Y382772D01*
X76228Y381000D02*
X79772D01*
X78000Y379228D02*
Y382772D01*
X76228Y361000D02*
X79772D01*
X78000Y359228D02*
Y362772D01*
X86228Y361000D02*
X89772D01*
X88000Y359228D02*
Y362772D01*
X247339Y217000D02*
X250488D01*
X248913Y215425D02*
Y218575D01*
X254425Y217000D02*
X257575D01*
X256000Y215425D02*
Y218575D01*
X261512Y217000D02*
X264661D01*
X263087Y215425D02*
Y218575D01*
X194367Y217000D02*
X197517D01*
X195942Y215425D02*
Y218575D01*
X201454Y217000D02*
X204604D01*
X203029Y215425D02*
Y218575D01*
X208541Y217000D02*
X211690D01*
X210115Y215425D02*
Y218575D01*
X141396Y217000D02*
X144546D01*
X142971Y215425D02*
Y218575D01*
X148483Y217000D02*
X151633D01*
X150058Y215425D02*
Y218575D01*
X155570Y217000D02*
X158719D01*
X157144Y215425D02*
Y218575D01*
X88425Y217000D02*
X91575D01*
X90000Y215425D02*
Y218575D01*
X95512Y217000D02*
X98661D01*
X97087Y215425D02*
Y218575D01*
X102598Y217000D02*
X105748D01*
X104173Y215425D02*
Y218575D01*
X17717Y102500D02*
X21654D01*
X19685Y100531D02*
Y104469D01*
X17717Y132500D02*
X21654D01*
X19685Y130532D02*
Y134468D01*
X17717Y162500D02*
X21654D01*
X19685Y160531D02*
Y164469D01*
X17717Y177500D02*
X21654D01*
X19685Y175531D02*
Y179469D01*
X17717Y147500D02*
X21654D01*
X19685Y145531D02*
Y149469D01*
X17717Y72500D02*
X21654D01*
X19685Y70531D02*
Y74468D01*
X17717Y42500D02*
X21654D01*
X19685Y40532D02*
Y44469D01*
X17717Y117500D02*
X21654D01*
X19685Y115532D02*
Y119468D01*
X17717Y87500D02*
X21654D01*
X19685Y85532D02*
Y89468D01*
X17717Y57500D02*
X21654D01*
X19685Y55532D02*
Y59469D01*
X17717Y201161D02*
X21654D01*
X19685Y199193D02*
Y203130D01*
X17717Y216161D02*
X21654D01*
X19685Y214193D02*
Y218130D01*
X17717Y280650D02*
X21654D01*
X19685Y278681D02*
Y282618D01*
X17717Y325650D02*
X21654D01*
X19685Y323681D02*
Y327618D01*
X17717Y340650D02*
X21654D01*
X19685Y338681D02*
Y342618D01*
X17717Y310650D02*
X21654D01*
X19685Y308681D02*
Y312618D01*
X17717Y265650D02*
X21654D01*
X19685Y263681D02*
Y267618D01*
X17717Y235650D02*
X21654D01*
X19685Y233681D02*
Y237618D01*
X17717Y370650D02*
X21654D01*
X19685Y368681D02*
Y372618D01*
X17717Y355650D02*
X21654D01*
X19685Y353681D02*
Y357618D01*
X17717Y250650D02*
X21654D01*
X19685Y248681D02*
Y252618D01*
X17717Y295650D02*
X21654D01*
X19685Y293681D02*
Y297618D01*
X17717Y404941D02*
X21654D01*
X19685Y402973D02*
Y406910D01*
X17717Y434941D02*
X21654D01*
X19685Y432972D02*
Y436909D01*
X17717Y464941D02*
X21654D01*
X19685Y462972D02*
Y466910D01*
X17717Y479941D02*
X21654D01*
X19685Y477973D02*
Y481910D01*
X17717Y509941D02*
X21654D01*
X19685Y507972D02*
Y511909D01*
X17717Y539941D02*
X21654D01*
X19685Y537972D02*
Y541910D01*
X17717Y554941D02*
X21654D01*
X19685Y552973D02*
Y556910D01*
X17717Y524941D02*
X21654D01*
X19685Y522972D02*
Y526909D01*
X17717Y494941D02*
X21654D01*
X19685Y492973D02*
Y496910D01*
X17717Y449941D02*
X21654D01*
X19685Y447972D02*
Y451909D01*
X17717Y419941D02*
X21654D01*
X19685Y417973D02*
Y421910D01*
X17717Y389941D02*
X21654D01*
X19685Y387972D02*
Y391910D01*
X151228Y544500D02*
X154772D01*
X153000Y542728D02*
Y546272D01*
X171228Y544500D02*
X174772D01*
X173000Y542728D02*
Y546272D01*
X242441Y92500D02*
X247559D01*
X245000Y89941D02*
Y95059D01*
X242441Y142500D02*
X247559D01*
X245000Y139941D02*
Y145059D01*
X242441Y162185D02*
X247559D01*
X245000Y159626D02*
Y164744D01*
X242441Y52342D02*
X247559D01*
X245000Y49783D02*
Y54901D01*
X217941Y380658D02*
X223059D01*
X220500Y378099D02*
Y383217D01*
X167441Y378500D02*
X172559D01*
X170000Y375941D02*
Y381059D01*
X229425Y448500D02*
X232575D01*
X231000Y446925D02*
Y450075D01*
X229425Y455587D02*
X232575D01*
X231000Y454012D02*
Y457161D01*
X229425Y462673D02*
X232575D01*
X231000Y461098D02*
Y464248D01*
X207925Y448500D02*
X211075D01*
X209500Y446925D02*
Y450075D01*
X207925Y455587D02*
X211075D01*
X209500Y454012D02*
Y457161D01*
X207925Y462673D02*
X211075D01*
X209500Y461098D02*
Y464248D01*
X250925Y448500D02*
X254075D01*
X252500Y446925D02*
Y450075D01*
X250925Y455587D02*
X254075D01*
X252500Y454012D02*
Y457161D01*
X250925Y462673D02*
X254075D01*
X252500Y461098D02*
Y464248D01*
X319126Y44500D02*
X334874D01*
X327000Y36626D02*
Y52374D01*
X319126Y195000D02*
X334874D01*
X327000Y187126D02*
Y202874D01*
X468626Y44500D02*
X484374D01*
X476500Y36626D02*
Y52374D01*
X468626Y195000D02*
X484374D01*
X476500Y187126D02*
Y202874D01*
X191607Y142500D02*
X196726D01*
X194167Y139941D02*
Y145059D01*
X191607Y52343D02*
X196726D01*
X194167Y49784D02*
Y54902D01*
X191607Y92500D02*
X196726D01*
X194167Y89941D02*
Y95059D01*
X191607Y162185D02*
X196726D01*
X194167Y159626D02*
Y164744D01*
X217941Y330658D02*
X223059D01*
X220500Y328099D02*
Y333217D01*
X217941Y400343D02*
X223059D01*
X220500Y397783D02*
Y402902D01*
X217941Y290500D02*
X223059D01*
X220500Y287941D02*
Y293059D01*
X140774Y92500D02*
X145892D01*
X143333Y89941D02*
Y95059D01*
X140774Y142500D02*
X145892D01*
X143333Y139941D02*
Y145059D01*
X140774Y52343D02*
X145892D01*
X143333Y49784D02*
Y54902D01*
X140774Y162185D02*
X145892D01*
X143333Y159626D02*
Y164744D01*
X570522Y13779D02*
X583022D01*
X576772Y7529D02*
Y20029D01*
X89941Y162185D02*
X95059D01*
X92500Y159626D02*
Y164744D01*
X89941Y92500D02*
X95059D01*
X92500Y89941D02*
Y95059D01*
X89941Y52343D02*
X95059D01*
X92500Y49784D02*
Y54902D01*
X89941Y142500D02*
X95059D01*
X92500Y139941D02*
Y145059D01*
X265425Y431587D02*
X268575D01*
X267000Y430012D02*
Y433161D01*
X265425Y424500D02*
X268575D01*
X267000Y422925D02*
Y426075D01*
X265425Y417413D02*
X268575D01*
X267000Y415839D02*
Y418988D01*
X137925Y413673D02*
X141075D01*
X139500Y412098D02*
Y415248D01*
X137925Y406587D02*
X141075D01*
X139500Y405012D02*
Y408161D01*
X137925Y399500D02*
X141075D01*
X139500Y397925D02*
Y401075D01*
X167441Y328500D02*
X172559D01*
X170000Y325941D02*
Y331059D01*
X167441Y398185D02*
X172559D01*
X170000Y395626D02*
Y400744D01*
X167441Y288342D02*
X172559D01*
X170000Y285783D02*
Y290901D01*
X570522Y576772D02*
X583022D01*
X576772Y570522D02*
Y583022D01*
X7529Y576772D02*
X20029D01*
X13779Y570522D02*
Y583022D01*
X7529Y13779D02*
X20029D01*
X13779Y7529D02*
Y20029D01*
X248012Y523000D02*
X251161D01*
X249587Y521425D02*
Y524575D01*
X240925Y523000D02*
X244075D01*
X242500Y521425D02*
Y524575D01*
X255098Y523000D02*
X258248D01*
X256673Y521425D02*
Y524575D01*
X78335Y473500D02*
X82665D01*
X80500Y471335D02*
Y475665D01*
X58650Y473500D02*
X62980D01*
X60815Y471335D02*
Y475665D01*
X227100Y570000D02*
X229900D01*
X228500Y568600D02*
Y571400D01*
X150100Y446500D02*
X152900D01*
X151500Y445100D02*
Y447900D01*
X63600Y111500D02*
X66400D01*
X65000Y110100D02*
Y112900D01*
X222600Y500500D02*
X225400D01*
X224000Y499100D02*
Y501900D01*
X54600Y91000D02*
X57400D01*
X56000Y89600D02*
Y92400D01*
X111600Y441500D02*
X114400D01*
X113000Y440100D02*
Y442900D01*
X26854Y223739D02*
X30854D01*
X28854Y221739D02*
Y225739D01*
X63100Y225500D02*
X65900D01*
X64500Y224100D02*
Y226900D01*
X97100Y229931D02*
X99900D01*
X98500Y228531D02*
Y231331D01*
X69350Y195500D02*
X72150D01*
X70750Y194100D02*
Y196900D01*
X6600Y126000D02*
X9400D01*
X8000Y124600D02*
Y127400D01*
X7100Y110500D02*
X9900D01*
X8500Y109100D02*
Y111900D01*
X256100Y230001D02*
X258900D01*
X257500Y228601D02*
Y231401D01*
X49810Y146530D02*
X52610D01*
X51210Y145130D02*
Y147930D01*
X150100Y229931D02*
X152900D01*
X151500Y228531D02*
Y231331D01*
X83100Y198316D02*
X85900D01*
X84500Y196916D02*
Y199716D01*
X32100Y523500D02*
X34900D01*
X33500Y522100D02*
Y524900D01*
X46222Y556000D02*
X49022D01*
X47622Y554600D02*
Y557400D01*
X45000Y522000D02*
X50000D01*
X47500Y519500D02*
Y524500D01*
X253600Y507500D02*
X256400D01*
X255000Y506100D02*
Y508900D01*
X94500Y524000D02*
X99500D01*
X97000Y521500D02*
Y526500D01*
X184600Y495500D02*
X187400D01*
X186000Y494100D02*
Y496900D01*
X46600Y356700D02*
X49400D01*
X48000Y355300D02*
Y358100D01*
X60651Y340650D02*
X63451D01*
X62051Y339250D02*
Y342050D01*
X168000Y471000D02*
X170800D01*
X169400Y469600D02*
Y472400D01*
X181500Y361000D02*
X184300D01*
X182900Y359600D02*
Y362400D01*
X73200Y258700D02*
X76000D01*
X74600Y257300D02*
Y260100D01*
X67300Y93033D02*
X70100D01*
X68700Y91633D02*
Y94433D01*
X67700Y450600D02*
X70500D01*
X69100Y449200D02*
Y452000D01*
X259600Y126900D02*
X262400D01*
X261000Y125500D02*
Y128300D01*
X103200Y397600D02*
X106000D01*
X104600Y396200D02*
Y399000D01*
X164600Y223200D02*
X167400D01*
X166000Y221800D02*
Y224600D01*
X207900Y114100D02*
X210700D01*
X209300Y112700D02*
Y115500D01*
X220400Y168100D02*
X223200D01*
X221800Y166700D02*
Y169500D01*
X205100Y43700D02*
X207900D01*
X206500Y42300D02*
Y45100D01*
X252600Y544400D02*
X255400D01*
X254000Y543000D02*
Y545800D01*
X50000Y62833D02*
X52800D01*
X51400Y61433D02*
Y64233D01*
X131700Y450525D02*
X134500D01*
X133100Y449125D02*
Y451925D01*
X203100Y230001D02*
X205900D01*
X204500Y228601D02*
Y231401D01*
X92000Y315100D02*
X94800D01*
X93400Y313700D02*
Y316500D01*
X145600Y344100D02*
X148400D01*
X147000Y342700D02*
Y345500D01*
X124225Y440300D02*
X127025D01*
X125625Y438900D02*
Y441700D01*
X205500Y479500D02*
X208300D01*
X206900Y478100D02*
Y480900D01*
X51600Y122500D02*
X54400D01*
X53000Y121100D02*
Y123900D01*
X160475Y443500D02*
X163275D01*
X161875Y442100D02*
Y444900D01*
X142350Y463500D02*
X145150D01*
X143750Y462100D02*
Y464900D01*
X178600Y443500D02*
X181400D01*
X180000Y442100D02*
Y444900D01*
X148100Y480500D02*
X150900D01*
X149500Y479100D02*
Y481900D01*
X167600Y480500D02*
X170400D01*
X169000Y479100D02*
Y481900D01*
X135931Y502000D02*
X138731D01*
X137331Y500600D02*
Y503400D01*
X69793Y524299D02*
X72593D01*
X71193Y522899D02*
Y525699D01*
X190100Y481000D02*
X192900D01*
X191500Y479600D02*
Y482400D01*
X230600Y479500D02*
X233400D01*
X232000Y478100D02*
Y480900D01*
X195545Y527571D02*
X198345D01*
X196945Y526171D02*
Y528971D01*
X148100Y500500D02*
X150900D01*
X149500Y499100D02*
Y501900D01*
M02*
