G04*
G04 #@! TF.GenerationSoftware,Altium Limited,Altium Designer,22.3.1 (43)*
G04*
G04 Layer_Color=32768*
%FSLAX25Y25*%
%MOIN*%
G70*
G04*
G04 #@! TF.SameCoordinates,EF3FA71F-0FF1-4D3B-8963-7E32679EFE31*
G04*
G04*
G04 #@! TF.FilePolarity,Positive*
G04*
G01*
G75*
%ADD18C,0.00394*%
%ADD109C,0.00197*%
D18*
X190843Y510732D02*
X221157D01*
X190843Y548527D02*
X221157D01*
X190843Y510732D02*
Y548527D01*
X221157Y510732D02*
Y548527D01*
X206000Y527661D02*
Y531598D01*
X204032Y529630D02*
X207969D01*
X181953Y42985D02*
Y220937D01*
X238252D01*
Y42985D02*
Y220937D01*
X181953Y42985D02*
X238252D01*
X263500Y40500D02*
Y72500D01*
X242500Y40500D02*
Y72500D01*
X263500D01*
X242500Y40500D02*
X263500D01*
X124953Y42985D02*
Y220937D01*
X181252D01*
Y42985D02*
Y220937D01*
X124953Y42985D02*
X181252D01*
X159453Y252984D02*
Y430937D01*
X215752D01*
Y252984D02*
Y430937D01*
X159453Y252984D02*
X215752D01*
X67953Y42985D02*
Y220937D01*
X124252D01*
Y42985D02*
Y220937D01*
X67953Y42985D02*
X124252D01*
X10953D02*
X67252D01*
Y220937D01*
X10953D02*
X67252D01*
X10953Y42985D02*
Y220937D01*
X224397Y234961D02*
Y247559D01*
X207397Y234961D02*
Y247559D01*
Y234961D02*
X224397D01*
X207397Y247559D02*
X224397D01*
X100453Y254485D02*
Y432437D01*
X156752D01*
Y254485D02*
Y432437D01*
X100453Y254485D02*
X156752D01*
X147431Y247559D02*
X164431D01*
X147431Y234960D02*
X164431D01*
X147431D02*
Y247559D01*
X164431Y234960D02*
Y247559D01*
X87466Y247559D02*
X104466D01*
X87466Y234961D02*
X104466D01*
X87466D02*
Y247559D01*
X104466Y234961D02*
Y247559D01*
X27500Y247559D02*
X44500D01*
X27500Y234960D02*
X44500D01*
X27500D02*
Y247559D01*
X44500Y234960D02*
Y247559D01*
D109*
X268378Y537000D02*
X268056Y537886D01*
X267239Y538357D01*
X266311Y538193D01*
X265705Y537471D01*
Y536529D01*
X266311Y535807D01*
X267239Y535643D01*
X268056Y536114D01*
X268378Y537000D01*
X229878Y539500D02*
X229556Y540386D01*
X228739Y540857D01*
X227811Y540693D01*
X227205Y539971D01*
Y539029D01*
X227811Y538307D01*
X228739Y538143D01*
X229556Y538614D01*
X229878Y539500D01*
X160378Y527500D02*
X160056Y528386D01*
X159239Y528857D01*
X158311Y528693D01*
X157705Y527971D01*
Y527029D01*
X158311Y526307D01*
X159239Y526143D01*
X160056Y526614D01*
X160378Y527500D01*
X259378Y134000D02*
X259056Y134886D01*
X258239Y135357D01*
X257311Y135193D01*
X256705Y134471D01*
Y133529D01*
X257311Y132807D01*
X258239Y132643D01*
X259056Y133114D01*
X259378Y134000D01*
X254378Y56500D02*
X254056Y57386D01*
X253239Y57857D01*
X252311Y57693D01*
X251705Y56971D01*
Y56029D01*
X252311Y55307D01*
X253239Y55143D01*
X254056Y55614D01*
X254378Y56500D01*
X139128Y453500D02*
X138806Y454386D01*
X137990Y454857D01*
X137061Y454693D01*
X136456Y453971D01*
Y453029D01*
X137061Y452307D01*
X137990Y452143D01*
X138806Y452614D01*
X139128Y453500D01*
X175378Y453500D02*
X175056Y454386D01*
X174239Y454857D01*
X173311Y454693D01*
X172705Y453971D01*
Y453029D01*
X173311Y452307D01*
X174239Y452143D01*
X175056Y452614D01*
X175378Y453500D01*
X157253Y453500D02*
X156931Y454386D01*
X156114Y454857D01*
X155186Y454693D01*
X154580Y453971D01*
Y453029D01*
X155186Y452307D01*
X156114Y452143D01*
X156931Y452614D01*
X157253Y453500D01*
X116378Y18000D02*
X116056Y18886D01*
X115239Y19357D01*
X114311Y19193D01*
X113705Y18471D01*
Y17529D01*
X114311Y16807D01*
X115239Y16643D01*
X116056Y17114D01*
X116378Y18000D01*
X102878Y453500D02*
X102556Y454386D01*
X101739Y454857D01*
X100811Y454693D01*
X100205Y453971D01*
Y453029D01*
X100811Y452307D01*
X101739Y452143D01*
X102556Y452614D01*
X102878Y453500D01*
X217275Y241260D02*
X216953Y242145D01*
X216137Y242617D01*
X215208Y242453D01*
X214602Y241731D01*
Y240788D01*
X215208Y240066D01*
X216137Y239903D01*
X216953Y240374D01*
X217275Y241260D01*
X185878Y488000D02*
X185556Y488886D01*
X184739Y489357D01*
X183811Y489193D01*
X183205Y488471D01*
Y487529D01*
X183811Y486807D01*
X184739Y486643D01*
X185556Y487114D01*
X185878Y488000D01*
X121003Y453500D02*
X120681Y454386D01*
X119864Y454857D01*
X118936Y454693D01*
X118330Y453971D01*
Y453029D01*
X118936Y452307D01*
X119864Y452143D01*
X120681Y452614D01*
X121003Y453500D01*
X25378Y343000D02*
X25056Y343886D01*
X24239Y344357D01*
X23311Y344193D01*
X22705Y343471D01*
Y342529D01*
X23311Y341807D01*
X24239Y341643D01*
X25056Y342114D01*
X25378Y343000D01*
X254378Y18500D02*
X254056Y19386D01*
X253239Y19857D01*
X252311Y19693D01*
X251705Y18971D01*
Y18029D01*
X252311Y17307D01*
X253239Y17143D01*
X254056Y17614D01*
X254378Y18500D01*
X157309Y241260D02*
X156987Y242145D01*
X156171Y242617D01*
X155243Y242453D01*
X154637Y241731D01*
Y240788D01*
X155243Y240066D01*
X156171Y239903D01*
X156987Y240374D01*
X157309Y241260D01*
X97344D02*
X97021Y242145D01*
X96205Y242617D01*
X95277Y242453D01*
X94671Y241731D01*
Y240788D01*
X95277Y240066D01*
X96205Y239903D01*
X97021Y240374D01*
X97344Y241260D01*
X37378D02*
X37056Y242145D01*
X36239Y242617D01*
X35311Y242453D01*
X34705Y241731D01*
Y240788D01*
X35311Y240066D01*
X36239Y239903D01*
X37056Y240374D01*
X37378Y241260D01*
X180878Y567500D02*
X180556Y568386D01*
X179739Y568857D01*
X178811Y568693D01*
X178205Y567971D01*
Y567029D01*
X178811Y566307D01*
X179739Y566143D01*
X180556Y566614D01*
X180878Y567500D01*
X258878Y100000D02*
X258556Y100886D01*
X257739Y101357D01*
X256811Y101193D01*
X256205Y100471D01*
Y99529D01*
X256811Y98807D01*
X257739Y98643D01*
X258556Y99114D01*
X258878Y100000D01*
X259878Y167000D02*
X259556Y167886D01*
X258739Y168357D01*
X257811Y168193D01*
X257205Y167471D01*
Y166529D01*
X257811Y165807D01*
X258739Y165643D01*
X259556Y166114D01*
X259878Y167000D01*
Y197000D02*
X259556Y197886D01*
X258739Y198357D01*
X257811Y198193D01*
X257205Y197471D01*
Y196529D01*
X257811Y195807D01*
X258739Y195643D01*
X259556Y196114D01*
X259878Y197000D01*
Y227000D02*
X259556Y227886D01*
X258739Y228357D01*
X257811Y228193D01*
X257205Y227471D01*
Y226529D01*
X257811Y225807D01*
X258739Y225643D01*
X259556Y226114D01*
X259878Y227000D01*
X243378Y488000D02*
X243056Y488886D01*
X242239Y489357D01*
X241311Y489193D01*
X240705Y488471D01*
Y487529D01*
X241311Y486807D01*
X242239Y486643D01*
X243056Y487114D01*
X243378Y488000D01*
X224878D02*
X224556Y488886D01*
X223739Y489357D01*
X222811Y489193D01*
X222205Y488471D01*
Y487529D01*
X222811Y486807D01*
X223739Y486643D01*
X224556Y487114D01*
X224878Y488000D01*
X202378D02*
X202056Y488886D01*
X201239Y489357D01*
X200311Y489193D01*
X199705Y488471D01*
Y487529D01*
X200311Y486807D01*
X201239Y486643D01*
X202056Y487114D01*
X202378Y488000D01*
X59378Y472000D02*
X59056Y472886D01*
X58239Y473357D01*
X57311Y473193D01*
X56705Y472471D01*
Y471529D01*
X57311Y470807D01*
X58239Y470643D01*
X59056Y471114D01*
X59378Y472000D01*
X96878Y488000D02*
X96556Y488886D01*
X95739Y489357D01*
X94811Y489193D01*
X94205Y488471D01*
Y487529D01*
X94811Y486807D01*
X95739Y486643D01*
X96556Y487114D01*
X96878Y488000D01*
X267000Y535032D02*
Y538969D01*
X265031Y537000D02*
X268968D01*
X228500Y537532D02*
Y541469D01*
X226531Y539500D02*
X230468D01*
X159000Y525532D02*
Y529469D01*
X157031Y527500D02*
X160968D01*
X256031Y134000D02*
X259968D01*
X258000Y132031D02*
Y135968D01*
X251032Y56500D02*
X254969D01*
X253000Y54532D02*
Y58469D01*
X135782Y453500D02*
X139719D01*
X137750Y451531D02*
Y455468D01*
X172032Y453500D02*
X175969D01*
X174000Y451532D02*
Y455469D01*
X153907Y453500D02*
X157844D01*
X155875Y451532D02*
Y455469D01*
X113032Y18000D02*
X116969D01*
X115000Y16032D02*
Y19969D01*
X99532Y453500D02*
X103469D01*
X101500Y451532D02*
Y455469D01*
X215897Y239291D02*
Y243228D01*
X213929Y241260D02*
X217866D01*
X184500Y486032D02*
Y489969D01*
X182532Y488000D02*
X186469D01*
X119625Y451532D02*
Y455469D01*
X117657Y453500D02*
X121594D01*
X190764Y4189D02*
Y27024D01*
Y4189D02*
X230528D01*
Y27024D01*
X190764D02*
X230528D01*
X24000Y341032D02*
Y344969D01*
X22032Y343000D02*
X25969D01*
X251032Y18500D02*
X254969D01*
X253000Y16531D02*
Y20468D01*
X153963Y241260D02*
X157900D01*
X155931Y239291D02*
Y243228D01*
X93997Y241260D02*
X97934D01*
X95966Y239291D02*
Y243228D01*
X34032Y241260D02*
X37969D01*
X36000Y239291D02*
Y243228D01*
X179500Y565532D02*
Y569469D01*
X177532Y567500D02*
X181469D01*
X257500Y98031D02*
Y101968D01*
X255531Y100000D02*
X259468D01*
X256532Y167000D02*
X260469D01*
X258500Y165032D02*
Y168969D01*
X256532Y197000D02*
X260469D01*
X258500Y195032D02*
Y198969D01*
X256532Y227000D02*
X260469D01*
X258500Y225032D02*
Y228969D01*
X240032Y488000D02*
X243969D01*
X242000Y486032D02*
Y489969D01*
X221532Y488000D02*
X225469D01*
X223500Y486032D02*
Y489969D01*
X199032Y488000D02*
X202969D01*
X201000Y486032D02*
Y489969D01*
X56031Y472000D02*
X59968D01*
X58000Y470032D02*
Y473969D01*
X93532Y488000D02*
X97469D01*
X95500Y486032D02*
Y489969D01*
M02*
