G04*
G04 #@! TF.GenerationSoftware,Altium Limited,Altium Designer,22.3.1 (43)*
G04*
G04 Layer_Color=255*
%FSLAX25Y25*%
%MOIN*%
G70*
G04*
G04 #@! TF.SameCoordinates,ABD3340E-3DDB-4FBE-A437-06F7E2321E34*
G04*
G04*
G04 #@! TF.FilePolarity,Positive*
G04*
G01*
G75*
%ADD20R,0.05000X0.05000*%
%ADD21R,0.04134X0.12598*%
%ADD22R,0.41142X0.39370*%
%ADD23O,0.02362X0.08268*%
%ADD24R,0.02362X0.08268*%
%ADD25R,0.12992X0.10630*%
%ADD26R,0.03937X0.10630*%
%ADD27R,0.05512X0.02362*%
%ADD28R,0.07874X0.07874*%
G04:AMPARAMS|DCode=29|XSize=55mil|YSize=50mil|CornerRadius=0mil|HoleSize=0mil|Usage=FLASHONLY|Rotation=180.000|XOffset=0mil|YOffset=0mil|HoleType=Round|Shape=Octagon|*
%AMOCTAGOND29*
4,1,8,-0.02750,0.01250,-0.02750,-0.01250,-0.01500,-0.02500,0.01500,-0.02500,0.02750,-0.01250,0.02750,0.01250,0.01500,0.02500,-0.01500,0.02500,-0.02750,0.01250,0.0*
%
%ADD29OCTAGOND29*%

%ADD30R,0.05500X0.05000*%
%ADD31R,0.09449X0.12992*%
%ADD64R,0.07480X0.07480*%
%ADD65C,0.07480*%
%ADD66O,0.07874X0.04724*%
%ADD67R,0.07874X0.04724*%
%ADD68C,0.07087*%
%ADD69R,0.07087X0.07087*%
%ADD70C,0.07677*%
%ADD71C,0.06299*%
%ADD72R,0.06299X0.06299*%
%ADD73O,0.11811X0.08661*%
%ADD74C,0.20000*%
%ADD75O,0.04724X0.07874*%
%ADD76R,0.04724X0.07874*%
%ADD77O,0.08661X0.11811*%
%ADD78R,0.07874X0.07874*%
%ADD79C,0.07874*%
D20*
X184500Y483500D02*
D03*
Y492500D02*
D03*
X290032Y149875D02*
D03*
Y158875D02*
D03*
Y468375D02*
D03*
Y477375D02*
D03*
Y309125D02*
D03*
Y318125D02*
D03*
Y388750D02*
D03*
Y397750D02*
D03*
Y229500D02*
D03*
Y238500D02*
D03*
X486500Y70000D02*
D03*
Y61000D02*
D03*
X261000Y522500D02*
D03*
Y531500D02*
D03*
X313500Y521000D02*
D03*
Y530000D02*
D03*
X486500Y30000D02*
D03*
Y21000D02*
D03*
X536500Y29500D02*
D03*
Y20500D02*
D03*
X549500Y29500D02*
D03*
Y20500D02*
D03*
X257000Y492500D02*
D03*
Y483500D02*
D03*
X238500Y492500D02*
D03*
Y483500D02*
D03*
X201000Y492500D02*
D03*
Y483500D02*
D03*
X95500D02*
D03*
Y492500D02*
D03*
D21*
X46807Y519500D02*
D03*
X60193D02*
D03*
X53500D02*
D03*
X66886D02*
D03*
X40114D02*
D03*
D22*
X53500Y560500D02*
D03*
D23*
X513000Y55173D02*
D03*
X523000Y76827D02*
D03*
X518000D02*
D03*
X513000D02*
D03*
X528000Y55173D02*
D03*
X523000D02*
D03*
X518000D02*
D03*
D24*
X528000Y76827D02*
D03*
D25*
X206000Y541244D02*
D03*
D26*
Y518016D02*
D03*
X215055D02*
D03*
X196945D02*
D03*
D27*
X217000Y234520D02*
D03*
Y242000D02*
D03*
X207103Y238260D02*
D03*
X145000Y234520D02*
D03*
Y242000D02*
D03*
X135103Y238260D02*
D03*
X73000Y234520D02*
D03*
Y242000D02*
D03*
X63103Y238260D02*
D03*
D28*
X96000Y527801D02*
D03*
X126000D02*
D03*
X67842Y472000D02*
D03*
D29*
X506750Y25500D02*
D03*
D30*
X520250D02*
D03*
D31*
X123638Y487984D02*
D03*
X151000D02*
D03*
D64*
X169000Y527500D02*
D03*
D65*
X149000D02*
D03*
D66*
X345500Y492587D02*
D03*
Y485500D02*
D03*
Y406837D02*
D03*
Y399750D02*
D03*
Y321087D02*
D03*
Y314000D02*
D03*
Y235337D02*
D03*
Y228250D02*
D03*
Y149587D02*
D03*
Y142500D02*
D03*
D67*
Y478413D02*
D03*
Y392663D02*
D03*
Y306913D02*
D03*
Y221163D02*
D03*
Y135413D02*
D03*
D68*
X468000Y55000D02*
D03*
Y65000D02*
D03*
D69*
Y75000D02*
D03*
D70*
X462500Y481000D02*
D03*
X412500D02*
D03*
X392815D02*
D03*
X502657D02*
D03*
X462500Y393875D02*
D03*
X412500D02*
D03*
X392815D02*
D03*
X502657D02*
D03*
X462500Y306750D02*
D03*
X412500D02*
D03*
X392815D02*
D03*
X502657D02*
D03*
X462500Y219625D02*
D03*
X412500D02*
D03*
X392815D02*
D03*
X502657D02*
D03*
X462500Y132500D02*
D03*
X412500D02*
D03*
X392815D02*
D03*
X502657D02*
D03*
X197000Y168000D02*
D03*
Y77843D02*
D03*
Y118000D02*
D03*
Y187685D02*
D03*
X124000Y118000D02*
D03*
Y168000D02*
D03*
Y77843D02*
D03*
Y187685D02*
D03*
X51000Y168000D02*
D03*
Y77843D02*
D03*
Y118000D02*
D03*
Y187685D02*
D03*
D71*
X149500Y343000D02*
D03*
X139500Y323000D02*
D03*
X149500Y363000D02*
D03*
Y323000D02*
D03*
X139500Y343000D02*
D03*
X149500Y353000D02*
D03*
X139500D02*
D03*
Y333000D02*
D03*
X149500D02*
D03*
D72*
X139500Y363000D02*
D03*
D73*
X24000Y335500D02*
D03*
Y290500D02*
D03*
Y395500D02*
D03*
Y410500D02*
D03*
Y275500D02*
D03*
Y305500D02*
D03*
Y350500D02*
D03*
Y380500D02*
D03*
Y365500D02*
D03*
Y320500D02*
D03*
X571000Y53000D02*
D03*
Y68000D02*
D03*
Y360500D02*
D03*
Y330500D02*
D03*
Y315500D02*
D03*
Y285500D02*
D03*
Y255500D02*
D03*
Y240500D02*
D03*
Y270500D02*
D03*
Y300500D02*
D03*
Y345500D02*
D03*
Y375500D02*
D03*
D74*
X570866Y570866D02*
D03*
X19685D02*
D03*
X570866Y19685D02*
D03*
X19685D02*
D03*
D75*
X291413Y526500D02*
D03*
X284327D02*
D03*
D76*
X298500D02*
D03*
D77*
X289500Y567500D02*
D03*
X319500D02*
D03*
X349500D02*
D03*
X394500D02*
D03*
X424500D02*
D03*
X454500D02*
D03*
X439500D02*
D03*
X409500D02*
D03*
X379500D02*
D03*
X364500D02*
D03*
X334500D02*
D03*
X304500D02*
D03*
D78*
X463224Y524000D02*
D03*
X464724Y444500D02*
D03*
X467224Y359000D02*
D03*
X466724Y268000D02*
D03*
X465224Y175500D02*
D03*
D79*
X503776Y524000D02*
D03*
X505276Y444500D02*
D03*
X507776Y359000D02*
D03*
X507276Y268000D02*
D03*
X505776Y175500D02*
D03*
X48157Y472000D02*
D03*
M02*
