G04*
G04 #@! TF.GenerationSoftware,Altium Limited,Altium Designer,22.3.1 (43)*
G04*
G04 Layer_Color=2752767*
%FSLAX25Y25*%
%MOIN*%
G70*
G04*
G04 #@! TF.SameCoordinates,EF3FA71F-0FF1-4D3B-8963-7E32679EFE31*
G04*
G04*
G04 #@! TF.FilePolarity,Positive*
G04*
G01*
G75*
%ADD110C,0.00200*%
%ADD111C,0.00267*%
D110*
X148200Y526700D02*
Y528300D01*
X149800D01*
Y526700D01*
X148200D01*
X168200D02*
Y528300D01*
X169800D01*
Y526700D01*
X168200D01*
X167500Y17200D02*
X166700Y18800D01*
X168300D01*
X167500Y17200D01*
X137500D02*
X136700Y18800D01*
X138300D01*
X137500Y17200D01*
X107500D02*
X106700Y18800D01*
X108300D01*
X107500Y17200D01*
X97000Y566700D02*
X96200Y568300D01*
X97800D01*
X97000Y566700D01*
X327000Y407200D02*
X327400Y407600D01*
X327800D01*
X327400Y408000D01*
X327800Y408400D01*
X327400D01*
X327000Y408800D01*
X326600Y408400D01*
X326200D01*
X326600Y408000D01*
X326200Y407600D01*
X326600D01*
X327000Y407200D01*
Y557700D02*
X327400Y558100D01*
X327800D01*
X327400Y558500D01*
X327800Y558900D01*
X327400D01*
X327000Y559300D01*
X326600Y558900D01*
X326200D01*
X326600Y558500D01*
X326200Y558100D01*
X326600D01*
X327000Y557700D01*
X476500Y407200D02*
X476900Y407600D01*
X477300D01*
X476900Y408000D01*
X477300Y408400D01*
X476900D01*
X476500Y408800D01*
X476100Y408400D01*
X475700D01*
X476100Y408000D01*
X475700Y407600D01*
X476100D01*
X476500Y407200D01*
Y557700D02*
X476900Y558100D01*
X477300D01*
X476900Y558500D01*
X477300Y558900D01*
X476900D01*
X476500Y559300D01*
X476100Y558900D01*
X475700D01*
X476100Y558500D01*
X475700Y558100D01*
X476100D01*
X476500Y557700D01*
X230200Y447700D02*
X230600Y448500D01*
X230200Y449300D01*
X231000Y448900D01*
X231800Y449300D01*
X231400Y448500D01*
X231800Y447700D01*
X231000Y448100D01*
X230200Y447700D01*
Y454787D02*
X230600Y455587D01*
X230200Y456387D01*
X231000Y455987D01*
X231800Y456387D01*
X231400Y455587D01*
X231800Y454787D01*
X231000Y455187D01*
X230200Y454787D01*
Y461873D02*
X230600Y462673D01*
X230200Y463473D01*
X231000Y463073D01*
X231800Y463473D01*
X231400Y462673D01*
X231800Y461873D01*
X231000Y462273D01*
X230200Y461873D01*
X208700Y447700D02*
X209100Y448500D01*
X208700Y449300D01*
X209500Y448900D01*
X210300Y449300D01*
X209900Y448500D01*
X210300Y447700D01*
X209500Y448100D01*
X208700Y447700D01*
Y454787D02*
X209100Y455587D01*
X208700Y456387D01*
X209500Y455987D01*
X210300Y456387D01*
X209900Y455587D01*
X210300Y454787D01*
X209500Y455187D01*
X208700Y454787D01*
Y461873D02*
X209100Y462673D01*
X208700Y463473D01*
X209500Y463073D01*
X210300Y463473D01*
X209900Y462673D01*
X210300Y461873D01*
X209500Y462273D01*
X208700Y461873D01*
X327000Y225450D02*
X327400Y225850D01*
X327800D01*
X327400Y226250D01*
X327800Y226650D01*
X327400D01*
X327000Y227050D01*
X326600Y226650D01*
X326200D01*
X326600Y226250D01*
X326200Y225850D01*
X326600D01*
X327000Y225450D01*
Y375950D02*
X327400Y376350D01*
X327800D01*
X327400Y376750D01*
X327800Y377150D01*
X327400D01*
X327000Y377550D01*
X326600Y377150D01*
X326200D01*
X326600Y376750D01*
X326200Y376350D01*
X326600D01*
X327000Y375950D01*
X476500Y225450D02*
X476900Y225850D01*
X477300D01*
X476900Y226250D01*
X477300Y226650D01*
X476900D01*
X476500Y227050D01*
X476100Y226650D01*
X475700D01*
X476100Y226250D01*
X475700Y225850D01*
X476100D01*
X476500Y225450D01*
Y375950D02*
X476900Y376350D01*
X477300D01*
X476900Y376750D01*
X477300Y377150D01*
X476900D01*
X476500Y377550D01*
X476100Y377150D01*
X475700D01*
X476100Y376750D01*
X475700Y376350D01*
X476100D01*
X476500Y375950D01*
X251700Y447700D02*
X252100Y448500D01*
X251700Y449300D01*
X252500Y448900D01*
X253300Y449300D01*
X252900Y448500D01*
X253300Y447700D01*
X252500Y448100D01*
X251700Y447700D01*
Y454787D02*
X252100Y455587D01*
X251700Y456387D01*
X252500Y455987D01*
X253300Y456387D01*
X252900Y455587D01*
X253300Y454787D01*
X252500Y455187D01*
X251700Y454787D01*
Y461873D02*
X252100Y462673D01*
X251700Y463473D01*
X252500Y463073D01*
X253300Y463473D01*
X252900Y462673D01*
X253300Y461873D01*
X252500Y462273D01*
X251700Y461873D01*
X327000Y43700D02*
X327400Y44100D01*
X327800D01*
X327400Y44500D01*
X327800Y44900D01*
X327400D01*
X327000Y45300D01*
X326600Y44900D01*
X326200D01*
X326600Y44500D01*
X326200Y44100D01*
X326600D01*
X327000Y43700D01*
Y194200D02*
X327400Y194600D01*
X327800D01*
X327400Y195000D01*
X327800Y195400D01*
X327400D01*
X327000Y195800D01*
X326600Y195400D01*
X326200D01*
X326600Y195000D01*
X326200Y194600D01*
X326600D01*
X327000Y194200D01*
X476500Y43700D02*
X476900Y44100D01*
X477300D01*
X476900Y44500D01*
X477300Y44900D01*
X476900D01*
X476500Y45300D01*
X476100Y44900D01*
X475700D01*
X476100Y44500D01*
X475700Y44100D01*
X476100D01*
X476500Y43700D01*
Y194200D02*
X476900Y194600D01*
X477300D01*
X476900Y195000D01*
X477300Y195400D01*
X476900D01*
X476500Y195800D01*
X476100Y195400D01*
X475700D01*
X476100Y195000D01*
X475700Y194600D01*
X476100D01*
X476500Y194200D01*
X182500Y17200D02*
X181700Y18800D01*
X183300D01*
X182500Y17200D01*
X152500D02*
X151700Y18800D01*
X153300D01*
X152500Y17200D01*
X77500D02*
X76700Y18800D01*
X78300D01*
X77500Y17200D01*
X47500D02*
X46700Y18800D01*
X48300D01*
X47500Y17200D01*
X62500D02*
X61700Y18800D01*
X63300D01*
X62500Y17200D01*
X92500D02*
X91700Y18800D01*
X93300D01*
X92500Y17200D01*
X122500D02*
X121700Y18800D01*
X123300D01*
X122500Y17200D01*
X80700Y346700D02*
Y348300D01*
X82300D01*
Y346700D01*
X80700D01*
X70700D02*
Y348300D01*
X72300D01*
Y346700D01*
X70700D01*
Y366700D02*
Y368300D01*
X72300D01*
Y366700D01*
X70700D01*
X80700D02*
Y368300D01*
X82300D01*
Y366700D01*
X80700D01*
X70700Y356700D02*
Y358300D01*
X72300D01*
Y356700D01*
X70700D01*
X80700Y336700D02*
Y338300D01*
X82300D01*
Y336700D01*
X80700D01*
X70700Y376700D02*
Y378300D01*
X72300D01*
Y376700D01*
X70700D01*
X80700D02*
Y378300D01*
X82300D01*
Y376700D01*
X80700D01*
X70700Y336700D02*
Y338300D01*
X72300D01*
Y336700D01*
X70700D01*
X80700Y356700D02*
Y358300D01*
X82300D01*
Y356700D01*
X80700D01*
X576372Y13379D02*
Y12979D01*
X577172D01*
Y13379D01*
X577572D01*
Y14179D01*
X577172D01*
Y14579D01*
X576372D01*
Y14179D01*
X575972D01*
Y13379D01*
X576372D01*
X229200Y374287D02*
X229600Y375087D01*
X229200Y375887D01*
X230000Y375487D01*
X230800Y375887D01*
X230400Y375087D01*
X230800Y374287D01*
X230000Y374687D01*
X229200Y374287D01*
Y367200D02*
X229600Y368000D01*
X229200Y368800D01*
X230000Y368400D01*
X230800Y368800D01*
X230400Y368000D01*
X230800Y367200D01*
X230000Y367600D01*
X229200Y367200D01*
Y360113D02*
X229600Y360913D01*
X229200Y361713D01*
X230000Y361313D01*
X230800Y361713D01*
X230400Y360913D01*
X230800Y360113D01*
X230000Y360513D01*
X229200Y360113D01*
X55700Y429373D02*
X56100Y430173D01*
X55700Y430973D01*
X56500Y430573D01*
X57300Y430973D01*
X56900Y430173D01*
X57300Y429373D01*
X56500Y429773D01*
X55700Y429373D01*
Y422287D02*
X56100Y423087D01*
X55700Y423887D01*
X56500Y423487D01*
X57300Y423887D01*
X56900Y423087D01*
X57300Y422287D01*
X56500Y422687D01*
X55700Y422287D01*
Y415200D02*
X56100Y416000D01*
X55700Y416800D01*
X56500Y416400D01*
X57300Y416800D01*
X56900Y416000D01*
X57300Y415200D01*
X56500Y415600D01*
X55700Y415200D01*
X220200Y15200D02*
X220600D01*
X221000Y15600D01*
X221400Y15200D01*
X221800D01*
Y15600D01*
X221400Y16000D01*
X221800Y16400D01*
Y16800D01*
X221400D01*
X221000Y16400D01*
X220600Y16800D01*
X220200D01*
Y16400D01*
X220600Y16000D01*
X220200Y15600D01*
Y15200D01*
X210200D02*
X210600D01*
X211000Y15600D01*
X211400Y15200D01*
X211800D01*
Y15600D01*
X211400Y16000D01*
X211800Y16400D01*
Y16800D01*
X211400D01*
X211000Y16400D01*
X210600Y16800D01*
X210200D01*
Y16400D01*
X210600Y16000D01*
X210200Y15600D01*
Y15200D01*
X200200D02*
X200600D01*
X201000Y15600D01*
X201400Y15200D01*
X201800D01*
Y15600D01*
X201400Y16000D01*
X201800Y16400D01*
Y16800D01*
X201400D01*
X201000Y16400D01*
X200600Y16800D01*
X200200D01*
Y16400D01*
X200600Y16000D01*
X200200Y15600D01*
Y15200D01*
X24000Y334700D02*
X23200Y336300D01*
X24800D01*
X24000Y334700D01*
Y289700D02*
X23200Y291300D01*
X24800D01*
X24000Y289700D01*
Y394700D02*
X23200Y396300D01*
X24800D01*
X24000Y394700D01*
Y409700D02*
X23200Y411300D01*
X24800D01*
X24000Y409700D01*
Y274700D02*
X23200Y276300D01*
X24800D01*
X24000Y274700D01*
Y304700D02*
X23200Y306300D01*
X24800D01*
X24000Y304700D01*
Y349700D02*
X23200Y351300D01*
X24800D01*
X24000Y349700D01*
Y379700D02*
X23200Y381300D01*
X24800D01*
X24000Y379700D01*
Y364700D02*
X23200Y366300D01*
X24800D01*
X24000Y364700D01*
Y319700D02*
X23200Y321300D01*
X24800D01*
X24000Y319700D01*
X576372Y576372D02*
Y575972D01*
X577172D01*
Y576372D01*
X577572D01*
Y577172D01*
X577172D01*
Y577572D01*
X576372D01*
Y577172D01*
X575972D01*
Y576372D01*
X576372D01*
X13379D02*
Y575972D01*
X14179D01*
Y576372D01*
X14579D01*
Y577172D01*
X14179D01*
Y577572D01*
X13379D01*
Y577172D01*
X12979D01*
Y576372D01*
X13379D01*
Y13379D02*
Y12979D01*
X14179D01*
Y13379D01*
X14579D01*
Y14179D01*
X14179D01*
Y14579D01*
X13379D01*
Y14179D01*
X12979D01*
Y13379D01*
X13379D01*
X245500Y17700D02*
X244700Y19300D01*
X246300D01*
X245500Y17700D01*
X260500D02*
X259700Y19300D01*
X261300D01*
X260500Y17700D01*
X248113Y530200D02*
X248513Y531000D01*
X248113Y531800D01*
X248913Y531400D01*
X249713Y531800D01*
X249313Y531000D01*
X249713Y530200D01*
X248913Y530600D01*
X248113Y530200D01*
X241027D02*
X241427Y531000D01*
X241027Y531800D01*
X241827Y531400D01*
X242627Y531800D01*
X242227Y531000D01*
X242627Y530200D01*
X241827Y530600D01*
X241027Y530200D01*
X255200D02*
X255600Y531000D01*
X255200Y531800D01*
X256000Y531400D01*
X256800Y531800D01*
X256400Y531000D01*
X256800Y530200D01*
X256000Y530600D01*
X255200Y530200D01*
X127000Y566700D02*
X126200Y568300D01*
X127800D01*
X127000Y566700D01*
X157000D02*
X156200Y568300D01*
X157800D01*
X157000Y566700D01*
X202000D02*
X201200Y568300D01*
X202800D01*
X202000Y566700D01*
X232000D02*
X231200Y568300D01*
X232800D01*
X232000Y566700D01*
X262000D02*
X261200Y568300D01*
X262800D01*
X262000Y566700D01*
X247000D02*
X246200Y568300D01*
X247800D01*
X247000Y566700D01*
X217000D02*
X216200Y568300D01*
X217800D01*
X217000Y566700D01*
X187000D02*
X186200Y568300D01*
X187800D01*
X187000Y566700D01*
X172000D02*
X171200Y568300D01*
X172800D01*
X172000Y566700D01*
X142000D02*
X141200Y568300D01*
X142800D01*
X142000Y566700D01*
X112000D02*
X111200Y568300D01*
X112800D01*
X112000Y566700D01*
X67042Y472000D02*
X67842Y472800D01*
X68642Y472000D01*
X67842Y471200D01*
X67042Y472000D01*
X47357D02*
X48157Y472800D01*
X48957Y472000D01*
X48157Y471200D01*
X47357Y472000D01*
X226200Y552700D02*
Y554300D01*
X227800D01*
Y552700D01*
X226200D01*
X226600Y553100D02*
Y553900D01*
X227400D01*
Y553100D01*
X226600D01*
X36200Y553200D02*
Y554800D01*
X37800D01*
Y553200D01*
X36200D01*
X36600Y553600D02*
Y554400D01*
X37400D01*
Y553600D01*
X36600D01*
X227001Y263300D02*
Y264900D01*
X228601D01*
Y263300D01*
X227001D01*
X227401Y263700D02*
Y264500D01*
X228201D01*
Y263700D01*
X227401D01*
X245700Y99200D02*
Y100800D01*
X247300D01*
Y99200D01*
X245700D01*
X246100Y99600D02*
Y100400D01*
X246900D01*
Y99600D01*
X246100D01*
X86471Y238502D02*
Y240102D01*
X88071D01*
Y238502D01*
X86471D01*
X86871Y238902D02*
Y239702D01*
X87671D01*
Y238902D01*
X86871D01*
X257200Y35200D02*
Y36800D01*
X258800D01*
Y35200D01*
X257200D01*
X257600Y35600D02*
Y36400D01*
X258400D01*
Y35600D01*
X257600D01*
X266700Y66200D02*
Y67800D01*
X268300D01*
Y66200D01*
X266700D01*
X267100Y66600D02*
Y67400D01*
X267900D01*
Y66600D01*
X267100D01*
X264700Y150200D02*
Y151800D01*
X266300D01*
Y150200D01*
X264700D01*
X265100Y150600D02*
Y151400D01*
X265900D01*
Y150600D01*
X265100D01*
X265200Y180200D02*
Y181800D01*
X266800D01*
Y180200D01*
X265200D01*
X265600Y180600D02*
Y181400D01*
X266400D01*
Y180600D01*
X265600D01*
X261700Y212200D02*
Y213800D01*
X263300D01*
Y212200D01*
X261700D01*
X262100Y212600D02*
Y213400D01*
X262900D01*
Y212600D01*
X262100D01*
X250200Y214200D02*
Y215800D01*
X251800D01*
Y214200D01*
X250200D01*
X250600Y214600D02*
Y215400D01*
X251400D01*
Y214600D01*
X250600D01*
X69200Y502200D02*
Y503800D01*
X70800D01*
Y502200D01*
X69200D01*
X69600Y502600D02*
Y503400D01*
X70400D01*
Y502600D01*
X69600D01*
X82700Y527200D02*
Y528800D01*
X84300D01*
Y527200D01*
X82700D01*
X83100Y527600D02*
Y528400D01*
X83900D01*
Y527600D01*
X83100D01*
X57700Y528200D02*
Y529800D01*
X59300D01*
Y528200D01*
X57700D01*
X58100Y528600D02*
Y529400D01*
X58900D01*
Y528600D01*
X58100D01*
X180100Y316800D02*
Y318400D01*
X181700D01*
Y316800D01*
X180100D01*
X180500Y317200D02*
Y318000D01*
X181300D01*
Y317200D01*
X180500D01*
X195700Y240460D02*
Y242060D01*
X197300D01*
Y240460D01*
X195700D01*
X196100Y240860D02*
Y241660D01*
X196900D01*
Y240860D01*
X196100D01*
X24540Y240460D02*
Y242060D01*
X26140D01*
Y240460D01*
X24540D01*
X24940Y240860D02*
Y241660D01*
X25740D01*
Y240860D01*
X24940D01*
X144500Y240460D02*
Y242060D01*
X146100D01*
Y240460D01*
X144500D01*
X144900Y240860D02*
Y241660D01*
X145700D01*
Y240860D01*
X144900D01*
X64658Y488500D02*
Y490100D01*
X66258D01*
Y488500D01*
X64658D01*
X65058Y488900D02*
Y489700D01*
X65858D01*
Y488900D01*
X65058D01*
X105000Y435447D02*
Y437047D01*
X106600D01*
Y435447D01*
X105000D01*
X105400Y435847D02*
Y436647D01*
X106200D01*
Y435847D01*
X105400D01*
X124600Y435447D02*
Y437047D01*
X126200D01*
Y435447D01*
X124600D01*
X125000Y435847D02*
Y436647D01*
X125800D01*
Y435847D01*
X125000D01*
X144200Y469953D02*
Y471553D01*
X145800D01*
Y469953D01*
X144200D01*
X144600Y470353D02*
Y471153D01*
X145400D01*
Y470353D01*
X144600D01*
X105200Y247800D02*
Y249400D01*
X106800D01*
Y247800D01*
X105200D01*
X105600Y248200D02*
Y249000D01*
X106400D01*
Y248200D01*
X105600D01*
X160131Y257000D02*
Y258600D01*
X161731D01*
Y257000D01*
X160131D01*
X160531Y257400D02*
Y258200D01*
X161331D01*
Y257400D01*
X160531D01*
X158200Y464400D02*
Y466000D01*
X159800D01*
Y464400D01*
X158200D01*
X158600Y464800D02*
Y465600D01*
X159400D01*
Y464800D01*
X158600D01*
X231550Y435650D02*
Y437250D01*
X233150D01*
Y435650D01*
X231550D01*
X231950Y436050D02*
Y436850D01*
X232750D01*
Y436050D01*
X231950D01*
X295900Y570200D02*
Y571800D01*
X297500D01*
Y570200D01*
X295900D01*
X296300Y570600D02*
Y571400D01*
X297100D01*
Y570600D01*
X296300D01*
X271600Y531100D02*
Y532700D01*
X273200D01*
Y531100D01*
X271600D01*
X272000Y531500D02*
Y532300D01*
X272800D01*
Y531500D01*
X272000D01*
X171000Y490900D02*
Y492500D01*
X172600D01*
Y490900D01*
X171000D01*
X171400Y491300D02*
Y492100D01*
X172200D01*
Y491300D01*
X171400D01*
X158800Y425447D02*
Y427047D01*
X160400D01*
Y425447D01*
X158800D01*
X159200Y425847D02*
Y426647D01*
X160000D01*
Y425847D01*
X159200D01*
X242200Y474947D02*
Y476547D01*
X243800D01*
Y474947D01*
X242200D01*
X242600Y475347D02*
Y476147D01*
X243400D01*
Y475347D01*
X242600D01*
X270500Y166000D02*
Y167600D01*
X272100D01*
Y166000D01*
X270500D01*
X270900Y166400D02*
Y167200D01*
X271700D01*
Y166400D01*
X270900D01*
X55700Y188300D02*
Y189900D01*
X57300D01*
Y188300D01*
X55700D01*
X56100Y188700D02*
Y189500D01*
X56900D01*
Y188700D01*
X56100D01*
X139478Y240460D02*
Y242060D01*
X141078D01*
Y240460D01*
X139478D01*
X139878Y240860D02*
Y241660D01*
X140678D01*
Y240860D01*
X139878D01*
X93700Y306800D02*
Y308400D01*
X95300D01*
Y306800D01*
X93700D01*
X94100Y307200D02*
Y308000D01*
X94900D01*
Y307200D01*
X94100D01*
X219798Y299900D02*
Y301500D01*
X221398D01*
Y299900D01*
X219798D01*
X220198Y300300D02*
Y301100D01*
X220998D01*
Y300300D01*
X220198D01*
X183600Y435447D02*
Y437047D01*
X185200D01*
Y435447D01*
X183600D01*
X184000Y435847D02*
Y436647D01*
X184800D01*
Y435847D01*
X184000D01*
X193000Y469947D02*
Y471547D01*
X194600D01*
Y469947D01*
X193000D01*
X193400Y470347D02*
Y471147D01*
X194200D01*
Y470347D01*
X193400D01*
X183200Y469947D02*
Y471547D01*
X184800D01*
Y469947D01*
X183200D01*
X183600Y470347D02*
Y471147D01*
X184400D01*
Y470347D01*
X183600D01*
X95200Y469947D02*
Y471547D01*
X96800D01*
Y469947D01*
X95200D01*
X95600Y470347D02*
Y471147D01*
X96400D01*
Y470347D01*
X95600D01*
X150200Y477688D02*
Y479288D01*
X151800D01*
Y477688D01*
X150200D01*
X150600Y478088D02*
Y478888D01*
X151400D01*
Y478088D01*
X150600D01*
X232400Y469947D02*
Y471547D01*
X234000D01*
Y469947D01*
X232400D01*
X232800Y470347D02*
Y471147D01*
X233600D01*
Y470347D01*
X232800D01*
X203000Y501647D02*
Y503247D01*
X204600D01*
Y501647D01*
X203000D01*
X203400Y502047D02*
Y502847D01*
X204200D01*
Y502047D01*
X203400D01*
D111*
X204800Y117000D02*
X204247Y117761D01*
X203353Y117471D01*
Y116530D01*
X204247Y116240D01*
X204800Y117000D01*
Y167000D02*
X204247Y167761D01*
X203353Y167471D01*
Y166530D01*
X204247Y166240D01*
X204800Y167000D01*
Y186685D02*
X204247Y187446D01*
X203353Y187156D01*
Y186215D01*
X204247Y185924D01*
X204800Y186685D01*
Y76843D02*
X204247Y77604D01*
X203353Y77313D01*
Y76372D01*
X204247Y76082D01*
X204800Y76843D01*
X182300Y377000D02*
X181747Y377761D01*
X180853Y377470D01*
Y376530D01*
X181747Y376239D01*
X182300Y377000D01*
X123300Y378500D02*
X122747Y379261D01*
X121853Y378971D01*
Y378030D01*
X122747Y377740D01*
X123300Y378500D01*
X147800Y167000D02*
X147247Y167761D01*
X146353Y167471D01*
Y166530D01*
X147247Y166240D01*
X147800Y167000D01*
Y76843D02*
X147247Y77604D01*
X146353Y77313D01*
Y76373D01*
X147247Y76082D01*
X147800Y76843D01*
Y117000D02*
X147247Y117761D01*
X146353Y117471D01*
Y116530D01*
X147247Y116240D01*
X147800Y117000D01*
Y186685D02*
X147247Y187446D01*
X146353Y187156D01*
Y186215D01*
X147247Y185924D01*
X147800Y186685D01*
X182300Y327000D02*
X181747Y327761D01*
X180853Y327470D01*
Y326530D01*
X181747Y326239D01*
X182300Y327000D01*
Y396685D02*
X181747Y397446D01*
X180853Y397155D01*
Y396215D01*
X181747Y395924D01*
X182300Y396685D01*
Y286842D02*
X181747Y287603D01*
X180853Y287313D01*
Y286372D01*
X181747Y286082D01*
X182300Y286842D01*
X90800Y117000D02*
X90247Y117761D01*
X89353Y117471D01*
Y116530D01*
X90247Y116240D01*
X90800Y117000D01*
Y167000D02*
X90247Y167761D01*
X89353Y167471D01*
Y166530D01*
X90247Y166240D01*
X90800Y167000D01*
Y76843D02*
X90247Y77604D01*
X89353Y77313D01*
Y76373D01*
X90247Y76082D01*
X90800Y76843D01*
Y186685D02*
X90247Y187446D01*
X89353Y187156D01*
Y186215D01*
X90247Y185924D01*
X90800Y186685D01*
X33800D02*
X33247Y187446D01*
X32353Y187156D01*
Y186215D01*
X33247Y185924D01*
X33800Y186685D01*
Y117000D02*
X33247Y117761D01*
X32353Y117471D01*
Y116530D01*
X33247Y116240D01*
X33800Y117000D01*
Y76843D02*
X33247Y77604D01*
X32353Y77313D01*
Y76373D01*
X33247Y76082D01*
X33800Y76843D01*
Y167000D02*
X33247Y167761D01*
X32353Y167471D01*
Y166530D01*
X33247Y166240D01*
X33800Y167000D01*
X123300Y328500D02*
X122747Y329261D01*
X121853Y328971D01*
Y328030D01*
X122747Y327740D01*
X123300Y328500D01*
Y398185D02*
X122747Y398946D01*
X121853Y398656D01*
Y397715D01*
X122747Y397425D01*
X123300Y398185D01*
Y288343D02*
X122747Y289104D01*
X121853Y288813D01*
Y287873D01*
X122747Y287582D01*
X123300Y288343D01*
M02*
