G04*
G04 #@! TF.GenerationSoftware,Altium Limited,Altium Designer,22.3.1 (43)*
G04*
G04 Layer_Physical_Order=1*
G04 Layer_Color=255*
%FSLAX25Y25*%
%MOIN*%
G70*
G04*
G04 #@! TF.SameCoordinates,42F2F30E-D50D-475D-B1A6-53A476FFABF4*
G04*
G04*
G04 #@! TF.FilePolarity,Positive*
G04*
G01*
G75*
%ADD14C,0.01500*%
%ADD20R,0.08061X0.08823*%
%ADD21R,0.08823X0.08061*%
%ADD22R,0.05000X0.05000*%
%ADD23R,0.05512X0.02362*%
%ADD24R,0.04134X0.12598*%
%ADD25R,0.41142X0.39370*%
%ADD26O,0.02362X0.08268*%
%ADD27R,0.02362X0.08268*%
%ADD28R,0.12992X0.10630*%
%ADD29R,0.03937X0.10630*%
%ADD30R,0.07874X0.07874*%
G04:AMPARAMS|DCode=31|XSize=55mil|YSize=50mil|CornerRadius=0mil|HoleSize=0mil|Usage=FLASHONLY|Rotation=180.000|XOffset=0mil|YOffset=0mil|HoleType=Round|Shape=Octagon|*
%AMOCTAGOND31*
4,1,8,-0.02750,0.01250,-0.02750,-0.01250,-0.01500,-0.02500,0.01500,-0.02500,0.02750,-0.01250,0.02750,0.01250,0.01500,0.02500,-0.01500,0.02500,-0.02750,0.01250,0.0*
%
%ADD31OCTAGOND31*%

%ADD32R,0.05500X0.05000*%
%ADD33R,0.09449X0.12992*%
%ADD65C,0.02500*%
%ADD66C,0.03000*%
%ADD67C,0.08000*%
%ADD68R,0.27559X0.27559*%
%ADD69C,0.07677*%
%ADD70O,0.11811X0.08661*%
%ADD71C,0.06299*%
%ADD72R,0.06299X0.06299*%
%ADD73C,0.20000*%
%ADD74R,0.07480X0.07480*%
%ADD75C,0.07480*%
%ADD76O,0.07874X0.04724*%
%ADD77R,0.07874X0.04724*%
%ADD78C,0.07087*%
%ADD79R,0.07087X0.07087*%
%ADD80O,0.04724X0.07874*%
%ADD81R,0.04724X0.07874*%
%ADD82O,0.08661X0.11811*%
%ADD83C,0.07874*%
%ADD84C,0.05000*%
G36*
X365000Y560614D02*
X365892Y560732D01*
X367188Y561269D01*
X368302Y562123D01*
X369042Y563088D01*
X369581Y563036D01*
X369910Y561953D01*
X370869Y560158D01*
X372160Y558585D01*
X373733Y557294D01*
X375528Y556335D01*
X377475Y555744D01*
X379500Y555545D01*
X381525Y555744D01*
X383472Y556335D01*
X385267Y557294D01*
X386840Y558585D01*
X387160D01*
X388733Y557294D01*
X390528Y556335D01*
X392475Y555744D01*
X394500Y555545D01*
X396525Y555744D01*
X398275Y556275D01*
X398540Y555833D01*
X387707Y545000D01*
X356637Y544843D01*
X356283Y545195D01*
Y558127D01*
X356840Y558585D01*
X358131Y560158D01*
X359090Y561953D01*
X359419Y563036D01*
X359958Y563088D01*
X360698Y562123D01*
X361812Y561269D01*
X363108Y560732D01*
X364000Y560614D01*
Y567500D01*
X365000D01*
Y560614D01*
D02*
G37*
G36*
X425854Y561866D02*
X425727Y561814D01*
X425615Y561728D01*
X425518Y561608D01*
X425436Y561453D01*
X425369Y561264D01*
X425317Y561041D01*
X425280Y560783D01*
X425257Y560491D01*
X425250Y560164D01*
X423750D01*
X423742Y560491D01*
X423720Y560783D01*
X423683Y561041D01*
X423631Y561264D01*
X423564Y561453D01*
X423482Y561608D01*
X423385Y561728D01*
X423273Y561814D01*
X423146Y561866D01*
X423005Y561883D01*
X425995D01*
X425854Y561866D01*
D02*
G37*
G36*
X410854D02*
X410727Y561814D01*
X410615Y561728D01*
X410518Y561608D01*
X410436Y561453D01*
X410369Y561264D01*
X410317Y561041D01*
X410280Y560783D01*
X410257Y560491D01*
X410250Y560164D01*
X408750D01*
X408743Y560491D01*
X408720Y560783D01*
X408683Y561041D01*
X408631Y561264D01*
X408564Y561453D01*
X408482Y561608D01*
X408385Y561728D01*
X408273Y561814D01*
X408146Y561866D01*
X408005Y561883D01*
X410995D01*
X410854Y561866D01*
D02*
G37*
G36*
X350854D02*
X350727Y561814D01*
X350615Y561728D01*
X350518Y561608D01*
X350436Y561453D01*
X350369Y561264D01*
X350317Y561041D01*
X350280Y560783D01*
X350257Y560491D01*
X350250Y560164D01*
X348750D01*
X348743Y560491D01*
X348720Y560783D01*
X348683Y561041D01*
X348631Y561264D01*
X348564Y561453D01*
X348482Y561608D01*
X348385Y561728D01*
X348273Y561814D01*
X348146Y561866D01*
X348005Y561883D01*
X350995D01*
X350854Y561866D01*
D02*
G37*
G36*
X335854D02*
X335727Y561814D01*
X335615Y561728D01*
X335518Y561608D01*
X335436Y561453D01*
X335369Y561264D01*
X335317Y561041D01*
X335280Y560783D01*
X335257Y560491D01*
X335250Y560164D01*
X333750D01*
X333742Y560491D01*
X333720Y560783D01*
X333683Y561041D01*
X333631Y561264D01*
X333564Y561453D01*
X333482Y561608D01*
X333385Y561728D01*
X333273Y561814D01*
X333146Y561866D01*
X333005Y561883D01*
X335995D01*
X335854Y561866D01*
D02*
G37*
G36*
X563353Y584995D02*
X562480Y584551D01*
X560443Y583070D01*
X558662Y581289D01*
X557182Y579252D01*
X556038Y577008D01*
X555260Y574613D01*
X554866Y572125D01*
Y569607D01*
X555260Y567120D01*
X556038Y564724D01*
X557182Y562480D01*
X558662Y560443D01*
X560443Y558662D01*
X562480Y557182D01*
X564724Y556038D01*
X567120Y555260D01*
X569607Y554866D01*
X572125D01*
X574613Y555260D01*
X577008Y556038D01*
X579252Y557182D01*
X581289Y558662D01*
X583070Y560443D01*
X584500Y562411D01*
X584995Y562374D01*
X585000Y562372D01*
Y546000D01*
X498634Y545562D01*
X498279Y545915D01*
Y549780D01*
X458720D01*
Y545360D01*
X443337Y545282D01*
X442982Y545635D01*
Y556186D01*
X443472Y556335D01*
X445267Y557294D01*
X446645Y558424D01*
X447000Y558535D01*
X447355Y558424D01*
X448733Y557294D01*
X450527Y556335D01*
X452475Y555744D01*
X454500Y555545D01*
X456525Y555744D01*
X458472Y556335D01*
X460267Y557294D01*
X461840Y558585D01*
X463131Y560158D01*
X464090Y561953D01*
X464681Y563900D01*
X464881Y565925D01*
Y569075D01*
X464681Y571100D01*
X464090Y573047D01*
X463131Y574842D01*
X461840Y576415D01*
X460267Y577706D01*
X458472Y578665D01*
X456525Y579256D01*
X454500Y579456D01*
X452475Y579256D01*
X450527Y578665D01*
X448733Y577706D01*
X447160Y576415D01*
X446840D01*
X445267Y577706D01*
X443472Y578665D01*
X441525Y579256D01*
X439500Y579456D01*
X437475Y579256D01*
X435528Y578665D01*
X435071Y578421D01*
X432696Y580796D01*
X431668Y581640D01*
X430495Y582267D01*
X429223Y582653D01*
X427900Y582783D01*
X321500D01*
X320177Y582653D01*
X318904Y582267D01*
X317732Y581640D01*
X316704Y580796D01*
X314704Y578796D01*
X313869Y577779D01*
X313733Y577706D01*
X312160Y576415D01*
X310869Y574842D01*
X309910Y573047D01*
X309581Y571964D01*
X309043Y571912D01*
X308302Y572877D01*
X307188Y573731D01*
X305892Y574268D01*
X305000Y574386D01*
Y567500D01*
X304000D01*
Y574386D01*
X303108Y574268D01*
X301812Y573731D01*
X300698Y572877D01*
X299957Y571912D01*
X299419Y571964D01*
X299091Y573047D01*
X298131Y574842D01*
X296840Y576415D01*
X295267Y577706D01*
X293473Y578665D01*
X291525Y579256D01*
X289500Y579456D01*
X287475Y579256D01*
X285527Y578665D01*
X283733Y577706D01*
X282160Y576415D01*
X280869Y574842D01*
X279909Y573047D01*
X279319Y571100D01*
X279119Y569075D01*
Y565925D01*
X279235Y564753D01*
X278899Y564383D01*
X256109D01*
X252396Y568096D01*
X251368Y568940D01*
X250195Y569567D01*
X248923Y569953D01*
X247600Y570083D01*
X220000D01*
X218676Y569953D01*
X217404Y569567D01*
X216232Y568940D01*
X215204Y568096D01*
X211904Y564796D01*
X211060Y563769D01*
X210433Y562596D01*
X210048Y561324D01*
X209917Y560000D01*
Y552559D01*
X193504D01*
Y529929D01*
X199366D01*
X199657Y529429D01*
X199601Y529330D01*
X198031D01*
Y525064D01*
X197661Y524728D01*
X196945Y524798D01*
X195622Y524668D01*
X194509Y524331D01*
X193976D01*
Y524083D01*
X193176Y523655D01*
X192149Y522812D01*
X191305Y521784D01*
X190678Y520611D01*
X190293Y519339D01*
X190162Y518016D01*
Y515626D01*
X190149Y515607D01*
X190025Y515313D01*
X189875Y515032D01*
X189795Y514770D01*
X189689Y514518D01*
X189624Y514206D01*
X189532Y513901D01*
X189505Y513629D01*
X189449Y513361D01*
X189448Y513215D01*
X189436Y513173D01*
X189282Y512662D01*
X189276Y512604D01*
X189260Y512548D01*
X189218Y512017D01*
X189166Y511486D01*
X189172Y511428D01*
X189167Y511370D01*
X189229Y510840D01*
X189282Y510310D01*
X189298Y510254D01*
X189305Y510197D01*
X189470Y509689D01*
X189625Y509179D01*
X189652Y509128D01*
X189670Y509072D01*
X189930Y508607D01*
X190182Y508136D01*
X190219Y508091D01*
X190247Y508041D01*
X190476Y507773D01*
X190678Y507105D01*
X191305Y505932D01*
X192149Y504905D01*
X193176Y504061D01*
X194349Y503434D01*
X195622Y503048D01*
X196945Y502918D01*
X198268Y503048D01*
X199540Y503434D01*
X200713Y504061D01*
X201741Y504905D01*
X202584Y505932D01*
X202995Y506701D01*
X204955D01*
X205147Y506239D01*
X199908Y501000D01*
X190947D01*
X190766Y501595D01*
X190140Y502768D01*
X189296Y503796D01*
X170794Y522298D01*
X170985Y522760D01*
X173740D01*
Y527000D01*
X169000D01*
Y527500D01*
X168500D01*
Y532240D01*
X164260D01*
Y529485D01*
X163798Y529294D01*
X160796Y532296D01*
X159768Y533140D01*
X158595Y533766D01*
X157323Y534152D01*
X156039Y534279D01*
X155892Y534423D01*
X155686Y534589D01*
X155209Y535066D01*
X153614Y536132D01*
X151841Y536866D01*
X149959Y537240D01*
X148041D01*
X146159Y536866D01*
X144386Y536132D01*
X142791Y535066D01*
X142359Y534634D01*
X142200Y534511D01*
X141957Y534283D01*
X139184D01*
X138623Y534453D01*
X137300Y534583D01*
X135937D01*
Y537738D01*
X116063D01*
Y518328D01*
X116063Y518037D01*
X115587Y517806D01*
X105937Y527456D01*
Y537738D01*
X86063D01*
Y527300D01*
X86001Y527225D01*
X85977Y527179D01*
X85944Y527138D01*
X85698Y526658D01*
X85444Y526183D01*
X85429Y526133D01*
X85405Y526086D01*
X85258Y525568D01*
X85101Y525052D01*
X85096Y525000D01*
X85082Y524949D01*
X85038Y524412D01*
X84985Y523876D01*
X84990Y523823D01*
X84986Y523771D01*
X85048Y523236D01*
X85057Y523149D01*
X84601Y522693D01*
X84571Y522691D01*
X84089Y522875D01*
X84078Y522893D01*
X84049Y523190D01*
X84032Y523245D01*
X84025Y523303D01*
X83861Y523811D01*
X83706Y524321D01*
X83679Y524372D01*
X83661Y524427D01*
X83400Y524893D01*
X83149Y525363D01*
X83112Y525408D01*
X83084Y525459D01*
X82855Y525727D01*
X82652Y526395D01*
X82025Y527567D01*
X81182Y528595D01*
X80154Y529439D01*
X78981Y530065D01*
X77709Y530451D01*
X76386Y530582D01*
X75063Y530451D01*
X73790Y530065D01*
X72618Y529439D01*
X71590Y528595D01*
X70746Y527567D01*
X70336Y526799D01*
X69050D01*
X68640Y527567D01*
X67796Y528595D01*
X66768Y529439D01*
X65596Y530065D01*
X64323Y530451D01*
X63000Y530582D01*
X61677Y530451D01*
X60404Y530065D01*
X59232Y529439D01*
X58204Y528595D01*
X57649Y527919D01*
X57497Y527891D01*
X57047Y527974D01*
X56216Y529218D01*
X55032Y530402D01*
X53640Y531332D01*
X52093Y531973D01*
X50451Y532299D01*
X48777D01*
X47135Y531973D01*
X45588Y531332D01*
X44196Y530402D01*
X43012Y529218D01*
X42081Y527825D01*
X41656Y526799D01*
X41547D01*
Y526536D01*
X41441Y526278D01*
X41114Y524636D01*
Y522962D01*
X41441Y521320D01*
X41547Y521063D01*
Y502201D01*
X46702D01*
X47000Y501837D01*
Y500163D01*
X47327Y498521D01*
X47967Y496974D01*
X48898Y495582D01*
X50082Y494398D01*
X51474Y493467D01*
X53021Y492827D01*
X54663Y492500D01*
X56337D01*
X57979Y492827D01*
X59526Y493467D01*
X60918Y494398D01*
X62102Y495582D01*
X63033Y496974D01*
X63060Y497041D01*
X63558Y497090D01*
X63898Y496582D01*
X65082Y495398D01*
X66474Y494467D01*
X68021Y493827D01*
X69663Y493500D01*
X71337D01*
X72979Y493827D01*
X74526Y494467D01*
X75918Y495398D01*
X77102Y496582D01*
X78033Y497974D01*
X78673Y499521D01*
X79000Y501163D01*
Y502837D01*
X78673Y504479D01*
X78033Y506026D01*
X77760Y506435D01*
Y507201D01*
X79453D01*
Y507373D01*
X79915Y507564D01*
X80082Y507398D01*
X81474Y506467D01*
X83021Y505827D01*
X84663Y505500D01*
X86337D01*
X87979Y505827D01*
X89526Y506467D01*
X90918Y507398D01*
X92102Y508582D01*
X93033Y509974D01*
X93673Y511521D01*
X93937Y512845D01*
X97650Y516558D01*
X113266Y500942D01*
X113075Y500480D01*
X112913D01*
Y475488D01*
X134362D01*
Y500480D01*
X130389D01*
X130290Y501486D01*
X129904Y502758D01*
X129277Y503931D01*
X128434Y504959D01*
X116005Y517387D01*
X116236Y517864D01*
X116491Y517864D01*
X135937D01*
Y520506D01*
X136378Y520823D01*
X136437Y520832D01*
X137600Y520717D01*
X141965D01*
X142108Y520577D01*
X142314Y520411D01*
X142791Y519934D01*
X144386Y518868D01*
X146159Y518134D01*
X148041Y517760D01*
X149959D01*
X151841Y518134D01*
X153614Y518868D01*
X154468Y519439D01*
X176000Y497908D01*
Y484000D01*
X177201D01*
X177407Y483790D01*
X177520Y483500D01*
X177430Y483331D01*
X177350Y483069D01*
X177244Y482818D01*
X177179Y482505D01*
X177087Y482200D01*
X177060Y481928D01*
X177005Y481660D01*
X177004Y481514D01*
X176992Y481472D01*
X176837Y480962D01*
X176831Y480904D01*
X176815Y480848D01*
X176773Y480316D01*
X176721Y479785D01*
X176727Y479728D01*
X176722Y479670D01*
X176785Y479140D01*
X176837Y478609D01*
X176854Y478554D01*
X176860Y478496D01*
X177025Y477988D01*
X177180Y477478D01*
X177207Y477427D01*
X177225Y477372D01*
X177486Y476906D01*
X177737Y476436D01*
X177774Y476391D01*
X177802Y476340D01*
X178031Y476072D01*
X178234Y475404D01*
X178860Y474232D01*
X179704Y473204D01*
X180732Y472360D01*
X181904Y471734D01*
X183177Y471348D01*
X184500Y471217D01*
X185823Y471348D01*
X187096Y471734D01*
X188268Y472360D01*
X189296Y473204D01*
X190140Y474232D01*
X190766Y475404D01*
X190969Y476072D01*
X191198Y476340D01*
X191226Y476391D01*
X191263Y476436D01*
X191515Y476907D01*
X191775Y477372D01*
X191793Y477427D01*
X191820Y477478D01*
X191975Y477989D01*
X192139Y478496D01*
X192146Y478554D01*
X192163Y478609D01*
X192216Y479140D01*
X192278Y479670D01*
X192273Y479728D01*
X192279Y479785D01*
X192227Y480316D01*
X192185Y480848D01*
X192169Y480904D01*
X192163Y480962D01*
X192008Y481472D01*
X191997Y481514D01*
X191995Y481660D01*
X191940Y481928D01*
X191913Y482200D01*
X191821Y482505D01*
X191756Y482818D01*
X191649Y483069D01*
X191570Y483331D01*
X191480Y483500D01*
X191593Y483790D01*
X191799Y484000D01*
X193701D01*
X193906Y483790D01*
X194020Y483500D01*
X193930Y483331D01*
X193851Y483069D01*
X193744Y482818D01*
X193679Y482505D01*
X193587Y482200D01*
X193560Y481928D01*
X193505Y481660D01*
X193503Y481514D01*
X193492Y481472D01*
X193337Y480962D01*
X193331Y480904D01*
X193315Y480848D01*
X193273Y480316D01*
X193221Y479785D01*
X193227Y479728D01*
X193222Y479670D01*
X193284Y479140D01*
X193337Y478609D01*
X193354Y478554D01*
X193360Y478496D01*
X193525Y477988D01*
X193680Y477478D01*
X193707Y477427D01*
X193725Y477372D01*
X193986Y476906D01*
X194237Y476436D01*
X194274Y476391D01*
X194302Y476340D01*
X194531Y476072D01*
X194734Y475404D01*
X195360Y474232D01*
X196204Y473204D01*
X197232Y472360D01*
X198404Y471734D01*
X199677Y471348D01*
X201000Y471217D01*
X202323Y471348D01*
X203596Y471734D01*
X204768Y472360D01*
X205796Y473204D01*
X206640Y474232D01*
X207266Y475404D01*
X207469Y476072D01*
X207698Y476340D01*
X207726Y476391D01*
X207763Y476436D01*
X208015Y476907D01*
X208275Y477372D01*
X208293Y477427D01*
X208320Y477478D01*
X208475Y477989D01*
X208640Y478496D01*
X208646Y478554D01*
X208663Y478609D01*
X208716Y479140D01*
X208778Y479670D01*
X208773Y479728D01*
X208779Y479785D01*
X208727Y480316D01*
X208685Y480848D01*
X208669Y480904D01*
X208663Y480962D01*
X208508Y481472D01*
X208496Y481514D01*
X208495Y481660D01*
X208440Y481928D01*
X208413Y482200D01*
X208321Y482505D01*
X208256Y482818D01*
X208150Y483069D01*
X208070Y483331D01*
X207980Y483500D01*
X208093Y483790D01*
X208299Y484000D01*
X209500D01*
Y491408D01*
X214538Y496446D01*
X215000Y496255D01*
Y484000D01*
X216201D01*
X216407Y483790D01*
X216520Y483500D01*
X216430Y483331D01*
X216351Y483069D01*
X216244Y482818D01*
X216179Y482505D01*
X216087Y482200D01*
X216060Y481928D01*
X216005Y481660D01*
X216003Y481514D01*
X215992Y481472D01*
X215837Y480962D01*
X215831Y480904D01*
X215815Y480848D01*
X215773Y480316D01*
X215721Y479785D01*
X215727Y479728D01*
X215722Y479670D01*
X215785Y479140D01*
X215837Y478609D01*
X215854Y478554D01*
X215860Y478496D01*
X216025Y477988D01*
X216180Y477478D01*
X216207Y477427D01*
X216225Y477372D01*
X216486Y476906D01*
X216737Y476436D01*
X216774Y476391D01*
X216802Y476340D01*
X217031Y476072D01*
X217234Y475404D01*
X217860Y474232D01*
X218704Y473204D01*
X219732Y472360D01*
X220904Y471734D01*
X222177Y471348D01*
X223500Y471217D01*
X224823Y471348D01*
X226096Y471734D01*
X227268Y472360D01*
X228296Y473204D01*
X229140Y474232D01*
X229500Y474906D01*
X230000D01*
X230360Y474232D01*
X231204Y473204D01*
X232232Y472360D01*
X233404Y471734D01*
X234677Y471348D01*
X236000Y471217D01*
X236500D01*
X237823Y471348D01*
X238841Y471656D01*
X239017Y471684D01*
X239517Y471295D01*
Y454013D01*
X239247Y453124D01*
X239117Y451800D01*
Y273628D01*
X238655Y273437D01*
X158650Y353443D01*
Y353901D01*
X158441Y354949D01*
X159196Y355704D01*
X160039Y356732D01*
X160666Y357905D01*
X161052Y359177D01*
X161182Y360500D01*
Y368000D01*
X161052Y369324D01*
X160666Y370596D01*
X160039Y371769D01*
X159196Y372796D01*
X153796Y378196D01*
X152768Y379040D01*
X151595Y379667D01*
X150323Y380053D01*
X149000Y380183D01*
X60027D01*
X59481Y406043D01*
X59410Y406633D01*
X59352Y407223D01*
X59331Y407292D01*
X59323Y407363D01*
X59139Y407927D01*
X58966Y408496D01*
X58932Y408559D01*
X58910Y408627D01*
X58619Y409145D01*
X58339Y409668D01*
X58294Y409724D01*
X58259Y409786D01*
X57872Y410237D01*
X57496Y410696D01*
X52896Y415296D01*
X51868Y416140D01*
X50695Y416766D01*
X49423Y417152D01*
X48100Y417283D01*
X33373D01*
X32915Y417840D01*
X31342Y419131D01*
X29547Y420090D01*
X27600Y420681D01*
X25575Y420881D01*
X22425D01*
X20400Y420681D01*
X18453Y420090D01*
X16658Y419131D01*
X15085Y417840D01*
X13794Y416267D01*
X12835Y414472D01*
X12244Y412525D01*
X12044Y410500D01*
X12244Y408475D01*
X12835Y406527D01*
X13794Y404733D01*
X15085Y403160D01*
Y402840D01*
X13794Y401267D01*
X12835Y399472D01*
X12244Y397525D01*
X12044Y395500D01*
X12244Y393475D01*
X12835Y391527D01*
X13794Y389733D01*
X15085Y388160D01*
Y387840D01*
X13794Y386267D01*
X12835Y384472D01*
X12244Y382525D01*
X12044Y380500D01*
X12244Y378475D01*
X12835Y376527D01*
X13794Y374733D01*
X15085Y373160D01*
Y372840D01*
X13794Y371267D01*
X12835Y369473D01*
X12244Y367525D01*
X12044Y365500D01*
X12244Y363475D01*
X12835Y361527D01*
X13794Y359733D01*
X14924Y358355D01*
X15035Y358000D01*
X14924Y357645D01*
X13794Y356267D01*
X12835Y354472D01*
X12244Y352525D01*
X12044Y350500D01*
X12244Y348475D01*
X12835Y346527D01*
X13794Y344733D01*
X15085Y343160D01*
Y342840D01*
X13794Y341267D01*
X12835Y339473D01*
X12244Y337525D01*
X12044Y335500D01*
X12244Y333475D01*
X12835Y331527D01*
X13794Y329733D01*
X15085Y328160D01*
Y327840D01*
X13794Y326267D01*
X12835Y324472D01*
X12244Y322525D01*
X12044Y320500D01*
X12244Y318475D01*
X12835Y316527D01*
X13794Y314733D01*
X15085Y313160D01*
Y312840D01*
X13794Y311267D01*
X12835Y309472D01*
X12244Y307525D01*
X12044Y305500D01*
X12244Y303475D01*
X12835Y301527D01*
X13794Y299733D01*
X15085Y298160D01*
Y297840D01*
X13794Y296267D01*
X12835Y294473D01*
X12244Y292525D01*
X12044Y290500D01*
X12244Y288475D01*
X12835Y286527D01*
X13794Y284733D01*
X15085Y283160D01*
Y282840D01*
X13794Y281267D01*
X12835Y279472D01*
X12244Y277525D01*
X12044Y275500D01*
X12244Y273475D01*
X12835Y271527D01*
X13794Y269733D01*
X15085Y268160D01*
X16658Y266869D01*
X18453Y265910D01*
X20400Y265319D01*
X22425Y265119D01*
X25575D01*
X27600Y265319D01*
X29547Y265910D01*
X31342Y266869D01*
X32915Y268160D01*
X34206Y269733D01*
X35165Y271527D01*
X35756Y273475D01*
X35956Y275500D01*
X35756Y277525D01*
X35165Y279472D01*
X34206Y281267D01*
X32915Y282840D01*
Y283160D01*
X34206Y284733D01*
X35165Y286527D01*
X35756Y288475D01*
X35956Y290500D01*
X35756Y292525D01*
X35165Y294473D01*
X34206Y296267D01*
X32915Y297840D01*
Y298160D01*
X34206Y299733D01*
X35165Y301527D01*
X35756Y303475D01*
X35956Y305500D01*
X35756Y307525D01*
X35165Y309472D01*
X34206Y311267D01*
X32915Y312840D01*
Y313160D01*
X34206Y314733D01*
X35165Y316527D01*
X35756Y318475D01*
X35956Y320500D01*
X35756Y322525D01*
X35165Y324472D01*
X34206Y326267D01*
X32915Y327840D01*
Y328160D01*
X34206Y329733D01*
X35165Y331527D01*
X35756Y333475D01*
X35956Y335500D01*
X35756Y337525D01*
X35165Y339473D01*
X34206Y341267D01*
X32915Y342840D01*
Y343160D01*
X34206Y344733D01*
X35165Y346527D01*
X35756Y348475D01*
X35956Y350500D01*
X35756Y352525D01*
X35165Y354472D01*
X34206Y356267D01*
X33076Y357645D01*
X32965Y358000D01*
X33076Y358355D01*
X34206Y359733D01*
X35165Y361527D01*
X35756Y363475D01*
X35956Y365500D01*
X35756Y367525D01*
X35165Y369473D01*
X34206Y371267D01*
X32915Y372840D01*
Y373160D01*
X34206Y374733D01*
X35165Y376527D01*
X35756Y378475D01*
X35956Y380500D01*
X35756Y382525D01*
X35165Y384472D01*
X34206Y386267D01*
X32915Y387840D01*
Y388160D01*
X34206Y389733D01*
X35165Y391527D01*
X35756Y393475D01*
X35956Y395500D01*
X35756Y397525D01*
X35165Y399472D01*
X34206Y401267D01*
X32915Y402840D01*
Y403160D01*
X33373Y403717D01*
X45290D01*
X45976Y403031D01*
X46717Y367929D01*
Y252181D01*
X44744D01*
Y248441D01*
X34847D01*
Y234140D01*
X28204Y227497D01*
X27360Y226469D01*
X26734Y225296D01*
X26348Y224024D01*
X26217Y222701D01*
Y85343D01*
X26348Y84020D01*
X26734Y82747D01*
X27360Y81575D01*
X28204Y80547D01*
X31161Y77589D01*
Y76374D01*
X31539Y74473D01*
X32281Y72683D01*
X33358Y71071D01*
X34728Y69701D01*
X36340Y68624D01*
X38130Y67883D01*
X40031Y67504D01*
X41969D01*
X43870Y67883D01*
X45660Y68624D01*
X47272Y69701D01*
X48642Y71071D01*
X49719Y72683D01*
X50460Y74473D01*
X50839Y76374D01*
Y78312D01*
X50460Y80213D01*
X49719Y82003D01*
X48642Y83615D01*
X47272Y84985D01*
X45660Y86062D01*
X43870Y86803D01*
X41969Y87182D01*
X40753D01*
X39783Y88152D01*
Y107458D01*
X40031Y107662D01*
X41969D01*
X43870Y108040D01*
X45660Y108782D01*
X47272Y109858D01*
X48642Y111229D01*
X49719Y112840D01*
X50460Y114631D01*
X50839Y116531D01*
Y117155D01*
X50865Y117357D01*
X50878Y117786D01*
X53396Y120304D01*
X53791Y120785D01*
X54192Y121262D01*
X54212Y121299D01*
X54239Y121332D01*
X54533Y121881D01*
X54833Y122427D01*
X54846Y122467D01*
X54866Y122505D01*
X55047Y123101D01*
X55235Y123694D01*
X55240Y123736D01*
X55252Y123777D01*
X55313Y124397D01*
X55382Y125016D01*
X56694Y230339D01*
X62256D01*
Y234477D01*
X103813D01*
Y234079D01*
X113710D01*
Y230339D01*
X121941D01*
X122981Y229298D01*
X124373Y228368D01*
X125920Y227727D01*
X127563Y227400D01*
X129237D01*
X130879Y227727D01*
X132426Y228368D01*
X133818Y229298D01*
X135002Y230482D01*
X135932Y231874D01*
X136573Y233421D01*
X136783Y234477D01*
X170711D01*
X171774Y233768D01*
X173320Y233127D01*
X174963Y232800D01*
X176637D01*
X178279Y233127D01*
X179826Y233768D01*
X180292Y234079D01*
X182676D01*
Y230339D01*
X184617D01*
Y218510D01*
X163204Y197097D01*
X162360Y196069D01*
X161734Y194896D01*
X161348Y193624D01*
X161217Y192301D01*
Y127500D01*
X161348Y126177D01*
X161734Y124905D01*
X162360Y123732D01*
X163204Y122704D01*
X168161Y117747D01*
Y116531D01*
X168540Y114631D01*
X169281Y112840D01*
X170358Y111229D01*
X171728Y109858D01*
X173340Y108782D01*
X175130Y108040D01*
X177031Y107662D01*
X178969D01*
X180870Y108040D01*
X182660Y108782D01*
X184272Y109858D01*
X185642Y111229D01*
X186079Y111882D01*
X186577Y111932D01*
X276304Y22204D01*
X277332Y21360D01*
X278505Y20734D01*
X279777Y20348D01*
X281100Y20217D01*
X471500D01*
Y18500D01*
X472701D01*
X472906Y18290D01*
X473020Y18000D01*
X472930Y17831D01*
X472851Y17569D01*
X472744Y17318D01*
X472679Y17005D01*
X472587Y16700D01*
X472560Y16428D01*
X472505Y16160D01*
X472504Y16014D01*
X472492Y15972D01*
X472337Y15461D01*
X472331Y15404D01*
X472315Y15348D01*
X472273Y14816D01*
X472221Y14285D01*
X472227Y14228D01*
X472222Y14170D01*
X472285Y13640D01*
X472337Y13109D01*
X472354Y13054D01*
X472360Y12996D01*
X472525Y12488D01*
X472680Y11978D01*
X472707Y11927D01*
X472725Y11872D01*
X472986Y11406D01*
X473237Y10936D01*
X473274Y10891D01*
X473302Y10840D01*
X473531Y10572D01*
X473734Y9904D01*
X474360Y8732D01*
X475204Y7704D01*
X476232Y6860D01*
X477404Y6234D01*
X478174Y6000D01*
X478100Y5500D01*
X28159D01*
X28043Y5986D01*
X28071Y6001D01*
X30108Y7481D01*
X31889Y9262D01*
X33369Y11299D01*
X34513Y13543D01*
X35291Y15938D01*
X35685Y18426D01*
Y20944D01*
X35291Y23432D01*
X34513Y25827D01*
X33369Y28071D01*
X31889Y30108D01*
X30108Y31889D01*
X28071Y33369D01*
X25827Y34513D01*
X23432Y35291D01*
X20944Y35685D01*
X18426D01*
X15938Y35291D01*
X13543Y34513D01*
X11299Y33369D01*
X9262Y31889D01*
X7481Y30108D01*
X6001Y28071D01*
X5986Y28043D01*
X5500Y28159D01*
Y562392D01*
X5986Y562509D01*
X6001Y562480D01*
X7481Y560443D01*
X9262Y558662D01*
X11299Y557182D01*
X13543Y556038D01*
X15938Y555260D01*
X18426Y554866D01*
X20944D01*
X23432Y555260D01*
X25827Y556038D01*
X28071Y557182D01*
X30108Y558662D01*
X31889Y560443D01*
X33369Y562480D01*
X34513Y564724D01*
X35291Y567120D01*
X35685Y569607D01*
Y572125D01*
X35291Y574613D01*
X34513Y577008D01*
X33369Y579252D01*
X31889Y581289D01*
X30108Y583070D01*
X28499Y584239D01*
X28399Y584926D01*
X28471Y585020D01*
X563236Y585481D01*
X563353Y584995D01*
D02*
G37*
G36*
X230060Y555518D02*
X229890Y555317D01*
X229740Y555114D01*
X229610Y554909D01*
X229500Y554700D01*
X229410Y554489D01*
X229340Y554275D01*
X229290Y554058D01*
X229260Y553838D01*
X229250Y553616D01*
X227750D01*
X227740Y553838D01*
X227710Y554058D01*
X227660Y554275D01*
X227590Y554489D01*
X227500Y554700D01*
X227390Y554909D01*
X227260Y555114D01*
X227110Y555317D01*
X226940Y555518D01*
X226750Y555715D01*
X230250D01*
X230060Y555518D01*
D02*
G37*
G36*
X342717Y558127D02*
Y549780D01*
X309220D01*
Y544602D01*
X289000Y544500D01*
X291000Y542500D01*
Y468393D01*
X278004Y455396D01*
X277160Y454369D01*
X276533Y453196D01*
X276148Y451924D01*
X276017Y450600D01*
Y264809D01*
X263389Y252181D01*
X263356D01*
X263202Y252198D01*
X263172Y252195D01*
X263141Y252198D01*
X262968Y252181D01*
X252682D01*
Y449988D01*
X252952Y450877D01*
X253082Y452200D01*
Y488200D01*
X252952Y489523D01*
X252566Y490796D01*
X251939Y491968D01*
X251096Y492996D01*
X250500Y493592D01*
Y501000D01*
X233500D01*
Y499283D01*
X232000D01*
Y501000D01*
X230283D01*
Y524199D01*
X230684Y524497D01*
X231177Y524348D01*
X232500Y524217D01*
X235283D01*
X235885Y523484D01*
X237158Y522439D01*
X238611Y521662D01*
X240188Y521184D01*
X241827Y521023D01*
X243466Y521184D01*
X243696Y521254D01*
X244068Y520844D01*
X243627Y519780D01*
X243300Y518138D01*
Y516463D01*
X243627Y514821D01*
X244268Y513274D01*
X245198Y511882D01*
X246382Y510698D01*
X247774Y509768D01*
X249321Y509127D01*
X250963Y508800D01*
X252638D01*
X254280Y509127D01*
X255827Y509768D01*
X257219Y510698D01*
X258403Y511882D01*
X259333Y513274D01*
X259974Y514821D01*
X260237Y516145D01*
X268092Y524000D01*
X275500D01*
Y533000D01*
Y550000D01*
X258500D01*
Y548283D01*
X255562D01*
X254439Y549033D01*
X252892Y549673D01*
X251250Y550000D01*
X249576D01*
X247934Y549673D01*
X246387Y549033D01*
X244994Y548102D01*
X243811Y546918D01*
X242880Y545526D01*
X242240Y543979D01*
X241913Y542337D01*
Y541056D01*
X241827Y540977D01*
X240188Y540816D01*
X239984Y540754D01*
X239582Y541052D01*
Y556518D01*
X244790D01*
X248504Y552804D01*
X249532Y551961D01*
X250704Y551334D01*
X251976Y550948D01*
X253300Y550818D01*
X332100D01*
X333423Y550948D01*
X334696Y551334D01*
X335868Y551961D01*
X336896Y552804D01*
X339296Y555204D01*
X340140Y556232D01*
X340766Y557405D01*
X340887Y557803D01*
X341840Y558585D01*
X342160D01*
X342717Y558127D01*
D02*
G37*
G36*
X229257Y547703D02*
X229280Y547448D01*
X229317Y547223D01*
X229370Y547028D01*
X229437Y546863D01*
X229520Y546728D01*
X229618Y546623D01*
X229730Y546548D01*
X229857Y546503D01*
X230000Y546488D01*
X227000D01*
X227143Y546503D01*
X227270Y546548D01*
X227382Y546623D01*
X227480Y546728D01*
X227562Y546863D01*
X227630Y547028D01*
X227682Y547223D01*
X227720Y547448D01*
X227743Y547703D01*
X227750Y547988D01*
X229250D01*
X229257Y547703D01*
D02*
G37*
G36*
X417355Y558424D02*
X417717Y558127D01*
Y545152D01*
X407647Y545101D01*
X407454Y545563D01*
X414296Y552404D01*
X415140Y553432D01*
X415766Y554605D01*
X416152Y555877D01*
X416283Y557201D01*
Y558127D01*
X416645Y558424D01*
X417000Y558535D01*
X417355Y558424D01*
D02*
G37*
G36*
X226024Y542500D02*
X226009Y542642D01*
X225963Y542770D01*
X225888Y542882D01*
X225782Y542980D01*
X225646Y543062D01*
X225480Y543130D01*
X225283Y543183D01*
X225056Y543220D01*
X224799Y543243D01*
X224512Y543250D01*
Y544750D01*
X224799Y544758D01*
X225056Y544780D01*
X225283Y544817D01*
X225480Y544870D01*
X225646Y544938D01*
X225782Y545020D01*
X225888Y545118D01*
X225963Y545230D01*
X226009Y545358D01*
X226024Y545500D01*
Y542500D01*
D02*
G37*
G36*
X264524Y540000D02*
X264509Y540142D01*
X264463Y540270D01*
X264388Y540382D01*
X264282Y540480D01*
X264146Y540562D01*
X263980Y540630D01*
X263783Y540683D01*
X263556Y540720D01*
X263299Y540742D01*
X263012Y540750D01*
Y542250D01*
X263299Y542257D01*
X263556Y542280D01*
X263783Y542317D01*
X263980Y542370D01*
X264146Y542438D01*
X264282Y542520D01*
X264388Y542618D01*
X264463Y542730D01*
X264509Y542858D01*
X264524Y543000D01*
Y540000D01*
D02*
G37*
G36*
X252396Y543060D02*
X252596Y542890D01*
X252799Y542740D01*
X253005Y542610D01*
X253213Y542500D01*
X253425Y542410D01*
X253639Y542340D01*
X253856Y542290D01*
X254075Y542260D01*
X254298Y542250D01*
Y540750D01*
X254075Y540740D01*
X253856Y540710D01*
X253639Y540660D01*
X253425Y540590D01*
X253213Y540500D01*
X253005Y540390D01*
X252799Y540260D01*
X252596Y540110D01*
X252396Y539940D01*
X252198Y539750D01*
Y543250D01*
X252396Y543060D01*
D02*
G37*
G36*
X230892Y534518D02*
X230851Y534381D01*
X230852Y534222D01*
X230896Y534042D01*
X230982Y533841D01*
X231111Y533618D01*
X231281Y533374D01*
X231495Y533108D01*
X232049Y532512D01*
X230988Y531451D01*
X230679Y531749D01*
X230126Y532219D01*
X229882Y532389D01*
X229659Y532518D01*
X229458Y532604D01*
X229278Y532648D01*
X229119Y532649D01*
X228982Y532608D01*
X228867Y532524D01*
X230976Y534633D01*
X230892Y534518D01*
D02*
G37*
G36*
X266633Y530024D02*
X266518Y530108D01*
X266381Y530149D01*
X266222Y530148D01*
X266042Y530104D01*
X265841Y530018D01*
X265618Y529889D01*
X265374Y529719D01*
X265108Y529505D01*
X264512Y528951D01*
X263451Y530012D01*
X263750Y530321D01*
X264219Y530874D01*
X264389Y531118D01*
X264518Y531341D01*
X264604Y531542D01*
X264648Y531722D01*
X264649Y531881D01*
X264608Y532018D01*
X264524Y532133D01*
X266633Y530024D01*
D02*
G37*
G36*
X239477Y529500D02*
X239462Y529642D01*
X239417Y529770D01*
X239341Y529882D01*
X239235Y529980D01*
X239099Y530062D01*
X238933Y530130D01*
X238736Y530183D01*
X238509Y530220D01*
X238252Y530242D01*
X237965Y530250D01*
Y531750D01*
X238252Y531757D01*
X238509Y531780D01*
X238736Y531817D01*
X238933Y531870D01*
X239099Y531938D01*
X239235Y532020D01*
X239341Y532118D01*
X239417Y532230D01*
X239462Y532358D01*
X239477Y532500D01*
Y529500D01*
D02*
G37*
G36*
X129940Y529158D02*
X129985Y529031D01*
X130060Y528918D01*
X130165Y528821D01*
X130300Y528738D01*
X130465Y528671D01*
X130660Y528618D01*
X130885Y528581D01*
X131140Y528558D01*
X131425Y528551D01*
Y527051D01*
X131140Y527043D01*
X130885Y527021D01*
X130660Y526983D01*
X130465Y526931D01*
X130300Y526863D01*
X130165Y526781D01*
X130060Y526683D01*
X129985Y526571D01*
X129940Y526443D01*
X129925Y526301D01*
Y529301D01*
X129940Y529158D01*
D02*
G37*
G36*
X152033Y529763D02*
X152731Y529165D01*
X153068Y528923D01*
X153396Y528717D01*
X153715Y528549D01*
X154026Y528418D01*
X154329Y528325D01*
X154623Y528269D01*
X154908Y528250D01*
Y526750D01*
X154623Y526731D01*
X154329Y526675D01*
X154026Y526582D01*
X153715Y526451D01*
X153396Y526283D01*
X153068Y526078D01*
X152731Y525835D01*
X152386Y525554D01*
X151671Y524882D01*
Y530118D01*
X152033Y529763D01*
D02*
G37*
G36*
X146329Y524882D02*
X145967Y525237D01*
X145269Y525835D01*
X144932Y526078D01*
X144604Y526283D01*
X144285Y526451D01*
X143974Y526582D01*
X143671Y526675D01*
X143377Y526731D01*
X143092Y526750D01*
Y528250D01*
X143377Y528269D01*
X143671Y528325D01*
X143974Y528418D01*
X144285Y528549D01*
X144604Y528717D01*
X144932Y528923D01*
X145269Y529165D01*
X145614Y529446D01*
X146329Y530118D01*
Y524882D01*
D02*
G37*
G36*
X94196Y523888D02*
X94081Y523971D01*
X93944Y524012D01*
X93785Y524011D01*
X93605Y523968D01*
X93404Y523882D01*
X93181Y523753D01*
X92937Y523582D01*
X92671Y523369D01*
X92075Y522815D01*
X91014Y523876D01*
X91312Y524184D01*
X91782Y524737D01*
X91953Y524981D01*
X92081Y525204D01*
X92167Y525406D01*
X92211Y525586D01*
X92212Y525744D01*
X92171Y525881D01*
X92087Y525997D01*
X94196Y523888D01*
D02*
G37*
G36*
X215813Y524534D02*
X215835Y524278D01*
X215873Y524053D01*
X215925Y523858D01*
X215993Y523694D01*
X216075Y523559D01*
X216173Y523454D01*
X216285Y523379D01*
X216413Y523334D01*
X216555Y523318D01*
X213555D01*
X213698Y523334D01*
X213825Y523379D01*
X213938Y523454D01*
X214035Y523559D01*
X214118Y523694D01*
X214185Y523858D01*
X214238Y524053D01*
X214275Y524278D01*
X214298Y524534D01*
X214305Y524819D01*
X215805D01*
X215813Y524534D01*
D02*
G37*
G36*
X206757D02*
X206780Y524278D01*
X206818Y524053D01*
X206870Y523858D01*
X206938Y523694D01*
X207020Y523559D01*
X207118Y523454D01*
X207230Y523379D01*
X207358Y523334D01*
X207500Y523318D01*
X204500D01*
X204643Y523334D01*
X204770Y523379D01*
X204883Y523454D01*
X204980Y523559D01*
X205063Y523694D01*
X205130Y523858D01*
X205183Y524053D01*
X205220Y524278D01*
X205242Y524534D01*
X205250Y524819D01*
X206750D01*
X206757Y524534D01*
D02*
G37*
G36*
X99840Y525880D02*
X99798Y525742D01*
Y525583D01*
X99840Y525403D01*
X99925Y525201D01*
X100052Y524979D01*
X100222Y524735D01*
X100434Y524470D01*
X100986Y523876D01*
X99925Y522815D01*
X99617Y523112D01*
X99066Y523579D01*
X98822Y523748D01*
X98599Y523876D01*
X98398Y523960D01*
X98217Y524003D01*
X98058D01*
X97920Y523960D01*
X97804Y523876D01*
X99925Y525997D01*
X99840Y525880D01*
D02*
G37*
G36*
X77143Y522014D02*
X78136D01*
X77946Y521816D01*
X77776Y521616D01*
X77626Y521413D01*
X77496Y521207D01*
X77403Y521032D01*
X77406Y521027D01*
X77503Y520922D01*
X77616Y520847D01*
X77743Y520802D01*
X77886Y520787D01*
X77296D01*
X77226Y520573D01*
X77176Y520357D01*
X77146Y520137D01*
X77136Y519914D01*
X75636D01*
X75626Y520137D01*
X75596Y520357D01*
X75546Y520573D01*
X75476Y520787D01*
X74886D01*
X75028Y520802D01*
X75156Y520847D01*
X75268Y520922D01*
X75366Y521027D01*
X75369Y521032D01*
X75276Y521207D01*
X75146Y521413D01*
X74996Y521616D01*
X74826Y521816D01*
X74636Y522014D01*
X75629D01*
X75636Y522287D01*
X77136D01*
X77143Y522014D01*
D02*
G37*
G36*
X63757D02*
X64750D01*
X64560Y521816D01*
X64390Y521616D01*
X64240Y521413D01*
X64110Y521207D01*
X64017Y521032D01*
X64020Y521027D01*
X64117Y520922D01*
X64230Y520847D01*
X64358Y520802D01*
X64500Y520787D01*
X63910D01*
X63840Y520573D01*
X63790Y520357D01*
X63760Y520137D01*
X63750Y519914D01*
X62250D01*
X62240Y520137D01*
X62210Y520357D01*
X62160Y520573D01*
X62090Y520787D01*
X61500D01*
X61642Y520802D01*
X61770Y520847D01*
X61883Y520922D01*
X61980Y521027D01*
X61983Y521032D01*
X61890Y521207D01*
X61760Y521413D01*
X61610Y521616D01*
X61440Y521816D01*
X61250Y522014D01*
X62243D01*
X62250Y522287D01*
X63750D01*
X63757Y522014D01*
D02*
G37*
G36*
X50371D02*
X51364D01*
X51174Y521816D01*
X51004Y521616D01*
X50854Y521413D01*
X50724Y521207D01*
X50631Y521032D01*
X50634Y521027D01*
X50731Y520922D01*
X50844Y520847D01*
X50972Y520802D01*
X51114Y520787D01*
X50524D01*
X50454Y520573D01*
X50404Y520357D01*
X50374Y520137D01*
X50364Y519914D01*
X48864D01*
X48854Y520137D01*
X48824Y520357D01*
X48774Y520573D01*
X48704Y520787D01*
X48114D01*
X48256Y520802D01*
X48384Y520847D01*
X48496Y520922D01*
X48594Y521027D01*
X48597Y521032D01*
X48504Y521207D01*
X48374Y521413D01*
X48224Y521616D01*
X48054Y521816D01*
X47864Y522014D01*
X48857D01*
X48864Y522287D01*
X50364D01*
X50371Y522014D01*
D02*
G37*
G36*
X255078Y519517D02*
X254927Y519353D01*
X254793Y519176D01*
X254675Y518987D01*
X254573Y518786D01*
X254488Y518573D01*
X254418Y518348D01*
X254364Y518111D01*
X254327Y517861D01*
X254306Y517599D01*
X254300Y517325D01*
X251825Y519800D01*
X252099Y519805D01*
X252361Y519827D01*
X252611Y519864D01*
X252848Y519918D01*
X253073Y519988D01*
X253287Y520073D01*
X253487Y520175D01*
X253676Y520293D01*
X253853Y520428D01*
X254017Y520578D01*
X255078Y519517D01*
D02*
G37*
G36*
X216413Y512710D02*
X216285Y512664D01*
X216173Y512589D01*
X216075Y512483D01*
X215993Y512347D01*
X215925Y512180D01*
X215873Y511984D01*
X215835Y511757D01*
X215813Y511500D01*
X215805Y511213D01*
X214305D01*
X214298Y511500D01*
X214275Y511757D01*
X214238Y511984D01*
X214185Y512180D01*
X214118Y512347D01*
X214035Y512483D01*
X213938Y512589D01*
X213825Y512664D01*
X213698Y512710D01*
X213555Y512725D01*
X216555D01*
X216413Y512710D01*
D02*
G37*
G36*
X197705Y513363D02*
X197735Y513143D01*
X197785Y512926D01*
X197851Y512725D01*
X198445D01*
X198302Y512710D01*
X198175Y512664D01*
X198062Y512589D01*
X197965Y512483D01*
X197959Y512473D01*
X198055Y512292D01*
X198185Y512087D01*
X198335Y511884D01*
X198505Y511683D01*
X198695Y511486D01*
X197702D01*
X197695Y511213D01*
X196195D01*
X196188Y511486D01*
X195195D01*
X195385Y511683D01*
X195555Y511884D01*
X195705Y512087D01*
X195835Y512292D01*
X195930Y512473D01*
X195925Y512483D01*
X195827Y512589D01*
X195715Y512664D01*
X195587Y512710D01*
X195445Y512725D01*
X196039D01*
X196105Y512926D01*
X196155Y513143D01*
X196185Y513363D01*
X196195Y513585D01*
X197695D01*
X197705Y513363D01*
D02*
G37*
G36*
X224257Y496203D02*
X224280Y495948D01*
X224318Y495723D01*
X224370Y495528D01*
X224437Y495363D01*
X224520Y495228D01*
X224618Y495123D01*
X224730Y495048D01*
X224857Y495003D01*
X225000Y494988D01*
X222000D01*
X222143Y495003D01*
X222270Y495048D01*
X222382Y495123D01*
X222480Y495228D01*
X222563Y495363D01*
X222630Y495528D01*
X222682Y495723D01*
X222720Y495948D01*
X222743Y496203D01*
X222750Y496488D01*
X224250D01*
X224257Y496203D01*
D02*
G37*
G36*
X185257D02*
X185280Y495948D01*
X185318Y495723D01*
X185370Y495528D01*
X185438Y495363D01*
X185520Y495228D01*
X185617Y495123D01*
X185730Y495048D01*
X185857Y495003D01*
X186000Y494988D01*
X183000D01*
X183142Y495003D01*
X183270Y495048D01*
X183382Y495123D01*
X183480Y495228D01*
X183563Y495363D01*
X183630Y495528D01*
X183683Y495723D01*
X183720Y495948D01*
X183742Y496203D01*
X183750Y496488D01*
X185250D01*
X185257Y496203D01*
D02*
G37*
G36*
X204549Y494988D02*
X204252Y494680D01*
X203785Y494129D01*
X203615Y493885D01*
X203488Y493662D01*
X203403Y493461D01*
X203361Y493280D01*
Y493121D01*
X203403Y492983D01*
X203488Y492867D01*
X201367Y494988D01*
X201483Y494903D01*
X201621Y494861D01*
X201780D01*
X201961Y494903D01*
X202162Y494988D01*
X202385Y495115D01*
X202629Y495285D01*
X202894Y495497D01*
X203488Y496049D01*
X204549Y494988D01*
D02*
G37*
G36*
X124395Y495683D02*
X124418Y495428D01*
X124455Y495203D01*
X124508Y495008D01*
X124575Y494843D01*
X124658Y494708D01*
X124755Y494603D01*
X124868Y494528D01*
X124995Y494483D01*
X125138Y494468D01*
X122138D01*
X122280Y494483D01*
X122408Y494528D01*
X122520Y494603D01*
X122618Y494708D01*
X122700Y494843D01*
X122768Y495008D01*
X122820Y495203D01*
X122858Y495428D01*
X122880Y495683D01*
X122888Y495968D01*
X124388D01*
X124395Y495683D01*
D02*
G37*
G36*
X225991Y493857D02*
X226037Y493730D01*
X226112Y493617D01*
X226218Y493520D01*
X226354Y493437D01*
X226520Y493370D01*
X226717Y493318D01*
X226944Y493280D01*
X227201Y493258D01*
X227488Y493250D01*
Y491750D01*
X227201Y491743D01*
X226944Y491720D01*
X226717Y491682D01*
X226520Y491630D01*
X226354Y491563D01*
X226218Y491480D01*
X226112Y491383D01*
X226037Y491270D01*
X225991Y491143D01*
X225976Y491000D01*
Y494000D01*
X225991Y493857D01*
D02*
G37*
G36*
X198524Y491000D02*
X198509Y491143D01*
X198463Y491270D01*
X198388Y491383D01*
X198282Y491480D01*
X198146Y491563D01*
X197980Y491630D01*
X197783Y491682D01*
X197556Y491720D01*
X197299Y491743D01*
X197012Y491750D01*
Y493250D01*
X197299Y493258D01*
X197556Y493280D01*
X197783Y493318D01*
X197980Y493370D01*
X198146Y493437D01*
X198282Y493520D01*
X198388Y493617D01*
X198463Y493730D01*
X198509Y493857D01*
X198524Y494000D01*
Y491000D01*
D02*
G37*
G36*
X244392Y492018D02*
X244351Y491881D01*
X244352Y491722D01*
X244396Y491542D01*
X244482Y491341D01*
X244611Y491118D01*
X244781Y490874D01*
X244995Y490608D01*
X245549Y490012D01*
X244488Y488951D01*
X244179Y489250D01*
X243626Y489719D01*
X243382Y489889D01*
X243159Y490018D01*
X242958Y490104D01*
X242778Y490148D01*
X242619Y490149D01*
X242482Y490108D01*
X242367Y490024D01*
X244476Y492133D01*
X244392Y492018D01*
D02*
G37*
G36*
X241633Y481024D02*
X241518Y481108D01*
X241381Y481149D01*
X241222Y481148D01*
X241042Y481104D01*
X240841Y481018D01*
X240618Y480890D01*
X240374Y480719D01*
X240108Y480505D01*
X239512Y479951D01*
X238947Y480516D01*
X239427Y479867D01*
X239281Y479708D01*
X239147Y479536D01*
X239023Y479351D01*
X238911Y479151D01*
X238811Y478939D01*
X238722Y478712D01*
X238644Y478472D01*
X238577Y478219D01*
X238522Y477952D01*
X238478Y477671D01*
X236378Y480471D01*
X236639Y480441D01*
X236889Y480431D01*
X237130Y480441D01*
X237360Y480472D01*
X237580Y480523D01*
X237789Y480595D01*
X237989Y480687D01*
X238178Y480800D01*
X238357Y480933D01*
X238505Y481068D01*
X238750Y481321D01*
X239219Y481874D01*
X239389Y482118D01*
X239518Y482341D01*
X239604Y482542D01*
X239648Y482722D01*
X239649Y482881D01*
X239608Y483018D01*
X239524Y483133D01*
X241633Y481024D01*
D02*
G37*
G36*
X224260Y481662D02*
X224290Y481443D01*
X224340Y481226D01*
X224406Y481024D01*
X225000D01*
X224857Y481009D01*
X224730Y480964D01*
X224618Y480888D01*
X224520Y480782D01*
X224514Y480773D01*
X224610Y480592D01*
X224740Y480386D01*
X224890Y480183D01*
X225060Y479983D01*
X225250Y479785D01*
X224257D01*
X224250Y479512D01*
X222750D01*
X222743Y479785D01*
X221750D01*
X221940Y479983D01*
X222110Y480183D01*
X222260Y480386D01*
X222390Y480592D01*
X222485Y480773D01*
X222480Y480782D01*
X222382Y480888D01*
X222270Y480964D01*
X222143Y481009D01*
X222000Y481024D01*
X222594D01*
X222660Y481226D01*
X222710Y481443D01*
X222740Y481662D01*
X222750Y481885D01*
X224250D01*
X224260Y481662D01*
D02*
G37*
G36*
X201760D02*
X201790Y481443D01*
X201840Y481226D01*
X201906Y481024D01*
X202500D01*
X202358Y481009D01*
X202230Y480964D01*
X202117Y480888D01*
X202020Y480782D01*
X202014Y480773D01*
X202110Y480592D01*
X202240Y480386D01*
X202390Y480183D01*
X202560Y479983D01*
X202750Y479785D01*
X201757D01*
X201750Y479512D01*
X200250D01*
X200243Y479785D01*
X199250D01*
X199440Y479983D01*
X199610Y480183D01*
X199760Y480386D01*
X199890Y480592D01*
X199986Y480773D01*
X199980Y480782D01*
X199882Y480888D01*
X199770Y480964D01*
X199643Y481009D01*
X199500Y481024D01*
X200094D01*
X200160Y481226D01*
X200210Y481443D01*
X200240Y481662D01*
X200250Y481885D01*
X201750D01*
X201760Y481662D01*
D02*
G37*
G36*
X185260D02*
X185290Y481443D01*
X185340Y481226D01*
X185406Y481024D01*
X186000D01*
X185857Y481009D01*
X185730Y480964D01*
X185617Y480888D01*
X185520Y480782D01*
X185514Y480773D01*
X185610Y480592D01*
X185740Y480386D01*
X185890Y480183D01*
X186060Y479983D01*
X186250Y479785D01*
X185257D01*
X185250Y479512D01*
X183750D01*
X183743Y479785D01*
X182750D01*
X182940Y479983D01*
X183110Y480183D01*
X183260Y480386D01*
X183390Y480592D01*
X183485Y480773D01*
X183480Y480782D01*
X183382Y480888D01*
X183270Y480964D01*
X183142Y481009D01*
X183000Y481024D01*
X183594D01*
X183660Y481226D01*
X183710Y481443D01*
X183740Y481662D01*
X183750Y481885D01*
X185250D01*
X185260Y481662D01*
D02*
G37*
G36*
X29634Y411854D02*
X29686Y411727D01*
X29772Y411615D01*
X29892Y411518D01*
X30047Y411436D01*
X30236Y411369D01*
X30459Y411317D01*
X30717Y411280D01*
X31010Y411257D01*
X31336Y411250D01*
Y409750D01*
X31010Y409742D01*
X30717Y409720D01*
X30459Y409683D01*
X30236Y409631D01*
X30047Y409564D01*
X29892Y409482D01*
X29772Y409385D01*
X29686Y409273D01*
X29634Y409146D01*
X29617Y409005D01*
Y411995D01*
X29634Y411854D01*
D02*
G37*
G36*
X54198Y370999D02*
X54235Y370776D01*
X54293Y370604D01*
X54371Y370483D01*
X54470Y370414D01*
X54589Y370396D01*
X54729Y370428D01*
X54890Y370513D01*
X55071Y370648D01*
X55273Y370834D01*
X55310Y368750D01*
X55109Y368534D01*
X54929Y368308D01*
X54769Y368074D01*
X54632Y367832D01*
X54515Y367580D01*
X54419Y367319D01*
X54345Y367050D01*
X54292Y366772D01*
X54260Y366485D01*
X54250Y366190D01*
X52750Y366484D01*
Y367985D01*
X54181Y371273D01*
X54198Y370999D01*
D02*
G37*
G36*
X146722Y366859D02*
X146937Y366706D01*
X147174Y366572D01*
X147433Y366457D01*
X147716Y366359D01*
X148021Y366281D01*
X148349Y366220D01*
X148699Y366178D01*
X149073Y366155D01*
X149469Y366149D01*
X146351Y363032D01*
X146345Y363427D01*
X146280Y364151D01*
X146220Y364479D01*
X146141Y364784D01*
X146044Y365067D01*
X145928Y365326D01*
X145794Y365563D01*
X145641Y365777D01*
X145470Y365969D01*
X146531Y367030D01*
X146722Y366859D01*
D02*
G37*
G36*
X585000Y28179D02*
X584995Y28177D01*
X584500Y28141D01*
X583070Y30108D01*
X581289Y31889D01*
X579252Y33369D01*
X577008Y34513D01*
X574613Y35291D01*
X572125Y35685D01*
X569607D01*
X567120Y35291D01*
X564724Y34513D01*
X562480Y33369D01*
X560443Y31889D01*
X558662Y30108D01*
X557182Y28071D01*
X556038Y25827D01*
X555260Y23432D01*
X554866Y20944D01*
Y18426D01*
X555260Y15938D01*
X556038Y13543D01*
X557182Y11299D01*
X558662Y9262D01*
X560443Y7481D01*
X562480Y6001D01*
X562508Y5986D01*
X562392Y5500D01*
X546219D01*
X546094Y6000D01*
X546768Y6360D01*
X547796Y7204D01*
X548640Y8232D01*
X549266Y9404D01*
X549469Y10072D01*
X549698Y10340D01*
X549726Y10391D01*
X549763Y10436D01*
X550015Y10907D01*
X550275Y11372D01*
X550293Y11427D01*
X550320Y11478D01*
X550475Y11989D01*
X550639Y12496D01*
X550646Y12554D01*
X550663Y12609D01*
X550715Y13140D01*
X550778Y13670D01*
X550773Y13728D01*
X550779Y13785D01*
X550727Y14316D01*
X550685Y14848D01*
X550669Y14904D01*
X550663Y14962D01*
X550508Y15472D01*
X550496Y15514D01*
X550495Y15660D01*
X550440Y15928D01*
X550413Y16200D01*
X550321Y16505D01*
X550256Y16817D01*
X550149Y17069D01*
X550070Y17331D01*
X549980Y17500D01*
X550093Y17790D01*
X550299Y18000D01*
X551500D01*
Y35000D01*
X544092D01*
X534783Y44309D01*
Y47906D01*
X535245Y48098D01*
X535671Y47671D01*
X536813Y46734D01*
X538116Y46037D01*
X539530Y45608D01*
X541000Y45464D01*
X562324D01*
X563658Y44369D01*
X565453Y43409D01*
X567400Y42819D01*
X569425Y42619D01*
X572575D01*
X574600Y42819D01*
X576547Y43409D01*
X578342Y44369D01*
X579915Y45660D01*
X581206Y47233D01*
X582165Y49027D01*
X582756Y50975D01*
X582956Y53000D01*
X582756Y55025D01*
X582165Y56972D01*
X581206Y58767D01*
X580076Y60145D01*
X579965Y60500D01*
X580076Y60855D01*
X581206Y62233D01*
X582165Y64027D01*
X582756Y65975D01*
X582956Y68000D01*
X582756Y70025D01*
X582165Y71973D01*
X581206Y73767D01*
X579915Y75340D01*
X578342Y76631D01*
X576547Y77591D01*
X574600Y78181D01*
X572575Y78381D01*
X569425D01*
X567400Y78181D01*
X565453Y77591D01*
X563658Y76631D01*
X562324Y75536D01*
X538122D01*
X535395Y78263D01*
X535392Y78297D01*
X535181Y78991D01*
Y86961D01*
X523353D01*
X523000Y86995D01*
X522647Y86961D01*
X520819D01*
Y86861D01*
X520339Y86574D01*
X519408Y86857D01*
X518000Y86995D01*
X516592Y86857D01*
X515500Y86525D01*
X514408Y86857D01*
X513000Y86995D01*
X511592Y86857D01*
X510239Y86446D01*
X508991Y85779D01*
X507898Y84882D01*
X507000Y83788D01*
X506333Y82541D01*
X505923Y81187D01*
X505784Y79779D01*
Y78876D01*
X505609Y78297D01*
X505464Y76827D01*
X505609Y75357D01*
X505784Y74778D01*
Y73874D01*
X505867Y73032D01*
X505387Y72805D01*
X471882Y106310D01*
Y198500D01*
X471752Y199824D01*
X471366Y201096D01*
X470739Y202269D01*
X469896Y203296D01*
X440451Y232741D01*
X440529Y233370D01*
X441618Y234098D01*
X442802Y235282D01*
X443732Y236674D01*
X444373Y238221D01*
X444700Y239863D01*
Y241538D01*
X444373Y243180D01*
X443732Y244727D01*
X442982Y245849D01*
Y289961D01*
X443482Y290061D01*
X443781Y289340D01*
X444858Y287728D01*
X446228Y286358D01*
X447840Y285281D01*
X449630Y284540D01*
X451531Y284161D01*
X453469D01*
X455370Y284540D01*
X457160Y285281D01*
X458772Y286358D01*
X460142Y287728D01*
X461219Y289340D01*
X461961Y291130D01*
X462339Y293031D01*
Y294969D01*
X461961Y296870D01*
X461219Y298660D01*
X460142Y300272D01*
X458772Y301642D01*
X457160Y302719D01*
X455370Y303460D01*
X453469Y303838D01*
X451531D01*
X449630Y303460D01*
X447840Y302719D01*
X446228Y301642D01*
X444858Y300272D01*
X443781Y298660D01*
X443482Y297939D01*
X442982Y298039D01*
Y365500D01*
X458720D01*
Y359720D01*
X498279D01*
Y365500D01*
X585000D01*
Y28179D01*
D02*
G37*
G36*
X291000Y448555D02*
Y368000D01*
X295000D01*
Y365500D01*
X296000Y364500D01*
X297000Y365500D01*
X309220D01*
Y359720D01*
X321358D01*
X321432Y359220D01*
X320210Y358850D01*
X318757Y358073D01*
X317484Y357028D01*
X316439Y355755D01*
X315662Y354302D01*
X315184Y352726D01*
X315022Y351087D01*
X314747Y350783D01*
X296000D01*
Y356000D01*
X289582D01*
Y447791D01*
X290538Y448746D01*
X291000Y448555D01*
D02*
G37*
G36*
X152655Y352572D02*
X152720Y351849D01*
X152780Y351521D01*
X152859Y351216D01*
X152956Y350933D01*
X153072Y350674D01*
X153206Y350437D01*
X153359Y350222D01*
X153530Y350031D01*
X152469Y348970D01*
X152278Y349141D01*
X152063Y349294D01*
X151826Y349428D01*
X151567Y349543D01*
X151284Y349641D01*
X150979Y349720D01*
X150651Y349780D01*
X150301Y349822D01*
X149927Y349845D01*
X149531Y349851D01*
X152649Y352969D01*
X152655Y352572D01*
D02*
G37*
G36*
X139469Y349851D02*
X139073Y349845D01*
X138349Y349780D01*
X138021Y349720D01*
X137716Y349641D01*
X137433Y349543D01*
X137174Y349428D01*
X136937Y349294D01*
X136723Y349141D01*
X136531Y348970D01*
X135470Y350031D01*
X135641Y350222D01*
X135794Y350437D01*
X135928Y350674D01*
X136044Y350933D01*
X136141Y351216D01*
X136220Y351521D01*
X136280Y351849D01*
X136322Y352199D01*
X136345Y352572D01*
X136351Y352969D01*
X139469Y349851D01*
D02*
G37*
G36*
X289912Y346929D02*
X289877Y346801D01*
X289881Y346652D01*
X289927Y346481D01*
X290013Y346289D01*
X290139Y346076D01*
X290306Y345842D01*
X290513Y345586D01*
X291049Y345012D01*
X289988Y343951D01*
X289690Y344239D01*
X289158Y344694D01*
X288924Y344861D01*
X288711Y344988D01*
X288519Y345074D01*
X288349Y345119D01*
X288199Y345124D01*
X288071Y345088D01*
X287964Y345012D01*
X289988Y347036D01*
X289912Y346929D01*
D02*
G37*
G36*
X321625Y342508D02*
X321606Y342649D01*
X321548Y342775D01*
X321452Y342886D01*
X321317Y342983D01*
X321143Y343064D01*
X320931Y343131D01*
X320680Y343183D01*
X320391Y343220D01*
X320063Y343243D01*
X319697Y343250D01*
Y344750D01*
X320063Y344757D01*
X320680Y344817D01*
X320931Y344869D01*
X321143Y344936D01*
X321317Y345017D01*
X321452Y345114D01*
X321548Y345225D01*
X321606Y345351D01*
X321625Y345492D01*
Y342508D01*
D02*
G37*
G36*
X142655Y342572D02*
X142720Y341849D01*
X142780Y341521D01*
X142859Y341216D01*
X142956Y340933D01*
X143072Y340674D01*
X143206Y340437D01*
X143359Y340223D01*
X143530Y340031D01*
X142469Y338970D01*
X142278Y339141D01*
X142063Y339294D01*
X141826Y339428D01*
X141567Y339543D01*
X141284Y339641D01*
X140979Y339720D01*
X140651Y339780D01*
X140301Y339822D01*
X139927Y339845D01*
X139532Y339850D01*
X142649Y342969D01*
X142655Y342572D01*
D02*
G37*
G36*
X288260Y336662D02*
X288290Y336443D01*
X288340Y336226D01*
X288410Y336012D01*
X289000D01*
X288858Y335997D01*
X288730Y335952D01*
X288618Y335877D01*
X288520Y335772D01*
X288517Y335768D01*
X288610Y335592D01*
X288740Y335386D01*
X288890Y335183D01*
X289060Y334983D01*
X289250Y334785D01*
X288257D01*
X288250Y334512D01*
X286750D01*
X286743Y334785D01*
X285750D01*
X285940Y334983D01*
X286110Y335183D01*
X286260Y335386D01*
X286390Y335592D01*
X286483Y335768D01*
X286480Y335772D01*
X286383Y335877D01*
X286270Y335952D01*
X286143Y335997D01*
X286000Y336012D01*
X286590D01*
X286660Y336226D01*
X286710Y336443D01*
X286740Y336662D01*
X286750Y336885D01*
X288250D01*
X288260Y336662D01*
D02*
G37*
G36*
X384517Y304087D02*
X384131Y303770D01*
X383784Y303838D01*
X383160D01*
X382958Y303865D01*
X382529Y303878D01*
X358524Y327883D01*
X357497Y328726D01*
X356324Y329353D01*
X355052Y329739D01*
X353728Y329869D01*
X330491D01*
X330243Y330073D01*
X328790Y330850D01*
X327214Y331328D01*
X325575Y331489D01*
X322425D01*
X320786Y331328D01*
X319210Y330850D01*
X317757Y330073D01*
X316484Y329028D01*
X315439Y327755D01*
X314662Y326302D01*
X314184Y324726D01*
X314022Y323087D01*
X313747Y322783D01*
X307000D01*
X305677Y322652D01*
X304404Y322266D01*
X303232Y321640D01*
X302204Y320796D01*
X301690Y320283D01*
X296000D01*
Y322000D01*
X289582D01*
Y326578D01*
X290096Y326734D01*
X291268Y327360D01*
X292296Y328204D01*
X293140Y329232D01*
X293767Y330404D01*
X293969Y331072D01*
X294198Y331340D01*
X294226Y331391D01*
X294263Y331436D01*
X294515Y331907D01*
X294775Y332372D01*
X294793Y332427D01*
X294820Y332478D01*
X294975Y332989D01*
X295140Y333496D01*
X295146Y333554D01*
X295163Y333609D01*
X295216Y334140D01*
X295278Y334670D01*
X295273Y334728D01*
X295279Y334785D01*
X295227Y335316D01*
X295185Y335848D01*
X295169Y335904D01*
X295163Y335962D01*
X295009Y336472D01*
X294997Y336513D01*
X294996Y336643D01*
X294981Y336717D01*
X295212Y337088D01*
X295413Y337217D01*
X318509D01*
X318757Y337013D01*
X320063Y336315D01*
Y333551D01*
X329937D01*
Y336315D01*
X331243Y337013D01*
X332516Y338058D01*
X333561Y339332D01*
X334338Y340784D01*
X334816Y342361D01*
X334978Y344000D01*
X334816Y345639D01*
X334338Y347216D01*
X334163Y347543D01*
X334338Y347871D01*
X334816Y349447D01*
X334978Y351087D01*
X334816Y352726D01*
X334338Y354302D01*
X333561Y355755D01*
X332516Y357028D01*
X331243Y358073D01*
X329790Y358850D01*
X328568Y359220D01*
X328642Y359720D01*
X348780D01*
Y365500D01*
X384517D01*
Y304087D01*
D02*
G37*
G36*
X327394Y324438D02*
X327452Y324312D01*
X327548Y324200D01*
X327683Y324104D01*
X327857Y324022D01*
X328069Y323955D01*
X328320Y323903D01*
X328609Y323866D01*
X328937Y323844D01*
X329303Y323837D01*
Y322337D01*
X328937Y322329D01*
X328320Y322270D01*
X328069Y322218D01*
X327857Y322151D01*
X327683Y322069D01*
X327548Y321973D01*
X327452Y321861D01*
X327394Y321735D01*
X327375Y321594D01*
Y324579D01*
X327394Y324438D01*
D02*
G37*
G36*
X152655Y322572D02*
X152720Y321849D01*
X152780Y321521D01*
X152859Y321216D01*
X152956Y320933D01*
X153072Y320674D01*
X153206Y320437D01*
X153359Y320222D01*
X153530Y320031D01*
X152469Y318970D01*
X152278Y319141D01*
X152063Y319294D01*
X151826Y319428D01*
X151567Y319543D01*
X151284Y319641D01*
X150979Y319720D01*
X150651Y319780D01*
X150301Y319822D01*
X149927Y319845D01*
X149531Y319850D01*
X152649Y322969D01*
X152655Y322572D01*
D02*
G37*
G36*
X320625Y314508D02*
X320606Y314649D01*
X320548Y314775D01*
X320452Y314886D01*
X320317Y314983D01*
X320143Y315064D01*
X319931Y315131D01*
X319680Y315183D01*
X319391Y315220D01*
X319063Y315243D01*
X318697Y315250D01*
Y316750D01*
X319063Y316757D01*
X319680Y316817D01*
X319931Y316869D01*
X320143Y316936D01*
X320317Y317017D01*
X320452Y317114D01*
X320548Y317225D01*
X320606Y317351D01*
X320625Y317492D01*
Y314508D01*
D02*
G37*
G36*
X289991Y314858D02*
X290037Y314730D01*
X290112Y314617D01*
X290218Y314520D01*
X290354Y314438D01*
X290521Y314370D01*
X290717Y314317D01*
X290944Y314280D01*
X291201Y314258D01*
X291488Y314250D01*
Y312750D01*
X291201Y312742D01*
X290944Y312720D01*
X290717Y312683D01*
X290521Y312630D01*
X290354Y312562D01*
X290218Y312480D01*
X290112Y312383D01*
X290037Y312270D01*
X289991Y312142D01*
X289976Y312000D01*
Y315000D01*
X289991Y314858D01*
D02*
G37*
G36*
X372945Y294278D02*
X372948Y293982D01*
X372976Y293717D01*
Y293031D01*
X373355Y291130D01*
X374096Y289340D01*
X375173Y287728D01*
X376543Y286358D01*
X378155Y285281D01*
X379945Y284540D01*
X381846Y284161D01*
X383784D01*
X384131Y284230D01*
X384517Y283913D01*
Y280310D01*
X354894Y250687D01*
X354826Y250733D01*
X353279Y251374D01*
X351968Y251635D01*
X351788Y251730D01*
X350421Y252145D01*
X349000Y252285D01*
X337582D01*
X336161Y252145D01*
X334794Y251730D01*
X333535Y251057D01*
X332889Y250527D01*
X332437Y250741D01*
Y252315D01*
X333743Y253013D01*
X335016Y254058D01*
X336061Y255332D01*
X336838Y256784D01*
X337316Y258361D01*
X337477Y260000D01*
X337316Y261639D01*
X336838Y263215D01*
X336663Y263543D01*
X336838Y263871D01*
X337316Y265447D01*
X337477Y267087D01*
X337316Y268726D01*
X336838Y270302D01*
X336061Y271755D01*
X335732Y272157D01*
X336013Y272602D01*
X337537D01*
X339179Y272929D01*
X340726Y273570D01*
X342118Y274500D01*
X343302Y275684D01*
X344232Y277076D01*
X344652Y278089D01*
X346732D01*
Y298911D01*
X326829D01*
X326329Y298911D01*
X326171Y298911D01*
X316570D01*
X315087Y300395D01*
X315033Y300526D01*
X314102Y301918D01*
X312918Y303102D01*
X311526Y304033D01*
X309979Y304673D01*
X308337Y305000D01*
X306663D01*
X305021Y304673D01*
X303474Y304033D01*
X302082Y303102D01*
X300898Y301918D01*
X299967Y300526D01*
X299327Y298979D01*
X299000Y297337D01*
Y295663D01*
X299327Y294021D01*
X299967Y292474D01*
X300898Y291082D01*
X302082Y289898D01*
X303474Y288967D01*
X305021Y288327D01*
X306268Y288079D01*
Y278089D01*
X326171D01*
X326671Y278089D01*
X326829Y278089D01*
X328748D01*
X329167Y277076D01*
X329949Y275905D01*
X329665Y275431D01*
X329075Y275489D01*
X325925D01*
X324286Y275328D01*
X322710Y274850D01*
X321257Y274073D01*
X319984Y273028D01*
X318939Y271755D01*
X318162Y270302D01*
X317684Y268726D01*
X317523Y267087D01*
X317684Y265447D01*
X318162Y263871D01*
X318337Y263543D01*
X318162Y263215D01*
X317684Y261639D01*
X317523Y260000D01*
X317684Y258361D01*
X318162Y256784D01*
X318939Y255332D01*
X319984Y254058D01*
X321257Y253013D01*
X322563Y252315D01*
Y249551D01*
X331177D01*
X331369Y249089D01*
X331132Y248853D01*
X331060Y248764D01*
X330974Y248689D01*
X330607Y248213D01*
X330226Y247749D01*
X330172Y247648D01*
X330103Y247558D01*
X329836Y247019D01*
X329553Y246489D01*
X329529Y246411D01*
X326171D01*
X326171Y246411D01*
X325829D01*
Y246411D01*
X325671Y246411D01*
X305768D01*
Y225589D01*
X308613D01*
X308653Y225181D01*
X309068Y223814D01*
X309741Y222555D01*
X310110Y222104D01*
X310226Y221521D01*
X310867Y219974D01*
X311797Y218582D01*
X312981Y217398D01*
X314373Y216468D01*
X315920Y215827D01*
X317563Y215500D01*
X319001D01*
X319208Y215000D01*
X299044Y194837D01*
X298583Y195028D01*
Y240492D01*
X298452Y241815D01*
X298066Y243088D01*
X297439Y244260D01*
X297043Y244743D01*
X303864Y251563D01*
X305188Y251827D01*
X306735Y252467D01*
X308127Y253398D01*
X309311Y254581D01*
X310241Y255974D01*
X310882Y257521D01*
X311209Y259163D01*
Y260837D01*
X310882Y262479D01*
X310241Y264026D01*
X309311Y265418D01*
X308127Y266602D01*
X306735Y267533D01*
X305188Y268173D01*
X303546Y268500D01*
X301871D01*
X300229Y268173D01*
X298682Y267533D01*
X297290Y266602D01*
X296106Y265418D01*
X295176Y264026D01*
X294535Y262479D01*
X294272Y261155D01*
X286408Y253292D01*
X284337D01*
X284146Y253753D01*
X287596Y257204D01*
X288439Y258231D01*
X289066Y259404D01*
X289452Y260677D01*
X289582Y262000D01*
Y292578D01*
X290096Y292734D01*
X291268Y293360D01*
X292296Y294204D01*
X293140Y295232D01*
X293767Y296404D01*
X293969Y297072D01*
X294198Y297340D01*
X294226Y297391D01*
X294263Y297436D01*
X294515Y297907D01*
X294775Y298372D01*
X294793Y298427D01*
X294820Y298478D01*
X294975Y298989D01*
X295140Y299496D01*
X295146Y299554D01*
X295163Y299609D01*
X295216Y300140D01*
X295278Y300670D01*
X295273Y300728D01*
X295279Y300785D01*
X295227Y301316D01*
X295185Y301848D01*
X295169Y301904D01*
X295163Y301961D01*
X295009Y302472D01*
X294997Y302513D01*
X294996Y302643D01*
X294940Y302913D01*
X294913Y303188D01*
X294822Y303491D01*
X294758Y303801D01*
X294650Y304055D01*
X294570Y304319D01*
X294474Y304500D01*
X294570Y304758D01*
X294794Y305000D01*
X296000D01*
Y306717D01*
X304500D01*
X305823Y306848D01*
X307095Y307234D01*
X308268Y307860D01*
X309296Y308704D01*
X309809Y309217D01*
X317509D01*
X317757Y309013D01*
X319063Y308315D01*
Y305551D01*
X328937D01*
Y308315D01*
X330243Y309013D01*
X331516Y310058D01*
X332561Y311332D01*
X333338Y312784D01*
X333816Y314361D01*
X333978Y316000D01*
X334253Y316304D01*
X350919D01*
X372945Y294278D01*
D02*
G37*
G36*
X402217Y303838D02*
X401531D01*
X399630Y303460D01*
X398498Y302992D01*
X398082Y303269D01*
Y365500D01*
X402217D01*
Y303838D01*
D02*
G37*
G36*
X288260Y302662D02*
X288290Y302443D01*
X288340Y302226D01*
X288410Y302012D01*
X289000D01*
X288858Y301997D01*
X288730Y301952D01*
X288618Y301877D01*
X288520Y301772D01*
X288517Y301767D01*
X288610Y301592D01*
X288740Y301386D01*
X288890Y301183D01*
X289060Y300983D01*
X289250Y300785D01*
X288257D01*
X288250Y300512D01*
X286750D01*
X286743Y300785D01*
X285750D01*
X285940Y300983D01*
X286110Y301183D01*
X286260Y301386D01*
X286390Y301592D01*
X286483Y301767D01*
X286480Y301772D01*
X286383Y301877D01*
X286270Y301952D01*
X286143Y301997D01*
X286000Y302012D01*
X286590D01*
X286660Y302226D01*
X286710Y302443D01*
X286740Y302662D01*
X286750Y302885D01*
X288250D01*
X288260Y302662D01*
D02*
G37*
G36*
X379274Y298629D02*
X379527Y298459D01*
X379814Y298308D01*
X380135Y298179D01*
X380490Y298070D01*
X380879Y297983D01*
X381302Y297915D01*
X381760Y297869D01*
X382777Y297838D01*
X378977Y294038D01*
X378972Y294564D01*
X378900Y295513D01*
X378832Y295936D01*
X378745Y296325D01*
X378636Y296680D01*
X378507Y297001D01*
X378357Y297288D01*
X378186Y297541D01*
X377994Y297760D01*
X379055Y298821D01*
X379274Y298629D01*
D02*
G37*
G36*
X337952Y284766D02*
X337957Y284497D01*
X337989Y284101D01*
X339202D01*
X338964Y284076D01*
X338752Y284001D01*
X338564Y283876D01*
X338402Y283701D01*
X338264Y283476D01*
X338187Y283286D01*
X338196Y283261D01*
X338271Y283118D01*
X338356Y282993D01*
X338451Y282886D01*
X338067Y282887D01*
X338064Y282876D01*
X338002Y282501D01*
X337964Y282076D01*
X337952Y281601D01*
X335452D01*
X335439Y282076D01*
X335402Y282501D01*
X335339Y282876D01*
X335336Y282889D01*
X334951Y282889D01*
X335046Y282996D01*
X335131Y283121D01*
X335207Y283264D01*
X335216Y283288D01*
X335139Y283476D01*
X335002Y283701D01*
X334839Y283876D01*
X334652Y284001D01*
X334439Y284076D01*
X334202Y284101D01*
X335416D01*
X335432Y284249D01*
X335452Y284769D01*
X337952Y284766D01*
D02*
G37*
G36*
X145166Y314892D02*
X146831Y314202D01*
X148599Y313850D01*
X149057D01*
X192817Y270091D01*
Y266728D01*
X192355Y266537D01*
X144428Y314464D01*
X144515Y315055D01*
X144746Y315173D01*
X145166Y314892D01*
D02*
G37*
G36*
X302684Y257500D02*
X302410Y257495D01*
X302148Y257473D01*
X301898Y257436D01*
X301661Y257382D01*
X301436Y257313D01*
X301222Y257227D01*
X301022Y257125D01*
X300833Y257007D01*
X300656Y256873D01*
X300492Y256723D01*
X299431Y257783D01*
X299582Y257948D01*
X299716Y258124D01*
X299834Y258313D01*
X299936Y258514D01*
X300021Y258727D01*
X300091Y258952D01*
X300145Y259190D01*
X300182Y259439D01*
X300203Y259701D01*
X300209Y259975D01*
X302684Y257500D01*
D02*
G37*
G36*
X130350Y358006D02*
Y353443D01*
X129804Y352896D01*
X128960Y351868D01*
X128333Y350695D01*
X127947Y349423D01*
X127817Y348100D01*
Y314700D01*
X127947Y313377D01*
X128333Y312105D01*
X128960Y310932D01*
X129804Y309904D01*
X184617Y255091D01*
Y252181D01*
X182676D01*
Y248441D01*
X180412D01*
X179826Y248833D01*
X178279Y249474D01*
X176637Y249800D01*
X174963D01*
X173320Y249474D01*
X171774Y248833D01*
X170591Y248043D01*
X131222D01*
Y252181D01*
X126353D01*
Y354662D01*
X129888Y358197D01*
X130350Y358006D01*
D02*
G37*
G36*
X118663Y366156D02*
X114775Y362267D01*
X113931Y361239D01*
X113304Y360067D01*
X112918Y358794D01*
X112788Y357471D01*
Y248441D01*
X103813D01*
Y248043D01*
X62256D01*
Y252181D01*
X60283D01*
X60282Y365191D01*
X61709Y366618D01*
X118472D01*
X118663Y366156D01*
D02*
G37*
G36*
X291049Y247280D02*
X290751Y246971D01*
X290282Y246418D01*
X290111Y246174D01*
X289982Y245951D01*
X289896Y245749D01*
X289852Y245569D01*
X289851Y245411D01*
X289893Y245274D01*
X289976Y245158D01*
X287867Y247268D01*
X287983Y247184D01*
X288120Y247143D01*
X288278Y247144D01*
X288458Y247187D01*
X288659Y247274D01*
X288882Y247402D01*
X289126Y247573D01*
X289392Y247786D01*
X289988Y248340D01*
X291049Y247280D01*
D02*
G37*
G36*
X192157Y247382D02*
X192180Y247125D01*
X192217Y246898D01*
X192270Y246701D01*
X192337Y246535D01*
X192420Y246399D01*
X192517Y246293D01*
X192630Y246217D01*
X192757Y246172D01*
X192900Y246157D01*
X189900D01*
X190042Y246172D01*
X190170Y246217D01*
X190282Y246293D01*
X190380Y246399D01*
X190462Y246535D01*
X190530Y246701D01*
X190582Y246898D01*
X190620Y247125D01*
X190642Y247382D01*
X190650Y247669D01*
X192150D01*
X192157Y247382D01*
D02*
G37*
G36*
X54258D02*
X54280Y247125D01*
X54317Y246898D01*
X54370Y246701D01*
X54438Y246535D01*
X54520Y246399D01*
X54618Y246293D01*
X54730Y246217D01*
X54857Y246172D01*
X55000Y246157D01*
X52000D01*
X52142Y246172D01*
X52270Y246217D01*
X52382Y246293D01*
X52480Y246399D01*
X52562Y246535D01*
X52630Y246701D01*
X52682Y246898D01*
X52720Y247125D01*
X52742Y247382D01*
X52750Y247669D01*
X54250D01*
X54258Y247382D01*
D02*
G37*
G36*
X263156Y246089D02*
X263201Y246018D01*
X263276Y245955D01*
X263381Y245901D01*
X263516Y245855D01*
X263681Y245817D01*
X263876Y245788D01*
X264101Y245766D01*
X264641Y245750D01*
Y244250D01*
X264356Y244246D01*
X263876Y244212D01*
X263681Y244183D01*
X263516Y244145D01*
X263381Y244099D01*
X263276Y244044D01*
X263201Y243982D01*
X263156Y243910D01*
X263141Y243831D01*
Y246169D01*
X263156Y246089D01*
D02*
G37*
G36*
X246650Y245965D02*
X246654Y245754D01*
X246687Y245322D01*
X246716Y245102D01*
X246853Y244422D01*
X246915Y244189D01*
X247064Y243713D01*
X244022Y245307D01*
X244236Y245379D01*
X244428Y245470D01*
X244597Y245580D01*
X244744Y245708D01*
X244868Y245854D01*
X244969Y246018D01*
X245048Y246201D01*
X245105Y246402D01*
X245139Y246622D01*
X245150Y246860D01*
X246650Y245965D01*
D02*
G37*
G36*
X436960Y244363D02*
X436990Y244143D01*
X437040Y243926D01*
X437110Y243712D01*
X437200Y243501D01*
X437310Y243292D01*
X437440Y243086D01*
X437590Y242883D01*
X437760Y242683D01*
X437950Y242486D01*
X434450D01*
X434640Y242683D01*
X434810Y242883D01*
X434960Y243086D01*
X435090Y243292D01*
X435200Y243501D01*
X435290Y243712D01*
X435360Y243926D01*
X435410Y244143D01*
X435440Y244363D01*
X435450Y244585D01*
X436950D01*
X436960Y244363D01*
D02*
G37*
G36*
X289903Y244308D02*
X289861Y244170D01*
Y244011D01*
X289903Y243831D01*
X289988Y243629D01*
X290115Y243407D01*
X290285Y243163D01*
X290497Y242898D01*
X291049Y242304D01*
X289988Y241243D01*
X289681Y241540D01*
X289129Y242007D01*
X288885Y242176D01*
X288662Y242304D01*
X288461Y242388D01*
X288281Y242431D01*
X288121D01*
X287983Y242388D01*
X287867Y242304D01*
X289988Y244425D01*
X289903Y244308D01*
D02*
G37*
G36*
X246612Y242723D02*
X246807Y242574D01*
X247014Y242442D01*
X247234Y242327D01*
X247465Y242230D01*
X247710Y242151D01*
X247966Y242089D01*
X248235Y242045D01*
X248517Y242019D01*
X248810Y242010D01*
X247756Y241137D01*
Y240504D01*
X247748Y240505D01*
X247726Y240506D01*
X247000Y240510D01*
Y241260D01*
X246430Y242891D01*
X246612Y242723D01*
D02*
G37*
G36*
X337346Y242394D02*
X337314Y241973D01*
X337315Y241602D01*
X337350Y241279D01*
X337419Y241007D01*
X337522Y240784D01*
X337658Y240610D01*
X337827Y240487D01*
X338031Y240412D01*
X338268Y240387D01*
X333199D01*
X333443Y240412D01*
X333671Y240487D01*
X333881Y240610D01*
X334075Y240784D01*
X334251Y241007D01*
X334410Y241279D01*
X334553Y241602D01*
X334678Y241973D01*
X334786Y242394D01*
X334877Y242865D01*
X337411D01*
X337346Y242394D01*
D02*
G37*
G36*
X177807Y242829D02*
X178004Y242657D01*
X178204Y242506D01*
X178407Y242374D01*
X178614Y242263D01*
X178679Y242235D01*
X178730Y242278D01*
X178775Y242350D01*
X178790Y242429D01*
Y242187D01*
X178824Y242172D01*
X179037Y242101D01*
X179254Y242051D01*
X179474Y242020D01*
X179697Y242010D01*
X179672Y240510D01*
X179450Y240500D01*
X179230Y240471D01*
X179013Y240421D01*
X178798Y240352D01*
X178790Y240349D01*
Y240091D01*
X178775Y240171D01*
X178730Y240242D01*
X178665Y240296D01*
X178586Y240263D01*
X178375Y240154D01*
X178167Y240026D01*
X177962Y239878D01*
X177758Y239710D01*
X177557Y239522D01*
X177573Y240501D01*
X177290Y240510D01*
Y242010D01*
X177575Y242014D01*
X177597Y242016D01*
X177613Y243021D01*
X177807Y242829D01*
D02*
G37*
G36*
X46362Y242350D02*
X46407Y242278D01*
X46482Y242215D01*
X46587Y242161D01*
X46722Y242115D01*
X46887Y242077D01*
X47082Y242048D01*
X47307Y242027D01*
X47847Y242010D01*
Y240510D01*
X47562Y240506D01*
X47082Y240472D01*
X46887Y240443D01*
X46722Y240405D01*
X46587Y240359D01*
X46482Y240305D01*
X46407Y240242D01*
X46362Y240171D01*
X46347Y240091D01*
Y242429D01*
X46362Y242350D01*
D02*
G37*
G36*
X174043Y239522D02*
X173842Y239710D01*
X173638Y239878D01*
X173432Y240026D01*
X173224Y240154D01*
X173014Y240263D01*
X172801Y240352D01*
X172586Y240421D01*
X172369Y240471D01*
X172150Y240500D01*
X171928Y240510D01*
X171903Y242010D01*
X172126Y242020D01*
X172346Y242051D01*
X172562Y242101D01*
X172776Y242172D01*
X172986Y242263D01*
X173192Y242374D01*
X173396Y242506D01*
X173596Y242657D01*
X173793Y242829D01*
X173986Y243021D01*
X174043Y239522D01*
D02*
G37*
G36*
X45057Y240088D02*
X44930Y240043D01*
X44817Y239967D01*
X44720Y239861D01*
X44637Y239725D01*
X44570Y239559D01*
X44517Y239362D01*
X44480Y239135D01*
X44457Y238878D01*
X44450Y238591D01*
X42950D01*
X42942Y238878D01*
X42920Y239135D01*
X42882Y239362D01*
X42830Y239559D01*
X42762Y239725D01*
X42680Y239861D01*
X42582Y239967D01*
X42470Y240043D01*
X42342Y240088D01*
X42200Y240103D01*
X45200D01*
X45057Y240088D01*
D02*
G37*
G36*
X50756Y236763D02*
X50748Y236765D01*
X50726Y236766D01*
X50000Y236770D01*
Y238270D01*
X50756Y238276D01*
Y236763D01*
D02*
G37*
G36*
X125225Y238609D02*
X125270Y238538D01*
X125345Y238475D01*
X125450Y238420D01*
X125585Y238374D01*
X125750Y238337D01*
X125945Y238307D01*
X126042Y238298D01*
X127895Y238349D01*
X126710Y236784D01*
Y236770D01*
X126699Y236769D01*
X125906Y235723D01*
X125879Y235922D01*
X125828Y236100D01*
X125753Y236257D01*
X125654Y236393D01*
X125531Y236508D01*
X125399Y236593D01*
X125345Y236564D01*
X125270Y236501D01*
X125225Y236430D01*
X125210Y236350D01*
Y236676D01*
X125018Y236728D01*
X124799Y236759D01*
X124556Y236770D01*
X124995Y238270D01*
X125210Y238275D01*
Y238689D01*
X125225Y238609D01*
D02*
G37*
G36*
X260157Y236347D02*
X260030Y236301D01*
X259917Y236225D01*
X259820Y236119D01*
X259737Y235983D01*
X259670Y235817D01*
X259617Y235620D01*
X259580Y235394D01*
X259557Y235137D01*
X259550Y234851D01*
X258050D01*
X258046Y235136D01*
X257986Y235810D01*
X257951Y235976D01*
X257907Y236110D01*
X257856Y236215D01*
X257796Y236291D01*
X257729Y236335D01*
X257653Y236350D01*
X260300Y236363D01*
X260157Y236347D01*
D02*
G37*
G36*
X192757Y236347D02*
X192630Y236302D01*
X192517Y236226D01*
X192420Y236121D01*
X192337Y235984D01*
X192270Y235818D01*
X192217Y235622D01*
X192180Y235395D01*
X192157Y235138D01*
X192150Y234851D01*
X190650D01*
X190642Y235138D01*
X190620Y235395D01*
X190582Y235622D01*
X190530Y235818D01*
X190462Y235984D01*
X190380Y236121D01*
X190282Y236226D01*
X190170Y236302D01*
X190042Y236347D01*
X189900Y236363D01*
X192900D01*
X192757Y236347D01*
D02*
G37*
G36*
X288260Y233954D02*
X288290Y233734D01*
X288340Y233517D01*
X288410Y233304D01*
X289000D01*
X288858Y233289D01*
X288730Y233244D01*
X288618Y233169D01*
X288520Y233064D01*
X288517Y233059D01*
X288610Y232883D01*
X288740Y232678D01*
X288890Y232475D01*
X289060Y232274D01*
X289250Y232077D01*
X288257D01*
X288250Y231804D01*
X286750D01*
X286743Y232077D01*
X285750D01*
X285940Y232274D01*
X286110Y232475D01*
X286260Y232678D01*
X286390Y232883D01*
X286483Y233059D01*
X286480Y233064D01*
X286383Y233169D01*
X286270Y233244D01*
X286143Y233289D01*
X286000Y233304D01*
X286590D01*
X286660Y233517D01*
X286710Y233734D01*
X286740Y233954D01*
X286750Y234176D01*
X288250D01*
X288260Y233954D01*
D02*
G37*
G36*
X318061Y231576D02*
X317848Y231501D01*
X317661Y231376D01*
X317498Y231201D01*
X317361Y230976D01*
X317248Y230701D01*
X317161Y230376D01*
X317098Y230001D01*
X317061Y229576D01*
X317048Y229101D01*
X314548D01*
X314536Y229576D01*
X314498Y230001D01*
X314436Y230376D01*
X314348Y230701D01*
X314236Y230976D01*
X314098Y231201D01*
X313936Y231376D01*
X313748Y231501D01*
X313536Y231576D01*
X313298Y231601D01*
X318298D01*
X318061Y231576D01*
D02*
G37*
G36*
X316894Y227275D02*
X317801Y226481D01*
X317858Y226454D01*
X317897Y226449D01*
X315951Y224504D01*
X315946Y224542D01*
X315920Y224599D01*
X315871Y224674D01*
X315801Y224767D01*
X315596Y225008D01*
X314924Y225708D01*
X316692Y227476D01*
X316894Y227275D01*
D02*
G37*
G36*
X425117Y231700D02*
X425247Y230377D01*
X425633Y229105D01*
X426260Y227932D01*
X427104Y226904D01*
X458317Y195691D01*
Y182246D01*
X457901Y181968D01*
X456712Y182460D01*
X454811Y182839D01*
X452873D01*
X450973Y182460D01*
X449182Y181719D01*
X447571Y180642D01*
X446200Y179272D01*
X445124Y177660D01*
X444382Y175870D01*
X444004Y173969D01*
Y172031D01*
X444382Y170130D01*
X445124Y168340D01*
X446200Y166728D01*
X447571Y165358D01*
X449182Y164281D01*
X450973Y163540D01*
X452873Y163161D01*
X454811D01*
X456712Y163540D01*
X457901Y164032D01*
X458317Y163754D01*
Y118249D01*
X457855Y118058D01*
X457771Y118142D01*
X456160Y119219D01*
X454369Y119960D01*
X452469Y120338D01*
X450531D01*
X448630Y119960D01*
X446839Y119219D01*
X445228Y118142D01*
X443857Y116771D01*
X442781Y115160D01*
X442039Y113370D01*
X441661Y111469D01*
Y109531D01*
X442039Y107630D01*
X442781Y105840D01*
X443857Y104228D01*
X445228Y102858D01*
X446839Y101781D01*
X448630Y101039D01*
X450531Y100661D01*
X452469D01*
X454369Y101039D01*
X456160Y101781D01*
X457771Y102858D01*
X457912Y102999D01*
X458383Y102830D01*
X458448Y102177D01*
X458833Y100905D01*
X459460Y99732D01*
X460304Y98704D01*
X474003Y85005D01*
X473811Y84543D01*
X458457D01*
Y65457D01*
X463457D01*
Y64402D01*
X463687Y63543D01*
X463480Y63457D01*
X461916Y62413D01*
X460587Y61084D01*
X459543Y59520D01*
X458823Y57784D01*
X458457Y55940D01*
Y54060D01*
X458823Y52216D01*
X459543Y50480D01*
X460587Y48917D01*
X461916Y47587D01*
X463480Y46543D01*
X465216Y45823D01*
X467060Y45457D01*
X468940D01*
X470784Y45823D01*
X472520Y46543D01*
X474084Y47587D01*
X475413Y48917D01*
X476457Y50480D01*
X477177Y52216D01*
X477500Y53842D01*
X478000Y53793D01*
Y52500D01*
X488398D01*
X488558Y52339D01*
X488821Y51015D01*
X489462Y49468D01*
X490392Y48076D01*
X491576Y46892D01*
X492969Y45962D01*
X494515Y45321D01*
X496158Y44995D01*
X497832D01*
X499474Y45321D01*
X500968Y45940D01*
X502717Y44190D01*
Y37750D01*
X502848Y36427D01*
X503234Y35154D01*
X503860Y33982D01*
X504704Y32954D01*
X506196Y31462D01*
X506005Y31000D01*
X505000D01*
X505000Y31000D01*
X504500Y31000D01*
X495750D01*
X494033Y29283D01*
X488500D01*
Y35500D01*
X471500D01*
Y33783D01*
X283910D01*
X249999Y67693D01*
X250097Y68183D01*
X251160Y68624D01*
X252772Y69701D01*
X254142Y71071D01*
X255219Y72682D01*
X255960Y74473D01*
X256339Y76374D01*
Y78312D01*
X255960Y80213D01*
X255813Y80568D01*
X256149Y80939D01*
X256777Y80748D01*
X258100Y80618D01*
X300600D01*
X301923Y80748D01*
X303195Y81134D01*
X304368Y81761D01*
X305396Y82604D01*
X308306Y85514D01*
X308768Y85323D01*
Y84089D01*
X311513D01*
Y83702D01*
X311653Y82281D01*
X312068Y80914D01*
X312741Y79654D01*
X313647Y78550D01*
X322240Y69958D01*
X322327Y69521D01*
X322967Y67974D01*
X323898Y66582D01*
X325082Y65398D01*
X326474Y64467D01*
X328021Y63827D01*
X329663Y63500D01*
X331337D01*
X332979Y63827D01*
X334526Y64467D01*
X335918Y65398D01*
X337102Y66582D01*
X338033Y67974D01*
X338673Y69521D01*
X339000Y71163D01*
Y72837D01*
X338673Y74479D01*
X338033Y76026D01*
X337102Y77418D01*
X335918Y78602D01*
X334526Y79533D01*
X332979Y80173D01*
X332542Y80260D01*
X329214Y83589D01*
X329421Y84089D01*
X338930D01*
X346000Y77018D01*
Y76163D01*
X346327Y74521D01*
X346967Y72974D01*
X347898Y71582D01*
X349082Y70398D01*
X350474Y69467D01*
X352021Y68827D01*
X353663Y68500D01*
X355337D01*
X356979Y68827D01*
X358526Y69467D01*
X359918Y70398D01*
X361102Y71582D01*
X362033Y72974D01*
X362673Y74521D01*
X363000Y76163D01*
Y77837D01*
X362673Y79479D01*
X362033Y81026D01*
X361102Y82418D01*
X359918Y83602D01*
X359733Y83726D01*
X358982Y84642D01*
X349232Y94391D01*
Y104911D01*
X329329D01*
X328829Y104911D01*
X328671Y104911D01*
X311982D01*
Y108891D01*
X324099Y121008D01*
X324551Y120794D01*
X324522Y120500D01*
X324684Y118861D01*
X325162Y117284D01*
X325938Y115832D01*
X326983Y114558D01*
X328257Y113513D01*
X329563Y112815D01*
Y110051D01*
X339437D01*
Y112815D01*
X340743Y113513D01*
X342016Y114558D01*
X343061Y115832D01*
X343837Y117284D01*
X344316Y118861D01*
X344477Y120500D01*
X344316Y122139D01*
X343837Y123715D01*
X343662Y124043D01*
X343837Y124371D01*
X344316Y125947D01*
X344477Y127587D01*
X344316Y129226D01*
X343837Y130802D01*
X343061Y132255D01*
X342016Y133528D01*
X340743Y134573D01*
X339290Y135350D01*
X339104Y135406D01*
X338983Y135891D01*
X356296Y153205D01*
X357140Y154232D01*
X357766Y155405D01*
X358152Y156677D01*
X358283Y158001D01*
Y219791D01*
X374840Y236349D01*
X375301Y236103D01*
X374976Y234469D01*
Y232531D01*
X375355Y230630D01*
X376096Y228840D01*
X377173Y227228D01*
X378543Y225858D01*
X380155Y224781D01*
X381945Y224040D01*
X383846Y223662D01*
X385784D01*
X387685Y224040D01*
X389475Y224781D01*
X391087Y225858D01*
X392457Y227228D01*
X393534Y228840D01*
X394275Y230630D01*
X394403Y231269D01*
X394912D01*
X395040Y230630D01*
X395781Y228840D01*
X396858Y227228D01*
X398228Y225858D01*
X399840Y224781D01*
X401630Y224040D01*
X403531Y223662D01*
X405469D01*
X407370Y224040D01*
X409160Y224781D01*
X410772Y225858D01*
X412142Y227228D01*
X413219Y228840D01*
X413961Y230630D01*
X414339Y232531D01*
Y234469D01*
X413961Y236370D01*
X413219Y238160D01*
X412142Y239772D01*
X410772Y241142D01*
X409160Y242219D01*
X407370Y242961D01*
X405469Y243339D01*
X403531D01*
X401630Y242961D01*
X399840Y242219D01*
X398228Y241142D01*
X396858Y239772D01*
X395781Y238160D01*
X395040Y236370D01*
X394912Y235731D01*
X394403D01*
X394275Y236370D01*
X393534Y238160D01*
X392457Y239772D01*
X391087Y241142D01*
X389475Y242219D01*
X387685Y242961D01*
X385784Y243339D01*
X383846D01*
X382212Y243014D01*
X381966Y243475D01*
X413796Y275304D01*
X414639Y276332D01*
X415266Y277505D01*
X415652Y278777D01*
X415782Y280100D01*
Y365500D01*
X425117D01*
Y231700D01*
D02*
G37*
G36*
X251641Y230339D02*
X252017D01*
Y213510D01*
X245194Y206687D01*
X244732Y206878D01*
Y231218D01*
X251641D01*
Y230339D01*
D02*
G37*
G36*
X43029Y222483D02*
X42652Y192161D01*
X42253Y191859D01*
X41637Y192024D01*
X41500D01*
Y187185D01*
X40500D01*
Y192024D01*
X40363D01*
X40179Y191975D01*
X39783Y192279D01*
Y219891D01*
X42569Y222677D01*
X43029Y222483D01*
D02*
G37*
G36*
X192817Y206872D02*
Y203098D01*
X180847Y191129D01*
X179868Y191694D01*
X178637Y192024D01*
X178023D01*
X177815Y192524D01*
X192355Y207064D01*
X192817Y206872D01*
D02*
G37*
G36*
X289060Y187018D02*
X288890Y186817D01*
X288740Y186614D01*
X288610Y186409D01*
X288500Y186200D01*
X288410Y185989D01*
X288340Y185775D01*
X288290Y185558D01*
X288260Y185338D01*
X288250Y185116D01*
X286750D01*
X286740Y185338D01*
X286710Y185558D01*
X286660Y185775D01*
X286590Y185989D01*
X286500Y186200D01*
X286390Y186409D01*
X286260Y186614D01*
X286110Y186817D01*
X285940Y187018D01*
X285750Y187215D01*
X289250D01*
X289060Y187018D01*
D02*
G37*
G36*
X344717Y220672D02*
Y176911D01*
X332994D01*
X332533Y178026D01*
X331602Y179418D01*
X331432Y179589D01*
X331623Y180051D01*
X335937D01*
Y182815D01*
X337243Y183513D01*
X338516Y184558D01*
X339561Y185832D01*
X340338Y187284D01*
X340816Y188861D01*
X340978Y190500D01*
X340816Y192139D01*
X340338Y193716D01*
X340163Y194043D01*
X340338Y194371D01*
X340816Y195947D01*
X340978Y197587D01*
X340816Y199226D01*
X340338Y200802D01*
X339561Y202255D01*
X338516Y203528D01*
X337243Y204573D01*
X335790Y205350D01*
X334214Y205828D01*
X332575Y205989D01*
X330088D01*
X329881Y206489D01*
X344255Y220864D01*
X344717Y220672D01*
D02*
G37*
G36*
X288258Y179784D02*
X288280Y179527D01*
X288318Y179300D01*
X288370Y179104D01*
X288438Y178937D01*
X288520Y178801D01*
X288618Y178695D01*
X288730Y178620D01*
X288745Y178615D01*
X288882Y178694D01*
X289126Y178865D01*
X289392Y179078D01*
X289988Y179632D01*
X291049Y178571D01*
X290751Y178263D01*
X290282Y177710D01*
X290111Y177465D01*
X289982Y177243D01*
X289896Y177041D01*
X289852Y176861D01*
X289851Y176703D01*
X289893Y176566D01*
X289976Y176450D01*
X287867Y178559D01*
X286000D01*
X286143Y178575D01*
X286270Y178620D01*
X286383Y178695D01*
X286480Y178801D01*
X286563Y178937D01*
X286630Y179104D01*
X286683Y179300D01*
X286720Y179527D01*
X286743Y179784D01*
X286750Y180071D01*
X288250D01*
X288258Y179784D01*
D02*
G37*
G36*
X324563Y171538D02*
X324418Y171553D01*
X324267Y171545D01*
X324111Y171514D01*
X323949Y171462D01*
X323782Y171387D01*
X323610Y171291D01*
X323432Y171172D01*
X323249Y171030D01*
X323060Y170867D01*
X322965Y170775D01*
X322588Y170386D01*
X321808Y169465D01*
X321524Y169058D01*
X321311Y168687D01*
X321168Y168351D01*
X321096Y168051D01*
X321095Y167786D01*
X321164Y167557D01*
X321305Y167364D01*
X317781Y170887D01*
X317974Y170747D01*
X318203Y170678D01*
X318468Y170679D01*
X318768Y170751D01*
X319104Y170893D01*
X319475Y171107D01*
X319882Y171391D01*
X320325Y171746D01*
X321317Y172667D01*
X321967Y172017D01*
X321444Y172794D01*
X321633Y172989D01*
X322094Y173525D01*
X322211Y173688D01*
X322311Y173844D01*
X322393Y173992D01*
X322457Y174131D01*
X322502Y174263D01*
X322530Y174387D01*
X324563Y171538D01*
D02*
G37*
G36*
X288260Y165246D02*
X288290Y165026D01*
X288340Y164809D01*
X288410Y164595D01*
X289000D01*
X288858Y164580D01*
X288730Y164535D01*
X288618Y164460D01*
X288520Y164355D01*
X288517Y164351D01*
X288610Y164175D01*
X288740Y163969D01*
X288890Y163766D01*
X289060Y163566D01*
X289250Y163369D01*
X288257D01*
X288250Y163095D01*
X286750D01*
X286743Y163369D01*
X285750D01*
X285940Y163566D01*
X286110Y163766D01*
X286260Y163969D01*
X286390Y164175D01*
X286483Y164351D01*
X286480Y164355D01*
X286383Y164460D01*
X286270Y164535D01*
X286143Y164580D01*
X286000Y164595D01*
X286590D01*
X286660Y164809D01*
X286710Y165026D01*
X286740Y165246D01*
X286750Y165468D01*
X288250D01*
X288260Y165246D01*
D02*
G37*
G36*
X279000Y247955D02*
Y236292D01*
X280206D01*
X280431Y236050D01*
X280527Y235792D01*
X280430Y235611D01*
X280350Y235347D01*
X280243Y235092D01*
X280179Y234783D01*
X280087Y234480D01*
X280060Y234205D01*
X280004Y233935D01*
X280003Y233804D01*
X279992Y233764D01*
X279837Y233253D01*
X279831Y233195D01*
X279816Y233139D01*
X279773Y232608D01*
X279721Y232077D01*
X279727Y232019D01*
X279722Y231961D01*
X279785Y231431D01*
X279837Y230901D01*
X279854Y230845D01*
X279861Y230788D01*
X280025Y230280D01*
X280180Y229770D01*
X280207Y229719D01*
X280225Y229663D01*
X280486Y229198D01*
X280737Y228727D01*
X280774Y228682D01*
X280802Y228632D01*
X281031Y228364D01*
X281234Y227696D01*
X281861Y226523D01*
X282704Y225496D01*
X283732Y224652D01*
X284905Y224025D01*
X285017Y223991D01*
Y197172D01*
X283474Y196533D01*
X282082Y195603D01*
X280898Y194419D01*
X279968Y193027D01*
X279327Y191480D01*
X279000Y189838D01*
Y188163D01*
X279327Y186521D01*
X279922Y185083D01*
X279705Y184583D01*
X279000D01*
Y167583D01*
X280206D01*
X280431Y167341D01*
X280527Y167083D01*
X280430Y166903D01*
X280350Y166638D01*
X280243Y166384D01*
X280179Y166074D01*
X280087Y165772D01*
X280060Y165497D01*
X280004Y165226D01*
X280003Y165096D01*
X279992Y165055D01*
X279837Y164545D01*
X279831Y164487D01*
X279816Y164431D01*
X279773Y163900D01*
X279721Y163369D01*
X279650Y163172D01*
X279393Y162883D01*
X260710D01*
X256370Y167223D01*
X256367Y167519D01*
X256339Y167783D01*
Y168469D01*
X255960Y170370D01*
X255219Y172161D01*
X254142Y173772D01*
X252772Y175143D01*
X251160Y176219D01*
X249370Y176961D01*
X247682Y177296D01*
Y182493D01*
X248368Y182676D01*
X249471Y183314D01*
X250372Y184214D01*
X251009Y185318D01*
X251339Y186548D01*
Y187822D01*
X251009Y189053D01*
X250372Y190156D01*
X249471Y191057D01*
X249369Y191116D01*
X249304Y191612D01*
X263596Y205904D01*
X264439Y206932D01*
X265066Y208105D01*
X265452Y209377D01*
X265582Y210700D01*
Y230339D01*
X269153D01*
Y237819D01*
Y239138D01*
X269568Y239360D01*
X270596Y240204D01*
X278538Y248146D01*
X279000Y247955D01*
D02*
G37*
G36*
X250343Y166937D02*
X250415Y165988D01*
X250483Y165565D01*
X250570Y165175D01*
X250679Y164820D01*
X250808Y164499D01*
X250958Y164212D01*
X251129Y163959D01*
X251321Y163740D01*
X250260Y162680D01*
X250041Y162871D01*
X249788Y163042D01*
X249501Y163192D01*
X249180Y163321D01*
X248825Y163430D01*
X248436Y163518D01*
X248012Y163585D01*
X247555Y163631D01*
X246538Y163662D01*
X250338Y167462D01*
X250343Y166937D01*
D02*
G37*
G36*
X181843D02*
X181915Y165988D01*
X181983Y165565D01*
X182070Y165175D01*
X182179Y164820D01*
X182308Y164499D01*
X182458Y164212D01*
X182629Y163959D01*
X182821Y163740D01*
X181760Y162680D01*
X181541Y162871D01*
X181288Y163042D01*
X181001Y163192D01*
X180680Y163321D01*
X180325Y163430D01*
X179936Y163518D01*
X179513Y163585D01*
X179055Y163631D01*
X178038Y163662D01*
X181838Y167462D01*
X181843Y166937D01*
D02*
G37*
G36*
X42217Y157265D02*
X41852Y127945D01*
X41278Y127370D01*
X40982Y127367D01*
X40717Y127339D01*
X40031D01*
X39783Y127543D01*
Y157458D01*
X40031Y157662D01*
X41722D01*
X42217Y157265D01*
D02*
G37*
G36*
X285017Y129191D02*
Y127872D01*
X283474Y127233D01*
X282082Y126303D01*
X280898Y125119D01*
X280496Y124518D01*
X279999Y124469D01*
X272812Y131656D01*
X273003Y132118D01*
X282090D01*
X285017Y129191D01*
D02*
G37*
G36*
X45821Y121261D02*
X45629Y121042D01*
X45458Y120789D01*
X45308Y120502D01*
X45179Y120180D01*
X45070Y119825D01*
X44983Y119436D01*
X44915Y119013D01*
X44869Y118555D01*
X44838Y117539D01*
X41038Y121339D01*
X41564Y121344D01*
X42513Y121416D01*
X42936Y121483D01*
X43325Y121571D01*
X43680Y121679D01*
X44001Y121809D01*
X44288Y121959D01*
X44541Y122130D01*
X44760Y122321D01*
X45821Y121261D01*
D02*
G37*
G36*
X289060Y117718D02*
X288890Y117517D01*
X288740Y117314D01*
X288610Y117109D01*
X288500Y116900D01*
X288410Y116689D01*
X288340Y116475D01*
X288290Y116258D01*
X288260Y116038D01*
X288250Y115815D01*
X286750D01*
X286740Y116038D01*
X286710Y116258D01*
X286660Y116475D01*
X286590Y116689D01*
X286500Y116900D01*
X286390Y117109D01*
X286260Y117314D01*
X286110Y117517D01*
X285940Y117718D01*
X285750Y117915D01*
X289250D01*
X289060Y117718D01*
D02*
G37*
G36*
X321082Y196983D02*
X321184Y195947D01*
X321662Y194371D01*
X321837Y194043D01*
X321662Y193716D01*
X321184Y192139D01*
X321023Y190500D01*
X321184Y188861D01*
X321662Y187284D01*
X322439Y185832D01*
X323484Y184558D01*
X324757Y183513D01*
X325717Y183000D01*
X325592Y182500D01*
X324163D01*
X322521Y182173D01*
X320974Y181533D01*
X319582Y180602D01*
X318398Y179418D01*
X317467Y178026D01*
X317006Y176911D01*
X307268D01*
Y156089D01*
X327171D01*
X327329Y156089D01*
Y156089D01*
X327671D01*
Y156089D01*
X339343D01*
X339534Y155627D01*
X300404Y116496D01*
X299560Y115469D01*
X299082Y114575D01*
X298583Y114700D01*
Y132000D01*
X298452Y133324D01*
X298066Y134596D01*
X297439Y135769D01*
X296596Y136796D01*
X289696Y143696D01*
X288668Y144540D01*
X287495Y145167D01*
X286223Y145553D01*
X284900Y145683D01*
X264809D01*
X261636Y148856D01*
X261828Y149318D01*
X292000D01*
X293323Y149448D01*
X294595Y149834D01*
X295768Y150461D01*
X296796Y151304D01*
X302296Y156804D01*
X303139Y157832D01*
X303766Y159005D01*
X304152Y160277D01*
X304282Y161600D01*
Y180891D01*
X320561Y197170D01*
X321082Y196983D01*
D02*
G37*
G36*
X250343Y116937D02*
X250415Y115988D01*
X250483Y115565D01*
X250570Y115175D01*
X250679Y114820D01*
X250808Y114499D01*
X250958Y114212D01*
X251129Y113959D01*
X251321Y113740D01*
X250260Y112680D01*
X250041Y112871D01*
X249788Y113042D01*
X249501Y113192D01*
X249180Y113321D01*
X248825Y113430D01*
X248436Y113518D01*
X248012Y113585D01*
X247555Y113631D01*
X246538Y113662D01*
X250338Y117462D01*
X250343Y116937D01*
D02*
G37*
G36*
X288258Y111076D02*
X288280Y110819D01*
X288318Y110592D01*
X288370Y110395D01*
X288438Y110229D01*
X288520Y110093D01*
X288618Y109987D01*
X288730Y109911D01*
X288858Y109866D01*
X289000Y109851D01*
X287134D01*
X285024Y107742D01*
X285108Y107857D01*
X285149Y107994D01*
X285148Y108153D01*
X285104Y108333D01*
X285018Y108534D01*
X284890Y108757D01*
X284719Y109001D01*
X284506Y109267D01*
X283951Y109863D01*
X285012Y110924D01*
X285321Y110626D01*
X285874Y110156D01*
X286118Y109985D01*
X286256Y109906D01*
X286270Y109911D01*
X286383Y109987D01*
X286480Y110093D01*
X286563Y110229D01*
X286630Y110395D01*
X286683Y110592D01*
X286720Y110819D01*
X286743Y111076D01*
X286750Y111363D01*
X288250D01*
X288258Y111076D01*
D02*
G37*
G36*
X231167Y251541D02*
Y156925D01*
X231297Y155602D01*
X231683Y154330D01*
X232310Y153157D01*
X233154Y152129D01*
X274938Y110345D01*
X274747Y109883D01*
X263709D01*
X256370Y117223D01*
X256367Y117519D01*
X256339Y117783D01*
Y118469D01*
X255960Y120370D01*
X255219Y122161D01*
X254142Y123772D01*
X252772Y125143D01*
X251160Y126219D01*
X249370Y126961D01*
X247469Y127339D01*
X245531D01*
X243630Y126961D01*
X241840Y126219D01*
X240228Y125143D01*
X238858Y123772D01*
X237781Y122161D01*
X237039Y120370D01*
X236772Y119027D01*
X236230Y118863D01*
X187870Y167223D01*
X187867Y167519D01*
X187839Y167783D01*
Y168469D01*
X187460Y170370D01*
X186719Y172161D01*
X185642Y173772D01*
X184512Y174902D01*
X184465Y175562D01*
X204396Y195493D01*
X205239Y196520D01*
X205866Y197693D01*
X206252Y198966D01*
X206382Y200289D01*
Y272900D01*
X206252Y274223D01*
X205866Y275496D01*
X205239Y276668D01*
X204813Y277188D01*
X205184Y277524D01*
X231167Y251541D01*
D02*
G37*
G36*
X288260Y96537D02*
X288290Y96318D01*
X288340Y96101D01*
X288410Y95887D01*
X289000D01*
X288858Y95872D01*
X288730Y95827D01*
X288618Y95752D01*
X288520Y95647D01*
X288517Y95643D01*
X288610Y95467D01*
X288740Y95261D01*
X288890Y95058D01*
X289060Y94858D01*
X289250Y94660D01*
X288257D01*
X288250Y94387D01*
X286750D01*
X286743Y94660D01*
X285750D01*
X285940Y94858D01*
X286110Y95058D01*
X286260Y95261D01*
X286390Y95467D01*
X286483Y95643D01*
X286480Y95647D01*
X286383Y95752D01*
X286270Y95827D01*
X286143Y95872D01*
X286000Y95887D01*
X286590D01*
X286660Y96101D01*
X286710Y96318D01*
X286740Y96537D01*
X286750Y96760D01*
X288250D01*
X288260Y96537D01*
D02*
G37*
G36*
X259577Y96448D02*
X260900Y96318D01*
X279563D01*
X279834Y95952D01*
X279835Y95818D01*
X279831Y95779D01*
X279816Y95723D01*
X279773Y95191D01*
X279721Y94660D01*
X279626Y94437D01*
X279401Y94183D01*
X260910D01*
X258988Y96104D01*
X259254Y96546D01*
X259577Y96448D01*
D02*
G37*
G36*
X343079Y93442D02*
X343008Y93212D01*
Y92947D01*
X343079Y92646D01*
X343220Y92310D01*
X343432Y91939D01*
X343715Y91532D01*
X344069Y91091D01*
X344988Y90101D01*
X343220Y88333D01*
X342708Y88828D01*
X341788Y89606D01*
X341382Y89888D01*
X341011Y90101D01*
X340675Y90242D01*
X340374Y90313D01*
X340109D01*
X339879Y90242D01*
X339685Y90101D01*
X343220Y93636D01*
X343079Y93442D01*
D02*
G37*
G36*
X321061Y90076D02*
X320848Y90001D01*
X320661Y89876D01*
X320498Y89701D01*
X320361Y89476D01*
X320248Y89201D01*
X320161Y88876D01*
X320098Y88501D01*
X320061Y88076D01*
X320048Y87601D01*
X317548D01*
X317536Y88076D01*
X317498Y88501D01*
X317436Y88876D01*
X317348Y89201D01*
X317236Y89476D01*
X317098Y89701D01*
X316936Y89876D01*
X316748Y90001D01*
X316536Y90076D01*
X316298Y90101D01*
X321298D01*
X321061Y90076D01*
D02*
G37*
G36*
X248430Y87478D02*
X248195Y87037D01*
X247469Y87181D01*
X245531D01*
X243630Y86803D01*
X241840Y86062D01*
X240228Y84985D01*
X238858Y83614D01*
X237781Y82003D01*
X237341Y80940D01*
X236850Y80842D01*
X178283Y139410D01*
Y156919D01*
X178783Y157126D01*
X248430Y87478D01*
D02*
G37*
G36*
X354779Y78665D02*
X354737Y78588D01*
X354700Y78503D01*
X354668Y78409D01*
X354642Y78307D01*
X354620Y78196D01*
X354602Y78077D01*
X354583Y77814D01*
X354580Y77670D01*
X353080D01*
X353078Y77814D01*
X353058Y78077D01*
X353041Y78196D01*
X353019Y78307D01*
X352992Y78409D01*
X352960Y78503D01*
X352924Y78588D01*
X352882Y78665D01*
X352835Y78734D01*
X354825D01*
X354779Y78665D01*
D02*
G37*
G36*
X328986Y75289D02*
X329356Y74975D01*
X329533Y74848D01*
X329704Y74740D01*
X329870Y74653D01*
X330030Y74585D01*
X330184Y74537D01*
X330332Y74508D01*
X330475Y74500D01*
X328000Y72025D01*
X327992Y72168D01*
X327963Y72316D01*
X327915Y72470D01*
X327847Y72630D01*
X327760Y72796D01*
X327652Y72967D01*
X327525Y73144D01*
X327378Y73326D01*
X327025Y73708D01*
X328792Y75476D01*
X328986Y75289D01*
D02*
G37*
G36*
X471446Y73473D02*
X471404Y73335D01*
Y73176D01*
X471446Y72996D01*
X471531Y72795D01*
X471659Y72572D01*
X471828Y72328D01*
X472040Y72063D01*
X472592Y71469D01*
X471531Y70408D01*
X471224Y70705D01*
X470672Y71172D01*
X470428Y71341D01*
X470205Y71469D01*
X470004Y71553D01*
X469824Y71596D01*
X469664D01*
X469527Y71553D01*
X469410Y71469D01*
X471531Y73590D01*
X471446Y73473D01*
D02*
G37*
G36*
X484024Y68500D02*
X484009Y68642D01*
X483963Y68770D01*
X483888Y68883D01*
X483782Y68980D01*
X483646Y69063D01*
X483480Y69130D01*
X483283Y69182D01*
X483056Y69220D01*
X482799Y69243D01*
X482512Y69250D01*
Y70750D01*
X482799Y70758D01*
X483056Y70780D01*
X483283Y70818D01*
X483480Y70870D01*
X483646Y70938D01*
X483782Y71020D01*
X483888Y71118D01*
X483963Y71230D01*
X484009Y71358D01*
X484024Y71500D01*
Y68500D01*
D02*
G37*
G36*
X488892Y69518D02*
X488851Y69381D01*
X488852Y69222D01*
X488896Y69042D01*
X488982Y68841D01*
X489111Y68618D01*
X489281Y68374D01*
X489495Y68108D01*
X490049Y67512D01*
X488988Y66451D01*
X488679Y66750D01*
X488126Y67219D01*
X487882Y67390D01*
X487659Y67518D01*
X487458Y67604D01*
X487278Y67648D01*
X487119Y67649D01*
X486982Y67608D01*
X486867Y67524D01*
X488976Y69633D01*
X488892Y69518D01*
D02*
G37*
G36*
X507505Y59701D02*
X507526Y59439D01*
X507564Y59190D01*
X507618Y58952D01*
X507687Y58727D01*
X507773Y58514D01*
X507875Y58313D01*
X507993Y58124D01*
X508127Y57948D01*
X508277Y57783D01*
X507217Y56723D01*
X507052Y56873D01*
X506876Y57007D01*
X506687Y57125D01*
X506486Y57227D01*
X506273Y57313D01*
X506048Y57382D01*
X505810Y57436D01*
X505561Y57473D01*
X505299Y57495D01*
X505025Y57500D01*
X507500Y59975D01*
X507505Y59701D01*
D02*
G37*
G36*
X511833Y53673D02*
X511818Y53816D01*
X511772Y53943D01*
X511697Y54056D01*
X511591Y54153D01*
X511455Y54236D01*
X511288Y54303D01*
X511092Y54356D01*
X510865Y54393D01*
X510608Y54416D01*
X510321Y54423D01*
Y55923D01*
X510608Y55931D01*
X510865Y55953D01*
X511092Y55991D01*
X511288Y56043D01*
X511455Y56111D01*
X511591Y56193D01*
X511697Y56291D01*
X511772Y56403D01*
X511818Y56531D01*
X511833Y56673D01*
Y53673D01*
D02*
G37*
G36*
X523970Y51549D02*
X523924Y51445D01*
X523883Y51320D01*
X523848Y51172D01*
X523818Y51002D01*
X523774Y50596D01*
X523753Y50102D01*
X523750Y49822D01*
X522250D01*
X522247Y50102D01*
X522182Y51002D01*
X522152Y51172D01*
X522117Y51320D01*
X522076Y51445D01*
X522030Y51549D01*
X521979Y51631D01*
X524021D01*
X523970Y51549D01*
D02*
G37*
G36*
X518970D02*
X518924Y51445D01*
X518883Y51320D01*
X518848Y51172D01*
X518818Y51002D01*
X518774Y50596D01*
X518753Y50102D01*
X518750Y49822D01*
X517250D01*
X517247Y50102D01*
X517182Y51002D01*
X517152Y51172D01*
X517117Y51320D01*
X517076Y51445D01*
X517030Y51549D01*
X516979Y51631D01*
X519021D01*
X518970Y51549D01*
D02*
G37*
G36*
X515642Y42356D02*
X515643Y42327D01*
X515654Y42291D01*
X515676Y42248D01*
X515708Y42197D01*
X515752Y42139D01*
X515870Y42000D01*
X516030Y41833D01*
X514970Y40773D01*
X514157Y41533D01*
X515652Y42378D01*
X515642Y42356D01*
D02*
G37*
G36*
X540820Y29752D02*
X541371Y29285D01*
X541615Y29115D01*
X541838Y28988D01*
X542039Y28903D01*
X542220Y28861D01*
X542379D01*
X542517Y28903D01*
X542633Y28988D01*
X540512Y26867D01*
X540597Y26983D01*
X540639Y27121D01*
Y27280D01*
X540597Y27461D01*
X540512Y27662D01*
X540385Y27885D01*
X540215Y28129D01*
X540003Y28394D01*
X539451Y28988D01*
X540512Y30049D01*
X540820Y29752D01*
D02*
G37*
G36*
X477524Y25500D02*
X477509Y25642D01*
X477463Y25770D01*
X477388Y25883D01*
X477282Y25980D01*
X477146Y26063D01*
X476980Y26130D01*
X476783Y26182D01*
X476556Y26220D01*
X476299Y26243D01*
X476012Y26250D01*
Y27750D01*
X476299Y27757D01*
X476556Y27780D01*
X476783Y27817D01*
X476980Y27870D01*
X477146Y27937D01*
X477282Y28020D01*
X477388Y28117D01*
X477463Y28230D01*
X477509Y28357D01*
X477524Y28500D01*
Y25500D01*
D02*
G37*
G36*
X514507Y26203D02*
X514530Y25948D01*
X514568Y25723D01*
X514620Y25528D01*
X514687Y25363D01*
X514770Y25228D01*
X514867Y25123D01*
X514980Y25048D01*
X515107Y25003D01*
X515250Y24988D01*
X512250D01*
X512393Y25003D01*
X512520Y25048D01*
X512633Y25123D01*
X512730Y25228D01*
X512813Y25363D01*
X512880Y25528D01*
X512932Y25723D01*
X512970Y25948D01*
X512992Y26203D01*
X513000Y26488D01*
X514500D01*
X514507Y26203D01*
D02*
G37*
G36*
X482392Y26518D02*
X482351Y26381D01*
X482352Y26222D01*
X482396Y26042D01*
X482482Y25841D01*
X482611Y25618D01*
X482781Y25374D01*
X482995Y25108D01*
X483549Y24512D01*
X482488Y23451D01*
X482179Y23750D01*
X481626Y24219D01*
X481382Y24389D01*
X481159Y24518D01*
X480958Y24604D01*
X480778Y24648D01*
X480619Y24649D01*
X480482Y24608D01*
X480367Y24524D01*
X482476Y26633D01*
X482392Y26518D01*
D02*
G37*
G36*
X497768Y21000D02*
X497750Y21143D01*
X497698Y21270D01*
X497610Y21383D01*
X497487Y21480D01*
X497329Y21563D01*
X497136Y21630D01*
X496908Y21682D01*
X496644Y21720D01*
X496346Y21743D01*
X496012Y21750D01*
Y23250D01*
X496346Y23257D01*
X496644Y23280D01*
X496908Y23317D01*
X497136Y23370D01*
X497329Y23438D01*
X497487Y23520D01*
X497610Y23618D01*
X497698Y23730D01*
X497750Y23857D01*
X497768Y24000D01*
Y21000D01*
D02*
G37*
G36*
X480760Y16162D02*
X480790Y15943D01*
X480840Y15726D01*
X480906Y15524D01*
X481500D01*
X481357Y15509D01*
X481230Y15463D01*
X481117Y15388D01*
X481020Y15282D01*
X481014Y15273D01*
X481110Y15092D01*
X481240Y14886D01*
X481390Y14683D01*
X481560Y14483D01*
X481750Y14285D01*
X480757D01*
X480750Y14012D01*
X479250D01*
X479243Y14285D01*
X478250D01*
X478440Y14483D01*
X478610Y14683D01*
X478760Y14886D01*
X478890Y15092D01*
X478986Y15273D01*
X478980Y15282D01*
X478883Y15388D01*
X478770Y15463D01*
X478643Y15509D01*
X478500Y15524D01*
X479094D01*
X479160Y15726D01*
X479210Y15943D01*
X479240Y16162D01*
X479250Y16385D01*
X480750D01*
X480760Y16162D01*
D02*
G37*
G36*
X543760Y15662D02*
X543790Y15443D01*
X543840Y15226D01*
X543906Y15024D01*
X544500D01*
X544357Y15009D01*
X544230Y14964D01*
X544117Y14888D01*
X544020Y14782D01*
X544014Y14773D01*
X544110Y14592D01*
X544240Y14386D01*
X544390Y14183D01*
X544560Y13983D01*
X544750Y13785D01*
X543757D01*
X543750Y13512D01*
X542250D01*
X542243Y13785D01*
X541250D01*
X541440Y13983D01*
X541610Y14183D01*
X541760Y14386D01*
X541890Y14592D01*
X541986Y14773D01*
X541980Y14782D01*
X541883Y14888D01*
X541770Y14964D01*
X541643Y15009D01*
X541500Y15024D01*
X542094D01*
X542160Y15226D01*
X542210Y15443D01*
X542240Y15662D01*
X542250Y15885D01*
X543750D01*
X543760Y15662D01*
D02*
G37*
G36*
X530760D02*
X530790Y15443D01*
X530840Y15226D01*
X530906Y15024D01*
X531500D01*
X531357Y15009D01*
X531230Y14964D01*
X531117Y14888D01*
X531020Y14782D01*
X531014Y14773D01*
X531110Y14592D01*
X531240Y14386D01*
X531390Y14183D01*
X531560Y13983D01*
X531750Y13785D01*
X530757D01*
X530750Y13512D01*
X529250D01*
X529243Y13785D01*
X528250D01*
X528440Y13983D01*
X528610Y14183D01*
X528760Y14386D01*
X528890Y14592D01*
X528986Y14773D01*
X528980Y14782D01*
X528883Y14888D01*
X528770Y14964D01*
X528643Y15009D01*
X528500Y15024D01*
X529094D01*
X529160Y15226D01*
X529210Y15443D01*
X529240Y15662D01*
X529250Y15885D01*
X530750D01*
X530760Y15662D01*
D02*
G37*
G36*
X495750Y14000D02*
X504500D01*
X505000Y14000D01*
X505000Y14000D01*
X521847D01*
X522222Y13670D01*
X522285Y13140D01*
X522337Y12609D01*
X522354Y12554D01*
X522360Y12496D01*
X522525Y11988D01*
X522680Y11478D01*
X522707Y11427D01*
X522725Y11372D01*
X522986Y10906D01*
X523237Y10436D01*
X523274Y10391D01*
X523302Y10340D01*
X523531Y10072D01*
X523734Y9404D01*
X524360Y8232D01*
X525204Y7204D01*
X526232Y6360D01*
X526906Y6000D01*
X526781Y5500D01*
X481900D01*
X481825Y6000D01*
X482596Y6234D01*
X483768Y6860D01*
X484796Y7704D01*
X485640Y8732D01*
X486266Y9904D01*
X486469Y10572D01*
X486698Y10840D01*
X486726Y10891D01*
X486763Y10936D01*
X487015Y11407D01*
X487275Y11872D01*
X487293Y11927D01*
X487320Y11978D01*
X487475Y12489D01*
X487640Y12996D01*
X487646Y13054D01*
X487663Y13109D01*
X487715Y13640D01*
X487778Y14170D01*
X487773Y14228D01*
X487779Y14285D01*
X487727Y14816D01*
X487695Y15217D01*
X487976Y15656D01*
X488050Y15717D01*
X494033D01*
X495750Y14000D01*
D02*
G37*
%LPC*%
G36*
X84571Y576185D02*
X63500D01*
Y556000D01*
X84571D01*
Y576185D01*
D02*
G37*
G36*
Y555000D02*
X63500D01*
Y534815D01*
X84571D01*
Y555000D01*
D02*
G37*
G36*
X62500Y576185D02*
X41429D01*
Y563653D01*
X41099Y563278D01*
X40569Y563215D01*
X40038Y563163D01*
X39983Y563146D01*
X39925Y563139D01*
X39417Y562975D01*
X38907Y562820D01*
X38856Y562793D01*
X38801Y562775D01*
X38335Y562514D01*
X37865Y562263D01*
X37820Y562226D01*
X37769Y562198D01*
X37501Y561969D01*
X36833Y561766D01*
X35661Y561139D01*
X34633Y560296D01*
X33789Y559268D01*
X33163Y558096D01*
X32777Y556823D01*
X32646Y555500D01*
X32777Y554177D01*
X33163Y552904D01*
X33789Y551732D01*
X34633Y550704D01*
X35661Y549860D01*
X36833Y549234D01*
X37501Y549031D01*
X37769Y548802D01*
X37820Y548774D01*
X37865Y548737D01*
X38336Y548485D01*
X38801Y548225D01*
X38856Y548207D01*
X38907Y548180D01*
X39418Y548025D01*
X39925Y547860D01*
X39983Y547854D01*
X40038Y547837D01*
X40569Y547785D01*
X41099Y547722D01*
X41429Y547347D01*
Y534815D01*
X62500D01*
Y555500D01*
Y576185D01*
D02*
G37*
G36*
X173740Y532240D02*
X169500D01*
Y528000D01*
X173740D01*
Y532240D01*
D02*
G37*
G36*
X156724Y495480D02*
X151500D01*
Y487984D01*
X150500D01*
Y495480D01*
X145276D01*
Y491594D01*
X144734Y490580D01*
X144348Y489307D01*
X144217Y487984D01*
Y484413D01*
X144204Y484394D01*
X144080Y484100D01*
X143930Y483819D01*
X143851Y483558D01*
X143744Y483306D01*
X143679Y482993D01*
X143587Y482688D01*
X143560Y482416D01*
X143505Y482148D01*
X143503Y482002D01*
X143492Y481960D01*
X143337Y481450D01*
X143331Y481392D01*
X143315Y481336D01*
X143273Y480804D01*
X143221Y480273D01*
X143227Y480216D01*
X143222Y480158D01*
X143284Y479628D01*
X143337Y479097D01*
X143354Y479042D01*
X143360Y478984D01*
X143525Y478476D01*
X143680Y477966D01*
X143707Y477915D01*
X143725Y477860D01*
X143986Y477394D01*
X144237Y476924D01*
X144274Y476879D01*
X144302Y476828D01*
X144531Y476560D01*
X144734Y475892D01*
X145360Y474720D01*
X146204Y473692D01*
X147232Y472848D01*
X148404Y472222D01*
X149677Y471836D01*
X151000Y471705D01*
X152323Y471836D01*
X153596Y472222D01*
X154768Y472848D01*
X155796Y473692D01*
X156640Y474720D01*
X157266Y475892D01*
X157469Y476560D01*
X157698Y476828D01*
X157726Y476879D01*
X157763Y476924D01*
X158015Y477395D01*
X158275Y477860D01*
X158293Y477915D01*
X158320Y477966D01*
X158475Y478477D01*
X158640Y478984D01*
X158646Y479042D01*
X158663Y479097D01*
X158715Y479628D01*
X158778Y480158D01*
X158773Y480216D01*
X158779Y480273D01*
X158727Y480804D01*
X158685Y481336D01*
X158669Y481392D01*
X158663Y481450D01*
X158508Y481960D01*
X158496Y482002D01*
X158495Y482148D01*
X158440Y482416D01*
X158413Y482688D01*
X158321Y482993D01*
X158256Y483306D01*
X158150Y483558D01*
X158070Y483819D01*
X157920Y484100D01*
X157796Y484394D01*
X157783Y484413D01*
Y487984D01*
X157652Y489307D01*
X157266Y490580D01*
X156724Y491594D01*
Y495480D01*
D02*
G37*
G36*
X72779Y476937D02*
X68342D01*
Y472500D01*
X72779D01*
Y476937D01*
D02*
G37*
G36*
X67342D02*
X62905D01*
Y472500D01*
X67342D01*
Y476937D01*
D02*
G37*
G36*
X96337Y506250D02*
X94663D01*
X93021Y505923D01*
X91474Y505283D01*
X90082Y504352D01*
X88898Y503168D01*
X87967Y501776D01*
X87646Y501000D01*
X87000D01*
Y496913D01*
Y484000D01*
X88201D01*
X88407Y483790D01*
X88520Y483500D01*
X88430Y483331D01*
X88350Y483069D01*
X88244Y482818D01*
X88179Y482505D01*
X88087Y482200D01*
X88060Y481928D01*
X88005Y481660D01*
X88003Y481514D01*
X87992Y481472D01*
X87837Y480962D01*
X87831Y480904D01*
X87815Y480848D01*
X87773Y480316D01*
X87721Y479785D01*
X87727Y479728D01*
X87722Y479670D01*
X87784Y479140D01*
X87837Y478609D01*
X87854Y478554D01*
X87860Y478496D01*
X88025Y477988D01*
X88180Y477478D01*
X88207Y477427D01*
X88225Y477372D01*
X88486Y476906D01*
X88737Y476436D01*
X88774Y476391D01*
X88802Y476340D01*
X89031Y476072D01*
X89234Y475404D01*
X89860Y474232D01*
X90704Y473204D01*
X91732Y472360D01*
X92904Y471734D01*
X94177Y471348D01*
X95500Y471217D01*
X96823Y471348D01*
X98096Y471734D01*
X99268Y472360D01*
X100296Y473204D01*
X101140Y474232D01*
X101766Y475404D01*
X101969Y476072D01*
X102198Y476340D01*
X102226Y476391D01*
X102263Y476436D01*
X102515Y476907D01*
X102775Y477372D01*
X102793Y477427D01*
X102820Y477478D01*
X102975Y477989D01*
X103139Y478496D01*
X103146Y478554D01*
X103163Y478609D01*
X103216Y479140D01*
X103278Y479670D01*
X103273Y479728D01*
X103279Y479785D01*
X103227Y480316D01*
X103185Y480848D01*
X103169Y480904D01*
X103163Y480962D01*
X103008Y481472D01*
X102997Y481514D01*
X102995Y481660D01*
X102940Y481928D01*
X102913Y482200D01*
X102821Y482505D01*
X102756Y482818D01*
X102649Y483069D01*
X102570Y483331D01*
X102480Y483500D01*
X102593Y483790D01*
X102799Y484000D01*
X104000D01*
Y501000D01*
X103354D01*
X103033Y501776D01*
X102102Y503168D01*
X100918Y504352D01*
X99526Y505283D01*
X97979Y505923D01*
X96337Y506250D01*
D02*
G37*
G36*
X72779Y471500D02*
X68342D01*
Y467063D01*
X72779D01*
Y471500D01*
D02*
G37*
G36*
X67342D02*
X62905D01*
Y467063D01*
X67342D01*
Y471500D01*
D02*
G37*
G36*
X49136Y481937D02*
X47179D01*
X45259Y481555D01*
X43450Y480806D01*
X41823Y479718D01*
X40439Y478334D01*
X39351Y476707D01*
X38602Y474898D01*
X38220Y472979D01*
Y471021D01*
X38602Y469101D01*
X39351Y467293D01*
X40439Y465665D01*
X41823Y464281D01*
X43450Y463194D01*
X45259Y462445D01*
X47179Y462063D01*
X49136D01*
X51056Y462445D01*
X52864Y463194D01*
X54492Y464281D01*
X55876Y465665D01*
X56963Y467293D01*
X57713Y469101D01*
X58094Y471021D01*
Y472979D01*
X57713Y474898D01*
X56963Y476707D01*
X55876Y478334D01*
X54492Y479718D01*
X52864Y480806D01*
X51056Y481555D01*
X49136Y481937D01*
D02*
G37*
G36*
X110137Y192024D02*
X110000D01*
Y187685D01*
X114339D01*
Y187822D01*
X114009Y189053D01*
X113372Y190156D01*
X112471Y191057D01*
X111368Y191694D01*
X110137Y192024D01*
D02*
G37*
G36*
X109000D02*
X108863D01*
X107632Y191694D01*
X106529Y191057D01*
X105628Y190156D01*
X104991Y189053D01*
X104661Y187822D01*
Y187685D01*
X109000D01*
Y192024D01*
D02*
G37*
G36*
X114339Y186685D02*
X110000D01*
Y182347D01*
X110137D01*
X111368Y182676D01*
X112471Y183314D01*
X113372Y184214D01*
X114009Y185318D01*
X114339Y186548D01*
Y186685D01*
D02*
G37*
G36*
X109000D02*
X104661D01*
Y186548D01*
X104991Y185318D01*
X105628Y184214D01*
X106529Y183314D01*
X107632Y182676D01*
X108863Y182347D01*
X109000D01*
Y186685D01*
D02*
G37*
G36*
X110469Y177339D02*
X108531D01*
X106630Y176961D01*
X104840Y176219D01*
X103228Y175143D01*
X101858Y173772D01*
X100781Y172161D01*
X100040Y170370D01*
X99661Y168469D01*
Y166531D01*
X100040Y164631D01*
X100781Y162840D01*
X101858Y161229D01*
X103228Y159858D01*
X104840Y158782D01*
X106630Y158040D01*
X108531Y157662D01*
X110469D01*
X112370Y158040D01*
X114160Y158782D01*
X115772Y159858D01*
X117142Y161229D01*
X118219Y162840D01*
X118960Y164631D01*
X119339Y166531D01*
Y168469D01*
X118960Y170370D01*
X118219Y172161D01*
X117142Y173772D01*
X115772Y175143D01*
X114160Y176219D01*
X112370Y176961D01*
X110469Y177339D01*
D02*
G37*
G36*
Y127339D02*
X108531D01*
X106630Y126961D01*
X104840Y126219D01*
X103228Y125143D01*
X101858Y123772D01*
X100781Y122161D01*
X100040Y120370D01*
X99661Y118469D01*
Y116531D01*
X100040Y114631D01*
X100781Y112840D01*
X101858Y111229D01*
X103228Y109858D01*
X104840Y108782D01*
X106630Y108040D01*
X108531Y107662D01*
X110469D01*
X112370Y108040D01*
X114160Y108782D01*
X115772Y109858D01*
X117142Y111229D01*
X118219Y112840D01*
X118960Y114631D01*
X119339Y116531D01*
Y118469D01*
X118960Y120370D01*
X118219Y122161D01*
X117142Y123772D01*
X115772Y125143D01*
X114160Y126219D01*
X112370Y126961D01*
X110469Y127339D01*
D02*
G37*
G36*
X178969Y87182D02*
X177031D01*
X175130Y86803D01*
X173340Y86062D01*
X171728Y84985D01*
X170358Y83615D01*
X169281Y82003D01*
X168540Y80213D01*
X168161Y78312D01*
Y76374D01*
X168540Y74473D01*
X169281Y72683D01*
X170358Y71071D01*
X171728Y69701D01*
X173340Y68624D01*
X175130Y67883D01*
X177031Y67504D01*
X178969D01*
X180870Y67883D01*
X182660Y68624D01*
X184272Y69701D01*
X185642Y71071D01*
X186719Y72683D01*
X187460Y74473D01*
X187839Y76374D01*
Y78312D01*
X187460Y80213D01*
X186719Y82003D01*
X185642Y83615D01*
X184272Y84985D01*
X182660Y86062D01*
X180870Y86803D01*
X178969Y87182D01*
D02*
G37*
G36*
X110469D02*
X108531D01*
X106630Y86803D01*
X104840Y86062D01*
X103228Y84985D01*
X101858Y83615D01*
X100781Y82003D01*
X100040Y80213D01*
X99661Y78312D01*
Y76374D01*
X100040Y74473D01*
X100781Y72683D01*
X101858Y71071D01*
X103228Y69701D01*
X104840Y68624D01*
X106630Y67883D01*
X108531Y67504D01*
X110469D01*
X112370Y67883D01*
X114160Y68624D01*
X115772Y69701D01*
X117142Y71071D01*
X118219Y72683D01*
X118960Y74473D01*
X119339Y76374D01*
Y78312D01*
X118960Y80213D01*
X118219Y82003D01*
X117142Y83615D01*
X115772Y84985D01*
X114160Y86062D01*
X112370Y86803D01*
X110469Y87182D01*
D02*
G37*
%LPD*%
G36*
X41412Y557060D02*
X41612Y556890D01*
X41815Y556740D01*
X42021Y556610D01*
X42202Y556514D01*
X42211Y556520D01*
X42317Y556617D01*
X42393Y556730D01*
X42438Y556857D01*
X42453Y557000D01*
Y556406D01*
X42655Y556340D01*
X42872Y556290D01*
X43091Y556260D01*
X43314Y556250D01*
Y554750D01*
X43091Y554740D01*
X42872Y554710D01*
X42655Y554660D01*
X42453Y554594D01*
Y554000D01*
X42438Y554143D01*
X42393Y554270D01*
X42317Y554383D01*
X42211Y554480D01*
X42202Y554486D01*
X42021Y554390D01*
X41815Y554260D01*
X41612Y554110D01*
X41412Y553940D01*
X41214Y553750D01*
Y554743D01*
X40941Y554750D01*
Y556250D01*
X41214Y556257D01*
Y557250D01*
X41412Y557060D01*
D02*
G37*
G36*
X151760Y482150D02*
X151790Y481931D01*
X151840Y481714D01*
X151906Y481512D01*
X152500D01*
X152357Y481497D01*
X152230Y481452D01*
X152118Y481376D01*
X152020Y481270D01*
X152014Y481261D01*
X152110Y481080D01*
X152240Y480874D01*
X152390Y480671D01*
X152560Y480471D01*
X152750Y480273D01*
X151757D01*
X151750Y480000D01*
X150250D01*
X150243Y480273D01*
X149250D01*
X149440Y480471D01*
X149610Y480671D01*
X149760Y480874D01*
X149890Y481080D01*
X149986Y481261D01*
X149980Y481270D01*
X149882Y481376D01*
X149770Y481452D01*
X149643Y481497D01*
X149500Y481512D01*
X150094D01*
X150160Y481714D01*
X150210Y481931D01*
X150240Y482150D01*
X150250Y482373D01*
X151750D01*
X151760Y482150D01*
D02*
G37*
G36*
X96260Y481662D02*
X96290Y481443D01*
X96340Y481226D01*
X96406Y481024D01*
X97000D01*
X96858Y481009D01*
X96730Y480964D01*
X96618Y480888D01*
X96520Y480782D01*
X96514Y480773D01*
X96610Y480592D01*
X96740Y480386D01*
X96890Y480183D01*
X97060Y479983D01*
X97250Y479785D01*
X96257D01*
X96250Y479512D01*
X94750D01*
X94743Y479785D01*
X93750D01*
X93940Y479983D01*
X94110Y480183D01*
X94260Y480386D01*
X94390Y480592D01*
X94485Y480773D01*
X94480Y480782D01*
X94383Y480888D01*
X94270Y480964D01*
X94143Y481009D01*
X94000Y481024D01*
X94594D01*
X94660Y481226D01*
X94710Y481443D01*
X94740Y481662D01*
X94750Y481885D01*
X96250D01*
X96260Y481662D01*
D02*
G37*
%LPC*%
G36*
X493626Y303838D02*
X491688D01*
X489788Y303460D01*
X487997Y302719D01*
X486386Y301642D01*
X485015Y300272D01*
X483939Y298660D01*
X483197Y296870D01*
X482819Y294969D01*
Y293031D01*
X483197Y291130D01*
X483939Y289340D01*
X485015Y287728D01*
X486386Y286358D01*
X487997Y285281D01*
X489788Y284540D01*
X491688Y284161D01*
X493626D01*
X495527Y284540D01*
X497318Y285281D01*
X498929Y286358D01*
X500300Y287728D01*
X501376Y289340D01*
X502118Y291130D01*
X502496Y293031D01*
Y294969D01*
X502118Y296870D01*
X501376Y298660D01*
X500300Y300272D01*
X498929Y301642D01*
X497318Y302719D01*
X495527Y303460D01*
X493626Y303838D01*
D02*
G37*
G36*
X495626Y243339D02*
X493688D01*
X491788Y242961D01*
X489997Y242219D01*
X488386Y241142D01*
X487015Y239772D01*
X485939Y238160D01*
X485197Y236370D01*
X484819Y234469D01*
Y232531D01*
X485197Y230630D01*
X485939Y228840D01*
X487015Y227228D01*
X488386Y225858D01*
X489997Y224781D01*
X491788Y224040D01*
X493688Y223662D01*
X495626D01*
X497527Y224040D01*
X499318Y224781D01*
X500929Y225858D01*
X502299Y227228D01*
X503376Y228840D01*
X504118Y230630D01*
X504496Y232531D01*
Y234469D01*
X504118Y236370D01*
X503376Y238160D01*
X502299Y239772D01*
X500929Y241142D01*
X499318Y242219D01*
X497527Y242961D01*
X495626Y243339D01*
D02*
G37*
G36*
X455469D02*
X453531D01*
X451630Y242961D01*
X449840Y242219D01*
X448228Y241142D01*
X446858Y239772D01*
X445781Y238160D01*
X445040Y236370D01*
X444661Y234469D01*
Y232531D01*
X445040Y230630D01*
X445781Y228840D01*
X446858Y227228D01*
X448228Y225858D01*
X449840Y224781D01*
X451630Y224040D01*
X453531Y223662D01*
X455469D01*
X457370Y224040D01*
X459160Y224781D01*
X460772Y225858D01*
X462142Y227228D01*
X463219Y228840D01*
X463961Y230630D01*
X464339Y232531D01*
Y234469D01*
X463961Y236370D01*
X463219Y238160D01*
X462142Y239772D01*
X460772Y241142D01*
X459160Y242219D01*
X457370Y242961D01*
X455469Y243339D01*
D02*
G37*
G36*
X548600Y361750D02*
X536500D01*
X536318Y361732D01*
X526089D01*
Y341671D01*
X526089D01*
Y341329D01*
X526089D01*
Y321268D01*
X536318D01*
X536500Y321250D01*
X550600D01*
X552560Y321443D01*
X554237Y321952D01*
X554372D01*
X554629Y321523D01*
X554335Y320972D01*
X553744Y319025D01*
X553545Y317000D01*
X553744Y314975D01*
X554335Y313027D01*
X555294Y311233D01*
X556585Y309660D01*
Y309340D01*
X555294Y307767D01*
X554335Y305973D01*
X553744Y304025D01*
X553545Y302000D01*
X553744Y299975D01*
X554335Y298027D01*
X555294Y296233D01*
X556585Y294660D01*
Y294340D01*
X555294Y292767D01*
X554335Y290972D01*
X553744Y289025D01*
X553545Y287000D01*
X553744Y284975D01*
X554335Y283027D01*
X555294Y281233D01*
X556585Y279660D01*
Y279340D01*
X555294Y277767D01*
X554335Y275973D01*
X553744Y274025D01*
X553545Y272000D01*
X553744Y269975D01*
X554335Y268027D01*
X555294Y266233D01*
X556585Y264660D01*
Y264340D01*
X555294Y262767D01*
X554335Y260972D01*
X553744Y259025D01*
X553545Y257000D01*
X553744Y254975D01*
X554335Y253027D01*
X555294Y251233D01*
X556585Y249660D01*
Y249340D01*
X555294Y247767D01*
X554335Y245972D01*
X553744Y244025D01*
X553545Y242000D01*
X553744Y239975D01*
X554335Y238027D01*
X555294Y236233D01*
X556482Y234785D01*
X556337Y234372D01*
X556261Y234285D01*
X548000D01*
X546579Y234145D01*
X545212Y233731D01*
X543953Y233057D01*
X542849Y232151D01*
X493536Y182839D01*
X493031D01*
X491130Y182460D01*
X489340Y181719D01*
X487728Y180642D01*
X486358Y179272D01*
X485281Y177660D01*
X484540Y175870D01*
X484161Y173969D01*
Y172031D01*
X484540Y170130D01*
X485281Y168340D01*
X486358Y166728D01*
X487728Y165358D01*
X489340Y164281D01*
X491130Y163540D01*
X493031Y163161D01*
X494969D01*
X496870Y163540D01*
X498660Y164281D01*
X500272Y165358D01*
X501642Y166728D01*
X502719Y168340D01*
X503461Y170130D01*
X503839Y172031D01*
Y172536D01*
X551018Y219715D01*
X556261D01*
X556337Y219628D01*
X556482Y219215D01*
X555294Y217767D01*
X554335Y215972D01*
X553744Y214025D01*
X553545Y212000D01*
X553744Y209975D01*
X554335Y208027D01*
X555294Y206233D01*
X556482Y204785D01*
X556337Y204372D01*
X556261Y204285D01*
X554800D01*
X553378Y204145D01*
X552012Y203731D01*
X550752Y203057D01*
X549649Y202151D01*
X486506Y139009D01*
X485600Y137905D01*
X484927Y136645D01*
X484512Y135279D01*
X484372Y133857D01*
Y117129D01*
X484015Y116771D01*
X482938Y115160D01*
X482197Y113370D01*
X481819Y111469D01*
Y109531D01*
X482197Y107630D01*
X482938Y105840D01*
X484015Y104228D01*
X485386Y102858D01*
X486997Y101781D01*
X488787Y101039D01*
X490688Y100661D01*
X492626D01*
X494527Y101039D01*
X496317Y101781D01*
X497929Y102858D01*
X499299Y104228D01*
X500376Y105840D01*
X501118Y107630D01*
X501496Y109531D01*
Y111469D01*
X501118Y113370D01*
X500376Y115160D01*
X499299Y116771D01*
X498942Y117129D01*
Y130840D01*
X553698Y185595D01*
X554140Y185330D01*
X553744Y184025D01*
X553545Y182000D01*
X553744Y179975D01*
X554335Y178027D01*
X555294Y176233D01*
X556585Y174660D01*
X558158Y173369D01*
X559953Y172409D01*
X561900Y171819D01*
X563925Y171619D01*
X567075D01*
X569100Y171819D01*
X571047Y172409D01*
X572842Y173369D01*
X574415Y174660D01*
X575706Y176233D01*
X576665Y178027D01*
X577256Y179975D01*
X577456Y182000D01*
X577256Y184025D01*
X576665Y185972D01*
X575706Y187767D01*
X574576Y189145D01*
X574465Y189500D01*
X574576Y189855D01*
X575706Y191233D01*
X576665Y193027D01*
X577256Y194975D01*
X577456Y197000D01*
X577256Y199025D01*
X576665Y200973D01*
X575706Y202767D01*
X574576Y204145D01*
X574465Y204500D01*
X574576Y204855D01*
X575706Y206233D01*
X576665Y208027D01*
X577256Y209975D01*
X577456Y212000D01*
X577256Y214025D01*
X576665Y215972D01*
X575706Y217767D01*
X574576Y219145D01*
X574465Y219500D01*
X574576Y219855D01*
X575706Y221233D01*
X576665Y223027D01*
X577256Y224975D01*
X577456Y227000D01*
X577256Y229025D01*
X576665Y230973D01*
X575706Y232767D01*
X574576Y234145D01*
X574465Y234500D01*
X574576Y234855D01*
X575706Y236233D01*
X576665Y238027D01*
X577256Y239975D01*
X577456Y242000D01*
X577256Y244025D01*
X576665Y245972D01*
X575706Y247767D01*
X574576Y249145D01*
X574465Y249500D01*
X574576Y249855D01*
X575706Y251233D01*
X576665Y253027D01*
X577256Y254975D01*
X577456Y257000D01*
X577256Y259025D01*
X576665Y260972D01*
X575706Y262767D01*
X574576Y264145D01*
X574465Y264500D01*
X574576Y264855D01*
X575706Y266233D01*
X576665Y268027D01*
X577256Y269975D01*
X577456Y272000D01*
X577256Y274025D01*
X576665Y275973D01*
X575706Y277767D01*
X574576Y279145D01*
X574465Y279500D01*
X574576Y279855D01*
X575706Y281233D01*
X576665Y283027D01*
X577256Y284975D01*
X577456Y287000D01*
X577256Y289025D01*
X576665Y290972D01*
X575706Y292767D01*
X574576Y294145D01*
X574465Y294500D01*
X574576Y294855D01*
X575706Y296233D01*
X576665Y298027D01*
X577256Y299975D01*
X577456Y302000D01*
X577256Y304025D01*
X576665Y305973D01*
X575706Y307767D01*
X574576Y309145D01*
X574465Y309500D01*
X574576Y309855D01*
X575706Y311233D01*
X576665Y313027D01*
X577256Y314975D01*
X577456Y317000D01*
X577256Y319025D01*
X576665Y320972D01*
X575706Y322767D01*
X574576Y324145D01*
X574465Y324500D01*
X574576Y324855D01*
X575706Y326233D01*
X576665Y328027D01*
X577256Y329975D01*
X577456Y332000D01*
X577256Y334025D01*
X576665Y335972D01*
X575706Y337767D01*
X574576Y339145D01*
X574465Y339500D01*
X574576Y339855D01*
X575706Y341233D01*
X576665Y343027D01*
X577256Y344975D01*
X577456Y347000D01*
X577256Y349025D01*
X576665Y350973D01*
X575706Y352767D01*
X574415Y354340D01*
X572842Y355631D01*
X571047Y356591D01*
X569100Y357181D01*
X567075Y357381D01*
X563925D01*
X561900Y357181D01*
X561462Y357048D01*
X557464D01*
X555705Y358807D01*
X554182Y360057D01*
X552445Y360985D01*
X550560Y361557D01*
X548600Y361750D01*
D02*
G37*
%LPD*%
G36*
Y355702D02*
Y347702D01*
X540899Y347683D01*
Y355720D01*
X548600Y355702D01*
D02*
G37*
G36*
X562586Y327880D02*
X562452Y327903D01*
X562162Y327923D01*
X558403Y327989D01*
X554297Y328000D01*
Y336000D01*
X562586Y336120D01*
Y327880D01*
D02*
G37*
G36*
X548899Y335298D02*
Y327298D01*
X540899Y327280D01*
Y335317D01*
X548899Y335298D01*
D02*
G37*
G36*
X560402Y224506D02*
X560371Y224743D01*
X560278Y224954D01*
X560122Y225141D01*
X559903Y225302D01*
X559623Y225439D01*
X559280Y225551D01*
X558874Y225638D01*
X558406Y225700D01*
X557876Y225738D01*
X557284Y225750D01*
Y228250D01*
X557876Y228262D01*
X558874Y228362D01*
X559280Y228449D01*
X559623Y228561D01*
X559903Y228698D01*
X560122Y228859D01*
X560278Y229046D01*
X560371Y229257D01*
X560402Y229494D01*
Y224506D01*
D02*
G37*
G36*
Y194506D02*
X560371Y194743D01*
X560278Y194954D01*
X560122Y195141D01*
X559903Y195302D01*
X559623Y195439D01*
X559280Y195551D01*
X558874Y195638D01*
X558406Y195700D01*
X557876Y195738D01*
X557284Y195750D01*
Y198250D01*
X557876Y198262D01*
X558874Y198362D01*
X559280Y198449D01*
X559623Y198561D01*
X559903Y198698D01*
X560122Y198859D01*
X560278Y199046D01*
X560371Y199257D01*
X560402Y199494D01*
Y194506D01*
D02*
G37*
G36*
X499079Y176311D02*
X498840Y176051D01*
X498626Y175777D01*
X498438Y175487D01*
X498275Y175182D01*
X498138Y174863D01*
X498027Y174528D01*
X497942Y174178D01*
X497882Y173813D01*
X497847Y173433D01*
X497838Y173038D01*
X494038Y176838D01*
X494433Y176847D01*
X494813Y176882D01*
X495178Y176942D01*
X495528Y177027D01*
X495863Y177138D01*
X496182Y177275D01*
X496487Y177438D01*
X496777Y177626D01*
X497051Y177840D01*
X497311Y178079D01*
X499079Y176311D01*
D02*
G37*
G36*
X492922Y116079D02*
X492965Y115734D01*
X493037Y115396D01*
X493137Y115066D01*
X493266Y114743D01*
X493425Y114428D01*
X493611Y114120D01*
X493827Y113820D01*
X494071Y113526D01*
X494344Y113241D01*
X488970D01*
X489243Y113526D01*
X489488Y113820D01*
X489703Y114120D01*
X489890Y114428D01*
X490048Y114743D01*
X490177Y115066D01*
X490278Y115396D01*
X490350Y115734D01*
X490393Y116079D01*
X490407Y116432D01*
X492907D01*
X492922Y116079D01*
D02*
G37*
%LPC*%
G36*
X404811Y182839D02*
X402873D01*
X400973Y182460D01*
X399182Y181719D01*
X397571Y180642D01*
X396200Y179272D01*
X395124Y177660D01*
X394382Y175870D01*
X394255Y175231D01*
X393745D01*
X393618Y175870D01*
X392876Y177660D01*
X391799Y179272D01*
X390429Y180642D01*
X388818Y181719D01*
X387027Y182460D01*
X385126Y182839D01*
X383188D01*
X381288Y182460D01*
X379497Y181719D01*
X377886Y180642D01*
X376515Y179272D01*
X375439Y177660D01*
X374697Y175870D01*
X374319Y173969D01*
Y172031D01*
X374697Y170130D01*
X375439Y168340D01*
X376515Y166728D01*
X377886Y165358D01*
X379497Y164281D01*
X381288Y163540D01*
X383188Y163161D01*
X385126D01*
X387027Y163540D01*
X388818Y164281D01*
X390429Y165358D01*
X391799Y166728D01*
X392876Y168340D01*
X393618Y170130D01*
X393745Y170769D01*
X394255D01*
X394382Y170130D01*
X395124Y168340D01*
X396200Y166728D01*
X397571Y165358D01*
X399182Y164281D01*
X400973Y163540D01*
X402873Y163161D01*
X404811D01*
X406712Y163540D01*
X408503Y164281D01*
X410114Y165358D01*
X411484Y166728D01*
X412561Y168340D01*
X413303Y170130D01*
X413681Y172031D01*
Y173969D01*
X413303Y175870D01*
X412561Y177660D01*
X411484Y179272D01*
X410114Y180642D01*
X408503Y181719D01*
X406712Y182460D01*
X404811Y182839D01*
D02*
G37*
G36*
X402469Y120338D02*
X400531D01*
X398630Y119960D01*
X396839Y119219D01*
X395228Y118142D01*
X393858Y116771D01*
X392781Y115160D01*
X392039Y113370D01*
X391912Y112731D01*
X391402D01*
X391275Y113370D01*
X390533Y115160D01*
X389457Y116771D01*
X388086Y118142D01*
X386475Y119219D01*
X384684Y119960D01*
X382784Y120338D01*
X380846D01*
X378945Y119960D01*
X377154Y119219D01*
X375543Y118142D01*
X374172Y116771D01*
X373096Y115160D01*
X372354Y113370D01*
X371976Y111469D01*
Y109531D01*
X372354Y107630D01*
X373096Y105840D01*
X374172Y104228D01*
X375543Y102858D01*
X377154Y101781D01*
X378945Y101039D01*
X380846Y100661D01*
X382784D01*
X384684Y101039D01*
X386475Y101781D01*
X388086Y102858D01*
X389457Y104228D01*
X390533Y105840D01*
X391275Y107630D01*
X391402Y108269D01*
X391912D01*
X392039Y107630D01*
X392781Y105840D01*
X393858Y104228D01*
X395228Y102858D01*
X396839Y101781D01*
X398630Y101039D01*
X400531Y100661D01*
X402469D01*
X404369Y101039D01*
X406160Y101781D01*
X407771Y102858D01*
X409142Y104228D01*
X410218Y105840D01*
X410960Y107630D01*
X411338Y109531D01*
Y111469D01*
X410960Y113370D01*
X410218Y115160D01*
X409142Y116771D01*
X407771Y118142D01*
X406160Y119219D01*
X404369Y119960D01*
X402469Y120338D01*
D02*
G37*
G36*
X288645Y178559D02*
X287867D01*
X287983Y178476D01*
X288120Y178435D01*
X288278Y178436D01*
X288458Y178479D01*
X288645Y178559D01*
D02*
G37*
G36*
X287134Y109851D02*
X286355D01*
X286542Y109771D01*
X286722Y109727D01*
X286881Y109726D01*
X287018Y109767D01*
X287134Y109851D01*
D02*
G37*
%LPD*%
D14*
X171500Y136600D02*
Y172189D01*
X199600Y200289D01*
X171500Y136600D02*
X281100Y27000D01*
X168000Y192301D02*
X191400Y215700D01*
X168000Y127500D02*
X178000Y117500D01*
X168000Y127500D02*
Y192301D01*
X33000Y222701D02*
X43700Y233400D01*
X33000Y85343D02*
X41000Y77343D01*
X33000Y85343D02*
Y222701D01*
X55500Y501000D02*
X55904Y501404D01*
Y514096D01*
X56307Y514500D01*
X70096Y502404D02*
Y514096D01*
X69693Y514500D02*
X70096Y514096D01*
X95500Y492500D02*
Y497750D01*
X70096Y502404D02*
X70500Y502000D01*
X96000Y524758D02*
Y527801D01*
X95431Y523931D02*
Y524189D01*
X96000Y524758D01*
X85500Y514000D02*
X95431Y523931D01*
X96000Y527801D02*
X123638Y500163D01*
X518573Y64600D02*
X522116Y61057D01*
X524214D01*
X527602Y58291D02*
X528000Y57893D01*
X526980Y58291D02*
X527602D01*
X524214Y61057D02*
X526980Y58291D01*
X528000Y41500D02*
Y57893D01*
X504000Y64600D02*
X518573D01*
X465100Y103500D02*
X504000Y64600D01*
X509827Y55173D02*
X513000D01*
X505000Y60000D02*
X509827Y55173D01*
X489592Y60898D02*
X496995Y53495D01*
X486602Y60898D02*
X489592D01*
X486500Y61000D02*
X486602Y60898D01*
X220040Y563300D02*
X231100D01*
X351500Y222601D02*
X409000Y280100D01*
X305200Y111700D02*
X351500Y158001D01*
Y222601D01*
X353830Y77670D02*
X354500Y77000D01*
X353830Y77670D02*
Y79491D01*
X339202Y94119D02*
Y94500D01*
X533225Y22250D02*
X534250Y23275D01*
X523000Y42964D02*
X534250Y31714D01*
X526775Y22250D02*
X533225D01*
X523000Y42964D02*
Y55173D01*
X525750Y23275D02*
X526775Y22250D01*
X515500Y37464D02*
X525750Y27214D01*
X513750Y22500D02*
Y33500D01*
X509500Y37750D02*
Y47000D01*
X515500Y37464D02*
Y41303D01*
X513750Y43053D02*
Y44000D01*
X534250Y23275D02*
Y31714D01*
X525750Y23275D02*
Y27214D01*
X513750Y43053D02*
X515500Y41303D01*
X509500Y37750D02*
X513750Y33500D01*
X486500Y70000D02*
X509500Y47000D01*
X518000Y38500D02*
Y55173D01*
Y38500D02*
X530000Y26500D01*
X231100Y563300D02*
X247600D01*
X220000D02*
X220040D01*
X231100D02*
X232800Y561600D01*
X216740Y560000D02*
X220040Y563300D01*
X216700Y536800D02*
Y560000D01*
Y536800D02*
Y536800D01*
X246340Y241260D02*
X247000D01*
X245900Y242360D02*
Y451800D01*
X206000Y526100D02*
Y526101D01*
X216700Y536800D02*
X216740Y536841D01*
X206000Y526101D02*
X216700Y536800D01*
X175840Y241260D02*
X181534D01*
X112569D02*
X175840D01*
X43700D02*
X112569D01*
X43603D02*
X43700D01*
Y233400D02*
Y241260D01*
X119571Y245000D02*
Y357471D01*
X191400Y245000D02*
Y257900D01*
Y215700D02*
Y237520D01*
X258800Y210700D02*
Y237520D01*
X465100Y103500D02*
Y198500D01*
X431900Y231700D02*
X465100Y198500D01*
X431900Y231700D02*
Y572000D01*
X427900Y576000D02*
X431900Y572000D01*
X321500Y576000D02*
X427900D01*
X319500Y574000D02*
X321500Y576000D01*
X319500Y567500D02*
Y574000D01*
X149000Y527500D02*
X156000D01*
X184500Y499000D01*
Y492500D02*
Y499000D01*
X336700Y281102D02*
X336702Y281104D01*
X53500Y368000D02*
X53500Y245000D01*
X52700Y405900D02*
X53500Y368000D01*
X48100Y410500D02*
X52700Y405900D01*
X24000Y410500D02*
X48100D01*
X287500Y107375D02*
Y119700D01*
X237950Y156925D02*
X287500Y107375D01*
X237950Y156925D02*
Y254350D01*
X154400Y337900D02*
X237950Y254350D01*
X144600Y337900D02*
X154400D01*
X139500Y343000D02*
X144600Y337900D01*
X287500Y244792D02*
X302709Y260000D01*
X287500Y244792D02*
X291800Y240492D01*
Y180383D02*
Y240492D01*
X287500Y176083D02*
X291800Y180383D01*
X287500Y176083D02*
Y189000D01*
X291000Y344000D02*
X325000D01*
X287500Y347500D02*
X291000Y344000D01*
X473000Y70000D02*
X486500D01*
X468000Y75000D02*
X473000Y70000D01*
X250413Y541500D02*
X267000D01*
X232500Y531000D02*
X241827D01*
X228500Y535000D02*
X232500Y531000D01*
X424500Y509401D02*
Y567500D01*
X409000Y493900D02*
X424500Y509401D01*
X409000Y280100D02*
Y493900D01*
X305200Y92000D02*
Y111700D01*
X300600Y87400D02*
X305200Y92000D01*
X258100Y87400D02*
X300600D01*
X178000Y167500D02*
X258100Y87400D01*
X50000Y237520D02*
X53500D01*
X48600Y125100D02*
X50000Y237520D01*
X41000Y117500D02*
X48600Y125100D01*
X353728Y323087D02*
X382815Y294000D01*
X324000Y323087D02*
X353728D01*
X484500Y22500D02*
X500250D01*
X480000Y27000D02*
X484500Y22500D01*
X281100Y27000D02*
X480000D01*
X199600Y200289D02*
Y272900D01*
X149500Y323000D02*
X199600Y272900D01*
X257000Y245000D02*
X260397D01*
X255400Y243400D02*
X257000Y245000D01*
X255400Y239000D02*
Y243400D01*
X254400Y238000D02*
X255400Y239000D01*
X241350Y238000D02*
X254400D01*
X240450Y238900D02*
X241350Y238000D01*
X240450Y238900D02*
Y262050D01*
X149500Y353000D02*
X240450Y262050D01*
X191400Y245000D02*
X191431D01*
X134600Y314700D02*
X191400Y257900D01*
X134600Y314700D02*
Y348100D01*
X139500Y353000D01*
X409500Y557201D02*
Y567500D01*
X391300Y539000D02*
X409500Y557201D01*
X391300Y277500D02*
Y539000D01*
X297500Y183700D02*
X391300Y277500D01*
X297500Y161600D02*
Y183700D01*
X292000Y156100D02*
X297500Y161600D01*
X257900Y156100D02*
X292000D01*
X246500Y167500D02*
X257900Y156100D01*
X258800Y237520D02*
X260397D01*
X240900Y192800D02*
X258800Y210700D01*
X240900Y160000D02*
Y192800D01*
Y160000D02*
X262000Y138900D01*
X284900D01*
X291800Y132000D01*
Y103100D02*
Y132000D01*
X260900Y103100D02*
X291800D01*
X246500Y117500D02*
X260900Y103100D01*
X244700Y242900D02*
X246340Y241260D01*
X175800Y241300D02*
X175840Y241260D01*
X260397Y245000D02*
X265800D01*
X282800Y262000D01*
Y450600D01*
X349500Y517301D01*
Y567500D01*
X191400Y237520D02*
X191431D01*
X122466D02*
X126781D01*
X128400Y235900D01*
X436200Y240700D02*
Y562600D01*
X439500Y565900D01*
Y567500D01*
X228500Y544000D02*
Y557500D01*
X247000Y241260D02*
X250500D01*
X245900Y242360D02*
X247000Y241260D01*
X245900Y451800D02*
X246300Y452200D01*
Y488200D01*
X242000Y492500D02*
X246300Y488200D01*
X144600Y367900D02*
X149500Y363000D01*
X130000Y367900D02*
X144600D01*
X119571Y357471D02*
X130000Y367900D01*
X119571Y245000D02*
X122466D01*
X139500Y359600D02*
Y363000D01*
Y359600D02*
X141000Y358100D01*
X152000D01*
X154400Y360500D01*
Y368000D01*
X149000Y373400D02*
X154400Y368000D01*
X58900Y373400D02*
X149000D01*
X53500Y368000D02*
X58900Y373400D01*
X53500Y245000D02*
Y368000D01*
Y245000D02*
X53500D01*
X215055Y518016D02*
Y526276D01*
X219794Y531015D01*
Y539795D01*
X224000Y544000D01*
X228500D01*
X334500Y560000D02*
Y567500D01*
X332100Y557600D02*
X334500Y560000D01*
X253300Y557600D02*
X332100D01*
X247600Y563300D02*
X253300Y557600D01*
X216700Y560000D02*
X220000Y563300D01*
X206000Y526100D02*
X216700Y536800D01*
X206000Y518016D02*
Y526100D01*
X528000Y41500D02*
X543000Y26500D01*
X251800Y517300D02*
X267000Y532500D01*
X223500Y492500D02*
Y538601D01*
X224200Y539300D01*
X232800D01*
Y561600D01*
X216740Y536841D02*
Y560000D01*
X123638Y487984D02*
Y500163D01*
X201000Y492500D02*
X215055Y506555D01*
Y518016D01*
X236000Y478000D02*
X236500D01*
X242000Y483500D01*
X223500Y492500D02*
X242000D01*
X137600Y527500D02*
X149000D01*
X137300Y527801D02*
X137600Y527500D01*
X126000Y527801D02*
X137300D01*
X184500Y492500D02*
X201000D01*
X307000Y316000D02*
X324000D01*
X304500Y313500D02*
X307000Y316000D01*
X287500Y313500D02*
X304500D01*
X49614Y514500D02*
Y523799D01*
X287500Y92875D02*
Y98375D01*
Y161583D02*
Y167083D01*
Y230292D02*
Y235792D01*
Y299000D02*
Y304500D01*
Y333000D02*
Y338500D01*
X480000Y12500D02*
Y18000D01*
X95500Y478000D02*
Y483500D01*
X151000Y478488D02*
Y487984D01*
X184500Y478000D02*
Y483500D01*
X63000Y514500D02*
Y523799D01*
X76386Y514500D02*
Y523799D01*
X201000Y478000D02*
Y483500D01*
X530000Y12000D02*
Y17500D01*
X223500Y478000D02*
Y483500D01*
X543000Y12000D02*
Y17500D01*
X196945Y509701D02*
Y518016D01*
X39429Y555500D02*
X63000D01*
D20*
X318798Y94500D02*
D03*
X339202D02*
D03*
X317298Y166500D02*
D03*
X337702D02*
D03*
X315798Y236000D02*
D03*
X336202D02*
D03*
X316298Y288500D02*
D03*
X336702D02*
D03*
D21*
X536500Y331298D02*
D03*
Y351702D02*
D03*
D22*
X287500Y107375D02*
D03*
Y98375D02*
D03*
X184500Y483500D02*
D03*
Y492500D02*
D03*
X287500Y338500D02*
D03*
Y347500D02*
D03*
Y235792D02*
D03*
Y244792D02*
D03*
Y304500D02*
D03*
Y313500D02*
D03*
Y167083D02*
D03*
Y176083D02*
D03*
X486500Y70000D02*
D03*
Y61000D02*
D03*
X228500Y535000D02*
D03*
Y544000D02*
D03*
X267000Y532500D02*
D03*
Y541500D02*
D03*
X480000Y27000D02*
D03*
Y18000D02*
D03*
X530000Y26500D02*
D03*
Y17500D02*
D03*
X543000Y26500D02*
D03*
Y17500D02*
D03*
X242000Y492500D02*
D03*
Y483500D02*
D03*
X223500Y492500D02*
D03*
Y483500D02*
D03*
X201000Y492500D02*
D03*
Y483500D02*
D03*
X95500D02*
D03*
Y492500D02*
D03*
D23*
X250500Y241260D02*
D03*
X260397Y245000D02*
D03*
Y237520D02*
D03*
X191431D02*
D03*
Y245000D02*
D03*
X181534Y241260D02*
D03*
X122466Y237520D02*
D03*
Y245000D02*
D03*
X112569Y241260D02*
D03*
X53500Y237520D02*
D03*
Y245000D02*
D03*
X43603Y241260D02*
D03*
D24*
X56307Y514500D02*
D03*
X69693D02*
D03*
X63000D02*
D03*
X76386D02*
D03*
X49614D02*
D03*
D25*
X63000Y555500D02*
D03*
D26*
X513000Y55173D02*
D03*
X523000Y76827D02*
D03*
X518000D02*
D03*
X513000D02*
D03*
X528000Y55173D02*
D03*
X523000D02*
D03*
X518000D02*
D03*
D27*
X528000Y76827D02*
D03*
D28*
X206000Y541244D02*
D03*
D29*
Y518016D02*
D03*
X215055D02*
D03*
X196945D02*
D03*
D30*
X96000Y527801D02*
D03*
X126000D02*
D03*
X67842Y472000D02*
D03*
D31*
X500250Y22500D02*
D03*
D32*
X513750D02*
D03*
D33*
X123638Y487984D02*
D03*
X151000D02*
D03*
D65*
X335364Y237975D02*
Y237975D01*
X316298Y288500D02*
Y288881D01*
X307500Y296500D02*
X307978Y296022D01*
X309157D01*
X316298Y288881D01*
X338022Y166821D02*
X346429D01*
X337702Y166500D02*
X338022Y166821D01*
X317298Y166881D02*
X324417Y174000D01*
X317298Y166500D02*
Y166881D01*
X324417Y174000D02*
X325000D01*
X349000Y245000D02*
X349732Y244268D01*
X335364Y237173D02*
X335829Y236521D01*
X335364Y237975D02*
X335364Y238181D01*
X336284Y243701D02*
X337582Y245000D01*
X349000D01*
X349732Y244268D02*
X350800Y243200D01*
X335829Y236521D02*
X336202Y236000D01*
X335364Y237975D02*
X335364Y237173D01*
Y238181D02*
X336284Y243701D01*
X339202Y94119D02*
X353830Y79491D01*
X318798Y83702D02*
X330500Y72000D01*
X318798Y83702D02*
Y94500D01*
X548000Y227000D02*
X565500D01*
X494000Y173000D02*
X548000Y227000D01*
X336702Y281104D02*
Y288500D01*
X315798Y226602D02*
Y236000D01*
Y226602D02*
X318400Y224000D01*
X554800Y197000D02*
X565500D01*
X491657Y133857D02*
X554800Y197000D01*
X491657Y110500D02*
Y133857D01*
D66*
X520777Y69224D02*
X524776D01*
X541000Y53000D01*
X571000D01*
X528319Y74193D02*
X528807D01*
X523000Y76827D02*
X528000D01*
Y74512D02*
X528319Y74193D01*
X535000Y68000D02*
X571000D01*
X528807Y74193D02*
X535000Y68000D01*
X528000Y74512D02*
Y76827D01*
X518000Y72000D02*
X520777Y69224D01*
X518000Y72000D02*
Y76827D01*
X513000D02*
X518000D01*
D67*
X551302Y332000D02*
X565500D01*
X550600Y331298D02*
X551302Y332000D01*
X536500Y331298D02*
X550600D01*
X553302Y347000D02*
X565500D01*
X548600Y351702D02*
X553302Y347000D01*
X536500Y351702D02*
X548600D01*
D68*
X478500Y530000D02*
D03*
Y379500D02*
D03*
X329000Y530000D02*
D03*
Y379500D02*
D03*
D69*
X178000Y167500D02*
D03*
Y77343D02*
D03*
Y117500D02*
D03*
Y187185D02*
D03*
X453842Y173000D02*
D03*
X403842D02*
D03*
X384157D02*
D03*
X494000D02*
D03*
X109500Y117500D02*
D03*
Y167500D02*
D03*
Y77343D02*
D03*
Y187185D02*
D03*
X492657Y294000D02*
D03*
X382815D02*
D03*
X402500D02*
D03*
X452500D02*
D03*
X246500Y77343D02*
D03*
Y187185D02*
D03*
Y167500D02*
D03*
Y117500D02*
D03*
X41000Y187185D02*
D03*
Y117500D02*
D03*
Y77343D02*
D03*
Y167500D02*
D03*
X494657Y233500D02*
D03*
X384815D02*
D03*
X404500D02*
D03*
X454500D02*
D03*
X451500Y110500D02*
D03*
X401500D02*
D03*
X381815D02*
D03*
X491657D02*
D03*
D70*
X565500Y332000D02*
D03*
Y302000D02*
D03*
Y272000D02*
D03*
Y257000D02*
D03*
Y227000D02*
D03*
Y197000D02*
D03*
Y182000D02*
D03*
Y212000D02*
D03*
Y242000D02*
D03*
Y287000D02*
D03*
Y317000D02*
D03*
Y347000D02*
D03*
X24000Y335500D02*
D03*
Y290500D02*
D03*
Y395500D02*
D03*
Y410500D02*
D03*
Y275500D02*
D03*
Y305500D02*
D03*
Y350500D02*
D03*
Y380500D02*
D03*
Y365500D02*
D03*
Y320500D02*
D03*
X571000Y53000D02*
D03*
Y68000D02*
D03*
D71*
X149500Y333000D02*
D03*
X139500D02*
D03*
Y353000D02*
D03*
X149500D02*
D03*
X139500Y343000D02*
D03*
X149500Y323000D02*
D03*
Y363000D02*
D03*
X139500Y323000D02*
D03*
X149500Y343000D02*
D03*
D72*
X139500Y363000D02*
D03*
D73*
X570866Y19685D02*
D03*
Y570866D02*
D03*
X19685D02*
D03*
Y19685D02*
D03*
D74*
X169000Y527500D02*
D03*
D75*
X149000D02*
D03*
D76*
X325000Y351087D02*
D03*
Y344000D02*
D03*
X324000Y323087D02*
D03*
Y316000D02*
D03*
X327500Y267087D02*
D03*
Y260000D02*
D03*
X331000Y197587D02*
D03*
Y190500D02*
D03*
X334500Y127587D02*
D03*
Y120500D02*
D03*
D77*
X325000Y336913D02*
D03*
X324000Y308913D02*
D03*
X327500Y252913D02*
D03*
X331000Y183413D02*
D03*
X334500Y113413D02*
D03*
D78*
X468000Y55000D02*
D03*
Y65000D02*
D03*
D79*
Y75000D02*
D03*
D80*
X248913Y531000D02*
D03*
X241827D02*
D03*
D81*
X256000D02*
D03*
D82*
X289500Y567500D02*
D03*
X319500D02*
D03*
X349500D02*
D03*
X394500D02*
D03*
X424500D02*
D03*
X454500D02*
D03*
X439500D02*
D03*
X409500D02*
D03*
X379500D02*
D03*
X364500D02*
D03*
X334500D02*
D03*
X304500D02*
D03*
D83*
X48157Y472000D02*
D03*
D84*
X55500Y501000D02*
D03*
X70500Y502000D02*
D03*
X95500Y497750D02*
D03*
X85500Y514000D02*
D03*
X505000Y60000D02*
D03*
X307500Y296500D02*
D03*
X496995Y53495D02*
D03*
X346429Y166821D02*
D03*
X354500Y77000D02*
D03*
X325000Y174000D02*
D03*
X330500Y72000D02*
D03*
X513750Y44000D02*
D03*
X350800Y243200D02*
D03*
X336700Y281102D02*
D03*
X287500Y119700D02*
D03*
X302709Y260000D02*
D03*
X287500Y189000D02*
D03*
X250413Y541500D02*
D03*
X244700Y242900D02*
D03*
X175800Y241300D02*
D03*
X318400Y224000D02*
D03*
X128400Y235900D02*
D03*
X436200Y240700D02*
D03*
X228500Y557500D02*
D03*
X251800Y517300D02*
D03*
X236000Y478000D02*
D03*
X49614Y523799D02*
D03*
X287500Y92875D02*
D03*
Y161583D02*
D03*
Y230292D02*
D03*
Y299000D02*
D03*
Y333000D02*
D03*
X480000Y12500D02*
D03*
X95500Y478000D02*
D03*
X151000Y478488D02*
D03*
X184500Y478000D02*
D03*
X63000Y523799D02*
D03*
X76386D02*
D03*
X201000Y478000D02*
D03*
X530000Y12000D02*
D03*
X223500Y478000D02*
D03*
X543000Y12000D02*
D03*
X196945Y509701D02*
D03*
X39429Y555500D02*
D03*
M02*
