G04*
G04 #@! TF.GenerationSoftware,Altium Limited,Altium Designer,22.3.1 (43)*
G04*
G04 Layer_Physical_Order=4*
G04 Layer_Color=16711680*
%FSLAX25Y25*%
%MOIN*%
G70*
G04*
G04 #@! TF.SameCoordinates,5406EE39-799D-43BB-BE37-E4F8AF43DF71*
G04*
G04*
G04 #@! TF.FilePolarity,Positive*
G04*
G01*
G75*
%ADD29R,0.07874X0.07874*%
%ADD59C,0.03000*%
%ADD60C,0.15000*%
%ADD64C,0.06299*%
%ADD65R,0.06299X0.06299*%
%ADD66O,0.11811X0.08661*%
%ADD67C,0.20000*%
%ADD68C,0.07677*%
%ADD69O,0.04724X0.07874*%
%ADD70R,0.04724X0.07874*%
%ADD71O,0.08661X0.11811*%
%ADD72R,0.07874X0.07874*%
%ADD73C,0.07874*%
%ADD74C,0.07480*%
%ADD75R,0.07480X0.07480*%
%ADD76C,0.05000*%
G36*
X590500Y0D02*
X0D01*
Y590500D01*
X590500D01*
Y0D01*
D02*
G37*
%LPC*%
G36*
X77500Y579989D02*
Y577000D01*
X80489D01*
X80261Y577851D01*
X79801Y578649D01*
X79149Y579301D01*
X78351Y579762D01*
X77500Y579989D01*
D02*
G37*
G36*
X76500D02*
X75649Y579762D01*
X74851Y579301D01*
X74199Y578649D01*
X73738Y577851D01*
X73510Y577000D01*
X76500D01*
Y579989D01*
D02*
G37*
G36*
X412500Y584448D02*
X411064Y584259D01*
X409726Y583705D01*
X408577Y582823D01*
X405577Y579823D01*
X404696Y578674D01*
X404142Y577336D01*
X403953Y575901D01*
Y575299D01*
X403581Y574994D01*
X402540Y573726D01*
X402250Y573183D01*
X401750D01*
X401460Y573726D01*
X400419Y574994D01*
X399151Y576035D01*
X397703Y576809D01*
X396133Y577285D01*
X394500Y577446D01*
X392867Y577285D01*
X391297Y576809D01*
X389849Y576035D01*
X388581Y574994D01*
X387540Y573726D01*
X387250Y573183D01*
X386750D01*
X386460Y573726D01*
X385419Y574994D01*
X384151Y576035D01*
X382703Y576809D01*
X381133Y577285D01*
X379500Y577446D01*
X377867Y577285D01*
X376296Y576809D01*
X374977Y576103D01*
X371252Y579828D01*
X370103Y580710D01*
X368765Y581264D01*
X367329Y581453D01*
X361671D01*
X360235Y581264D01*
X358897Y580710D01*
X357748Y579828D01*
X357000Y579080D01*
X356252Y579828D01*
X355103Y580710D01*
X353765Y581264D01*
X352329Y581453D01*
X346671D01*
X345235Y581264D01*
X343897Y580710D01*
X342748Y579828D01*
X342000Y579080D01*
X341252Y579828D01*
X340103Y580710D01*
X338765Y581264D01*
X337329Y581453D01*
X331671D01*
X330235Y581264D01*
X328897Y580710D01*
X327748Y579828D01*
X327000Y579080D01*
X326252Y579828D01*
X325103Y580710D01*
X323765Y581264D01*
X322329Y581453D01*
X316671D01*
X315235Y581264D01*
X313897Y580710D01*
X312748Y579828D01*
X312000Y579080D01*
X311252Y579828D01*
X310103Y580710D01*
X308765Y581264D01*
X307329Y581453D01*
X301671D01*
X300235Y581264D01*
X298897Y580710D01*
X297748Y579828D01*
X297000Y579080D01*
X296252Y579828D01*
X295103Y580710D01*
X293765Y581264D01*
X292329Y581453D01*
X286671D01*
X286671Y581453D01*
X285235Y581264D01*
X283897Y580710D01*
X282748Y579828D01*
X278747Y575827D01*
X277865Y574678D01*
X277311Y573340D01*
X277272Y573047D01*
X79020D01*
X78886Y573547D01*
X79149Y573699D01*
X79801Y574351D01*
X80261Y575149D01*
X80489Y576000D01*
X73510D01*
X73738Y575149D01*
X74199Y574351D01*
X74851Y573699D01*
X75114Y573547D01*
X74980Y573047D01*
X63405D01*
X62721Y572957D01*
X62036Y572876D01*
X62003Y572863D01*
X61969Y572858D01*
X61331Y572594D01*
X60691Y572339D01*
X60663Y572318D01*
X60631Y572304D01*
X60083Y571884D01*
X59531Y571472D01*
X58657Y570619D01*
X58636Y570592D01*
X58608Y570570D01*
X58608Y570570D01*
X58581Y570544D01*
X58581Y570544D01*
X38585Y550548D01*
X29897D01*
X29579Y550760D01*
X28396Y551250D01*
X27140Y551500D01*
X25860D01*
X24604Y551250D01*
X23421Y550760D01*
X22356Y550049D01*
X21451Y549144D01*
X20740Y548079D01*
X20250Y546896D01*
X20000Y545640D01*
Y544360D01*
X20250Y543104D01*
X20740Y541921D01*
X21451Y540857D01*
X22356Y539951D01*
X23421Y539240D01*
X24604Y538750D01*
X25860Y538500D01*
X27140D01*
X28396Y538750D01*
X29579Y539240D01*
X29897Y539453D01*
X40883D01*
X42318Y539642D01*
X43656Y540196D01*
X44805Y541077D01*
X65680Y561952D01*
X248306D01*
X248498Y561491D01*
X248151Y561144D01*
X247440Y560079D01*
X247219Y559548D01*
X220897D01*
X220579Y559761D01*
X219396Y560251D01*
X218140Y560500D01*
X216860D01*
X215604Y560251D01*
X214421Y559761D01*
X213356Y559049D01*
X212451Y558144D01*
X211740Y557079D01*
X211250Y555896D01*
X211000Y554641D01*
Y553360D01*
X211250Y552104D01*
X211740Y550921D01*
X212451Y549857D01*
X213356Y548951D01*
X214421Y548240D01*
X215604Y547750D01*
X216860Y547500D01*
X218140D01*
X219396Y547750D01*
X220579Y548240D01*
X220897Y548453D01*
X426954D01*
X427146Y547991D01*
X427077Y547923D01*
X426196Y546774D01*
X425642Y545436D01*
X425453Y544000D01*
Y320000D01*
X425360D01*
X424104Y319750D01*
X422921Y319260D01*
X422603Y319047D01*
X180399D01*
X178964Y318858D01*
X177626Y318304D01*
X176477Y317423D01*
X176477Y317423D01*
X155102Y296047D01*
X31799D01*
X31494Y296419D01*
X30226Y297460D01*
X29683Y297750D01*
Y298250D01*
X30226Y298540D01*
X31494Y299581D01*
X31799Y299953D01*
X150000D01*
X151436Y300142D01*
X152773Y300696D01*
X153922Y301577D01*
X159122Y306777D01*
X160004Y307926D01*
X160558Y309264D01*
X160747Y310700D01*
Y324299D01*
X161247Y324682D01*
X162160Y324500D01*
X163440D01*
X164696Y324750D01*
X165788Y325203D01*
X314228D01*
X314921Y324740D01*
X316104Y324250D01*
X317360Y324000D01*
X318640D01*
X319896Y324250D01*
X321079Y324740D01*
X322144Y325451D01*
X323049Y326357D01*
X323760Y327421D01*
X324250Y328604D01*
X324500Y329860D01*
Y331140D01*
X324415Y331566D01*
X324732Y331953D01*
X331603D01*
X331921Y331740D01*
X333104Y331250D01*
X334360Y331000D01*
X335640D01*
X336896Y331250D01*
X338079Y331740D01*
X339059Y332395D01*
X339328Y332247D01*
X339473Y332087D01*
X339250Y331549D01*
X339000Y330293D01*
Y329013D01*
X339250Y327757D01*
X339740Y326574D01*
X340451Y325510D01*
X341356Y324604D01*
X342421Y323893D01*
X343604Y323403D01*
X344860Y323153D01*
X346140D01*
X347396Y323403D01*
X348579Y323893D01*
X349643Y324604D01*
X350549Y325510D01*
X351260Y326574D01*
X351750Y327757D01*
X352000Y329013D01*
Y330293D01*
X351750Y331549D01*
X351260Y332732D01*
X350549Y333797D01*
X349643Y334702D01*
X348579Y335413D01*
X347396Y335903D01*
X346140Y336153D01*
X344860D01*
X343604Y335903D01*
X342421Y335413D01*
X341441Y334759D01*
X341172Y334906D01*
X341027Y335066D01*
X341250Y335604D01*
X341500Y336860D01*
Y338140D01*
X341250Y339396D01*
X340760Y340579D01*
X340049Y341644D01*
X339143Y342549D01*
X338079Y343260D01*
X336896Y343750D01*
X335640Y344000D01*
X334360D01*
X333104Y343750D01*
X331921Y343260D01*
X331603Y343047D01*
X168734D01*
X168388Y343548D01*
X168547Y344757D01*
Y385643D01*
X168358Y387079D01*
X167804Y388417D01*
X166923Y389566D01*
X166923Y389566D01*
X165165Y391323D01*
X164016Y392205D01*
X162678Y392759D01*
X161243Y392948D01*
X155928D01*
X155651Y393364D01*
X155750Y393604D01*
X156000Y394860D01*
Y396140D01*
X155750Y397396D01*
X155260Y398579D01*
X154549Y399643D01*
X153644Y400549D01*
X152579Y401260D01*
X151396Y401750D01*
X150140Y402000D01*
X148860D01*
X147604Y401750D01*
X146421Y401260D01*
X146103Y401047D01*
X31799D01*
X31494Y401419D01*
X30226Y402460D01*
X29683Y402750D01*
Y403250D01*
X30226Y403540D01*
X31494Y404581D01*
X32535Y405849D01*
X33309Y407297D01*
X33785Y408867D01*
X33946Y410500D01*
X33785Y412133D01*
X33309Y413703D01*
X32535Y415151D01*
X31494Y416419D01*
X30226Y417460D01*
X28778Y418234D01*
X27208Y418710D01*
X25575Y418871D01*
X22425D01*
X20792Y418710D01*
X19222Y418234D01*
X17774Y417460D01*
X16506Y416419D01*
X15465Y415151D01*
X14691Y413703D01*
X14215Y412133D01*
X14054Y410500D01*
X14215Y408867D01*
X14691Y407297D01*
X15465Y405849D01*
X16506Y404581D01*
X17774Y403540D01*
X18317Y403250D01*
Y402750D01*
X17774Y402460D01*
X16506Y401419D01*
X15465Y400151D01*
X14691Y398703D01*
X14215Y397133D01*
X14054Y395500D01*
X14215Y393867D01*
X14420Y393190D01*
X14149Y392770D01*
X14064Y392759D01*
X12726Y392205D01*
X11577Y391323D01*
X10696Y390174D01*
X10141Y388836D01*
X9952Y387400D01*
Y335500D01*
X10141Y334064D01*
X10696Y332726D01*
X11577Y331577D01*
X12726Y330696D01*
X13525Y330365D01*
X13623Y329874D01*
X7672Y323923D01*
X6790Y322774D01*
X6236Y321436D01*
X6047Y320000D01*
Y287006D01*
X6236Y285570D01*
X6790Y284232D01*
X7672Y283083D01*
X11077Y279678D01*
X11077Y279678D01*
X12226Y278796D01*
X13564Y278242D01*
X14130Y278167D01*
X14401Y277747D01*
X14215Y277133D01*
X14054Y275500D01*
X14215Y273867D01*
X14691Y272297D01*
X15465Y270849D01*
X16506Y269581D01*
X17774Y268540D01*
X19222Y267766D01*
X20792Y267290D01*
X22425Y267129D01*
X25575D01*
X27208Y267290D01*
X28778Y267766D01*
X30226Y268540D01*
X31494Y269581D01*
X31799Y269953D01*
X164402D01*
X164721Y269740D01*
X165904Y269250D01*
X167160Y269000D01*
X168440D01*
X169696Y269250D01*
X170879Y269740D01*
X171943Y270451D01*
X172849Y271357D01*
X173560Y272421D01*
X174050Y273604D01*
X174300Y274860D01*
Y276140D01*
X174050Y277396D01*
X173950Y277637D01*
X174228Y278053D01*
X317902D01*
X328252Y267703D01*
Y243357D01*
X328040Y243039D01*
X327550Y241856D01*
X327300Y240600D01*
Y239320D01*
X327550Y238064D01*
X328040Y236881D01*
X328751Y235817D01*
X329656Y234911D01*
X330721Y234200D01*
X331904Y233710D01*
X333160Y233460D01*
X334440D01*
X335696Y233710D01*
X336879Y234200D01*
X337943Y234911D01*
X338849Y235817D01*
X339560Y236881D01*
X340050Y238064D01*
X340281Y239223D01*
X340544Y239364D01*
X340800Y239411D01*
X341356Y238854D01*
X342421Y238143D01*
X343604Y237653D01*
X344860Y237403D01*
X346140D01*
X347396Y237653D01*
X348579Y238143D01*
X349643Y238854D01*
X350549Y239760D01*
X351260Y240824D01*
X351750Y242007D01*
X352000Y243263D01*
Y244543D01*
X351750Y245799D01*
X351260Y246982D01*
X350549Y248047D01*
X349643Y248952D01*
X348579Y249663D01*
X347396Y250153D01*
X346140Y250403D01*
X344860D01*
X343604Y250153D01*
X342421Y249663D01*
X341356Y248952D01*
X340451Y248047D01*
X339847Y247143D01*
X339347Y247295D01*
Y270000D01*
X339158Y271436D01*
X338604Y272774D01*
X337722Y273923D01*
X337722Y273923D01*
X324122Y287523D01*
X322973Y288405D01*
X321636Y288959D01*
X320200Y289148D01*
X164546D01*
X164355Y289610D01*
X182697Y307952D01*
X387717D01*
X388021Y307556D01*
X387976Y307387D01*
Y307250D01*
X392815D01*
X397653D01*
Y307387D01*
X397608Y307556D01*
X397912Y307952D01*
X404353D01*
X404670Y307566D01*
X404661Y307522D01*
Y305978D01*
X404962Y304464D01*
X405553Y303037D01*
X406411Y301753D01*
X407503Y300661D01*
X408787Y299803D01*
X410213Y299213D01*
X411728Y298911D01*
X413272D01*
X414786Y299213D01*
X416213Y299803D01*
X417496Y300661D01*
X418588Y301753D01*
X419446Y303037D01*
X420037Y304464D01*
X420338Y305978D01*
Y307522D01*
X420329Y307566D01*
X420647Y307952D01*
X422603D01*
X422921Y307740D01*
X424104Y307250D01*
X425360Y307000D01*
X425453D01*
Y282898D01*
X364002Y221448D01*
X261598D01*
X239922Y243123D01*
X238773Y244005D01*
X237436Y244559D01*
X236000Y244748D01*
X120200D01*
X118765Y244559D01*
X117427Y244005D01*
X116278Y243123D01*
X116278Y243123D01*
X50993Y177839D01*
X50228D01*
X48714Y177537D01*
X47287Y176946D01*
X46003Y176089D01*
X44911Y174997D01*
X44054Y173713D01*
X43463Y172286D01*
X43161Y170772D01*
Y169228D01*
X43463Y167713D01*
X44054Y166287D01*
X44911Y165003D01*
X46003Y163911D01*
X47287Y163054D01*
X48714Y162463D01*
X50228Y162161D01*
X51772D01*
X53286Y162463D01*
X54713Y163054D01*
X55997Y163911D01*
X57089Y165003D01*
X57946Y166287D01*
X58537Y167713D01*
X58839Y169228D01*
Y169993D01*
X122498Y233653D01*
X205806D01*
X205852Y233600D01*
Y95040D01*
X196993Y86181D01*
X196228D01*
X194714Y85880D01*
X193287Y85289D01*
X192003Y84431D01*
X190911Y83339D01*
X190053Y82055D01*
X189463Y80629D01*
X189161Y79115D01*
Y77570D01*
X189463Y76056D01*
X190053Y74630D01*
X190911Y73346D01*
X192003Y72254D01*
X193287Y71396D01*
X194714Y70805D01*
X196228Y70504D01*
X197772D01*
X199286Y70805D01*
X200713Y71396D01*
X201997Y72254D01*
X203089Y73346D01*
X203946Y74630D01*
X204537Y76056D01*
X204839Y77570D01*
Y78336D01*
X215322Y88820D01*
X215322Y88820D01*
X216204Y89969D01*
X216758Y91307D01*
X216947Y92742D01*
Y229255D01*
X217549Y229856D01*
X218260Y230921D01*
X218750Y232104D01*
X219000Y233360D01*
Y233653D01*
X233702D01*
X255377Y211978D01*
X255377Y211978D01*
X256526Y211096D01*
X257864Y210542D01*
X259300Y210353D01*
X259300Y210353D01*
X366300D01*
X367736Y210542D01*
X369074Y211096D01*
X370222Y211978D01*
X434923Y276678D01*
X434923Y276678D01*
X435804Y277827D01*
X436358Y279165D01*
X436548Y280601D01*
Y541702D01*
X439298Y544453D01*
X442057D01*
X443492Y544642D01*
X444830Y545196D01*
X445979Y546078D01*
X454322Y554421D01*
X454322Y554421D01*
X455204Y555570D01*
X455758Y556908D01*
X455861Y557688D01*
X456133Y557715D01*
X457703Y558191D01*
X459151Y558965D01*
X460419Y560006D01*
X461460Y561274D01*
X462234Y562722D01*
X462710Y564292D01*
X462871Y565925D01*
Y569075D01*
X462710Y570708D01*
X462234Y572278D01*
X461460Y573726D01*
X460419Y574994D01*
X459151Y576035D01*
X457703Y576809D01*
X456133Y577285D01*
X454500Y577446D01*
X452867Y577285D01*
X451297Y576809D01*
X450396Y576327D01*
X450322Y576423D01*
X450322Y576423D01*
X443922Y582823D01*
X442773Y583705D01*
X441436Y584259D01*
X440000Y584448D01*
X412500D01*
X412500Y584448D01*
D02*
G37*
G36*
X571968Y584866D02*
X569764D01*
X567588Y584521D01*
X565492Y583840D01*
X563528Y582840D01*
X561746Y581545D01*
X560187Y579986D01*
X558892Y578204D01*
X557892Y576240D01*
X557211Y574145D01*
X556866Y571968D01*
Y569764D01*
X557211Y567588D01*
X557892Y565492D01*
X558892Y563528D01*
X560187Y561746D01*
X561746Y560187D01*
X563528Y558892D01*
X565492Y557892D01*
X567588Y557211D01*
X569764Y556866D01*
X571968D01*
X574145Y557211D01*
X576240Y557892D01*
X578204Y558892D01*
X579986Y560187D01*
X581545Y561746D01*
X582840Y563528D01*
X583840Y565492D01*
X584521Y567588D01*
X584866Y569764D01*
Y571968D01*
X584521Y574145D01*
X583840Y576240D01*
X582840Y578204D01*
X581545Y579986D01*
X579986Y581545D01*
X578204Y582840D01*
X576240Y583840D01*
X574145Y584521D01*
X571968Y584866D01*
D02*
G37*
G36*
X20787D02*
X18583D01*
X16407Y584521D01*
X14311Y583840D01*
X12347Y582840D01*
X10565Y581545D01*
X9006Y579986D01*
X7711Y578204D01*
X6711Y576240D01*
X6030Y574145D01*
X5685Y571968D01*
Y569764D01*
X6030Y567588D01*
X6711Y565492D01*
X7711Y563528D01*
X9006Y561746D01*
X10565Y560187D01*
X12347Y558892D01*
X14311Y557892D01*
X16407Y557211D01*
X18583Y556866D01*
X20787D01*
X22963Y557211D01*
X25059Y557892D01*
X27023Y558892D01*
X28805Y560187D01*
X30364Y561746D01*
X31659Y563528D01*
X32659Y565492D01*
X33340Y567588D01*
X33685Y569764D01*
Y571968D01*
X33340Y574145D01*
X32659Y576240D01*
X31659Y578204D01*
X30364Y579986D01*
X28805Y581545D01*
X27023Y582840D01*
X25059Y583840D01*
X22963Y584521D01*
X20787Y584866D01*
D02*
G37*
G36*
X291413Y534468D02*
X290166Y534345D01*
X288967Y533981D01*
X287870Y533395D01*
X286773Y533981D01*
X285574Y534345D01*
X284327Y534468D01*
X283080Y534345D01*
X281880Y533981D01*
X280775Y533390D01*
X279806Y532595D01*
X279011Y531627D01*
X278420Y530521D01*
X278057Y529322D01*
X277934Y528075D01*
Y524925D01*
X278057Y523678D01*
X278420Y522479D01*
X279011Y521373D01*
X279806Y520405D01*
X280775Y519610D01*
X281880Y519019D01*
X283080Y518655D01*
X284327Y518532D01*
X285574Y518655D01*
X285806Y518725D01*
X286055Y518565D01*
X286609Y517227D01*
X287491Y516078D01*
X294291Y509278D01*
X295440Y508396D01*
X296778Y507842D01*
X298213Y507653D01*
X305102D01*
X305421Y507440D01*
X306604Y506950D01*
X307860Y506700D01*
X309140D01*
X310396Y506950D01*
X311579Y507440D01*
X312643Y508151D01*
X313549Y509057D01*
X314260Y510121D01*
X314750Y511304D01*
X315000Y512560D01*
Y513841D01*
X314750Y515096D01*
X314260Y516279D01*
X313549Y517344D01*
X312643Y518249D01*
X311579Y518961D01*
X310396Y519451D01*
X309140Y519700D01*
X307860D01*
X306604Y519451D01*
X305421Y518961D01*
X305102Y518748D01*
X300511D01*
X298158Y521101D01*
X298349Y521563D01*
X301862D01*
Y526000D01*
X298500D01*
Y526500D01*
X298000D01*
Y531437D01*
X296830D01*
X296729Y531627D01*
X295934Y532595D01*
X294965Y533390D01*
X293860Y533981D01*
X292661Y534345D01*
X291413Y534468D01*
D02*
G37*
G36*
X54500Y531490D02*
Y528500D01*
X57490D01*
X57262Y529351D01*
X56801Y530149D01*
X56149Y530801D01*
X55351Y531261D01*
X54500Y531490D01*
D02*
G37*
G36*
X53500D02*
X52649Y531261D01*
X51851Y530801D01*
X51199Y530149D01*
X50739Y529351D01*
X50511Y528500D01*
X53500D01*
Y531490D01*
D02*
G37*
G36*
X72000Y530990D02*
Y528000D01*
X74989D01*
X74761Y528851D01*
X74301Y529649D01*
X73649Y530301D01*
X72851Y530761D01*
X72000Y530990D01*
D02*
G37*
G36*
X71000D02*
X70149Y530761D01*
X69351Y530301D01*
X68699Y529649D01*
X68239Y528851D01*
X68010Y528000D01*
X71000D01*
Y530990D01*
D02*
G37*
G36*
X173740Y532240D02*
X169500D01*
Y528000D01*
X173740D01*
Y532240D01*
D02*
G37*
G36*
X168500D02*
X164260D01*
Y528000D01*
X168500D01*
Y532240D01*
D02*
G37*
G36*
X301862Y531437D02*
X299000D01*
Y527000D01*
X301862D01*
Y531437D01*
D02*
G37*
G36*
X57490Y527500D02*
X54500D01*
Y524510D01*
X55351Y524739D01*
X56149Y525199D01*
X56801Y525851D01*
X57262Y526649D01*
X57490Y527500D01*
D02*
G37*
G36*
X53500D02*
X50511D01*
X50739Y526649D01*
X51199Y525851D01*
X51851Y525199D01*
X52649Y524739D01*
X53500Y524510D01*
Y527500D01*
D02*
G37*
G36*
X74989Y527000D02*
X72000D01*
Y524011D01*
X72851Y524238D01*
X73649Y524699D01*
X74301Y525351D01*
X74761Y526149D01*
X74989Y527000D01*
D02*
G37*
G36*
X71000D02*
X68010D01*
X68239Y526149D01*
X68699Y525351D01*
X69351Y524699D01*
X70149Y524238D01*
X71000Y524011D01*
Y527000D01*
D02*
G37*
G36*
X40640Y535500D02*
X39360D01*
X38104Y535250D01*
X36921Y534760D01*
X35857Y534049D01*
X34951Y533144D01*
X34240Y532079D01*
X33750Y530896D01*
X33500Y529640D01*
Y528360D01*
X33750Y527104D01*
X34240Y525921D01*
X34951Y524857D01*
X35857Y523951D01*
X36921Y523240D01*
X38104Y522750D01*
X39360Y522500D01*
X40640D01*
X41896Y522750D01*
X43079Y523240D01*
X44144Y523951D01*
X45049Y524857D01*
X45760Y525921D01*
X46250Y527104D01*
X46500Y528360D01*
Y529640D01*
X46250Y530896D01*
X45760Y532079D01*
X45049Y533144D01*
X44144Y534049D01*
X43079Y534760D01*
X41896Y535250D01*
X40640Y535500D01*
D02*
G37*
G36*
X504557Y531937D02*
X502994D01*
X501461Y531632D01*
X500016Y531034D01*
X498716Y530165D01*
X497611Y529060D01*
X496742Y527760D01*
X496144Y526315D01*
X495839Y524782D01*
Y523218D01*
X496144Y521685D01*
X496742Y520240D01*
X497611Y518940D01*
X498716Y517835D01*
X500016Y516966D01*
X501461Y516368D01*
X502994Y516063D01*
X504557D01*
X506091Y516368D01*
X507535Y516966D01*
X508835Y517835D01*
X509941Y518940D01*
X510809Y520240D01*
X511408Y521685D01*
X511713Y523218D01*
Y524782D01*
X511408Y526315D01*
X510809Y527760D01*
X509941Y529060D01*
X508835Y530165D01*
X507535Y531034D01*
X506091Y531632D01*
X504557Y531937D01*
D02*
G37*
G36*
X471161D02*
X455287D01*
Y516063D01*
X471161D01*
Y531937D01*
D02*
G37*
G36*
X200434Y509201D02*
X197445D01*
Y506211D01*
X198296Y506439D01*
X199094Y506900D01*
X199746Y507551D01*
X200206Y508350D01*
X200434Y509201D01*
D02*
G37*
G36*
X196445D02*
X193455D01*
X193683Y508350D01*
X194144Y507551D01*
X194796Y506900D01*
X195594Y506439D01*
X196445Y506211D01*
Y509201D01*
D02*
G37*
G36*
X149762Y535240D02*
X148238D01*
X146742Y534943D01*
X145334Y534359D01*
X144066Y533512D01*
X142988Y532434D01*
X142141Y531166D01*
X141557Y529758D01*
X141260Y528262D01*
Y526738D01*
X141557Y525242D01*
X142141Y523834D01*
X142988Y522566D01*
X144066Y521488D01*
X145334Y520641D01*
X146742Y520057D01*
X148238Y519760D01*
X148895D01*
X155077Y513578D01*
X156226Y512696D01*
X157564Y512142D01*
X159000Y511953D01*
X193626D01*
X193915Y511453D01*
X193683Y511052D01*
X193455Y510201D01*
X200434D01*
X200206Y511052D01*
X199975Y511453D01*
X200263Y511953D01*
X200757D01*
X208730Y503980D01*
X208805Y503604D01*
X209295Y502422D01*
X210006Y501357D01*
X210912Y500452D01*
X211976Y499740D01*
X213159Y499250D01*
X214415Y499000D01*
X215695D01*
X216951Y499250D01*
X218134Y499740D01*
X219199Y500452D01*
X220104Y501357D01*
X220815Y502422D01*
X221305Y503604D01*
X221555Y504860D01*
Y506141D01*
X221305Y507396D01*
X220815Y508579D01*
X220104Y509644D01*
X219199Y510549D01*
X218134Y511261D01*
X216951Y511751D01*
X216576Y511825D01*
X206978Y521423D01*
X205829Y522305D01*
X204491Y522859D01*
X203055Y523048D01*
X173740D01*
Y527000D01*
X169000D01*
X164260D01*
Y523048D01*
X161297D01*
X156740Y527605D01*
Y528262D01*
X156443Y529758D01*
X155859Y531166D01*
X155012Y532434D01*
X153934Y533512D01*
X152666Y534359D01*
X151258Y534943D01*
X149762Y535240D01*
D02*
G37*
G36*
X346140Y507653D02*
X344860D01*
X343604Y507403D01*
X342421Y506913D01*
X341356Y506202D01*
X340451Y505297D01*
X339740Y504232D01*
X339250Y503049D01*
X339000Y501793D01*
Y500513D01*
X339250Y499257D01*
X339740Y498074D01*
X340451Y497010D01*
X341356Y496104D01*
X342421Y495393D01*
X343604Y494903D01*
X344860Y494653D01*
X346140D01*
X347396Y494903D01*
X348579Y495393D01*
X349643Y496104D01*
X350549Y497010D01*
X351260Y498074D01*
X351750Y499257D01*
X352000Y500513D01*
Y501793D01*
X351750Y503049D01*
X351260Y504232D01*
X350549Y505297D01*
X349643Y506202D01*
X348579Y506913D01*
X347396Y507403D01*
X346140Y507653D01*
D02*
G37*
G36*
X96140Y504500D02*
X94860D01*
X93604Y504250D01*
X92421Y503760D01*
X91356Y503049D01*
X90451Y502143D01*
X89740Y501079D01*
X89250Y499896D01*
X89000Y498640D01*
Y497360D01*
X89250Y496104D01*
X89740Y494921D01*
X90451Y493856D01*
X91356Y492951D01*
X92421Y492240D01*
X93604Y491750D01*
X94860Y491500D01*
X96140D01*
X97396Y491750D01*
X98579Y492240D01*
X99643Y492951D01*
X100549Y493856D01*
X101260Y494921D01*
X101750Y496104D01*
X102000Y497360D01*
Y498640D01*
X101750Y499896D01*
X101260Y501079D01*
X100549Y502143D01*
X99643Y503049D01*
X98579Y503760D01*
X97396Y504250D01*
X96140Y504500D01*
D02*
G37*
G36*
X393452Y485839D02*
X393315D01*
Y481500D01*
X397653D01*
Y481637D01*
X397323Y482868D01*
X396686Y483971D01*
X395786Y484872D01*
X394682Y485509D01*
X393452Y485839D01*
D02*
G37*
G36*
X392315D02*
X392178D01*
X390947Y485509D01*
X389844Y484872D01*
X388943Y483971D01*
X388306Y482868D01*
X387976Y481637D01*
Y481500D01*
X392315D01*
Y485839D01*
D02*
G37*
G36*
X151500Y481978D02*
Y478988D01*
X154490D01*
X154262Y479839D01*
X153801Y480637D01*
X153149Y481289D01*
X152351Y481749D01*
X151500Y481978D01*
D02*
G37*
G36*
X150500D02*
X149649Y481749D01*
X148851Y481289D01*
X148199Y480637D01*
X147739Y479839D01*
X147511Y478988D01*
X150500D01*
Y481978D01*
D02*
G37*
G36*
X257500Y481490D02*
Y478500D01*
X260490D01*
X260262Y479351D01*
X259801Y480149D01*
X259149Y480801D01*
X258351Y481261D01*
X257500Y481490D01*
D02*
G37*
G36*
X256500D02*
X255649Y481261D01*
X254851Y480801D01*
X254199Y480149D01*
X253738Y479351D01*
X253510Y478500D01*
X256500D01*
Y481490D01*
D02*
G37*
G36*
X239000D02*
Y478500D01*
X241989D01*
X241761Y479351D01*
X241301Y480149D01*
X240649Y480801D01*
X239851Y481261D01*
X239000Y481490D01*
D02*
G37*
G36*
X238000D02*
X237149Y481261D01*
X236351Y480801D01*
X235699Y480149D01*
X235239Y479351D01*
X235011Y478500D01*
X238000D01*
Y481490D01*
D02*
G37*
G36*
X201500D02*
Y478500D01*
X204489D01*
X204261Y479351D01*
X203801Y480149D01*
X203149Y480801D01*
X202351Y481261D01*
X201500Y481490D01*
D02*
G37*
G36*
X200500D02*
X199649Y481261D01*
X198851Y480801D01*
X198199Y480149D01*
X197739Y479351D01*
X197511Y478500D01*
X200500D01*
Y481490D01*
D02*
G37*
G36*
X185000D02*
Y478500D01*
X187989D01*
X187761Y479351D01*
X187301Y480149D01*
X186649Y480801D01*
X185851Y481261D01*
X185000Y481490D01*
D02*
G37*
G36*
X184000D02*
X183149Y481261D01*
X182351Y480801D01*
X181699Y480149D01*
X181238Y479351D01*
X181010Y478500D01*
X184000D01*
Y481490D01*
D02*
G37*
G36*
X96000D02*
Y478500D01*
X98989D01*
X98761Y479351D01*
X98301Y480149D01*
X97649Y480801D01*
X96851Y481261D01*
X96000Y481490D01*
D02*
G37*
G36*
X95000D02*
X94149Y481261D01*
X93351Y480801D01*
X92699Y480149D01*
X92238Y479351D01*
X92010Y478500D01*
X95000D01*
Y481490D01*
D02*
G37*
G36*
X397653Y480500D02*
X393315D01*
Y476161D01*
X393452D01*
X394682Y476491D01*
X395786Y477128D01*
X396686Y478029D01*
X397323Y479132D01*
X397653Y480363D01*
Y480500D01*
D02*
G37*
G36*
X392315D02*
X387976D01*
Y480363D01*
X388306Y479132D01*
X388943Y478029D01*
X389844Y477128D01*
X390947Y476491D01*
X392178Y476161D01*
X392315D01*
Y480500D01*
D02*
G37*
G36*
X154490Y477988D02*
X151500D01*
Y474999D01*
X152351Y475226D01*
X153149Y475687D01*
X153801Y476339D01*
X154262Y477137D01*
X154490Y477988D01*
D02*
G37*
G36*
X150500D02*
X147511D01*
X147739Y477137D01*
X148199Y476339D01*
X148851Y475687D01*
X149649Y475226D01*
X150500Y474999D01*
Y477988D01*
D02*
G37*
G36*
X260490Y477500D02*
X257500D01*
Y474510D01*
X258351Y474739D01*
X259149Y475199D01*
X259801Y475851D01*
X260262Y476649D01*
X260490Y477500D01*
D02*
G37*
G36*
X256500D02*
X253510D01*
X253738Y476649D01*
X254199Y475851D01*
X254851Y475199D01*
X255649Y474739D01*
X256500Y474510D01*
Y477500D01*
D02*
G37*
G36*
X241989D02*
X239000D01*
Y474510D01*
X239851Y474739D01*
X240649Y475199D01*
X241301Y475851D01*
X241761Y476649D01*
X241989Y477500D01*
D02*
G37*
G36*
X238000D02*
X235011D01*
X235239Y476649D01*
X235699Y475851D01*
X236351Y475199D01*
X237149Y474739D01*
X238000Y474510D01*
Y477500D01*
D02*
G37*
G36*
X204489D02*
X201500D01*
Y474510D01*
X202351Y474739D01*
X203149Y475199D01*
X203801Y475851D01*
X204261Y476649D01*
X204489Y477500D01*
D02*
G37*
G36*
X200500D02*
X197511D01*
X197739Y476649D01*
X198199Y475851D01*
X198851Y475199D01*
X199649Y474739D01*
X200500Y474510D01*
Y477500D01*
D02*
G37*
G36*
X187989D02*
X185000D01*
Y474510D01*
X185851Y474739D01*
X186649Y475199D01*
X187301Y475851D01*
X187761Y476649D01*
X187989Y477500D01*
D02*
G37*
G36*
X184000D02*
X181010D01*
X181238Y476649D01*
X181699Y475851D01*
X182351Y475199D01*
X183149Y474739D01*
X184000Y474510D01*
Y477500D01*
D02*
G37*
G36*
X98989D02*
X96000D01*
Y474510D01*
X96851Y474739D01*
X97649Y475199D01*
X98301Y475851D01*
X98761Y476649D01*
X98989Y477500D01*
D02*
G37*
G36*
X95000D02*
X92010D01*
X92238Y476649D01*
X92699Y475851D01*
X93351Y475199D01*
X94149Y474739D01*
X95000Y474510D01*
Y477500D01*
D02*
G37*
G36*
X413272Y488839D02*
X411728D01*
X410213Y488537D01*
X408787Y487946D01*
X407503Y487089D01*
X406411Y485997D01*
X405553Y484713D01*
X404962Y483286D01*
X404661Y481772D01*
Y480228D01*
X404962Y478714D01*
X405553Y477287D01*
X406411Y476003D01*
X407503Y474911D01*
X408787Y474053D01*
X410213Y473463D01*
X411728Y473161D01*
X413272D01*
X414786Y473463D01*
X416213Y474053D01*
X417496Y474911D01*
X418588Y476003D01*
X419446Y477287D01*
X420037Y478714D01*
X420338Y480228D01*
Y481772D01*
X420037Y483286D01*
X419446Y484713D01*
X418588Y485997D01*
X417496Y487089D01*
X416213Y487946D01*
X414786Y488537D01*
X413272Y488839D01*
D02*
G37*
G36*
X72779Y476937D02*
X68342D01*
Y472500D01*
X72779D01*
Y476937D01*
D02*
G37*
G36*
X67342D02*
X62905D01*
Y472500D01*
X67342D01*
Y476937D01*
D02*
G37*
G36*
X72779Y471500D02*
X68342D01*
Y467063D01*
X72779D01*
Y471500D01*
D02*
G37*
G36*
X67342D02*
X62905D01*
Y467063D01*
X67342D01*
Y471500D01*
D02*
G37*
G36*
X48939Y479937D02*
X47376D01*
X45842Y479632D01*
X44398Y479034D01*
X43098Y478165D01*
X41992Y477060D01*
X41124Y475760D01*
X40525Y474315D01*
X40220Y472782D01*
Y471218D01*
X40525Y469685D01*
X41124Y468240D01*
X41992Y466940D01*
X43098Y465835D01*
X44398Y464966D01*
X45842Y464368D01*
X47376Y464063D01*
X48939D01*
X50472Y464368D01*
X51917Y464966D01*
X53217Y465835D01*
X54322Y466940D01*
X55191Y468240D01*
X55789Y469685D01*
X56094Y471218D01*
Y472782D01*
X55789Y474315D01*
X55191Y475760D01*
X54322Y477060D01*
X53217Y478165D01*
X51917Y479034D01*
X50472Y479632D01*
X48939Y479937D01*
D02*
G37*
G36*
X346140Y421903D02*
X344860D01*
X343604Y421653D01*
X342421Y421163D01*
X341356Y420452D01*
X340451Y419547D01*
X339740Y418482D01*
X339250Y417299D01*
X339000Y416043D01*
Y414763D01*
X339250Y413507D01*
X339740Y412324D01*
X340451Y411260D01*
X341356Y410354D01*
X342421Y409643D01*
X343604Y409153D01*
X344860Y408903D01*
X346140D01*
X347396Y409153D01*
X348579Y409643D01*
X349643Y410354D01*
X350549Y411260D01*
X351260Y412324D01*
X351750Y413507D01*
X352000Y414763D01*
Y416043D01*
X351750Y417299D01*
X351260Y418482D01*
X350549Y419547D01*
X349643Y420452D01*
X348579Y421163D01*
X347396Y421653D01*
X346140Y421903D01*
D02*
G37*
G36*
X393452Y398713D02*
X393315D01*
Y394375D01*
X397653D01*
Y394512D01*
X397323Y395743D01*
X396686Y396846D01*
X395786Y397747D01*
X394682Y398384D01*
X393452Y398713D01*
D02*
G37*
G36*
X392315D02*
X392178D01*
X390947Y398384D01*
X389844Y397747D01*
X388943Y396846D01*
X388306Y395743D01*
X387976Y394512D01*
Y394375D01*
X392315D01*
Y398713D01*
D02*
G37*
G36*
X397653Y393375D02*
X393315D01*
Y389036D01*
X393452D01*
X394682Y389366D01*
X395786Y390003D01*
X396686Y390904D01*
X397323Y392007D01*
X397653Y393238D01*
Y393375D01*
D02*
G37*
G36*
X392315D02*
X387976D01*
Y393238D01*
X388306Y392007D01*
X388943Y390904D01*
X389844Y390003D01*
X390947Y389366D01*
X392178Y389036D01*
X392315D01*
Y393375D01*
D02*
G37*
G36*
X502657Y492535D02*
X500852Y492393D01*
X499092Y491971D01*
X497420Y491278D01*
X495877Y490332D01*
X494500Y489157D01*
X493325Y487780D01*
X492379Y486237D01*
X491686Y484565D01*
X491263Y482804D01*
X491121Y481000D01*
X491263Y479195D01*
X491686Y477435D01*
X492379Y475763D01*
X493325Y474220D01*
X494500Y472843D01*
X559464Y407879D01*
Y388252D01*
X559002Y388061D01*
X509651Y437413D01*
X509700Y437910D01*
X510335Y438335D01*
X511441Y439440D01*
X512309Y440740D01*
X512908Y442185D01*
X513213Y443718D01*
Y445282D01*
X512908Y446815D01*
X512309Y448260D01*
X511441Y449559D01*
X510335Y450665D01*
X509035Y451534D01*
X507591Y452132D01*
X506057Y452437D01*
X504494D01*
X502960Y452132D01*
X501516Y451534D01*
X500216Y450665D01*
X499111Y449559D01*
X498686Y448924D01*
X498188Y448875D01*
X474035Y473028D01*
Y481000D01*
X473893Y482804D01*
X473471Y484565D01*
X472778Y486237D01*
X471832Y487780D01*
X470656Y489157D01*
X469280Y490332D01*
X467737Y491278D01*
X466064Y491971D01*
X464304Y492393D01*
X462500Y492535D01*
X460695Y492393D01*
X458935Y491971D01*
X457263Y491278D01*
X455719Y490332D01*
X454343Y489157D01*
X453167Y487780D01*
X452221Y486237D01*
X451529Y484565D01*
X451106Y482804D01*
X450964Y481000D01*
Y468250D01*
X451106Y466446D01*
X451529Y464685D01*
X452221Y463013D01*
X453167Y461470D01*
X454343Y460093D01*
X461537Y452899D01*
X461346Y452437D01*
X456787D01*
Y436563D01*
X472661D01*
Y441121D01*
X473123Y441313D01*
X543464Y370972D01*
Y364003D01*
X543003Y363811D01*
X514193Y392621D01*
Y393875D01*
X514050Y395679D01*
X513628Y397440D01*
X512935Y399112D01*
X511989Y400655D01*
X510814Y402032D01*
X509437Y403207D01*
X507894Y404153D01*
X506222Y404846D01*
X504461Y405268D01*
X502657Y405410D01*
X500852Y405268D01*
X499092Y404846D01*
X497420Y404153D01*
X495877Y403207D01*
X494500Y402032D01*
X493325Y400655D01*
X492379Y399112D01*
X491686Y397440D01*
X491263Y395679D01*
X491121Y393875D01*
Y387843D01*
X491206Y386771D01*
X490752Y386562D01*
X475282Y402032D01*
X473906Y403207D01*
X472362Y404153D01*
X470690Y404846D01*
X468930Y405268D01*
X467125Y405410D01*
X462500D01*
X460695Y405268D01*
X458935Y404846D01*
X457263Y404153D01*
X455719Y403207D01*
X454343Y402032D01*
X453167Y400655D01*
X452221Y399112D01*
X451529Y397440D01*
X451106Y395679D01*
X450964Y393875D01*
X451106Y392070D01*
X451529Y390310D01*
X452221Y388638D01*
X453167Y387094D01*
X454343Y385718D01*
X455719Y384542D01*
X457263Y383597D01*
X458935Y382904D01*
X460695Y382481D01*
X462334Y382352D01*
X483803Y360883D01*
Y353848D01*
X483945Y352044D01*
X484368Y350284D01*
X485060Y348611D01*
X486006Y347068D01*
X487182Y345691D01*
X506050Y326823D01*
X506031Y326323D01*
X505250Y325657D01*
X494500Y314907D01*
X493325Y313530D01*
X492379Y311987D01*
X491686Y310315D01*
X491263Y308555D01*
X491121Y306750D01*
X491263Y304945D01*
X491686Y303185D01*
X492379Y301513D01*
X493325Y299970D01*
X494500Y298593D01*
X495877Y297417D01*
X496695Y296916D01*
X496754Y296419D01*
X491370Y291036D01*
X486065D01*
X474035Y303065D01*
Y306750D01*
X473893Y308555D01*
X473471Y310315D01*
X472778Y311987D01*
X471832Y313530D01*
X470656Y314907D01*
X469280Y316082D01*
X467737Y317028D01*
X466064Y317721D01*
X464304Y318144D01*
X462500Y318285D01*
X460695Y318144D01*
X458935Y317721D01*
X457263Y317028D01*
X455719Y316082D01*
X454343Y314907D01*
X453167Y313530D01*
X452221Y311987D01*
X451529Y310315D01*
X451106Y308555D01*
X450964Y306750D01*
Y298287D01*
X451106Y296482D01*
X451529Y294722D01*
X452221Y293050D01*
X453167Y291506D01*
X454343Y290130D01*
X464634Y279839D01*
X464478Y279288D01*
X463160Y278971D01*
X461487Y278278D01*
X459944Y277332D01*
X458567Y276157D01*
X457392Y274780D01*
X456446Y273237D01*
X455753Y271565D01*
X455331Y269805D01*
X455189Y268000D01*
Y264787D01*
X455331Y262982D01*
X455753Y261222D01*
X456446Y259550D01*
X457392Y258006D01*
X458567Y256630D01*
X471354Y243843D01*
X472731Y242668D01*
X474274Y241722D01*
X475947Y241029D01*
X477707Y240606D01*
X479511Y240464D01*
X516006D01*
X517810Y240606D01*
X519570Y241029D01*
X521243Y241722D01*
X522786Y242668D01*
X524162Y243843D01*
X538284Y257964D01*
X561048D01*
X561345Y257563D01*
X561215Y257133D01*
X561054Y255500D01*
X561215Y253867D01*
X561646Y252446D01*
X561399Y251925D01*
X560995Y251893D01*
X559235Y251471D01*
X557563Y250778D01*
X556019Y249832D01*
X554643Y248657D01*
X507522Y201536D01*
X479725D01*
X477920Y201394D01*
X476160Y200971D01*
X474488Y200279D01*
X472944Y199333D01*
X471568Y198157D01*
X457067Y183657D01*
X455892Y182280D01*
X454946Y180737D01*
X454253Y179065D01*
X453831Y177304D01*
X453689Y175500D01*
X453831Y173695D01*
X454253Y171935D01*
X454946Y170263D01*
X455892Y168719D01*
X457067Y167343D01*
X458444Y166167D01*
X459987Y165222D01*
X461660Y164529D01*
X463420Y164106D01*
X465224Y163964D01*
X467029Y164106D01*
X468789Y164529D01*
X470461Y165222D01*
X472005Y166167D01*
X473381Y167343D01*
X484503Y178465D01*
X497963D01*
X498241Y178049D01*
X498144Y177815D01*
X497839Y176282D01*
Y174718D01*
X498144Y173185D01*
X498742Y171740D01*
X499611Y170440D01*
X500716Y169335D01*
X502016Y168466D01*
X503461Y167868D01*
X504994Y167563D01*
X506557D01*
X508091Y167868D01*
X509535Y168466D01*
X510835Y169335D01*
X511941Y170440D01*
X512809Y171740D01*
X513408Y173185D01*
X513713Y174718D01*
Y176282D01*
X513408Y177815D01*
X513275Y178136D01*
X513536Y178562D01*
X514105Y178607D01*
X515865Y179029D01*
X517537Y179722D01*
X519081Y180668D01*
X520457Y181843D01*
X567578Y228964D01*
X571000D01*
X572805Y229106D01*
X574565Y229529D01*
X576237Y230222D01*
X577780Y231168D01*
X579157Y232343D01*
X580332Y233719D01*
X581278Y235263D01*
X581971Y236935D01*
X582394Y238695D01*
X582536Y240500D01*
X582394Y242304D01*
X581971Y244065D01*
X581278Y245737D01*
X580332Y247280D01*
X579157Y248657D01*
X578490Y249226D01*
X578494Y249581D01*
X579535Y250849D01*
X580309Y252296D01*
X580785Y253867D01*
X580946Y255500D01*
X580785Y257133D01*
X580309Y258703D01*
X579535Y260151D01*
X578494Y261419D01*
X578468Y261708D01*
X579332Y262719D01*
X580278Y264263D01*
X580971Y265935D01*
X581393Y267695D01*
X581535Y269500D01*
X581393Y271304D01*
X580971Y273065D01*
X580278Y274737D01*
X579332Y276280D01*
X578734Y276982D01*
X579157Y277343D01*
X580332Y278719D01*
X581278Y280263D01*
X581971Y281935D01*
X582394Y283695D01*
X582536Y285500D01*
X582394Y287304D01*
X581971Y289065D01*
X581278Y290737D01*
X580332Y292280D01*
X579291Y293500D01*
X580332Y294720D01*
X581278Y296263D01*
X581971Y297935D01*
X582394Y299695D01*
X582536Y301500D01*
X582394Y303305D01*
X581971Y305065D01*
X581278Y306737D01*
X581265Y306758D01*
X581477Y307369D01*
X582781Y308168D01*
X584157Y309343D01*
X585332Y310719D01*
X586278Y312263D01*
X586971Y313935D01*
X587394Y315695D01*
X587536Y317500D01*
X587394Y319304D01*
X586971Y321065D01*
X586278Y322737D01*
X585332Y324280D01*
X584157Y325657D01*
X582781Y326832D01*
X581237Y327778D01*
X580542Y328066D01*
X580785Y328867D01*
X580946Y330500D01*
X580785Y332133D01*
X580309Y333703D01*
X579535Y335151D01*
X578494Y336419D01*
X577566Y337181D01*
X577560Y337833D01*
X578157Y338343D01*
X579332Y339720D01*
X580278Y341263D01*
X580971Y342935D01*
X581393Y344695D01*
X581535Y346500D01*
X581393Y348305D01*
X580971Y350065D01*
X580278Y351737D01*
X579332Y353280D01*
X578468Y354292D01*
X578494Y354581D01*
X579535Y355849D01*
X580309Y357296D01*
X580785Y358867D01*
X580946Y360500D01*
X580785Y362133D01*
X580309Y363703D01*
X579535Y365151D01*
X578494Y366419D01*
X578490Y366774D01*
X579157Y367343D01*
X580332Y368720D01*
X581278Y370263D01*
X581971Y371935D01*
X582394Y373695D01*
X582536Y375500D01*
Y412657D01*
X582394Y414462D01*
X581971Y416222D01*
X581278Y417894D01*
X580333Y419437D01*
X579157Y420814D01*
X510814Y489157D01*
X509437Y490332D01*
X507894Y491278D01*
X506222Y491971D01*
X504461Y492393D01*
X502657Y492535D01*
D02*
G37*
G36*
X413272Y401714D02*
X411728D01*
X410213Y401412D01*
X408787Y400821D01*
X407503Y399964D01*
X406411Y398872D01*
X405553Y397588D01*
X404962Y396161D01*
X404661Y394647D01*
Y393103D01*
X404962Y391588D01*
X405553Y390162D01*
X406411Y388878D01*
X407503Y387786D01*
X408787Y386929D01*
X410213Y386338D01*
X411728Y386036D01*
X413272D01*
X414786Y386338D01*
X416213Y386929D01*
X417496Y387786D01*
X418588Y388878D01*
X419446Y390162D01*
X420037Y391588D01*
X420338Y393103D01*
Y394647D01*
X420037Y396161D01*
X419446Y397588D01*
X418588Y398872D01*
X417496Y399964D01*
X416213Y400821D01*
X414786Y401412D01*
X413272Y401714D01*
D02*
G37*
G36*
X475161Y366937D02*
X459287D01*
Y351063D01*
X475161D01*
Y366937D01*
D02*
G37*
G36*
X397653Y306250D02*
X393315D01*
Y301911D01*
X393452D01*
X394682Y302241D01*
X395786Y302878D01*
X396686Y303779D01*
X397323Y304882D01*
X397653Y306113D01*
Y306250D01*
D02*
G37*
G36*
X392315D02*
X387976D01*
Y306113D01*
X388306Y304882D01*
X388943Y303779D01*
X389844Y302878D01*
X390947Y302241D01*
X392178Y301911D01*
X392315D01*
Y306250D01*
D02*
G37*
G36*
X393452Y224463D02*
X393315D01*
Y220125D01*
X397653D01*
Y220262D01*
X397323Y221492D01*
X396686Y222596D01*
X395786Y223497D01*
X394682Y224134D01*
X393452Y224463D01*
D02*
G37*
G36*
X392315D02*
X392178D01*
X390947Y224134D01*
X389844Y223497D01*
X388943Y222596D01*
X388306Y221492D01*
X387976Y220262D01*
Y220125D01*
X392315D01*
Y224463D01*
D02*
G37*
G36*
X397653Y219125D02*
X393315D01*
Y214786D01*
X393452D01*
X394682Y215116D01*
X395786Y215753D01*
X396686Y216654D01*
X397323Y217757D01*
X397653Y218988D01*
Y219125D01*
D02*
G37*
G36*
X392315D02*
X387976D01*
Y218988D01*
X388306Y217757D01*
X388943Y216654D01*
X389844Y215753D01*
X390947Y215116D01*
X392178Y214786D01*
X392315D01*
Y219125D01*
D02*
G37*
G36*
X503429Y227463D02*
X501885D01*
X500371Y227162D01*
X498944Y226571D01*
X497660Y225713D01*
X496568Y224622D01*
X495711Y223338D01*
X495120Y221911D01*
X494818Y220397D01*
Y218853D01*
X495120Y217338D01*
X495711Y215912D01*
X496568Y214628D01*
X497660Y213536D01*
X498944Y212678D01*
X500371Y212087D01*
X501885Y211786D01*
X503429D01*
X504943Y212087D01*
X506370Y212678D01*
X507654Y213536D01*
X508746Y214628D01*
X509603Y215912D01*
X510194Y217338D01*
X510496Y218853D01*
Y220397D01*
X510194Y221911D01*
X509603Y223338D01*
X508746Y224622D01*
X507654Y225713D01*
X506370Y226571D01*
X504943Y227162D01*
X503429Y227463D01*
D02*
G37*
G36*
X463272D02*
X461728D01*
X460213Y227162D01*
X458787Y226571D01*
X457503Y225713D01*
X456411Y224622D01*
X455553Y223338D01*
X454962Y221911D01*
X454661Y220397D01*
Y218853D01*
X454962Y217338D01*
X455553Y215912D01*
X456411Y214628D01*
X457503Y213536D01*
X458787Y212678D01*
X460213Y212087D01*
X461728Y211786D01*
X463272D01*
X464786Y212087D01*
X466213Y212678D01*
X467496Y213536D01*
X468588Y214628D01*
X469446Y215912D01*
X470037Y217338D01*
X470338Y218853D01*
Y220397D01*
X470037Y221911D01*
X469446Y223338D01*
X468588Y224622D01*
X467496Y225713D01*
X466213Y226571D01*
X464786Y227162D01*
X463272Y227463D01*
D02*
G37*
G36*
X413272D02*
X411728D01*
X410213Y227162D01*
X408787Y226571D01*
X407503Y225713D01*
X406411Y224622D01*
X405553Y223338D01*
X404962Y221911D01*
X404661Y220397D01*
Y218853D01*
X404962Y217338D01*
X405553Y215912D01*
X406411Y214628D01*
X407503Y213536D01*
X408787Y212678D01*
X410213Y212087D01*
X411728Y211786D01*
X413272D01*
X414786Y212087D01*
X416213Y212678D01*
X417496Y213536D01*
X418588Y214628D01*
X419446Y215912D01*
X420037Y217338D01*
X420338Y218853D01*
Y220397D01*
X420037Y221911D01*
X419446Y223338D01*
X418588Y224622D01*
X417496Y225713D01*
X416213Y226571D01*
X414786Y227162D01*
X413272Y227463D01*
D02*
G37*
G36*
X51637Y194524D02*
X51500D01*
Y190185D01*
X55839D01*
Y190322D01*
X55509Y191553D01*
X54872Y192656D01*
X53971Y193557D01*
X52868Y194194D01*
X51637Y194524D01*
D02*
G37*
G36*
X50500D02*
X50363D01*
X49132Y194194D01*
X48029Y193557D01*
X47128Y192656D01*
X46491Y191553D01*
X46161Y190322D01*
Y190185D01*
X50500D01*
Y194524D01*
D02*
G37*
G36*
X197637Y193024D02*
X197500D01*
Y188685D01*
X201839D01*
Y188822D01*
X201509Y190053D01*
X200872Y191156D01*
X199971Y192057D01*
X198868Y192694D01*
X197637Y193024D01*
D02*
G37*
G36*
X196500D02*
X196363D01*
X195132Y192694D01*
X194029Y192057D01*
X193128Y191156D01*
X192491Y190053D01*
X192161Y188822D01*
Y188685D01*
X196500D01*
Y193024D01*
D02*
G37*
G36*
X122137Y192524D02*
X122000D01*
Y188185D01*
X126338D01*
Y188322D01*
X126009Y189553D01*
X125372Y190656D01*
X124471Y191557D01*
X123367Y192194D01*
X122137Y192524D01*
D02*
G37*
G36*
X121000D02*
X120863D01*
X119632Y192194D01*
X118529Y191557D01*
X117628Y190656D01*
X116991Y189553D01*
X116661Y188322D01*
Y188185D01*
X121000D01*
Y192524D01*
D02*
G37*
G36*
X55839Y189185D02*
X51500D01*
Y184846D01*
X51637D01*
X52868Y185176D01*
X53971Y185813D01*
X54872Y186714D01*
X55509Y187817D01*
X55839Y189048D01*
Y189185D01*
D02*
G37*
G36*
X50500D02*
X46161D01*
Y189048D01*
X46491Y187817D01*
X47128Y186714D01*
X48029Y185813D01*
X49132Y185176D01*
X50363Y184846D01*
X50500D01*
Y189185D01*
D02*
G37*
G36*
X201839Y187685D02*
X197500D01*
Y183346D01*
X197637D01*
X198868Y183676D01*
X199971Y184313D01*
X200872Y185214D01*
X201509Y186317D01*
X201839Y187548D01*
Y187685D01*
D02*
G37*
G36*
X196500D02*
X192161D01*
Y187548D01*
X192491Y186317D01*
X193128Y185214D01*
X194029Y184313D01*
X195132Y183676D01*
X196363Y183346D01*
X196500D01*
Y187685D01*
D02*
G37*
G36*
X126338Y187185D02*
X122000D01*
Y182847D01*
X122137D01*
X123367Y183177D01*
X124471Y183814D01*
X125372Y184714D01*
X126009Y185818D01*
X126338Y187048D01*
Y187185D01*
D02*
G37*
G36*
X121000D02*
X116661D01*
Y187048D01*
X116991Y185818D01*
X117628Y184714D01*
X118529Y183814D01*
X119632Y183177D01*
X120863Y182847D01*
X121000D01*
Y187185D01*
D02*
G37*
G36*
X197772Y176339D02*
X196228D01*
X194714Y176037D01*
X193287Y175446D01*
X192003Y174589D01*
X190911Y173497D01*
X190053Y172213D01*
X189463Y170786D01*
X189161Y169272D01*
Y167728D01*
X189463Y166214D01*
X190053Y164787D01*
X190911Y163503D01*
X192003Y162411D01*
X193287Y161554D01*
X194714Y160963D01*
X196228Y160661D01*
X197772D01*
X199286Y160963D01*
X200713Y161554D01*
X201997Y162411D01*
X203089Y163503D01*
X203946Y164787D01*
X204537Y166214D01*
X204839Y167728D01*
Y169272D01*
X204537Y170786D01*
X203946Y172213D01*
X203089Y173497D01*
X201997Y174589D01*
X200713Y175446D01*
X199286Y176037D01*
X197772Y176339D01*
D02*
G37*
G36*
X122272Y175839D02*
X120728D01*
X119213Y175538D01*
X117787Y174947D01*
X116503Y174089D01*
X115411Y172997D01*
X114553Y171713D01*
X113962Y170287D01*
X113661Y168772D01*
Y167228D01*
X113962Y165714D01*
X114553Y164287D01*
X115411Y163004D01*
X116503Y161912D01*
X117787Y161054D01*
X119213Y160463D01*
X120728Y160162D01*
X122272D01*
X123786Y160463D01*
X125213Y161054D01*
X126497Y161912D01*
X127588Y163004D01*
X128446Y164287D01*
X129037Y165714D01*
X129338Y167228D01*
Y168772D01*
X129037Y170287D01*
X128446Y171713D01*
X127588Y172997D01*
X126497Y174089D01*
X125213Y174947D01*
X123786Y175538D01*
X122272Y175839D01*
D02*
G37*
G36*
X346140Y164653D02*
X344860D01*
X343604Y164403D01*
X342421Y163913D01*
X341357Y163202D01*
X340451Y162297D01*
X339740Y161232D01*
X339250Y160049D01*
X339000Y158793D01*
Y157513D01*
X339250Y156257D01*
X339740Y155074D01*
X340451Y154010D01*
X341357Y153104D01*
X342421Y152393D01*
X343604Y151903D01*
X344860Y151653D01*
X346140D01*
X347396Y151903D01*
X348579Y152393D01*
X349644Y153104D01*
X350549Y154010D01*
X351260Y155074D01*
X351750Y156257D01*
X352000Y157513D01*
Y158793D01*
X351750Y160049D01*
X351260Y161232D01*
X350549Y162297D01*
X349644Y163202D01*
X348579Y163913D01*
X347396Y164403D01*
X346140Y164653D01*
D02*
G37*
G36*
X393452Y137338D02*
X393315D01*
Y133000D01*
X397653D01*
Y133137D01*
X397323Y134367D01*
X396686Y135471D01*
X395786Y136372D01*
X394682Y137009D01*
X393452Y137338D01*
D02*
G37*
G36*
X392315D02*
X392178D01*
X390947Y137009D01*
X389844Y136372D01*
X388943Y135471D01*
X388306Y134367D01*
X387976Y133137D01*
Y133000D01*
X392315D01*
Y137338D01*
D02*
G37*
G36*
X397653Y132000D02*
X393315D01*
Y127661D01*
X393452D01*
X394682Y127991D01*
X395786Y128628D01*
X396686Y129529D01*
X397323Y130632D01*
X397653Y131863D01*
Y132000D01*
D02*
G37*
G36*
X392315D02*
X387976D01*
Y131863D01*
X388306Y130632D01*
X388943Y129529D01*
X389844Y128628D01*
X390947Y127991D01*
X392178Y127661D01*
X392315D01*
Y132000D01*
D02*
G37*
G36*
X503429Y140338D02*
X501885D01*
X500371Y140037D01*
X498944Y139446D01*
X497660Y138588D01*
X496568Y137497D01*
X495711Y136213D01*
X495120Y134786D01*
X494818Y133272D01*
Y131728D01*
X495120Y130213D01*
X495711Y128787D01*
X496568Y127503D01*
X497660Y126411D01*
X498944Y125553D01*
X500371Y124962D01*
X501885Y124661D01*
X503429D01*
X504943Y124962D01*
X506370Y125553D01*
X507654Y126411D01*
X508746Y127503D01*
X509603Y128787D01*
X510194Y130213D01*
X510496Y131728D01*
Y133272D01*
X510194Y134786D01*
X509603Y136213D01*
X508746Y137497D01*
X507654Y138588D01*
X506370Y139446D01*
X504943Y140037D01*
X503429Y140338D01*
D02*
G37*
G36*
X463272D02*
X461728D01*
X460213Y140037D01*
X458787Y139446D01*
X457503Y138588D01*
X456411Y137497D01*
X455553Y136213D01*
X454962Y134786D01*
X454661Y133272D01*
Y131728D01*
X454962Y130213D01*
X455553Y128787D01*
X456411Y127503D01*
X457503Y126411D01*
X458787Y125553D01*
X460213Y124962D01*
X461728Y124661D01*
X463272D01*
X464786Y124962D01*
X466213Y125553D01*
X467496Y126411D01*
X468588Y127503D01*
X469446Y128787D01*
X470037Y130213D01*
X470338Y131728D01*
Y133272D01*
X470037Y134786D01*
X469446Y136213D01*
X468588Y137497D01*
X467496Y138588D01*
X466213Y139446D01*
X464786Y140037D01*
X463272Y140338D01*
D02*
G37*
G36*
X413272D02*
X411728D01*
X410213Y140037D01*
X408787Y139446D01*
X407503Y138588D01*
X406411Y137497D01*
X405553Y136213D01*
X404962Y134786D01*
X404661Y133272D01*
Y131728D01*
X404962Y130213D01*
X405553Y128787D01*
X406411Y127503D01*
X407503Y126411D01*
X408787Y125553D01*
X410213Y124962D01*
X411728Y124661D01*
X413272D01*
X414786Y124962D01*
X416213Y125553D01*
X417496Y126411D01*
X418588Y127503D01*
X419446Y128787D01*
X420037Y130213D01*
X420338Y131728D01*
Y133272D01*
X420037Y134786D01*
X419446Y136213D01*
X418588Y137497D01*
X417496Y138588D01*
X416213Y139446D01*
X414786Y140037D01*
X413272Y140338D01*
D02*
G37*
G36*
X51772Y127839D02*
X50228D01*
X48714Y127537D01*
X47287Y126946D01*
X46003Y126089D01*
X44911Y124997D01*
X44054Y123713D01*
X43463Y122286D01*
X43161Y120772D01*
Y119228D01*
X43463Y117713D01*
X44054Y116287D01*
X44911Y115003D01*
X46003Y113911D01*
X47287Y113054D01*
X48714Y112463D01*
X50228Y112161D01*
X51772D01*
X53286Y112463D01*
X54713Y113054D01*
X55997Y113911D01*
X56249Y114163D01*
X88002Y112461D01*
X88151Y112472D01*
X88299Y112453D01*
X115962D01*
X116503Y111912D01*
X117787Y111054D01*
X119213Y110463D01*
X120728Y110162D01*
X122272D01*
X123786Y110463D01*
X125213Y111054D01*
X126497Y111912D01*
X127038Y112453D01*
X158700D01*
X158736Y112458D01*
X158773Y112453D01*
X191534Y112881D01*
X192003Y112411D01*
X193287Y111554D01*
X194714Y110963D01*
X196228Y110661D01*
X197772D01*
X199286Y110963D01*
X200713Y111554D01*
X201997Y112411D01*
X203089Y113503D01*
X203946Y114787D01*
X204537Y116214D01*
X204839Y117728D01*
Y119272D01*
X204537Y120786D01*
X203946Y122213D01*
X203089Y123497D01*
X201997Y124589D01*
X200713Y125446D01*
X199286Y126037D01*
X197772Y126339D01*
X196228D01*
X194714Y126037D01*
X193287Y125446D01*
X192003Y124589D01*
X191389Y123975D01*
X158664Y123548D01*
X127038D01*
X126497Y124089D01*
X125213Y124947D01*
X123786Y125538D01*
X122272Y125839D01*
X120728D01*
X119213Y125538D01*
X117787Y124947D01*
X116503Y124089D01*
X115962Y123548D01*
X88448D01*
X56843Y125242D01*
X55997Y126089D01*
X54713Y126946D01*
X53286Y127537D01*
X51772Y127839D01*
D02*
G37*
G36*
X468500Y78490D02*
Y75500D01*
X471489D01*
X471262Y76351D01*
X470801Y77149D01*
X470149Y77801D01*
X469351Y78262D01*
X468500Y78490D01*
D02*
G37*
G36*
X467500D02*
X466649Y78262D01*
X465851Y77801D01*
X465199Y77149D01*
X464739Y76351D01*
X464510Y75500D01*
X467500D01*
Y78490D01*
D02*
G37*
G36*
X51772Y87681D02*
X50228D01*
X48714Y87380D01*
X47287Y86789D01*
X46003Y85931D01*
X44911Y84839D01*
X44054Y83556D01*
X43463Y82129D01*
X43161Y80615D01*
Y79071D01*
X43463Y77556D01*
X44054Y76130D01*
X44911Y74846D01*
X46003Y73754D01*
X47287Y72896D01*
X48714Y72305D01*
X50228Y72004D01*
X51772D01*
X53286Y72305D01*
X54713Y72896D01*
X55997Y73754D01*
X57089Y74846D01*
X57946Y76130D01*
X58537Y77556D01*
X58839Y79071D01*
Y80615D01*
X58537Y82129D01*
X57946Y83556D01*
X57089Y84839D01*
X55997Y85931D01*
X54713Y86789D01*
X53286Y87380D01*
X51772Y87681D01*
D02*
G37*
G36*
X471489Y74500D02*
X468500D01*
Y71510D01*
X469351Y71738D01*
X470149Y72199D01*
X470801Y72851D01*
X471262Y73649D01*
X471489Y74500D01*
D02*
G37*
G36*
X467500D02*
X464510D01*
X464739Y73649D01*
X465199Y72851D01*
X465851Y72199D01*
X466649Y71738D01*
X467500Y71510D01*
Y74500D01*
D02*
G37*
G36*
X122272Y85682D02*
X120728D01*
X119213Y85380D01*
X117787Y84789D01*
X116503Y83932D01*
X115411Y82840D01*
X114553Y81556D01*
X113962Y80129D01*
X113661Y78615D01*
Y77071D01*
X113962Y75556D01*
X114553Y74130D01*
X115411Y72846D01*
X116503Y71754D01*
X117787Y70897D01*
X119213Y70306D01*
X120728Y70004D01*
X122272D01*
X123786Y70306D01*
X125213Y70897D01*
X126497Y71754D01*
X127588Y72846D01*
X128446Y74130D01*
X129037Y75556D01*
X129338Y77071D01*
Y78615D01*
X129037Y80129D01*
X128446Y81556D01*
X127588Y82840D01*
X126497Y83932D01*
X125213Y84789D01*
X123786Y85380D01*
X122272Y85682D01*
D02*
G37*
G36*
X513500Y65797D02*
Y62807D01*
X516490D01*
X516261Y63658D01*
X515801Y64456D01*
X515149Y65108D01*
X514351Y65569D01*
X513500Y65797D01*
D02*
G37*
G36*
X512500D02*
X511649Y65569D01*
X510851Y65108D01*
X510199Y64456D01*
X509738Y63658D01*
X509511Y62807D01*
X512500D01*
Y65797D01*
D02*
G37*
G36*
X516490Y61807D02*
X513500D01*
Y58818D01*
X514351Y59046D01*
X515149Y59506D01*
X515801Y60158D01*
X516261Y60956D01*
X516490Y61807D01*
D02*
G37*
G36*
X512500D02*
X509511D01*
X509738Y60956D01*
X510199Y60158D01*
X510851Y59506D01*
X511649Y59046D01*
X512500Y58818D01*
Y61807D01*
D02*
G37*
G36*
X528000Y82036D02*
X526195Y81893D01*
X524435Y81471D01*
X522763Y80778D01*
X521220Y79833D01*
X519843Y78657D01*
X518668Y77280D01*
X517722Y75737D01*
X517029Y74065D01*
X516607Y72305D01*
X516464Y70500D01*
X516607Y68695D01*
X517029Y66935D01*
X517722Y65263D01*
X518668Y63720D01*
X518680Y63705D01*
X518611Y63210D01*
X518538Y63161D01*
X517632Y62255D01*
X516921Y61190D01*
X516431Y60008D01*
X516181Y58752D01*
Y57471D01*
X516431Y56216D01*
X516921Y55033D01*
X517632Y53968D01*
X518538Y53063D01*
X519602Y52351D01*
X520452Y51999D01*
Y44646D01*
X519991Y44455D01*
X496822Y67623D01*
X495674Y68505D01*
X494336Y69059D01*
X492900Y69248D01*
X479997D01*
X479679Y69461D01*
X478496Y69951D01*
X477240Y70200D01*
X475960D01*
X474704Y69951D01*
X473521Y69461D01*
X472456Y68749D01*
X471551Y67844D01*
X470840Y66779D01*
X470350Y65596D01*
X470100Y64341D01*
Y63060D01*
X470350Y61804D01*
X470840Y60622D01*
X471551Y59557D01*
X472456Y58652D01*
X473521Y57940D01*
X474704Y57450D01*
X475960Y57200D01*
X477240D01*
X478496Y57450D01*
X479679Y57940D01*
X479997Y58153D01*
X485613D01*
X485890Y57737D01*
X485749Y57396D01*
X485500Y56141D01*
Y54860D01*
X485749Y53604D01*
X486239Y52421D01*
X486452Y52103D01*
Y52001D01*
X486641Y50565D01*
X487195Y49227D01*
X488077Y48078D01*
X509077Y27077D01*
X510226Y26196D01*
X511564Y25642D01*
X513000Y25453D01*
X513000Y25453D01*
X524000D01*
X525436Y25642D01*
X526774Y26196D01*
X527923Y27077D01*
X529923Y29077D01*
X529923Y29077D01*
X530804Y30226D01*
X531358Y31564D01*
X531547Y33000D01*
Y55354D01*
X531451Y56089D01*
X531780Y56464D01*
X561308D01*
X561619Y55964D01*
X561215Y54633D01*
X561054Y53000D01*
X561215Y51367D01*
X561691Y49797D01*
X562465Y48349D01*
X563506Y47081D01*
X564775Y46040D01*
X566222Y45266D01*
X567792Y44790D01*
X569425Y44629D01*
X572575D01*
X574208Y44790D01*
X575778Y45266D01*
X577225Y46040D01*
X578494Y47081D01*
X579535Y48349D01*
X580309Y49797D01*
X580785Y51367D01*
X580946Y53000D01*
X580785Y54633D01*
X580309Y56203D01*
X579535Y57651D01*
X578494Y58919D01*
X578490Y59274D01*
X579157Y59843D01*
X580332Y61220D01*
X581278Y62763D01*
X581971Y64435D01*
X582394Y66195D01*
X582536Y68000D01*
X582394Y69805D01*
X581971Y71565D01*
X581278Y73237D01*
X580332Y74780D01*
X579157Y76157D01*
X577780Y77333D01*
X576237Y78278D01*
X574565Y78971D01*
X572804Y79394D01*
X571000Y79536D01*
X535128D01*
X534780Y79833D01*
X533237Y80778D01*
X531565Y81471D01*
X529805Y81893D01*
X528000Y82036D01*
D02*
G37*
G36*
X487000Y18990D02*
Y16000D01*
X489990D01*
X489761Y16851D01*
X489301Y17649D01*
X488649Y18301D01*
X487851Y18761D01*
X487000Y18990D01*
D02*
G37*
G36*
X486000D02*
X485149Y18761D01*
X484351Y18301D01*
X483699Y17649D01*
X483239Y16851D01*
X483010Y16000D01*
X486000D01*
Y18990D01*
D02*
G37*
G36*
X537000Y18489D02*
Y15500D01*
X539990D01*
X539761Y16351D01*
X539301Y17149D01*
X538649Y17801D01*
X537851Y18261D01*
X537000Y18489D01*
D02*
G37*
G36*
X536000D02*
X535149Y18261D01*
X534351Y17801D01*
X533699Y17149D01*
X533239Y16351D01*
X533010Y15500D01*
X536000D01*
Y18489D01*
D02*
G37*
G36*
X550000Y18489D02*
Y15500D01*
X552989D01*
X552762Y16351D01*
X552301Y17149D01*
X551649Y17801D01*
X550851Y18261D01*
X550000Y18489D01*
D02*
G37*
G36*
X549000D02*
X548149Y18261D01*
X547351Y17801D01*
X546699Y17149D01*
X546239Y16351D01*
X546010Y15500D01*
X549000D01*
Y18489D01*
D02*
G37*
G36*
X489990Y15000D02*
X487000D01*
Y12010D01*
X487851Y12239D01*
X488649Y12699D01*
X489301Y13351D01*
X489761Y14149D01*
X489990Y15000D01*
D02*
G37*
G36*
X486000D02*
X483010D01*
X483239Y14149D01*
X483699Y13351D01*
X484351Y12699D01*
X485149Y12239D01*
X486000Y12010D01*
Y15000D01*
D02*
G37*
G36*
X539990Y14500D02*
X537000D01*
Y11511D01*
X537851Y11738D01*
X538649Y12199D01*
X539301Y12851D01*
X539761Y13649D01*
X539990Y14500D01*
D02*
G37*
G36*
X536000D02*
X533010D01*
X533239Y13649D01*
X533699Y12851D01*
X534351Y12199D01*
X535149Y11738D01*
X536000Y11511D01*
Y14500D01*
D02*
G37*
G36*
X552989Y14500D02*
X550000D01*
Y11511D01*
X550851Y11738D01*
X551649Y12199D01*
X552301Y12851D01*
X552762Y13649D01*
X552989Y14500D01*
D02*
G37*
G36*
X549000D02*
X546010D01*
X546239Y13649D01*
X546699Y12851D01*
X547351Y12199D01*
X548149Y11738D01*
X549000Y11511D01*
Y14500D01*
D02*
G37*
G36*
X571968Y33685D02*
X569764D01*
X567588Y33340D01*
X565492Y32659D01*
X563528Y31659D01*
X561746Y30364D01*
X560187Y28805D01*
X558892Y27023D01*
X557892Y25059D01*
X557211Y22963D01*
X556866Y20787D01*
Y18583D01*
X557211Y16407D01*
X557892Y14311D01*
X558892Y12347D01*
X560187Y10565D01*
X561746Y9006D01*
X563528Y7711D01*
X565492Y6711D01*
X567588Y6030D01*
X569764Y5685D01*
X571968D01*
X574145Y6030D01*
X576240Y6711D01*
X578204Y7711D01*
X579986Y9006D01*
X581545Y10565D01*
X582840Y12347D01*
X583840Y14311D01*
X584521Y16407D01*
X584866Y18583D01*
Y20787D01*
X584521Y22963D01*
X583840Y25059D01*
X582840Y27023D01*
X581545Y28805D01*
X579986Y30364D01*
X578204Y31659D01*
X576240Y32659D01*
X574145Y33340D01*
X571968Y33685D01*
D02*
G37*
G36*
X20787D02*
X18583D01*
X16407Y33340D01*
X14311Y32659D01*
X12347Y31659D01*
X10565Y30364D01*
X9006Y28805D01*
X7711Y27023D01*
X6711Y25059D01*
X6030Y22963D01*
X5685Y20787D01*
Y18583D01*
X6030Y16407D01*
X6711Y14311D01*
X7711Y12347D01*
X9006Y10565D01*
X10565Y9006D01*
X12347Y7711D01*
X14311Y6711D01*
X16407Y6030D01*
X18583Y5685D01*
X20787D01*
X22963Y6030D01*
X25059Y6711D01*
X27023Y7711D01*
X28805Y9006D01*
X30364Y10565D01*
X31659Y12347D01*
X32659Y14311D01*
X33340Y16407D01*
X33685Y18583D01*
Y20787D01*
X33340Y22963D01*
X32659Y25059D01*
X31659Y27023D01*
X30364Y28805D01*
X28805Y30364D01*
X27023Y31659D01*
X25059Y32659D01*
X22963Y33340D01*
X20787Y33685D01*
D02*
G37*
%LPD*%
G36*
X157452Y375346D02*
X156991Y375155D01*
X153922Y378223D01*
X152773Y379105D01*
X151436Y379659D01*
X150000Y379848D01*
X39600D01*
X39600Y379848D01*
X38164Y379659D01*
X36827Y379105D01*
X35677Y378223D01*
X35677Y378223D01*
X32624Y375169D01*
X32253Y375505D01*
X32535Y375849D01*
X33309Y377296D01*
X33785Y378867D01*
X33946Y380500D01*
X33849Y381482D01*
X34185Y381853D01*
X157452D01*
Y375346D01*
D02*
G37*
G36*
X67562Y368312D02*
X67340Y367979D01*
X66850Y366796D01*
X66600Y365541D01*
Y364260D01*
X66850Y363004D01*
X67340Y361822D01*
X68051Y360757D01*
X68956Y359852D01*
X70021Y359140D01*
X71204Y358650D01*
X72460Y358400D01*
X73740D01*
X74996Y358650D01*
X76179Y359140D01*
X76903Y359624D01*
X94974Y358996D01*
X95118Y358491D01*
X94457Y358049D01*
X93551Y357143D01*
X92840Y356079D01*
X92350Y354896D01*
X92100Y353640D01*
Y352360D01*
X92350Y351104D01*
X92840Y349921D01*
X93424Y349047D01*
X93182Y348547D01*
X87798D01*
X83922Y352423D01*
X83922Y352423D01*
X81922Y354423D01*
X80774Y355304D01*
X79436Y355858D01*
X78000Y356047D01*
X31799D01*
X31494Y356419D01*
X30226Y357460D01*
X29683Y357750D01*
Y358250D01*
X30226Y358540D01*
X31494Y359581D01*
X31920Y360100D01*
X32236Y360141D01*
X33573Y360696D01*
X34722Y361577D01*
X41898Y368753D01*
X67326D01*
X67562Y368312D01*
D02*
G37*
G36*
X68145Y344491D02*
X56602Y332948D01*
X33926D01*
X33628Y333349D01*
X33785Y333867D01*
X33946Y335500D01*
X33785Y337133D01*
X33309Y338703D01*
X32535Y340151D01*
X31494Y341419D01*
X30226Y342460D01*
X29683Y342750D01*
Y343250D01*
X30226Y343540D01*
X31494Y344581D01*
X31799Y344953D01*
X67954D01*
X68145Y344491D01*
D02*
G37*
G36*
X81577Y339077D02*
X81577Y339077D01*
X82726Y338196D01*
X84064Y337642D01*
X85500Y337453D01*
X133346D01*
X133582Y337012D01*
X133164Y336387D01*
X132625Y335085D01*
X132350Y333704D01*
Y333696D01*
X124702Y326047D01*
X66046D01*
X65855Y326509D01*
X80000Y340655D01*
X81577Y339077D01*
D02*
G37*
G36*
X144942Y317446D02*
X146113Y316664D01*
X147415Y316125D01*
X148796Y315850D01*
X149652D01*
Y312998D01*
X147702Y311047D01*
X136046D01*
X135855Y311509D01*
X140196Y315850D01*
X140204D01*
X141585Y316125D01*
X142887Y316664D01*
X144058Y317446D01*
X144500Y317889D01*
X144942Y317446D01*
D02*
G37*
G36*
X528689Y345497D02*
X528497Y345036D01*
X520465D01*
X513069Y352432D01*
X513104Y353104D01*
X513941Y353940D01*
X514809Y355240D01*
X515408Y356685D01*
X515638Y357841D01*
X516180Y358006D01*
X528689Y345497D01*
D02*
G37*
G36*
X562136Y334536D02*
X561691Y333703D01*
X561215Y332133D01*
X561054Y330500D01*
X561162Y329406D01*
X560826Y329035D01*
X545721D01*
X545443Y329451D01*
X545644Y329935D01*
X546066Y331695D01*
X546208Y333500D01*
X546122Y334597D01*
X546461Y334964D01*
X561879D01*
X562136Y334536D01*
D02*
G37*
G36*
X481286Y267964D02*
X495743D01*
X495882Y266195D01*
X496305Y264435D01*
X496505Y263951D01*
X496227Y263535D01*
X484289D01*
X480249Y267576D01*
X480459Y268030D01*
X481286Y267964D01*
D02*
G37*
D29*
X67842Y472000D02*
D03*
D59*
X211400Y233600D02*
X212319Y234520D01*
X211400Y92742D02*
Y233600D01*
X236000Y239200D02*
X259300Y215900D01*
X51000Y170000D02*
X120200Y239200D01*
X236000D01*
X197000Y78343D02*
X211400Y92742D01*
X63405Y567500D02*
X280912D01*
X62531Y566648D02*
X63405Y567500D01*
X280912D02*
X282669Y569257D01*
X40883Y545000D02*
X62504Y566621D01*
X26500Y545000D02*
X40883D01*
X62504Y566621D02*
X62530Y566648D01*
X62531D01*
X328243Y572477D02*
X331671Y575906D01*
X337329D01*
X282669Y569257D02*
Y571904D01*
X337329Y575906D02*
X340757Y572477D01*
X282669Y571904D02*
X286671Y575906D01*
X340757Y572477D02*
X343243D01*
X286671Y575906D02*
X292329D01*
X346671D02*
X352329D01*
X295757Y572477D02*
X298243D01*
X352329Y575906D02*
X355757Y572477D01*
X298243D02*
X301671Y575906D01*
X355757Y572477D02*
X358243D01*
X301671Y575906D02*
X307329D01*
X358243Y572477D02*
X361671Y575906D01*
X307329D02*
X310757Y572477D01*
X361671Y575906D02*
X367329D01*
X310757Y572477D02*
X313243D01*
X371331Y569257D02*
Y571904D01*
X316671Y575906D02*
X322329D01*
X367329D02*
X371331Y571904D01*
X313243Y572477D02*
X316671Y575906D01*
X371331Y569257D02*
X373088Y567500D01*
X379500D01*
X325757Y572477D02*
X328243D01*
X343243D02*
X346671Y575906D01*
X292329D02*
X295757Y572477D01*
X322329Y575906D02*
X325757Y572477D01*
X162800Y331000D02*
X163050Y330750D01*
X317750D02*
X318000Y330500D01*
X163050Y330750D02*
X317750D01*
X160199Y337500D02*
X335000D01*
X158700Y336000D02*
X160199Y337500D01*
X137813Y363059D02*
X137850D01*
X73100Y364900D02*
X73528Y365292D01*
X137850Y363059D02*
X139500Y363000D01*
X73100Y364900D02*
X73520Y365292D01*
X73528Y365292D02*
X137813Y363059D01*
X149500Y343000D02*
X161243D01*
X163000Y344757D02*
Y385643D01*
X15500Y387400D02*
X161243D01*
X163000Y385643D01*
X161243Y343000D02*
X163000Y344757D01*
X570750Y360750D02*
X571000Y360500D01*
X523222Y58112D02*
X524222Y57112D01*
X524243D02*
X526000Y55354D01*
X522681Y58112D02*
X523222D01*
X524222Y57112D02*
X524243D01*
X526000Y33000D02*
Y55354D01*
X513000Y31000D02*
X524000D01*
X526000Y33000D01*
X492900Y63700D02*
X520250Y36350D01*
X492000Y52001D02*
X513000Y31000D01*
X492000Y52001D02*
Y55500D01*
X569500Y347000D02*
X571000Y345500D01*
X431000Y280601D02*
Y544000D01*
X180399Y313500D02*
X426000D01*
X157399Y290500D02*
X180399Y313500D01*
X450400Y561337D02*
X454500Y565437D01*
Y567500D01*
X431000Y544000D02*
X437000Y550000D01*
X442057D01*
X450400Y558344D02*
Y561337D01*
X366300Y215900D02*
X431000Y280601D01*
X442057Y550000D02*
X450400Y558344D01*
X217500Y554000D02*
X256200D01*
X80000Y348500D02*
X85500Y343000D01*
X78000Y350500D02*
X80000Y348500D01*
X152500Y336000D02*
X158700D01*
X446400Y560000D02*
Y572500D01*
X440000Y578900D02*
X446400Y572500D01*
X253200Y557000D02*
X256200Y554000D01*
X440400D01*
X409500Y575901D02*
X412500Y578900D01*
X24000Y290500D02*
X157399D01*
X24000Y395500D02*
X149500D01*
X333800Y239960D02*
Y270000D01*
X320200Y283600D02*
X333800Y270000D01*
X15000Y283600D02*
X320200D01*
X11594Y287006D02*
X15000Y283600D01*
X11594Y287006D02*
Y320000D01*
X18994Y327400D01*
X58900D01*
X80000Y348500D01*
X24000Y350500D02*
X78000D01*
X15500Y335500D02*
Y387400D01*
Y335500D02*
X24000D01*
Y320500D02*
X127000D01*
X139500Y333000D01*
X476600Y63700D02*
X492900D01*
X51000Y120000D02*
X88299Y118000D01*
X121500D01*
X158700D01*
X197000Y118500D01*
X440400Y554000D02*
X446400Y560000D01*
X412500Y578900D02*
X440000D01*
X409500Y567500D02*
Y575901D01*
X149000Y527500D02*
X159000Y517500D01*
X203055D01*
X215055Y505500D01*
X15594Y290500D02*
X24000D01*
X15594D02*
Y310000D01*
X19194Y313600D01*
X130100D01*
X139500Y323000D01*
X98600Y353000D02*
X139500D01*
X24000Y365500D02*
X30800D01*
X39600Y374300D01*
X150000D01*
X155200Y369100D01*
Y358700D02*
Y369100D01*
X149500Y353000D02*
X155200Y358700D01*
X85500Y343000D02*
X139500D01*
X24000Y305500D02*
X150000D01*
X155200Y310700D01*
Y332500D01*
X158700Y336000D01*
X149500Y333000D02*
X152500Y336000D01*
X291413Y520000D02*
Y526500D01*
Y520000D02*
X298213Y513200D01*
X308500D01*
X24000Y275500D02*
X167800D01*
X259300Y215900D02*
X366300D01*
X263500Y559000D02*
X439500D01*
Y567500D01*
D60*
X462500Y468250D02*
X555000Y375750D01*
X462500Y468250D02*
Y481000D01*
X555000Y363000D02*
Y375750D01*
X467125Y393875D02*
X495339Y365661D01*
Y353848D02*
Y365661D01*
X462500Y393875D02*
X467125D01*
X544000Y346500D02*
X570000D01*
X515687Y333500D02*
X534673D01*
X502657Y387843D02*
X544000Y346500D01*
X571000Y375500D02*
Y412657D01*
X502657Y481000D02*
X571000Y412657D01*
X502657Y387843D02*
Y393875D01*
X495339Y353848D02*
X515687Y333500D01*
X513407Y317500D02*
X576000D01*
X502657Y306750D02*
X513407Y317500D01*
X509034Y290500D02*
X520034Y301500D01*
X533506Y269500D02*
X570000D01*
X507148Y290500D02*
X509034D01*
X526878Y285500D02*
X571000D01*
X507276Y268000D02*
X509378D01*
X526878Y285500D01*
X520034Y301500D02*
X571000D01*
X516006Y252000D02*
X533506Y269500D01*
X479511Y252000D02*
X516006D01*
X496148Y279500D02*
X507148Y290500D01*
X481286Y279500D02*
X496148D01*
X462500Y298287D02*
X481286Y279500D01*
X466724Y264787D02*
X479511Y252000D01*
X466724Y264787D02*
Y268000D01*
X462500Y298287D02*
Y306750D01*
X528000Y70500D02*
X530500Y68000D01*
X571000D01*
X571000Y68000D01*
X465224Y175500D02*
X479725Y190000D01*
X512300D01*
X562800Y240500D01*
X571000D01*
D64*
X149500Y343000D02*
D03*
X139500Y323000D02*
D03*
X149500Y363000D02*
D03*
Y323000D02*
D03*
X139500Y343000D02*
D03*
X149500Y353000D02*
D03*
X139500D02*
D03*
Y333000D02*
D03*
X149500D02*
D03*
D65*
X139500Y363000D02*
D03*
D66*
X24000Y335500D02*
D03*
Y290500D02*
D03*
Y395500D02*
D03*
Y410500D02*
D03*
Y275500D02*
D03*
Y305500D02*
D03*
Y350500D02*
D03*
Y380500D02*
D03*
Y365500D02*
D03*
Y320500D02*
D03*
X571000Y53000D02*
D03*
Y68000D02*
D03*
Y360500D02*
D03*
Y330500D02*
D03*
Y315500D02*
D03*
Y285500D02*
D03*
Y255500D02*
D03*
Y240500D02*
D03*
Y270500D02*
D03*
Y300500D02*
D03*
Y345500D02*
D03*
Y375500D02*
D03*
D67*
X570866Y570866D02*
D03*
X19685D02*
D03*
X570866Y19685D02*
D03*
X19685D02*
D03*
D68*
X462500Y306750D02*
D03*
X412500D02*
D03*
X502657D02*
D03*
X392815D02*
D03*
X462500Y481000D02*
D03*
X412500D02*
D03*
X502657D02*
D03*
X392815D02*
D03*
X462500Y393875D02*
D03*
X412500D02*
D03*
X502657D02*
D03*
X392815D02*
D03*
X462500Y219625D02*
D03*
X412500D02*
D03*
X502657D02*
D03*
X392815D02*
D03*
X462500Y132500D02*
D03*
X412500D02*
D03*
X392815D02*
D03*
X502657D02*
D03*
X197000Y168500D02*
D03*
Y78343D02*
D03*
Y118500D02*
D03*
Y188185D02*
D03*
X121500Y118000D02*
D03*
Y168000D02*
D03*
Y77843D02*
D03*
Y187685D02*
D03*
X51000Y170000D02*
D03*
Y79843D02*
D03*
Y120000D02*
D03*
Y189685D02*
D03*
D69*
X291413Y526500D02*
D03*
X284327D02*
D03*
D70*
X298500D02*
D03*
D71*
X289500Y567500D02*
D03*
X319500D02*
D03*
X349500D02*
D03*
X394500D02*
D03*
X424500D02*
D03*
X454500D02*
D03*
X439500D02*
D03*
X409500D02*
D03*
X379500D02*
D03*
X364500D02*
D03*
X334500D02*
D03*
X304500D02*
D03*
D72*
X463224Y524000D02*
D03*
X464724Y444500D02*
D03*
X467224Y359000D02*
D03*
X466724Y268000D02*
D03*
X465224Y175500D02*
D03*
D73*
X503776Y524000D02*
D03*
X505276Y444500D02*
D03*
X507776Y359000D02*
D03*
X507276Y268000D02*
D03*
X505776Y175500D02*
D03*
X48157Y472000D02*
D03*
D74*
X149000Y527500D02*
D03*
D75*
X169000D02*
D03*
D76*
X212500Y234000D02*
D03*
X77000Y576500D02*
D03*
X40000Y529000D02*
D03*
X54000Y528000D02*
D03*
X71500Y527500D02*
D03*
X26500Y545000D02*
D03*
X318000Y330500D02*
D03*
X335000Y337500D02*
D03*
X73100Y364900D02*
D03*
X555000Y363000D02*
D03*
X534673Y333500D02*
D03*
X520250Y36350D02*
D03*
X426000Y313500D02*
D03*
X528000Y70500D02*
D03*
X522681Y58112D02*
D03*
X253200Y557000D02*
D03*
X149500Y395500D02*
D03*
X333800Y239960D02*
D03*
X476600Y63700D02*
D03*
X492000Y55500D02*
D03*
X345500Y158153D02*
D03*
X345500Y243903D02*
D03*
Y329653D02*
D03*
X95500Y498000D02*
D03*
X345500Y415403D02*
D03*
Y501153D02*
D03*
X468000Y75000D02*
D03*
X486500Y15500D02*
D03*
X95500Y478000D02*
D03*
X151000Y478488D02*
D03*
X513000Y62307D02*
D03*
X184500Y478000D02*
D03*
X201000D02*
D03*
X536500Y15000D02*
D03*
X238500Y478000D02*
D03*
X257000D02*
D03*
X549500Y15000D02*
D03*
X196945Y509701D02*
D03*
X217500Y554000D02*
D03*
X215055Y505500D02*
D03*
X98600Y353000D02*
D03*
X162800Y331000D02*
D03*
X308500Y513200D02*
D03*
X167800Y275500D02*
D03*
X263500Y559000D02*
D03*
M02*
