G04*
G04 #@! TF.GenerationSoftware,Altium Limited,Altium Designer,22.3.1 (43)*
G04*
G04 Layer_Physical_Order=1*
G04 Layer_Color=255*
%FSLAX25Y25*%
%MOIN*%
G70*
G04*
G04 #@! TF.SameCoordinates,EF3FA71F-0FF1-4D3B-8963-7E32679EFE31*
G04*
G04*
G04 #@! TF.FilePolarity,Positive*
G04*
G01*
G75*
%ADD13C,0.01500*%
%ADD20R,0.05000X0.05000*%
%ADD21R,0.03937X0.10630*%
%ADD22R,0.12992X0.10630*%
%ADD23R,0.07874X0.07874*%
%ADD24R,0.04134X0.12598*%
%ADD25R,0.41142X0.39370*%
%ADD26R,0.09449X0.12992*%
%ADD27O,0.02362X0.08268*%
%ADD28R,0.02362X0.08268*%
%ADD29R,0.08823X0.08061*%
%ADD30R,0.05512X0.02362*%
G04:AMPARAMS|DCode=31|XSize=55mil|YSize=50mil|CornerRadius=0mil|HoleSize=0mil|Usage=FLASHONLY|Rotation=270.000|XOffset=0mil|YOffset=0mil|HoleType=Round|Shape=Octagon|*
%AMOCTAGOND31*
4,1,8,-0.01250,-0.02750,0.01250,-0.02750,0.02500,-0.01500,0.02500,0.01500,0.01250,0.02750,-0.01250,0.02750,-0.02500,0.01500,-0.02500,-0.01500,-0.01250,-0.02750,0.0*
%
%ADD31OCTAGOND31*%

%ADD32R,0.05000X0.05500*%
%ADD63C,0.03000*%
%ADD64C,0.05000*%
%ADD65C,0.07480*%
%ADD66R,0.07480X0.07480*%
%ADD67C,0.07677*%
%ADD68O,0.08661X0.11811*%
%ADD69R,0.27559X0.27559*%
%ADD70R,0.07874X0.04724*%
%ADD71O,0.07874X0.04724*%
%ADD72C,0.06299*%
%ADD73R,0.06299X0.06299*%
%ADD74C,0.20000*%
%ADD75C,0.07087*%
%ADD76R,0.07087X0.07087*%
%ADD77O,0.11811X0.08661*%
%ADD78O,0.04724X0.07874*%
%ADD79R,0.04724X0.07874*%
%ADD80C,0.07874*%
%ADD81C,0.05000*%
G36*
X276000Y585644D02*
Y565674D01*
X275900Y565583D01*
X272691D01*
X272381Y565925D01*
Y569075D01*
X272181Y571100D01*
X271590Y573047D01*
X270631Y574842D01*
X269340Y576415D01*
X268387Y577197D01*
X268266Y577596D01*
X267640Y578769D01*
X266796Y579796D01*
X263496Y583096D01*
X262468Y583940D01*
X261296Y584567D01*
X260023Y584953D01*
X258700Y585083D01*
X244075D01*
X244071Y585583D01*
X275644Y585995D01*
X276000Y585644D01*
D02*
G37*
G36*
X196233Y557294D02*
X197100Y556830D01*
X197204Y556704D01*
X200887Y553021D01*
X200696Y552559D01*
X193504D01*
Y547742D01*
X193042Y547550D01*
X185392Y555200D01*
X185619Y555681D01*
X187000Y555545D01*
X189025Y555744D01*
X190972Y556335D01*
X192767Y557294D01*
X194340Y558585D01*
X194660D01*
X196233Y557294D01*
D02*
G37*
G36*
X241233D02*
X243027Y556335D01*
X244975Y555744D01*
X247000Y555545D01*
X248423Y555685D01*
X250104Y554004D01*
X251132Y553161D01*
X252304Y552534D01*
X253576Y552148D01*
X254900Y552018D01*
X273090D01*
X274646Y550462D01*
X274455Y550000D01*
X258500D01*
Y542592D01*
X256704Y540796D01*
X255860Y539768D01*
X255314Y538746D01*
X255153Y538665D01*
X254907Y538615D01*
X254720Y538627D01*
X253582Y539561D01*
X252129Y540338D01*
X250553Y540816D01*
X248913Y540977D01*
X247274Y540816D01*
X245698Y540338D01*
X245370Y540163D01*
X245042Y540338D01*
X243466Y540816D01*
X241827Y540977D01*
X240188Y540816D01*
X238611Y540338D01*
X237500Y539744D01*
X237000Y540043D01*
Y543500D01*
Y552500D01*
X235634D01*
X235500Y552663D01*
Y554337D01*
X235173Y555979D01*
X235236Y556111D01*
X235972Y556335D01*
X237767Y557294D01*
X239340Y558585D01*
X239660D01*
X241233Y557294D01*
D02*
G37*
G36*
X81064Y534315D02*
X80904Y534266D01*
X79732Y533640D01*
X78704Y532796D01*
X78034Y532126D01*
X77191Y531099D01*
X76564Y529926D01*
X76178Y528653D01*
X76119Y528058D01*
X74861Y526799D01*
X69356D01*
X69266Y527096D01*
X68640Y528268D01*
X67796Y529296D01*
X63296Y533796D01*
X62664Y534315D01*
X62843Y534815D01*
X80990D01*
X81064Y534315D01*
D02*
G37*
G36*
X86063Y518164D02*
Y517864D01*
X89217D01*
Y510610D01*
X83140Y504533D01*
X78362D01*
X78173Y505479D01*
X77760Y506478D01*
Y507201D01*
X79453D01*
Y508485D01*
X80154Y508860D01*
X81182Y509704D01*
X82025Y510732D01*
X82652Y511904D01*
X83038Y513176D01*
X83168Y514500D01*
Y515923D01*
X85601Y518355D01*
X86063Y518164D01*
D02*
G37*
G36*
X86703Y571279D02*
X86811Y571018D01*
X86619Y569075D01*
Y565925D01*
X86819Y563900D01*
X87410Y561953D01*
X88369Y560158D01*
X89660Y558585D01*
X91233Y557294D01*
X93028Y556335D01*
X94975Y555744D01*
X97000Y555545D01*
X99025Y555744D01*
X100972Y556335D01*
X102767Y557294D01*
X104340Y558585D01*
X105631Y560158D01*
X106590Y561953D01*
X106919Y563036D01*
X107457Y563088D01*
X108198Y562123D01*
X109312Y561269D01*
X110608Y560732D01*
X111500Y560614D01*
Y567500D01*
X112500D01*
Y560614D01*
X113392Y560732D01*
X114688Y561269D01*
X115802Y562123D01*
X116542Y563088D01*
X117081Y563036D01*
X117410Y561953D01*
X118369Y560158D01*
X119660Y558585D01*
X121233Y557294D01*
X123028Y556335D01*
X124975Y555744D01*
X127000Y555545D01*
X129025Y555744D01*
X130973Y556335D01*
X132767Y557294D01*
X134340Y558585D01*
X134660D01*
X135247Y558103D01*
X135348Y557077D01*
X135734Y555805D01*
X136360Y554632D01*
X137204Y553604D01*
X140323Y550485D01*
X141351Y549641D01*
X142524Y549015D01*
X143796Y548629D01*
X145119Y548498D01*
X172910D01*
X196227Y525182D01*
X196058Y524711D01*
X195622Y524668D01*
X194509Y524331D01*
X193976D01*
Y524083D01*
X193176Y523655D01*
X192149Y522812D01*
X191305Y521784D01*
X190678Y520611D01*
X190293Y519339D01*
X190162Y518016D01*
Y510837D01*
X190293Y509514D01*
X190678Y508242D01*
X191305Y507069D01*
X192149Y506041D01*
X196690Y501500D01*
X196483Y501000D01*
X185075D01*
X184996Y501096D01*
X158740Y527352D01*
Y528459D01*
X158366Y530341D01*
X157632Y532114D01*
X156566Y533709D01*
X155209Y535066D01*
X153614Y536132D01*
X151841Y536866D01*
X149959Y537240D01*
X148041D01*
X146159Y536866D01*
X144386Y536132D01*
X142791Y535066D01*
X142008Y534283D01*
X139184D01*
X138623Y534453D01*
X137300Y534583D01*
X135937D01*
Y537738D01*
X116063D01*
Y518037D01*
X115587Y517806D01*
X105937Y527456D01*
Y537738D01*
X86063D01*
Y534696D01*
X85661Y534398D01*
X84983Y534604D01*
X84571Y534815D01*
Y555000D01*
X63000D01*
Y556000D01*
X84571D01*
Y571518D01*
X86526D01*
X86703Y571279D01*
D02*
G37*
G36*
X233500Y484000D02*
X234894D01*
X235230Y483630D01*
X235217Y483500D01*
Y477608D01*
X234816Y477310D01*
X234523Y477399D01*
X233200Y477529D01*
X230283D01*
Y483500D01*
X230270Y483630D01*
X230606Y484000D01*
X232000D01*
Y485717D01*
X233500D01*
Y484000D01*
D02*
G37*
G36*
X137600Y520717D02*
X142008D01*
X142791Y519934D01*
X144386Y518868D01*
X146159Y518134D01*
X148041Y517760D01*
X149148D01*
X167436Y499472D01*
X167387Y498975D01*
X166381Y498303D01*
X165197Y497119D01*
X164267Y495727D01*
X163626Y494180D01*
X163363Y492856D01*
X160404Y489896D01*
X159560Y488869D01*
X158933Y487696D01*
X158547Y486424D01*
X158417Y485100D01*
Y473700D01*
X158163D01*
X156520Y473374D01*
X155866Y473103D01*
X155606Y473536D01*
X155796Y473692D01*
X156640Y474720D01*
X157266Y475892D01*
X157652Y477165D01*
X157783Y478488D01*
Y487984D01*
X157652Y489307D01*
X157266Y490580D01*
X156724Y491594D01*
Y495480D01*
X151500D01*
Y487984D01*
X150500D01*
Y495480D01*
X145276D01*
Y491594D01*
X144734Y490580D01*
X144348Y489307D01*
X144217Y487984D01*
Y478488D01*
X144318Y477469D01*
X143677Y477406D01*
X142404Y477020D01*
X141232Y476393D01*
X140204Y475549D01*
X139360Y474522D01*
X138733Y473349D01*
X138347Y472077D01*
X138217Y470753D01*
Y468059D01*
X132954Y462796D01*
X132111Y461768D01*
X131484Y460596D01*
X131098Y459323D01*
X130967Y458000D01*
X130980Y457870D01*
X130645Y457500D01*
X129717D01*
X128125Y459092D01*
Y466500D01*
X111125D01*
Y459092D01*
X110462Y458429D01*
X110000Y458620D01*
Y466500D01*
X101831D01*
X101724Y466728D01*
X101651Y467000D01*
X102266Y468151D01*
X102652Y469423D01*
X102782Y470747D01*
Y475459D01*
X102652Y476782D01*
X102283Y478000D01*
Y483500D01*
X102270Y483630D01*
X102606Y484000D01*
X104000D01*
Y501000D01*
X99445D01*
X99254Y501462D01*
X100796Y503004D01*
X101640Y504032D01*
X102266Y505205D01*
X102652Y506477D01*
X102783Y507800D01*
Y510773D01*
X103245Y510964D01*
X113266Y500942D01*
X113075Y500480D01*
X112913D01*
Y475488D01*
X134362D01*
Y500480D01*
X130389D01*
X130290Y501486D01*
X129904Y502758D01*
X129277Y503931D01*
X128434Y504959D01*
X116005Y517387D01*
X116236Y517864D01*
X135937D01*
Y520506D01*
X136378Y520823D01*
X136437Y520832D01*
X137600Y520717D01*
D02*
G37*
G36*
X176000Y484000D02*
X176000Y484000D01*
X176000Y484000D01*
X177394D01*
X177730Y483630D01*
X177717Y483500D01*
Y473289D01*
X177348Y472070D01*
X177217Y470747D01*
X177348Y469423D01*
X177733Y468151D01*
X178349Y467000D01*
X178276Y466728D01*
X178168Y466500D01*
X171982D01*
Y482291D01*
X172955Y483264D01*
X174279Y483527D01*
X175500Y484033D01*
X176000Y484000D01*
D02*
G37*
G36*
X209417Y471076D02*
X207925D01*
X206286Y470914D01*
X204710Y470436D01*
X203257Y469660D01*
X201984Y468615D01*
X200939Y467341D01*
X200162Y465889D01*
X199684Y464312D01*
X199522Y462673D01*
X199247Y462369D01*
X195723D01*
X195296Y462796D01*
X194412Y463522D01*
X194547Y464038D01*
X195123Y464094D01*
X196395Y464480D01*
X197568Y465107D01*
X198596Y465950D01*
X205796Y473151D01*
X206640Y474179D01*
X207266Y475351D01*
X207652Y476623D01*
X207783Y477947D01*
Y483500D01*
X207770Y483630D01*
X208106Y484000D01*
X209417D01*
Y471076D01*
D02*
G37*
G36*
X231177Y524348D02*
X232500Y524217D01*
X235283D01*
X235885Y523484D01*
X237158Y522439D01*
X238611Y521662D01*
X240188Y521184D01*
X241827Y521023D01*
X243466Y521184D01*
X244201Y521407D01*
X246204Y519404D01*
X247232Y518561D01*
X248404Y517934D01*
X249677Y517548D01*
X251000Y517418D01*
X261500D01*
X262823Y517548D01*
X264095Y517934D01*
X265268Y518561D01*
X266296Y519404D01*
X267139Y520432D01*
X267736Y521549D01*
X267746Y521560D01*
X267837Y521619D01*
X268322Y521715D01*
X268632Y521461D01*
X269804Y520834D01*
X271076Y520448D01*
X272400Y520318D01*
X273723Y520448D01*
X274995Y520834D01*
X275571Y521141D01*
X276000Y520885D01*
Y462393D01*
X275153Y461546D01*
X274683Y461715D01*
X274652Y462024D01*
X274266Y463296D01*
X273639Y464469D01*
X272796Y465496D01*
X264796Y473496D01*
X263768Y474340D01*
X262595Y474967D01*
X261323Y475353D01*
X260000Y475483D01*
X250021D01*
X249782Y475747D01*
X249652Y477070D01*
X249266Y478342D01*
X248783Y479247D01*
Y483500D01*
X248770Y483630D01*
X249106Y484000D01*
X250500D01*
Y501000D01*
X233500D01*
Y499283D01*
X232000D01*
Y501000D01*
X230283D01*
Y524199D01*
X230684Y524497D01*
X231177Y524348D01*
D02*
G37*
G36*
X41429Y569584D02*
Y560783D01*
X37000D01*
X35677Y560652D01*
X34404Y560266D01*
X33232Y559640D01*
X32204Y558796D01*
X31360Y557768D01*
X30734Y556596D01*
X30348Y555323D01*
X30217Y554000D01*
X30348Y552677D01*
X30734Y551404D01*
X31360Y550232D01*
X32204Y549204D01*
X33232Y548360D01*
X34404Y547734D01*
X35677Y547348D01*
X37000Y547217D01*
X41429D01*
Y534815D01*
X54157D01*
X54336Y534315D01*
X53704Y533796D01*
X52860Y532768D01*
X52234Y531596D01*
X51848Y530323D01*
X51717Y529000D01*
X51848Y527677D01*
X51992Y527201D01*
X51694Y526799D01*
X41547D01*
Y502201D01*
X42831D01*
Y496651D01*
X42518Y496269D01*
X41891Y495096D01*
X41505Y493824D01*
X41375Y492500D01*
Y479270D01*
X40439Y478334D01*
X39351Y476707D01*
X38602Y474898D01*
X38220Y472979D01*
Y471021D01*
X38602Y469101D01*
X39351Y467293D01*
X40439Y465665D01*
X41823Y464281D01*
X43450Y463194D01*
X45259Y462445D01*
X47179Y462063D01*
X49136D01*
X51056Y462445D01*
X52864Y463194D01*
X54492Y464281D01*
X55876Y465665D01*
X56963Y467293D01*
X57713Y469101D01*
X58094Y471021D01*
Y472979D01*
X57713Y474898D01*
X56963Y476707D01*
X55876Y478334D01*
X54940Y479270D01*
Y489807D01*
X55254Y490189D01*
X55880Y491361D01*
X56266Y492634D01*
X56397Y493957D01*
Y494665D01*
X56859Y494857D01*
X58111Y493604D01*
X57925Y493327D01*
X57284Y491780D01*
X56958Y490138D01*
Y488463D01*
X57284Y486821D01*
X57925Y485274D01*
X58855Y483882D01*
X60039Y482698D01*
X61431Y481768D01*
X62978Y481127D01*
X64621Y480800D01*
X66295D01*
X67937Y481127D01*
X69484Y481768D01*
X70606Y482518D01*
X88717D01*
Y475959D01*
X88848Y474636D01*
X89217Y473418D01*
Y470747D01*
X89347Y469423D01*
X89733Y468151D01*
X90360Y466978D01*
X91204Y465950D01*
X92232Y465107D01*
X93000Y464696D01*
Y459092D01*
X66521Y432613D01*
X66036Y432735D01*
X65838Y433389D01*
X65061Y434841D01*
X64016Y436115D01*
X62743Y437160D01*
X61290Y437936D01*
X59714Y438414D01*
X58075Y438576D01*
X54925D01*
X53286Y438414D01*
X51710Y437936D01*
X50257Y437160D01*
X48984Y436115D01*
X47939Y434841D01*
X47162Y433389D01*
X46684Y431812D01*
X46523Y430173D01*
X46633Y429048D01*
X46031Y428726D01*
X45004Y427883D01*
X34101Y416980D01*
X33601Y417004D01*
X32915Y417840D01*
X31342Y419131D01*
X29547Y420090D01*
X27600Y420681D01*
X25575Y420881D01*
X22425D01*
X20400Y420681D01*
X18453Y420090D01*
X16658Y419131D01*
X15085Y417840D01*
X13813Y416290D01*
X13531Y416140D01*
X13383Y416017D01*
X12882Y416254D01*
Y541691D01*
X40967Y569776D01*
X41429Y569584D01*
D02*
G37*
G36*
X188117Y450791D02*
X189145Y449947D01*
X190318Y449320D01*
X191590Y448934D01*
X192913Y448804D01*
X203009D01*
X203257Y448600D01*
X204563Y447902D01*
Y445138D01*
X209417D01*
Y349460D01*
X190947Y330989D01*
X190456Y331087D01*
X190219Y331660D01*
X189142Y333272D01*
X187772Y334642D01*
X186160Y335719D01*
X184370Y336460D01*
X182469Y336839D01*
X180531D01*
X178630Y336460D01*
X176840Y335719D01*
X175228Y334642D01*
X173858Y333272D01*
X172781Y331660D01*
X172482Y330939D01*
X171982Y331039D01*
Y372961D01*
X172482Y373061D01*
X172781Y372340D01*
X173858Y370728D01*
X175228Y369358D01*
X176840Y368281D01*
X178630Y367540D01*
X180531Y367161D01*
X182469D01*
X184370Y367540D01*
X186160Y368281D01*
X187772Y369358D01*
X189142Y370728D01*
X190219Y372340D01*
X190961Y374130D01*
X191339Y376031D01*
Y377969D01*
X190961Y379870D01*
X190219Y381660D01*
X189142Y383272D01*
X187772Y384642D01*
X186160Y385719D01*
X184370Y386460D01*
X183731Y386588D01*
Y387097D01*
X184370Y387225D01*
X186160Y387966D01*
X187772Y389043D01*
X189142Y390413D01*
X190219Y392025D01*
X190961Y393815D01*
X191339Y395716D01*
Y397654D01*
X190961Y399555D01*
X190219Y401345D01*
X189142Y402957D01*
X187772Y404327D01*
X186160Y405404D01*
X184370Y406145D01*
X182469Y406524D01*
X180531D01*
X178630Y406145D01*
X176840Y405404D01*
X175228Y404327D01*
X173858Y402957D01*
X172781Y401345D01*
X172482Y400624D01*
X171982Y400724D01*
Y438485D01*
X172482Y438664D01*
X172904Y438150D01*
X179604Y431451D01*
X180631Y430607D01*
X181804Y429980D01*
X183077Y429594D01*
X184400Y429464D01*
X185723Y429594D01*
X186995Y429980D01*
X188168Y430607D01*
X189196Y431451D01*
X190039Y432478D01*
X190666Y433651D01*
X191052Y434923D01*
X191182Y436247D01*
X191052Y437570D01*
X190666Y438842D01*
X190039Y440015D01*
X189196Y441043D01*
X184433Y445806D01*
X184352Y446623D01*
X183966Y447896D01*
X183340Y449068D01*
X182500Y450091D01*
Y451217D01*
X187690D01*
X188117Y450791D01*
D02*
G37*
G36*
X143817Y371110D02*
X99990Y327283D01*
X90852D01*
X90661Y327745D01*
X92196Y329280D01*
X93039Y330308D01*
X93666Y331480D01*
X94052Y332753D01*
X94182Y334076D01*
Y351600D01*
X94052Y352923D01*
X93666Y354196D01*
X93039Y355368D01*
X92196Y356396D01*
X91092Y357500D01*
X112199Y378607D01*
X112661Y378416D01*
Y377531D01*
X113039Y375631D01*
X113781Y373840D01*
X114858Y372229D01*
X116228Y370858D01*
X117840Y369781D01*
X119630Y369040D01*
X121531Y368662D01*
X123469D01*
X125370Y369040D01*
X127160Y369781D01*
X128771Y370858D01*
X130142Y372229D01*
X131219Y373840D01*
X131960Y375631D01*
X132338Y377531D01*
Y379469D01*
X131960Y381370D01*
X131219Y383161D01*
X130142Y384772D01*
X128771Y386142D01*
X127160Y387219D01*
X125370Y387961D01*
X124731Y388088D01*
Y388598D01*
X125370Y388725D01*
X127160Y389467D01*
X128771Y390543D01*
X130142Y391914D01*
X131219Y393525D01*
X131960Y395316D01*
X132338Y397216D01*
Y399154D01*
X131960Y401055D01*
X131219Y402846D01*
X130142Y404457D01*
X128771Y405828D01*
X127160Y406904D01*
X125370Y407646D01*
X123469Y408024D01*
X121531D01*
X121469Y408012D01*
X121082Y408329D01*
Y430473D01*
X121534Y430687D01*
X121632Y430607D01*
X122804Y429980D01*
X124077Y429594D01*
X125400Y429464D01*
X126723Y429594D01*
X127995Y429980D01*
X129168Y430607D01*
X130196Y431451D01*
X131039Y432478D01*
X131666Y433651D01*
X132052Y434923D01*
X132182Y436247D01*
Y440500D01*
X143817D01*
Y371110D01*
D02*
G37*
G36*
X237217Y428950D02*
Y381858D01*
X236765Y381645D01*
X236243Y382073D01*
X234790Y382850D01*
X233214Y383328D01*
X231575Y383489D01*
X230083D01*
Y427841D01*
X230469Y428158D01*
X231513Y427950D01*
X233187D01*
X234829Y428277D01*
X236376Y428918D01*
X236776Y429185D01*
X237217Y428950D01*
D02*
G37*
G36*
X99017Y441891D02*
Y436247D01*
X99147Y434923D01*
X99533Y433651D01*
X100160Y432478D01*
X101004Y431451D01*
X102032Y430607D01*
X103204Y429980D01*
X104477Y429594D01*
X105800Y429464D01*
X107017Y429584D01*
X107516Y429303D01*
X107517Y429302D01*
Y393109D01*
X94660Y380252D01*
X94139Y380438D01*
X94052Y381324D01*
X93666Y382596D01*
X93039Y383769D01*
X92196Y384796D01*
X88796Y388196D01*
X87768Y389040D01*
X86595Y389667D01*
X85323Y390053D01*
X84000Y390183D01*
X57200D01*
X55876Y390053D01*
X54604Y389667D01*
X53432Y389040D01*
X52404Y388196D01*
X40982Y376775D01*
X40483Y376982D01*
Y404177D01*
X51101Y414796D01*
X51563Y414604D01*
Y412638D01*
X61437D01*
Y415402D01*
X62743Y416100D01*
X62991Y416304D01*
X66587D01*
X67910Y416434D01*
X69182Y416820D01*
X70355Y417447D01*
X71383Y418291D01*
X97000Y443908D01*
X99017Y441891D01*
D02*
G37*
G36*
X172781Y392025D02*
X173858Y390413D01*
X175228Y389043D01*
X176840Y387966D01*
X178630Y387225D01*
X179269Y387097D01*
Y386588D01*
X178630Y386460D01*
X176840Y385719D01*
X175228Y384642D01*
X173858Y383272D01*
X172781Y381660D01*
X172482Y380939D01*
X171982Y381039D01*
Y392646D01*
X172482Y392746D01*
X172781Y392025D01*
D02*
G37*
G36*
X62350Y368401D02*
Y366599D01*
X62702Y364831D01*
X63392Y363166D01*
X63837Y362500D01*
X63392Y361834D01*
X62702Y360169D01*
X62350Y358401D01*
Y356599D01*
X62702Y354831D01*
X63392Y353166D01*
X63837Y352500D01*
X63392Y351834D01*
X62702Y350169D01*
X62350Y348401D01*
Y348347D01*
X61898Y348133D01*
X61768Y348240D01*
X60595Y348867D01*
X59323Y349253D01*
X58000Y349383D01*
X36218D01*
X35882Y349753D01*
X35956Y350500D01*
X35756Y352525D01*
X35165Y354472D01*
X34206Y356267D01*
X32915Y357840D01*
Y358160D01*
X33373Y358717D01*
X39299D01*
X40623Y358848D01*
X41895Y359234D01*
X43068Y359860D01*
X44095Y360704D01*
X60009Y376618D01*
X62350D01*
Y368401D01*
D02*
G37*
G36*
X52964Y327745D02*
X52772Y327283D01*
X33373D01*
X32915Y327840D01*
Y328160D01*
X33373Y328717D01*
X51991D01*
X52964Y327745D01*
D02*
G37*
G36*
X158277Y419594D02*
X158417Y419580D01*
Y292910D01*
X130204Y264696D01*
X129360Y263669D01*
X128733Y262496D01*
X128348Y261224D01*
X128217Y259900D01*
Y65510D01*
X117704Y54997D01*
X116860Y53969D01*
X116234Y52796D01*
X115848Y51524D01*
X115717Y50201D01*
Y27373D01*
X115355Y27076D01*
X115000Y26965D01*
X114645Y27076D01*
X113267Y28206D01*
X111472Y29165D01*
X109525Y29756D01*
X107500Y29956D01*
X105475Y29756D01*
X103527Y29165D01*
X101733Y28206D01*
X100355Y27076D01*
X100000Y26965D01*
X99645Y27076D01*
X98267Y28206D01*
X96473Y29165D01*
X94525Y29756D01*
X92500Y29956D01*
X90475Y29756D01*
X88528Y29165D01*
X86733Y28206D01*
X85355Y27076D01*
X85000Y26965D01*
X84645Y27076D01*
X83267Y28206D01*
X81472Y29165D01*
X79525Y29756D01*
X77500Y29956D01*
X77206Y30222D01*
Y79684D01*
X77691Y79805D01*
X77760Y79675D01*
X78604Y78647D01*
X80161Y77089D01*
Y75874D01*
X80540Y73973D01*
X81281Y72183D01*
X82358Y70571D01*
X83728Y69201D01*
X85340Y68124D01*
X87130Y67383D01*
X89031Y67004D01*
X90969D01*
X92870Y67383D01*
X94660Y68124D01*
X96272Y69201D01*
X97642Y70571D01*
X98719Y72183D01*
X99461Y73973D01*
X99839Y75874D01*
Y77812D01*
X99461Y79713D01*
X98719Y81503D01*
X97642Y83115D01*
X96272Y84485D01*
X94660Y85562D01*
X92870Y86303D01*
X90969Y86682D01*
X90182D01*
Y107162D01*
X90969D01*
X92870Y107540D01*
X94660Y108282D01*
X96272Y109358D01*
X97642Y110729D01*
X98719Y112340D01*
X99461Y114131D01*
X99839Y116031D01*
Y117247D01*
X118796Y136204D01*
X119639Y137232D01*
X120266Y138405D01*
X120652Y139677D01*
X120782Y141000D01*
Y236700D01*
X120652Y238024D01*
X120266Y239296D01*
X119639Y240469D01*
X118796Y241496D01*
X117977Y242316D01*
X116949Y243159D01*
X115776Y243786D01*
X114504Y244172D01*
X113848Y244236D01*
X113610Y244762D01*
X114173Y246121D01*
X114500Y247763D01*
Y249438D01*
X114173Y251080D01*
X113532Y252627D01*
X112602Y254019D01*
X111418Y255203D01*
X110026Y256133D01*
X108479Y256774D01*
X106837Y257100D01*
X106374D01*
X106076Y257502D01*
X106175Y257830D01*
X106320Y259300D01*
Y267262D01*
X113739D01*
X115209Y267406D01*
X116623Y267835D01*
X117926Y268532D01*
X119068Y269469D01*
X127324Y277726D01*
X128262Y278868D01*
X128958Y280170D01*
X129270Y281200D01*
X130142Y282071D01*
X131219Y283682D01*
X131960Y285473D01*
X132338Y287374D01*
Y289312D01*
X131960Y291213D01*
X131219Y293003D01*
X130142Y294615D01*
X128771Y295985D01*
X127160Y297062D01*
X125370Y297803D01*
X123469Y298181D01*
X121531D01*
X119630Y297803D01*
X117840Y297062D01*
X116228Y295985D01*
X114858Y294615D01*
X113781Y293003D01*
X113039Y291213D01*
X112661Y289312D01*
Y287374D01*
X113039Y285473D01*
X113249Y284966D01*
X110617Y282334D01*
X104911D01*
Y285329D01*
X104911D01*
Y285671D01*
X104911D01*
Y305732D01*
X103189D01*
X102872Y306119D01*
X103000Y306763D01*
Y308438D01*
X102673Y310080D01*
X102033Y311627D01*
X101102Y313019D01*
X100866Y313255D01*
X101057Y313717D01*
X102799D01*
X104123Y313848D01*
X105395Y314234D01*
X106568Y314860D01*
X107596Y315704D01*
X114284Y322392D01*
X114781Y322343D01*
X114858Y322229D01*
X116228Y320858D01*
X117840Y319781D01*
X119630Y319040D01*
X121531Y318662D01*
X123469D01*
X125370Y319040D01*
X127160Y319781D01*
X128771Y320858D01*
X130142Y322229D01*
X131219Y323840D01*
X131960Y325631D01*
X132338Y327531D01*
Y329469D01*
X131960Y331370D01*
X131219Y333161D01*
X130142Y334772D01*
X128771Y336142D01*
X128657Y336219D01*
X128608Y336717D01*
X155396Y363504D01*
X156239Y364532D01*
X156866Y365705D01*
X157252Y366977D01*
X157382Y368300D01*
Y419446D01*
X157784Y419744D01*
X158277Y419594D01*
D02*
G37*
G36*
X244217Y349272D02*
Y294164D01*
X243755Y293973D01*
X238411Y299317D01*
Y310732D01*
X217589D01*
Y308654D01*
X216572Y308233D01*
X215180Y307303D01*
X213996Y306119D01*
X213066Y304727D01*
X212425Y303180D01*
X212098Y301538D01*
Y299863D01*
X212425Y298221D01*
X213066Y296674D01*
X213996Y295282D01*
X215180Y294098D01*
X216572Y293168D01*
X217589Y292747D01*
Y290829D01*
X217589Y290671D01*
X217589D01*
Y290329D01*
X217589D01*
Y287835D01*
X191334D01*
X190961Y289712D01*
X190219Y291503D01*
X189142Y293114D01*
X188274Y293982D01*
X243755Y349464D01*
X244217Y349272D01*
D02*
G37*
G36*
X88134Y313255D02*
X87898Y313019D01*
X86967Y311627D01*
X86327Y310080D01*
X86000Y308438D01*
Y306763D01*
X86128Y306119D01*
X85811Y305732D01*
X84089D01*
Y303238D01*
X75200D01*
X73729Y303093D01*
X72316Y302664D01*
X71013Y301968D01*
X69871Y301031D01*
X58571Y289731D01*
X57634Y288589D01*
X56937Y287286D01*
X56508Y285872D01*
X56363Y284402D01*
Y270382D01*
X55902Y270191D01*
X45796Y280296D01*
X44768Y281140D01*
X43596Y281766D01*
X42323Y282152D01*
X41000Y282283D01*
X33373D01*
X32915Y282840D01*
Y283160D01*
X34206Y284733D01*
X35165Y286527D01*
X35756Y288475D01*
X35956Y290500D01*
X35756Y292525D01*
X35165Y294473D01*
X34206Y296267D01*
X32915Y297840D01*
Y298160D01*
X34206Y299733D01*
X35165Y301527D01*
X35756Y303475D01*
X35956Y305500D01*
X35756Y307525D01*
X35165Y309472D01*
X34206Y311267D01*
X32915Y312840D01*
Y313160D01*
X33373Y313717D01*
X87943D01*
X88134Y313255D01*
D02*
G37*
G36*
X163117Y277772D02*
Y266426D01*
X162731Y266109D01*
X161769Y266300D01*
X160094D01*
X158452Y265974D01*
X156905Y265333D01*
X155513Y264403D01*
X154329Y263219D01*
X153399Y261827D01*
X152758Y260280D01*
X152431Y258638D01*
Y256963D01*
X152758Y255321D01*
X153399Y253774D01*
X154129Y252681D01*
X154022Y252181D01*
X152175D01*
Y248441D01*
X149852D01*
X149326Y248793D01*
X147779Y249433D01*
X146137Y249760D01*
X144463D01*
X142820Y249433D01*
X142789Y249420D01*
X142757Y249433D01*
X141782Y249627D01*
Y257091D01*
X162655Y277964D01*
X163117Y277772D01*
D02*
G37*
G36*
X49717Y257191D02*
Y252181D01*
X37611D01*
X25135Y264657D01*
X25326Y265119D01*
X25575D01*
X27600Y265319D01*
X29547Y265910D01*
X31342Y266869D01*
X32915Y268160D01*
X33373Y268717D01*
X38191D01*
X49717Y257191D01*
D02*
G37*
G36*
X182715Y274969D02*
X183857Y274032D01*
X185160Y273336D01*
X186574Y272907D01*
X188044Y272762D01*
X217589D01*
Y270268D01*
X221294D01*
X221485Y269806D01*
X221198Y269519D01*
X220268Y268127D01*
X219627Y266580D01*
X219301Y264938D01*
Y263263D01*
X219627Y261621D01*
X220268Y260074D01*
X221198Y258682D01*
X222117Y257763D01*
Y252810D01*
X221488Y252181D01*
X212141D01*
Y248441D01*
X202244D01*
Y248043D01*
X201648D01*
X200526Y248793D01*
X198979Y249433D01*
X197337Y249760D01*
X195663D01*
X194020Y249433D01*
X192473Y248793D01*
X191081Y247863D01*
X189897Y246679D01*
X188967Y245286D01*
X188326Y243740D01*
X188000Y242097D01*
Y240423D01*
X188326Y238781D01*
X188967Y237234D01*
X189897Y235842D01*
X191081Y234658D01*
X192473Y233728D01*
X194020Y233087D01*
X195663Y232760D01*
X197337D01*
X198979Y233087D01*
X200526Y233728D01*
X201648Y234477D01*
X202244D01*
Y234079D01*
X212141D01*
Y230339D01*
X214114D01*
Y172207D01*
X213286Y171378D01*
X212795Y171476D01*
X212719Y171661D01*
X211642Y173272D01*
X210272Y174643D01*
X208660Y175719D01*
X206870Y176461D01*
X204969Y176839D01*
X203031D01*
X201130Y176461D01*
X199340Y175719D01*
X197728Y174643D01*
X196358Y173272D01*
X195281Y171661D01*
X194539Y169870D01*
X194161Y167969D01*
Y166031D01*
X194539Y164131D01*
X195281Y162340D01*
X196358Y160729D01*
X197728Y159358D01*
X199340Y158282D01*
X201130Y157540D01*
X203031Y157162D01*
X204717D01*
Y127310D01*
X204246Y126839D01*
X203031D01*
X201130Y126461D01*
X199340Y125719D01*
X197728Y124643D01*
X196358Y123272D01*
X195281Y121661D01*
X194539Y119870D01*
X194161Y117969D01*
Y116031D01*
X194539Y114131D01*
X195281Y112340D01*
X196358Y110729D01*
X197728Y109358D01*
X199340Y108282D01*
X199832Y108078D01*
X199929Y107587D01*
X187244Y94902D01*
X186782Y95094D01*
Y259500D01*
X186652Y260824D01*
X186266Y262096D01*
X185639Y263269D01*
X184796Y264296D01*
X181682Y267410D01*
Y275349D01*
X182144Y275540D01*
X182715Y274969D01*
D02*
G37*
G36*
X84089Y285671D02*
X84089D01*
Y285329D01*
X84089D01*
Y265268D01*
X91247D01*
Y262422D01*
X71898Y243072D01*
X71436Y243264D01*
Y281280D01*
X78321Y288165D01*
X84089D01*
Y285671D01*
D02*
G37*
G36*
X276000Y442555D02*
Y258592D01*
X258245Y240837D01*
X257783Y241028D01*
Y424991D01*
X275538Y442746D01*
X276000Y442555D01*
D02*
G37*
G36*
X149317Y233274D02*
Y191435D01*
X148991Y191246D01*
X148817Y191208D01*
X147637Y191524D01*
X147500D01*
Y186685D01*
Y181847D01*
X147637D01*
X148817Y182163D01*
X148991Y182124D01*
X149317Y181936D01*
Y176965D01*
X148931Y176648D01*
X147969Y176839D01*
X146031D01*
X144130Y176461D01*
X142340Y175719D01*
X142223Y175642D01*
X141782Y175877D01*
Y185531D01*
X142282Y185597D01*
X142491Y184818D01*
X143128Y183714D01*
X144029Y182814D01*
X145132Y182176D01*
X146363Y181847D01*
X146500D01*
Y186685D01*
Y191524D01*
X146363D01*
X145132Y191194D01*
X144029Y190557D01*
X143128Y189656D01*
X142491Y188553D01*
X142282Y187774D01*
X141782Y187840D01*
Y232893D01*
X142757Y233087D01*
X142789Y233100D01*
X142820Y233087D01*
X144463Y232760D01*
X146137D01*
X147779Y233087D01*
X148901Y233552D01*
X149317Y233274D01*
D02*
G37*
G36*
X276000Y238755D02*
Y224245D01*
X275538Y224054D01*
X268092Y231500D01*
X275538Y238946D01*
X276000Y238755D01*
D02*
G37*
G36*
Y204408D02*
Y174413D01*
X275559Y174177D01*
X275326Y174333D01*
X273779Y174974D01*
X272455Y175237D01*
X271396Y176296D01*
X271083Y176553D01*
X271640Y177232D01*
X272266Y178404D01*
X272652Y179677D01*
X272783Y181000D01*
X272652Y182323D01*
X272266Y183596D01*
X272113Y183883D01*
Y185670D01*
X271983Y186993D01*
X271597Y188265D01*
X270970Y189438D01*
X270126Y190466D01*
X267000Y193592D01*
Y207961D01*
X267296Y208204D01*
X268140Y209232D01*
X268766Y210404D01*
X268913Y210888D01*
X269398Y211010D01*
X276000Y204408D01*
D02*
G37*
G36*
X21339Y249269D02*
X21191Y248710D01*
X19921Y247863D01*
X18738Y246679D01*
X17807Y245286D01*
X17167Y243740D01*
X16840Y242097D01*
Y240423D01*
X17167Y238781D01*
X17807Y237234D01*
X18738Y235842D01*
X19921Y234658D01*
X21314Y233728D01*
X22861Y233087D01*
X24503Y232760D01*
X26177D01*
X27819Y233087D01*
X29366Y233728D01*
X29892Y234079D01*
X32244D01*
Y230339D01*
X42317D01*
Y171498D01*
X41827Y171400D01*
X41719Y171661D01*
X40642Y173272D01*
X39272Y174643D01*
X37660Y175719D01*
X35870Y176461D01*
X33969Y176839D01*
X32754D01*
X12882Y196710D01*
Y257072D01*
X13344Y257264D01*
X21339Y249269D01*
D02*
G37*
G36*
X258467Y152940D02*
Y151250D01*
X258598Y149927D01*
X258984Y148654D01*
X259610Y147482D01*
X259635Y147452D01*
X259421Y147000D01*
X253783D01*
Y156972D01*
X254244Y157163D01*
X258467Y152940D01*
D02*
G37*
G36*
X232964Y150153D02*
Y133961D01*
X229110Y130108D01*
X228648Y130299D01*
Y146490D01*
X232502Y150344D01*
X232964Y150153D01*
D02*
G37*
G36*
X92210Y231849D02*
Y230339D01*
X107217D01*
Y143810D01*
X90682Y127275D01*
X90182Y127482D01*
Y157162D01*
X90969D01*
X92870Y157540D01*
X94660Y158282D01*
X96272Y159358D01*
X97642Y160729D01*
X98719Y162340D01*
X99461Y164131D01*
X99839Y166031D01*
Y167969D01*
X99461Y169870D01*
X98719Y171661D01*
X97642Y173272D01*
X96272Y174643D01*
X94660Y175719D01*
X92870Y176461D01*
X90969Y176839D01*
X90182D01*
Y181847D01*
X90637D01*
X91868Y182176D01*
X92971Y182814D01*
X93872Y183714D01*
X94509Y184818D01*
X94839Y186048D01*
Y187322D01*
X94509Y188553D01*
X93872Y189656D01*
X92971Y190557D01*
X91868Y191194D01*
X90637Y191524D01*
X90182D01*
Y231308D01*
X91297Y231769D01*
X91769Y232084D01*
X92210Y231849D01*
D02*
G37*
G36*
X142340Y158282D02*
X144130Y157540D01*
X146031Y157162D01*
X147969D01*
X148931Y157353D01*
X149317Y157036D01*
Y128910D01*
X147246Y126839D01*
X146031D01*
X144130Y126461D01*
X142340Y125719D01*
X142223Y125642D01*
X141782Y125877D01*
Y158124D01*
X142223Y158359D01*
X142340Y158282D01*
D02*
G37*
G36*
X169687Y230339D02*
X169717Y229851D01*
Y54810D01*
X147704Y32796D01*
X146860Y31769D01*
X146234Y30596D01*
X145848Y29324D01*
X145717Y28000D01*
Y27373D01*
X145355Y27076D01*
X145000Y26965D01*
X144645Y27076D01*
X143267Y28206D01*
X141472Y29165D01*
X139525Y29756D01*
X137500Y29956D01*
X135475Y29756D01*
X133528Y29165D01*
X131733Y28206D01*
X130355Y27076D01*
X130000Y26965D01*
X129645Y27076D01*
X129283Y27373D01*
Y47391D01*
X139796Y57904D01*
X140639Y58932D01*
X141266Y60105D01*
X141652Y61377D01*
X141782Y62700D01*
Y67966D01*
X142223Y68202D01*
X142340Y68124D01*
X144130Y67383D01*
X146031Y67004D01*
X147969D01*
X149870Y67383D01*
X151660Y68124D01*
X153272Y69201D01*
X154642Y70571D01*
X155719Y72183D01*
X156460Y73973D01*
X156839Y75874D01*
Y77812D01*
X156460Y79713D01*
X155719Y81503D01*
X154642Y83115D01*
X153272Y84485D01*
X151660Y85562D01*
X149870Y86303D01*
X147969Y86682D01*
X146031D01*
X144130Y86303D01*
X142340Y85562D01*
X142223Y85484D01*
X141782Y85720D01*
Y108124D01*
X142223Y108359D01*
X142340Y108282D01*
X144130Y107540D01*
X146031Y107162D01*
X147969D01*
X149870Y107540D01*
X151660Y108282D01*
X153272Y109358D01*
X154642Y110729D01*
X155719Y112340D01*
X156460Y114131D01*
X156839Y116031D01*
Y117247D01*
X160896Y121304D01*
X161739Y122332D01*
X162366Y123505D01*
X162752Y124777D01*
X162882Y126100D01*
Y230339D01*
X169687D01*
D02*
G37*
G36*
X249000Y91321D02*
Y88750D01*
X253250Y84500D01*
X261750D01*
X263717Y86467D01*
X271621D01*
X271813Y86005D01*
X267190Y81383D01*
X247633D01*
Y91559D01*
X248500Y91731D01*
X249000Y91321D01*
D02*
G37*
G36*
X220914Y106603D02*
Y26913D01*
X220707Y26660D01*
X220110Y25543D01*
X220060D01*
X218216Y25177D01*
X216479Y24457D01*
X214916Y23413D01*
X213587Y22084D01*
X212543Y20520D01*
X212457Y20313D01*
X211598Y20543D01*
X210543D01*
Y25543D01*
X197867D01*
Y68578D01*
X198308Y68813D01*
X199340Y68124D01*
X201130Y67382D01*
X203031Y67004D01*
X204969D01*
X206870Y67382D01*
X208660Y68124D01*
X210272Y69201D01*
X211642Y70571D01*
X212719Y72183D01*
X213460Y73973D01*
X213839Y75874D01*
Y77812D01*
X213460Y79713D01*
X212719Y81503D01*
X211642Y83114D01*
X210272Y84485D01*
X208660Y85562D01*
X206870Y86303D01*
X204969Y86681D01*
X203031D01*
X201130Y86303D01*
X200342Y85977D01*
X200058Y86401D01*
X220452Y106795D01*
X220914Y106603D01*
D02*
G37*
G36*
X173217Y38472D02*
Y28719D01*
X172788Y28462D01*
X171473Y29165D01*
X169525Y29756D01*
X167500Y29956D01*
X165475Y29756D01*
X164154Y29355D01*
X163889Y29798D01*
X172755Y38663D01*
X173217Y38472D01*
D02*
G37*
G36*
X237350Y50118D02*
X237751D01*
X238008Y49689D01*
X237609Y48942D01*
X237123Y47339D01*
X236959Y45673D01*
X237123Y44007D01*
X237534Y42653D01*
Y34500D01*
X237698Y32834D01*
X238184Y31231D01*
X238973Y29755D01*
X239753Y28805D01*
X239733Y28706D01*
X238160Y27415D01*
X236869Y25842D01*
X236472Y25100D01*
X235987Y25221D01*
Y49749D01*
X236487Y50203D01*
X237350Y50118D01*
D02*
G37*
G36*
X276000Y70355D02*
Y6500D01*
X277038Y5462D01*
X276847Y5000D01*
X233632D01*
X233467Y5500D01*
X234310Y6527D01*
X235006Y7830D01*
X235435Y9244D01*
X235580Y10714D01*
Y12509D01*
X236080Y12634D01*
X236869Y11158D01*
X238160Y9585D01*
X239733Y8294D01*
X241528Y7335D01*
X243475Y6744D01*
X245500Y6544D01*
X247525Y6744D01*
X249472Y7335D01*
X251267Y8294D01*
X252840Y9585D01*
X253160D01*
X254733Y8294D01*
X256527Y7335D01*
X258475Y6744D01*
X260500Y6544D01*
X262525Y6744D01*
X264473Y7335D01*
X266267Y8294D01*
X267840Y9585D01*
X269131Y11158D01*
X270091Y12953D01*
X270681Y14900D01*
X270881Y16925D01*
Y20075D01*
X270681Y22100D01*
X270091Y24047D01*
X269131Y25842D01*
X267840Y27415D01*
X266267Y28706D01*
X264473Y29665D01*
X264450Y29672D01*
X264275Y30248D01*
X264306Y30285D01*
X264602Y30582D01*
X264836Y30930D01*
X265102Y31255D01*
X265300Y31625D01*
X265533Y31974D01*
X265693Y32361D01*
X265891Y32732D01*
X265903Y32771D01*
X266382Y33250D01*
X267444Y34544D01*
X268233Y36021D01*
X268719Y37623D01*
X268883Y39289D01*
Y44071D01*
X269041Y45673D01*
X268877Y47339D01*
X268391Y48942D01*
X267602Y50418D01*
X267378Y50691D01*
X267167Y51387D01*
X266500Y52635D01*
X265602Y53728D01*
X264509Y54626D01*
X263261Y55292D01*
X261908Y55703D01*
X261366Y55756D01*
X261082Y56287D01*
X261466Y57005D01*
X261852Y58277D01*
X261982Y59600D01*
Y60217D01*
X267500D01*
X268823Y60348D01*
X270096Y60734D01*
X271268Y61360D01*
X272296Y62204D01*
X273140Y63232D01*
X273766Y64404D01*
X274152Y65677D01*
X274283Y67000D01*
X274152Y68323D01*
X273921Y69086D01*
X274796Y69804D01*
X275538Y70547D01*
X276000Y70355D01*
D02*
G37*
G36*
X23161Y167247D02*
Y166031D01*
X23539Y164131D01*
X24281Y162340D01*
X25358Y160729D01*
X26728Y159358D01*
X28340Y158282D01*
X30130Y157540D01*
X32031Y157162D01*
X33969D01*
X35870Y157540D01*
X37660Y158282D01*
X39272Y159358D01*
X40642Y160729D01*
X41719Y162340D01*
X41827Y162601D01*
X42317Y162503D01*
Y135910D01*
X33246Y126839D01*
X32031D01*
X30130Y126461D01*
X28340Y125719D01*
X26728Y124643D01*
X25358Y123272D01*
X24281Y121661D01*
X23539Y119870D01*
X23161Y117969D01*
Y116031D01*
X23539Y114131D01*
X24281Y112340D01*
X25358Y110729D01*
X26728Y109358D01*
X28340Y108282D01*
X30130Y107540D01*
X32031Y107162D01*
X33969D01*
X35870Y107540D01*
X37660Y108282D01*
X39272Y109358D01*
X40642Y110729D01*
X41719Y112340D01*
X42461Y114131D01*
X42839Y116031D01*
Y117247D01*
X53896Y128304D01*
X54739Y129332D01*
X55366Y130505D01*
X55752Y131777D01*
X55863Y132908D01*
X56363Y132883D01*
Y50422D01*
X42171Y36229D01*
X41234Y35087D01*
X40537Y33784D01*
X40108Y32371D01*
X39964Y30900D01*
Y26676D01*
X38869Y25342D01*
X37909Y23547D01*
X37319Y21600D01*
X37119Y19575D01*
Y16425D01*
X37319Y14400D01*
X37909Y12453D01*
X38869Y10658D01*
X40160Y9085D01*
X41733Y7794D01*
X43527Y6835D01*
X45475Y6244D01*
X47500Y6044D01*
X49525Y6244D01*
X51473Y6835D01*
X53267Y7794D01*
X54645Y8924D01*
X55000Y9035D01*
X55355Y8924D01*
X56733Y7794D01*
X58527Y6835D01*
X60475Y6244D01*
X62500Y6044D01*
X64525Y6244D01*
X66473Y6835D01*
X68267Y7794D01*
X69645Y8924D01*
X70000Y9035D01*
X70355Y8924D01*
X71534Y7957D01*
X72198Y6714D01*
X73136Y5572D01*
X73246Y5462D01*
X73054Y5000D01*
X27714D01*
X27518Y5500D01*
X28607Y7638D01*
X29385Y10033D01*
X29779Y12520D01*
Y15039D01*
X29385Y17526D01*
X28607Y19921D01*
X27464Y22165D01*
X25984Y24203D01*
X24203Y25984D01*
X22165Y27464D01*
X19921Y28607D01*
X17526Y29385D01*
X15039Y29779D01*
X12520D01*
X12380Y29757D01*
X12000Y30082D01*
Y177755D01*
X12462Y177946D01*
X23161Y167247D01*
D02*
G37*
%LPC*%
G36*
X173740Y532240D02*
X169500D01*
Y528000D01*
X173740D01*
Y532240D01*
D02*
G37*
G36*
X168500D02*
X164260D01*
Y528000D01*
X168500D01*
Y532240D01*
D02*
G37*
G36*
X173740Y527000D02*
X169500D01*
Y522760D01*
X173740D01*
Y527000D01*
D02*
G37*
G36*
X168500D02*
X164260D01*
Y522760D01*
X168500D01*
Y527000D01*
D02*
G37*
G36*
X72779Y476937D02*
X68342D01*
Y472500D01*
X72779D01*
Y476937D01*
D02*
G37*
G36*
X67342D02*
X62905D01*
Y472500D01*
X67342D01*
Y476937D01*
D02*
G37*
G36*
X72779Y471500D02*
X68342D01*
Y467063D01*
X72779D01*
Y471500D01*
D02*
G37*
G36*
X67342D02*
X62905D01*
Y467063D01*
X67342D01*
Y471500D01*
D02*
G37*
G36*
X204637Y191524D02*
X204500D01*
Y187185D01*
X208839D01*
Y187322D01*
X208509Y188553D01*
X207872Y189656D01*
X206971Y190557D01*
X205868Y191194D01*
X204637Y191524D01*
D02*
G37*
G36*
X203500D02*
X203363D01*
X202132Y191194D01*
X201029Y190557D01*
X200128Y189656D01*
X199491Y188553D01*
X199161Y187322D01*
Y187185D01*
X203500D01*
Y191524D01*
D02*
G37*
G36*
X208839Y186185D02*
X204500D01*
Y181847D01*
X204637D01*
X205868Y182176D01*
X206971Y182814D01*
X207872Y183714D01*
X208509Y184818D01*
X208839Y186048D01*
Y186185D01*
D02*
G37*
G36*
X203500D02*
X199161D01*
Y186048D01*
X199491Y184818D01*
X200128Y183714D01*
X201029Y182814D01*
X202132Y182176D01*
X203363Y181847D01*
X203500D01*
Y186185D01*
D02*
G37*
G36*
X33637Y191524D02*
X33500D01*
Y187185D01*
X37839D01*
Y187322D01*
X37509Y188553D01*
X36872Y189656D01*
X35971Y190557D01*
X34868Y191194D01*
X33637Y191524D01*
D02*
G37*
G36*
X32500D02*
X32363D01*
X31132Y191194D01*
X30029Y190557D01*
X29128Y189656D01*
X28491Y188553D01*
X28161Y187322D01*
Y187185D01*
X32500D01*
Y191524D01*
D02*
G37*
G36*
X37839Y186185D02*
X33500D01*
Y181847D01*
X33637D01*
X34868Y182176D01*
X35971Y182814D01*
X36872Y183714D01*
X37509Y184818D01*
X37839Y186048D01*
Y186185D01*
D02*
G37*
G36*
X32500D02*
X28161D01*
Y186048D01*
X28491Y184818D01*
X29128Y183714D01*
X30029Y182814D01*
X31132Y182176D01*
X32363Y181847D01*
X32500D01*
Y186185D01*
D02*
G37*
G36*
X33969Y86682D02*
X32031D01*
X30130Y86303D01*
X28340Y85562D01*
X26728Y84485D01*
X25358Y83115D01*
X24281Y81503D01*
X23539Y79713D01*
X23161Y77812D01*
Y75874D01*
X23539Y73973D01*
X24281Y72183D01*
X25358Y70571D01*
X26728Y69201D01*
X28340Y68124D01*
X30130Y67383D01*
X32031Y67004D01*
X33969D01*
X35870Y67383D01*
X37660Y68124D01*
X39272Y69201D01*
X40642Y70571D01*
X41719Y72183D01*
X42461Y73973D01*
X42839Y75874D01*
Y77812D01*
X42461Y79713D01*
X41719Y81503D01*
X40642Y83115D01*
X39272Y84485D01*
X37660Y85562D01*
X35870Y86303D01*
X33969Y86682D01*
D02*
G37*
%LPD*%
D13*
X224200Y548300D02*
Y549753D01*
X227000Y552553D02*
Y553500D01*
X224200Y549753D02*
X227000Y552553D01*
X224200Y548300D02*
X228500Y544000D01*
X37000Y554000D02*
X61500D01*
X211500Y124500D02*
Y160000D01*
X206168Y119168D02*
X211500Y124500D01*
Y160000D02*
X220897Y169397D01*
X206596Y118741D02*
X206717Y118822D01*
X204000Y117000D02*
X206596Y118741D01*
X220897Y169397D02*
Y237520D01*
X251000Y427801D02*
X284700Y461500D01*
X251000Y215000D02*
Y427801D01*
X228652Y262868D02*
X228900Y259843D01*
X227801Y264100D02*
X228652Y262868D01*
X228900Y250000D02*
Y259843D01*
X223899Y245000D02*
X228900Y250000D01*
X220897Y245000D02*
X223899D01*
X246500Y100000D02*
X251250Y104750D01*
X258000Y121747D02*
Y129500D01*
X240850Y104596D02*
X258000Y121747D01*
X240850Y60400D02*
X250500D01*
X247000Y120000D02*
Y190000D01*
X251250Y104750D02*
X255750D01*
X237350Y56900D02*
X252500D01*
X247000Y190000D02*
X258500Y201500D01*
X237350Y110350D02*
X247000Y120000D01*
X240850Y60400D02*
Y104596D01*
X237350Y56900D02*
Y110350D01*
X83400Y83443D02*
Y237906D01*
X86754Y241260D01*
X91069D01*
X87271Y239302D02*
Y241260D01*
X260500Y67327D02*
X260827Y67000D01*
X267500D01*
X257500Y106500D02*
Y106750D01*
X255750Y104750D02*
X257500Y106500D01*
X258500Y162500D02*
X265250Y155750D01*
Y151250D02*
Y155750D01*
Y151250D02*
X265500Y151000D01*
X258500Y192500D02*
X265330Y185670D01*
Y181670D02*
Y185670D01*
Y181670D02*
X266000Y181000D01*
X258500Y222500D02*
X262500Y218500D01*
Y213000D02*
Y218500D01*
X244000Y451801D02*
X247786Y455587D01*
X247500Y429801D02*
X268000Y450300D01*
X174900Y290200D02*
X247500Y362801D01*
X244000Y372000D02*
Y451801D01*
X247500Y362801D02*
Y429801D01*
X240000Y368000D02*
X244000Y372000D01*
X61500Y554000D02*
X63000Y555500D01*
X69846Y503154D02*
X70000Y503000D01*
X69846Y503154D02*
Y514346D01*
X69693Y514500D02*
X69846Y514346D01*
X85950Y497750D02*
X96000Y507800D01*
X56307Y505000D02*
X63557Y497750D01*
X85950D01*
X76386Y518732D02*
X82830Y525177D01*
Y527330D02*
X83500Y528000D01*
X76386Y514500D02*
Y518732D01*
X82830Y525177D02*
Y527330D01*
X63000Y514500D02*
Y524500D01*
X58500Y529000D02*
X63000Y524500D01*
X63000Y514500D02*
X63000Y514500D01*
X140278Y241260D02*
X145300D01*
X255200Y63500D02*
X255500D01*
X252000Y561700D02*
Y567500D01*
X142000Y558400D02*
Y567500D01*
Y558400D02*
X145119Y555281D01*
X175719D01*
X206000Y525000D01*
X216200Y485200D02*
X223500Y492500D01*
X216200Y346650D02*
Y485200D01*
X187150Y317600D02*
X216200Y346650D01*
X180900Y317600D02*
X187150D01*
X25340Y241260D02*
X31103D01*
X145300D02*
X151034D01*
X196500D02*
X211000D01*
X65458Y489300D02*
X92300D01*
X95500Y492500D01*
X105800Y436247D02*
Y444700D01*
X101500Y449000D02*
X105800Y444700D01*
X125400Y436247D02*
Y443225D01*
X119625Y449000D02*
X125400Y443225D01*
X145000Y465250D02*
Y470753D01*
X137750Y458000D02*
X145000Y465250D01*
X100966Y245000D02*
X106000D01*
Y248600D01*
X160931Y245000D02*
Y257800D01*
X81500Y357500D02*
X114300Y390300D01*
Y452675D01*
X119625Y458000D01*
X128625Y449000D02*
X137750D01*
X119625Y458000D02*
X128625Y449000D01*
X155875Y458000D02*
Y462076D01*
X159000Y465200D01*
X232500Y531000D02*
X241827D01*
X228500Y535000D02*
X232500Y531000D01*
X247000Y567500D02*
X252000D01*
Y561700D02*
X254900Y558800D01*
X275900D01*
X284700Y550000D01*
Y461500D02*
Y550000D01*
X156100Y237520D02*
X160931D01*
X156100Y126100D02*
Y237520D01*
X147000Y117000D02*
X156100Y126100D01*
X257500Y93250D02*
X275849D01*
X276100Y153900D01*
X258500Y171500D02*
X276100Y153900D01*
X24000Y365500D02*
X39299D01*
X57200Y383400D01*
X84000D01*
X87400Y380000D01*
Y373400D02*
Y380000D01*
X81500Y367500D02*
X87400Y373400D01*
X232350Y436450D02*
X237700Y441800D01*
Y459400D01*
X247000Y468700D01*
X260000D01*
X268000Y460700D01*
Y450300D02*
Y460700D01*
X174900Y264600D02*
Y290200D01*
Y264600D02*
X180000Y259500D01*
Y22101D02*
Y259500D01*
Y22101D02*
X182500Y19600D01*
Y18000D02*
Y19600D01*
X296700Y269700D02*
Y571000D01*
X258500Y231500D02*
X296700Y269700D01*
X262000Y567500D02*
Y575000D01*
X258700Y578300D02*
X262000Y575000D01*
X39900Y578300D02*
X258700D01*
X6100Y544500D02*
X39900Y578300D01*
X6100Y193901D02*
Y544500D01*
Y193901D02*
X33000Y167000D01*
X267000Y532500D02*
X272400Y527100D01*
Y531900D01*
X152500Y18000D02*
Y28000D01*
X176500Y52000D01*
Y253000D01*
X169900Y259600D02*
X176500Y253000D01*
X169900Y259600D02*
Y295400D01*
X223300Y348800D01*
Y460000D01*
X225973Y462673D01*
X231000D01*
X165200Y485100D02*
X171800Y491700D01*
X165200Y290100D02*
Y485100D01*
X135000Y259900D02*
X165200Y290100D01*
X135000Y62700D02*
Y259900D01*
X122500Y50201D02*
X135000Y62700D01*
X122500Y18000D02*
Y50201D01*
X159600Y426247D02*
Y445275D01*
X155875Y449000D02*
X159600Y445275D01*
X250500Y60400D02*
Y67327D01*
X255500Y63500D02*
Y67327D01*
X255200Y59600D02*
Y63500D01*
X252500Y56900D02*
X255200Y59600D01*
X245500Y67327D02*
Y74600D01*
X270000D01*
X283100Y87700D01*
Y206900D01*
X258500Y231500D02*
X283100Y206900D01*
X242000Y476746D02*
X243000Y475747D01*
X242000Y476746D02*
Y483500D01*
X258500Y171500D02*
X266600D01*
X271300Y166800D01*
X56500Y189100D02*
Y260000D01*
X41000Y275500D02*
X56500Y260000D01*
X24000Y275500D02*
X41000D01*
X150600Y452725D02*
X155875Y458000D01*
X150600Y368300D02*
Y452725D01*
X102799Y320500D02*
X150600Y368300D01*
X24000Y320500D02*
X102799D01*
X247786Y455587D02*
X252500D01*
X230000Y368000D02*
X240000D01*
X35200Y245000D02*
X41000D01*
X11800Y268400D02*
X35200Y245000D01*
X11800Y268400D02*
Y405000D01*
X17299Y410500D01*
X24000D01*
X149000Y527500D02*
X180200Y496300D01*
Y492500D02*
Y496300D01*
Y492500D02*
X184500D01*
X15300Y350500D02*
X24000D01*
X15300D02*
Y370000D01*
X17900Y372600D01*
X30000D01*
X33700Y376300D01*
Y406987D01*
X49800Y423087D01*
X56500D01*
X81500Y357500D02*
X87400Y351600D01*
Y334076D02*
Y351600D01*
X81424Y328100D02*
X87400Y334076D01*
X62200Y328100D02*
X81424D01*
X54800Y335500D02*
X62200Y328100D01*
X24000Y335500D02*
X54800D01*
X75600Y331600D02*
X81500Y337500D01*
X69000Y331600D02*
X75600D01*
X58000Y342600D02*
X69000Y331600D01*
X17900Y342600D02*
X58000D01*
X15300Y340000D02*
X17900Y342600D01*
X15300Y275500D02*
Y340000D01*
Y275500D02*
X24000D01*
X248913Y526287D02*
Y531000D01*
Y526287D02*
X251000Y524200D01*
X261500D01*
Y536000D01*
X267000Y541500D01*
X56500Y423087D02*
X66587D01*
X101500Y458000D01*
X223500Y492500D02*
Y525300D01*
X220000Y528800D02*
X223500Y525300D01*
X209800Y528800D02*
X220000D01*
X206000Y525000D02*
X209800Y528800D01*
X206000Y518016D02*
Y525000D01*
X202000Y561500D02*
Y567500D01*
Y561500D02*
X228500Y535000D01*
X123638Y487984D02*
Y500163D01*
X96000Y527801D02*
X123638Y500163D01*
X215055Y497555D02*
Y518016D01*
X210000Y492500D02*
X215055Y497555D01*
X201000Y492500D02*
X210000D01*
X56307Y505000D02*
Y514500D01*
X96000Y507800D02*
Y527801D01*
X100966Y237520D02*
X113181D01*
X114000Y236700D01*
Y141000D02*
Y236700D01*
X90000Y117000D02*
X114000Y141000D01*
X41000Y237520D02*
X46581D01*
X49100Y235000D01*
Y133100D02*
Y235000D01*
X33000Y117000D02*
X49100Y133100D01*
X177700Y442946D02*
X184400Y436247D01*
X177700Y442946D02*
Y445300D01*
X174000Y449000D02*
X177700Y445300D01*
X193800Y470747D02*
X201000Y477947D01*
Y483500D01*
X184000Y470747D02*
X184500Y471247D01*
Y483500D01*
X258000Y138500D02*
X267900Y128600D01*
Y109650D02*
Y128600D01*
X265000Y106750D02*
X267900Y109650D01*
X257500Y106750D02*
X265000D01*
X83400Y83443D02*
X90000Y76843D01*
X223500Y492500D02*
X242000D01*
X184500D02*
X201000D01*
X137600Y527500D02*
X149000D01*
X137300Y527801D02*
X137600Y527500D01*
X126000Y527801D02*
X137300D01*
X49614Y493957D02*
Y514500D01*
X48157Y492500D02*
X49614Y493957D01*
X48157Y472000D02*
Y492500D01*
X192913Y455587D02*
X209500D01*
X190500Y458000D02*
X192913Y455587D01*
X174000Y458000D02*
X190500D01*
X96000Y470747D02*
Y475459D01*
X95500Y475959D02*
X96000Y475459D01*
X95500Y475959D02*
Y483500D01*
X151000Y478488D02*
Y487984D01*
X227212Y470747D02*
X233200D01*
X223500Y474459D02*
X227212Y470747D01*
X223500Y474459D02*
Y483500D01*
X203800Y502447D02*
Y503982D01*
X196945Y510837D02*
X203800Y503982D01*
X196945Y510837D02*
Y518016D01*
D20*
X267000Y541500D02*
D03*
Y532500D02*
D03*
X228500Y544000D02*
D03*
Y535000D02*
D03*
X258000Y129500D02*
D03*
Y138500D02*
D03*
X137750Y449000D02*
D03*
Y458000D02*
D03*
X174000D02*
D03*
Y449000D02*
D03*
X155875Y458000D02*
D03*
Y449000D02*
D03*
X101500Y458000D02*
D03*
Y449000D02*
D03*
X184500Y483500D02*
D03*
Y492500D02*
D03*
X119625Y449000D02*
D03*
Y458000D02*
D03*
X258500Y171500D02*
D03*
Y162500D02*
D03*
Y201500D02*
D03*
Y192500D02*
D03*
Y231500D02*
D03*
Y222500D02*
D03*
X242000Y492500D02*
D03*
Y483500D02*
D03*
X223500Y492500D02*
D03*
Y483500D02*
D03*
X201000Y492500D02*
D03*
Y483500D02*
D03*
X95500D02*
D03*
Y492500D02*
D03*
D21*
X196945Y518016D02*
D03*
X215055D02*
D03*
X206000D02*
D03*
D22*
Y541244D02*
D03*
D23*
X126000Y527801D02*
D03*
X96000D02*
D03*
X67842Y472000D02*
D03*
D24*
X49614Y514500D02*
D03*
X76386D02*
D03*
X63000D02*
D03*
X69693D02*
D03*
X56307D02*
D03*
D25*
X63000Y555500D02*
D03*
D26*
X123638Y487984D02*
D03*
X151000D02*
D03*
D27*
X255500Y67327D02*
D03*
X250500D02*
D03*
X245500D02*
D03*
X260500Y45673D02*
D03*
X255500D02*
D03*
X250500D02*
D03*
X260500Y67327D02*
D03*
D28*
X245500Y45673D02*
D03*
D29*
X94500Y295702D02*
D03*
Y275298D02*
D03*
X228000Y300702D02*
D03*
Y280298D02*
D03*
D30*
X211000Y241260D02*
D03*
X220897Y245000D02*
D03*
Y237520D02*
D03*
X160931D02*
D03*
Y245000D02*
D03*
X151034Y241260D02*
D03*
X100966Y237520D02*
D03*
Y245000D02*
D03*
X91069Y241260D02*
D03*
X41000Y237520D02*
D03*
Y245000D02*
D03*
X31103Y241260D02*
D03*
D31*
X257500Y93250D02*
D03*
D32*
Y106750D02*
D03*
D63*
X228381Y280298D02*
X230911Y277768D01*
Y277387D02*
Y277768D01*
X228000Y280298D02*
X228381D01*
X230911Y277387D02*
X234000Y274298D01*
X221112Y149612D02*
X234000Y162500D01*
Y274298D01*
X221112Y118112D02*
Y149612D01*
X228451Y118790D02*
X240500Y130840D01*
X228000Y299070D02*
X240500Y286570D01*
Y130840D02*
Y286570D01*
X190331Y87331D02*
X221112Y118112D01*
X190331Y13182D02*
Y87331D01*
X185744Y8595D02*
X190331Y13182D01*
X92500Y16425D02*
X100331Y8595D01*
X185744D01*
X78465Y10901D02*
X85771Y3594D01*
X187815D02*
X193177Y8957D01*
X92500Y16425D02*
Y18000D01*
X85771Y3594D02*
X187815D01*
X78465Y10901D02*
Y17036D01*
X193177Y8957D02*
X226286D01*
X228043Y10714D02*
Y18917D01*
X226286Y8957D02*
X228043Y10714D01*
X77500Y18000D02*
X78465Y17036D01*
X228451Y23951D02*
Y118790D01*
X226973Y19988D02*
X228043Y18917D01*
X226973Y19988D02*
Y22473D01*
X228451Y23951D01*
X226969Y299671D02*
X228000Y300702D01*
X220598Y300700D02*
X221628Y299671D01*
X228000Y299070D02*
Y300702D01*
X221628Y299671D02*
X226969D01*
X94881Y275298D02*
X97411Y272768D01*
Y272383D02*
Y272768D01*
Y272383D02*
X98784Y271010D01*
Y259300D02*
Y271010D01*
X113739Y274798D02*
X121996Y283054D01*
X69669Y230186D02*
X98784Y259300D01*
X62500Y18036D02*
X65115Y20651D01*
X67912D01*
X95000Y274798D02*
X113739D01*
X121996Y287839D02*
X122500Y288343D01*
X94500Y275298D02*
X94881D01*
X69669Y22409D02*
Y230186D01*
X67912Y20651D02*
X69669Y22409D01*
X121996Y283054D02*
Y287839D01*
X62500Y18000D02*
Y18036D01*
X47500Y30900D02*
X63900Y47300D01*
Y284402D02*
X75200Y295702D01*
X63900Y47300D02*
Y284402D01*
X255500Y45673D02*
X260500D01*
X245500D02*
X250500D01*
X188044Y280298D02*
X228000D01*
X181500Y286842D02*
X188044Y280298D01*
X94500Y295702D02*
Y307600D01*
X47500Y18000D02*
Y30900D01*
X75200Y295702D02*
X94500D01*
D64*
X245500Y45673D02*
X246075Y45098D01*
Y34500D02*
Y45098D01*
X260342Y39289D02*
Y45515D01*
X258000Y36000D02*
Y36947D01*
X260342Y45515D02*
X260500Y45673D01*
X258000Y36947D02*
X260342Y39289D01*
X246075Y34500D02*
X260500Y20075D01*
Y18500D02*
Y20075D01*
D65*
X149000Y527500D02*
D03*
D66*
X169000D02*
D03*
D67*
X204000Y117000D02*
D03*
Y167000D02*
D03*
Y186685D02*
D03*
Y76843D02*
D03*
X181500Y377000D02*
D03*
X122500Y378500D02*
D03*
X147000Y167000D02*
D03*
Y76843D02*
D03*
Y117000D02*
D03*
Y186685D02*
D03*
X181500Y327000D02*
D03*
Y396685D02*
D03*
Y286842D02*
D03*
X90000Y117000D02*
D03*
Y167000D02*
D03*
Y76843D02*
D03*
Y186685D02*
D03*
X33000D02*
D03*
Y117000D02*
D03*
Y76843D02*
D03*
Y167000D02*
D03*
X122500Y328500D02*
D03*
Y398185D02*
D03*
Y288343D02*
D03*
D68*
X167500Y18000D02*
D03*
X137500D02*
D03*
X107500D02*
D03*
X97000Y567500D02*
D03*
X182500Y18000D02*
D03*
X152500D02*
D03*
X77500D02*
D03*
X47500D02*
D03*
X62500D02*
D03*
X92500D02*
D03*
X122500D02*
D03*
X245500Y18500D02*
D03*
X260500D02*
D03*
X127000Y567500D02*
D03*
X157000D02*
D03*
X202000D02*
D03*
X232000D02*
D03*
X262000D02*
D03*
X247000D02*
D03*
X217000D02*
D03*
X187000D02*
D03*
X172000D02*
D03*
X142000D02*
D03*
X112000D02*
D03*
D69*
X327000Y408000D02*
D03*
Y558500D02*
D03*
X476500Y408000D02*
D03*
Y558500D02*
D03*
X327000Y226250D02*
D03*
Y376750D02*
D03*
X476500Y226250D02*
D03*
Y376750D02*
D03*
X327000Y44500D02*
D03*
Y195000D02*
D03*
X476500Y44500D02*
D03*
Y195000D02*
D03*
D70*
X231000Y448500D02*
D03*
X209500D02*
D03*
X252500D02*
D03*
X230000Y360913D02*
D03*
X56500Y416000D02*
D03*
D71*
X231000Y455587D02*
D03*
Y462673D02*
D03*
X209500Y455587D02*
D03*
Y462673D02*
D03*
X252500Y455587D02*
D03*
Y462673D02*
D03*
X230000Y375087D02*
D03*
Y368000D02*
D03*
X56500Y430173D02*
D03*
Y423087D02*
D03*
D72*
X81500Y347500D02*
D03*
X71500D02*
D03*
Y367500D02*
D03*
X81500D02*
D03*
X71500Y357500D02*
D03*
X81500Y337500D02*
D03*
Y377500D02*
D03*
X71500Y337500D02*
D03*
X81500Y357500D02*
D03*
D73*
X71500Y377500D02*
D03*
D74*
X576772Y13779D02*
D03*
Y576772D02*
D03*
X13779D02*
D03*
Y13779D02*
D03*
D75*
X221000Y16000D02*
D03*
X211000D02*
D03*
D76*
X201000D02*
D03*
D77*
X24000Y335500D02*
D03*
Y290500D02*
D03*
Y395500D02*
D03*
Y410500D02*
D03*
Y275500D02*
D03*
Y305500D02*
D03*
Y350500D02*
D03*
Y380500D02*
D03*
Y365500D02*
D03*
Y320500D02*
D03*
D78*
X248913Y531000D02*
D03*
X241827D02*
D03*
D79*
X256000D02*
D03*
D80*
X48157Y472000D02*
D03*
D81*
X227000Y553500D02*
D03*
X37000Y554000D02*
D03*
X227801Y264100D02*
D03*
X246500Y100000D02*
D03*
X87271Y239302D02*
D03*
X258000Y36000D02*
D03*
X267500Y67000D02*
D03*
X265500Y151000D02*
D03*
X266000Y181000D02*
D03*
X262500Y213000D02*
D03*
X251000Y215000D02*
D03*
X70000Y503000D02*
D03*
X83500Y528000D02*
D03*
X58500Y529000D02*
D03*
X180900Y317600D02*
D03*
X196500Y241260D02*
D03*
X25340D02*
D03*
X145300D02*
D03*
X65458Y489300D02*
D03*
X105800Y436247D02*
D03*
X125400D02*
D03*
X145000Y470753D02*
D03*
X106000Y248600D02*
D03*
X160931Y257800D02*
D03*
X159000Y465200D02*
D03*
X232350Y436450D02*
D03*
X296700Y571000D02*
D03*
X272400Y531900D02*
D03*
X171800Y491700D02*
D03*
X159600Y426247D02*
D03*
X243000Y475747D02*
D03*
X271300Y166800D02*
D03*
X56500Y189100D02*
D03*
X140278Y241260D02*
D03*
X94500Y307600D02*
D03*
X220598Y300700D02*
D03*
X184400Y436247D02*
D03*
X193800Y470747D02*
D03*
X184000D02*
D03*
X96000D02*
D03*
X151000Y478488D02*
D03*
X233200Y470747D02*
D03*
X203800Y502447D02*
D03*
M02*
