G04*
G04 #@! TF.GenerationSoftware,Altium Limited,Altium Designer,22.3.1 (43)*
G04*
G04 Layer_Color=16711935*
%FSLAX25Y25*%
%MOIN*%
G70*
G04*
G04 #@! TF.SameCoordinates,ABD3340E-3DDB-4FBE-A437-06F7E2321E34*
G04*
G04*
G04 #@! TF.FilePolarity,Positive*
G04*
G01*
G75*
%ADD13C,0.00787*%
%ADD19C,0.00394*%
D13*
X362500Y511315D02*
X532578D01*
X362500Y469976D02*
Y511315D01*
Y469976D02*
X532578D01*
Y511315D01*
X362500Y424190D02*
X532578D01*
X362500Y382851D02*
Y424190D01*
Y382851D02*
X532578D01*
Y424190D01*
X362500Y337065D02*
X532578D01*
X362500Y295726D02*
Y337065D01*
Y295726D02*
X532578D01*
Y337065D01*
X362500Y249940D02*
X532578D01*
X362500Y208601D02*
Y249940D01*
Y208601D02*
X532578D01*
Y249940D01*
X362500Y162815D02*
X532578D01*
X362500Y121476D02*
Y162815D01*
Y121476D02*
X532578D01*
Y162815D01*
X227315Y47922D02*
Y218000D01*
X185976D02*
X227315D01*
X185976Y47922D02*
Y218000D01*
Y47922D02*
X227315D01*
X154315D02*
Y218000D01*
X112976D02*
X154315D01*
X112976Y47922D02*
Y218000D01*
Y47922D02*
X154315D01*
X81315D02*
Y218000D01*
X39976D02*
X81315D01*
X39976Y47922D02*
Y218000D01*
Y47922D02*
X81315D01*
D19*
X529468Y70000D02*
X529205Y70984D01*
X528484Y71705D01*
X527500Y71969D01*
X526516Y71705D01*
X525795Y70984D01*
X525531Y70000D01*
X525795Y69016D01*
X526516Y68295D01*
X527500Y68032D01*
X528484Y68295D01*
X529205Y69016D01*
X529468Y70000D01*
X510657Y73087D02*
X530343D01*
X510657Y58913D02*
X530343D01*
Y73087D01*
X510657Y58913D02*
Y73087D01*
X219189Y522346D02*
Y536913D01*
X192811Y522346D02*
Y536913D01*
X219189D01*
X192811Y522346D02*
X219189D01*
X209441Y244165D02*
X214559D01*
X209441Y232354D02*
X214559D01*
X209441D02*
Y244165D01*
X214559Y232354D02*
Y244165D01*
X137441D02*
X142559D01*
X137441Y232354D02*
X142559D01*
X137441D02*
Y244165D01*
X142559Y232354D02*
Y244165D01*
X65441D02*
X70559D01*
X65441Y232354D02*
X70559D01*
X65441D02*
Y244165D01*
X70559Y232354D02*
Y244165D01*
M02*
