M48
;Layer_Color=9474304
;FILE_FORMAT=2:5
INCH,LZ
;TYPE=PLATED
T1F00S00C0.02756
T2F00S00C0.02800
T3F00S00C0.03150
T4F00S00C0.03543
T5F00S00C0.03937
T6F00S00C0.04331
T7F00S00C0.05118
T8F00S00C0.12500
T9F00S00C0.15748
%
T01
X0468Y0055
Y0065
Y0075
T02
X048Y00125
X0496995Y0053495
X051375Y0044
X053Y0012
X0543
X0505Y006
X03545Y0077
X03305Y0072
X02875Y0092875
Y01197
Y0161583
Y0189
X0325Y0174
X0346429Y0166821
X01758Y02413
X01284Y02359
X02447Y02429
X02875Y0230292
X03184Y0224
X03508Y02432
X03367Y0281102
X03075Y02965
X02875Y0299
Y0333
X0302709Y026
X04362Y02407
X0236Y0478
X02235
X02518Y05173
X0196945Y0509701
X0201Y0478
X01845
X0151Y0478488
X00955Y0478
Y049775
X00855Y0514
X0076386Y0523799
X0063
X00705Y0502
X00555Y0501
X0049614Y0523799
X0039429Y05555
X02285Y05575
X0250413Y05415
T03
X03345Y0113413
Y01205
Y0127587
X0331Y0183413
Y01905
Y0197587
X03275Y0252913
Y026
Y0267087
X0324Y0308913
Y0316
Y0323087
X0325Y0336913
Y0344
Y0351087
X0256Y0531
X0248913
X0241827
T04
X01395Y0323
Y0333
X01495
Y0323
Y0343
Y0353
X01395
Y0343
Y0363
X01495
X0149Y05275
X0169
T05
X0571Y0053
Y0068
X05655Y0182
Y0197
Y0212
X0024Y02755
Y02905
Y03055
Y03205
Y03355
Y03505
Y03655
X05655Y0347
Y0332
Y0317
Y0302
Y0287
Y0272
Y0257
Y0242
Y0227
X0024Y03805
Y03955
Y04105
X02895Y05675
X03045
X03195
X03345
X03495
X03645
X03795
X03945
X04095
X04245
X04395
X04545
T06
X0067842Y0472
X0048157
T07
X0381815Y01105
X04015
X04515
X0491657
X0494Y0173
X0453842
X0403842
X0384157
X02465Y01675
Y0187185
Y01175
Y0077343
X0178Y0077343
Y01175
Y01675
Y0187185
X01095
Y01675
Y01175
Y0077343
X0041
Y01175
Y01675
Y0187185
X0384815Y02335
X04045
X04545
X0494657
X0492657Y0294
X04525
X04025
X0382815
T08
X0019685Y0019685
X0570866
X0019685Y0570866
X0570866
T09
X04785Y03795
X0329
Y053
X04785
M30
