G04*
G04 #@! TF.GenerationSoftware,Altium Limited,Altium Designer,22.3.1 (43)*
G04*
G04 Layer_Color=255*
%FSLAX25Y25*%
%MOIN*%
G70*
G04*
G04 #@! TF.SameCoordinates,E78762D2-B51B-4B12-9D3C-234BF7CF4557*
G04*
G04*
G04 #@! TF.FilePolarity,Positive*
G04*
G01*
G75*
%ADD15R,0.12992X0.09449*%
%ADD16R,0.07874X0.07874*%
%ADD17R,0.05512X0.04331*%
%ADD18R,0.05906X0.05512*%
%ADD19R,0.04134X0.12598*%
%ADD20R,0.41142X0.39370*%
%ADD33C,0.20000*%
%ADD34O,0.08661X0.11811*%
%ADD35R,0.07480X0.07480*%
%ADD36C,0.07480*%
%ADD37C,0.04882*%
D15*
X10000Y42500D02*
D03*
Y69862D02*
D03*
D16*
X142500Y59500D02*
D03*
X112500D02*
D03*
D17*
X150500Y13500D02*
D03*
Y7594D02*
D03*
D18*
X161500Y15937D02*
D03*
Y8063D02*
D03*
X171500Y15874D02*
D03*
Y8000D02*
D03*
D19*
X157614Y35500D02*
D03*
X164307D02*
D03*
X171000D02*
D03*
X177693D02*
D03*
X184386D02*
D03*
D20*
X171000Y76500D02*
D03*
D33*
X186220Y11000D02*
D03*
X11417Y88189D02*
D03*
D34*
X10500Y16500D02*
D03*
X40500D02*
D03*
X70500D02*
D03*
X85500D02*
D03*
X55500D02*
D03*
X25500D02*
D03*
D35*
X33500Y71500D02*
D03*
X77500Y72000D02*
D03*
D36*
X53500Y71500D02*
D03*
X97500Y72000D02*
D03*
D37*
X119000Y87000D02*
D03*
X129000D02*
D03*
X139000D02*
D03*
X111500Y32500D02*
D03*
Y22500D02*
D03*
Y12500D02*
D03*
X136000Y32500D02*
D03*
Y22500D02*
D03*
Y12500D02*
D03*
M02*
