G04*
G04 #@! TF.GenerationSoftware,Altium Limited,Altium Designer,22.3.1 (43)*
G04*
G04 Layer_Color=2752767*
%FSLAX25Y25*%
%MOIN*%
G70*
G04*
G04 #@! TF.SameCoordinates,E78762D2-B51B-4B12-9D3C-234BF7CF4557*
G04*
G04*
G04 #@! TF.FilePolarity,Positive*
G04*
G01*
G75*
%ADD41C,0.00500*%
%ADD42C,0.00667*%
D41*
X184220Y9000D02*
Y13000D01*
X188220D01*
Y9000D01*
X184220D01*
X9417Y86189D02*
Y90189D01*
X13417D01*
Y86189D01*
X9417D01*
X33500Y69500D02*
X31500Y73500D01*
X35500D01*
X33500Y69500D01*
X53500D02*
X51500Y73500D01*
X55500D01*
X53500Y69500D01*
X77500Y70000D02*
X75500Y74000D01*
X79500D01*
X77500Y70000D01*
X97500D02*
X95500Y74000D01*
X99500D01*
X97500Y70000D01*
X119000Y85000D02*
X120000Y86000D01*
X121000D01*
X120000Y87000D01*
X121000Y88000D01*
X120000D01*
X119000Y89000D01*
X118000Y88000D01*
X117000D01*
X118000Y87000D01*
X117000Y86000D01*
X118000D01*
X119000Y85000D01*
X129000D02*
X130000Y86000D01*
X131000D01*
X130000Y87000D01*
X131000Y88000D01*
X130000D01*
X129000Y89000D01*
X128000Y88000D01*
X127000D01*
X128000Y87000D01*
X127000Y86000D01*
X128000D01*
X129000Y85000D01*
X139000D02*
X140000Y86000D01*
X141000D01*
X140000Y87000D01*
X141000Y88000D01*
X140000D01*
X139000Y89000D01*
X138000Y88000D01*
X137000D01*
X138000Y87000D01*
X137000Y86000D01*
X138000D01*
X139000Y85000D01*
X111500Y30500D02*
X112500Y31500D01*
X113500D01*
X112500Y32500D01*
X113500Y33500D01*
X112500D01*
X111500Y34500D01*
X110500Y33500D01*
X109500D01*
X110500Y32500D01*
X109500Y31500D01*
X110500D01*
X111500Y30500D01*
Y20500D02*
X112500Y21500D01*
X113500D01*
X112500Y22500D01*
X113500Y23500D01*
X112500D01*
X111500Y24500D01*
X110500Y23500D01*
X109500D01*
X110500Y22500D01*
X109500Y21500D01*
X110500D01*
X111500Y20500D01*
Y10500D02*
X112500Y11500D01*
X113500D01*
X112500Y12500D01*
X113500Y13500D01*
X112500D01*
X111500Y14500D01*
X110500Y13500D01*
X109500D01*
X110500Y12500D01*
X109500Y11500D01*
X110500D01*
X111500Y10500D01*
X136000Y30500D02*
X137000Y31500D01*
X138000D01*
X137000Y32500D01*
X138000Y33500D01*
X137000D01*
X136000Y34500D01*
X135000Y33500D01*
X134000D01*
X135000Y32500D01*
X134000Y31500D01*
X135000D01*
X136000Y30500D01*
Y20500D02*
X137000Y21500D01*
X138000D01*
X137000Y22500D01*
X138000Y23500D01*
X137000D01*
X136000Y24500D01*
X135000Y23500D01*
X134000D01*
X135000Y22500D01*
X134000Y21500D01*
X135000D01*
X136000Y20500D01*
Y10500D02*
X137000Y11500D01*
X138000D01*
X137000Y12500D01*
X138000Y13500D01*
X137000D01*
X136000Y14500D01*
X135000Y13500D01*
X134000D01*
X135000Y12500D01*
X134000Y11500D01*
X135000D01*
X136000Y10500D01*
X178300Y23000D02*
X179300Y25000D01*
X178300Y27000D01*
X180300Y26000D01*
X182300Y27000D01*
X181300Y25000D01*
X182300Y23000D01*
X180300Y24000D01*
X178300Y23000D01*
X162307Y43400D02*
X163307Y45400D01*
X162307Y47400D01*
X164307Y46400D01*
X166307Y47400D01*
X165307Y45400D01*
X166307Y43400D01*
X164307Y44400D01*
X162307Y43400D01*
X122100Y45900D02*
X123100Y47900D01*
X122100Y49900D01*
X124100Y48900D01*
X126100Y49900D01*
X125100Y47900D01*
X126100Y45900D01*
X124100Y46900D01*
X122100Y45900D01*
X159500Y20200D02*
X160500Y22200D01*
X159500Y24200D01*
X161500Y23200D01*
X163500Y24200D01*
X162500Y22200D01*
X163500Y20200D01*
X161500Y21200D01*
X159500Y20200D01*
X147700Y24800D02*
X148700Y26800D01*
X147700Y28800D01*
X149700Y27800D01*
X151700Y28800D01*
X150700Y26800D01*
X151700Y24800D01*
X149700Y25800D01*
X147700Y24800D01*
D42*
X12500Y16500D02*
X12271Y17429D01*
X11636Y18146D01*
X10741Y18485D01*
X9791Y18370D01*
X9003Y17826D01*
X8558Y16979D01*
Y16021D01*
X9003Y15174D01*
X9791Y14630D01*
X10741Y14515D01*
X11636Y14854D01*
X12271Y15571D01*
X12500Y16500D01*
X42500D02*
X42271Y17429D01*
X41636Y18146D01*
X40741Y18485D01*
X39791Y18370D01*
X39003Y17826D01*
X38558Y16979D01*
Y16021D01*
X39003Y15174D01*
X39791Y14630D01*
X40741Y14515D01*
X41636Y14854D01*
X42271Y15571D01*
X42500Y16500D01*
X72500D02*
X72271Y17429D01*
X71636Y18146D01*
X70741Y18485D01*
X69791Y18370D01*
X69003Y17826D01*
X68558Y16979D01*
Y16021D01*
X69003Y15174D01*
X69791Y14630D01*
X70741Y14515D01*
X71636Y14854D01*
X72271Y15571D01*
X72500Y16500D01*
X87500D02*
X87271Y17429D01*
X86636Y18146D01*
X85741Y18485D01*
X84791Y18370D01*
X84003Y17826D01*
X83558Y16979D01*
Y16021D01*
X84003Y15174D01*
X84791Y14630D01*
X85741Y14515D01*
X86636Y14854D01*
X87271Y15571D01*
X87500Y16500D01*
X57500D02*
X57271Y17429D01*
X56636Y18146D01*
X55741Y18485D01*
X54791Y18370D01*
X54003Y17826D01*
X53558Y16979D01*
Y16021D01*
X54003Y15174D01*
X54791Y14630D01*
X55741Y14515D01*
X56636Y14854D01*
X57271Y15571D01*
X57500Y16500D01*
X27500D02*
X27271Y17429D01*
X26636Y18146D01*
X25741Y18485D01*
X24791Y18370D01*
X24003Y17826D01*
X23558Y16979D01*
Y16021D01*
X24003Y15174D01*
X24791Y14630D01*
X25741Y14515D01*
X26636Y14854D01*
X27271Y15571D01*
X27500Y16500D01*
M02*
