G04*
G04 #@! TF.GenerationSoftware,Altium Limited,Altium Designer,22.3.1 (43)*
G04*
G04 Layer_Physical_Order=2*
G04 Layer_Color=16711680*
%FSLAX25Y25*%
%MOIN*%
G70*
G04*
G04 #@! TF.SameCoordinates,E78762D2-B51B-4B12-9D3C-234BF7CF4557*
G04*
G04*
G04 #@! TF.FilePolarity,Positive*
G04*
G01*
G75*
%ADD12C,0.01500*%
%ADD33C,0.20000*%
%ADD34O,0.08661X0.11811*%
%ADD35R,0.07480X0.07480*%
%ADD36C,0.07480*%
%ADD37C,0.04882*%
%ADD38C,0.05000*%
D12*
X40500Y10300D02*
Y16500D01*
Y10050D02*
Y10300D01*
X53500Y71500D02*
X60400Y78400D01*
X91100D01*
X97500Y72000D01*
X70500Y10050D02*
Y10500D01*
X68750Y8300D02*
X70500Y10050D01*
X42500Y8300D02*
X68750D01*
X40500Y10300D02*
X42500Y8300D01*
X96900Y7900D02*
X111500Y22500D01*
X73100Y7900D02*
X96900D01*
X70500Y10500D02*
X73100Y7900D01*
X70500Y10500D02*
Y16500D01*
X38750Y8300D02*
X40500Y10050D01*
X12500Y8300D02*
X38750D01*
X10500Y10300D02*
X12500Y8300D01*
X10500Y10300D02*
Y16500D01*
X180300Y25000D02*
Y45700D01*
X139000Y87000D02*
X180300Y45700D01*
X161807Y47900D02*
X164307Y45400D01*
X124100Y47900D02*
X161807D01*
X127300Y41200D02*
X136000Y32500D01*
X63800Y41200D02*
X127300D01*
X33500Y71500D02*
X63800Y41200D01*
X111500Y32500D02*
X126000D01*
X136000Y22500D01*
X119000Y87000D02*
X155100Y50900D01*
X166200D01*
X169100Y48000D01*
Y29800D02*
Y48000D01*
X161500Y22200D02*
X169100Y29800D01*
X140700Y17800D02*
X149700Y26800D01*
X124700Y17800D02*
X140700D01*
X115000Y27500D02*
X124700Y17800D01*
X86100Y27500D02*
X115000D01*
X85500Y26900D02*
X86100Y27500D01*
X85500Y16500D02*
Y26900D01*
X25500Y16500D02*
Y23000D01*
X35000Y32500D01*
X111500D01*
X129000Y87000D02*
X139000D01*
D33*
X186220Y11000D02*
D03*
X11417Y88189D02*
D03*
D34*
X10500Y16500D02*
D03*
X40500D02*
D03*
X70500D02*
D03*
X85500D02*
D03*
X55500D02*
D03*
X25500D02*
D03*
D35*
X33500Y71500D02*
D03*
X77500Y72000D02*
D03*
D36*
X53500Y71500D02*
D03*
X97500Y72000D02*
D03*
D37*
X119000Y87000D02*
D03*
X129000D02*
D03*
X139000D02*
D03*
X111500Y32500D02*
D03*
Y22500D02*
D03*
Y12500D02*
D03*
X136000Y32500D02*
D03*
Y22500D02*
D03*
Y12500D02*
D03*
D38*
X180300Y25000D02*
D03*
X164307Y45400D02*
D03*
X124100Y47900D02*
D03*
X161500Y22200D02*
D03*
X149700Y26800D02*
D03*
M02*
