G04*
G04 #@! TF.GenerationSoftware,Altium Limited,Altium Designer,22.3.1 (43)*
G04*
G04 Layer_Color=32896*
%FSLAX25Y25*%
%MOIN*%
G70*
G04*
G04 #@! TF.SameCoordinates,E78762D2-B51B-4B12-9D3C-234BF7CF4557*
G04*
G04*
G04 #@! TF.FilePolarity,Positive*
G04*
G01*
G75*
%ADD10C,0.01000*%
G36*
X67809Y43619D02*
X67801Y43550D01*
X67795Y43483D01*
X67792Y43428D01*
X67790Y43403D01*
Y43381D01*
Y43361D01*
Y43342D01*
Y43331D01*
Y43320D01*
Y43314D01*
Y43312D01*
Y42012D01*
Y41949D01*
X67792Y41885D01*
X67798Y41821D01*
X67804Y41766D01*
X67812Y41719D01*
X67815Y41697D01*
X67817Y41680D01*
X67820Y41666D01*
Y41655D01*
X67823Y41649D01*
Y41647D01*
X67729Y41661D01*
X67637Y41669D01*
X67554Y41675D01*
X67515Y41677D01*
X67479D01*
X67446Y41680D01*
X67330D01*
X67391Y41569D01*
X67457Y41464D01*
X67527Y41367D01*
X67596Y41278D01*
X67668Y41195D01*
X67737Y41118D01*
X67806Y41048D01*
X67873Y40988D01*
X67936Y40932D01*
X67995Y40882D01*
X68047Y40843D01*
X68092Y40810D01*
X68128Y40782D01*
X68155Y40763D01*
X68166Y40758D01*
X68175Y40752D01*
X68177Y40749D01*
X68180D01*
X68092Y40722D01*
X68050Y40705D01*
X68014Y40688D01*
X67978Y40672D01*
X67945Y40655D01*
X67917Y40639D01*
X67889Y40622D01*
X67867Y40605D01*
X67848Y40591D01*
X67829Y40578D01*
X67815Y40566D01*
X67804Y40558D01*
X67795Y40550D01*
X67792Y40547D01*
X67790Y40544D01*
X67721Y40616D01*
X67659Y40683D01*
X67607Y40741D01*
X67563Y40794D01*
X67527Y40832D01*
X67513Y40852D01*
X67502Y40866D01*
X67493Y40877D01*
X67488Y40885D01*
X67482Y40888D01*
Y40890D01*
X66997D01*
X67039Y40816D01*
X67081Y40747D01*
X67125Y40680D01*
X67169Y40613D01*
X67214Y40553D01*
X67258Y40492D01*
X67352Y40384D01*
X67444Y40284D01*
X67538Y40192D01*
X67626Y40115D01*
X67712Y40046D01*
X67792Y39985D01*
X67867Y39932D01*
X67934Y39891D01*
X67992Y39857D01*
X68017Y39843D01*
X68039Y39832D01*
X68058Y39821D01*
X68075Y39813D01*
X68089Y39808D01*
X68097Y39802D01*
X68103Y39799D01*
X68106D01*
X68061Y39785D01*
X68017Y39772D01*
X67939Y39733D01*
X67873Y39691D01*
X67845Y39672D01*
X67817Y39650D01*
X67795Y39630D01*
X67773Y39611D01*
X67756Y39594D01*
X67740Y39580D01*
X67729Y39566D01*
X67721Y39558D01*
X67718Y39553D01*
X67715Y39550D01*
X67582Y39674D01*
X67460Y39799D01*
X67349Y39921D01*
X67247Y40040D01*
X67153Y40156D01*
X67067Y40267D01*
X66992Y40373D01*
X66926Y40470D01*
X66867Y40561D01*
X66817Y40641D01*
X66776Y40713D01*
X66756Y40747D01*
X66740Y40774D01*
X66726Y40802D01*
X66715Y40824D01*
X66704Y40843D01*
X66696Y40860D01*
X66690Y40874D01*
X66685Y40882D01*
X66682Y40888D01*
Y40890D01*
X66272D01*
X66311Y40749D01*
X66358Y40616D01*
X66408Y40486D01*
X66460Y40364D01*
X66521Y40248D01*
X66582Y40137D01*
X66649Y40032D01*
X66718Y39932D01*
X66787Y39838D01*
X66859Y39749D01*
X66934Y39666D01*
X67009Y39589D01*
X67086Y39514D01*
X67161Y39447D01*
X67238Y39384D01*
X67313Y39323D01*
X67385Y39270D01*
X67457Y39220D01*
X67529Y39173D01*
X67596Y39132D01*
X67662Y39093D01*
X67723Y39060D01*
X67781Y39029D01*
X67834Y39004D01*
X67884Y38979D01*
X67928Y38960D01*
X67964Y38946D01*
X67997Y38932D01*
X68022Y38921D01*
X68042Y38916D01*
X68056Y38913D01*
X68058Y38910D01*
X68011Y38893D01*
X67967Y38877D01*
X67926Y38855D01*
X67887Y38835D01*
X67853Y38813D01*
X67823Y38791D01*
X67792Y38769D01*
X67768Y38747D01*
X67745Y38724D01*
X67729Y38705D01*
X67712Y38688D01*
X67698Y38672D01*
X67690Y38658D01*
X67682Y38650D01*
X67676Y38644D01*
Y38641D01*
X67546Y38716D01*
X67421Y38794D01*
X67302Y38874D01*
X67189Y38957D01*
X67083Y39046D01*
X66984Y39134D01*
X66890Y39226D01*
X66801Y39317D01*
X66720Y39409D01*
X66643Y39503D01*
X66571Y39597D01*
X66502Y39691D01*
X66441Y39783D01*
X66383Y39874D01*
X66330Y39965D01*
X66280Y40054D01*
X66236Y40140D01*
X66197Y40223D01*
X66161Y40303D01*
X66128Y40381D01*
X66097Y40456D01*
X66072Y40522D01*
X66050Y40589D01*
X66031Y40647D01*
X66014Y40702D01*
X66000Y40749D01*
X65987Y40791D01*
X65978Y40827D01*
X65973Y40854D01*
X65967Y40874D01*
X65964Y40885D01*
Y40890D01*
X65574D01*
X65654Y39375D01*
X65657Y39331D01*
X65662Y39290D01*
X65671Y39254D01*
X65682Y39220D01*
X65696Y39193D01*
X65710Y39168D01*
X65726Y39145D01*
X65743Y39129D01*
X65756Y39112D01*
X65773Y39101D01*
X65801Y39082D01*
X65809Y39076D01*
X65817Y39073D01*
X65823Y39071D01*
X65826D01*
X65854Y39062D01*
X65884Y39057D01*
X65914Y39051D01*
X65948Y39048D01*
X65975D01*
X65997Y39046D01*
X66020D01*
X66089Y39048D01*
X66164Y39054D01*
X66238Y39060D01*
X66308Y39068D01*
X66341Y39073D01*
X66369Y39076D01*
X66396Y39079D01*
X66419Y39085D01*
X66438Y39087D01*
X66452D01*
X66460Y39090D01*
X66463D01*
X66432Y39048D01*
X66408Y39010D01*
X66385Y38968D01*
X66363Y38932D01*
X66330Y38860D01*
X66305Y38794D01*
X66297Y38766D01*
X66288Y38741D01*
X66283Y38719D01*
X66277Y38699D01*
X66274Y38683D01*
Y38672D01*
X66272Y38666D01*
Y38664D01*
X66211Y38669D01*
X66153Y38677D01*
X66097Y38686D01*
X66045Y38694D01*
X65995Y38699D01*
X65948Y38708D01*
X65906Y38716D01*
X65865Y38727D01*
X65793Y38744D01*
X65729Y38760D01*
X65673Y38780D01*
X65629Y38796D01*
X65590Y38813D01*
X65563Y38827D01*
X65538Y38841D01*
X65521Y38855D01*
X65507Y38863D01*
X65499Y38871D01*
X65493Y38874D01*
Y38877D01*
X65479Y38888D01*
X65466Y38902D01*
X65441Y38938D01*
X65421Y38982D01*
X65402Y39032D01*
X65385Y39087D01*
X65372Y39148D01*
X65352Y39270D01*
X65344Y39328D01*
X65338Y39386D01*
X65336Y39439D01*
X65330Y39486D01*
Y39525D01*
X65327Y39555D01*
Y39566D01*
Y39575D01*
Y39578D01*
Y39580D01*
X65263Y40907D01*
X65261Y40965D01*
X65255Y41021D01*
X65250Y41073D01*
X65244Y41118D01*
X65238Y41157D01*
X65236Y41184D01*
X65233Y41195D01*
X65230Y41204D01*
Y41206D01*
Y41209D01*
X65324Y41195D01*
X65408Y41187D01*
X65485Y41181D01*
X65518Y41179D01*
X65549D01*
X65579Y41176D01*
X67263D01*
X67230Y41217D01*
X67203Y41256D01*
X67177Y41292D01*
X67153Y41325D01*
X67136Y41350D01*
X67122Y41372D01*
X67114Y41384D01*
X67111Y41389D01*
X67097Y41403D01*
X67081Y41417D01*
X67045Y41436D01*
X67028Y41445D01*
X67014Y41450D01*
X67006Y41456D01*
X67003D01*
X66978Y41464D01*
X66959Y41475D01*
X66948Y41483D01*
X66937Y41492D01*
X66931Y41497D01*
X66928Y41503D01*
Y41508D01*
Y41517D01*
X66937Y41528D01*
X66945Y41536D01*
X66959Y41547D01*
X66970Y41553D01*
X66981Y41561D01*
X66989Y41564D01*
X66992Y41566D01*
X67197Y41680D01*
X65873D01*
X65806Y41677D01*
X65740Y41672D01*
X65679Y41666D01*
X65651Y41663D01*
X65624Y41658D01*
X65601Y41655D01*
X65582Y41652D01*
X65565Y41649D01*
X65554D01*
X65546Y41647D01*
X65543D01*
X65557Y41721D01*
X65565Y41794D01*
X65574Y41863D01*
X65576Y41924D01*
X65579Y41951D01*
Y41974D01*
Y41996D01*
Y42015D01*
Y42029D01*
Y42040D01*
Y42046D01*
Y42048D01*
Y43317D01*
Y43386D01*
X65576Y43453D01*
X65571Y43516D01*
X65563Y43572D01*
X65557Y43622D01*
X65552Y43641D01*
X65549Y43658D01*
X65546Y43672D01*
Y43683D01*
X65543Y43688D01*
Y43691D01*
X65618Y43677D01*
X65687Y43669D01*
X65756Y43663D01*
X65817Y43661D01*
X65842Y43658D01*
X67496D01*
X67565Y43661D01*
X67632Y43666D01*
X67693Y43672D01*
X67721Y43677D01*
X67745Y43680D01*
X67768Y43683D01*
X67787Y43685D01*
X67801Y43688D01*
X67812D01*
X67820Y43691D01*
X67823D01*
X67809Y43619D01*
D02*
G37*
G36*
X41405Y43616D02*
X41400Y43564D01*
X41394Y43516D01*
X41389Y43472D01*
X41386Y43431D01*
X41383Y43392D01*
X41381Y43356D01*
Y43325D01*
X41378Y43298D01*
Y43273D01*
X41375Y43251D01*
Y43234D01*
Y43220D01*
Y43212D01*
Y43206D01*
Y43203D01*
Y42331D01*
X41378Y42253D01*
X41381Y42179D01*
X41386Y42104D01*
X41392Y42037D01*
X41397Y42007D01*
X41400Y41979D01*
X41403Y41954D01*
X41405Y41932D01*
X41408Y41915D01*
Y41904D01*
X41411Y41896D01*
Y41893D01*
X41314Y41904D01*
X41225Y41913D01*
X41148Y41918D01*
X41112Y41921D01*
X41079Y41924D01*
X41023D01*
X41001Y41927D01*
X40586D01*
Y39555D01*
X40624Y39542D01*
X40663Y39528D01*
X40749Y39497D01*
X40835Y39467D01*
X40918Y39439D01*
X40954Y39425D01*
X40990Y39414D01*
X41020Y39403D01*
X41048Y39395D01*
X41070Y39386D01*
X41087Y39381D01*
X41098Y39375D01*
X41101D01*
Y40835D01*
Y40882D01*
X41098Y40924D01*
X41093Y40963D01*
X41087Y40999D01*
X41079Y41032D01*
X41067Y41062D01*
X41059Y41090D01*
X41048Y41115D01*
X41037Y41134D01*
X41026Y41154D01*
X41018Y41170D01*
X41007Y41181D01*
X41001Y41192D01*
X40995Y41198D01*
X40990Y41204D01*
X40971Y41223D01*
X40960Y41242D01*
X40948Y41256D01*
X40943Y41267D01*
X40940Y41284D01*
Y41289D01*
X40946Y41298D01*
X40954Y41306D01*
X40979Y41317D01*
X40990Y41320D01*
X41001Y41323D01*
X41012D01*
X41444Y41384D01*
X41433Y41270D01*
X41428Y41215D01*
X41425Y41165D01*
X41422Y41115D01*
X41419Y41071D01*
X41417Y41029D01*
X41414Y40990D01*
Y40954D01*
Y40924D01*
X41411Y40899D01*
Y40877D01*
Y40857D01*
Y40846D01*
Y40838D01*
Y40835D01*
Y39278D01*
X41464Y39265D01*
X41513Y39251D01*
X41563Y39240D01*
X41605Y39228D01*
X41644Y39217D01*
X41671Y39209D01*
X41682Y39206D01*
X41691D01*
X41693Y39204D01*
X41696D01*
X41455Y38819D01*
X41408Y38844D01*
X41356Y38871D01*
X41297Y38902D01*
X41234Y38932D01*
X41164Y38963D01*
X41095Y38993D01*
X41018Y39026D01*
X40940Y39060D01*
X40780Y39126D01*
X40611Y39193D01*
X40439Y39259D01*
X40270Y39323D01*
X40106Y39384D01*
X40026Y39414D01*
X39951Y39442D01*
X39879Y39467D01*
X39810Y39492D01*
X39746Y39517D01*
X39685Y39536D01*
X39630Y39555D01*
X39583Y39575D01*
X39538Y39589D01*
X39503Y39603D01*
X39475Y39611D01*
X39453Y39619D01*
X39441Y39622D01*
X39436Y39625D01*
X39406Y40015D01*
X39469Y39985D01*
X39538Y39954D01*
X39680Y39893D01*
X39824Y39835D01*
X39893Y39808D01*
X39959Y39783D01*
X40020Y39758D01*
X40079Y39735D01*
X40131Y39716D01*
X40176Y39699D01*
X40212Y39688D01*
X40239Y39677D01*
X40248Y39674D01*
X40256Y39672D01*
X40259Y39669D01*
X40262D01*
Y40824D01*
X39904D01*
X39827Y40819D01*
X39749Y40813D01*
X39674Y40807D01*
X39641Y40805D01*
X39610Y40802D01*
X39586Y40799D01*
X39561Y40796D01*
X39541Y40794D01*
X39527D01*
X39519Y40791D01*
X39516D01*
Y41148D01*
X39616Y41134D01*
X39707Y41126D01*
X39749Y41123D01*
X39788Y41120D01*
X39821Y41118D01*
X39854Y41115D01*
X40262D01*
Y41927D01*
X39937D01*
X39865Y41921D01*
X39793Y41915D01*
X39724Y41910D01*
X39694Y41907D01*
X39663Y41904D01*
X39638Y41902D01*
X39616Y41899D01*
X39597Y41896D01*
X39583D01*
X39575Y41893D01*
X39572D01*
X39583Y41987D01*
X39591Y42073D01*
X39597Y42112D01*
X39599Y42148D01*
X39602Y42181D01*
Y42212D01*
X39605Y42237D01*
Y42262D01*
X39608Y42284D01*
Y42301D01*
Y42314D01*
Y42323D01*
Y42328D01*
Y42331D01*
Y43203D01*
Y43234D01*
Y43270D01*
X39605Y43342D01*
X39599Y43420D01*
X39591Y43494D01*
X39588Y43530D01*
X39586Y43564D01*
X39580Y43594D01*
X39577Y43619D01*
X39575Y43638D01*
Y43655D01*
X39572Y43666D01*
Y43669D01*
X39666Y43655D01*
X39752Y43647D01*
X39827Y43641D01*
X39860Y43638D01*
X39893Y43636D01*
X40951D01*
X41032Y43638D01*
X41112Y43641D01*
X41189Y43647D01*
X41261Y43652D01*
X41292Y43655D01*
X41322Y43658D01*
X41347Y43661D01*
X41370Y43663D01*
X41386Y43666D01*
X41400Y43669D01*
X41411D01*
X41405Y43616D01*
D02*
G37*
G36*
X39118Y43583D02*
X39112Y43525D01*
X39106Y43472D01*
X39104Y43422D01*
X39101Y43378D01*
X39098Y43334D01*
X39095Y43295D01*
X39092Y43259D01*
Y43228D01*
Y43201D01*
X39090Y43176D01*
Y43156D01*
Y43140D01*
Y43129D01*
Y43123D01*
Y43120D01*
Y39403D01*
Y39317D01*
X39095Y39228D01*
X39101Y39140D01*
X39106Y39057D01*
X39109Y39021D01*
X39112Y38985D01*
X39115Y38954D01*
X39118Y38929D01*
X39120Y38907D01*
Y38891D01*
X39123Y38879D01*
Y38877D01*
X39007Y38888D01*
X38951Y38893D01*
X38899Y38896D01*
X38849Y38899D01*
X38804Y38902D01*
X38760Y38905D01*
X38721Y38907D01*
X38655D01*
X38627Y38910D01*
X36882D01*
X36805Y38907D01*
X36727Y38902D01*
X36652Y38896D01*
X36619Y38893D01*
X36588Y38888D01*
X36561Y38885D01*
X36536Y38882D01*
X36516Y38879D01*
X36500D01*
X36492Y38877D01*
X36489D01*
Y39231D01*
X36588Y39217D01*
X36636Y39212D01*
X36680Y39209D01*
X36721Y39204D01*
X36760Y39201D01*
X36796D01*
X36827Y39198D01*
X36857Y39195D01*
X38771D01*
Y40375D01*
X37300D01*
X37209Y40373D01*
X37123Y40367D01*
X37082Y40364D01*
X37043Y40361D01*
X37007Y40359D01*
X36974Y40353D01*
X36946Y40350D01*
X36921Y40348D01*
X36901Y40345D01*
X36885D01*
X36876Y40342D01*
X36874D01*
X36879Y40400D01*
X36885Y40456D01*
X36890Y40508D01*
X36893Y40558D01*
X36899Y40605D01*
X36901Y40647D01*
X36904Y40686D01*
Y40722D01*
X36907Y40755D01*
Y40782D01*
X36910Y40807D01*
Y40827D01*
Y40843D01*
Y40854D01*
Y40860D01*
Y40863D01*
Y41721D01*
X36907Y41799D01*
X36904Y41879D01*
X36899Y41963D01*
X36890Y42040D01*
X36888Y42076D01*
X36885Y42109D01*
X36882Y42140D01*
X36879Y42165D01*
X36876Y42187D01*
Y42201D01*
X36874Y42212D01*
Y42215D01*
X36982Y42204D01*
X37082Y42195D01*
X37126Y42190D01*
X37170Y42187D01*
X37212Y42184D01*
X37248D01*
X37284Y42181D01*
X37311D01*
X37339Y42179D01*
X38771D01*
Y43317D01*
X37018D01*
X36940Y43314D01*
X36863Y43309D01*
X36788Y43303D01*
X36755Y43300D01*
X36721Y43295D01*
X36694Y43292D01*
X36669Y43289D01*
X36649Y43287D01*
X36636D01*
X36625Y43284D01*
X36622D01*
Y43641D01*
X36719Y43627D01*
X36810Y43616D01*
X36852Y43613D01*
X36890Y43611D01*
X36924Y43608D01*
X36957Y43605D01*
X36987D01*
X37012Y43602D01*
X38647D01*
X38724Y43605D01*
X38804Y43608D01*
X38885Y43613D01*
X38960Y43622D01*
X38993Y43624D01*
X39023Y43630D01*
X39051Y43633D01*
X39076Y43636D01*
X39095Y43638D01*
X39109D01*
X39120Y43641D01*
X39123D01*
X39118Y43583D01*
D02*
G37*
G36*
X75432Y43156D02*
X75355Y43170D01*
X75285Y43179D01*
X75227Y43187D01*
X75174Y43190D01*
X75133Y43192D01*
X73831D01*
X73837Y43048D01*
X73845Y42910D01*
X73851Y42780D01*
X73859Y42655D01*
X73870Y42539D01*
X73878Y42431D01*
X73887Y42331D01*
X73898Y42242D01*
X73906Y42159D01*
X73914Y42090D01*
X73922Y42026D01*
X73928Y41976D01*
X73931Y41954D01*
X73934Y41935D01*
X73936Y41918D01*
X73939Y41907D01*
Y41896D01*
X73942Y41888D01*
Y41885D01*
Y41882D01*
X75626D01*
X75687Y41885D01*
X75745Y41890D01*
X75798Y41896D01*
X75842Y41904D01*
X75862Y41907D01*
X75878Y41910D01*
X75889Y41913D01*
X75900D01*
X75906Y41915D01*
X75909D01*
Y41547D01*
X75831Y41561D01*
X75762Y41569D01*
X75698Y41578D01*
X75643Y41580D01*
X75621Y41583D01*
X73992D01*
X74044Y41406D01*
X74100Y41237D01*
X74164Y41076D01*
X74230Y40924D01*
X74299Y40777D01*
X74374Y40639D01*
X74449Y40508D01*
X74529Y40386D01*
X74610Y40267D01*
X74693Y40159D01*
X74776Y40054D01*
X74859Y39957D01*
X74945Y39868D01*
X75028Y39783D01*
X75111Y39705D01*
X75194Y39633D01*
X75274Y39564D01*
X75355Y39503D01*
X75432Y39447D01*
X75504Y39397D01*
X75576Y39350D01*
X75643Y39309D01*
X75704Y39273D01*
X75762Y39240D01*
X75814Y39215D01*
X75862Y39190D01*
X75903Y39170D01*
X75939Y39156D01*
X75967Y39143D01*
X75986Y39134D01*
X75997Y39132D01*
X76003Y39129D01*
X75964Y39104D01*
X75925Y39079D01*
X75859Y39021D01*
X75801Y38960D01*
X75753Y38902D01*
X75715Y38849D01*
X75701Y38827D01*
X75690Y38805D01*
X75679Y38788D01*
X75673Y38777D01*
X75668Y38769D01*
Y38766D01*
X75510Y38871D01*
X75360Y38976D01*
X75219Y39087D01*
X75086Y39201D01*
X74958Y39314D01*
X74839Y39431D01*
X74729Y39547D01*
X74623Y39666D01*
X74524Y39783D01*
X74432Y39902D01*
X74349Y40018D01*
X74269Y40137D01*
X74194Y40251D01*
X74128Y40364D01*
X74064Y40475D01*
X74008Y40583D01*
X73956Y40688D01*
X73909Y40788D01*
X73867Y40885D01*
X73828Y40979D01*
X73795Y41068D01*
X73765Y41148D01*
X73740Y41226D01*
X73717Y41295D01*
X73698Y41359D01*
X73681Y41417D01*
X73668Y41467D01*
X73659Y41506D01*
X73651Y41539D01*
X73646Y41564D01*
X73643Y41578D01*
Y41583D01*
X73355D01*
Y39375D01*
Y39320D01*
X73352Y39273D01*
X73344Y39228D01*
X73333Y39190D01*
X73321Y39154D01*
X73305Y39123D01*
X73288Y39096D01*
X73272Y39073D01*
X73252Y39054D01*
X73235Y39040D01*
X73219Y39026D01*
X73205Y39018D01*
X73191Y39010D01*
X73183Y39004D01*
X73177Y39001D01*
X73175D01*
X73158Y38993D01*
X73136Y38985D01*
X73089Y38971D01*
X73031Y38960D01*
X72967Y38949D01*
X72898Y38941D01*
X72826Y38935D01*
X72679Y38924D01*
X72610Y38921D01*
X72540Y38918D01*
X72479D01*
X72427Y38916D01*
X72175D01*
X72114Y38918D01*
X72056Y38921D01*
X72003D01*
X71953Y38924D01*
X71912Y38927D01*
X71873Y38929D01*
X71837Y38932D01*
X71809Y38935D01*
X71784Y38938D01*
X71765D01*
X71748Y38941D01*
X71737Y38943D01*
X71729D01*
X71657Y38957D01*
X71593Y38974D01*
X71538Y38993D01*
X71493Y39010D01*
X71454Y39026D01*
X71430Y39040D01*
X71413Y39051D01*
X71407Y39054D01*
X71366Y39082D01*
X71324Y39118D01*
X71288Y39162D01*
X71250Y39215D01*
X71213Y39270D01*
X71180Y39328D01*
X71122Y39450D01*
X71097Y39511D01*
X71072Y39566D01*
X71053Y39619D01*
X71036Y39663D01*
X71022Y39702D01*
X71014Y39733D01*
X71011Y39744D01*
X71008Y39752D01*
X71006Y39755D01*
Y39758D01*
X71044Y39763D01*
X71080Y39774D01*
X71117Y39788D01*
X71153Y39805D01*
X71216Y39843D01*
X71272Y39888D01*
X71294Y39907D01*
X71316Y39929D01*
X71335Y39946D01*
X71349Y39965D01*
X71363Y39979D01*
X71371Y39990D01*
X71377Y39996D01*
X71380Y39999D01*
X71396Y39902D01*
X71413Y39813D01*
X71432Y39735D01*
X71452Y39666D01*
X71471Y39608D01*
X71490Y39555D01*
X71510Y39511D01*
X71526Y39472D01*
X71543Y39442D01*
X71560Y39417D01*
X71574Y39397D01*
X71585Y39381D01*
X71596Y39370D01*
X71604Y39364D01*
X71607Y39359D01*
X71610D01*
X71637Y39337D01*
X71673Y39320D01*
X71715Y39303D01*
X71765Y39290D01*
X71817Y39278D01*
X71876Y39270D01*
X71992Y39259D01*
X72047Y39254D01*
X72100Y39251D01*
X72150Y39248D01*
X72460D01*
X72535Y39251D01*
X72601Y39254D01*
X72659Y39256D01*
X72712Y39262D01*
X72754Y39265D01*
X72792Y39270D01*
X72823Y39273D01*
X72848Y39278D01*
X72867Y39284D01*
X72884Y39287D01*
X72892Y39290D01*
X72900Y39292D01*
X72906Y39295D01*
X72928Y39303D01*
X72948Y39317D01*
X72964Y39331D01*
X72978Y39350D01*
X72997Y39392D01*
X73011Y39436D01*
X73019Y39478D01*
Y39497D01*
X73022Y39514D01*
Y39531D01*
Y39542D01*
Y39547D01*
Y39550D01*
Y41583D01*
X71346D01*
X71285Y41580D01*
X71224Y41575D01*
X71166Y41566D01*
X71119Y41561D01*
X71097Y41555D01*
X71080Y41553D01*
X71064Y41550D01*
X71053D01*
X71047Y41547D01*
X71044D01*
Y41915D01*
X71117Y41902D01*
X71186Y41893D01*
X71247Y41888D01*
X71299Y41885D01*
X71341Y41882D01*
X73590D01*
X73576Y41987D01*
X73562Y42098D01*
X73540Y42323D01*
X73532Y42433D01*
X73524Y42542D01*
X73518Y42647D01*
X73513Y42746D01*
X73507Y42841D01*
X73501Y42924D01*
X73499Y43001D01*
Y43034D01*
X73496Y43065D01*
Y43095D01*
Y43120D01*
X73493Y43140D01*
Y43159D01*
Y43173D01*
Y43184D01*
Y43190D01*
Y43192D01*
X71770D01*
X71709Y43190D01*
X71651Y43184D01*
X71599Y43176D01*
X71551Y43170D01*
X71535Y43165D01*
X71518Y43162D01*
X71504Y43159D01*
X71496D01*
X71490Y43156D01*
X71488D01*
Y43525D01*
X71560Y43511D01*
X71626Y43503D01*
X71687Y43494D01*
X71740Y43492D01*
X71784Y43489D01*
X75147D01*
X75211Y43492D01*
X75269Y43497D01*
X75321Y43505D01*
X75366Y43511D01*
X75385Y43516D01*
X75402Y43519D01*
X75415Y43522D01*
X75424D01*
X75429Y43525D01*
X75432D01*
Y43156D01*
D02*
G37*
G36*
X23713D02*
X23608Y43167D01*
X23511Y43179D01*
X23467Y43181D01*
X23425Y43184D01*
X23387Y43187D01*
X23348D01*
X23317Y43190D01*
X23287D01*
X23262Y43192D01*
X20456D01*
X20367Y43190D01*
X20279Y43187D01*
X20196Y43181D01*
X20118Y43176D01*
X20085Y43170D01*
X20054Y43167D01*
X20027Y43165D01*
X20002Y43162D01*
X19982Y43159D01*
X19968D01*
X19960Y43156D01*
X19957D01*
Y43525D01*
X20049Y43514D01*
X20140Y43505D01*
X20223Y43497D01*
X20262Y43494D01*
X20298D01*
X20334Y43492D01*
X20362D01*
X20390Y43489D01*
X23201D01*
X23287Y43492D01*
X23373Y43494D01*
X23459Y43500D01*
X23539Y43508D01*
X23575Y43511D01*
X23608Y43514D01*
X23639Y43516D01*
X23664Y43519D01*
X23686Y43522D01*
X23700D01*
X23711Y43525D01*
X23713D01*
Y43156D01*
D02*
G37*
G36*
X33846Y43782D02*
X33760Y43741D01*
X33674Y43697D01*
X33594Y43652D01*
X33516Y43608D01*
X33444Y43566D01*
X33375Y43525D01*
X33312Y43483D01*
X33253Y43447D01*
X33201Y43411D01*
X33154Y43378D01*
X33112Y43350D01*
X33079Y43325D01*
X33051Y43306D01*
X33032Y43292D01*
X33018Y43281D01*
X33015Y43278D01*
X35342D01*
X35417Y43281D01*
X35494Y43287D01*
X35572Y43292D01*
X35644Y43298D01*
X35680Y43300D01*
X35710Y43303D01*
X35738Y43306D01*
X35760D01*
X35780Y43309D01*
X35796Y43312D01*
X35807D01*
Y42968D01*
X35708Y42976D01*
X35619Y42985D01*
X35577Y42987D01*
X35539Y42990D01*
X35503Y42993D01*
X35469Y42996D01*
X35442D01*
X35417Y42998D01*
X35395D01*
X35375Y43001D01*
X31281D01*
X31204Y42998D01*
X31123Y42993D01*
X31046Y42987D01*
X30976Y42982D01*
X30943Y42979D01*
X30913Y42976D01*
X30888Y42974D01*
X30866D01*
X30846Y42971D01*
X30832Y42968D01*
X30821D01*
Y43312D01*
X30910Y43303D01*
X30996Y43295D01*
X31073Y43289D01*
X31109Y43287D01*
X31143Y43284D01*
X31173D01*
X31198Y43281D01*
X31242D01*
X31259Y43278D01*
X32974D01*
X32757Y43541D01*
X32907Y43636D01*
X33057Y43724D01*
X33132Y43769D01*
X33204Y43807D01*
X33270Y43846D01*
X33336Y43882D01*
X33397Y43915D01*
X33450Y43946D01*
X33500Y43971D01*
X33541Y43993D01*
X33575Y44010D01*
X33600Y44023D01*
X33616Y44032D01*
X33619Y44034D01*
X33622D01*
X33846Y43782D01*
D02*
G37*
G36*
X57926Y43735D02*
X57859Y43677D01*
X57798Y43622D01*
X57737Y43569D01*
X57682Y43516D01*
X57632Y43467D01*
X57585Y43420D01*
X57541Y43378D01*
X57502Y43336D01*
X57466Y43300D01*
X57436Y43267D01*
X57408Y43237D01*
X57386Y43212D01*
X57369Y43192D01*
X57358Y43179D01*
X57350Y43170D01*
X57347Y43167D01*
X58228D01*
X58261Y43170D01*
X58297D01*
X58333Y43173D01*
X58413Y43179D01*
X58494Y43187D01*
X58530Y43190D01*
X58566Y43192D01*
X58599Y43195D01*
X58627Y43198D01*
X58649Y43201D01*
X58668D01*
X58679Y43203D01*
X58682D01*
Y42846D01*
X58615Y42852D01*
X58557Y42857D01*
X58502Y42863D01*
X58452Y42866D01*
X58408Y42868D01*
X58369Y42871D01*
X58333Y42874D01*
X58302Y42877D01*
X58255D01*
X58239Y42879D01*
X56596D01*
X56563Y42877D01*
X56491Y42871D01*
X56413Y42866D01*
X56341Y42860D01*
X56308Y42857D01*
X56275Y42854D01*
X56247Y42852D01*
X56222D01*
X56200Y42849D01*
X56186Y42846D01*
X56172D01*
Y43203D01*
X56228Y43198D01*
X56278Y43195D01*
X56325Y43190D01*
X56369Y43187D01*
X56411Y43184D01*
X56447Y43181D01*
X56483Y43179D01*
X56510Y43176D01*
X56538Y43173D01*
X56563D01*
X56582Y43170D01*
X56599D01*
X56610Y43167D01*
X57291D01*
X57061Y43411D01*
X57136Y43481D01*
X57206Y43544D01*
X57269Y43602D01*
X57330Y43658D01*
X57386Y43708D01*
X57436Y43752D01*
X57483Y43793D01*
X57524Y43830D01*
X57563Y43863D01*
X57593Y43890D01*
X57621Y43913D01*
X57643Y43932D01*
X57663Y43946D01*
X57674Y43957D01*
X57682Y43962D01*
X57685Y43965D01*
X57926Y43735D01*
D02*
G37*
G36*
X28974Y43719D02*
X28877Y43652D01*
X28785Y43586D01*
X28697Y43522D01*
X28616Y43461D01*
X28539Y43400D01*
X28470Y43345D01*
X28406Y43292D01*
X28345Y43242D01*
X28292Y43195D01*
X28248Y43154D01*
X28206Y43120D01*
X28176Y43090D01*
X28148Y43065D01*
X28129Y43046D01*
X28118Y43034D01*
X28115Y43032D01*
X27869Y43312D01*
X27938Y43370D01*
X28012Y43428D01*
X28159Y43547D01*
X28306Y43661D01*
X28375Y43713D01*
X28442Y43763D01*
X28503Y43810D01*
X28561Y43852D01*
X28611Y43890D01*
X28655Y43924D01*
X28688Y43949D01*
X28716Y43968D01*
X28733Y43982D01*
X28736Y43985D01*
X28738D01*
X28974Y43719D01*
D02*
G37*
G36*
X69338Y43827D02*
X69385Y43719D01*
X69432Y43616D01*
X69482Y43519D01*
X69529Y43425D01*
X69579Y43334D01*
X69626Y43248D01*
X69676Y43165D01*
X69723Y43084D01*
X69770Y43010D01*
X69817Y42940D01*
X69864Y42871D01*
X69909Y42807D01*
X69953Y42746D01*
X69997Y42691D01*
X70039Y42638D01*
X70081Y42588D01*
X70119Y42542D01*
X70155Y42500D01*
X70191Y42461D01*
X70224Y42425D01*
X70255Y42392D01*
X70285Y42364D01*
X70310Y42336D01*
X70335Y42314D01*
X70358Y42295D01*
X70374Y42278D01*
X70391Y42265D01*
X70402Y42256D01*
X70410Y42248D01*
X70416Y42245D01*
X70418Y42242D01*
X70355Y42220D01*
X70291Y42187D01*
X70233Y42151D01*
X70180Y42115D01*
X70139Y42082D01*
X70119Y42065D01*
X70103Y42054D01*
X70092Y42043D01*
X70083Y42035D01*
X70078Y42029D01*
X70075Y42026D01*
X69975Y42145D01*
X69881Y42267D01*
X69790Y42384D01*
X69748Y42439D01*
X69707Y42492D01*
X69671Y42539D01*
X69637Y42583D01*
X69610Y42622D01*
X69585Y42658D01*
X69565Y42683D01*
X69549Y42705D01*
X69540Y42716D01*
X69538Y42722D01*
X68419D01*
X68363Y42719D01*
X68305Y42713D01*
X68249Y42705D01*
X68200Y42699D01*
X68177Y42694D01*
X68158Y42691D01*
X68144Y42688D01*
X68133D01*
X68125Y42685D01*
X68122D01*
Y43043D01*
X68194Y43032D01*
X68261Y43023D01*
X68322Y43015D01*
X68371Y43012D01*
X68413Y43010D01*
X68430Y43007D01*
X69380D01*
X69333Y43093D01*
X69291Y43170D01*
X69252Y43242D01*
X69222Y43303D01*
X69208Y43328D01*
X69197Y43353D01*
X69186Y43372D01*
X69178Y43392D01*
X69172Y43403D01*
X69166Y43414D01*
X69164Y43420D01*
Y43422D01*
X69130Y43481D01*
X69097Y43528D01*
X69061Y43566D01*
X69028Y43597D01*
X68997Y43619D01*
X68972Y43636D01*
X68956Y43644D01*
X68953Y43647D01*
X68950D01*
X68923Y43658D01*
X68903Y43666D01*
X68889Y43677D01*
X68881Y43685D01*
X68873Y43691D01*
X68870Y43697D01*
Y43702D01*
X68873Y43710D01*
X68881Y43722D01*
X68892Y43730D01*
X68903Y43741D01*
X68917Y43746D01*
X68928Y43755D01*
X68937Y43758D01*
X68939Y43760D01*
X69291Y43938D01*
X69338Y43827D01*
D02*
G37*
G36*
X62604Y43702D02*
X62438Y43589D01*
X62358Y43528D01*
X62283Y43469D01*
X62211Y43409D01*
X62142Y43353D01*
X62078Y43298D01*
X62017Y43242D01*
X61964Y43195D01*
X61917Y43148D01*
X61876Y43109D01*
X61840Y43073D01*
X61812Y43046D01*
X61790Y43023D01*
X61779Y43012D01*
X61773Y43007D01*
X61521Y43300D01*
X61538Y43314D01*
X61560Y43331D01*
X61604Y43367D01*
X61654Y43406D01*
X61701Y43444D01*
X61748Y43481D01*
X61768Y43497D01*
X61784Y43508D01*
X61798Y43519D01*
X61809Y43528D01*
X61815Y43533D01*
X61818Y43536D01*
X61881Y43586D01*
X61942Y43633D01*
X61998Y43677D01*
X62053Y43719D01*
X62100Y43758D01*
X62147Y43793D01*
X62189Y43824D01*
X62225Y43854D01*
X62258Y43879D01*
X62286Y43902D01*
X62311Y43921D01*
X62333Y43938D01*
X62347Y43949D01*
X62361Y43957D01*
X62366Y43962D01*
X62369Y43965D01*
X62604Y43702D01*
D02*
G37*
G36*
X64632Y42644D02*
X64571Y42649D01*
X64513Y42655D01*
X64457Y42661D01*
X64408Y42666D01*
X64360Y42669D01*
X64316Y42672D01*
X64277Y42674D01*
X64241D01*
X64208Y42677D01*
X64180D01*
X64158Y42680D01*
X62203D01*
Y41888D01*
X63308D01*
X63391Y41890D01*
X63480Y41896D01*
X63571Y41902D01*
X63654Y41907D01*
X63693Y41910D01*
X63729Y41913D01*
X63759Y41915D01*
X63787D01*
X63809Y41918D01*
X63826Y41921D01*
X63840D01*
X63834Y41855D01*
X63829Y41791D01*
X63823Y41733D01*
X63820Y41680D01*
X63818Y41633D01*
X63815Y41591D01*
X63812Y41553D01*
X63809Y41517D01*
Y41489D01*
Y41464D01*
X63806Y41442D01*
Y41425D01*
Y41411D01*
Y41403D01*
Y41397D01*
Y41395D01*
Y39758D01*
X63809Y39683D01*
X63815Y39605D01*
X63820Y39531D01*
X63826Y39458D01*
X63829Y39428D01*
X63831Y39397D01*
X63834Y39373D01*
Y39350D01*
X63837Y39331D01*
X63840Y39317D01*
Y39309D01*
Y39306D01*
X63449D01*
X63457Y39400D01*
X63466Y39489D01*
X63471Y39564D01*
X63474Y39600D01*
X63477Y39630D01*
Y39658D01*
X63480Y39686D01*
Y39705D01*
Y39724D01*
X63482Y39738D01*
Y39749D01*
Y39755D01*
Y39758D01*
Y41602D01*
X62203D01*
Y39195D01*
Y39154D01*
X62205Y39107D01*
X62211Y39013D01*
X62217Y38918D01*
X62222Y38830D01*
X62225Y38788D01*
X62228Y38749D01*
X62230Y38716D01*
X62233Y38688D01*
X62236Y38664D01*
Y38647D01*
X62239Y38633D01*
Y38630D01*
X61845D01*
X61851Y38697D01*
X61856Y38758D01*
X61859Y38816D01*
X61865Y38871D01*
X61867Y38921D01*
X61870Y38968D01*
X61873Y39010D01*
X61876Y39048D01*
Y39082D01*
X61879Y39112D01*
Y39137D01*
Y39156D01*
X61881Y39173D01*
Y39187D01*
Y39193D01*
Y39195D01*
Y41602D01*
X60557D01*
Y39935D01*
X60554Y39913D01*
X60552Y39896D01*
Y39885D01*
Y39882D01*
Y39830D01*
Y39783D01*
X60549Y39744D01*
Y39711D01*
X60546Y39686D01*
X60543Y39663D01*
Y39647D01*
X60541Y39636D01*
X60530Y39627D01*
Y39619D01*
X60532Y39616D01*
X60535Y39622D01*
X60538Y39627D01*
X60541Y39636D01*
X60557Y39641D01*
X60579Y39647D01*
X60610Y39652D01*
X60643Y39655D01*
X60715Y39661D01*
X60790Y39663D01*
X60823Y39666D01*
X60917D01*
X60978Y39669D01*
X61042Y39672D01*
X61106Y39677D01*
X61167Y39686D01*
X61219Y39694D01*
X61241Y39697D01*
X61261Y39699D01*
X61275Y39702D01*
X61286D01*
X61294Y39705D01*
X61297D01*
X61266Y39666D01*
X61241Y39627D01*
X61219Y39589D01*
X61197Y39550D01*
X61181Y39514D01*
X61167Y39478D01*
X61147Y39414D01*
X61139Y39384D01*
X61133Y39359D01*
X61128Y39334D01*
X61125Y39314D01*
Y39301D01*
X61122Y39290D01*
Y39281D01*
Y39278D01*
X61020Y39287D01*
X60926Y39295D01*
X60840Y39306D01*
X60765Y39317D01*
X60696Y39328D01*
X60638Y39339D01*
X60585Y39353D01*
X60541Y39364D01*
X60502Y39375D01*
X60471Y39386D01*
X60447Y39395D01*
X60427Y39403D01*
X60410Y39411D01*
X60402Y39414D01*
X60397Y39420D01*
X60394D01*
X60363Y39439D01*
X60338Y39461D01*
X60316Y39489D01*
X60297Y39517D01*
X60280Y39550D01*
X60266Y39583D01*
X60250Y39650D01*
X60239Y39713D01*
X60236Y39741D01*
X60233Y39766D01*
Y39785D01*
Y39802D01*
Y39813D01*
Y39816D01*
Y41384D01*
Y41422D01*
X60230Y41464D01*
X60225Y41553D01*
X60219Y41641D01*
X60214Y41727D01*
X60211Y41766D01*
X60208Y41805D01*
X60206Y41838D01*
Y41866D01*
X60203Y41888D01*
X60200Y41907D01*
Y41918D01*
Y41921D01*
X60275Y41915D01*
X60341Y41910D01*
X60405Y41904D01*
X60463Y41902D01*
X60516Y41899D01*
X60566Y41896D01*
X60607Y41893D01*
X60646D01*
X60679Y41890D01*
X60710D01*
X60732Y41888D01*
X61881D01*
Y42680D01*
X60025D01*
X59934Y42677D01*
X59840Y42672D01*
X59748Y42666D01*
X59704Y42663D01*
X59662Y42661D01*
X59627Y42658D01*
X59591Y42655D01*
X59560Y42652D01*
X59532Y42649D01*
X59513Y42647D01*
X59496D01*
X59485Y42644D01*
X59483D01*
Y43001D01*
X59549Y42996D01*
X59610Y42990D01*
X59668Y42985D01*
X59721Y42982D01*
X59771Y42979D01*
X59815Y42976D01*
X59856Y42974D01*
X59890D01*
X59923Y42971D01*
X59951D01*
X59973Y42968D01*
X64103D01*
X64186Y42971D01*
X64272Y42976D01*
X64360Y42982D01*
X64446Y42987D01*
X64485Y42990D01*
X64518Y42993D01*
X64552Y42996D01*
X64579D01*
X64601Y42998D01*
X64618Y43001D01*
X64632D01*
Y42644D01*
D02*
G37*
G36*
X26600Y43924D02*
X26658Y43818D01*
X26716Y43716D01*
X26774Y43616D01*
X26833Y43522D01*
X26888Y43436D01*
X26941Y43353D01*
X26990Y43278D01*
X27038Y43209D01*
X27079Y43148D01*
X27115Y43095D01*
X27148Y43051D01*
X27173Y43015D01*
X27193Y42990D01*
X27204Y42974D01*
X27209Y42968D01*
X28832D01*
X28910Y42971D01*
X28993Y42974D01*
X29079Y42979D01*
X29159Y42985D01*
X29195Y42987D01*
X29229Y42990D01*
X29259Y42993D01*
X29287Y42996D01*
X29306Y42998D01*
X29323Y43001D01*
X29337D01*
X29331Y42940D01*
X29323Y42882D01*
X29317Y42827D01*
X29314Y42777D01*
X29312Y42730D01*
X29306Y42688D01*
X29303Y42649D01*
Y42616D01*
X29301Y42586D01*
Y42558D01*
X29298Y42536D01*
Y42519D01*
Y42505D01*
Y42494D01*
Y42489D01*
Y42486D01*
Y41220D01*
Y41184D01*
X29301Y41148D01*
X29303Y41068D01*
X29309Y40985D01*
X29317Y40907D01*
X29320Y40871D01*
X29326Y40838D01*
X29328Y40810D01*
X29331Y40782D01*
X29334Y40763D01*
Y40747D01*
X29337Y40735D01*
Y40733D01*
X29231Y40744D01*
X29182Y40749D01*
X29134Y40755D01*
X29093Y40758D01*
X29051Y40760D01*
X29015Y40763D01*
X28979D01*
X28949Y40766D01*
X28924D01*
X28899Y40769D01*
X27711D01*
Y40190D01*
X29746D01*
X29780Y40192D01*
X29855Y40195D01*
X29932Y40201D01*
X30004Y40206D01*
X30040Y40209D01*
X30071Y40212D01*
X30101Y40215D01*
X30123Y40217D01*
X30145Y40220D01*
X30159Y40223D01*
X30173D01*
Y39866D01*
X30073Y39880D01*
X30026Y39882D01*
X29982Y39888D01*
X29940Y39891D01*
X29904Y39893D01*
X29868Y39896D01*
X29838D01*
X29810Y39899D01*
X27711D01*
Y39060D01*
Y39024D01*
Y38982D01*
X27716Y38896D01*
X27722Y38807D01*
X27727Y38722D01*
X27730Y38683D01*
X27733Y38644D01*
X27735Y38611D01*
X27738Y38583D01*
X27741Y38558D01*
Y38542D01*
X27744Y38528D01*
Y38525D01*
X27342D01*
X27348Y38583D01*
X27353Y38641D01*
X27359Y38694D01*
X27362Y38747D01*
X27364Y38794D01*
X27367Y38838D01*
X27370Y38877D01*
Y38913D01*
X27373Y38946D01*
Y38976D01*
X27375Y39001D01*
Y39021D01*
Y39037D01*
Y39051D01*
Y39057D01*
Y39060D01*
Y39899D01*
X25456D01*
X25381Y39893D01*
X25306Y39888D01*
X25237Y39882D01*
X25204Y39880D01*
X25173Y39877D01*
X25146Y39874D01*
X25123Y39871D01*
X25104Y39868D01*
X25090D01*
X25082Y39866D01*
X25079D01*
Y40223D01*
X25132Y40217D01*
X25182Y40212D01*
X25226Y40206D01*
X25270Y40204D01*
X25309Y40201D01*
X25345Y40198D01*
X25381Y40195D01*
X25411D01*
X25436Y40192D01*
X25461D01*
X25481Y40190D01*
X27375D01*
Y40769D01*
X26145D01*
X26060Y40766D01*
X25977Y40760D01*
X25899Y40752D01*
X25866Y40749D01*
X25833Y40747D01*
X25805Y40741D01*
X25783Y40738D01*
X25763Y40735D01*
X25747D01*
X25738Y40733D01*
X25736D01*
X25741Y40785D01*
X25747Y40838D01*
X25752Y40885D01*
X25755Y40929D01*
X25758Y40971D01*
X25760Y41010D01*
X25763Y41043D01*
Y41076D01*
X25766Y41104D01*
Y41129D01*
X25769Y41148D01*
Y41168D01*
Y41181D01*
Y41190D01*
Y41195D01*
Y41198D01*
Y42486D01*
Y42525D01*
X25766Y42564D01*
X25763Y42649D01*
X25758Y42735D01*
X25752Y42816D01*
X25749Y42854D01*
X25747Y42891D01*
X25744Y42921D01*
X25741Y42949D01*
X25738Y42971D01*
X25736Y42987D01*
Y42998D01*
Y43001D01*
X25794Y42996D01*
X25852Y42990D01*
X25905Y42985D01*
X25954Y42982D01*
X26002Y42979D01*
X26046Y42976D01*
X26085Y42974D01*
X26121D01*
X26151Y42971D01*
X26182D01*
X26204Y42968D01*
X26838D01*
X26744Y43090D01*
X26697Y43151D01*
X26655Y43206D01*
X26614Y43259D01*
X26578Y43309D01*
X26542Y43356D01*
X26508Y43397D01*
X26481Y43436D01*
X26453Y43472D01*
X26431Y43503D01*
X26414Y43528D01*
X26398Y43547D01*
X26386Y43564D01*
X26381Y43572D01*
X26378Y43575D01*
X26351Y43608D01*
X26323Y43638D01*
X26295Y43661D01*
X26270Y43680D01*
X26248Y43691D01*
X26231Y43702D01*
X26220Y43705D01*
X26218Y43708D01*
X26190Y43719D01*
X26165Y43733D01*
X26148Y43744D01*
X26137Y43752D01*
X26129Y43760D01*
X26123Y43766D01*
X26121Y43771D01*
Y43782D01*
X26123Y43796D01*
X26129Y43805D01*
X26137Y43816D01*
X26157Y43827D01*
X26162Y43832D01*
X26165D01*
X26542Y44034D01*
X26600Y43924D01*
D02*
G37*
G36*
X43901Y43467D02*
X43832Y43400D01*
X43766Y43325D01*
X43696Y43251D01*
X43627Y43170D01*
X43491Y43012D01*
X43430Y42932D01*
X43369Y42857D01*
X43314Y42785D01*
X43264Y42722D01*
X43220Y42661D01*
X43181Y42611D01*
X43148Y42566D01*
X43137Y42550D01*
X43126Y42536D01*
X43117Y42525D01*
X43112Y42516D01*
X43106Y42511D01*
Y42508D01*
X42815Y42766D01*
X42901Y42874D01*
X42982Y42976D01*
X43062Y43073D01*
X43134Y43162D01*
X43206Y43245D01*
X43270Y43323D01*
X43331Y43395D01*
X43383Y43458D01*
X43433Y43516D01*
X43477Y43566D01*
X43516Y43608D01*
X43547Y43644D01*
X43572Y43672D01*
X43591Y43691D01*
X43602Y43705D01*
X43605Y43708D01*
X43901Y43467D01*
D02*
G37*
G36*
X69989Y41697D02*
X69909Y41710D01*
X69834Y41719D01*
X69770Y41727D01*
X69718Y41730D01*
X69693Y41733D01*
X69385D01*
Y40913D01*
X69981D01*
X70042Y40916D01*
X70103Y40921D01*
X70155Y40927D01*
X70202Y40935D01*
X70222Y40938D01*
X70238Y40940D01*
X70252Y40943D01*
X70263D01*
X70269Y40946D01*
X70272D01*
Y40589D01*
X70194Y40600D01*
X70125Y40608D01*
X70061Y40613D01*
X70008Y40619D01*
X69964D01*
X69945Y40622D01*
X69385D01*
Y39295D01*
Y39273D01*
X69388Y39251D01*
X69396Y39228D01*
X69407Y39209D01*
X69435Y39173D01*
X69466Y39140D01*
X69499Y39112D01*
X69526Y39093D01*
X69538Y39087D01*
X69546Y39082D01*
X69551Y39076D01*
X69554D01*
X69297Y38713D01*
X69189Y38796D01*
X69083Y38874D01*
X68984Y38952D01*
X68884Y39024D01*
X68790Y39090D01*
X68701Y39154D01*
X68615Y39212D01*
X68538Y39265D01*
X68466Y39312D01*
X68402Y39353D01*
X68347Y39392D01*
X68299Y39422D01*
X68261Y39445D01*
X68233Y39464D01*
X68225Y39470D01*
X68216Y39475D01*
X68213Y39478D01*
X68211D01*
X68324Y39838D01*
X68363Y39802D01*
X68410Y39760D01*
X68463Y39719D01*
X68521Y39672D01*
X68582Y39625D01*
X68646Y39580D01*
X68770Y39489D01*
X68831Y39447D01*
X68889Y39406D01*
X68942Y39370D01*
X68986Y39339D01*
X69025Y39314D01*
X69053Y39295D01*
X69064Y39287D01*
X69072Y39284D01*
X69075Y39278D01*
X69078D01*
Y40622D01*
X68499D01*
X68441Y40619D01*
X68385Y40613D01*
X68330Y40608D01*
X68283Y40600D01*
X68263Y40597D01*
X68244Y40594D01*
X68230Y40591D01*
X68219D01*
X68213Y40589D01*
X68211D01*
Y40946D01*
X68280Y40932D01*
X68344Y40924D01*
X68399Y40918D01*
X68449Y40916D01*
X68490Y40913D01*
X69078D01*
Y41733D01*
X68704D01*
X68648Y41730D01*
X68590Y41724D01*
X68535Y41716D01*
X68482Y41710D01*
X68463Y41705D01*
X68443Y41702D01*
X68427Y41699D01*
X68416D01*
X68407Y41697D01*
X68405D01*
Y42054D01*
X68479Y42040D01*
X68549Y42032D01*
X68607Y42024D01*
X68660Y42021D01*
X68701Y42018D01*
X69698D01*
X69756Y42021D01*
X69817Y42026D01*
X69870Y42035D01*
X69917Y42040D01*
X69939Y42046D01*
X69956Y42048D01*
X69970Y42051D01*
X69981D01*
X69986Y42054D01*
X69989D01*
Y41697D01*
D02*
G37*
G36*
X24306Y41680D02*
X24209Y41691D01*
X24118Y41702D01*
X24032Y41708D01*
X23993Y41710D01*
X23957D01*
X23924Y41713D01*
X23893D01*
X23869Y41716D01*
X22628D01*
X22625Y41614D01*
X22628Y41517D01*
X22636Y41325D01*
X22655Y41145D01*
X22686Y40976D01*
X22725Y40813D01*
X22769Y40663D01*
X22824Y40519D01*
X22883Y40384D01*
X22949Y40259D01*
X23018Y40140D01*
X23093Y40029D01*
X23173Y39927D01*
X23254Y39832D01*
X23339Y39744D01*
X23425Y39663D01*
X23511Y39589D01*
X23597Y39519D01*
X23686Y39458D01*
X23769Y39403D01*
X23852Y39350D01*
X23935Y39306D01*
X24013Y39267D01*
X24085Y39231D01*
X24154Y39201D01*
X24218Y39176D01*
X24273Y39154D01*
X24323Y39137D01*
X24367Y39123D01*
X24400Y39112D01*
X24425Y39107D01*
X24442Y39101D01*
X24448D01*
X24375Y39035D01*
X24312Y38968D01*
X24254Y38905D01*
X24204Y38846D01*
X24165Y38799D01*
X24148Y38777D01*
X24135Y38760D01*
X24123Y38747D01*
X24115Y38735D01*
X24112Y38730D01*
X24110Y38727D01*
X24024Y38763D01*
X23938Y38802D01*
X23777Y38885D01*
X23628Y38976D01*
X23489Y39073D01*
X23359Y39176D01*
X23240Y39284D01*
X23129Y39397D01*
X23027Y39514D01*
X22932Y39633D01*
X22847Y39755D01*
X22769Y39880D01*
X22697Y40004D01*
X22636Y40132D01*
X22578Y40256D01*
X22528Y40381D01*
X22484Y40505D01*
X22445Y40627D01*
X22409Y40744D01*
X22381Y40860D01*
X22356Y40971D01*
X22334Y41076D01*
X22317Y41176D01*
X22304Y41270D01*
X22295Y41356D01*
X22287Y41434D01*
X22281Y41506D01*
X22276Y41566D01*
X22273Y41619D01*
Y41661D01*
Y41677D01*
Y41691D01*
Y41702D01*
Y41710D01*
Y41713D01*
Y41716D01*
X21428D01*
Y39539D01*
Y39481D01*
X21426Y39428D01*
X21420Y39381D01*
X21412Y39337D01*
X21403Y39295D01*
X21395Y39262D01*
X21384Y39228D01*
X21373Y39201D01*
X21362Y39176D01*
X21351Y39156D01*
X21342Y39140D01*
X21334Y39126D01*
X21326Y39115D01*
X21320Y39107D01*
X21315Y39104D01*
Y39101D01*
X21290Y39079D01*
X21262Y39057D01*
X21232Y39040D01*
X21196Y39024D01*
X21124Y38996D01*
X21049Y38976D01*
X21013Y38971D01*
X20982Y38963D01*
X20952Y38960D01*
X20924Y38954D01*
X20902Y38952D01*
X20885D01*
X20874Y38949D01*
X20872D01*
X20791Y38943D01*
X20708Y38941D01*
X20630Y38938D01*
X20348D01*
X20306Y38941D01*
X20265Y38943D01*
X20229Y38946D01*
X20193D01*
X20162Y38949D01*
X20135Y38952D01*
X20107Y38954D01*
X20085Y38957D01*
X20065Y38960D01*
X20049Y38963D01*
X20035Y38965D01*
X20024D01*
X20016Y38968D01*
X20010D01*
X19957Y38974D01*
X19907Y38982D01*
X19858Y38996D01*
X19811Y39013D01*
X19766Y39035D01*
X19722Y39057D01*
X19680Y39085D01*
X19642Y39115D01*
X19567Y39179D01*
X19500Y39254D01*
X19439Y39328D01*
X19387Y39409D01*
X19340Y39486D01*
X19301Y39564D01*
X19268Y39633D01*
X19240Y39697D01*
X19229Y39724D01*
X19218Y39749D01*
X19212Y39772D01*
X19204Y39791D01*
X19198Y39808D01*
X19196Y39819D01*
X19193Y39824D01*
Y39827D01*
X19284Y39880D01*
X19365Y39932D01*
X19401Y39957D01*
X19437Y39982D01*
X19467Y40004D01*
X19495Y40026D01*
X19520Y40046D01*
X19542Y40065D01*
X19561Y40079D01*
X19578Y40093D01*
X19589Y40104D01*
X19597Y40112D01*
X19603Y40115D01*
X19606Y40118D01*
X19608Y40049D01*
X19614Y39985D01*
X19622Y39921D01*
X19633Y39866D01*
X19644Y39810D01*
X19658Y39760D01*
X19672Y39713D01*
X19689Y39669D01*
X19708Y39627D01*
X19725Y39591D01*
X19744Y39555D01*
X19766Y39525D01*
X19808Y39467D01*
X19849Y39422D01*
X19894Y39384D01*
X19935Y39356D01*
X19971Y39334D01*
X20007Y39317D01*
X20035Y39306D01*
X20057Y39301D01*
X20071Y39295D01*
X20076D01*
X20160Y39287D01*
X20243Y39278D01*
X20320Y39273D01*
X20390Y39270D01*
X20450D01*
X20475Y39267D01*
X20536D01*
X20636Y39270D01*
X20683D01*
X20725Y39273D01*
X20761Y39276D01*
X20788D01*
X20799Y39278D01*
X20813D01*
X20866Y39281D01*
X20910Y39292D01*
X20949Y39306D01*
X20982Y39325D01*
X21010Y39348D01*
X21035Y39375D01*
X21052Y39400D01*
X21065Y39431D01*
X21076Y39458D01*
X21085Y39486D01*
X21090Y39511D01*
X21093Y39533D01*
X21096Y39553D01*
Y39566D01*
Y39578D01*
Y39580D01*
Y41716D01*
X19913D01*
X19822Y41713D01*
X19736Y41710D01*
X19653Y41705D01*
X19617Y41702D01*
X19581Y41699D01*
X19547Y41694D01*
X19517Y41691D01*
X19492Y41688D01*
X19470Y41686D01*
X19453Y41683D01*
X19439D01*
X19431Y41680D01*
X19428D01*
Y42048D01*
X19525Y42037D01*
X19617Y42029D01*
X19700Y42021D01*
X19736Y42018D01*
X19769D01*
X19802Y42015D01*
X19830D01*
X19855Y42012D01*
X23805D01*
X23896Y42015D01*
X23985Y42018D01*
X24068Y42024D01*
X24110Y42026D01*
X24146Y42032D01*
X24179Y42035D01*
X24212Y42037D01*
X24240Y42040D01*
X24262Y42043D01*
X24281Y42046D01*
X24295D01*
X24304Y42048D01*
X24306D01*
Y41680D01*
D02*
G37*
G36*
X54283Y43852D02*
X54361Y43807D01*
X54447Y43769D01*
X54538Y43727D01*
X54632Y43691D01*
X54726Y43655D01*
X54821Y43619D01*
X54912Y43589D01*
X55001Y43558D01*
X55081Y43533D01*
X55156Y43511D01*
X55189Y43500D01*
X55220Y43492D01*
X55247Y43483D01*
X55272Y43475D01*
X55294Y43469D01*
X55314Y43464D01*
X55327Y43461D01*
X55339Y43458D01*
X55344Y43456D01*
X55347D01*
X55438Y43431D01*
X55519Y43414D01*
X55588Y43400D01*
X55621Y43397D01*
X55649Y43392D01*
X55674Y43389D01*
X55699Y43386D01*
X55718D01*
X55732Y43383D01*
X55762D01*
X55798Y43386D01*
X55832Y43389D01*
X55843D01*
X55854Y43392D01*
X55862D01*
X55857Y43320D01*
X55851Y43248D01*
X55845Y43179D01*
X55840Y43115D01*
Y43087D01*
X55837Y43059D01*
X55834Y43037D01*
X55832Y43018D01*
Y43001D01*
X55829Y42990D01*
Y42982D01*
Y42979D01*
X55826Y42946D01*
Y42921D01*
X55823Y42902D01*
Y42891D01*
Y42882D01*
Y42877D01*
Y42874D01*
Y41697D01*
Y41583D01*
Y41472D01*
X55826Y41364D01*
X55829Y41262D01*
X55832Y41165D01*
X55834Y41068D01*
X55840Y40979D01*
X55845Y40893D01*
X55851Y40810D01*
X55857Y40733D01*
X55862Y40658D01*
X55870Y40586D01*
X55876Y40519D01*
X55884Y40456D01*
X55893Y40398D01*
X55898Y40342D01*
X55906Y40289D01*
X55915Y40242D01*
X55920Y40198D01*
X55929Y40156D01*
X55934Y40118D01*
X55942Y40084D01*
X55948Y40054D01*
X55954Y40026D01*
X55959Y40001D01*
X55965Y39979D01*
X55967Y39963D01*
X55970Y39949D01*
X55976Y39938D01*
Y39929D01*
X55978Y39927D01*
Y39924D01*
X56009Y39824D01*
X56048Y39727D01*
X56092Y39633D01*
X56142Y39544D01*
X56195Y39458D01*
X56247Y39378D01*
X56302Y39303D01*
X56355Y39237D01*
X56408Y39173D01*
X56458Y39118D01*
X56502Y39071D01*
X56541Y39029D01*
X56574Y38999D01*
X56599Y38974D01*
X56616Y38960D01*
X56618Y38954D01*
X56621D01*
X56538Y38916D01*
X56466Y38874D01*
X56405Y38832D01*
X56355Y38794D01*
X56316Y38760D01*
X56302Y38744D01*
X56289Y38733D01*
X56278Y38722D01*
X56272Y38713D01*
X56266Y38711D01*
Y38708D01*
X56175Y38832D01*
X56092Y38954D01*
X56017Y39071D01*
X55951Y39182D01*
X55890Y39290D01*
X55837Y39389D01*
X55790Y39483D01*
X55751Y39569D01*
X55718Y39647D01*
X55690Y39716D01*
X55668Y39777D01*
X55649Y39830D01*
X55638Y39868D01*
X55632Y39885D01*
X55627Y39899D01*
X55624Y39910D01*
Y39918D01*
X55621Y39921D01*
Y39924D01*
X55607Y39971D01*
X55596Y40023D01*
X55585Y40076D01*
X55577Y40137D01*
X55566Y40198D01*
X55557Y40264D01*
X55544Y40400D01*
X55530Y40544D01*
X55521Y40691D01*
X55513Y40838D01*
X55507Y40985D01*
X55502Y41123D01*
Y41190D01*
X55499Y41253D01*
Y41314D01*
X55497Y41372D01*
Y41428D01*
Y41478D01*
Y41522D01*
Y41564D01*
Y41600D01*
Y41630D01*
Y41652D01*
Y41672D01*
Y41683D01*
Y41686D01*
X54715D01*
Y39237D01*
Y39204D01*
Y39168D01*
X54718Y39132D01*
X54721Y39090D01*
X54726Y39004D01*
X54732Y38921D01*
X54735Y38882D01*
X54738Y38846D01*
X54740Y38813D01*
X54743Y38785D01*
X54746Y38760D01*
Y38744D01*
X54749Y38730D01*
Y38727D01*
X54361D01*
X54369Y38827D01*
X54375Y38924D01*
X54380Y39010D01*
X54383Y39048D01*
X54386Y39085D01*
X54388Y39118D01*
Y39148D01*
X54391Y39173D01*
Y39195D01*
X54394Y39215D01*
Y39226D01*
Y39234D01*
Y39237D01*
Y41686D01*
X54106D01*
X54037Y41683D01*
X53962Y41677D01*
X53884Y41672D01*
X53812Y41666D01*
X53776Y41663D01*
X53746Y41661D01*
X53718Y41658D01*
X53693D01*
X53674Y41655D01*
X53660Y41652D01*
X53646D01*
Y42007D01*
X53702Y42001D01*
X53754Y41996D01*
X53801Y41990D01*
X53846Y41987D01*
X53887Y41985D01*
X53926Y41982D01*
X53959Y41979D01*
X53990D01*
X54017Y41976D01*
X54039D01*
X54062Y41974D01*
X55502D01*
Y43109D01*
X55424Y43132D01*
X55352Y43151D01*
X55283Y43170D01*
X55217Y43190D01*
X55150Y43209D01*
X55089Y43226D01*
X55031Y43242D01*
X54976Y43259D01*
X54873Y43287D01*
X54779Y43314D01*
X54699Y43339D01*
X54627Y43361D01*
X54563Y43378D01*
X54510Y43395D01*
X54466Y43409D01*
X54433Y43420D01*
X54405Y43428D01*
X54386Y43433D01*
X54375Y43439D01*
X54372D01*
X54311Y43458D01*
X54250Y43472D01*
X54195Y43483D01*
X54145Y43489D01*
X54100Y43494D01*
X54084D01*
X54067Y43497D01*
X53979D01*
X53962Y43494D01*
X53915D01*
X53904Y43497D01*
X53893Y43500D01*
X53884Y43505D01*
X53882Y43508D01*
X53879Y43511D01*
X53876Y43522D01*
X53879Y43533D01*
X53884Y43544D01*
X53890Y43555D01*
X53904Y43572D01*
X53909Y43577D01*
X53912Y43580D01*
X54211Y43893D01*
X54283Y43852D01*
D02*
G37*
G36*
X44677Y43865D02*
X44674Y43843D01*
Y43832D01*
X44671Y43824D01*
Y43818D01*
Y43816D01*
X44668Y43763D01*
X44663Y43713D01*
X44660Y43669D01*
X44657Y43627D01*
Y43589D01*
X44655Y43555D01*
X44652Y43525D01*
Y43497D01*
Y43475D01*
X44649Y43453D01*
Y43436D01*
Y43422D01*
Y43411D01*
Y43403D01*
Y43400D01*
Y43397D01*
X44646Y43289D01*
X44644Y43176D01*
X44638Y43057D01*
X44630Y42932D01*
X44613Y42683D01*
X44605Y42561D01*
X44596Y42445D01*
X44585Y42331D01*
X44577Y42228D01*
X44574Y42181D01*
X44569Y42137D01*
X44566Y42096D01*
X44561Y42057D01*
X44558Y42021D01*
X44555Y41990D01*
X44552Y41963D01*
X44549Y41940D01*
Y41924D01*
X44547Y41910D01*
Y41902D01*
Y41899D01*
X45397Y41755D01*
X45422Y41749D01*
X45455Y41747D01*
X45491Y41741D01*
X45530Y41738D01*
X45616Y41730D01*
X45704Y41724D01*
X45746Y41721D01*
X45785D01*
X45821Y41719D01*
X45854D01*
X45879Y41716D01*
X45918D01*
X45843Y41342D01*
X45765Y41361D01*
X45699Y41378D01*
X45641Y41392D01*
X45591Y41406D01*
X45547Y41414D01*
X45511Y41425D01*
X45480Y41431D01*
X45458Y41436D01*
X45439Y41442D01*
X45425Y41445D01*
X45414Y41447D01*
X45405D01*
X45397Y41450D01*
X44519Y41614D01*
X44494Y41428D01*
X44464Y41248D01*
X44430Y41079D01*
X44392Y40916D01*
X44347Y40758D01*
X44303Y40611D01*
X44253Y40470D01*
X44200Y40336D01*
X44148Y40209D01*
X44090Y40090D01*
X44034Y39976D01*
X43976Y39871D01*
X43915Y39769D01*
X43854Y39677D01*
X43796Y39589D01*
X43735Y39508D01*
X43677Y39434D01*
X43619Y39362D01*
X43563Y39298D01*
X43508Y39240D01*
X43455Y39187D01*
X43405Y39140D01*
X43361Y39098D01*
X43317Y39060D01*
X43278Y39029D01*
X43242Y39001D01*
X43209Y38976D01*
X43184Y38960D01*
X43162Y38943D01*
X43148Y38935D01*
X43137Y38929D01*
X43134Y38927D01*
X43084Y38893D01*
X43034Y38866D01*
X42987Y38841D01*
X42946Y38819D01*
X42904Y38802D01*
X42865Y38785D01*
X42829Y38774D01*
X42796Y38763D01*
X42768Y38758D01*
X42743Y38752D01*
X42721Y38747D01*
X42702Y38744D01*
X42688Y38741D01*
X42669D01*
X42621Y38744D01*
X42577Y38755D01*
X42538Y38772D01*
X42502Y38794D01*
X42466Y38819D01*
X42436Y38846D01*
X42408Y38874D01*
X42386Y38907D01*
X42364Y38938D01*
X42344Y38965D01*
X42331Y38993D01*
X42317Y39018D01*
X42306Y39040D01*
X42300Y39057D01*
X42295Y39068D01*
Y39071D01*
X42278Y39104D01*
X42264Y39143D01*
X42231Y39220D01*
X42200Y39303D01*
X42173Y39384D01*
X42159Y39422D01*
X42148Y39456D01*
X42137Y39489D01*
X42126Y39517D01*
X42120Y39539D01*
X42115Y39555D01*
X42109Y39566D01*
Y39569D01*
X42162Y39578D01*
X42211Y39586D01*
X42256Y39600D01*
X42297Y39614D01*
X42333Y39630D01*
X42367Y39647D01*
X42397Y39666D01*
X42422Y39686D01*
X42444Y39702D01*
X42464Y39722D01*
X42480Y39735D01*
X42491Y39752D01*
X42502Y39763D01*
X42508Y39772D01*
X42513Y39777D01*
Y39780D01*
X42522Y39724D01*
X42527Y39674D01*
X42536Y39627D01*
X42541Y39586D01*
X42547Y39550D01*
X42552Y39517D01*
X42558Y39489D01*
X42563Y39461D01*
X42569Y39442D01*
X42572Y39422D01*
X42577Y39409D01*
X42580Y39395D01*
X42583Y39386D01*
Y39381D01*
X42586Y39375D01*
X42597Y39339D01*
X42610Y39309D01*
X42627Y39284D01*
X42641Y39259D01*
X42658Y39240D01*
X42674Y39226D01*
X42691Y39212D01*
X42707Y39201D01*
X42738Y39187D01*
X42763Y39179D01*
X42779Y39176D01*
X42785D01*
X42824Y39179D01*
X42862Y39190D01*
X42898Y39204D01*
X42935Y39220D01*
X42965Y39237D01*
X42990Y39251D01*
X43007Y39262D01*
X43009Y39265D01*
X43012D01*
X43104Y39325D01*
X43189Y39392D01*
X43272Y39464D01*
X43350Y39544D01*
X43422Y39627D01*
X43491Y39713D01*
X43558Y39805D01*
X43619Y39899D01*
X43674Y39993D01*
X43729Y40093D01*
X43777Y40192D01*
X43824Y40292D01*
X43868Y40395D01*
X43907Y40494D01*
X43943Y40594D01*
X43976Y40694D01*
X44006Y40791D01*
X44034Y40885D01*
X44059Y40976D01*
X44081Y41065D01*
X44101Y41151D01*
X44117Y41231D01*
X44134Y41306D01*
X44145Y41375D01*
X44156Y41439D01*
X44167Y41494D01*
X44173Y41544D01*
X44181Y41586D01*
X44184Y41619D01*
X44186Y41644D01*
X44189Y41658D01*
Y41663D01*
X44065Y41686D01*
X43943Y41705D01*
X43826Y41724D01*
X43716Y41744D01*
X43608Y41763D01*
X43505Y41780D01*
X43408Y41796D01*
X43314Y41810D01*
X43223Y41824D01*
X43139Y41838D01*
X43056Y41852D01*
X42982Y41863D01*
X42907Y41874D01*
X42840Y41885D01*
X42774Y41896D01*
X42713Y41904D01*
X42658Y41913D01*
X42605Y41921D01*
X42558Y41927D01*
X42511Y41935D01*
X42472Y41940D01*
X42433Y41946D01*
X42400Y41949D01*
X42372Y41954D01*
X42344Y41957D01*
X42322Y41960D01*
X42303Y41963D01*
X42289Y41965D01*
X42275D01*
X42267Y41968D01*
X42261D01*
X42333Y42348D01*
X42397Y42328D01*
X42464Y42306D01*
X42605Y42267D01*
X42752Y42228D01*
X42907Y42192D01*
X43220Y42126D01*
X43375Y42096D01*
X43525Y42068D01*
X43666Y42043D01*
X43732Y42029D01*
X43796Y42018D01*
X43857Y42010D01*
X43912Y41998D01*
X43968Y41990D01*
X44015Y41982D01*
X44059Y41976D01*
X44101Y41968D01*
X44134Y41965D01*
X44164Y41960D01*
X44186Y41957D01*
X44203Y41954D01*
X44214Y41951D01*
X44217D01*
X44231Y42057D01*
X44245Y42170D01*
X44256Y42287D01*
X44267Y42406D01*
X44278Y42525D01*
X44286Y42644D01*
X44292Y42757D01*
X44297Y42868D01*
X44303Y42974D01*
X44306Y43071D01*
X44308Y43115D01*
X44311Y43156D01*
Y43195D01*
X44314Y43231D01*
Y43264D01*
Y43292D01*
Y43317D01*
X44317Y43339D01*
Y43356D01*
Y43367D01*
Y43375D01*
Y43378D01*
Y43417D01*
X44314Y43456D01*
X44303Y43522D01*
X44286Y43580D01*
X44264Y43627D01*
X44245Y43666D01*
X44225Y43691D01*
X44212Y43708D01*
X44206Y43713D01*
X44186Y43735D01*
X44175Y43752D01*
X44167Y43766D01*
X44162Y43777D01*
X44159Y43785D01*
X44162Y43791D01*
Y43793D01*
X44164Y43799D01*
X44175Y43805D01*
X44189Y43810D01*
X44203Y43813D01*
X44220Y43816D01*
X44234Y43818D01*
X44245Y43821D01*
X44247D01*
X44677Y43888D01*
Y43865D01*
D02*
G37*
G36*
X56851Y42752D02*
X56879Y42672D01*
X56912Y42591D01*
X56945Y42508D01*
X56981Y42431D01*
X57020Y42350D01*
X57056Y42276D01*
X57095Y42206D01*
X57131Y42140D01*
X57164Y42079D01*
X57195Y42024D01*
X57222Y41976D01*
X57244Y41940D01*
X57261Y41913D01*
X57266Y41902D01*
X57272Y41893D01*
X57275Y41890D01*
Y41888D01*
X57757D01*
X57532Y42107D01*
X57643Y42228D01*
X57696Y42287D01*
X57749Y42342D01*
X57796Y42395D01*
X57843Y42445D01*
X57884Y42492D01*
X57926Y42533D01*
X57962Y42572D01*
X57995Y42608D01*
X58023Y42636D01*
X58048Y42661D01*
X58067Y42680D01*
X58081Y42697D01*
X58089Y42705D01*
X58092Y42708D01*
X58344Y42503D01*
X58239Y42397D01*
X58139Y42292D01*
X58045Y42190D01*
X58003Y42140D01*
X57962Y42093D01*
X57926Y42051D01*
X57893Y42010D01*
X57865Y41976D01*
X57840Y41946D01*
X57820Y41921D01*
X57807Y41904D01*
X57798Y41890D01*
X57796Y41888D01*
X58344D01*
X58416Y41890D01*
X58491Y41896D01*
X58568Y41902D01*
X58640Y41907D01*
X58674Y41910D01*
X58707Y41913D01*
X58735Y41915D01*
X58757D01*
X58776Y41918D01*
X58793Y41921D01*
X58804D01*
Y41566D01*
X58751Y41572D01*
X58701Y41578D01*
X58654Y41580D01*
X58610Y41586D01*
X58568Y41589D01*
X58530Y41591D01*
X58496Y41594D01*
X58466Y41597D01*
X58438D01*
X58413Y41600D01*
X58391D01*
X58375Y41602D01*
X57494D01*
Y40990D01*
X58228D01*
X58264Y40993D01*
X58338Y40996D01*
X58419Y41001D01*
X58494Y41010D01*
X58530Y41012D01*
X58563Y41015D01*
X58593Y41018D01*
X58621Y41021D01*
X58640Y41023D01*
X58657D01*
X58668Y41026D01*
X58671D01*
Y40672D01*
X58577Y40680D01*
X58488Y40688D01*
X58408Y40694D01*
X58369Y40697D01*
X58336Y40699D01*
X58305D01*
X58277Y40702D01*
X58253D01*
X58233Y40705D01*
X57494D01*
Y39425D01*
Y39392D01*
X57496Y39359D01*
X57502Y39331D01*
X57507Y39306D01*
X57516Y39284D01*
X57527Y39265D01*
X57546Y39234D01*
X57568Y39212D01*
X57585Y39198D01*
X57599Y39193D01*
X57604Y39190D01*
X57627Y39182D01*
X57654Y39176D01*
X57713Y39168D01*
X57737D01*
X57760Y39165D01*
X57826D01*
X57876Y39168D01*
X57926Y39173D01*
X57976Y39179D01*
X58017Y39182D01*
X58034Y39184D01*
X58050Y39187D01*
X58064D01*
X58073Y39190D01*
X58081D01*
X58039Y39121D01*
X58003Y39051D01*
X57978Y38985D01*
X57962Y38924D01*
X57953Y38893D01*
X57948Y38868D01*
X57945Y38846D01*
X57942Y38827D01*
X57940Y38810D01*
X57937Y38799D01*
Y38791D01*
Y38788D01*
X57843Y38796D01*
X57757Y38805D01*
X57682Y38813D01*
X57613Y38824D01*
X57555Y38835D01*
X57502Y38849D01*
X57458Y38860D01*
X57419Y38871D01*
X57386Y38882D01*
X57361Y38893D01*
X57339Y38902D01*
X57322Y38910D01*
X57311Y38918D01*
X57302Y38921D01*
X57297Y38927D01*
X57272Y38946D01*
X57253Y38968D01*
X57236Y38996D01*
X57219Y39029D01*
X57208Y39065D01*
X57197Y39101D01*
X57183Y39176D01*
X57178Y39212D01*
X57175Y39248D01*
Y39278D01*
X57172Y39306D01*
Y39331D01*
Y39348D01*
Y39362D01*
Y39364D01*
Y40705D01*
X56582D01*
X56549Y40702D01*
X56474Y40697D01*
X56397Y40691D01*
X56322Y40686D01*
X56289Y40683D01*
X56258Y40680D01*
X56228Y40677D01*
X56203D01*
X56183Y40674D01*
X56170Y40672D01*
X56156D01*
Y41026D01*
X56247Y41018D01*
X56333Y41010D01*
X56408Y41004D01*
X56444Y41001D01*
X56474Y40999D01*
X56502Y40996D01*
X56530D01*
X56552Y40993D01*
X56568D01*
X56585Y40990D01*
X57172D01*
Y41602D01*
X56524D01*
X56452Y41600D01*
X56377Y41594D01*
X56302Y41589D01*
X56230Y41583D01*
X56197Y41580D01*
X56167Y41578D01*
X56139Y41575D01*
X56114Y41572D01*
X56098Y41569D01*
X56081D01*
X56073Y41566D01*
X56070D01*
Y41921D01*
X56122Y41915D01*
X56172Y41913D01*
X56219Y41907D01*
X56261Y41904D01*
X56302Y41902D01*
X56339Y41899D01*
X56372Y41896D01*
X56402Y41893D01*
X56430D01*
X56452Y41890D01*
X56488D01*
X56502Y41888D01*
X56948D01*
X56895Y41974D01*
X56848Y42048D01*
X56807Y42118D01*
X56771Y42176D01*
X56737Y42228D01*
X56710Y42273D01*
X56685Y42309D01*
X56665Y42342D01*
X56646Y42367D01*
X56632Y42389D01*
X56621Y42403D01*
X56613Y42417D01*
X56607Y42425D01*
X56602Y42431D01*
X56599Y42433D01*
X56549Y42469D01*
X56527Y42483D01*
X56505Y42497D01*
X56488Y42505D01*
X56474Y42514D01*
X56463Y42516D01*
X56460Y42519D01*
X56438Y42528D01*
X56424Y42536D01*
X56413Y42544D01*
X56405Y42553D01*
X56400Y42558D01*
X56397Y42564D01*
Y42566D01*
Y42575D01*
X56402Y42586D01*
X56413Y42594D01*
X56424Y42602D01*
X56436Y42611D01*
X56444Y42616D01*
X56452Y42622D01*
X56455D01*
X56826Y42829D01*
X56851Y42752D01*
D02*
G37*
G36*
X32511Y42913D02*
X32575Y42854D01*
X32641Y42799D01*
X32705Y42749D01*
X32766Y42699D01*
X32827Y42652D01*
X32885Y42611D01*
X32940Y42572D01*
X32993Y42539D01*
X33037Y42508D01*
X33079Y42480D01*
X33115Y42461D01*
X33143Y42442D01*
X33165Y42431D01*
X33176Y42422D01*
X33181Y42420D01*
X33195Y42425D01*
X33212Y42431D01*
X33248Y42445D01*
X33262Y42453D01*
X33275Y42456D01*
X33284Y42461D01*
X33287D01*
X33406Y42508D01*
X33516Y42550D01*
X33619Y42588D01*
X33713Y42625D01*
X33796Y42658D01*
X33874Y42688D01*
X33943Y42716D01*
X34001Y42738D01*
X34054Y42757D01*
X34101Y42777D01*
X34137Y42791D01*
X34168Y42805D01*
X34190Y42813D01*
X34206Y42818D01*
X34217Y42824D01*
X34220D01*
X34367Y42542D01*
X34212Y42492D01*
X34057Y42439D01*
X33982Y42414D01*
X33910Y42386D01*
X33841Y42361D01*
X33774Y42339D01*
X33716Y42317D01*
X33661Y42295D01*
X33611Y42278D01*
X33572Y42262D01*
X33536Y42248D01*
X33511Y42239D01*
X33497Y42234D01*
X33492Y42231D01*
X33647Y42156D01*
X33802Y42093D01*
X33877Y42065D01*
X33951Y42040D01*
X34023Y42015D01*
X34090Y41996D01*
X34154Y41979D01*
X34212Y41963D01*
X34262Y41949D01*
X34306Y41940D01*
X34339Y41932D01*
X34367Y41927D01*
X34383Y41921D01*
X34389D01*
X34359Y41888D01*
X34331Y41857D01*
X34303Y41827D01*
X34281Y41799D01*
X34245Y41749D01*
X34217Y41708D01*
X34198Y41672D01*
X34184Y41647D01*
X34179Y41630D01*
X34176Y41627D01*
Y41625D01*
X34087Y41655D01*
X33996Y41686D01*
X33816Y41758D01*
X33730Y41796D01*
X33644Y41835D01*
X33564Y41874D01*
X33489Y41910D01*
X33420Y41946D01*
X33356Y41976D01*
X33298Y42007D01*
X33251Y42035D01*
X33212Y42054D01*
X33184Y42071D01*
X33173Y42076D01*
X33165Y42082D01*
X33162Y42084D01*
X33159D01*
X33051Y42040D01*
X32951Y41996D01*
X32860Y41954D01*
X32774Y41915D01*
X32694Y41877D01*
X32622Y41843D01*
X32558Y41810D01*
X32500Y41783D01*
X32450Y41755D01*
X32406Y41733D01*
X32367Y41710D01*
X32337Y41694D01*
X32314Y41680D01*
X32298Y41672D01*
X32287Y41666D01*
X32284Y41663D01*
X32126Y41974D01*
X32262Y42035D01*
X32395Y42093D01*
X32458Y42120D01*
X32519Y42145D01*
X32577Y42170D01*
X32633Y42192D01*
X32683Y42212D01*
X32727Y42228D01*
X32769Y42245D01*
X32802Y42259D01*
X32830Y42270D01*
X32849Y42278D01*
X32860Y42281D01*
X32866Y42284D01*
X32774Y42339D01*
X32688Y42389D01*
X32611Y42436D01*
X32575Y42458D01*
X32544Y42478D01*
X32514Y42497D01*
X32489Y42514D01*
X32467Y42528D01*
X32447Y42539D01*
X32431Y42547D01*
X32420Y42555D01*
X32414Y42561D01*
X32411D01*
X32370Y42583D01*
X32328Y42600D01*
X32289Y42611D01*
X32256Y42619D01*
X32228Y42625D01*
X32206Y42627D01*
X32170D01*
X32156Y42630D01*
X32148Y42633D01*
X32140Y42636D01*
X32134Y42638D01*
X32131Y42641D01*
X32126Y42652D01*
X32123Y42658D01*
Y42663D01*
X32126Y42677D01*
X32134Y42694D01*
X32145Y42705D01*
X32148Y42708D01*
X32447Y42974D01*
X32511Y42913D01*
D02*
G37*
G36*
X53084Y41170D02*
X53042Y41176D01*
X52998Y41184D01*
X52907Y41192D01*
X52810Y41198D01*
X52715Y41201D01*
X52671Y41204D01*
X48519D01*
X48416Y41198D01*
X48322Y41192D01*
X48278Y41190D01*
X48239Y41187D01*
X48200Y41184D01*
X48167Y41181D01*
X48137Y41179D01*
X48112Y41176D01*
X48092Y41173D01*
X48076D01*
X48067Y41170D01*
X48065D01*
Y41572D01*
X48170Y41561D01*
X48270Y41553D01*
X48361Y41544D01*
X48405Y41541D01*
X48444D01*
X48480Y41539D01*
X48513D01*
X48544Y41536D01*
X52510D01*
X52607Y41539D01*
X52707Y41541D01*
X52801Y41547D01*
X52848Y41550D01*
X52893Y41555D01*
X52931Y41558D01*
X52967Y41561D01*
X53001Y41564D01*
X53028Y41566D01*
X53053Y41569D01*
X53070D01*
X53081Y41572D01*
X53084D01*
Y41170D01*
D02*
G37*
G36*
X31888Y42641D02*
X31879Y42550D01*
X31874Y42467D01*
X31871Y42428D01*
X31868Y42395D01*
Y42361D01*
X31866Y42334D01*
Y42309D01*
X31863Y42287D01*
Y42270D01*
Y42259D01*
Y42251D01*
Y42248D01*
Y41530D01*
X34710D01*
Y42107D01*
Y42159D01*
X34708Y42209D01*
X34705Y42251D01*
X34702Y42289D01*
X34696Y42323D01*
X34691Y42350D01*
X34685Y42375D01*
X34677Y42395D01*
X34672Y42411D01*
X34663Y42425D01*
X34658Y42436D01*
X34652Y42445D01*
X34644Y42453D01*
X34641Y42456D01*
X34622Y42475D01*
X34608Y42494D01*
X34597Y42508D01*
X34591Y42522D01*
X34586Y42530D01*
X34583Y42539D01*
Y42544D01*
X34586Y42553D01*
X34589Y42558D01*
X34600Y42569D01*
X34613Y42575D01*
X34616Y42577D01*
X34619D01*
X35054Y42633D01*
X35043Y42536D01*
X35034Y42442D01*
X35029Y42359D01*
X35026Y42320D01*
X35023Y42287D01*
Y42253D01*
X35021Y42226D01*
Y42201D01*
X35018Y42179D01*
Y42162D01*
Y42151D01*
Y42143D01*
Y42140D01*
Y41680D01*
X35021Y41608D01*
X35026Y41530D01*
X35032Y41456D01*
X35037Y41381D01*
X35040Y41348D01*
X35043Y41317D01*
X35045Y41289D01*
X35048Y41267D01*
X35051Y41248D01*
Y41231D01*
X35054Y41223D01*
Y41220D01*
X34949Y41231D01*
X34854Y41240D01*
X34810Y41242D01*
X34769Y41245D01*
X34730Y41248D01*
X34694Y41251D01*
X34663D01*
X34636Y41253D01*
X34611D01*
X34591Y41256D01*
X33486D01*
X33516Y41165D01*
X33550Y41079D01*
X33586Y40993D01*
X33602Y40957D01*
X33622Y40918D01*
X33638Y40885D01*
X33655Y40854D01*
X33669Y40830D01*
X33680Y40807D01*
X33691Y40788D01*
X33699Y40774D01*
X33702Y40766D01*
X33705Y40763D01*
X34793D01*
X34879Y40766D01*
X34968Y40771D01*
X35054Y40777D01*
X35134Y40782D01*
X35170Y40785D01*
X35203Y40788D01*
X35234Y40791D01*
X35259D01*
X35281Y40794D01*
X35295Y40796D01*
X35309D01*
X35298Y40699D01*
X35289Y40608D01*
X35281Y40528D01*
X35278Y40489D01*
X35276Y40453D01*
Y40422D01*
X35273Y40395D01*
Y40370D01*
X35270Y40348D01*
Y40331D01*
Y40320D01*
Y40312D01*
Y40309D01*
Y39112D01*
X35273Y39032D01*
X35278Y38949D01*
X35284Y38868D01*
X35292Y38794D01*
X35295Y38760D01*
X35298Y38727D01*
X35300Y38699D01*
X35303Y38677D01*
X35306Y38658D01*
Y38641D01*
X35309Y38633D01*
Y38630D01*
X34915D01*
X34926Y38727D01*
X34935Y38816D01*
X34940Y38899D01*
X34943Y38935D01*
X34946Y38971D01*
Y39001D01*
X34949Y39029D01*
Y39054D01*
Y39073D01*
X34951Y39090D01*
Y39101D01*
Y39109D01*
Y39112D01*
Y40486D01*
X33835D01*
X33879Y40409D01*
X33924Y40334D01*
X33965Y40264D01*
X34001Y40204D01*
X34018Y40176D01*
X34032Y40151D01*
X34046Y40132D01*
X34057Y40112D01*
X34065Y40098D01*
X34071Y40087D01*
X34073Y40082D01*
X34076Y40079D01*
X34106Y40032D01*
X34140Y39990D01*
X34176Y39954D01*
X34212Y39921D01*
X34248Y39891D01*
X34287Y39863D01*
X34323Y39841D01*
X34356Y39821D01*
X34389Y39805D01*
X34420Y39791D01*
X34447Y39780D01*
X34472Y39772D01*
X34492Y39766D01*
X34505Y39760D01*
X34517Y39758D01*
X34519D01*
X34359Y39375D01*
X34339Y39384D01*
X34309Y39392D01*
X34273Y39403D01*
X34231Y39411D01*
X34181Y39422D01*
X34126Y39431D01*
X34068Y39442D01*
X34001Y39453D01*
X33935Y39464D01*
X33863Y39475D01*
X33785Y39483D01*
X33708Y39494D01*
X33550Y39517D01*
X33386Y39539D01*
X33226Y39558D01*
X33148Y39566D01*
X33073Y39575D01*
X33001Y39586D01*
X32929Y39591D01*
X32866Y39600D01*
X32805Y39608D01*
X32746Y39614D01*
X32697Y39619D01*
X32652Y39625D01*
X32616Y39627D01*
X32586Y39630D01*
X32564Y39633D01*
X32550Y39636D01*
X32544D01*
X32497Y39569D01*
X32458Y39505D01*
X32422Y39445D01*
X32392Y39392D01*
X32367Y39348D01*
X32356Y39328D01*
X32348Y39314D01*
X32342Y39301D01*
X32337Y39292D01*
X32334Y39287D01*
Y39284D01*
X32032Y39517D01*
X32148Y39683D01*
X32206Y39763D01*
X32265Y39843D01*
X32320Y39918D01*
X32372Y39993D01*
X32425Y40060D01*
X32472Y40123D01*
X32517Y40181D01*
X32555Y40234D01*
X32591Y40281D01*
X32619Y40320D01*
X32644Y40353D01*
X32663Y40375D01*
X32674Y40389D01*
X32677Y40395D01*
X32979Y40251D01*
X32918Y40179D01*
X32863Y40112D01*
X32816Y40049D01*
X32777Y39993D01*
X32744Y39949D01*
X32730Y39929D01*
X32719Y39913D01*
X32710Y39899D01*
X32705Y39891D01*
X32699Y39885D01*
Y39882D01*
X32921Y39860D01*
X33032Y39849D01*
X33140Y39841D01*
X33245Y39832D01*
X33347Y39824D01*
X33444Y39816D01*
X33533Y39808D01*
X33619Y39802D01*
X33694Y39796D01*
X33763Y39791D01*
X33818Y39788D01*
X33843Y39785D01*
X33865D01*
X33885Y39783D01*
X33902D01*
X33913Y39780D01*
X33929D01*
X33843Y39904D01*
X33760Y40029D01*
X33685Y40148D01*
X33650Y40204D01*
X33616Y40256D01*
X33586Y40303D01*
X33558Y40348D01*
X33533Y40389D01*
X33514Y40422D01*
X33497Y40450D01*
X33486Y40470D01*
X33478Y40481D01*
X33475Y40486D01*
X31528D01*
Y39290D01*
Y39251D01*
X31530Y39217D01*
X31536Y39187D01*
X31544Y39159D01*
X31555Y39137D01*
X31569Y39118D01*
X31580Y39098D01*
X31594Y39085D01*
X31622Y39062D01*
X31647Y39048D01*
X31666Y39043D01*
X31669Y39040D01*
X31672D01*
X31699Y39032D01*
X31733Y39026D01*
X31769Y39021D01*
X31805Y39018D01*
X31838D01*
X31863Y39015D01*
X31918D01*
X31951Y39018D01*
X32024Y39021D01*
X32098Y39026D01*
X32168Y39032D01*
X32204Y39035D01*
X32234Y39037D01*
X32262Y39040D01*
X32287Y39043D01*
X32306Y39046D01*
X32320Y39048D01*
X32334D01*
X32317Y39021D01*
X32300Y38987D01*
X32273Y38921D01*
X32251Y38849D01*
X32231Y38780D01*
X32226Y38747D01*
X32217Y38716D01*
X32212Y38691D01*
X32209Y38666D01*
X32204Y38647D01*
Y38633D01*
X32201Y38622D01*
Y38619D01*
X32087Y38627D01*
X31982Y38636D01*
X31888Y38647D01*
X31805Y38661D01*
X31727Y38672D01*
X31661Y38686D01*
X31602Y38697D01*
X31553Y38711D01*
X31511Y38722D01*
X31475Y38733D01*
X31447Y38744D01*
X31422Y38752D01*
X31406Y38760D01*
X31395Y38766D01*
X31389Y38772D01*
X31386D01*
X31353Y38794D01*
X31323Y38819D01*
X31298Y38849D01*
X31278Y38882D01*
X31259Y38918D01*
X31245Y38954D01*
X31234Y38993D01*
X31226Y39032D01*
X31217Y39068D01*
X31212Y39101D01*
X31209Y39132D01*
X31206Y39159D01*
Y39182D01*
Y39201D01*
Y39212D01*
Y39215D01*
Y40314D01*
X31204Y40398D01*
X31198Y40483D01*
X31192Y40564D01*
X31187Y40639D01*
X31184Y40672D01*
X31181Y40702D01*
X31179Y40730D01*
Y40752D01*
X31176Y40771D01*
X31173Y40785D01*
Y40794D01*
Y40796D01*
X31273Y40788D01*
X31364Y40780D01*
X31450Y40774D01*
X31486Y40771D01*
X31522Y40769D01*
X31555D01*
X31586Y40766D01*
X31630D01*
X31650Y40763D01*
X33347D01*
X33323Y40805D01*
X33301Y40841D01*
X33275Y40874D01*
X33253Y40902D01*
X33231Y40927D01*
X33212Y40949D01*
X33190Y40968D01*
X33173Y40985D01*
X33140Y41010D01*
X33118Y41026D01*
X33101Y41035D01*
X33095Y41037D01*
X33076Y41048D01*
X33062Y41057D01*
X33054Y41068D01*
X33046Y41076D01*
X33040Y41087D01*
Y41093D01*
X33043Y41104D01*
X33048Y41112D01*
X33068Y41131D01*
X33087Y41143D01*
X33093Y41148D01*
X33095D01*
X33342Y41256D01*
X31999D01*
X31913Y41253D01*
X31827Y41248D01*
X31744Y41242D01*
X31672Y41237D01*
X31639Y41234D01*
X31608Y41231D01*
X31583Y41229D01*
X31558Y41226D01*
X31541Y41223D01*
X31528D01*
X31519Y41220D01*
X31517D01*
X31525Y41306D01*
X31533Y41392D01*
X31539Y41467D01*
X31544Y41536D01*
Y41566D01*
X31547Y41594D01*
Y41616D01*
Y41636D01*
X31550Y41652D01*
Y41663D01*
Y41672D01*
Y41675D01*
Y42220D01*
Y42273D01*
X31547Y42317D01*
X31544Y42359D01*
X31539Y42397D01*
X31530Y42431D01*
X31522Y42458D01*
X31514Y42483D01*
X31506Y42505D01*
X31497Y42522D01*
X31489Y42536D01*
X31481Y42550D01*
X31472Y42558D01*
X31461Y42569D01*
X31458Y42572D01*
X31444Y42586D01*
X31433Y42600D01*
X31428Y42611D01*
X31422Y42619D01*
X31417Y42633D01*
Y42638D01*
X31420Y42647D01*
X31422Y42655D01*
X31436Y42669D01*
X31453Y42677D01*
X31456Y42680D01*
X31458D01*
X31896Y42738D01*
X31888Y42641D01*
D02*
G37*
G36*
X45954Y43810D02*
X46006Y43666D01*
X46065Y43525D01*
X46123Y43389D01*
X46187Y43256D01*
X46247Y43129D01*
X46314Y43004D01*
X46378Y42885D01*
X46447Y42769D01*
X46513Y42658D01*
X46580Y42553D01*
X46646Y42450D01*
X46713Y42350D01*
X46779Y42259D01*
X46846Y42170D01*
X46909Y42087D01*
X46970Y42007D01*
X47031Y41932D01*
X47089Y41863D01*
X47145Y41799D01*
X47200Y41738D01*
X47250Y41683D01*
X47295Y41633D01*
X47339Y41589D01*
X47378Y41550D01*
X47414Y41514D01*
X47444Y41483D01*
X47469Y41461D01*
X47488Y41442D01*
X47505Y41428D01*
X47513Y41420D01*
X47516Y41417D01*
X47441Y41381D01*
X47369Y41345D01*
X47300Y41306D01*
X47242Y41273D01*
X47214Y41256D01*
X47189Y41240D01*
X47170Y41226D01*
X47150Y41215D01*
X47137Y41206D01*
X47126Y41198D01*
X47120Y41195D01*
X47117Y41192D01*
X46979Y41364D01*
X46848Y41533D01*
X46788Y41616D01*
X46729Y41697D01*
X46674Y41774D01*
X46624Y41846D01*
X46577Y41913D01*
X46536Y41974D01*
X46499Y42026D01*
X46469Y42073D01*
X46444Y42112D01*
X46425Y42140D01*
X46419Y42148D01*
X46414Y42156D01*
X46411Y42159D01*
Y39195D01*
Y39156D01*
X46414Y39118D01*
X46419Y39029D01*
X46425Y38941D01*
X46430Y38855D01*
X46433Y38813D01*
X46436Y38777D01*
X46439Y38744D01*
X46441Y38716D01*
X46444Y38691D01*
Y38672D01*
X46447Y38661D01*
Y38658D01*
X46067D01*
X46073Y38727D01*
X46079Y38788D01*
X46084Y38846D01*
X46087Y38902D01*
X46092Y38949D01*
X46095Y38993D01*
X46098Y39032D01*
Y39068D01*
X46101Y39098D01*
Y39126D01*
X46103Y39145D01*
Y39165D01*
Y39179D01*
Y39187D01*
Y39193D01*
Y39195D01*
Y42655D01*
X46081Y42694D01*
X46059Y42738D01*
X46034Y42785D01*
X46009Y42835D01*
X45987Y42877D01*
X45979Y42896D01*
X45970Y42913D01*
X45962Y42926D01*
X45959Y42938D01*
X45954Y42943D01*
Y42946D01*
X45926Y42998D01*
X45898Y43048D01*
X45873Y43095D01*
X45851Y43137D01*
X45829Y43179D01*
X45810Y43215D01*
X45793Y43248D01*
X45777Y43278D01*
X45763Y43303D01*
X45752Y43328D01*
X45741Y43347D01*
X45732Y43364D01*
X45727Y43375D01*
X45721Y43383D01*
X45718Y43389D01*
Y43392D01*
X45696Y43431D01*
X45677Y43464D01*
X45655Y43497D01*
X45635Y43525D01*
X45616Y43547D01*
X45599Y43569D01*
X45583Y43589D01*
X45569Y43602D01*
X45541Y43627D01*
X45522Y43641D01*
X45511Y43650D01*
X45505Y43652D01*
X45483Y43663D01*
X45466Y43672D01*
X45452Y43680D01*
X45444Y43688D01*
X45439Y43694D01*
X45436Y43699D01*
Y43702D01*
Y43708D01*
X45441Y43716D01*
X45452Y43724D01*
X45463Y43733D01*
X45475Y43738D01*
X45483Y43744D01*
X45491Y43749D01*
X45494D01*
X45901Y43960D01*
X45954Y43810D01*
D02*
G37*
G36*
X56973Y40273D02*
X56931Y40215D01*
X56890Y40154D01*
X56812Y40032D01*
X56740Y39910D01*
X56707Y39852D01*
X56679Y39796D01*
X56652Y39744D01*
X56629Y39697D01*
X56607Y39652D01*
X56591Y39616D01*
X56577Y39586D01*
X56566Y39564D01*
X56560Y39550D01*
X56557Y39544D01*
X56244Y39735D01*
X56325Y39880D01*
X56366Y39949D01*
X56405Y40015D01*
X56441Y40076D01*
X56480Y40137D01*
X56513Y40192D01*
X56546Y40245D01*
X56574Y40292D01*
X56602Y40334D01*
X56627Y40370D01*
X56646Y40400D01*
X56663Y40425D01*
X56674Y40445D01*
X56682Y40456D01*
X56685Y40458D01*
X56973Y40273D01*
D02*
G37*
G36*
X58205Y40367D02*
X58253Y40259D01*
X58302Y40151D01*
X58358Y40049D01*
X58416Y39952D01*
X58474Y39860D01*
X58532Y39774D01*
X58591Y39694D01*
X58646Y39622D01*
X58696Y39558D01*
X58743Y39500D01*
X58785Y39453D01*
X58820Y39414D01*
X58845Y39386D01*
X58854Y39378D01*
X58862Y39370D01*
X58865Y39367D01*
X58868Y39364D01*
X58790Y39337D01*
X58723Y39309D01*
X58663Y39278D01*
X58613Y39251D01*
X58574Y39226D01*
X58557Y39217D01*
X58543Y39206D01*
X58532Y39201D01*
X58524Y39195D01*
X58521Y39190D01*
X58518D01*
X58419Y39339D01*
X58325Y39486D01*
X58283Y39555D01*
X58241Y39622D01*
X58203Y39686D01*
X58167Y39744D01*
X58136Y39799D01*
X58109Y39849D01*
X58084Y39893D01*
X58061Y39929D01*
X58045Y39960D01*
X58034Y39979D01*
X58025Y39993D01*
X58023Y39999D01*
X58006Y40029D01*
X57990Y40057D01*
X57973Y40079D01*
X57956Y40101D01*
X57942Y40118D01*
X57926Y40132D01*
X57901Y40154D01*
X57879Y40168D01*
X57859Y40176D01*
X57848Y40181D01*
X57845D01*
X57820Y40190D01*
X57798Y40195D01*
X57784Y40201D01*
X57771Y40206D01*
X57765Y40212D01*
X57760Y40215D01*
X57757Y40217D01*
Y40226D01*
X57762Y40234D01*
X57771Y40242D01*
X57779Y40251D01*
X57798Y40262D01*
X57804Y40267D01*
X57807D01*
X58167Y40481D01*
X58205Y40367D01*
D02*
G37*
%LPC*%
G36*
X67482Y43367D02*
X65901D01*
Y42813D01*
X67482D01*
Y43367D01*
D02*
G37*
G36*
Y42536D02*
X65901D01*
Y41968D01*
X67482D01*
Y42536D01*
D02*
G37*
G36*
X41067Y43345D02*
X39918D01*
Y42215D01*
X41067D01*
Y43345D01*
D02*
G37*
G36*
X38771Y41893D02*
X37231D01*
Y40666D01*
X38771D01*
Y41893D01*
D02*
G37*
G36*
X28979Y42680D02*
X27711D01*
Y42007D01*
X28979D01*
Y42680D01*
D02*
G37*
G36*
X27375D02*
X26104D01*
Y42007D01*
X27375D01*
Y42680D01*
D02*
G37*
G36*
X28979Y41733D02*
X27711D01*
Y41054D01*
X28979D01*
Y41733D01*
D02*
G37*
G36*
X27375D02*
X26104D01*
Y41054D01*
X27375D01*
Y41733D01*
D02*
G37*
%LPD*%
D10*
X6624Y36780D02*
X5968Y37436D01*
X4656D01*
X4000Y36780D01*
Y34156D01*
X4656Y33500D01*
X5968D01*
X6624Y34156D01*
Y35468D01*
X5312D01*
X7936Y33500D02*
Y36124D01*
X9904D01*
X10560Y35468D01*
Y33500D01*
X14495Y37436D02*
Y33500D01*
X12527D01*
X11872Y34156D01*
Y35468D01*
X12527Y36124D01*
X14495D01*
X19743Y33500D02*
Y36124D01*
X21055Y37436D01*
X22367Y36124D01*
Y33500D01*
Y35468D01*
X19743D01*
X26302Y37436D02*
Y33500D01*
X24335D01*
X23679Y34156D01*
Y35468D01*
X24335Y36124D01*
X26302D01*
X30238D02*
X28270D01*
X27614Y35468D01*
Y34156D01*
X28270Y33500D01*
X30238D01*
X38110Y36780D02*
X37454Y37436D01*
X36142D01*
X35486Y36780D01*
Y34156D01*
X36142Y33500D01*
X37454D01*
X38110Y34156D01*
Y35468D01*
X36798D01*
X39422Y33500D02*
Y36124D01*
X41390D01*
X42046Y35468D01*
Y33500D01*
X45981Y37436D02*
Y33500D01*
X44013D01*
X43357Y34156D01*
Y35468D01*
X44013Y36124D01*
X45981D01*
X51229Y33500D02*
X52541D01*
X51885D01*
Y37436D01*
X51229Y36780D01*
X57133Y37436D02*
X54509D01*
Y35468D01*
X55821Y36124D01*
X56476D01*
X57133Y35468D01*
Y34156D01*
X56476Y33500D01*
X55165D01*
X54509Y34156D01*
X58444Y37436D02*
Y34812D01*
X59756Y33500D01*
X61068Y34812D01*
Y37436D01*
X68940Y36780D02*
X68284Y37436D01*
X66972D01*
X66316Y36780D01*
Y34156D01*
X66972Y33500D01*
X68284D01*
X68940Y34156D01*
Y35468D01*
X67628D01*
X70252Y33500D02*
Y37436D01*
X72875Y33500D01*
Y37436D01*
X74187D02*
Y33500D01*
X76155D01*
X76811Y34156D01*
Y36780D01*
X76155Y37436D01*
X74187D01*
X82059D02*
Y34812D01*
X83371Y33500D01*
X84683Y34812D01*
Y37436D01*
X88618Y36780D02*
X87963Y37436D01*
X86651D01*
X85995Y36780D01*
Y34156D01*
X86651Y33500D01*
X87963D01*
X88618Y34156D01*
X92554Y36780D02*
X91898Y37436D01*
X90586D01*
X89930Y36780D01*
Y34156D01*
X90586Y33500D01*
X91898D01*
X92554Y34156D01*
M02*
