M48
;Layer_Color=9474304
;FILE_FORMAT=2:5
INCH,LZ
;TYPE=PLATED
T1F00S00C0.02800
T2F00S00C0.02913
T3F00S00C0.03543
T4F00S00C0.03937
T5F00S00C0.12500
%
T01
X01241Y00479
X0164307Y00454
X01615Y00222
X01497Y00268
X01803Y0025
T02
X01115Y00125
Y00225
Y00325
X0136
Y00225
Y00125
X0139Y0087
X0129
X0119
T03
X00775Y0072
X00975
X00535Y00715
X00335
T04
X00105Y00165
X00255
X00405
X00555
X00705
X00855
T05
X018622Y0011
X0011417Y0088189
M30
