G04*
G04 #@! TF.GenerationSoftware,Altium Limited,Altium Designer,22.3.1 (43)*
G04*
G04 Layer_Color=128*
%FSLAX25Y25*%
%MOIN*%
G70*
G04*
G04 #@! TF.SameCoordinates,E78762D2-B51B-4B12-9D3C-234BF7CF4557*
G04*
G04*
G04 #@! TF.FilePolarity,Positive*
G04*
G01*
G75*
%ADD41C,0.00500*%
D41*
X179970Y11000D02*
X192470D01*
X186220Y4750D02*
Y17250D01*
X5167Y88189D02*
X17667D01*
X11417Y81939D02*
Y94439D01*
X8531Y16500D02*
X12468D01*
X10500Y14532D02*
Y18469D01*
X38532Y16500D02*
X42469D01*
X40500Y14532D02*
Y18469D01*
X68532Y16500D02*
X72469D01*
X70500Y14532D02*
Y18469D01*
X83531Y16500D02*
X87468D01*
X85500Y14532D02*
Y18469D01*
X53531Y16500D02*
X57468D01*
X55500Y14532D02*
Y18469D01*
X23531Y16500D02*
X27468D01*
X25500Y14532D02*
Y18469D01*
X31728Y71500D02*
X35272D01*
X33500Y69728D02*
Y73272D01*
X51728Y71500D02*
X55272D01*
X53500Y69728D02*
Y73272D01*
X75728Y72000D02*
X79272D01*
X77500Y70228D02*
Y73772D01*
X95728Y72000D02*
X99272D01*
X97500Y70228D02*
Y73772D01*
X117543Y87000D02*
X120457D01*
X119000Y85543D02*
Y88457D01*
X127543Y87000D02*
X130457D01*
X129000Y85543D02*
Y88457D01*
X137543Y87000D02*
X140457D01*
X139000Y85543D02*
Y88457D01*
X110043Y32500D02*
X112957D01*
X111500Y31043D02*
Y33957D01*
X110043Y22500D02*
X112957D01*
X111500Y21043D02*
Y23957D01*
X110043Y12500D02*
X112957D01*
X111500Y11043D02*
Y13957D01*
X134543Y32500D02*
X137457D01*
X136000Y31043D02*
Y33957D01*
X134543Y22500D02*
X137457D01*
X136000Y21043D02*
Y23957D01*
X134543Y12500D02*
X137457D01*
X136000Y11043D02*
Y13957D01*
X178900Y25000D02*
X181700D01*
X180300Y23600D02*
Y26400D01*
X162907Y45400D02*
X165707D01*
X164307Y44000D02*
Y46800D01*
X122700Y47900D02*
X125500D01*
X124100Y46500D02*
Y49300D01*
X160100Y22200D02*
X162900D01*
X161500Y20800D02*
Y23600D01*
X148300Y26800D02*
X151100D01*
X149700Y25400D02*
Y28200D01*
M02*
