M48
;Layer_Color=9474304
;FILE_FORMAT=2:5
INCH,LZ
;TYPE=PLATED
T1F00S00C0.02756
T2F00S00C0.02800
T3F00S00C0.03150
T4F00S00C0.03543
T5F00S00C0.03937
T6F00S00C0.04331
T7F00S00C0.05118
T8F00S00C0.12500
%
T01
X0468Y0055
Y0065
Y0075
T02
X0476Y0017
X05365Y0015
X05495
X0508Y0062307
X04545Y0188001
X03722Y0162
X0290032Y0144375
X00345Y0274
X0040871Y02822
X02273Y0353
X02753Y03158
X0290032Y0303625
Y0224
X0404Y0236
X0290032Y038325
Y0462875
X0257Y0478
X02385
X02775Y0513
X0196945Y0509701
X0192Y04845
X01845Y0478
X0201
X0151Y0478488
X00955Y0478
Y0498
X00257Y046
X0024Y04392
X0040114Y0528799
X00535
X0029929Y05605
X0066886Y0528799
X0323Y0541
X03345Y05425
T03
X03455Y0135413
Y01425
Y0149587
Y0221163
Y022825
Y0235337
Y0306913
Y0314
Y0321087
Y0392663
Y039975
Y0406837
Y0478413
Y04855
Y0492587
X02985Y05265
X0291413
X0284327
T04
X01395Y0323
X01495
Y0333
Y0343
X01395
Y0353
Y0363
X01495
Y0353
X01395Y0333
X0149Y05275
X0169
T05
X0571Y0053
Y0068
X0024Y02755
Y02905
Y03055
Y03205
Y03355
Y03505
Y03655
X0571Y03605
Y03455
Y03305
Y03155
Y03005
Y02855
Y02705
Y02555
Y02405
Y03755
X0024Y03805
Y03955
Y04105
X02895Y05675
X03045
X03195
X03345
X03495
X03645
X03795
X03945
X04095
X04245
X04395
X04545
T06
X0465224Y01755
X0505776
X0507276Y0268
X0466724
X0467224Y0359
X0507776
X0505276Y04445
X0464724
X0463224Y0524
X0503776
X0067842Y0472
X0048157
T07
X0392815Y01325
X04125
X04625
X0502657
X0197Y0118
Y0077843
X0124
Y0118
Y0168
Y0187685
X0197
Y0168
X0051
Y0187685
Y0118
Y0077843
X0392815Y0219625
X04125
X04625
X0502657
X0502657Y030675
X04625
X04125
X0392815
Y0393875
X04125
X04625
X0502657
Y0481
X04625
X04125
X0392815
T08
X0019685Y0019685
X0570866
X0019685Y0570866
X0570866
M30
