G04*
G04 #@! TF.GenerationSoftware,Altium Limited,Altium Designer,22.3.1 (43)*
G04*
G04 Layer_Color=128*
%FSLAX25Y25*%
%MOIN*%
G70*
G04*
G04 #@! TF.SameCoordinates,ABD3340E-3DDB-4FBE-A437-06F7E2321E34*
G04*
G04*
G04 #@! TF.FilePolarity,Positive*
G04*
G01*
G75*
%ADD102C,0.00200*%
D102*
X167228Y527500D02*
X170772D01*
X169000Y525728D02*
Y529272D01*
X147228Y527500D02*
X150772D01*
X149000Y525728D02*
Y529272D01*
X343925Y492587D02*
X347074D01*
X345500Y491012D02*
Y494161D01*
X343925Y485500D02*
X347074D01*
X345500Y483925D02*
Y487075D01*
X343925Y478413D02*
X347074D01*
X345500Y476839D02*
Y479988D01*
X343925Y406837D02*
X347074D01*
X345500Y405262D02*
Y408411D01*
X343925Y399750D02*
X347074D01*
X345500Y398175D02*
Y401325D01*
X343925Y392663D02*
X347074D01*
X345500Y391089D02*
Y394238D01*
X343925Y321087D02*
X347074D01*
X345500Y319512D02*
Y322661D01*
X343925Y314000D02*
X347074D01*
X345500Y312425D02*
Y315575D01*
X343925Y306913D02*
X347074D01*
X345500Y305339D02*
Y308488D01*
X343925Y235337D02*
X347074D01*
X345500Y233762D02*
Y236911D01*
X343925Y228250D02*
X347074D01*
X345500Y226675D02*
Y229825D01*
X343925Y221163D02*
X347074D01*
X345500Y219589D02*
Y222738D01*
X343925Y149587D02*
X347074D01*
X345500Y148012D02*
Y151161D01*
X343925Y142500D02*
X347074D01*
X345500Y140925D02*
Y144075D01*
X343925Y135413D02*
X347074D01*
X345500Y133839D02*
Y136988D01*
X466622Y55000D02*
X469378D01*
X468000Y53622D02*
Y56378D01*
X466622Y65000D02*
X469378D01*
X468000Y63622D02*
Y66378D01*
X466622Y75000D02*
X469378D01*
X468000Y73622D02*
Y76378D01*
X459940Y481000D02*
X465059D01*
X462500Y478441D02*
Y483559D01*
X409940Y481000D02*
X415059D01*
X412500Y478441D02*
Y483559D01*
X390255Y481000D02*
X395374D01*
X392815Y478441D02*
Y483559D01*
X500098Y481000D02*
X505216D01*
X502657Y478441D02*
Y483559D01*
X459940Y393875D02*
X465059D01*
X462500Y391316D02*
Y396434D01*
X409940Y393875D02*
X415059D01*
X412500Y391316D02*
Y396434D01*
X390255Y393875D02*
X395374D01*
X392815Y391316D02*
Y396434D01*
X500098Y393875D02*
X505216D01*
X502657Y391316D02*
Y396434D01*
X459940Y306750D02*
X465059D01*
X462500Y304191D02*
Y309309D01*
X409940Y306750D02*
X415059D01*
X412500Y304191D02*
Y309309D01*
X390255Y306750D02*
X395374D01*
X392815Y304191D02*
Y309309D01*
X500098Y306750D02*
X505216D01*
X502657Y304191D02*
Y309309D01*
X459940Y219625D02*
X465059D01*
X462500Y217066D02*
Y222184D01*
X409940Y219625D02*
X415059D01*
X412500Y217066D02*
Y222184D01*
X390255Y219625D02*
X395374D01*
X392815Y217066D02*
Y222184D01*
X500098Y219625D02*
X505216D01*
X502657Y217066D02*
Y222184D01*
X459940Y132500D02*
X465059D01*
X462500Y129941D02*
Y135059D01*
X409940Y132500D02*
X415059D01*
X412500Y129941D02*
Y135059D01*
X390255Y132500D02*
X395374D01*
X392815Y129941D02*
Y135059D01*
X500098Y132500D02*
X505216D01*
X502657Y129941D02*
Y135059D01*
X147728Y343000D02*
X151272D01*
X149500Y341228D02*
Y344772D01*
X137728Y323000D02*
X141272D01*
X139500Y321228D02*
Y324772D01*
X147728Y363000D02*
X151272D01*
X149500Y361228D02*
Y364772D01*
X137728Y363000D02*
X141272D01*
X139500Y361228D02*
Y364772D01*
X147728Y323000D02*
X151272D01*
X149500Y321228D02*
Y324772D01*
X137728Y343000D02*
X141272D01*
X139500Y341228D02*
Y344772D01*
X147728Y353000D02*
X151272D01*
X149500Y351228D02*
Y354772D01*
X137728Y353000D02*
X141272D01*
X139500Y351228D02*
Y354772D01*
X137728Y333000D02*
X141272D01*
X139500Y331228D02*
Y334772D01*
X147728Y333000D02*
X151272D01*
X149500Y331228D02*
Y334772D01*
X22031Y335500D02*
X25969D01*
X24000Y333531D02*
Y337469D01*
X22031Y290500D02*
X25969D01*
X24000Y288531D02*
Y292469D01*
X22031Y395500D02*
X25969D01*
X24000Y393531D02*
Y397468D01*
X22031Y410500D02*
X25969D01*
X24000Y408532D02*
Y412468D01*
X22031Y275500D02*
X25969D01*
X24000Y273532D02*
Y277468D01*
X22031Y305500D02*
X25969D01*
X24000Y303532D02*
Y307469D01*
X22031Y350500D02*
X25969D01*
X24000Y348532D02*
Y352468D01*
X22031Y380500D02*
X25969D01*
X24000Y378532D02*
Y382469D01*
X22031Y365500D02*
X25969D01*
X24000Y363531D02*
Y367469D01*
X22031Y320500D02*
X25969D01*
X24000Y318531D02*
Y322468D01*
X564616Y570866D02*
X577116D01*
X570866Y564616D02*
Y577116D01*
X13435Y570866D02*
X25935D01*
X19685Y564616D02*
Y577116D01*
X564616Y19685D02*
X577116D01*
X570866Y13435D02*
Y25935D01*
X13435Y19685D02*
X25935D01*
X19685Y13435D02*
Y25935D01*
X569031Y53000D02*
X572968D01*
X571000Y51032D02*
Y54969D01*
X569031Y68000D02*
X572968D01*
X571000Y66031D02*
Y69968D01*
X569031Y360500D02*
X572968D01*
X571000Y358531D02*
Y362469D01*
X569031Y330500D02*
X572968D01*
X571000Y328532D02*
Y332469D01*
X569031Y315500D02*
X572968D01*
X571000Y313531D02*
Y317469D01*
X569031Y285500D02*
X572968D01*
X571000Y283531D02*
Y287469D01*
X569031Y255500D02*
X572968D01*
X571000Y253532D02*
Y257469D01*
X569031Y240500D02*
X572968D01*
X571000Y238531D02*
Y242469D01*
X569031Y270500D02*
X572968D01*
X571000Y268531D02*
Y272468D01*
X569031Y300500D02*
X572968D01*
X571000Y298532D02*
Y302468D01*
X569031Y345500D02*
X572968D01*
X571000Y343531D02*
Y347468D01*
X569031Y375500D02*
X572968D01*
X571000Y373532D02*
Y377468D01*
X289839Y526500D02*
X292988D01*
X291413Y524925D02*
Y528075D01*
X282752Y526500D02*
X285902D01*
X284327Y524925D02*
Y528075D01*
X296925Y526500D02*
X300075D01*
X298500Y524925D02*
Y528075D01*
X287531Y567500D02*
X291469D01*
X289500Y565531D02*
Y569468D01*
X317531Y567500D02*
X321468D01*
X319500Y565531D02*
Y569468D01*
X347532Y567500D02*
X351468D01*
X349500Y565531D02*
Y569468D01*
X392531Y567500D02*
X396468D01*
X394500Y565531D02*
Y569468D01*
X422532Y567500D02*
X426469D01*
X424500Y565531D02*
Y569468D01*
X452531Y567500D02*
X456468D01*
X454500Y565531D02*
Y569468D01*
X437532Y567500D02*
X441468D01*
X439500Y565531D02*
Y569468D01*
X407531Y567500D02*
X411469D01*
X409500Y565531D02*
Y569468D01*
X377532Y567500D02*
X381469D01*
X379500Y565531D02*
Y569468D01*
X362531Y567500D02*
X366469D01*
X364500Y565531D02*
Y569468D01*
X332531Y567500D02*
X336469D01*
X334500Y565531D02*
Y569468D01*
X302532Y567500D02*
X306469D01*
X304500Y565531D02*
Y569468D01*
X194441Y168000D02*
X199559D01*
X197000Y165441D02*
Y170559D01*
X194441Y77843D02*
X199559D01*
X197000Y75284D02*
Y80402D01*
X194441Y118000D02*
X199559D01*
X197000Y115441D02*
Y120559D01*
X194441Y187685D02*
X199559D01*
X197000Y185126D02*
Y190244D01*
X121441Y118000D02*
X126559D01*
X124000Y115441D02*
Y120559D01*
X121441Y168000D02*
X126559D01*
X124000Y165441D02*
Y170559D01*
X121441Y77843D02*
X126559D01*
X124000Y75284D02*
Y80402D01*
X121441Y187685D02*
X126559D01*
X124000Y185126D02*
Y190244D01*
X48441Y168000D02*
X53559D01*
X51000Y165441D02*
Y170559D01*
X48441Y77843D02*
X53559D01*
X51000Y75284D02*
Y80402D01*
X48441Y118000D02*
X53559D01*
X51000Y115441D02*
Y120559D01*
X48441Y187685D02*
X53559D01*
X51000Y185126D02*
Y190244D01*
X461059Y524000D02*
X465390D01*
X463224Y521835D02*
Y526165D01*
X501610Y524000D02*
X505941D01*
X503776Y521835D02*
Y526165D01*
X462559Y444500D02*
X466890D01*
X464724Y442335D02*
Y446665D01*
X503110Y444500D02*
X507441D01*
X505276Y442335D02*
Y446665D01*
X465059Y359000D02*
X469390D01*
X467224Y356835D02*
Y361165D01*
X505610Y359000D02*
X509941D01*
X507776Y356835D02*
Y361165D01*
X464559Y268000D02*
X468890D01*
X466724Y265835D02*
Y270165D01*
X505110Y268000D02*
X509441D01*
X507276Y265835D02*
Y270165D01*
X463059Y175500D02*
X467390D01*
X465224Y173335D02*
Y177665D01*
X503610Y175500D02*
X507941D01*
X505776Y173335D02*
Y177665D01*
X65677Y472000D02*
X70008D01*
X67842Y469835D02*
Y474165D01*
X45992Y472000D02*
X50323D01*
X48157Y469835D02*
Y474165D01*
X321600Y541000D02*
X324400D01*
X323000Y539600D02*
Y542400D01*
X333100Y542500D02*
X335900D01*
X334500Y541100D02*
Y543900D01*
X28529Y560500D02*
X31329D01*
X29929Y559100D02*
Y561900D01*
X33100Y274000D02*
X35900D01*
X34500Y272600D02*
Y275400D01*
X39471Y282200D02*
X42271D01*
X40871Y280800D02*
Y283600D01*
X190600Y484500D02*
X193400D01*
X192000Y483100D02*
Y485900D01*
X183100Y478000D02*
X185900D01*
X184500Y476600D02*
Y479400D01*
X474600Y17000D02*
X477400D01*
X476000Y15600D02*
Y18400D01*
X225900Y353000D02*
X228700D01*
X227300Y351600D02*
Y354400D01*
X24300Y460000D02*
X27100D01*
X25700Y458600D02*
Y461400D01*
X273900Y315800D02*
X276700D01*
X275300Y314400D02*
Y317200D01*
X453100Y188001D02*
X455900D01*
X454500Y186601D02*
Y189401D01*
X370800Y162000D02*
X373600D01*
X372200Y160600D02*
Y163400D01*
X402600Y236000D02*
X405400D01*
X404000Y234600D02*
Y237400D01*
X276100Y513000D02*
X278900D01*
X277500Y511600D02*
Y514400D01*
X22600Y439200D02*
X25400D01*
X24000Y437800D02*
Y440600D01*
X506600Y62307D02*
X509400D01*
X508000Y60907D02*
Y63707D01*
X94100Y498000D02*
X96900D01*
X95500Y496600D02*
Y499400D01*
X38714Y528799D02*
X41514D01*
X40114Y527399D02*
Y530199D01*
X288632Y144375D02*
X291432D01*
X290032Y142975D02*
Y145775D01*
X288632Y224000D02*
X291432D01*
X290032Y222600D02*
Y225400D01*
X288632Y303625D02*
X291432D01*
X290032Y302225D02*
Y305025D01*
X288632Y383250D02*
X291432D01*
X290032Y381850D02*
Y384650D01*
X94100Y478000D02*
X96900D01*
X95500Y476600D02*
Y479400D01*
X149600Y478488D02*
X152400D01*
X151000Y477088D02*
Y479888D01*
X52100Y528799D02*
X54900D01*
X53500Y527399D02*
Y530199D01*
X65486Y528799D02*
X68286D01*
X66886Y527399D02*
Y530199D01*
X199600Y478000D02*
X202400D01*
X201000Y476600D02*
Y479400D01*
X535100Y15000D02*
X537900D01*
X536500Y13600D02*
Y16400D01*
X237100Y478000D02*
X239900D01*
X238500Y476600D02*
Y479400D01*
X255600Y478000D02*
X258400D01*
X257000Y476600D02*
Y479400D01*
X548100Y15000D02*
X550900D01*
X549500Y13600D02*
Y16400D01*
X288632Y462875D02*
X291432D01*
X290032Y461475D02*
Y464275D01*
X195545Y509701D02*
X198345D01*
X196945Y508301D02*
Y511101D01*
M02*
