G04*
G04 #@! TF.GenerationSoftware,Altium Limited,Altium Designer,22.3.1 (43)*
G04*
G04 Layer_Color=2752767*
%FSLAX25Y25*%
%MOIN*%
G70*
G04*
G04 #@! TF.SameCoordinates,ABD3340E-3DDB-4FBE-A437-06F7E2321E34*
G04*
G04*
G04 #@! TF.FilePolarity,Positive*
G04*
G01*
G75*
%ADD102C,0.00200*%
%ADD103C,0.00267*%
D102*
X168200Y526700D02*
Y528300D01*
X169800D01*
Y526700D01*
X168200D01*
X148200D02*
Y528300D01*
X149800D01*
Y526700D01*
X148200D01*
X468000Y54200D02*
X467200Y55800D01*
X468800D01*
X468000Y54200D01*
Y64200D02*
X467200Y65800D01*
X468800D01*
X468000Y64200D01*
Y74200D02*
X467200Y75800D01*
X468800D01*
X468000Y74200D01*
X462500Y480200D02*
X462900Y480600D01*
X463300D01*
X462900Y481000D01*
X463300Y481400D01*
X462900D01*
X462500Y481800D01*
X462100Y481400D01*
X461700D01*
X462100Y481000D01*
X461700Y480600D01*
X462100D01*
X462500Y480200D01*
X412500D02*
X412900Y480600D01*
X413300D01*
X412900Y481000D01*
X413300Y481400D01*
X412900D01*
X412500Y481800D01*
X412100Y481400D01*
X411700D01*
X412100Y481000D01*
X411700Y480600D01*
X412100D01*
X412500Y480200D01*
X392815D02*
X393215Y480600D01*
X393615D01*
X393215Y481000D01*
X393615Y481400D01*
X393215D01*
X392815Y481800D01*
X392415Y481400D01*
X392015D01*
X392415Y481000D01*
X392015Y480600D01*
X392415D01*
X392815Y480200D01*
X502657D02*
X503057Y480600D01*
X503457D01*
X503057Y481000D01*
X503457Y481400D01*
X503057D01*
X502657Y481800D01*
X502257Y481400D01*
X501857D01*
X502257Y481000D01*
X501857Y480600D01*
X502257D01*
X502657Y480200D01*
X462500Y393075D02*
X462900Y393475D01*
X463300D01*
X462900Y393875D01*
X463300Y394275D01*
X462900D01*
X462500Y394675D01*
X462100Y394275D01*
X461700D01*
X462100Y393875D01*
X461700Y393475D01*
X462100D01*
X462500Y393075D01*
X412500D02*
X412900Y393475D01*
X413300D01*
X412900Y393875D01*
X413300Y394275D01*
X412900D01*
X412500Y394675D01*
X412100Y394275D01*
X411700D01*
X412100Y393875D01*
X411700Y393475D01*
X412100D01*
X412500Y393075D01*
X392815D02*
X393215Y393475D01*
X393615D01*
X393215Y393875D01*
X393615Y394275D01*
X393215D01*
X392815Y394675D01*
X392415Y394275D01*
X392015D01*
X392415Y393875D01*
X392015Y393475D01*
X392415D01*
X392815Y393075D01*
X502657D02*
X503057Y393475D01*
X503457D01*
X503057Y393875D01*
X503457Y394275D01*
X503057D01*
X502657Y394675D01*
X502257Y394275D01*
X501857D01*
X502257Y393875D01*
X501857Y393475D01*
X502257D01*
X502657Y393075D01*
X462500Y305950D02*
X462900Y306350D01*
X463300D01*
X462900Y306750D01*
X463300Y307150D01*
X462900D01*
X462500Y307550D01*
X462100Y307150D01*
X461700D01*
X462100Y306750D01*
X461700Y306350D01*
X462100D01*
X462500Y305950D01*
X412500D02*
X412900Y306350D01*
X413300D01*
X412900Y306750D01*
X413300Y307150D01*
X412900D01*
X412500Y307550D01*
X412100Y307150D01*
X411700D01*
X412100Y306750D01*
X411700Y306350D01*
X412100D01*
X412500Y305950D01*
X392815D02*
X393215Y306350D01*
X393615D01*
X393215Y306750D01*
X393615Y307150D01*
X393215D01*
X392815Y307550D01*
X392415Y307150D01*
X392015D01*
X392415Y306750D01*
X392015Y306350D01*
X392415D01*
X392815Y305950D01*
X502657D02*
X503057Y306350D01*
X503457D01*
X503057Y306750D01*
X503457Y307150D01*
X503057D01*
X502657Y307550D01*
X502257Y307150D01*
X501857D01*
X502257Y306750D01*
X501857Y306350D01*
X502257D01*
X502657Y305950D01*
X462500Y218825D02*
X462900Y219225D01*
X463300D01*
X462900Y219625D01*
X463300Y220025D01*
X462900D01*
X462500Y220425D01*
X462100Y220025D01*
X461700D01*
X462100Y219625D01*
X461700Y219225D01*
X462100D01*
X462500Y218825D01*
X412500D02*
X412900Y219225D01*
X413300D01*
X412900Y219625D01*
X413300Y220025D01*
X412900D01*
X412500Y220425D01*
X412100Y220025D01*
X411700D01*
X412100Y219625D01*
X411700Y219225D01*
X412100D01*
X412500Y218825D01*
X392815D02*
X393215Y219225D01*
X393615D01*
X393215Y219625D01*
X393615Y220025D01*
X393215D01*
X392815Y220425D01*
X392415Y220025D01*
X392015D01*
X392415Y219625D01*
X392015Y219225D01*
X392415D01*
X392815Y218825D01*
X502657D02*
X503057Y219225D01*
X503457D01*
X503057Y219625D01*
X503457Y220025D01*
X503057D01*
X502657Y220425D01*
X502257Y220025D01*
X501857D01*
X502257Y219625D01*
X501857Y219225D01*
X502257D01*
X502657Y218825D01*
X462500Y131700D02*
X462900Y132100D01*
X463300D01*
X462900Y132500D01*
X463300Y132900D01*
X462900D01*
X462500Y133300D01*
X462100Y132900D01*
X461700D01*
X462100Y132500D01*
X461700Y132100D01*
X462100D01*
X462500Y131700D01*
X412500D02*
X412900Y132100D01*
X413300D01*
X412900Y132500D01*
X413300Y132900D01*
X412900D01*
X412500Y133300D01*
X412100Y132900D01*
X411700D01*
X412100Y132500D01*
X411700Y132100D01*
X412100D01*
X412500Y131700D01*
X392815D02*
X393215Y132100D01*
X393615D01*
X393215Y132500D01*
X393615Y132900D01*
X393215D01*
X392815Y133300D01*
X392415Y132900D01*
X392015D01*
X392415Y132500D01*
X392015Y132100D01*
X392415D01*
X392815Y131700D01*
X502657D02*
X503057Y132100D01*
X503457D01*
X503057Y132500D01*
X503457Y132900D01*
X503057D01*
X502657Y133300D01*
X502257Y132900D01*
X501857D01*
X502257Y132500D01*
X501857Y132100D01*
X502257D01*
X502657Y131700D01*
X148700Y342200D02*
Y343800D01*
X150300D01*
Y342200D01*
X148700D01*
X138700Y322200D02*
Y323800D01*
X140300D01*
Y322200D01*
X138700D01*
X148700Y362200D02*
Y363800D01*
X150300D01*
Y362200D01*
X148700D01*
X138700D02*
Y363800D01*
X140300D01*
Y362200D01*
X138700D01*
X148700Y322200D02*
Y323800D01*
X150300D01*
Y322200D01*
X148700D01*
X138700Y342200D02*
Y343800D01*
X140300D01*
Y342200D01*
X138700D01*
X148700Y352200D02*
Y353800D01*
X150300D01*
Y352200D01*
X148700D01*
X138700D02*
Y353800D01*
X140300D01*
Y352200D01*
X138700D01*
Y332200D02*
Y333800D01*
X140300D01*
Y332200D01*
X138700D01*
X148700D02*
Y333800D01*
X150300D01*
Y332200D01*
X148700D01*
X23200Y334700D02*
X23600Y335500D01*
X23200Y336300D01*
X24000Y335900D01*
X24800Y336300D01*
X24400Y335500D01*
X24800Y334700D01*
X24000Y335100D01*
X23200Y334700D01*
Y289700D02*
X23600Y290500D01*
X23200Y291300D01*
X24000Y290900D01*
X24800Y291300D01*
X24400Y290500D01*
X24800Y289700D01*
X24000Y290100D01*
X23200Y289700D01*
Y394700D02*
X23600Y395500D01*
X23200Y396300D01*
X24000Y395900D01*
X24800Y396300D01*
X24400Y395500D01*
X24800Y394700D01*
X24000Y395100D01*
X23200Y394700D01*
Y409700D02*
X23600Y410500D01*
X23200Y411300D01*
X24000Y410900D01*
X24800Y411300D01*
X24400Y410500D01*
X24800Y409700D01*
X24000Y410100D01*
X23200Y409700D01*
Y274700D02*
X23600Y275500D01*
X23200Y276300D01*
X24000Y275900D01*
X24800Y276300D01*
X24400Y275500D01*
X24800Y274700D01*
X24000Y275100D01*
X23200Y274700D01*
Y304700D02*
X23600Y305500D01*
X23200Y306300D01*
X24000Y305900D01*
X24800Y306300D01*
X24400Y305500D01*
X24800Y304700D01*
X24000Y305100D01*
X23200Y304700D01*
Y349700D02*
X23600Y350500D01*
X23200Y351300D01*
X24000Y350900D01*
X24800Y351300D01*
X24400Y350500D01*
X24800Y349700D01*
X24000Y350100D01*
X23200Y349700D01*
Y379700D02*
X23600Y380500D01*
X23200Y381300D01*
X24000Y380900D01*
X24800Y381300D01*
X24400Y380500D01*
X24800Y379700D01*
X24000Y380100D01*
X23200Y379700D01*
Y364700D02*
X23600Y365500D01*
X23200Y366300D01*
X24000Y365900D01*
X24800Y366300D01*
X24400Y365500D01*
X24800Y364700D01*
X24000Y365100D01*
X23200Y364700D01*
Y319700D02*
X23600Y320500D01*
X23200Y321300D01*
X24000Y320900D01*
X24800Y321300D01*
X24400Y320500D01*
X24800Y319700D01*
X24000Y320100D01*
X23200Y319700D01*
X570466Y570466D02*
Y570066D01*
X571266D01*
Y570466D01*
X571666D01*
Y571266D01*
X571266D01*
Y571666D01*
X570466D01*
Y571266D01*
X570066D01*
Y570466D01*
X570466D01*
X19285D02*
Y570066D01*
X20085D01*
Y570466D01*
X20485D01*
Y571266D01*
X20085D01*
Y571666D01*
X19285D01*
Y571266D01*
X18885D01*
Y570466D01*
X19285D01*
X570466Y19285D02*
Y18885D01*
X571266D01*
Y19285D01*
X571666D01*
Y20085D01*
X571266D01*
Y20485D01*
X570466D01*
Y20085D01*
X570066D01*
Y19285D01*
X570466D01*
X19285D02*
Y18885D01*
X20085D01*
Y19285D01*
X20485D01*
Y20085D01*
X20085D01*
Y20485D01*
X19285D01*
Y20085D01*
X18885D01*
Y19285D01*
X19285D01*
X570200Y52200D02*
X570600Y53000D01*
X570200Y53800D01*
X571000Y53400D01*
X571800Y53800D01*
X571400Y53000D01*
X571800Y52200D01*
X571000Y52600D01*
X570200Y52200D01*
Y67200D02*
X570600Y68000D01*
X570200Y68800D01*
X571000Y68400D01*
X571800Y68800D01*
X571400Y68000D01*
X571800Y67200D01*
X571000Y67600D01*
X570200Y67200D01*
Y359700D02*
X570600Y360500D01*
X570200Y361300D01*
X571000Y360900D01*
X571800Y361300D01*
X571400Y360500D01*
X571800Y359700D01*
X571000Y360100D01*
X570200Y359700D01*
Y329700D02*
X570600Y330500D01*
X570200Y331300D01*
X571000Y330900D01*
X571800Y331300D01*
X571400Y330500D01*
X571800Y329700D01*
X571000Y330100D01*
X570200Y329700D01*
Y314700D02*
X570600Y315500D01*
X570200Y316300D01*
X571000Y315900D01*
X571800Y316300D01*
X571400Y315500D01*
X571800Y314700D01*
X571000Y315100D01*
X570200Y314700D01*
Y284700D02*
X570600Y285500D01*
X570200Y286300D01*
X571000Y285900D01*
X571800Y286300D01*
X571400Y285500D01*
X571800Y284700D01*
X571000Y285100D01*
X570200Y284700D01*
Y254700D02*
X570600Y255500D01*
X570200Y256300D01*
X571000Y255900D01*
X571800Y256300D01*
X571400Y255500D01*
X571800Y254700D01*
X571000Y255100D01*
X570200Y254700D01*
Y239700D02*
X570600Y240500D01*
X570200Y241300D01*
X571000Y240900D01*
X571800Y241300D01*
X571400Y240500D01*
X571800Y239700D01*
X571000Y240100D01*
X570200Y239700D01*
Y269700D02*
X570600Y270500D01*
X570200Y271300D01*
X571000Y270900D01*
X571800Y271300D01*
X571400Y270500D01*
X571800Y269700D01*
X571000Y270100D01*
X570200Y269700D01*
Y299700D02*
X570600Y300500D01*
X570200Y301300D01*
X571000Y300900D01*
X571800Y301300D01*
X571400Y300500D01*
X571800Y299700D01*
X571000Y300100D01*
X570200Y299700D01*
Y344700D02*
X570600Y345500D01*
X570200Y346300D01*
X571000Y345900D01*
X571800Y346300D01*
X571400Y345500D01*
X571800Y344700D01*
X571000Y345100D01*
X570200Y344700D01*
Y374700D02*
X570600Y375500D01*
X570200Y376300D01*
X571000Y375900D01*
X571800Y376300D01*
X571400Y375500D01*
X571800Y374700D01*
X571000Y375100D01*
X570200Y374700D01*
X288700Y566700D02*
X289100Y567500D01*
X288700Y568300D01*
X289500Y567900D01*
X290300Y568300D01*
X289900Y567500D01*
X290300Y566700D01*
X289500Y567100D01*
X288700Y566700D01*
X318700D02*
X319100Y567500D01*
X318700Y568300D01*
X319500Y567900D01*
X320300Y568300D01*
X319900Y567500D01*
X320300Y566700D01*
X319500Y567100D01*
X318700Y566700D01*
X348700D02*
X349100Y567500D01*
X348700Y568300D01*
X349500Y567900D01*
X350300Y568300D01*
X349900Y567500D01*
X350300Y566700D01*
X349500Y567100D01*
X348700Y566700D01*
X393700D02*
X394100Y567500D01*
X393700Y568300D01*
X394500Y567900D01*
X395300Y568300D01*
X394900Y567500D01*
X395300Y566700D01*
X394500Y567100D01*
X393700Y566700D01*
X423700D02*
X424100Y567500D01*
X423700Y568300D01*
X424500Y567900D01*
X425300Y568300D01*
X424900Y567500D01*
X425300Y566700D01*
X424500Y567100D01*
X423700Y566700D01*
X453700D02*
X454100Y567500D01*
X453700Y568300D01*
X454500Y567900D01*
X455300Y568300D01*
X454900Y567500D01*
X455300Y566700D01*
X454500Y567100D01*
X453700Y566700D01*
X438700D02*
X439100Y567500D01*
X438700Y568300D01*
X439500Y567900D01*
X440300Y568300D01*
X439900Y567500D01*
X440300Y566700D01*
X439500Y567100D01*
X438700Y566700D01*
X408700D02*
X409100Y567500D01*
X408700Y568300D01*
X409500Y567900D01*
X410300Y568300D01*
X409900Y567500D01*
X410300Y566700D01*
X409500Y567100D01*
X408700Y566700D01*
X378700D02*
X379100Y567500D01*
X378700Y568300D01*
X379500Y567900D01*
X380300Y568300D01*
X379900Y567500D01*
X380300Y566700D01*
X379500Y567100D01*
X378700Y566700D01*
X363700D02*
X364100Y567500D01*
X363700Y568300D01*
X364500Y567900D01*
X365300Y568300D01*
X364900Y567500D01*
X365300Y566700D01*
X364500Y567100D01*
X363700Y566700D01*
X333700D02*
X334100Y567500D01*
X333700Y568300D01*
X334500Y567900D01*
X335300Y568300D01*
X334900Y567500D01*
X335300Y566700D01*
X334500Y567100D01*
X333700Y566700D01*
X303700D02*
X304100Y567500D01*
X303700Y568300D01*
X304500Y567900D01*
X305300Y568300D01*
X304900Y567500D01*
X305300Y566700D01*
X304500Y567100D01*
X303700Y566700D01*
X197000Y167200D02*
X197400Y167600D01*
X197800D01*
X197400Y168000D01*
X197800Y168400D01*
X197400D01*
X197000Y168800D01*
X196600Y168400D01*
X196200D01*
X196600Y168000D01*
X196200Y167600D01*
X196600D01*
X197000Y167200D01*
Y77043D02*
X197400Y77443D01*
X197800D01*
X197400Y77843D01*
X197800Y78243D01*
X197400D01*
X197000Y78643D01*
X196600Y78243D01*
X196200D01*
X196600Y77843D01*
X196200Y77443D01*
X196600D01*
X197000Y77043D01*
Y117200D02*
X197400Y117600D01*
X197800D01*
X197400Y118000D01*
X197800Y118400D01*
X197400D01*
X197000Y118800D01*
X196600Y118400D01*
X196200D01*
X196600Y118000D01*
X196200Y117600D01*
X196600D01*
X197000Y117200D01*
Y186885D02*
X197400Y187285D01*
X197800D01*
X197400Y187685D01*
X197800Y188085D01*
X197400D01*
X197000Y188485D01*
X196600Y188085D01*
X196200D01*
X196600Y187685D01*
X196200Y187285D01*
X196600D01*
X197000Y186885D01*
X124000Y117200D02*
X124400Y117600D01*
X124800D01*
X124400Y118000D01*
X124800Y118400D01*
X124400D01*
X124000Y118800D01*
X123600Y118400D01*
X123200D01*
X123600Y118000D01*
X123200Y117600D01*
X123600D01*
X124000Y117200D01*
Y167200D02*
X124400Y167600D01*
X124800D01*
X124400Y168000D01*
X124800Y168400D01*
X124400D01*
X124000Y168800D01*
X123600Y168400D01*
X123200D01*
X123600Y168000D01*
X123200Y167600D01*
X123600D01*
X124000Y167200D01*
Y77043D02*
X124400Y77443D01*
X124800D01*
X124400Y77843D01*
X124800Y78243D01*
X124400D01*
X124000Y78643D01*
X123600Y78243D01*
X123200D01*
X123600Y77843D01*
X123200Y77443D01*
X123600D01*
X124000Y77043D01*
Y186885D02*
X124400Y187285D01*
X124800D01*
X124400Y187685D01*
X124800Y188085D01*
X124400D01*
X124000Y188485D01*
X123600Y188085D01*
X123200D01*
X123600Y187685D01*
X123200Y187285D01*
X123600D01*
X124000Y186885D01*
X51000Y167200D02*
X51400Y167600D01*
X51800D01*
X51400Y168000D01*
X51800Y168400D01*
X51400D01*
X51000Y168800D01*
X50600Y168400D01*
X50200D01*
X50600Y168000D01*
X50200Y167600D01*
X50600D01*
X51000Y167200D01*
Y77043D02*
X51400Y77443D01*
X51800D01*
X51400Y77843D01*
X51800Y78243D01*
X51400D01*
X51000Y78643D01*
X50600Y78243D01*
X50200D01*
X50600Y77843D01*
X50200Y77443D01*
X50600D01*
X51000Y77043D01*
Y117200D02*
X51400Y117600D01*
X51800D01*
X51400Y118000D01*
X51800Y118400D01*
X51400D01*
X51000Y118800D01*
X50600Y118400D01*
X50200D01*
X50600Y118000D01*
X50200Y117600D01*
X50600D01*
X51000Y117200D01*
Y186885D02*
X51400Y187285D01*
X51800D01*
X51400Y187685D01*
X51800Y188085D01*
X51400D01*
X51000Y188485D01*
X50600Y188085D01*
X50200D01*
X50600Y187685D01*
X50200Y187285D01*
X50600D01*
X51000Y186885D01*
X462424Y523200D02*
X462824D01*
X463224Y523600D01*
X463624Y523200D01*
X464024D01*
Y523600D01*
X463624Y524000D01*
X464024Y524400D01*
Y524800D01*
X463624D01*
X463224Y524400D01*
X462824Y524800D01*
X462424D01*
Y524400D01*
X462824Y524000D01*
X462424Y523600D01*
Y523200D01*
X502976D02*
X503376D01*
X503776Y523600D01*
X504176Y523200D01*
X504576D01*
Y523600D01*
X504176Y524000D01*
X504576Y524400D01*
Y524800D01*
X504176D01*
X503776Y524400D01*
X503376Y524800D01*
X502976D01*
Y524400D01*
X503376Y524000D01*
X502976Y523600D01*
Y523200D01*
X463924Y443700D02*
X464324D01*
X464724Y444100D01*
X465124Y443700D01*
X465524D01*
Y444100D01*
X465124Y444500D01*
X465524Y444900D01*
Y445300D01*
X465124D01*
X464724Y444900D01*
X464324Y445300D01*
X463924D01*
Y444900D01*
X464324Y444500D01*
X463924Y444100D01*
Y443700D01*
X504476D02*
X504876D01*
X505276Y444100D01*
X505676Y443700D01*
X506076D01*
Y444100D01*
X505676Y444500D01*
X506076Y444900D01*
Y445300D01*
X505676D01*
X505276Y444900D01*
X504876Y445300D01*
X504476D01*
Y444900D01*
X504876Y444500D01*
X504476Y444100D01*
Y443700D01*
X466424Y358200D02*
X466824D01*
X467224Y358600D01*
X467624Y358200D01*
X468024D01*
Y358600D01*
X467624Y359000D01*
X468024Y359400D01*
Y359800D01*
X467624D01*
X467224Y359400D01*
X466824Y359800D01*
X466424D01*
Y359400D01*
X466824Y359000D01*
X466424Y358600D01*
Y358200D01*
X506976D02*
X507376D01*
X507776Y358600D01*
X508176Y358200D01*
X508576D01*
Y358600D01*
X508176Y359000D01*
X508576Y359400D01*
Y359800D01*
X508176D01*
X507776Y359400D01*
X507376Y359800D01*
X506976D01*
Y359400D01*
X507376Y359000D01*
X506976Y358600D01*
Y358200D01*
X465924Y267200D02*
X466324D01*
X466724Y267600D01*
X467124Y267200D01*
X467524D01*
Y267600D01*
X467124Y268000D01*
X467524Y268400D01*
Y268800D01*
X467124D01*
X466724Y268400D01*
X466324Y268800D01*
X465924D01*
Y268400D01*
X466324Y268000D01*
X465924Y267600D01*
Y267200D01*
X506476D02*
X506876D01*
X507276Y267600D01*
X507676Y267200D01*
X508076D01*
Y267600D01*
X507676Y268000D01*
X508076Y268400D01*
Y268800D01*
X507676D01*
X507276Y268400D01*
X506876Y268800D01*
X506476D01*
Y268400D01*
X506876Y268000D01*
X506476Y267600D01*
Y267200D01*
X464424Y174700D02*
X464824D01*
X465224Y175100D01*
X465624Y174700D01*
X466024D01*
Y175100D01*
X465624Y175500D01*
X466024Y175900D01*
Y176300D01*
X465624D01*
X465224Y175900D01*
X464824Y176300D01*
X464424D01*
Y175900D01*
X464824Y175500D01*
X464424Y175100D01*
Y174700D01*
X504976D02*
X505376D01*
X505776Y175100D01*
X506176Y174700D01*
X506576D01*
Y175100D01*
X506176Y175500D01*
X506576Y175900D01*
Y176300D01*
X506176D01*
X505776Y175900D01*
X505376Y176300D01*
X504976D01*
Y175900D01*
X505376Y175500D01*
X504976Y175100D01*
Y174700D01*
X67042Y471200D02*
X67442D01*
X67842Y471600D01*
X68242Y471200D01*
X68642D01*
Y471600D01*
X68242Y472000D01*
X68642Y472400D01*
Y472800D01*
X68242D01*
X67842Y472400D01*
X67442Y472800D01*
X67042D01*
Y472400D01*
X67442Y472000D01*
X67042Y471600D01*
Y471200D01*
X47357D02*
X47757D01*
X48157Y471600D01*
X48557Y471200D01*
X48957D01*
Y471600D01*
X48557Y472000D01*
X48957Y472400D01*
Y472800D01*
X48557D01*
X48157Y472400D01*
X47757Y472800D01*
X47357D01*
Y472400D01*
X47757Y472000D01*
X47357Y471600D01*
Y471200D01*
X322200Y541000D02*
X323000Y541800D01*
X323800Y541000D01*
X323000Y540200D01*
X322200Y541000D01*
X333700Y542500D02*
X334500Y543300D01*
X335300Y542500D01*
X334500Y541700D01*
X333700Y542500D01*
X29129Y560500D02*
X29929Y561300D01*
X30729Y560500D01*
X29929Y559700D01*
X29129Y560500D01*
X33700Y274000D02*
X34500Y274800D01*
X35300Y274000D01*
X34500Y273200D01*
X33700Y274000D01*
X40071Y282200D02*
X40871Y283000D01*
X41671Y282200D01*
X40871Y281400D01*
X40071Y282200D01*
X191200Y484500D02*
X192000Y485300D01*
X192800Y484500D01*
X192000Y483700D01*
X191200Y484500D01*
X183700Y478000D02*
X184500Y478800D01*
X185300Y478000D01*
X184500Y477200D01*
X183700Y478000D01*
X475200Y17000D02*
X476000Y17800D01*
X476800Y17000D01*
X476000Y16200D01*
X475200Y17000D01*
X226500Y353000D02*
X227300Y353800D01*
X228100Y353000D01*
X227300Y352200D01*
X226500Y353000D01*
X24900Y460000D02*
X25700Y460800D01*
X26500Y460000D01*
X25700Y459200D01*
X24900Y460000D01*
X274500Y315800D02*
X275300Y316600D01*
X276100Y315800D01*
X275300Y315000D01*
X274500Y315800D01*
X453700Y188001D02*
X454500Y188801D01*
X455300Y188001D01*
X454500Y187201D01*
X453700Y188001D01*
X371400Y162000D02*
X372200Y162800D01*
X373000Y162000D01*
X372200Y161200D01*
X371400Y162000D01*
X403200Y236000D02*
X404000Y236800D01*
X404800Y236000D01*
X404000Y235200D01*
X403200Y236000D01*
X276700Y513000D02*
X277500Y513800D01*
X278300Y513000D01*
X277500Y512200D01*
X276700Y513000D01*
X23200Y439200D02*
X24000Y440000D01*
X24800Y439200D01*
X24000Y438400D01*
X23200Y439200D01*
X507200Y62307D02*
X508000Y63107D01*
X508800Y62307D01*
X508000Y61507D01*
X507200Y62307D01*
X94700Y498000D02*
X95500Y498800D01*
X96300Y498000D01*
X95500Y497200D01*
X94700Y498000D01*
X39314Y528799D02*
X40114Y529599D01*
X40914Y528799D01*
X40114Y527999D01*
X39314Y528799D01*
X289232Y144375D02*
X290032Y145175D01*
X290832Y144375D01*
X290032Y143575D01*
X289232Y144375D01*
Y224000D02*
X290032Y224800D01*
X290832Y224000D01*
X290032Y223200D01*
X289232Y224000D01*
Y303625D02*
X290032Y304425D01*
X290832Y303625D01*
X290032Y302825D01*
X289232Y303625D01*
Y383250D02*
X290032Y384050D01*
X290832Y383250D01*
X290032Y382450D01*
X289232Y383250D01*
X94700Y478000D02*
X95500Y478800D01*
X96300Y478000D01*
X95500Y477200D01*
X94700Y478000D01*
X150200Y478488D02*
X151000Y479288D01*
X151800Y478488D01*
X151000Y477688D01*
X150200Y478488D01*
X52700Y528799D02*
X53500Y529599D01*
X54300Y528799D01*
X53500Y527999D01*
X52700Y528799D01*
X66086D02*
X66886Y529599D01*
X67686Y528799D01*
X66886Y527999D01*
X66086Y528799D01*
X200200Y478000D02*
X201000Y478800D01*
X201800Y478000D01*
X201000Y477200D01*
X200200Y478000D01*
X535700Y15000D02*
X536500Y15800D01*
X537300Y15000D01*
X536500Y14200D01*
X535700Y15000D01*
X237700Y478000D02*
X238500Y478800D01*
X239300Y478000D01*
X238500Y477200D01*
X237700Y478000D01*
X256200D02*
X257000Y478800D01*
X257800Y478000D01*
X257000Y477200D01*
X256200Y478000D01*
X548700Y15000D02*
X549500Y15800D01*
X550300Y15000D01*
X549500Y14200D01*
X548700Y15000D01*
X289232Y462875D02*
X290032Y463675D01*
X290832Y462875D01*
X290032Y462075D01*
X289232Y462875D01*
X196145Y509701D02*
X196945Y510501D01*
X197745Y509701D01*
X196945Y508901D01*
X196145Y509701D01*
D103*
X346300Y492587D02*
X345747Y493347D01*
X344852Y493057D01*
Y492116D01*
X345747Y491826D01*
X346300Y492587D01*
Y485500D02*
X345747Y486261D01*
X344852Y485970D01*
Y485030D01*
X345747Y484739D01*
X346300Y485500D01*
Y478413D02*
X345747Y479174D01*
X344852Y478884D01*
Y477943D01*
X345747Y477653D01*
X346300Y478413D01*
Y406837D02*
X345747Y407597D01*
X344852Y407307D01*
Y406366D01*
X345747Y406076D01*
X346300Y406837D01*
Y399750D02*
X345747Y400511D01*
X344852Y400220D01*
Y399280D01*
X345747Y398989D01*
X346300Y399750D01*
Y392663D02*
X345747Y393424D01*
X344852Y393134D01*
Y392193D01*
X345747Y391902D01*
X346300Y392663D01*
Y321087D02*
X345747Y321847D01*
X344852Y321557D01*
Y320616D01*
X345747Y320326D01*
X346300Y321087D01*
Y314000D02*
X345747Y314761D01*
X344852Y314470D01*
Y313530D01*
X345747Y313239D01*
X346300Y314000D01*
Y306913D02*
X345747Y307674D01*
X344852Y307384D01*
Y306443D01*
X345747Y306153D01*
X346300Y306913D01*
Y235337D02*
X345747Y236097D01*
X344852Y235807D01*
Y234866D01*
X345747Y234576D01*
X346300Y235337D01*
Y228250D02*
X345747Y229011D01*
X344852Y228720D01*
Y227780D01*
X345747Y227489D01*
X346300Y228250D01*
Y221163D02*
X345747Y221924D01*
X344852Y221634D01*
Y220693D01*
X345747Y220403D01*
X346300Y221163D01*
Y149587D02*
X345747Y150347D01*
X344852Y150057D01*
Y149116D01*
X345747Y148826D01*
X346300Y149587D01*
Y142500D02*
X345747Y143261D01*
X344852Y142970D01*
Y142030D01*
X345747Y141739D01*
X346300Y142500D01*
Y135413D02*
X345747Y136174D01*
X344852Y135884D01*
Y134943D01*
X345747Y134652D01*
X346300Y135413D01*
X292213Y526500D02*
X291661Y527261D01*
X290766Y526970D01*
Y526030D01*
X291661Y525739D01*
X292213Y526500D01*
X285127D02*
X284574Y527261D01*
X283680Y526970D01*
Y526030D01*
X284574Y525739D01*
X285127Y526500D01*
X299300D02*
X298747Y527261D01*
X297853Y526970D01*
Y526030D01*
X298747Y525739D01*
X299300Y526500D01*
M02*
