G04*
G04 #@! TF.GenerationSoftware,Altium Limited,Altium Designer,22.3.1 (43)*
G04*
G04 Layer_Color=255*
%FSLAX25Y25*%
%MOIN*%
G70*
G04*
G04 #@! TF.SameCoordinates,ABD3340E-3DDB-4FBE-A437-06F7E2321E34*
G04*
G04*
G04 #@! TF.FilePolarity,Positive*
G04*
G01*
G75*
%ADD28R,0.07874X0.07874*%
%ADD64R,0.07480X0.07480*%
%ADD65C,0.07480*%
%ADD66O,0.07874X0.04724*%
%ADD67R,0.07874X0.04724*%
%ADD68C,0.07087*%
%ADD69R,0.07087X0.07087*%
%ADD70C,0.07677*%
%ADD71C,0.06299*%
%ADD72R,0.06299X0.06299*%
%ADD73O,0.11811X0.08661*%
%ADD74C,0.20000*%
%ADD75O,0.04724X0.07874*%
%ADD76R,0.04724X0.07874*%
%ADD77O,0.08661X0.11811*%
%ADD78R,0.07874X0.07874*%
%ADD79C,0.07874*%
D28*
X67842Y472000D02*
D03*
D64*
X169000Y527500D02*
D03*
D65*
X149000D02*
D03*
D66*
X345500Y492587D02*
D03*
Y485500D02*
D03*
Y406837D02*
D03*
Y399750D02*
D03*
Y321087D02*
D03*
Y314000D02*
D03*
Y235337D02*
D03*
Y228250D02*
D03*
Y149587D02*
D03*
Y142500D02*
D03*
D67*
Y478413D02*
D03*
Y392663D02*
D03*
Y306913D02*
D03*
Y221163D02*
D03*
Y135413D02*
D03*
D68*
X468000Y55000D02*
D03*
Y65000D02*
D03*
D69*
Y75000D02*
D03*
D70*
X462500Y481000D02*
D03*
X412500D02*
D03*
X392815D02*
D03*
X502657D02*
D03*
X462500Y393875D02*
D03*
X412500D02*
D03*
X392815D02*
D03*
X502657D02*
D03*
X462500Y306750D02*
D03*
X412500D02*
D03*
X392815D02*
D03*
X502657D02*
D03*
X462500Y219625D02*
D03*
X412500D02*
D03*
X392815D02*
D03*
X502657D02*
D03*
X462500Y132500D02*
D03*
X412500D02*
D03*
X392815D02*
D03*
X502657D02*
D03*
X197000Y168000D02*
D03*
Y77843D02*
D03*
Y118000D02*
D03*
Y187685D02*
D03*
X124000Y118000D02*
D03*
Y168000D02*
D03*
Y77843D02*
D03*
Y187685D02*
D03*
X51000Y168000D02*
D03*
Y77843D02*
D03*
Y118000D02*
D03*
Y187685D02*
D03*
D71*
X149500Y343000D02*
D03*
X139500Y323000D02*
D03*
X149500Y363000D02*
D03*
Y323000D02*
D03*
X139500Y343000D02*
D03*
X149500Y353000D02*
D03*
X139500D02*
D03*
Y333000D02*
D03*
X149500D02*
D03*
D72*
X139500Y363000D02*
D03*
D73*
X24000Y335500D02*
D03*
Y290500D02*
D03*
Y395500D02*
D03*
Y410500D02*
D03*
Y275500D02*
D03*
Y305500D02*
D03*
Y350500D02*
D03*
Y380500D02*
D03*
Y365500D02*
D03*
Y320500D02*
D03*
X571000Y53000D02*
D03*
Y68000D02*
D03*
Y360500D02*
D03*
Y330500D02*
D03*
Y315500D02*
D03*
Y285500D02*
D03*
Y255500D02*
D03*
Y240500D02*
D03*
Y270500D02*
D03*
Y300500D02*
D03*
Y345500D02*
D03*
Y375500D02*
D03*
D74*
X570866Y570866D02*
D03*
X19685D02*
D03*
X570866Y19685D02*
D03*
X19685D02*
D03*
D75*
X291413Y526500D02*
D03*
X284327D02*
D03*
D76*
X298500D02*
D03*
D77*
X289500Y567500D02*
D03*
X319500D02*
D03*
X349500D02*
D03*
X394500D02*
D03*
X424500D02*
D03*
X454500D02*
D03*
X439500D02*
D03*
X409500D02*
D03*
X379500D02*
D03*
X364500D02*
D03*
X334500D02*
D03*
X304500D02*
D03*
D78*
X463224Y524000D02*
D03*
X464724Y444500D02*
D03*
X467224Y359000D02*
D03*
X466724Y268000D02*
D03*
X465224Y175500D02*
D03*
D79*
X503776Y524000D02*
D03*
X505276Y444500D02*
D03*
X507776Y359000D02*
D03*
X507276Y268000D02*
D03*
X505776Y175500D02*
D03*
X48157Y472000D02*
D03*
M02*
